<?xml version="1.0" encoding="utf-8"?>
<!-- Generator: Adobe Illustrator 23.1.0, SVG Export Plug-In . SVG Version: 6.00 Build 0)  -->
<svg version="1.1" id="Calque_1" xmlns="http://www.w3.org/2000/svg" xmlns:xlink="http://www.w3.org/1999/xlink" x="0px" y="0px"
	 viewBox="0 0 1125 228.54" style="enable-background:new 0 0 1125 228.54;" xml:space="preserve">
<style type="text/css">
	.st0{fill:#E40311;}
	.st1{fill:#FEFEFE;}
</style>
<g>
	<g>
		<path class="st0" d="M600.96,0.06c172.82,0,345.63,0,518.45,0c6.51,0,6.51,0,4.17,6.39c-26.42,72.39-52.83,144.78-79.25,217.17
			c-1.79,4.91-1.79,4.92-7.09,4.92c-343.93,0-687.87,0-1031.8,0c-6.23,0-6.25-0.01-4.29-5.89C23.99,154.07,46.83,85.48,69.67,16.9
			c1.57-4.72,3.18-9.42,4.63-14.18c0.59-1.94,1.54-2.91,3.63-2.69c1.34,0.14,2.72,0.03,4.08,0.03
			C254.98,0.06,427.97,0.06,600.96,0.06z"/>
		<path class="st1" d="M356.16,114.83c0,21.33-0.06,42.65,0.06,63.98c0.02,3.09-0.74,5.61-2.48,8.12
			c-3.83,5.5-7.78,10.91-12.01,16.12c-1.88,2.32-3.99,3.29-7.07,3.26c-17.56-0.14-35.12-0.15-52.67,0c-3.78,0.03-6.65-1.21-9.1-3.9
			c-5.32-5.85-10.76-11.58-15.85-17.65c-1.77-2.11-2.61-4.15-2.61-6.94c0.08-42.14,0.08-84.27,0.01-126.41
			c0-2.94,0.8-5.22,2.71-7.46c5.01-5.91,10.38-11.47,15.58-17.19c2.6-2.86,5.54-4.11,9.51-4.06c16.52,0.19,33.05,0.14,49.57,0.02
			c2.97-0.02,5.16,0.78,7.28,2.93c5.43,5.53,10.18,11.65,15.31,17.43c1.81,2.04,1.77,4.33,1.77,6.75
			C356.15,71.49,356.16,93.16,356.16,114.83z"/>
		<path class="st1" d="M385.71,114.25c0-28.55,0-57.11,0-85.66c0-1.38,0.03-2.75,0.01-4.13c-0.02-1.71,0.77-2.51,2.51-2.41
			c1.03,0.06,2.07,0.01,3.1,0.01c22.73,0,45.45,0.07,68.18-0.06c4.21-0.02,7.67,1.13,10.89,3.76c2.94,2.41,5.63,5.05,8.27,7.77
			c6.21,6.39,9.24,13.44,9.13,22.96c-0.54,47.81-0.25,95.64-0.25,143.45c0,1.2-0.09,2.42,0.02,3.61c0.19,2.15-0.53,3.04-2.86,3.02
			c-11.19-0.1-22.38-0.1-33.57,0c-2.33,0.02-3.06-0.87-2.87-3.02c0.11-1.19,0.02-2.41,0.02-3.61c0-45.41,0-90.82,0-136.23
			c0-1.2-0.1-2.42,0.02-3.61c0.22-2.17-0.93-2.58-2.77-2.55c-4.65,0.07-9.3,0.15-13.94-0.03c-2.6-0.1-3.35,0.97-3.12,3.33
			c0.12,1.19,0.02,2.41,0.02,3.61c0,45.07,0,90.13,0,135.2c0,0.86,0.01,1.72,0,2.58c-0.06,4.22-0.06,4.27-4.19,4.28
			c-11.36,0.03-22.73,0.02-34.09,0c-4.43-0.01-4.48-0.05-4.49-4.55C385.7,172.74,385.71,143.49,385.71,114.25z"/>
		<path class="st1" d="M831.12,23.1c8.78,0,17.56,0.08,26.34-0.05c2.57-0.04,4.54,0.51,6.39,2.45c5.23,5.47,10.63,10.78,16.05,16.07
			c1.58,1.55,2.27,3.16,2.25,5.43c-0.1,13.76-0.11,27.52,0,41.28c0.02,2.72-0.46,3.94-3.59,3.9c-11.88-0.18-23.76-0.18-35.63,0
			c-3.09,0.05-3.69-1.11-3.65-3.86c0.13-8.94,0.06-17.89,0.04-26.83c-0.01-4.61-0.04-4.62-4.82-4.64
			c-3.44-0.02-6.89,0.08-10.33-0.03c-2.08-0.07-3.11,0.4-3.08,2.8c0.11,10.32,0.12,20.64,0.01,30.96c-0.04,3.34,2.31,4.45,4.62,5.47
			c6.76,2.97,13.83,5.12,20.83,7.46c8.63,2.88,17.23,5.82,25.82,8.81c1.94,0.67,3.77,1.65,5.66,2.47c3.04,1.3,4.18,3.45,4.15,6.88
			c-0.16,19.44-0.12,38.87-0.02,58.31c0.01,2.6-0.67,4.67-2.3,6.57c-4.8,5.62-9.6,11.24-14.36,16.9c-1.68,1.99-3.75,2.83-6.33,2.82
			c-17.56-0.03-35.12-0.05-52.68,0.02c-2.12,0.01-3.56-0.88-4.99-2.21c-5.92-5.54-11.13-11.71-16.27-17.96
			c-1.35-1.65-2.05-3.4-2.04-5.63c0.09-13.76,0.12-27.52-0.02-41.28c-0.03-2.85,0.7-3.85,3.69-3.8c9.81,0.18,19.63,0.15,29.44,0.01
			c2.56-0.04,3.18,0.81,3.15,3.24c-0.13,8.77-0.07,17.54-0.04,26.32c0.02,4.19,0.83,5.05,4.92,5.58c0.17,0.02,0.34,0.02,0.52,0.03
			c4.15,0.16,8.95,0.62,12.05-1.55c2.36-1.66,0.66-6.46,0.73-9.86c0.14-6.88,0.04-13.76,0.04-20.64c0-4.96-0.01-4.96-4.82-6.81
			c-15.54-5.96-31.07-11.91-46.61-17.88c-1.28-0.49-2.55-1.02-3.81-1.56c-1.76-0.75-2.51-1.96-2.5-4
			c0.07-20.81,0.06-41.63,0.01-62.44c0-1.67,0.49-2.98,1.6-4.17c4.93-5.28,9.82-10.59,14.74-15.87c2.02-2.16,4.54-2.79,7.46-2.76
			C812.87,23.16,821.99,23.1,831.12,23.1z"/>
		<path class="st1" d="M648.17,113.86c0-28.39,0-56.77,0-85.16c0-1.2,0.06-2.41-0.01-3.61c-0.13-2.12,0.62-3.2,2.94-3.05
			c2.23,0.14,4.47,0.03,6.71,0.03c28.93,0,57.86,0,86.78,0c5.75,0,5.24-0.43,5.24,5.3c0.01,8.6-0.11,17.21,0.07,25.8
			c0.06,3-0.99,3.74-3.84,3.72c-16.36-0.11-32.72-0.06-49.07-0.05c-4.65,0-4.67,0.03-4.67,4.8c-0.01,7.74-0.02,15.48,0,23.23
			c0.01,4.21,0.05,4.25,4.15,4.29c12.05,0.12,24.09,0.2,36.14,0.3c4.8,0.04,4.82,0.05,4.83,4.73c0.02,8.6-0.16,17.21,0.09,25.8
			c0.09,3.28-1.08,4.15-4.1,4.14c-12.05-0.04-24.1,0.09-36.15,0.13c-5.47,0.02-4.96-0.28-4.96,5.07c-0.01,12.9,0.1,25.81-0.07,38.71
			c-0.04,3.19,0.92,4.1,4.08,4.07c16.18-0.14,32.37-0.08,48.56-0.06c4.94,0,4.95,0.03,4.96,5.12c0.01,8.6-0.08,17.21,0.05,25.81
			c0.04,2.5-0.81,3.33-3.26,3.29c-7.4-0.1-14.81-0.04-22.21-0.04c-23.59,0-47.18,0-70.77,0c-6.02,0-5.47,0.34-5.47-5.67
			C648.16,171.67,648.17,142.76,648.17,113.86z"/>
		<path class="st1" d="M123.67,113.54c0-21.5,0.05-43-0.05-64.5c-0.01-3.09,0.61-5.56,2.72-7.94c4.9-5.53,9.53-11.3,14.82-16.5
			c1.8-1.77,3.7-2.62,6.36-2.6c16.7,0.13,33.4,0.11,50.1,0.03c3.14-0.02,5.7,0.9,7.85,3.14c5.83,6.08,11.78,12.05,17.23,18.48
			c1.65,1.95,2.3,4.06,2.28,6.61c-0.08,12.73-0.1,25.46,0.01,38.19c0.03,2.76-0.56,3.94-3.64,3.89
			c-10.67-0.17-21.35-0.19-32.02,0.01c-3.18,0.06-3.58-1.23-3.54-3.9c0.13-9.11-0.09-18.24,0.13-27.35c0.08-3.2-0.84-4.18-4.04-4
			c-4.98,0.28-9.98,0.16-14.97,0.03c-2.27-0.06-3.07,0.78-2.95,2.98c0.12,2.23,0.03,4.47,0.03,6.71c0,32.17,0,64.33,0,96.5
			c0,5.93,0.83,6.93,6.7,7.03c3.77,0.06,7.54-0.42,11.32-0.52c3.17-0.08,3.95-1.69,3.9-4.64c-0.16-8.6,0.04-17.2-0.11-25.8
			c-0.05-2.86,0.24-4.29,3.8-4.19c10.49,0.28,21,0.17,31.5,0.05c2.72-0.03,3.97,0.46,3.93,3.61c-0.17,12.9-0.1,25.8-0.04,38.7
			c0.01,2-0.58,3.63-1.62,5.28c-4.32,6.86-9.48,13.07-14.61,19.31c-1.74,2.11-3.93,3.1-6.76,3.09c-18.42-0.07-36.84-0.07-55.26,0.02
			c-2.28,0.01-3.87-0.79-5.46-2.28c-5.91-5.56-10.87-11.95-16.12-18.08c-1.65-1.93-1.46-4.11-1.46-6.33
			C123.67,156.89,123.67,135.22,123.67,113.54z"/>
		<path class="st1" d="M940.29,130.18c0-23.55,0-47.11,0-70.66c0-4.71-0.02-4.73-4.66-4.74c-6.71-0.02-13.42,0.02-20.13-0.01
			c-4.08-0.02-4.11-0.07-4.13-4.33c-0.03-8.08-0.03-16.16,0-24.24c0.02-4.07,0.07-4.12,4.34-4.12c22.54-0.02,45.08-0.01,67.62-0.01
			c9.12,0,18.24,0.11,27.36-0.06c2.99-0.06,3.78,0.98,3.73,3.84c-0.16,8.42-0.17,16.85,0.01,25.27c0.06,3-0.99,3.8-3.84,3.72
			c-6.88-0.17-13.76-0.05-20.65-0.06c-5-0.01-4.5-0.22-4.5,4.39c-0.01,20.46,0,40.92,0,61.38c0,26.82,0.01,53.64-0.01,80.46
			c0,4.91,1.16,5.26-5.35,5.25c-11.53-0.03-23.06-0.03-34.59,0c-6.4,0.01-5.18-0.38-5.18-5.41
			C940.27,177.28,940.29,153.73,940.29,130.18z"/>
		<path class="st1" d="M545.24,130.26c0-23.56,0-47.12,0-70.68c0-4.76-0.03-4.79-4.67-4.8c-6.54-0.02-13.08-0.03-19.62,0
			c-5.08,0.03-4.63,0.02-4.63-4.34c0-8.08-0.02-16.17,0.01-24.25c0.02-4.08,0.06-4.12,4.31-4.12c25.47-0.01,50.95-0.01,76.42-0.01
			c6.2,0,12.4,0.11,18.59-0.05c2.55-0.07,3.22,0.83,3.18,3.25c-0.12,8.77-0.12,17.54,0,26.31c0.03,2.43-0.63,3.31-3.18,3.25
			c-7.23-0.16-14.46,0.1-21.68-0.13c-3.21-0.1-4.04,0.9-4.02,4.06c0.14,20.29,0.07,40.58,0.07,60.88c0,27.17,0,54.34,0,81.51
			c0,5.28,0.59,5.09-4.93,5.09c-11.88-0.01-23.75,0.02-35.63-0.01c-4.14-0.01-4.19-0.06-4.19-4.26
			C545.24,178.06,545.24,154.16,545.24,130.26z"/>
		<path class="st0" d="M315.15,114.29c0,17.19,0.01,34.38-0.01,51.58c-0.01,5.11,0.64,5-4.54,4.82c-3.88-0.14-8.86,1.79-11.33-0.93
			c-2.19-2.4-0.63-7.22-0.63-10.97c-0.04-31.63-0.02-63.27-0.02-94.9c0-1.2,0.05-2.41,0-3.61c-0.06-1.46,0.47-2.25,2.03-2.24
			c4.13,0.03,8.26,0.04,12.39-0.01c1.52-0.02,2.19,0.58,2.12,2.11c-0.06,1.2,0,2.41,0,3.61C315.15,80.59,315.15,97.44,315.15,114.29
			z"/>
	</g>
</g>
</svg>
