<?xml version="1.0" encoding="utf-8"?>
<!-- Generator: Adobe Illustrator 23.1.0, SVG Export Plug-In . SVG Version: 6.00 Build 0)  -->
<svg version="1.1" id="Calque_1" xmlns="http://www.w3.org/2000/svg" xmlns:xlink="http://www.w3.org/1999/xlink" x="0px" y="0px"
	 viewBox="0 0 1125 1145.26" style="enable-background:new 0 0 1125 1145.26;" xml:space="preserve">
<style type="text/css">
	.st0{fill:#F50101;}
	.st1{fill:#840000;}
	.st2{fill:#C50000;}
	.st3{fill:#FBB48B;}
	.st4{fill:#A70000;}
	.st5{fill:#E99C71;}
	.st6{fill:#180808;}
	.st7{fill:#DE936E;}
	.st8{fill:#930101;}
	.st9{fill:#FBCEA6;}
	.st10{fill:#FEDCB3;}
	.st11{fill:#FDEFCA;}
	.st12{fill:#FABE94;}
	.st13{fill:#421202;}
	.st14{fill:#250D0A;}
	.st15{fill:#CE9072;}
	.st16{fill:#FEECEC;}
	.st17{fill:#E79D77;}
	.st18{fill:#431301;}
	.st19{fill:#A05A40;}
	.st20{fill:#CB7E5B;}
	.st21{fill:#210B08;}
	.st22{fill:#FDCDA7;}
	.st23{fill:#373636;}
	.st24{fill:#AB6B4A;}
	.st25{fill:#FCDAB4;}
	.st26{fill:#FDF5EE;}
	.st27{fill:#050E68;}
	.st28{fill:#EE9D73;}
	.st29{fill:#47515C;}
	.st30{fill:#2175B2;}
	.st31{fill:#FE0F0F;}
	.st32{fill:#C67F5F;}
	.st33{fill:#141329;}
	.st34{fill:#1360A7;}
	.st35{fill:#020A5D;}
	.st36{fill:#BCB1B8;}
	.st37{fill:#7C8AA1;}
</style>
<g>
	<g>
		<path class="st0" d="M63.16,324.21c38.63-25.84,84.62-12.93,126.68-22.82c31.16-7.33,46.28-13.3,52.41-48.38
			c13.13-75.14,46.15-142.2,106-192.83c83.36-70.5,175.4-70.85,271.92-32.48c78.9,97.39,63.16,185.86-4.04,292.9
			c-42.76,68.13-18.97,98.24-154.4,88.99c-42.31-2.89-84.5,40.99-131.95,8.75c-75.59-31.47-151.3-62.14-234.04-70.23
			C82,346.76,62.47,347.75,63.16,324.21z"/>
		<path class="st1" d="M871.47,214.13c66.68,62.64,111.76,140.65,153.04,220.61c12.85,24.88,23.16,47.1,48.87,62.88
			c35.89,22.04,51.95,57.21,48.67,100.84c-4.9,65.18-20.11,123.96-85.5,155.59c-43.83,0.47-81.57-36.26-127.84-20.82
			c-5.68-0.03-11.11-1.23-16.28-3.58c-41.36-48.96-88.36-90.3-150.73-110.79c-56.1-18.14-122.5-13.88-159.51-73.35
			c58.63-23.87,118.22-47.24,182.82-36.62c59,9.69,73.95,4.16,92.99-51.45c20.24-59.13,27.99-119.09,12.2-181.03
			C865.05,256.16,854.73,234.49,871.47,214.13z"/>
		<path class="st2" d="M335.37,405.66c17-1.76,29.86,8.95,43.84,15.46c12.55,5.85,18.67,3.59,29.51-6.25
			c33.65-30.54,72.43-39.24,117.59-23.19c39.83,14.16,45.17,10.56,46.27-30.25c0.78-28.99,9.41-50.22,35.26-62.14
			c26.19-12.08,36.32-34.11,42.59-59.7c15.23-62.19,20.33-123.16-21.88-178.21c-7.85-10.23-7.35-22.04-8.39-33.7
			c50.44,15.64,94.47,42.23,133.19,77.89c58.79,96.06,46.63,195.55,13.49,295.66c-7.23,21.84-23.47,39.14-46.79,40.11
			c-60.57,2.52-113.85,29.4-169.99,46.66c-25.07,7.71-50.18,9-75.78,4.82c-18.93-1.79-36.48-8.23-53.48-16.35
			c-28.77-18.79-64.81-26.15-87.46-54.82C331.03,415.97,331.72,410.62,335.37,405.66z"/>
		<path class="st3" d="M689.75,1082.05c-39.54,2.03-73.58,26.83-113.46,27.45c-48.27-12.33-88.16-127.64-76.78-156.41
			c7.45-18.82,20.09-33.33,39.27-41.25c42.85,5.92,69.4-11.14,79.95-54.2c5.09-20.77,13.23-41.37,40.8-41.28
			c26.35,10.65,21.97,35.06,23.77,55.81c1.71,19.7,9.65,33.6,27.41,42.27c20.53,10.01,122.15-16.78,135.51-35.97
			c38.89-55.89,43.86-57.02,104.35-23.89c27.23,28.98,5.77,54.65-5.61,80.99c-2.86,6.63-10.46,10.13-11.94,17.72
			c7.96-1.8,12.55-8.35,18.08-13.33c31.83-28.68,54.31-62.56,59.95-106.28c3.01-23.33,4.23-48.05,28-62.32
			c38.56,62.98,9.76,116.13-27.12,165.78c-32.25,43.4-77.94,69.61-129.48,85.4c-5.81,9.27-16.7,15.51-24.75,11.62
			c-62.43-30.21-101.82,9.92-143.16,45.01c-5.26,2.12-10.72,3.18-16.36,3.29C695.36,1082.33,692.55,1082.19,689.75,1082.05z"/>
		<path class="st4" d="M466.01,477.05c53.38,15.1,101.25-8.78,146.34-28.53c28.28-12.38,54.11-22.51,83.68-18.84
			c37.16,4.62,52.66-12.71,61.8-46.6c21.4-79.36,29.81-158.18,0.67-237.12c-5.03-13.63-6.8-26.49-5.13-40.39
			c50.46,24.12,82.87,67.87,118.1,108.55c27.56,86.21,32.92,171.9-0.37,258.52c-24.9,64.8-46.34,76.28-111.19,49.79
			c-15.17-6.2-28.3-12.88-44.4-3.55c-37.98,21.99-68.64,20.79-118.34,24.91c-4.23,0.35-9.05,0.62-11.81,3.3
			c-4.48,3.96-9.68,5.22-15.52,4.25C535.89,525.69,483.05,526.35,466.01,477.05z"/>
		<path class="st5" d="M549.47,917.1c-16.74,7.73-27.01,21.28-36.41,36.78c-10.93,18.03-11.77,34.3,6.7,45.39
			c24.91,14.95,34.26,34.91,30.11,63.2c-3.18,21.74,5.17,38.34,26.41,47.04c-82.87,29.78-168.47,41.56-255.89,33.06
			c-55.63-5.41-102.56-29.99-130.56-81.2c-18.67-34.15-42.32-66.6-43.82-107.85c20.41-16.1,32.74,2,47.28,10.99
			c7.91,6.12,16.29,11.48,25.75,15.07c5.02,1.45,9.89,3.14,14.85,4.74c72.48,17.98,141.02,20.91,191.28-48.47
			c50.19-25.51,61.41-82.99,98.2-119.58C572.75,839.39,573.22,875.13,549.47,917.1z"/>
		<path class="st6" d="M515.53,822c2.15,61.27-28.76,99.36-84.31,120.16c-63.97,50.16-138.15,51.73-214.08,45l0.21,0.15
			c-7.47-5.5-17.62-3.94-25.06-9.54c-15.61-7.73-24.61-28.08-46.28-24.26c-7.54-5.44-15.79-10.12-22.47-16.47
			c-19.78-18.8-0.42-18.84,11.23-22.39c62.77-21.44,125.98-41.15,165.91-101.31c11.33-17.07,33.82-17.78,54.03-15.87
			c43.41,11.83,82.8-3.69,122.38-18.27c6-1.24,11.94-1.17,17.93,0.03C513.73,787.81,526.8,799.1,515.53,822z"/>
		<path class="st7" d="M359.14,810.25c-27.44-5.04-47.3,2.03-64.47,27.18c-37.8,55.39-90.21,85.44-159.89,77.22
			c-32.73-18.23-74.81-20.67-96.66-57.27c20.64-20.62,47.71-13.08,72.21-16.12c91.58-11.36,127.02-68.93,93.32-152.87
			c-5.41-13.46-8.98-26.03,4.25-37.06c11.88-5.39,23.68-2.83,35.5,0.21c8.85,2.16,17.23,5.51,25.14,10.05
			c32.21,25.49,62.76,52.95,82.23,89.73C360.24,769.21,376.14,787.89,359.14,810.25z"/>
		<path class="st8" d="M335.37,405.66c0,3.1,0.1,6.2,0.3,9.3c-13.5,17.06-30.96,6.63-46.86,6.9c-28.74-6.18-38.78,24.07-60.64,31.23
			c-52.83-2.45-98.24-26.52-139.92-54.95c-22.48-15.33-53.14-37.21-25.08-73.94c44.99,18.96,94.87,11.3,141.4,30.03
			C247.84,371.66,292.98,385.25,335.37,405.66z"/>
		<path class="st9" d="M1039.04,771.35c-4.73,24.88-11.83,48.94-14.82,74.61c-6.58,56.36-44.9,94.64-88.53,126.82
			c-9.21,6.8-25.68,8.48-32.59-1.32c-5.49-7.77,7.88-15.72,13.86-23.04c21.74-26.6,47.62-52.11,25.63-91.04
			c-7.22-5.8-7.95-13.42-6.12-21.8c4.88-16.04,25.36-19.26,29.07-35.91c-12.6-21.41-36.82-18.44-55.35-27.07
			c-28.22-13.14-26.61-29.21-4.18-46.99c50.18-21.13,91.17-0.04,130.55,28.42C1037.39,759.82,1038.21,765.58,1039.04,771.35z"/>
		<path class="st10" d="M60.89,654.92c25.76-19.93,54.82-16.28,84-11.71c72.57,43.45,90.11,84.62,57.93,135.99
			c-39.16,62.52-131.66,76.76-196.59,30.27c-6.57-19.35-9.22-38.93-3.49-59.01c19.26-15.73,36.95-0.48,55.19,2.9
			c30.06,5.57,64.51,8.62,76.26-24.09c13.47-37.47-21.56-48.29-49.05-59.08C76.03,666.61,66.79,663.48,60.89,654.92z"/>
		<path class="st11" d="M60.89,654.92c28.69-1.97,55.1,4.09,77.01,23.63c33.93,30.28,23.68,65.61-16.88,86.4
			c-45.33,23.24-79.46-6.27-118.28-14.5C1.79,706.23,19.59,673.42,60.89,654.92z"/>
		<path class="st12" d="M6.23,809.46c45.41,15.72,91.32,21.68,136.67,1.36c71.05-31.83,80.62-81,27.72-136.03
			c-9.42-9.8-21.11-17.83-25.72-31.58c21.02-8.37,56.26,22.32,63.76-23.19c21.68,7.05,18.3,20.58,9.19,35.58
			c-22.4,11.42-6.4,21.28,1.14,31.75c33.91,47.09,29.86,84.65-9.78,124.63C160.58,861,99.98,860.53,38.12,857.39
			C21.83,845.17,11.82,828.79,6.23,809.46z"/>
		<path class="st13" d="M702.79,1074.36c81.16-58.53,81.16-58.53,179.65-51.83c19.76,35.95-6.89,63.78-30.2,67.16
			c-53.32,7.72-110.53,32.96-162.49-7.64l1.08-0.41C695.38,1080.13,699.39,1077.76,702.79,1074.36z"/>
		<path class="st14" d="M228.16,453.1c11.81-26.69,17.25-61.79,61.06-46.17c18.05,22.26,14.33,48.49,13.63,74.17
			c-0.74,9.24-3.06,18.09-7.32,26.28c-3.17,4.88-7.66,8.05-13.43,9.18c-28.15-5.53-20.25-41.45-43.17-51.47
			C235.34,461.09,231.75,457.09,228.16,453.1z"/>
		<path class="st15" d="M238.93,465.08c8.11-9.07,16.5-16.97,23.81,0.41c6.44,15.3,12.11,30.93,18.11,46.42
			c1.78,4.94,1.33,9.71-0.98,14.37c-11.69,12.91-22.94,26.24-34.63,39.21c-8.26,6.45-16.65,12.56-28,7.72
			C224.46,537.17,231.7,501.13,238.93,465.08z"/>
		<path class="st15" d="M217.23,573.21c7.98-5.36,15.96-10.72,23.94-16.08c5.33,5.02,9.11,11.02,11.42,17.96
			c4.84,31.98,11.28,64.24-13.88,91.7c-6.96-3.74-13.91-7.47-20.87-11.21c-2.45-12.02,2.64-25.98-9.19-35.58
			C211.51,604.41,214.37,588.81,217.23,573.21z"/>
		<path class="st16" d="M277.65,234.74c1.6-48.64,12.94-93.52,50.23-128.09c25.79-23.9,55.04-39.15,91.15-28.52
			c39.75,11.71,62.58,40.53,70.23,80.04c6.9,35.62,2.17,70.75-14.17,103.7c-22.93,46.21-37.29,54-86.92,37.95
			c-34.08-11.02-76.95,0.69-101.14-37.17c-5.73-7.53-5.49-15.1-0.16-22.69c9.41-7.45,17.89-15.79,22.56-27.07
			c8.49-20.51,9.57-53.78,42.74-42.54c29.7,10.07,81.57,2.61,69.75,62.38c-1.11,5.63-3.12,15.16,6.11,18.29
			c1.14,0.38,2.27-6.45,3.09-10.44c8.06-39.23-20.41-70.87-54.21-85.94c-34.05-15.19-41.06,3.39-54.28,22.84
			c-13.22,19.46-12.55,46.59-34.22,61.31C282.66,243.05,279.09,241.69,277.65,234.74z"/>
		<path class="st16" d="M287.64,238.53c-0.2,8.04,3.58,21.68,3.38,29.72c-9.76-9.72-13.37-21.54-13.37-33.51
			c3.75,1.69,7.5,3.39,11.25,5.08L287.64,238.53z"/>
		<path class="st17" d="M906,725.63c-7.16,17.92-20.1,36.55,16.34,37.65c31.02,0.94,63.64,4.36,67.6,46.67
			c-16.67,6.23-43.85-8.33-47.34,23.94c-0.01,7.83-0.01,15.67-0.02,23.5c-64.72-17.51-72.8-12.61-95.26,59.69
			c-2.25,7.25-0.99,16.61-9.95,18.91c-10.91,2.8-11.62-7.27-14.47-14.19c-11.02-26.74-28.03-18.17-40.8-3.97
			c-23.98,26.66-48.5,27.52-78.73,11.4c-22.44-11.96-38.21-23.65-35.59-53.14c1.58-17.82,9.59-39.86-11.36-54.11
			c-21.1-72.74-89.58-104.75-143.88-146.07c-6.17-15.39-2.31-31.44,0.72-47.61c17.85-49.17,55.67-19.41,85.48-21.77
			c89.92,28.05,98.28,38.82,95.95,123.02c-19.06,44.96,5.62,85.36,17.17,125.61c9.42,32.83,34.14,18.06,50.01,1.27
			c25.73-27.22,45.03-59.83,69.25-88.33c17.24-20.29,31.16-47.02,64.45-44.98C899.21,723.27,902.69,724.1,906,725.63z"/>
		<path class="st18" d="M895.56,723.12c-27.72,17.01-47.06,41.66-64.76,68.42c-17.46,26.39-36.77,51.57-55.67,76.97
			c-13.69,18.4-30.48,32.77-55.28,25.11c-22.21-6.87-28.39-25.65-28.62-46.97c-0.15-13.92-0.33-27.22-10.98-38.72
			c-21.34-23.05-14.34-47.16-0.52-70.93c18.47-28.07,40.02-54.3,51.46-86.54c6.21-14.5,7.21-31.49,20.17-42.78
			C810.03,632.92,867.17,660.08,895.56,723.12z"/>
		<path class="st19" d="M751.36,607.69c-2.22,16.29,6.44,35.12-11.21,47.8c-25.5-19.5-55.35-27.95-85.86-36.15
			c-31.73-8.52-65.87-14.48-85.57-46.17c-2.49-9.53-1.47-18.08,6.91-24.54c3.3-0.1,6.55-0.61,9.72-1.52
			C636.05,580.02,694.31,592.19,751.36,607.69z"/>
		<path class="st20" d="M289.83,489.27c-0.2-27.45-0.4-54.89-0.61-82.34c15.48,2.68,30.96,5.35,46.44,8.03
			c26.63,19.36,60.29,26.61,85.01,49.29c3.95,33.28-28.43,57.33-23.05,91.01c-11.56,15.86-25.96,12.35-33.27-0.92
			C347.11,523.05,314.94,510.53,289.83,489.27z"/>
		<path class="st21" d="M395.17,550.29c-15.61-5.09-12.33-16.61-9.13-27.72c6.45-22.42,23.61-38.56,34.63-58.31
			c17.16-2.98,29.03,12.77,45.33,12.8c31.17,32.08,82.16,33.82,109.63,71.58c-0.85,7.72-1.71,15.43-2.56,23.15
			c4.98,11.67-2.19,14.24-11.41,15.3c-44.87-45.64-91.28-84.99-158.42-38C400.56,549.52,397.87,549.9,395.17,550.29z"/>
		<path class="st22" d="M513.63,673.69c29.62,13.77,75.27,25.23,100.17,50.48c27.48,27.88,46.98,57.07,42.62,97.81
			c-16.25,6.7-23.22,18.94-23.75,36.39c-0.62,20.25-12.26,35.99-22.96,52.33c-17.98,27.48-37.75,26.98-60.24,6.4
			c-0.21-17.72,1.76-35.81-1.22-53.04c-3.22-18.62-6.28-40.25-32.72-42.06c-5.61-14.17-2.85-34.23-25.57-36.37
			c-10.92-10.13-33.85,4.29-38.43-18.75c5.79-18.32,29.42-15.74,37.1-31.8c2.17-4.02,4.5-7.93,6.68-11.94
			c1.69-4.26,3.56-8.42,5.27-12.68c1.4-4.48,3.18-8.77,5.09-13.05C510.17,688.73,503.15,675.39,513.63,673.69z"/>
		<path class="st23" d="M702.79,1074.36c-1.74,6.12-5.86,8.33-11.96,7.27C692.69,1075.72,696.96,1073.76,702.79,1074.36z"/>
		<path class="st24" d="M217.14,987.16c26.26-13.65,51.74-23,83.12-12.12c22.45,7.79,47.75,3.18,65.81-15.46
			c18.76-19.36,40.97-20.9,65.15-17.43c-2.9,32.17-23.54,47.49-52.4,54.56C323.98,1010.16,268.95,1025.55,217.14,987.16z"/>
		<path class="st24" d="M192.3,977.77c9.91-0.92,18.78,0.92,25.06,9.54C206.82,989.88,197.83,988.36,192.3,977.77z"/>
		<path class="st25" d="M359.14,810.25c-9.18-62.39-57.46-98.13-95.86-140.6c-9.99-17.94-0.97-34.78,2.84-51.98
			c6.45-17.12,7.34-36.67,21.7-50.41c44.35-16.79,74.93,1.39,98.08,38.51c5.82,19.49,1.27,38.8-1.64,58.1
			c-11.73,77.76-4.21,89.87,71.35,114.49c8.93,2.91,19.86,0.46,26.45,9.74C443.96,811.44,404.04,824.64,359.14,810.25z"/>
		<path class="st26" d="M482.06,788.1c-115.56-5.17-127.95-21.01-111.57-136.42c2.23-15.74,6.36-29.99,12.06-44.29
			c2.34-1.66,4.68-3.31,7.02-4.99c18.95-3.83,33.7,3.3,45.74,17.52c3.76,7.79,4.61,16.02,3.59,24.5
			c-5.33,28.3-10.43,56.64,1.2,84.73c5.93,11.54,68.59-11.36,69.14,2.44c2.14,20.93-4.17,45.35-19.29,54.06l-4.54,0.81L482.06,788.1
			z"/>
		<path class="st27" d="M278.06,621.18c0.26,17.74-5.49,33.64-14.78,48.47c-8.19-0.95-16.37-1.9-24.56-2.85
			c-4.71-30.8-2.07-61.25,4.36-91.52c1.56-5.89,5.31-8.12,11.26-6.75c4.98,2.15,9.46,5.06,13.52,8.64c1.75,2.02,3.44,4.12,5.19,6.16
			C279.06,595.36,285.02,607.42,278.06,621.18z"/>
		<path class="st3" d="M942.61,833.89c-25.11-24.05-0.16-28.66,14.67-34.43c11.98-4.66,21.56,7.3,32.67,10.49
			C979.06,827.6,956.08,821.34,942.61,833.89z"/>
		<path class="st28" d="M382.55,607.38c-28.74-17.69-54.46-43.56-93.13-34.44c-7.87-4.55-11.04-11.99-12.66-20.41
			c-0.69-5.5-0.51-11,0.37-16.46c2.95-7.63,5.37-15.43,6.22-23.65c2.16-7.72,4.32-15.43,6.49-23.15
			c38.98,1.84,70.02,14.75,81.66,56.53c4.35,15.63,13.15,16.85,23.67,4.49l1.57-0.98c20.04-14.26,39.85-19.55,59.02,1.4
			c-11.77,35.12-53.86,30.17-73.2,55.3L382.55,607.38z"/>
		<path class="st29" d="M283.35,512.42c-0.72,7.46-1.45,14.91-2.17,22.37l-5.62-1.79l1.04-5.8c1.42-5.1,2.83-10.19,4.25-15.29
			C280.85,511.91,283.35,512.42,283.35,512.42z"/>
		<path class="st30" d="M276.6,527.19c0.1,3.4,1.62,5.93,4.58,7.59c0.86,4.67,1.71,9.33,2.57,14c-7.9,11.5-16.52,22.03-31.79,23.6
			c-2.91,1.11-5.87,2.07-8.88,2.89c-0.64-6.05-0.1-9.5,1.28-17.05C249.58,542.06,250.91,520.76,276.6,527.19z"/>
		<path class="st31" d="M287.64,237.4c-1.2-42.06,28.56-68.95,47.22-102.19c12.42-22.14,29.08-50,36.87,3.3
			c2.56,17.53,12.67,8.87,20.63,4.5c36.58-20.1,35.89-20.06,42.69,22.45c4.02,25.17,9.24,50.32,16.23,74.81
			c6.78,23.74-6.19,35.8-24.75,37.72c-19.71,2.05-15.75-18.09-17.48-30.48c-1.63-11.63-0.94-23.57-1.69-35.35
			c-0.62-9.66,1.44-25.01-3.45-27.81c-13.66-7.82-19.48,7.78-26.45,15.94c-13,15.21-17.22,7.62-21.2-6.34
			c-2.6-9.11-4.04-22.28-15.01-22.17c-4.23,0.04-8.97,15.33-12.3,24.13c-5.54,14.66-9.15,30.11-15.35,44.46
			c-9.54,22.07-25.97-1.86-25.97-1.86V237.4z"/>
		<path class="st32" d="M562.09,581.05c3.66-3.09,7.32-6.18,10.98-9.28c41.78,25.62,89.22,36.12,135.92,45.84
			c25.2,5.24,32.37,15.65,31.16,37.87c-7.17,36.78-28.98,62.72-60.42,81.52c0.14-3.87,0.33-7.74,0.4-11.62
			c1.37-73.01,1.35-72.97-67.44-98.17c-5.4-1.98-10.36-5.18-15.52-7.81C586.84,605.37,553.25,612.61,562.09,581.05z"/>
		<path class="st20" d="M562.09,581.05c4.47,19.38,31.76,17.9,35.07,38.35c-15.65-0.41-31.62,2.69-46.54-5.11
			c-20.3-10.61-23.11,4.47-26.56,18.42c-8.38,1.71-13.53-2.87-17.87-9.08c-6.48-12.32-12.81-24.78-23.39-34.35
			c-9.33-10.3-23.06-16.51-28.48-30.43c-16.45-19.75-38.27-7.11-57.59-9.55C460.21,487.29,505.44,495.97,562.09,581.05z"/>
		<path class="st33" d="M514.44,625.11c0.46,6.71,0.98,10.25,0.46,14.48c0.75,15.66-0.75,24.46,0,40.12
			c-1.27,8.9-1.27,15.12-1.27,23.28c-32.05-10.26-72.34-11.42-68.24-61.8C462.66,611.04,482.5,591.91,514.44,625.11z"/>
		<path class="st34" d="M514.44,625.11c-30.71-11.02-55.47-10.12-60.54,30.21c-12.92,44.73,28.54,50.86,57.31,67.02
			c2.95,37.9-33.72,47.48-55.89,42.51c-10.22-5.36-19.9-14.46-25.34-25.98c-8.78-31.63-6.6-63.45-1.56-95.31
			c1.01-7.67,2.02-15.34,3.03-23.01c3.38-35.79,19.14-53.35,56.84-38.53C507.13,590.24,517.23,603.76,514.44,625.11z"/>
		<path class="st35" d="M504.11,728.55c-54.6,11.73-69.63-10.19-50.21-73.23c1.89,5.33,5.3,15.39,5.46,15.34
			c30.58-9.82,39.59,16.08,54.26,32.33c-0.8,4.34-1.6,8.68-2.39,13.02c0.34,4.94,0.73,5.38,0.15,10.33L504.11,728.55z"/>
		<path class="st33" d="M251.96,572.39c5.59-14.61,14.66-24.54,31.79-23.6c1.89,8.05,3.78,16.1,5.68,24.16
			c-4.46,15.92,3.04,34.66-11.37,48.24c-4.52-12.7-9.03-25.4-13.55-38.1l13.55,38.1C249.58,626.27,248.69,584.61,251.96,572.39z"/>
		<path class="st36" d="M488.29,582.02c-29.74-3.08-45.69,17.72-56.84,38.53c-16.3-4.85-32.59-9.7-48.89-14.54
			c7.18-41.19,36.92-48.06,71.77-47.15C469.72,560.62,483.18,565.2,488.29,582.02z"/>
		<path class="st34" d="M431.45,620.55c0.52,31.77-1.99,86.55-1.47,118.32C411.19,707.39,415.48,652.59,431.45,620.55z"/>
		<path class="st37" d="M500.22,644.58c0.59,3.34-3.25,7.34-9.21,8.05c-2.88,0.34-7.59-2.12-9.02-4.69
			c-3.06-5.46-0.9-11.67,4.58-13.78C491.95,632.08,497.36,634.75,500.22,644.58z"/>
		<path class="st37" d="M264.85,583.51c1.86-3.1,3.71-6.21,5.57-9.31c7.61,9.33-0.15,8.45-5.92,8.89
			C264.51,583.09,264.85,583.51,264.85,583.51z"/>
	</g>
</g>
</svg>
