<?xml version="1.0" encoding="utf-8"?>
<!-- Generator: Adobe Illustrator 23.1.0, SVG Export Plug-In . SVG Version: 6.00 Build 0)  -->
<svg version="1.1" id="Calque_1" xmlns="http://www.w3.org/2000/svg" xmlns:xlink="http://www.w3.org/1999/xlink" x="0px" y="0px"
	 viewBox="0 0 923.5 1080" style="enable-background:new 0 0 923.5 1080;" xml:space="preserve">
<style type="text/css">
	.st0{fill:#F9F2F0;}
	.st1{fill:#F19BBA;}
	.st2{fill:#F6DC07;}
	.st3{fill:#F9F108;}
	.st4{fill:#F5ABCA;}
	.st5{fill:#F0D7DF;}
	.st6{fill:#FAC2CA;}
	.st7{fill:#ECBFAC;}
	.st8{fill:#067FCF;}
	.st9{fill:#E78B1B;}
	.st10{fill:#F3AB1E;}
	.st11{fill:#08A3E4;}
	.st12{fill:#FAD4D1;}
	.st13{fill:#15E0F4;}
	.st14{fill:#C28D08;}
	.st15{fill:#E4B805;}
	.st16{fill:#F3D304;}
	.st17{fill:#A06C0D;}
	.st18{fill:#C78C77;}
	.st19{fill:#D5A308;}
	.st20{fill:#EE9DA3;}
	.st21{fill:#BE8060;}
	.st22{fill:#D39C7B;}
	.st23{fill:#858585;}
	.st24{fill:#F2B6B6;}
	.st25{fill:#EDC806;}
	.st26{fill:#F8DBCB;}
	.st27{fill:#444342;}
	.st28{fill:#F62F45;}
</style>
<g>
	<g>
		<path class="st0" d="M651.55,84.88c26.51-7.79,53.04-15.52,79.53-23.4c42.12-12.53,62.41-3.84,82.2,35.74
			c11.06,22.12,15.89,46.02,18.61,70.31c7.84,70.04-9.28,138.85-11.05,208.45c-0.23,9.11-10.44,16.96-8.28,27.83
			c4.69,11.7-2.23,19.09-9.69,26.32c-64.55,45.59-122.25,16.84-179.73-16.38c-14.33-8.28-25.89-20.85-41.86-26.4
			c-4.36-1.73-8.53-3.9-12.55-6.28c-3.94-2.31-7.69-4.98-11.35-7.72c-1.85-1.26-3.64-2.68-5.51-3.94
			c-3.82-2.37-7.49-4.99-11.18-7.58c-19.61-15.26-40.12-29.32-59.82-44.54c-20.65-24.85-54.42-45.47-28.13-85.69
			c21.81-15.98,42.5-33.24,59.6-54.44c12.45-16.38,28.04-29.29,44.98-40.72C588.17,118.28,612.67,88.43,651.55,84.88z"/>
		<path class="st1" d="M801.68,424.9c3.62-7.03,7.25-14.05,10.87-21.08c36.37,72.66,56.02,148.93,61.61,230.63
			c3.48,50.84,7.96,101.6,8.92,152.6c-42.8,23.6-85.86,32-128.55,0.32c-23.68-17.58-58.38-14.59-76.75-41.6
			c-6.33-19.49,6.41-30.75,19.31-40.57c26.13-19.89,40.39-45.91,44.22-77.99c1.19-7.5,2.94-15.14-3.7-21.41
			c-4.97-3.69-9.75-7.46-13.35-12.58c-9.02-20.76-27.7-36.52-31.05-60.17c0.35-10.15,4.05-18.31,13.65-22.93
			c27.92,4.51,56.37,9.74,50.14-34.9C772.58,459.07,785.72,440.74,801.68,424.9z"/>
		<path class="st2" d="M15.88,475.28c4.09-45.51,21.45-85.66,49.23-121.6c23.26,0.98,27.75,19.49,35.35,36.25
			c24.54,54.08,70.58,68.57,121.89,39.06c15.95-9.17,28.96-22.01,42.35-34.46c26.78-24.9,39.18-49.89,4.29-78.18
			c-5.77-4.68-4.67-11.79-1.45-18.25c54.83-37.94,111.84-34,170.01-9.05c6.96,4.47,13.2,9.82,19.07,15.67
			c4.07,3.92,7.26,8.45,9.8,13.48c3.66,7.82,5.78,16.04,6.58,24.62c9.15,32.71,11.71,65.62,4.89,99.21
			c-5.72,28.15-4.13,56.44-0.68,84.89c8.3,68.28-6.97,83.93-76.1,79.97c-15.14-4.47-25.83-13.9-31.79-28.55
			c-7.55-27.51-5.3-55.45-3.37-83.37c2.38-15.57,7.04-30.48,13.83-44.67c2.39-4.28,5.57-7.98,9.3-11.14
			c44.55-34.38,46-53.39,6.37-86.01c-23.92-12.77-34.07,5.43-48.93,18.87c-27.87,25.2-30.02,70.39-68.96,86.22
			c-11.59,3.03-20,10.95-29.11,18.04c-67.04,52.24-101.78,54.19-174.08,10.38c-4.22-2.3-8.01-5.25-11.46-8.58
			C55.29,475.8,58.11,443,40,470.58C34.3,479.26,25.87,483.76,15.88,475.28z"/>
		<path class="st3" d="M267.21,304.33c0.47,5.52,4.08,10.57,8.74,9.8c15.99-2.62,29.01,5.32,30.64,18.15
			c1.88,14.9,7.51,32.68-7.97,46.54c-17.31,15.5-32.89,32.92-49.66,49.05c-31.18,29.99-70.75,33.82-109.33,26.24
			c-30.65-6.03-50.78-33.95-52.07-63.18c-0.91-20.76-19.53-22.66-22.45-37.26c19.64-24.55,36.38-52.51,70.6-59.9
			c30.14-2.65,54.85,29.33,87,13.47c10.71-2.81,21.32-6.03,32.35-7.44C259.67,299.8,263.74,301.26,267.21,304.33z"/>
		<path class="st4" d="M680.6,736.94c6.55,15.65,22.15,18.96,35.17,19.76c24.87,1.54,44,12.14,59.14,29.94
			c10.46,12.29,25.53,15.72,35.7,10.21c23.74-12.84,48.34-7.16,72.47-9.8l-0.17-0.02c2.76,3.63,5.58,7.21,8.48,10.73
			c7.02,13.46,14.03,26.91,21.05,40.37c-3.81,3.27-8.33,7.95-12.79,7c-79.02-16.73-146.52,15.8-214.03,48.96
			c-8.96,4.4-19.07,5.81-29.15,6.41c-8.21,0.51-16.33-0.12-24.4-1.69c-10.93-2.33-20.99-6.61-29.97-13.33
			c-4.33-3.56-7.39-8.03-9.29-13.3c-0.86-37.47,1.36-74.68,10.74-111.22c11.44-16.59,30.28-18.9,47.42-24.58
			C660.89,734.15,670.85,731.24,680.6,736.94z"/>
		<path class="st5" d="M650.65,888.36c17.39,3.7,33.29-3.39,45.82-12.46c27.68-20.03,60.69-29.51,90.56-43.6
			c27.36-12.9,64.82-10.47,96.43,2.18c10.07,4.03,19.4,2.25,28.99,3.65c10.57,14.22,14.6,30,7.49,46.54
			c-11.77,27.38-23.96,56-51.23,70.97c-29.96,16.44-61.03,34.5-93.8,41.16c-33.32,6.77-67.54,19.04-103.02,11.37
			c-9.78-25.49-5.75-50.46,2.77-75.25c10.69-13.35,20.91-5.35,30,1.68c14.12,10.92,25.45,29.38,47.16,19.27
			c31.57-14.71,67.31-24.44,89.83-52.26c12.97-16.02-5.21-18.88-16.71-17.32c-31.4,4.26-62.45,10.47-92.39,21.48
			c-17.17,6.31-34.12,13.6-52.55,16.06C659.99,919.59,646.65,911.55,650.65,888.36z"/>
		<path class="st6" d="M267.21,304.33c-3.27-0.35-6.55-0.59-9.83-0.74c-18.42-3.68-33.75-10.66-35.07-32.65
			c2.22-8.48,7.88-14.29,14.79-19.3c58.56-42.54,57.35-42.12,32.18-111.48c-8.95-24.66-33.25-48.87-11.51-78.66
			c23.45-2.78,40.13,13.1,59.49,21.56c11.63,23.03,8.83,49.03,15.09,72.96c5.05,19.27,0.35,45.95,29.8,51.86
			c33.21,5.64,69.5-0.2,96.92,26.3c-4.54,10.78-12.85,17.64-4.05,34.04c9.46,17.63,28.22,26.72,34.11,45.67
			c-9.88,9.15-20.03,8.08-30.33,0.78c-3.1-0.59-6.22-0.86-9.37-0.8c-3.89-3.21-7.49-6.69-10.38-10.86
			c-40.42-18.94-81.58-27.78-125.56-11.93C298.46,296.5,280.65,292.83,267.21,304.33z"/>
		<path class="st7" d="M235.98,1070.6c-3.05-0.1-6.09-0.35-9.12-0.75c-4.86-6.4-14.61-3.91-19.3-10.61l-0.43-0.42
			c-6.53-4.52-4.27-14.56-11.65-18.55c-15.97-5.35-24.13-43.29-29.32-52.7c3.04-3.48,1.56-8.44,6.17-8.93
			c12.58-0.16,49.63,30.67,59.13,17.67c2.17-5.53,3.37-11.27,3.41-17.27c-0.53-4.14-0.83-8.22-1.26-12.36
			c-0.64-8.78-2.22-17.86,7.47-23.3c13.14-5.57,26.06-1.37,39.03,0.8c13.16,2.2,29.08,6.58,38.89-1.21
			c47.91-38.03,98.72-74.29,117.14-137.63c5.04-16.52,14.73-26.55,33.44-24.01c39.39,31.04,21.53,62.67-2.53,90.02
			c-47.25,53.72-82.78,118.33-145.64,157.86c-14.44,9.08-19.7,26.75-30.5,39.51C272.89,1077.82,254.52,1076.72,235.98,1070.6z"/>
		<path class="st0" d="M257.76,61.5c-4.28,32.6,20.95,55.7,27.35,84.84c3.05,13.88,10.59,25.79,13.8,40.23
			c8.01,36.1,8.82,38.71-21.25,57.27c-16.89,10.43-39.43,11.55-51,30.7c-3.54,3.74-7.76,6.42-12.62,8.1
			c-12.57,3.02-24.67,2.37-35.88-4.76c-9.93-12.32-0.96-21.71,5.14-31.38c36.63-58.06,32.68-87.91-17.83-133.66
			c2.23-12.62-3.51-26.73,4.78-37.92c7.69-10.38,17.05-19.68,26.57-28.49c13.49-12.5,23.02,7,35.58,5.4
			c4.69-0.6,9.66,1.03,14.5,1.65c3.63,2.75,7.26,5.48,10.9,8.2L257.76,61.5z"/>
		<path class="st8" d="M681.58,928.67c-2.46,26.59,5.88,54.5-9.71,79.49c-24.05,14.7-44.54,36.54-77.41,31.81
			c-17.67-2.55-34.12-4.44-44.9-20.54c3.23-9.58,10.26-17.18,13.71-26.65c5.23-13.59,4.53-28.73,10.94-41.99
			c4.41-7.31,11.25-12.23,17.36-17.86c5.63-5.78,10.54-12.19,15.59-18.46c8.01-8.8,13.82-19.51,23.27-27.07
			c6.74,0.32,13.47,0.64,20.21,0.95c6.3,13.76,16.89,23.49,29.52,31.29c2.45,1.67,3.48,3.56,3.08,5.68
			C682.83,927.56,682.28,928.67,681.58,928.67z"/>
		<path class="st9" d="M560.55,145.21c-8.55,18.4-32.72,19.68-41.53,37.81c-6.14,2.58-14.94,2.04-18.39,7.24
			c-30.08,45.48-63,33.73-97.19,5.84c2.41-29.73-0.5-58.93-8.97-87.56c0.75-4.79,3.42-8.2,7.67-10.43
			c17.55,0.43,37.86,8.8,46.72-16.09c10.44,1.86,15.99,10.54,21.63,17.63c10.47,13.15,23.44,14.96,38.37,12.62
			c8.64-4.38,15.3-10.87,20.32-19.09c6.57-3.84,13.15-7.69,19.72-11.53c9.08,1.79,14.91,7.37,18.48,15.66
			C573.63,114.47,571.37,130.45,560.55,145.21z"/>
		<path class="st10" d="M408.36,193.07c4.32,15.11,12.38,11.84,21.09,4.14c9.25-8.17,20.45-25.08,19.46,5.28
			c-0.2,6.27,1.83,12.62,2.84,18.94c5.03-3.68,10.49-6.91,14.98-11.16c7.18-6.81,13.85-14.18,20.48-21.54
			c6.57-7.3-6.2-26.14,14.34-24.94c11.25,0.66,3.75,19.87,17.48,19.22c-16.45,21.19-30.03,45.74-59.96,51.17
			c-37.21-1.97-73.21-16.15-111.12-10.96c-19.22-48.68-33.96-97.96-20.28-151.05c2.4-33.79,7.65-40.54,39.84-51.17
			c19.03,21.59,16.4,48.21,17.27,74.01c-2.33,10.03-9.73,16.73-15.91,24.18C346.09,163.03,375.82,178.8,408.36,193.07z"/>
		<path class="st11" d="M105.98,927.98c-9.9,0.27-19.81,0.82-29.71,0.77c-47.41-0.21-57.29-8.78-70.65-60.83
			c5.81-11.04,14.34-18.47,26.98-20.48c20.75-2.33,30.7-14.34,31.12-34.89c1.08-9.66,4.8-18.07,11.6-25.04l-0.09-0.56
			c4.05-3.24,8.6-5.43,13.66-6.6c8.09-0.49,15.21,1.68,21,7.54c2.96,4.23,5.03,8.88,6.32,13.88c5,24.52-0.36,50.07,7.44,74.35
			c2.91,12.55,3.89,25.07-0.66,37.49C119.7,921.19,112.7,924.41,105.98,927.98z"/>
		<path class="st12" d="M165.47,112.84c9.25-1.22,16.05-13.11,28.21,0.59c21.87,24.64,20,56.89,32.03,84.51
			c5.22,11.98-8.24,26.78-16.97,38.31c-9.9,13.07-25.63,21.17-32.24,37.18c-5.84,3.41-10.54,2.25-14.12-3.48
			c-4.31-42.16,4.27-84.79-4.68-126.78C152.2,130.98,162.63,122.88,165.47,112.84z"/>
		<path class="st13" d="M610.45,918.84c-0.97,8.23,3.15,19.2-11,20.3c-10.28-3.78-19.05-4.81-18.94,10.37
			c-0.09,12.48-0.43,24.97-0.19,37.45c0.14,7.51-3.47,11.23-10.35,12.63c-13.4,10.48-26.66,8.86-39.82-0.49
			c-0.25-3.39-0.5-6.78-0.75-10.17c-6.69-4.07-13.99-7.44-17.41-15.27c-8.31-24.99-1.44-47.37,11.8-68.71
			c19.87-23.15,39.13-48.1,75.32-29.09c3.69,0.83,7.38,1.66,11.07,2.49C619,891.79,621.13,905.27,610.45,918.84z"/>
		<path class="st14" d="M95.24,687.29c-34.51-1.56-61.79-13.12-70.26-50.7c26.28-18.02,32.94-49.21,49.53-73.81
			c6.95-4.2,14.44-5.33,22.4-4.22c14.51,3.9,23.33,13.47,27.8,27.49c2.73,11.01,2.13,22-0.22,32.98
			C110.88,640.1,134.14,677.05,95.24,687.29z"/>
		<path class="st15" d="M75.6,566.02c4.68,20.44-8.73,37.1-12.81,55.65c-3.82,17.34-22.85,15.3-37.8,14.92
			C5.15,612.82,3.29,584.82,5.96,555.76c20.29-15.99,45.28-26.72,57.68-51.61c4.45-2.08,9.01-2.45,13.75-1.2
			c11.67,7.2,16.09,17.8,14.85,31.12C90.51,546.69,84.56,557.15,75.6,566.02z"/>
		<path class="st16" d="M65.48,505.55c-1.4,10.85,4.7,23.61-6.96,31.88c-15.67,11.12-31.69,21.83-52.56,18.33
			c0.65-20.1,1.31-40.2,1.96-60.3c1.53-3.96,3.94-7.29,7.12-10.08c0.28-3.37,0.56-6.74,0.84-10.11c7.53-0.79,17.13,2.42,19.25-9.26
			c1.94-10.72-4.5-23.03,6.36-32.09c4.84-4.04,8.55-10.24,16.28-8.23c8.2,2.14,7.83,8.75,7.75,15.3
			c-0.13,11.43-0.03,22.87-0.02,34.3C67.51,485.39,67.51,495.47,65.48,505.55z"/>
		<path class="st17" d="M560.55,145.21c-0.33-17.67-0.65-35.35-0.98-53.02c-5.96-6.77-5.18-13.59-0.12-20.43l-0.32,0.32
			c5.32-4.13,11.68-6.05,17.87-8.3c8.75-1.85,17.21-4.25,22.85-11.99l-0.2,0.22c12.94-6.79,25.49-15.17,41.33-10.07
			c7.65,1.48,9.96,6.25,9.74,13.75c-0.29,9.72,0.5,19.47,0.82,29.2C622.71,107.24,592.6,127.69,560.55,145.21z"/>
		<path class="st18" d="M235.98,1070.6c12.8-0.25,25.6-0.91,38.39-0.61c7.79,0.18,11.66-3.08,12.95-10.32
			c23.22-27.09,53-45.84,82.79-64.44c13.96-8.72,28.55-20.21,44.27-2.24c7.81,16.68,6.19,32.11-6.07,46.13
			c-48.08,30.47-101.28,41.06-157.37,40.88C243.41,1079.97,238.21,1078.12,235.98,1070.6z"/>
		<path class="st2" d="M378.61,100.84c-14.83-25.07-9.07-52.99-11.1-79.84c1.2-12.05,2.47-25.8,19.41-14.29
			c8.95,6.08,19.05,12.93,21.41,25.36c3.37,3.21,6.5,6.64,9.39,10.29l0.41,0.49c13.17,26.42,15.03,49.04-19.92,59.33l0.1,0.37
			c-2.64,3.36-6.05,5.2-10.37,5.27C383.75,106.96,380.63,104.63,378.61,100.84z"/>
		<path class="st2" d="M166.37,273.84c3.38-0.14,6.75-0.28,10.13-0.42c13.43,0.7,26.85,1.4,40.28,2.1
			c7.51,11.8,18.35,22.72,10.09,38.63c-23.68,13.8-48.02,13.97-64.78,0.8c-8.86-6.97-13.56-19.13-26.37-21.17
			c0.23-14.05,21.23-5.57,21.4-19.69C160.06,268.82,163.15,268.99,166.37,273.84z"/>
		<path class="st17" d="M530.06,909.15c-5.15,23.04-17.33,45.3-7.71,69.96c2.14,3.34,1.61,6.18-1.59,8.53
			c-0.47,13.83-3.71,24.94-21.46,21.8c-17.18-27.46-30.95,7.16-46.91,2.6c-7.24-1.56-12.79-5.49-16.7-11.74
			c-1.31-4.62-1.34-9.24,0-13.86c27.89-29.13,46.03-68.92,89.01-81.69C526.48,906.2,528.27,907.67,530.06,909.15z"/>
		<path class="st19" d="M449.11,1009.48c17.48-7.62,26.31-25.05,40.92-35.82c3.55-2.62,10.19-5.07,13.28-3.48
			c6.4,3.3,8.7,10.41,2.71,16.3c-6.8,6.69-7.44,14.45-6.73,22.95l-0.02,0c-4,2.78-6.65,6.86-10,10.26
			c-8.98,20.67-28.42,25.28-47.35,30.14c-7.63,1.96-12.44-2.26-13.29-10.32c0.33-1.74,0.65-3.49,0.93-5.25
			c1.43-3.27,3.25-6.32,5.24-9.28c0.95-1.5,2-2.95,2.95-4.46c1.91-3.05,4.17-5.82,6.65-8.43
			C445.96,1011.2,447.54,1010.34,449.11,1009.48z"/>
		<path class="st20" d="M199.69,1002.07c-4.04,0.33-11.14-4.08-15.49-5.11c-14.82-12.74-14.29-14.72-20.99-20.95
			c-9.12-9.07-26.06-7.84-13.14-22.35c7.46-5.62,15.62-8.87,25.17-7.33c13.31,3.84,21.18,14.78,30.79,23.43
			c8.93,7.83,19.42,5.14,29.64,4.31c4.47,0.07,8.27,1.67,11.33,4.95c-0.02,6.79-0.03,13.58-0.05,20.36
			C231.71,1010.97,217.13,1001.54,199.69,1002.07z"/>
		<path class="st17" d="M95.24,687.29c20.45-5.6,6.11-22.3,10.62-32.9c5.22-12.28-12.08-30.45,10.1-38.1
			c8.29-3.36,12.67,1.5,16.4,7.74c3.56,8.66,3.57,17.49,1.1,26.4c-6.39,11.38,0.91,20.46,5.22,30.05c1.56,4.24,2.32,8.61,2.34,13.11
			c-1.79,13.51-4.66,26.67-12.87,38.06c-7.34,6.46-14.92,11.84-24.91,4.92c-3.51-7.01-3.31-13.59,2.32-19.51
			C103.88,706.53,91.79,699.6,95.24,687.29z"/>
		<path class="st13" d="M75.33,787.52c-0.32,10.9-0.64,21.8-0.96,32.7c-14.24,10.35-26.55,22.62-36.93,36.83
			c-12.7-2.5-21.41,6.65-31.81,10.88C10.13,817.65,21.49,804.54,75.33,787.52z"/>
		<path class="st9" d="M327.67,72.17c-0.21,44.84,6.26,88.62,19.94,131.4c1.91,5.97,0.31,13.07,0.34,19.64
			c-11.52-1.41-17.21-10.07-19.94-19.35c-9.98-33.96-6.7-70.46-19.47-104.16c-1.48-3.89,5.61-11.02,8.72-16.65
			C317.91,76.75,320.97,72.72,327.67,72.17z"/>
		<path class="st10" d="M398.21,102.18c20.48-17.8,20.48-17.8,19.92-59.33c10.25,13.05,20.49,26.11,30.74,39.16
			c-0.08,13.14-0.39,26.28-0.13,39.42c0.12,5.87-2.74,9.03-7.73,10.36c-5.2,1.38-10.27-0.7-11.6-5.68
			C425.07,109.83,415.64,101.02,398.21,102.18z"/>
		<path class="st21" d="M438.48,999.09c6.72,0.22,10.09,3.86,10.63,10.39l-0.21,0.17c-6.77,4.92-4.42,14.32-9.83,19.91l-0.31,0.32
			c-3.58,2.99-6.9,6.24-9.93,9.79l-0.19-0.15c-6.78-0.13-13.56-0.27-20.34-0.4c-0.01-16.66-0.02-33.33-0.03-49.99
			c-9.33-14.02-3.27-21.09,10.98-24.44c4.37,0.77,8.07,2.88,10.99,6.24C434.61,979.8,427.76,992.01,438.48,999.09z"/>
		<path class="st6" d="M105.57,717.06c0.6,6.61,1.21,13.23,1.81,19.84c4.04,3.99,6.77,8.73,8.25,14.21
			c2.34,14.29,1.91,27.86-10.48,38.12c-6.44-0.8-12.88-1.59-19.32-2.39c-9.52-7.67-1.47-20.46-8.43-28.88
			c-1.38-11.73,9.67-19.49,9.04-31.97C85.85,714.44,98.12,718.18,105.57,717.06z"/>
		<path class="st0" d="M166.37,273.84c0,0-4.62,0.46-4.62,0.46l-4.64-0.21c0.2-43.64,0.4-87.29,0.59-130.93
			c8.59,1.61,8.9,7.75,8.85,14.84C166.32,196.61,166.4,235.23,166.37,273.84z"/>
		<path class="st11" d="M530.14,999.09c13.27,0.16,26.55,0.33,39.82,0.49c2.2,15.85-5.09,21.95-20.39,19.85
			C538.96,1016.59,531.5,1010.75,530.14,999.09z"/>
		<path class="st21" d="M135.96,949.45c-6.28-1.02-9.97-4.36-9.94-11.05c-9.84-14.41-3.35-30.36-4.29-45.62
			c2.18-5.59,6.23-7.96,12.18-7.14c4.76,2.73,8.15,6.64,10.24,11.71c4.92,15.81,4.98,31.37-2.51,46.52
			C139.76,945.74,137.86,947.6,135.96,949.45z"/>
		<path class="st2" d="M126.76,888.83c-0.25,16.53-0.5,33.05-0.75,49.58c-6.66,0.01-9.55-3.88-10.33-9.96
			c-2.48-2.06-3.54-4.33-3.2-6.82c0.36-2.59,0.88-3.89,1.57-3.89c-0.3-13.18-0.61-26.36-0.91-39.54c1.63-1.13,3.25-2.26,4.88-3.4
			c4.11-0.27,7.7,0.96,10.78,3.69C130.69,882.44,129.88,885.86,126.76,888.83z"/>
		<path class="st9" d="M640.99,41.93C628.4,50.18,614.86,54.48,599.66,52C619.7,25.8,621.24,25.43,640.99,41.93z"/>
		<path class="st19" d="M155.14,958.58c-5.04,0.9,6.1,7.67,10.49,12.08c6.64,6.68,3.28,14.21,3.22,22.27
			c-22.02-5.47-32.56-26.92-32.89-43.48l0.5-0.57C147.52,942.84,156.32,941.12,155.14,958.58z"/>
		<path class="st9" d="M599.86,51.78c2.73,16.03-4.05,22.81-20.07,20.6c-5.95-6.75-5.6-13.47,0.1-20.17
			C586.54,52.06,593.2,51.92,599.86,51.78z"/>
		<path class="st2" d="M579.88,52.21c-0.03,6.72-0.06,13.44-0.1,20.17c-6.88-0.1-13.77-0.2-20.65-0.3
			C562.34,61.58,568.48,54.16,579.88,52.21z"/>
		<path class="st0" d="M77.4,757.96c16.4,5.67,5.04,19.42,8.43,28.88c-3.53,0.04-7.06,0.08-10.59,0.12
			C75.96,777.29,76.68,767.63,77.4,757.96z"/>
		<path class="st22" d="M529.19,93.17c2.65,16.37-5.33,21.46-20.32,19.09C512.39,102.44,518.75,95.63,529.19,93.17z"/>
		<path class="st22" d="M207.56,1059.24c7.78,1.08,18.27-2.74,19.3,10.61C218.97,1068.97,208.26,1073.18,207.56,1059.24z"/>
		<path class="st22" d="M195.48,1040.27c14.73-0.62,10.37,10.73,11.65,18.55C193.59,1058.69,197.46,1047.65,195.48,1040.27z"/>
		<path class="st2" d="M559.45,71.76c0.04,6.81,0.08,13.62,0.12,20.43c-7.12,0.08-9.86-4.25-10.66-10.55
			C549.68,75.42,553.21,72.14,559.45,71.76z"/>
		<path class="st6" d="M257.79,61.68c-6.22,0.69-10.1-1.72-10.9-8.2C253.51,52.25,257.13,55,257.79,61.68z"/>
		<path class="st1" d="M891.4,797.76c-6.56-0.63-9.07-4.46-8.48-10.73C889.57,787.59,892.19,791.33,891.4,797.76z"/>
		<path class="st11" d="M520.76,987.64c-1.13-3.14-0.6-5.99,1.59-8.53c5.36,1.11,7.36,4.64,7.05,9.82
			C526.45,988.94,523.57,988.51,520.76,987.64z"/>
		<path class="st23" d="M114.06,917.74c0.54,3.57,1.09,7.14,1.63,10.71l-4.87,0.07l-4.84-0.54
			C105.86,922.35,108.62,918.99,114.06,917.74z"/>
		<path class="st17" d="M489.28,1019.7c-0.13-6.79,3.15-10.26,10-10.26C499.19,1016.01,495.71,1019.29,489.28,1019.7z"/>
		<path class="st15" d="M15.04,485.38c0.25,5.21-1.7,8.87-7.12,10.08C5.1,488.44,9.53,486.53,15.04,485.38z"/>
		<path class="st10" d="M417.72,42.36c-6.26-0.58-9.31-4.08-9.39-10.29C414.83,32.43,418.17,35.66,417.72,42.36z"/>
		<path class="st15" d="M458.79,314.67c10.11-0.26,20.22-0.52,30.33-0.78c24.17,7.4,39.28,27.92,59.53,40.99
			c3.94,2.94,7.75,6.02,10.57,10.12l-0.06-0.06c3.9,2.86,7.3,6.23,10.12,10.16l-0.04-0.02c8.72,6.12,19.53,9.51,25.47,19.25
			c2.44,3.24,4.66,6.69,6.83,10.11c1.19,1.57,2.27,3.27,3.47,4.85c2.62,2.97,5.11,6.07,7.74,9.08c1.44,1.42,2.75,2.93,4.2,4.36
			c3.08,2.84,5.91,5.85,8.78,8.94c1.49,1.61,2.83,3.25,4.31,4.88c2.9,3.53,5.21,7.34,7.19,11.46c1.8,4.47,2.97,9.03,3.75,13.76
			c-0.91,29.24,5.64,62.62-37.75,68.42c-12.7-5.98-16.65-17.34-18.5-30c5.89-28.45-5.29-49.08-29.28-63.77
			c-3.69-1.76-7.26-3.89-10.58-6.27c-3.35-1.12-3.7-3.83-3.36-6.87c-2.85,2.19-2.15,4.18,2.13,6.02c4.7,4.36,8.79,9.11,11.67,14.95
			c1.94,4.31,3.33,8.7,4.36,13.29c1.97,9.91,2.72,19.86,2.95,29.94c-7.62,55.64-22.82,110.41-10.72,167.75
			c3.53,16.73,1.38,37.5-20.87,45.72c-29.91-6.23-28.39-32.99-35.16-54.13c-25.43-79.36-4.53-161.83-15.75-242.36
			c-3.52-25.26-7.84-48.68-21.31-70.18C458.8,327.74,458.8,321.21,458.79,314.67z"/>
		<path class="st24" d="M670.67,334.14c-41.85-14.29-71.69-44.52-101.23-75.41c-10.57-11.06-14.71-21.67-5.04-34.98
			c6.62-9.11,7.77-21.72,18.34-28.33c31.43-19.64,58.31-45.39,90.97-63.88c22.92-12.97,45.08-5.92,67.44-8.8
			c19.42,34.76,19.86,69.89,2.15,105.33c-13.72,16.37-29.89,12.77-45.3,3.82c-27.43-15.93-51.1-11.58-72.2,10.7
			c0.95,14.09,15.83,13.39,22.56,21.22C668,283.4,693.49,301.17,670.67,334.14z"/>
		<path class="st12" d="M731.09,233.54c5.65-11.46,11.93-21.82,10.7-36.32c-2.09-24.67-0.62-49.63-0.64-74.47
			c31.26,13.56,34.88,42.81,40.39,71c7.4,37.87-9.19,73.47-10.93,110.67c-0.95,20.22-21.75,20.76-38.69,20.12
			c-13.83-9.7-18.39-25.52-26.15-39.28c-2.23-6.75-2.37-13.55-0.5-20.4C709.73,251.03,721.69,243.34,731.09,233.54z"/>
		<path class="st12" d="M589.87,404.96c-6.87-9.96-13.75-19.93-20.62-29.89c8.26,0.03,21.2-3.3,24.06,0.64
			c22.51,31.08,61.16,34.97,90.05,55.22c22.68,15.9,49.62,23.73,76.84,4.42c11.97-8.5,26.15-12.91,41.48-10.45
			c-5.67,23-7.55,49.01-40.26,50.48c-13.48,12.1-29.76,13.63-46.77,12.44c-33.07-4.52-63.42-14.43-83.96-43.27l0.11,0.17
			c-3.9-2.91-7.25-6.37-10.36-10.08l0.14,0.14c-3.71-3.08-7.06-6.54-10.34-10.07l0.1,0.1c-3.52-3.24-6.84-6.68-10.3-9.98l0.02,0.02
			C596.66,411.55,593.7,407.81,589.87,404.96z"/>
		<path class="st20" d="M711.31,283.77c21.94,5.99,20.08,23.98,20.6,40.77c-1.19,9.42-0.08,17.82-14.73,20.56
			c-18.32,3.42-29.56-14.42-46.51-10.95c-0.19-21.76,4.99-45.67-26.2-52.88c-6.51-1.51-3.33-11.33-4.23-17.4
			C669.53,250.56,692.64,259.25,711.31,283.77z"/>
		<path class="st12" d="M569.29,375.09c-6.41-0.36-9.78-3.76-10.12-10.16C566.35,364.54,569.74,367.91,569.29,375.09z"/>
		<path class="st12" d="M559.24,365c-6.45-0.32-9.7-3.98-10.57-10.12C555.9,354.38,559.62,357.55,559.24,365z"/>
		<path class="st19" d="M630.68,444.55c28.56,5.77,49.23,32.29,80.63,30.61c3.2,4.19,3.75,8.7,1.68,13.54
			c-5.62,8.72-13.96,13.45-23.68,16.17c-27.05,3.05-47.53,12.48-43.87,45.1c8.67,9.33,19.78,14.63,31.16,19.53
			c18.45,8.19,39.33,11.2,54.67,25.83c6.74,0.65,13.48,1.3,20.22,1.95c3.09,4.72,2.4,8.98-1.54,12.84
			c-21.73,16.11-46.73,24.61-72.08,33.46c-49.3,17.19-96.97,37.79-118.4,91.71c-6.23,15.67-19.04,22.44-35.54,22.92
			c-7.68,0.08-15.02-1.43-21.97-4.68c-4.28-2.62-7.85-6.02-10.66-10.18c-4.61-8.66-7.91-17.55-3.71-27.41
			c11.07-12.49,29.54-8.87,41.78-18.96c7.64-1.24,11.34-5.42,10.33-13.41c-3.23-25.38,3.03-50.67-8.63-76.83
			c-6.41-14.38-5.17-36.64,5.97-56.5c12.22-21.78,16.73-48.54,12.57-74.94c5.81-5.43,12.67-7.51,20.51-6.41
			c10.52,3.1,15.72,10.27,16.13,21.07c-2.58,14.66,3.7,25.94,13.85,35.73c25.88,1.29,26.68-19.63,29.67-36.03
			C632.43,475.06,630.55,459.62,630.68,444.55z"/>
		<path class="st17" d="M680.6,736.94c-6.66,3.14-13.31,6.28-19.97,9.43c-35.78-21.34-34.56-43.43-3.96-69.81
			c27.7-23.88,59.05-57.7,94.6-70.25c2.21,1.08,8.41-1.45,10.62-0.37c3.76,48.71-25.55,94.93-70.23,115.99
			C686.43,724.4,680.75,729.35,680.6,736.94z"/>
		<path class="st4" d="M711.52,485.21c0-3.35-0.07-6.7-0.21-10.05c16.7,0.07,33.41,0.14,50.11,0.22
			c-5.14,19.96,13.72,35.61,9.95,55.26c-0.86,4.49-1.34,10.45-4.32,12.85c-5.86,4.71-11.36,0.83-16.77-3.56
			c-11.99-9.73-18.82-28.11-39.23-24.29C701.99,505.35,703.53,495.23,711.52,485.21z"/>
		<path class="st17" d="M711.52,485.21c-0.16,10.14-0.32,20.28-0.48,30.42c-12.93,1.61-9.47,11.83-10.4,19.75
			c-6.78,16.01-13.87,31.78-30.28,40.63c-15.57,1.6-25.37-5.43-30.07-20.08c7.16-28.22,24.91-47.6,50.51-60.43
			C697.72,492.07,704.62,488.64,711.52,485.21z"/>
		<path class="st20" d="M670.37,576.01c-0.59-21.49,14.86-31.04,30.28-40.63c1.27,10.69,10.03,16.32,17.16,21.76
			c13.44,10.25,14.19,23.66,13.47,38.2C708.03,598.17,687.98,590.94,670.37,576.01z"/>
		<path class="st17" d="M751.28,606.31c0.07-3.01,0.14-6.01,0.23-9.02c13.8,7.01,13.91,10.67,0.62,19.83l-0.82-0.75
			c-3.49-2.23-4.65-4.46-3.5-6.7C748.95,607.43,750.1,606.31,751.28,606.31z"/>
		<path class="st19" d="M125.78,625.67c-0.28-6.26-3.79-9.14-9.82-9.38c-0.01-10.06-0.01-20.11-0.02-30.17
			c5.86-5.87,13.13-7.47,21.09-7.04c54.65,11.27,96.39-8.63,135.04-47.62c27.68-27.93,55.85-65.55,106.15-46.12
			c0.01,30.28,0.01,60.55,0.02,90.83c-25.82,48.23-68.64,73.6-119.19,88.63c-27.09-8.98-54.06-22.2-82.18-2.72
			c-14.96,3.22-26.12-2.26-34.11-14.84c-4.27-4.67,0.22-14.63-9.71-16.03C129.23,631.11,126.84,629.24,125.78,625.67z"/>
		<path class="st25" d="M529.38,696.98c0.22,11.56,0.02,22.37-16.83,20.29c-7.71-0.95-15.63-0.16-23.46-0.15
			c-1.56,1.42-3.13,2.85-4.69,4.29c-2.12-0.05-4.24-0.12-6.38-0.13c-6.25-1.56-11.99-4.28-17.45-7.68
			c-3.55-2.39-6.63-5.31-9.42-8.54c-6.46-8.6-14.12-15.95-23.17-21.92c-13.64-9.75-24.5-21.74-30.72-37.54
			c-5.1-16.41-13.29-32.9,0.49-49.1c9.96-0.09,19.93-0.08,29.89-0.28c38.3-0.75,54.29-17.19,39.74-52.37
			c-9.68-23.39-7.14-44.75-8.07-67.02c-0.66-15.71,0.37-30.93,6.48-47.51c7.27-19.73,9.79-45.15-3.39-66.32
			c-5.9-9.48-2.29-19.19-3.61-28.71c21.49,5.25,27.71,26.76,29.01,41.09c4.55,50.38,17.69,100.32,11.36,151.51
			c-6.56,53.04,7.94,120.4,25.49,168.92C524.97,696.65,527.75,696.6,529.38,696.98z"/>
		<path class="st25" d="M136.08,586.16c-6.72-0.01-13.43-0.02-20.15-0.03c-2.62-10.8-9.37-17.5-20.15-20.16
			c-8-9.07-8.8-18.96-3.44-29.56c6.65-8.67,16.6-12.88,26.36-11.96c69.68,6.61,115.26-33.93,158.58-79.35
			c9.56-0.49,22.23,1.76,19.83-13.82c-2.64-17.16,4.82-29.08,17.33-38.09c19.26-13.86,24.84-37.9,42.34-53.29
			c20.6-18.11,19.72-19.1,41.46,4.44c22.99,36.18,15.98,69.39-9.97,100.74l-0.09,0.01c-69.25,27.41-119.29,83.25-180.76,122.22
			C185.2,581.41,162.01,587.98,136.08,586.16z"/>
		<path class="st15" d="M136.08,586.16c1.37-2.78,2.62-7.92,4.12-7.99c54.06-2.6,88.24-41.99,128.45-69.7
			c13.45-9.26,24.42-22.5,35.32-34.97c11.6-13.25,24.64-22.34,42.7-18.11c16.06,3.76,25.82-14.63,41.52-10.3
			c1.57,14.63-1.13,28.2-9.98,40.25c-45.47,3.36-81.31,27.6-105.61,62.27c-25.37,36.18-60.64,43.27-97.96,47.52
			C163.2,596.43,144.07,608.32,136.08,586.16z"/>
		<path class="st16" d="M277.29,445.1c3.64,20.93-15.37,27.75-25.28,40.16c-3.08,3.86-7.11,9.12-11.23,9.64
			c-28.14,3.56-32.48,43.02-64.55,41.18c-26.75-1.53-53.65-0.31-80.48-0.31c-3.36,3.56-6.72,3.56-10.07-0.02
			c4.12-12.57-8.08-19.69-10.1-30.22c-8.19-10.07-8.16-20.15,0-30.22c11.02-1.94,19.14,2.36,26.11,10.84
			c24.48,29.8,55.52,23.28,85.69,13.17c23.2-7.77,44.52-19.91,60.41-39.72C255.19,450.36,263.61,442.12,277.29,445.1z"/>
		<path class="st21" d="M397.76,596.49c-4.47,18.41,12.44,32.32,10.57,50.18c-4.61,5.55-10.71,7.9-17.7,8.35
			c-4.4,0.02-8.76-0.56-13.03-1.52c-14.67-5.08-28.96-4.44-42.77,3.22c-28.04,8.4-50.63,36.9-84.69,22.97
			c-8.25-10.95-2.66-17.59,7.14-22.91c37.12-11.27,64.75-37.59,94.97-59.79c8.95-6.57,13.34-18.82,25.97-20.8
			C381,586.53,387.4,593.4,397.76,596.49z"/>
		<path class="st3" d="M388.28,445.09c8.38-33.08,12.41-66.59,9.97-100.74c28.93,1.98,30.46,3.97,39.46,35.44
			c5.49,19.19-3.84,34.72-10.85,50.51C419.5,446.88,403.34,445.76,388.28,445.09z"/>
		<path class="st25" d="M75.57,475.32c0,10.07,0,20.15,0,30.22c-3.36,0-6.73,0-10.09,0.01c-14.03-10.81-14.03-19.44,0.01-30.24
			C68.86,475.31,72.21,475.32,75.57,475.32z"/>
		<path class="st25" d="M439.05,303.02c6.45,0.77,9.61,4.67,10.38,10.86C441.97,314.07,438.56,310.4,439.05,303.02z"/>
		<path class="st25" d="M226.86,314.15c-7.72-11.74-12.29-24.3-10.09-38.63c3.2-1.29,6.5-1.62,9.89-0.98
			c5.65,14.52,28.94,10.43,30.72,29.05C252.79,323.21,237.05,310.69,226.86,314.15z"/>
		<path class="st14" d="M751.28,606.31c0.03,3.35,0.04,6.71,0.02,10.06c-44.7,16.27-66.53,61.66-106.85,84.13
			c-8.28,4.61-10.55,21.71,6.17,26.3c11.92,3.27,9.01,11.91,10.01,19.57c-17.24-0.03-30.68,15.78-48.89,11.73
			c-23.34,12.17-26.81,42.65-50.44,54.62c-17.05,0.67-27.55-9.47-36.66-22c-6.55-13.79-12.86-27.66-5.58-43.25
			c16.22,0.03,32.74,4.56,31.55-23.5c-0.86-20.3,39.35-56.36,64.51-67.48c28.76-12.7,54.91-29.53,88.67-31.84
			C718.14,623.68,729.98,600.11,751.28,606.31z"/>
		<path class="st17" d="M559.49,807.82c5.26-0.46,9.78-3.08,10.48-8.14c1.3-9.4-4.94-22.86,2.95-27.59
			c11.41-6.85,22.78-18.39,38.83-14c-3.91,39.29,2.43,79.67-12.64,117.77c-30.88-5.19-48.17,17.76-69.04,33.28l-1.49-1.42
			C512.48,866.27,549.05,841.08,559.49,807.82z"/>
		<path class="st11" d="M610.45,918.84c-0.09-13.5-0.18-26.99-0.28-40.49c6.76,3.02,13.51,6.04,20.27,9.05
			C628.55,900.91,638.41,921.88,610.45,918.84z"/>
		<path class="st0" d="M681.58,928.67c-1.13-2.91-1.6-5.91-1.42-9.02c26.34-28.65,65.09-28.13,98.18-40.58
			c12.93-4.86,27.82-1.23,42.15-9.62c8.75-5.12,25.62-4.66,38.37,1.35c11.62,5.47,16.43,19.23,8.04,27.54
			c-12.6,12.49-23.42,26.3-41.59,33.52c-28.04,11.15-55.86,24.31-80.96,40.87c-17.48,11.53-26.62,2.76-31.33-8.68
			C706.31,947.76,695.92,937.04,681.58,928.67z"/>
		<path class="st26" d="M135.95,898.58c-0.11-3.23-0.19-6.46-0.24-9.69c-5.56-13.29-17.1-23.69-18.78-38.86
			c0.92-41.14-7.54-82.8,6.93-123.17c2.05-13.83,1.57-28.43,12.14-39.66c10.03-7.68,18.08-4.66,24.98,4.59
			c2.97,6.6,3.43,13.4,1.41,20.29c-7.26,6.21-17.84,11.17-9.56,23.77c0.32,4.12,0.04,8.2-0.73,12.25
			c-2.43,9.75-4.81,19.52-4.42,29.66c0.7,7.62,1.35,15.22,8.21,20.27c16.1,2.6,20.98-12.62,31.07-19.31
			c3.59-3.32,8.74-5.98,10.35-10.21c13.7-35.85,31.51-48.7,61.37-13.64c8.35,9.8,23.25,11.69,32.33,21.56
			c5.67,8.58,13.02,7.43,11.36,17.34c-3.37,16.55,17.26,0.16,6.8,10.55c-7.47,7.42,6.46,2.99,11.8,13.5l6.86,4.18
			c32.21-4.23,14.85,2.18,43.96,14.61c15.03-9.04,29.12-19.38,42.19-31.17c4.04-2.16,8.34-3.33,12.93-3.47
			c2.2,0.55,4.39,1.13,6.59,1.7c1.65,1.55,3.29,3.11,4.94,4.68c0.74,5.41,3.81,9.15,9.12,9.79c11.34,1.39,14.53,8.29,8.39,16.35
			c-6.84,8.98-15.5,17.5-25.15,23.21c-22.84,13.5-40.05,30.92-53.53,54.19c-8.86,15.29-22.98,28.93-37.65,39.16
			c-21.51,15.01-47.43,10.92-70.07,3.19c-11.51-3.93-21.83-4.7-33.05-4.93c-10.08,10.13-22.27,10.56-35.19,7.78
			c-9.38-2.76-16.84-9.07-25.16-13.77C160.47,930.49,150.82,912.2,135.95,898.58z"/>
		<path class="st22" d="M388.31,646.89c6.67-0.07,13.35-0.15,20.02-0.22c6.45,13.58,16.5,23.62,29.93,30.32
			c8.14,9.11,10.24,22.38,20.64,29.93l-0.03,0.05c5.19,6.26,14.68,4.29,19.94,10.41l-0.07-0.04c5.91,7.65,11.81,15.3,20.27,20.41
			c-0.01,3.19,0.02,6.39,0.11,9.58c18.81,15.37,22.16,36.03,20.17,58.52c-0.61,4.56-1.72,9.05-3.05,13.45
			c-3.52,10.52-5.45,21.42-6.65,32.47c-5.38,28.08-15.2,54.15-34.77,75.69c-5.17,5.47-11.04,10.32-15.92,16.09
			c-2.01,2.8-4.27,5.47-6.52,8.09c-2.13,2.61-4.49,5.07-6.9,7.45c-1.18,1.17-2.46,2.29-3.66,3.46c-2.5,2.25-5.29,4.1-8.28,5.66
			c-1.64,0.32-3.3,0.59-4.96,0.87c-15.92-2.56-22.37,4.45-20.31,20.06c-4.9,0.21-12.21-1.6-14.34,0.93
			c-25.35,30.19-66.88,38.65-92.24,68.83c-2.11,2.51-9.46,0.62-14.37,0.78c0.93-29.34,25.24-43.81,44.12-56.42
			c30.94-20.67,55.78-45,73.91-76.62c13.3-23.2,30.2-43.56,50.72-59.87c26.43-21.01,26.67-47.07,20.15-75.65
			c-0.44-1.92-5.45-2.79-8.34-4.16c-15.73-8.17-27.78-19.83-34.76-36.32c-2.11-3.55-4.02-7.23-5.98-10.84
			c-4.98-9.74-15-13.75-23.11-19.96c-12.67-12.49-32.44-16.44-40.9-34C357.88,664.04,372.37,654.99,388.31,646.89z"/>
		<path class="st18" d="M196.73,948.81c13.25,0.18,26.5,0.35,39.75,0.53c3.53,6.55,7.05,13.11,10.58,19.66
			c-11.29,8.48-25.22,8.9-38.14,12.45c-4.58,1.56-8.69,0.84-12.27-2.48c-1.1-13.83-19.26-16.22-20.24-30.13
			c1.38-1.38,2.75-2.76,4.13-4.15C186.48,943.91,192.16,944.19,196.73,948.81z"/>
		<path class="st21" d="M184.21,996.96c1.3-7.01,17.08,1.74,24.77,2c12.65,0.43,25.32,0.31,37.98,0.42
			C226.84,1024.39,206.49,1013.55,184.21,996.96z"/>
		<path class="st27" d="M438.69,746.49c9.73,13.49,19.45,26.98,29.18,40.47c-9.27,0.47-18.97-0.42-19.69,13.54
			c-0.14,2.78-6.36,5.26-9.77,7.88l-0.28-0.31c-11.77-14.31-13.64-30.48-9.05-47.89C430.95,754.68,434.17,750.13,438.69,746.49z"/>
		<path class="st21" d="M206.8,978.64c9.39-20,27.1-5.36,40.26-9.64c0.25,3.34,0.23,6.68-0.06,10.01c-3.48,0.17-6.97,0.33-10.45,0.5
			C226.45,985.51,216.5,986.35,206.8,978.64z"/>
		<path class="st0" d="M580.51,949.51c-8.78-1.44-13.56-8.08-18.24-14.53c-3.09-4.25-2.62-9.49,1.24-12.69
			c8.3-6.88,18.64-4.54,27.68-2.87c10.64,1.97,7.34,12.28,8.26,19.72C597.73,950.97,587.69,947.63,580.51,949.51z"/>
		<path class="st28" d="M388.09,102.33c3.41,0.07,6.82,0.15,10.23,0.22c15.82,28.79,32.45,57.5,10.04,90.52
			c-12.66,7.41-23,14.64-37.66-0.86c-26.47-27.99-31.09-46.06-12.99-80.04C371.22,119.29,380.22,112.56,388.09,102.33z"/>
		<path class="st1" d="M388.09,102.33c0.1,3.24,0.26,6.49,0.28,9.73c0.05,9.51,2.12,19.68-12.58,21.09
			c-16.81,1.62-18.49-8.47-18.07-20.98c1.84-13.2,13.28-8.75,20.89-11.33C381.68,101.91,384.84,102.41,388.09,102.33z"/>
		<path class="st5" d="M37.43,857.05c-0.48-34.93,2-37.4,36.93-36.83C73.32,853.47,70.83,855.96,37.43,857.05z"/>
		<path class="st23" d="M113.14,878.19c-15.09-25.72-3.56-53.75-6.99-80.48c6.09-3.4,10.7-2,13.84,4.23
			c-0.96,25.5,5.97,51.39-3.67,76.48L113.14,878.19z"/>
		<path class="st22" d="M114.86,797.94c-2.9-0.19-5.8-0.27-8.7-0.23c-0.66-2.79-0.99-5.62-1-8.48c0.45-14.12,0.91-28.24,1.36-42.36
			C131.87,760.21,120.95,779.47,114.86,797.94z"/>
		<path class="st19" d="M85.68,535.76c3.36,0.02,6.72,0.02,10.07,0.02c0.01,10.06,0.02,20.13,0.04,30.19
			c-6.73,0.02-13.46,0.04-20.19,0.06C79.11,555.98,66.39,540.55,85.68,535.76z"/>
		<path class="st16" d="M458.95,928.7c22.65-22.21,35.46-49.32,40.2-80.46c9.52-8.09,1.21-22.06,10.05-30.37l0.02-0.03
			c12.99-5.95-6.09-32.92,19.92-30.33c14.12,0.79,16.35,19.33,30.34,20.32c0.87,25.7,3.5,51.73-22.85,68.69
			c-11.61,7.47-6.05,20.6-8.07,31.21c-6.04,1.5-14.13-1.41-17.66,5.64c-16.35,32.66-44.49,53.98-71.99,75.99
			c-10.31,3.43-13.7-0.1-10.41-10.34c0.17-3.32,0.19-6.63,0.07-9.95l0.04-0.05c3.64-3.04,6.67-6.67,9.89-10.12l0.1-0.1
			c3.47-3.15,6.73-6.5,9.79-10.05l0.2-0.21C455.05,943.48,453.08,934.05,458.95,928.7z"/>
		<path class="st15" d="M428.51,979.02c0.15,6.78,3.83,10.02,10.41,10.34c-0.19,3.24-0.34,6.49-0.44,9.74
			c-7.14-0.88-16.52,3.18-19.48-7.45C416.91,984.14,421.32,980.21,428.51,979.02z"/>
		<path class="st17" d="M439.07,1029.56c0.52-7.99-4.58-18.76,9.83-19.91C448.15,1017.53,452.06,1027.71,439.07,1029.56z"/>
		<path class="st17" d="M428.83,1039.66c-0.01-6.62,3.15-10.04,9.93-9.79C438.42,1036.14,434.99,1039.28,428.83,1039.66z"/>
		<path class="st7" d="M135.95,898.58c26.72,5.1,34.92,13.23,40.49,40.12c3.54,2.27,4.71,4.52,3.52,6.78
			c-1.18,2.25-2.36,3.37-3.55,3.37c0,0,0,0,0,0c-7.09,3.24-14.18,6.49-21.28,9.73c-1.09-13.1-11.63-8.04-18.67-9.7
			C136.29,932.11,136.12,915.35,135.95,898.58z"/>
		<path class="st12" d="M206.8,978.64c9.92,0.29,19.83,0.58,29.75,0.87c-13.47,13.35-27.03,13.17-39.9-0.53
			C200.03,978.86,203.42,978.75,206.8,978.64z"/>
		<path class="st22" d="M156.31,696.99c-1.87-13.41-12.01-9.71-20.32-9.79l-1.24-0.38c-4.56-9.69-4.55-20.7-8.8-30.48
			c-0.06-10.22-0.12-20.44-0.18-30.66c3.48,0.14,6.96,0.28,10.44,0.42c5.78,0.98,6.1,7.34,10.02,10.15
			c4.54,14.73,14.54,21.62,29.91,20.82c15.3,3.13,22.9,12.86,24.15,28.07c-3.72,13.07-11.92,23.13-21.78,32.07
			c-3.81,2.18-7.9,2.81-12.21,1.94C159.31,713.42,163.57,702.61,156.31,696.99z"/>
		<path class="st3" d="M114.86,797.94c0.4-12.54,0.5-25.1,1.32-37.61c0.49-7.56-2.88-11.52-9.66-13.45
			c0.29-3.32,0.58-6.65,0.87-9.97c5.49-3.35,10.98-6.69,16.48-10.04c0.79,43.78,1.58,87.56,2.38,131.35
			c5.54,6.92,5.59,13.65-0.69,20.16l-4.61-0.01c0,0-4.61,0.06-4.61,0.06C115.84,851.59,115.35,824.76,114.86,797.94z"/>
		<path class="st27" d="M125.96,656.34c18.74,5.61,8.05,19.69,8.8,30.48c-12.52-4.19-9.6-18.38-16.87-25.97
			C120.58,659.35,123.27,657.84,125.96,656.34z"/>
		<path class="st7" d="M125.54,878.36c0.23-6.72,0.46-13.44,0.69-20.16c19.19,5.29,6.4,20.43,9.47,30.69l-4.47-0.21l-4.47,0.15
			C126.35,885.34,125.95,881.85,125.54,878.36z"/>
		<path class="st25" d="M579.88,495.29c-0.79-7.94,3.65-18.51-10.04-19.98c-10.04-7.9-12.1-21.12-20.25-30.28l0.07,0.07
			c-5.5-6.63-6.3-13.32-0.26-20.1c36.85,11.47,53.89,32.03,50.6,62.43c-0.33,3.02-6.61,5.41-10.12,8.09
			C586.43,500.3,583.1,500.22,579.88,495.29z"/>
		<path class="st14" d="M579.88,495.29c3.33,0.13,6.66,0.2,9.99,0.23c2.11,10.5,14.18,17.63,10.23,30.18
			C572.78,529.21,581.06,509.11,579.88,495.29z"/>
		<path class="st14" d="M549.59,445.03c14.98,4.6,21.54,14.82,20.25,30.28c-6.74,0-13.48-0.01-20.23-0.01
			C549.6,465.21,549.6,455.12,549.59,445.03z"/>
		<path class="st14" d="M549.4,425c0.09,6.7,0.17,13.4,0.26,20.1c-14-1.41-9.34-12.16-10.13-20.18l-0.04,0.04
			C542.79,424.98,546.09,425,549.4,425z"/>
		<path class="st19" d="M600.03,414.84c6.38,0.29,9.87,3.56,10.3,9.98C603.62,424.87,600.19,421.54,600.03,414.84z"/>
		<path class="st14" d="M539.53,424.92c-2.68-1.25-6.44-1.82-7.78-3.93c-1.69-2.65,1.11-5.47,3.76-3.8
			c2.12,1.33,2.71,5.09,3.98,7.77C539.49,424.97,539.53,424.92,539.53,424.92z"/>
		<path class="st19" d="M610.23,424.72c6.41,0.31,9.92,3.6,10.34,10.07C613.66,434.97,610.23,431.6,610.23,424.72z"/>
		<path class="st19" d="M589.87,404.96c6.49,0.12,9.83,3.47,10.17,9.9C593.55,414.75,590.14,411.46,589.87,404.96z"/>
		<path class="st19" d="M620.42,434.64c6.33,0.41,9.97,3.57,10.36,10.08C623.71,445.08,620.29,441.68,620.42,434.64z"/>
		<path class="st20" d="M731.09,233.54c1.51,15.43-4.95,25.62-19.88,30.28c-36.99,9.57-68.34-8.98-101.15-20.26
			c1.04-6.24-2.59-14.63,4.82-17.98c5.61-2.53,15.53,0.64,18.67-2.96c27.04-30.98,51.45-19.64,74.93,3.7
			C715.34,233.15,722.71,233.83,731.09,233.54z"/>
		<path class="st22" d="M610.06,243.56c24.79-4.36,47.01,6.38,68.55,14.88c11.37,4.48,21.7,4.11,32.6,5.38
			c0.03,6.65,0.07,13.3,0.1,19.95c-23.69-6.64-47.38-13.27-71.07-19.91c-9.64-0.07-19.3-0.46-28.93-0.09
			c-5.8,0.23-9.08-2.6-10.51-7.36C598.45,248.59,602.68,244.77,610.06,243.56z"/>
		<path class="st14" d="M690.82,495.49c-17.7,19.42-27.08,45.79-50.51,60.43c-6.66-0.06-13.33-0.12-19.99-0.19
			c-5.79-0.06-8.59-3.29-9.55-8.74c-1.07-6.07,2.62-9.8,7.34-10.77c7.69-1.58,22.06,1.27,21.18-7.04
			C634.29,482.16,668.24,498.13,690.82,495.49z"/>
		<path class="st21" d="M529.15,787.51c-10.82,1.75-10.58,9.63-9.75,17.72c0.78,7.64-2.88,11.55-10.17,12.6
			c2.55-24.35-1.8-47.71-10.11-70.51c6.65,0.05,13.3,0.1,19.95,0.14C528.11,759.39,530.96,772.86,529.15,787.51z"/>
		<path class="st14" d="M499.01,737.75c-15.12,1.49-22.4-4.8-20.27-20.41c3.45-0.08,6.9-0.15,10.35-0.23
			C492.4,723.99,495.7,730.87,499.01,737.75z"/>
		<path class="st14" d="M196.87,686.71c-6.91-9.88-13.81-19.76-20.72-29.64c3.53-12.11,10.88-21.03,24.06-20.28
			c12.61,0.72,26.37-5.22,37.8,5.74c5.72,5.49,9.75,13.72,19.27,14.24c-3.46,6.65-6.93,13.3-10.39,19.95
			c-1.32,1.6-2.64,3.21-3.94,4.84c-10.92,6.5-22.59,10.61-35.41,11.06C203.31,691.87,199.72,689.94,196.87,686.71z"/>
		<path class="st14" d="M146.24,636.24c-6.76-0.01-9.8-3.7-10.02-10.15c0.14-4.82,2.43-8.18,7.35-6.8c1.47,0.41,2.02,5.14,2.44,7.97
			C146.43,630.21,146.19,633.25,146.24,636.24z"/>
		<path class="st19" d="M458.9,706.92c-26.83,3.75-18.79-16.49-20.64-29.93C453.24,681.39,460.47,691.13,458.9,706.92z"/>
		<path class="st14" d="M478.81,717.38c-8.05-0.79-18.58,3.18-19.94-10.41C466.83,707.93,477.8,703.14,478.81,717.38z"/>
		<path class="st18" d="M388.31,646.89c-3.05,15.2-26.44,20.12-20.23,39.99c-5.82,18.24-26.61,22.22-35.63,37.48
			c-5.72,5.05-12.14,6.99-19.6,4.55c-22.06-14.77-56.86,0.09-71.99-30.84c-1.39-8.09,0.64-15.21,6.05-21.37l-0.01,0.02
			c18.65,4.39,32.83-7.47,48.56-13.49c14.28-5.47,25.47-18.72,42.68-16.82c13.45-6.81,26.87-7.31,40.23,0.25
			C381.69,646.63,385,646.71,388.31,646.89z"/>
		<path class="st17" d="M378.37,646.64c-13.41-0.08-26.82-0.16-40.23-0.25C351.5,633.01,365.08,633.09,378.37,646.64z"/>
		<path class="st0" d="M317.62,727.38c5.99-0.14,9.45-3.19,10.44-9.07c15.65-14.56,33.83-14.09,52.8-8.9
			c7.54,4.16,11.32,9.98,8.09,18.78c-4.21,8.69-10.15,16.36-15.32,24.47c-22.12,29.88-13.77,58.2,4.41,86.03
			c-10.17-1.3-18.84-1.27-21.33-2.15c-18.26-6.44-24.47-9.18-32.19-12.88c-12.16-5.82-17.52-10.91-17.52-10.91
			c-15.2-18.95-5.57-7.84-11.17-25.08c-3.79-11.19-4.29-0.67-3.79-11.19c-0.58-4.34-0.13-8.59,1.26-12.74
			c4.14-9.8,9.02-19.24,14.72-28.26C310.55,731.98,313.8,729.34,317.62,727.38z"/>
		<path class="st7" d="M317.62,727.38c-0.22,3.5-0.43,6.99-0.65,10.49c-14.35,4.9-13.09,19.93-19.5,29.98l0.17-0.12
			c-3.75,2.98-4.3,9.32-10.36,9.88c-24.79-0.09-49.93,0.49-51.45-34.56c-0.08-1.79-4.62-4.11-7.45-4.89
			c-5.55-1.54-10.13,1.87-11.12,6.56c-1.33,6.34,0.26,13.25-0.63,19.74c-2.46,17.83-14.34,24.12-31.02,23.85
			c-1.56-1.65-3.11-3.3-4.7-4.93c-7.57-14.7-5.39-30.72-6.38-46.32c-0.27-4.41,0.05-8.81,0.77-13.17c0.29-2.17,0.62-4.35,0.94-6.53
			c-0.71-15.31,4.57-26.6,20.62-30.66c3.18,0.18,6.36,0.32,9.54,0.41c12.8,6.3,29.85-4.69,40.6,9.96
			c14.2,20.6,35.13,8.02,52.55,9.12C316.32,707.26,318.06,714.84,317.62,727.38z"/>
		<path class="st11" d="M378.05,838.68c-7.94-1.29-15.99-0.32-22.4-8.06c-13.62-16.43-5.29-35.12-7.07-52.7
			c-1.5-14.78,4.18-25.59,19.27-30.07c5.85,4.16,8.64,10.18,10.33,16.84c2.81,6.63,0.77,19.38,10.51,17.81
			c9.56-1.54,9.08-15.75,15.09-23.23c3.5-3.59,7.7-5.13,12.7-4.69c4.38,2.61,7.62,6.15,9.67,10.81c2.97,15.34,4.05,30.33-7.44,43.15
			C410.48,825.75,403.29,844.36,378.05,838.68z"/>
		<path class="st11" d="M165.85,715.96c3.47,0.47,6.93,0.94,10.4,1.41l-0.07-0.08c3.36,3.78,5.03,8.2,5.03,13.25
			c2,19.17-3.96,38.88,3.91,57.66l0.49,0.12c-3.19,5.52-6.36,11.05-9.59,16.55c-10.09,17.2-11.64,17.34-30.5,2.95
			c-2.15-2.4-3.1-4.95-2.84-7.66c0.27-2.79,0.7-4.18,1.26-4.18c5.82-8.95,10.05-18.48,10.11-29.42
			c-0.23-10.02,2.51-20.68-6.75-28.57c-10.71-18.77-10.71-18.77,8.81-22.99C159.74,711.64,162.96,712.15,165.85,715.96z"/>
		<path class="st8" d="M166.59,768.13c-1.08,13.73,6.01,33.04-20.24,29.58c-7.3-4.78-3.43-15.18-10.19-20.23
			c4.24-9.58-9.1-25.11,10.05-29.64C156.24,751.36,159.08,762.09,166.59,768.13z"/>
		<path class="st27" d="M166.59,768.13c-15.61,2.07-22.98-4.1-20.38-20.28c0.06-3.32,0.44-6.61,1.11-9.86
			C175.17,734.36,164.25,755.47,166.59,768.13z"/>
		<path class="st8" d="M418.7,808.53c0.02-17.08,0.03-34.16,0.05-51.24c5.55-2.96,10.12-1.86,13.69,3.32
			c0.1,15.89,4.89,32.12-3.47,47.39C425.55,808.18,422.12,808.36,418.7,808.53z"/>
		<path class="st7" d="M428.97,808c-0.07-16.86-0.15-33.71-0.22-50.57c3.31-3.42,6.19-2.92,8.7,0.96
			c0.23,16.56,0.45,33.11,0.68,49.67l-4.58-0.13C433.55,807.93,428.97,808,428.97,808z"/>
		<path class="st21" d="M216.51,907.92c-15.87,2.53-25.26-5.08-30.37-19.38l0.5-0.51c10.04,0.13,20.08,0.26,30.13,0.39
			C222.27,894.99,222.74,901.5,216.51,907.92z"/>
		<path class="st22" d="M287.29,777.61c0.36-6.53,3.52-10.13,10.36-9.88c-0.02,9.26-0.31,18.54,0.03,27.79
			c0.27,7.49-3.18,11.18-10.28,12.08C287.36,797.6,287.33,787.61,287.29,777.61z"/>
		<path class="st5" d="M136.16,777.48c12.31,2.26,8.03,12.86,10.19,20.23c-0.27,3.37-0.54,6.73-0.82,10.1
			C127.05,802.44,139.54,787.51,136.16,777.48z"/>
		<path class="st5" d="M165.85,715.96l-4.97,0.66l-4.75-1.63c0.06-6,0.12-12,0.18-18C168.47,698.81,165.83,708.05,165.85,715.96z"/>
		<path class="st22" d="M216.51,907.92c0.09-6.5,0.17-13,0.26-19.5c7.56,0.72,11.37,4.93,9.99,12.37
			C225.82,905.86,221.71,908.09,216.51,907.92z"/>
		<path class="st20" d="M176.41,948.85c0.01-3.38,0.02-6.77,0.03-10.15c8.02,0.86,18.67-3.55,20.29,10.12
			C189.96,948.82,183.19,948.83,176.41,948.85z"/>
		<path class="st22" d="M186.14,888.54c-2.59-1.32-5.18-2.65-7.77-3.97c1.46-1.43,2.91-2.87,4.37-4.3c1.3,2.58,2.6,5.17,3.9,7.75
			L186.14,888.54z"/>
		<path class="st23" d="M387.69,717.58c-19.88,0.24-39.75,0.48-59.63,0.73c-0.32-10.97-2.5-24.12,15.2-21.1
			c11.26,1.93,15.15-10.45,24.82-10.34c10.64,2.22,17.77,12.19,30.87,10.74c11.58-1.29,8.75,10.69,9.51,18.22
			c2.69,2.32,3.83,4.85,3.42,7.6c-0.42,2.85-1.02,4.28-1.78,4.29C398.92,732.51,392.71,726.36,387.69,717.58z"/>
		<path class="st27" d="M408.04,727.57c0.14-3.91,0.28-7.82,0.43-11.74c13.09,2.87,33.81-4.99,30.15,21.41
			c-5.59,5.53-12.27,7.65-20.04,6.43C411.13,740.87,405.86,736.65,408.04,727.57z"/>
		<path class="st23" d="M418.2,737.45c6.8-0.07,13.6-0.14,20.41-0.21c0.24,3.08,0.27,6.17,0.09,9.25c-0.42,3.97-0.83,7.94-1.25,11.9
			c-2.87-0.6-5.77-0.93-8.7-0.96l-5,0.01l-5-0.15l-0.12-0.13C412.65,750.72,412.3,744.15,418.2,737.45z"/>
		<path class="st21" d="M509.2,817.86c-3.16,10.19,8.66,25.32-10.05,30.37C502.71,838.18,489.91,822.72,509.2,817.86z"/>
		<path class="st21" d="M458.95,928.7c-1,7.89,3.32,18.55-10.35,19.84C449.45,940.57,445.08,929.88,458.95,928.7z"/>
		<path class="st21" d="M448.4,948.75c0.08,6.6-3.2,9.94-9.79,10.05C438.73,952.39,441.98,949.03,448.4,948.75z"/>
		<path class="st21" d="M438.51,958.9c-0.02,6.57-3.29,9.97-9.89,10.12C428.61,962.42,431.92,959.06,438.51,958.9z"/>
		<path class="st21" d="M247.01,697.08c-13.33-4.16-31.21,10.22-40.6-9.96c12.17-8.62,25.67-12.09,40.5-10.43
			C246.94,683.49,246.97,690.28,247.01,697.08z"/>
		<path class="st8" d="M418.2,737.45c0.14,6.57,0.28,13.14,0.42,19.71c-3.75,0.2-7.51,0.4-11.26,0.6
			c-3.79,2.91-7.92,3.65-12.44,1.94c-11.14-7.77-22.54-15.44-15.63-32.02c5.99-0.72,9.17-3.77,8.39-10.1
			c6.78,3.33,13.57,6.66,20.35,9.99C408.58,733.79,411.9,737.14,418.2,737.45z"/>
		<path class="st5" d="M379.29,727.68c-0.38,13.94,18.99,15.49,18.53,29.48c-6.38,13.41-14.59,21.16-29.09,9.35
			c-0.3-6.22-0.59-12.44-0.89-18.66C369.07,739.66,363.73,727.75,379.29,727.68z"/>
		<path class="st23" d="M297.48,767.85c1.77-13.06-8.45-33.91,19.5-29.98C309.56,747.27,311.57,762.78,297.48,767.85z"/>
		<path class="st23" d="M185.13,788.19c-7.1-2-9.19-6.75-8.98-13.92c0.45-15.69,0.15-31.4,0.15-47.11
			c3.43-3.04,6.79-3.12,10.07,0.23C185.96,747.66,185.54,767.92,185.13,788.19z"/>
		<path class="st22" d="M186.37,727.39c-3.35-0.18-6.71-0.26-10.07-0.23c-0.46-3.29-0.5-6.58-0.11-9.88
			C183.1,717.11,186.39,720.59,186.37,727.39z"/>
		<path class="st27" d="M368.74,766.51c11.88,3.66,19.29-6.55,29.09-9.35c3.16,0.47,6.34,0.67,9.54,0.59
			c-0.05,11.35,2.54,23.57-0.87,33.8c-3.45,10.36-12.24,18.88-26.53,16.68c-14.65-2.25-11.73-12.96-12.04-22.14
			C367.7,779.59,368.43,773.04,368.74,766.51z"/>
	</g>
</g>
</svg>
