<?xml version="1.0" encoding="utf-8"?>
<!-- Generator: Adobe Illustrator 23.1.0, SVG Export Plug-In . SVG Version: 6.00 Build 0)  -->
<svg version="1.1" id="Calque_1" xmlns="http://www.w3.org/2000/svg" xmlns:xlink="http://www.w3.org/1999/xlink" x="0px" y="0px"
	 viewBox="0 0 1125 1189.68" style="enable-background:new 0 0 1125 1189.68;" xml:space="preserve">
<style type="text/css">
	.st0{fill:#DFB96E;}
	.st1{fill:#B37E45;}
	.st2{fill:#7EDB01;}
	.st3{fill:#A47141;}
	.st4{fill:#F7EFAF;}
	.st5{fill:#F3DB89;}
	.st6{fill:#C39B5D;}
	.st7{fill:#74D100;}
	.st8{fill:#F7EBA0;}
	.st9{fill:#A97945;}
	.st10{fill:#3B6309;}
	.st11{fill:#DB3600;}
	.st12{fill:#FAF6C1;}
	.st13{fill:#FA2300;}
	.st14{fill:#FB0600;}
	.st15{fill:#6CC200;}
	.st16{fill:#F41D00;}
	.st17{fill:#A61B01;}
	.st18{fill:#31520A;}
	.st19{fill:#C1914E;}
	.st20{fill:#589C03;}
	.st21{fill:#101107;}
	.st22{fill:#D32A00;}
	.st23{fill:#797979;}
	.st24{fill:#F5E193;}
	.st25{fill:#403E3C;}
	.st26{fill:#B18751;}
	.st27{fill:#60AD02;}
	.st28{fill:#939393;}
</style>
<g>
	<g>
		<path class="st0" d="M44.47,928.66c-18.89-23.37-33.61-48.59-35.27-79.6c17.39-12.75,33-2.71,47.17,5.53
			c109.21,63.49,203.66,22.89,292.78-43.1c38.35-28.4,61.84-70.82,85.37-111.93c21.52-37.59,8.77-72.89-7.6-107.91
			c-1-5.79,0.18-11.12,3.17-16.12c29.48-15.08,40.76,8.73,55.3,25.73c3.15,4.74,5.79,9.79,8.14,14.93
			c2.25,5.02,3.88,10.31,5.15,15.66c3.55,18.56,5.95,38.06,1.83,56.05c-8.08,35.32,5.83,56.9,36.45,71.2
			c-2.81,78.85-0.49,83.44,83.38,73.37c64.08-7.69,127.91-9.91,192.13-9.78c18.97,0.04,38.06-0.75,54.92-10.89
			c13.14-7.9,26.4-17.28,25.04-34.73c-1.2-15.36-16.35-18.58-26.95-26.1c-18.67-13.26-56.02-2.08-55-41.37
			c25.7-18.14,54.83-11.2,82.98-11.65c26.97,3.42,50.62,11.91,60.89,40.47c11.58,22.29,32.69,39.12,37.5,65.3
			c-45.8,55.39-102.8,88.14-176.48,84.97c-77.86-3.35-156.02,18.52-231.19,13.35c-126.95-8.72-237.1,40.84-353.02,71.52
			c-40.61,10.75-78.79-7.08-118.1-0.79c-12.09-2.41-26.07,0.93-35.01-11.26c-3.11-3.4-6.22-6.8-9.32-10.21
			C64.34,939.8,50.9,937.99,44.47,928.66z"/>
		<path class="st1" d="M970.02,998.8c-29.94,74.97-91.07,119.06-162.85,140.15c-178.15,52.34-359.15,78.19-539.4,7.57
			c-48.46-18.99-100.25-37.25-125.8-90.05c31-24.78,56.15,1.12,82.88,10.09c46.16,15.48,92.05,36.05,135.59-5.75
			c38.59-13.95,76.62-14.02,112.98,6.64c15.37,8.74,31.19,11.42,48.29,8.92c18.75-2.02,37.73-2.94,56.07,1.34
			c31.57,7.36,58.76,6.77,78.03-25.57c9.28-15.58,26.06-20.8,44.56-14.51c27.64,33.3,61.44,32.47,97.05,16.29
			c39.68-18.02,79.47-35.75,119.83-52.16C934.19,994.88,951.51,982.8,970.02,998.8z"/>
		<path class="st2" d="M371.23,373.34c40.34-33.37,76.53-76.52,138.54-59c11.91,10.49,27.98,11.05,41.67,17.41
			c37.52,17.45,71.76,38.4,73.29,85.34c1.61,49.36-26.82,81.92-67.75,103.46c-38.67,20.35-81.75,30.12-122.38,45.87
			c-2.7,1.08-5.42,2.14-8.13,3.22c-2.89,0.08-5.81,0.13-8.71,0.26c-30.84-12.95-68.26-14.42-86.76-49.23
			c-2.06-8.26-1.59-16.43,1.04-24.47C352.29,457.59,331.17,405.67,371.23,373.34z"/>
		<path class="st3" d="M521.36,1089.55c-13.5,5.61-30.72,19.95-41.23,5.78c-32.78-44.19-78.29-23.77-118.9-28.26
			c-21,18.2-45.88,16.67-70.2,11.69c-61.38-12.58-121.37-29.32-172.32-68.45c-7.51-21.3-29.16-30.82-40.67-48.78
			c10.73,0.61,21.45,1.21,32.18,1.82c38.65,1.94,73.9,18.6,111.44,25.55c62.76,18.54,118.24-19.41,178.26-22.8
			c84.77-4.79,168.17-24.09,253.4-25.31c20.54,6,31.31,20.41,35.12,40.8c-2.15,35.87-28.59,50.54-56.04,65.03
			C597,1065.3,555.68,1068.34,521.36,1089.55z"/>
		<path class="st4" d="M37.65,665.26c6.32-20.6,21.57-34.77,35.8-49.67c15.29,7.05,15.98,24.71,25.86,35.63
			c21.38,23.61,48.58,26.97,77.34,19.42c28.19-7.4,42.15-30.2,51.47-55.43c7.44-20.15-10.63-24.84-23.08-32.42
			c-5.01-3.32-8.44-7.76-10.51-13.36c-2.25-9.13-1.24-17.8,3.3-26.05c41.08-29.62,86.47-21.52,128.95-8.73
			c29.94,9.02,59.81,19.72,89.75,29.55l2.26-0.49c4.17,5.06,4.78,10.52,1.86,16.39c-9.27,19.18,4.19,37.01,3.25,55.91
			c-2.11,42.15-22.06,77.61-58.57,91.47c-85.07,32.29-171.67,61.44-264.72,21.44C60.98,731.89,37.18,709.38,37.65,665.26z"/>
		<path class="st5" d="M429.65,587.53c38.15,41.55,43.18,73.97,18.32,121.86C390.85,819.45,298.37,883,178.51,903.76
			c-40.26,6.97-81.83-10.17-118.44-30.62c-16.54-9.24-31.58-20.88-50.87-24.07c-4.19-34.06-10.43-68.1-0.71-102.26
			c12.5-4.36,24.7,0.4,31.05,9.03c48.8,66.34,116.87,55.73,181.76,41.87c69.65-14.87,131.91-48.11,180.05-103.2
			C428.4,663.55,412.99,621.28,429.65,587.53z"/>
		<path class="st6" d="M213,997.98c-36.8-3.99-72.01-12.72-102.78-34.63c6.08-8.66,14.95-12.18,24.72-10.08
			c89.38,19.24,170.79,4.49,243.16-53.97c16.53-13.35,38.64-21.18,58.93-14.55c65.86,21.51,131.56,9.2,195.68-2.46
			c58.55-10.64,116.85-12.57,174.82-8.54c57.49,4,102.23-18.51,145.05-50.4c12.22-9.1,22.29-20.73,39.25-19.62
			c15.15,16.67,11.09,38.6,15.87,58.1c-6.53,8.02-15.51,11.46-25.18,13.63c-5.58,0.9-11.65,0.37-16.83,2.13
			c-174.18,59.11-357.12,59.6-537.03,80.24c-28.51,3.27-56.32,10.47-82.26,20.72C302.89,995.75,258.81,1000.81,213,997.98z"/>
		<path class="st7" d="M430.47,562.3c21.91-31.08,59.67-28.67,90.04-41.47c20.99-8.85,42.15-15.54,59.02-31.9
			c52.34-50.75,42.93-110.1-23.43-140.05c-18.35-8.28-42.04-7.92-46.32-34.54c39.63-15.39,78.46-0.92,117.57,3.15
			c0.25,8.51,5.45,12.81,12.45,16.81c83.83,47.86,87.82,58.95,54.23,147.35c-18.38,43.75-63.51,50.86-98.58,71.87
			c-17.8,10.67-40.83,10.04-55.77,26.47c-1.81,4.63-4.5,8.63-7.85,12.24c-12.51,8.45-21.36,20.55-31.51,31.38
			c-5.02,2.42-9.54,1.68-13.54-2.2l0.18,0.11c-3.33-4.54-7.47-8.32-11.4-12.31c-11.09-15.95-22.71-31.25-43.45-35.34
			c-2.16-0.1-4.32-0.21-6.49-0.3C425.4,569.03,427.01,565.27,430.47,562.3z"/>
		<path class="st8" d="M429.65,587.53c1.19,123.23-93.16,212.93-217.23,230.65c-86.49,12.35-150.6-5.43-203.92-71.37
			c0.31-3.76,0.63-7.51,0.94-11.27c2.3-3.49,2.91-7.25,1.82-11.28c6.53-20.68,10.94-42.31,26.39-59
			c41.47,71.17,95.59,94.19,182.83,82.84c41.03-5.34,82.03-10.23,120.97-23.78c56.6-19.7,75.04-56.65,59.03-116.79
			c-4.67-17.55,4.52-24.01,15.24-31.91c4.85-4.93,10.12-5.43,15.81-1.51l0.59-0.23C431.3,578.43,430.47,582.98,429.65,587.53z"/>
		<path class="st9" d="M978.22,860.96c9.83,0.29,19.66,0.58,29.49,0.87c1.3,49.47-7.76,96.09-37.68,136.97
			c-49.51,11.62-93.92,35.98-139.63,56.84c-25.68,11.72-52.03,18.5-79.2,25.64c-39.33,10.34-47.63-4.41-47.06-37.35
			c-4.67-23.8,11.85-27.86,29.04-31.37c46.43-1.69,81.38-29.3,112.58-57.75C886.38,917.74,932.41,889.88,978.22,860.96z"/>
		<path class="st10" d="M897.95,710.97c-30.09-0.25-60.17-0.5-90.26-0.75c-2.24,0.69-4.47,1.39-6.71,2.11
			c-6.41,3.56-13.28,5.47-20.63,5.93c-5.08-0.43-9.71-2.09-13.97-4.88c-5.99-5.53-9.58-11.96-7.77-20.47
			c32.12-36.31-0.63-45.42-24.49-58.24c-11.73-13.41-18.02-28.62-15.54-46.75c17.6-35.22,52.62-48.23,84-65.89
			c29.04-1.72,31.78-19.52,28.92-43.65c-2.84-23.99-8.49-50.58,22.04-63.7c22.68,16.05,44.34,33.05,55.42,59.85
			c-32.35,30.9-1.49,61.34,0.8,92c1.52,10.65,1.23,21.19-1.74,31.56c-2.45,7.06-6.05,13.58-11.43,18.76
			C863.38,648.78,866.85,680.05,897.95,710.97z"/>
		<path class="st11" d="M932.2,15.33c6.61-2.95,13-7.67,19.87-8.56c30.11-3.88,70.1-5.12,84.26,14.02
			c11.52,15.57-30.8,33.92-45.16,54.5c-4.18,6-7.41,12.66-11.08,19.02c10.54,26.87,39.02,23.33,58.74,34.64
			c2.94,2.99,5.88,5.99,8.82,8.98c2.23,6.77,6.75,11.39,13.24,14.18c4.37,3.48,9.93,6.15,12.93,10.55
			c20.83,30.64,58.09,63.94,45.54,96.9c-8.73,22.95-58.04,4.32-89.15,5.92c-13.18,0.68-26.35,1.51-39.53,2.27
			c-18.75-13.19-44.54,5.14-62.03-13.87c-4.41-37.3,27.5-34.31,48.32-43.43c13.08-5.73,35.7-2.23,35.7-21.04
			c-0.01-18.79-21.79-16.88-35.7-20.48c-10.97-2.84-22.61-2.66-33.47-6.11c-7.39-2.11-10.56-8.73-15.42-13.85
			c-5.06-5.32-8.42,3.29-0.84,4.05c7.58,0.76-9.98,5.95-3.94,1.55c-3.63,3.23-7.72,5.26-12.36,6.44c-7.7,0.93-14.82-0.52-21.45-4.51
			c-19.53-21.53,1.25-36.61,8.06-54.43C908.64,72.97,928.51,47.36,932.2,15.33z"/>
		<path class="st12" d="M201.62,552.32c-0.12,7.58-0.23,15.15-0.35,22.73c-6.13,5.74-14.76,6.85-21.22,11.47
			c-2.37,1.66-4.74,3.66-6.63,5.7c0.29-0.2,2.87,2.66,2.87,2.66s1.59-3.5,1.84-3.88c2.58-3.06,5.32-5.21,8.58-6.92
			c5.01-2.77,10.58-4.25,14.81-8.17c19.87,0.91,53.54-5.37,50.83,19.14c-3.42,31.01-21.23,64.21-51.15,82.98
			C147.21,711.88,85.47,681,73.45,615.6c-0.06-3,1.35-4.93,4.21-5.8c2.84-4.19,6.04-8.1,9.58-11.72
			c12.86-21.87,34.58-33.2,54.9-46.2C162.04,542.16,181.98,527.4,201.62,552.32z"/>
		<path class="st13" d="M932.2,15.33c20.89,2.95,27.59,12.62,11.43,28.99c-26.62,26.97-23.87,70.12-53.32,95.51
			c-0.78,0.67,4.74,8.64,7.32,13.21c6.77,4.83,7.96,11.53,6.48,19.16c-1.83,4.56-4.56,8.52-8.05,11.95
			c-11.73,8.75-19.98,20.78-29.33,31.82c-7.81,7.25-16.89,11.52-27.63,11.97c-13.88-1.21-25.46,3.42-36.48,11.99
			c-14.43,11.23-30,30.17-49.21,17.01c-21.7-14.87-6.14-37.77-3.47-57.38c12.89-35.22,42.25-57.29,67.96-81.52
			c25.76-24.28,43.04-51.43,47.24-86.62C886.27,20.97,908.09,13.36,932.2,15.33z"/>
		<path class="st14" d="M865.14,31.43C883.3,58.2,875.16,79.34,853.87,101c-31.43,31.97-67.5,59.69-92.52,97.75
			c-14.61,23.27-32.99,28.22-55.82,11.46c0.05-84.9,26.38-122.62,104.04-151.86C828.76,51.12,846.66,40.49,865.14,31.43z"/>
		<path class="st15" d="M682.83,488.65c-0.98-13.03-1.21-25.34,4.9-38.13c22.38-46.84,17.85-61.58-26.12-90.45
			c-16.18-10.62-41.68-13.17-34.27-42.57c51.53,3.65,96.91,28.98,145.92,41.48c17.16-0.47,26.11,8.81,29.41,24.78
			c21.76,37.41,11.62,59.27-31.59,65.12C733.73,444.39,723.68,500.89,682.83,488.65z"/>
		<path class="st16" d="M371.23,373.34c-9.77,33.21-21.21,66.05-15.7,101.78c1.76,11.42-1.81,21.83-14.55,26.16
			c-11.73,2.34-20.61-3.01-28.7-10.58c-5.55-6.25-8.16-13.58-7.85-21.94c-26.85-61.05-7.42-112.89,32.47-160.27
			c7.01-8.32,15.69-19.89,27.82-14.49c12.19,5.42,6.29,19.54,7.5,30.13C374.1,340.62,360.96,356.75,371.23,373.34z"/>
		<path class="st17" d="M840.36,218.8c7.54-3.63,15.08-7.26,22.62-10.89c4.94-2.87,9.65-2.54,14.16,1
			c3.16,29.58-15.74,46.68-35.53,63.06c4.6,3.34,5.23-3.46,8.61-3.27c26.51-9.9,50.52-33.44,81.9-14.2
			c18.82,7.49,48.57-33.29,58.56,13.26c-5.89,10.17-15.27,10.41-25.27,8.85c-7.42-4.68-14.36-4.44-20.69,2.02
			c-20.87,9.95-37.81,23.75-45.51,46.57c-12.41,1.94-20.32,17.95-35.46,11.35c-6.88-0.5-13.75-1.01-20.63-1.51
			c-12.32-12.71-34.5,6.55-44.49-13.72c-13.5-11.31-28.08-20.11-46.48-20.06c-5.18-2.92-7.19-7.19-5.55-13.02
			C778.81,266.4,798.44,227.53,840.36,218.8z"/>
		<path class="st18" d="M897.95,710.97c-56.62-23.82-56-66.15,1.67-114.08c20.18-2.19,38.09,5.6,56.15,12.74
			c-0.48,42.93-0.95,85.87-1.43,128.8C936.81,726.68,918.87,715.76,897.95,710.97z"/>
		<path class="st19" d="M118.71,1010.31c34.28,2.77,63.18,21.35,94.79,31.91c47.76,15.97,96.29,29.68,147.72,24.85
			c-1.2,27.12-18.33,32.93-41.94,34.42c-40.93,2.58-77.89-8.92-113.67-26.7c-20.11-9.99-39.31-23.06-63.64-18.33
			C125.22,1045.62,121.58,1028.16,118.71,1010.31z"/>
		<path class="st20" d="M764.11,438.46c51.6,2.6,38.28-30.53,32.68-59.41c2.93-3.64,5.91-3.51,8.95-0.13
			c15.93,11.92,31.87,23.83,47.8,35.75c-13.5,24.12-12.42,47.66-5.01,74.61c9.69,35.2-6.33,47.81-41.7,38.79
			c-17.82-12.29-44.04-15.75-46.57-44.24C759.41,468.53,751.11,452.56,764.11,438.46z"/>
		<path class="st8" d="M201.62,552.32c-19.78-6.1-39.62-3.46-59.47-0.45c37.38-39.85,84.39-56.22,137.95-56.63
			c-0.09,26.56,18.11,8.43,27.75,11.24c10.61,1.17,20.66,3.34,25.86,14.26c25.74,18.07,62.27,15.55,82.84,43.47
			c-25.08,2.61-46.99,3.34-73.18-9.35C299.32,533.54,249.27,531.02,201.62,552.32z"/>
		<path class="st16" d="M840.36,218.8c-31.45,23.78-50.94,63.13-93.8,72.04c-17.55,8.88-29.36-0.61-40.38-12.62
			c-0.21-22.67-0.43-45.35-0.64-68.02c19.58,0.94,38.58-0.97,55.82-11.46c-0.95,9.11-1.06,18.4-3.09,27.26
			c-1.95,8.56-9.83,18.56,0.44,24.45c9.03,5.18,16.1-4.71,23.5-9.93C799.59,228.28,809.8,195.88,840.36,218.8z"/>
		<path class="st0" d="M912.19,489.2c28.88-4.01,63.16-2.33,74.26,23.48c11.91,27.7-32.86,28.65-42.37,50.41
			c-19.64,14.19-26.78-0.69-34.33-14.71C905.64,528.48,891.69,508.11,912.19,489.2z"/>
		<path class="st21" d="M918.1,541.05c4.79,11.91,12.54,20.33,25.98,22.05c-3.86,17.46,12.96,29.72,11.69,46.53
			c-24.15,19.71-39.32-0.16-56.15-12.74c-0.28-11-0.56-22-0.84-33C905.52,556.54,900.79,539.46,918.1,541.05z"/>
		<path class="st17" d="M918.1,541.05c-6.44,7.62-12.88,15.23-19.33,22.85c-6.22-17.67-14.01-34.97-18.25-53.1
			c-5.17-22.1,2.33-37.22,28.43-36.26c1.08,4.89,2.16,9.78,3.23,14.67C914.16,506.48,916.13,523.76,918.1,541.05z"/>
		<path class="st21" d="M805.74,378.93c-2.98,0.06-5.96,0.11-8.95,0.13c-7.84-6.69-106.66-43.72-114.5-50.42
			c0.38-18,10-41.52,23.89-50.42c14.82,4.61,125.51,41.23,136.94,56.8C814.86,336.2,812.28,359.25,805.74,378.93z"/>
		<path class="st13" d="M1038.83,128.95c-20.35,1.92-40.27,1.81-58.43-9.85c-13.03-8.36-12.27-16.38-0.3-24.79
			C1003.05,100.13,1023.7,109.86,1038.83,128.95z"/>
		<path class="st7" d="M303.49,515.23c-20.23,7.89-28.22,1.45-23.4-19.99c8.11-8.83,16.23-17.66,24.34-26.48
			c4.66,5.11,9.32,10.22,13.98,15.33C322.23,498.69,314.73,507.86,303.49,515.23z"/>
		<path class="st22" d="M863.75,336.54c12.67-1.14,14.21-37.01,35.46-11.35C894.38,350.8,885.42,363.51,863.75,336.54z"/>
		<path class="st23" d="M706.18,278.22c13.46,4.21,26.92,8.41,40.38,12.62c1.86,3.47,8.05,7.41,5.59,10.41
			c-6.11,6.17-29.44,3.91-43.04-3.88C700.77,292.59,693.22,286.72,706.18,278.22z"/>
		<path class="st6" d="M44.47,928.66c10.79,4.66,37.35-7.57,24.24,22.66C55.03,949.77,47.48,941.64,44.47,928.66z"/>
		<path class="st22" d="M944.72,278.61c5.83-11.63,12.58-13.85,20.69-2.02C958.52,277.27,951.62,277.94,944.72,278.61z"/>
		<path class="st5" d="M11.26,724.26c0.78,2.8,1.92,5.57,2.1,8.41c0.06,0.87-2.54,1.91-3.92,2.87
			C10.05,731.78,10.66,728.02,11.26,724.26z"/>
		<path class="st13" d="M1060.89,152.1c-7.42-1.92-11.77-6.7-13.24-14.18C1052.07,142.65,1056.48,147.38,1060.89,152.1z"/>
		<path class="st4" d="M87.24,598.07c-3.19,3.91-6.39,7.82-9.58,11.72C77.26,602.94,81.63,600,87.24,598.07z"/>
		<path class="st24" d="M774.61,708.1c3.93-1.11,7.86-2.22,11.79-3.34c6.4,2.77,12.82,3.45,19.27,0.16l2.02,5.29
			c14.21,22.55,41.13,13.35,60.52,24.13c20.51,11.4,54.45,12.07,50.14,43.64c-3.9,28.57-30.26,46.04-56.24,58.68
			c-4.72,2.29-11.17,1.7-16.77,1.39c-92.45-5.13-184.1,8.67-276.18,11.45c-67.51,2.04-73.22-9.45-42.31-70.55
			c3.23-6.39,3.29-14.39,4.82-21.64c-10.1-36.95,17.84-45.1,42.26-56.04c46.76-9.54,93.99-4.67,141.09-4.52
			C736.1,694.2,754.46,705.84,774.61,708.1z"/>
		<path class="st19" d="M567.97,714.5c-13.5,13.08-34.07,20.18-36.29,42.83c-52.18-0.12-50.96,0.01-45.55-52.18
			c2.86-27.64,0.61-55.8,0.67-83.73c3.65,0.24,7.27,0.68,10.87,1.33c8.72,0.16,15.28,4.46,20.83,10.76
			C536.37,659.63,554.39,685.72,567.97,714.5z"/>
		<path class="st19" d="M475.58,609.22c3.8,4.1,7.6,8.21,11.4,12.31C483.18,617.43,479.38,613.32,475.58,609.22z"/>
		<path class="st19" d="M738.41,1020.98c-16.55,0-27.95,7.7-34.29,22.96c-19.5-0.38-41.22,1.23-43.51,24.6
			c-4.08,41.63-33.13,36.44-56.84,30.08c-27.57-7.4-54.64-8.96-82.42-9.06c10.6-18.9,25.25-29.22,47.55-35.4
			c42.84-11.88,88.22-22.83,112.67-67c13.85-13.72,30.07-14.27,47.44-8.58C746.96,989.4,750.96,1003.36,738.41,1020.98z"/>
		<path class="st25" d="M303.49,515.23c4.98-10.38,9.95-20.76,14.93-31.15c7.52,5.73,15.05,11.46,22.57,17.19
			c-2.43,6.49-4.86,12.97-7.29,19.46C324.58,513.66,314.36,512.66,303.49,515.23z"/>
		<path class="st0" d="M431.53,574.11c-5.27,0.5-10.54,1.01-15.81,1.51c1.03-3.97,2.05-7.94,3.08-11.91
			c3.89-0.47,7.78-0.95,11.67-1.42C430.82,566.23,431.18,570.17,431.53,574.11z"/>
		<path class="st26" d="M738.41,1020.98c-0.58-12.44,2.72-26.17-11.36-34.11c-1.59-53.94-44.52-25.44-68.64-34.43
			c-117.66,19.91-238.53,17.04-354.33,51.03c-29.92,8.78-61.97,16.23-91.08-5.48c98.48-8.58,186-67.83,289.44-58.42
			c48.24,4.39,97.21-6.12,145.77-20.9c50.5-15.37,103.6-32.18,159.79-14.22c38.19,12.21,75.5-1.76,107.22-24.17
			c19.74-13.95,39.25-21.78,63.01-19.3c-64.96,64.39-137.25,119.2-216.14,165.38C752.5,1031.95,744.48,1030.78,738.41,1020.98z"/>
		<path class="st9" d="M658.41,952.43c14.14-17.86,34.12-10.95,51.66-10.76c15.46,0.18,37.65-9.15,44.98,9.42
			c8.09,20.52-21.84,20.84-27.99,35.77c-15.16,0.09-30.31,0.19-45.47,0.28C674.52,975.14,671.63,960.33,658.41,952.43z"/>
		<path class="st25" d="M273.01,654.32c-2.73-0.37-12.17,0.2-12.91-2.06c-2.78-8.53,5.3-13.1,11.02-17.38
			c5.98-4.48,12.86-7.95,19.71-11.07c12.55-5.71,25.47-8.04,37.23,1.52c2.39,1.94,4.18,7.35,3.25,10.18
			c-5.6,17.08-21.38,10.97-33.29,13.69C290.66,650.87,283.24,652.24,273.01,654.32z"/>
		<path class="st27" d="M567.97,714.5c-37.15-14.31-42.24-52.65-60.69-80.97c7.46-16.02,11.93-33.55,23.9-47.29
			c-0.15-3.16,0-6.3,0.45-9.42c2.86-4.34,6.88-6.41,12.07-6.27c7.42,0.23,14.75,1.28,22.11,2.2c7.65,0.39,15.27,0.82,22.92,1.42
			c23.64,3.71,47.22,7.59,68.82,18.69c19.19,23.22,16.12,59.68,45.68,76.8c7.65,7.36,12.61,16.29,15.53,26.43
			c1.11,5.44-0.63,9.89-4.78,13.48C665.3,711.22,616.64,712.86,567.97,714.5z"/>
		<path class="st13" d="M578.05,584.73c-7.79-1.7-15.58-3.4-23.37-5.1c-4.58,1.05-8.35-0.35-11.4-3.84
			c-3.89,0.34-7.77,0.68-11.66,1.02c7.77-24.81,32.86-22.36,50.4-31.24c34.5-17.47,71.51-30.28,100.81-56.92
			c25.25-9.48,41.89-28.48,55.79-50.51c8.67-13.75,17.12-9.74,25.49,0.32c3.77,15.24,10.7,30.32,2.5,46.21
			c-22.78,82.42-60.81,109.29-144.1,100.5C607.54,583.59,592.97,578.03,578.05,584.73z"/>
		<path class="st15" d="M531.17,586.24c1.22,20.41,8.97,44.12-23.9,47.29c-3.2-3.59-6.41-7.19-9.61-10.78
			C496.25,599.03,504.46,584.15,531.17,586.24z"/>
		<path class="st22" d="M578.05,584.73c25.48-19.01,55.75-3.41,82.83-11.48c35.74-10.65,75.8-14.14,83.69-63.22
			c1.51-9.39,14.4-16.95,22.05-25.36c5.24,13.78,15.59,19.66,29.96,20.53c17.21,1.04,15.64,11.28,10.26,22.87
			c-24.9,23.22-54.45,39.48-83.8,56.04c-19.69,20.77-42.24,26.66-68.51,13.15C628.11,598.71,603.42,589.66,578.05,584.73z"/>
		<path class="st21" d="M654.52,597.27c21.72-10.2,44.73-13.65,68.51-13.15c6.11,16.69,12.21,33.38,18.32,50.07
			c6.64,30.79-6.43,45.36-37.27,45.3C655.68,671.3,653.95,634.98,654.52,597.27z"/>
		<path class="st20" d="M704.08,679.48c18.4-10.18,33.97-22.69,37.27-45.3c20.93-1.18,42.53-4.88,52.29,21.79
			c11.31,30.9-21.37,29.97-31.74,45.11c-15.4,8.42-30.84,8.49-46.3,0.16C706.16,696.96,704.21,688.71,704.08,679.48z"/>
		<path class="st26" d="M715.61,701.25c15.43-0.05,30.86-0.11,46.3-0.16c4.24,2.34,8.47,4.68,12.71,7.01
			c-20.04,7.8-40.31,5.64-60.64,1.47C714.41,706.78,714.96,704,715.61,701.25z"/>
		<path class="st20" d="M805.67,704.93c-6.46,4.37-12.89,4.4-19.27-0.16C792.87,700.04,799.29,700.67,805.67,704.93z"/>
		<path class="st13" d="M827.18,278.14c16.57-22.82,33.15-45.64,49.72-68.46c0.45-15.46,12.18-23.83,21.29-33.85l0.38-0.45
			c6.07-8.96,13.32-16.69,22.75-22.21l0.32-0.19c3.66-5.87,7.39-5.63,11.16-0.11c26.19,0.94,52.64-3.19,78,8.88
			c13.33,6.34,32.99,6.61,31.78,25.96c-1.16,18.55-16.58,30.67-34.36,32.07c-21.09,1.67-40.6,7.38-60.36,13.57
			c-10.72,3.36-14.08,11.41-15.74,21.13c-32.81-1.53-57.41,26.17-90.03,25.3C836.59,284.04,831.62,283.48,827.18,278.14z"/>
		<path class="st22" d="M921.33,153.17c-4.05,11.03-11.22,18.85-22.75,22.21c-0.31-7.45-0.63-14.89-0.94-22.34
			C905.53,153.08,913.43,153.12,921.33,153.17z"/>
		<path class="st22" d="M932.8,152.87l-5.58,0.15l-5.58-0.04c1.14-4.72,1.97-13.42,3.45-13.53
			C935.28,138.68,931.12,147.68,932.8,152.87z"/>
		<path class="st8" d="M179.59,601.15c-1.44,7.01-3.42,15.62-11.33,15.64c-12.39,0.04-11.25-10.89-11.82-19.55
			C165.13,592.75,173.41,590.71,179.59,601.15z"/>
		<path class="st19" d="M179.59,601.15c-7.72-1.3-15.44-2.61-23.16-3.91c0.73-6.06,3.75-10.2,9.87-11.73
			c9.39-4.87,18.38-5.9,26.34,2.78C188.29,592.58,183.94,596.87,179.59,601.15z"/>
		<path class="st25" d="M192.64,588.29c-8.78-0.93-17.56-1.85-26.34-2.78c8.21-14.99,20.69-15.72,34.97-10.47l0.25,0.85
			C198.56,580.03,195.6,584.16,192.64,588.29z"/>
		<path class="st22" d="M898.2,175.83c0.99,16.37-6.51,27.4-21.29,33.85c-4.64-0.59-9.28-1.18-13.92-1.78
			C865.66,187.26,876.07,175.11,898.2,175.83z"/>
		<path class="st22" d="M827.18,278.14c4.97,0.55,9.94,1.1,14.91,1.66c-7.68,9.07-14.55,27.03-28.45,13.71
			C804.98,285.19,818.19,279.85,827.18,278.14z"/>
		<path class="st22" d="M543.28,575.79c3.8,1.28,7.6,2.56,11.4,3.84C549.35,582.92,546.22,579.62,543.28,575.79z"/>
		<path class="st28" d="M711.28,621.66c-1.83,1.73-4.79,6.83-8.83,7.91c-9.88,2.64-12.08-5.51-11.6-12.43
			c0.33-4.77,4.41-9.52,11.09-7.6C706.81,610.94,712.34,611.79,711.28,621.66z"/>
	</g>
</g>
</svg>
