<?xml version="1.0" encoding="utf-8"?>
<!-- Generator: Adobe Illustrator 23.1.0, SVG Export Plug-In . SVG Version: 6.00 Build 0)  -->
<svg version="1.1" id="Calque_1" xmlns="http://www.w3.org/2000/svg" xmlns:xlink="http://www.w3.org/1999/xlink" x="0px" y="0px"
	 viewBox="0 0 1125 1131.45" style="enable-background:new 0 0 1125 1131.45;" xml:space="preserve">
<style type="text/css">
	.st0{fill:#CC944A;}
	.st1{fill:#CC9851;}
	.st2{fill:#F62413;}
	.st3{fill:#FDF4A7;}
	.st4{fill:#C38E48;}
	.st5{fill:#F82916;}
	.st6{fill:#983613;}
	.st7{fill:#D29D5B;}
	.st8{fill:#88C202;}
	.st9{fill:#FAE49E;}
	.st10{fill:#F4CB7D;}
	.st11{fill:#FAF8B6;}
	.st12{fill:#DBA65D;}
	.st13{fill:#CC1D11;}
	.st14{fill:#E9B66C;}
	.st15{fill:#D4B7A5;}
	.st16{fill:#FDDD8C;}
	.st17{fill:#B51D12;}
	.st18{fill:#6C4724;}
	.st19{fill:#220906;}
	.st20{fill:#3C140D;}
	.st21{fill:#A16D2D;}
	.st22{fill:#587A01;}
	.st23{fill:#D75A08;}
	.st24{fill:#4B1E0B;}
	.st25{fill:#848484;}
	.st26{fill:#4D4A09;}
	.st27{fill:#FDFDFD;}
</style>
<g>
	<g>
		<path class="st0" d="M113.8,721.42c-44.68-23.87-77-58.06-90.33-108.12c12.38-16.53,32.67-13.46,49.17-19.76
			c24.48-9.34,47.82-19.35,47.14-51.58c1.41-5.3,4.24-9.66,8.39-13.22c35.75-8.29,63.47-41.39,104.33-33.97
			c18.71,12.33,9.66,31.99,12.88,48.45c0.67,6.93,0.51,13.88-0.46,20.73c-1.16,8.22-2.06,16.45,2.34,24.14
			c5.34,7.16,12.99,9.49,21.36,10.41c13.69,1.18,27.46,1.1,40.85,4.38c13.37,4.38,26.88,5.65,40.67,1.76
			c7.47-1.15,14.84-0.81,22.2,0.89c10.16,2.68,19.87,6.44,29.18,11.33c23.59,18.05,50.83,27.18,79.38,33.8
			c24.96,5.78,49.5,13.12,61.94,39.2c4.24,16.14-1.66,28.56-14.08,38.62c-7.66,4.67-16.06,7.19-24.84,8.56
			c-22.87,1.98-45.12,8.01-67.82,11.25c-17.21,1.57-34.45,1.56-51.71,0.86c-29.13-1.08-54.88-12.28-79.54-26.64
			c-13.77-8.7-26.84-19.19-35.94-32.2c-27.69-39.6-32.57-10.02-40.41,12.33c-13.59,14.63-31.24,22.53-49.28,29.87
			c-8.34,2.8-16.89,4.22-25.68,4.58C138.21,737.16,123.79,734.84,113.8,721.42z"/>
		<path class="st1" d="M949.89,757.21c-4.77,36.17-24.74,62.57-53.54,83.3c-40.88-2.31-63.57,29.05-92.04,49.71
			c-42.33,58.17-100.99,97.22-159.67,136.24c-18.21,6.52-24.64-5.26-25.16-19.2c-1.24-33.02-22.43-33.38-46.41-30.79
			c-11.49-0.46-21.9-4.07-31.5-10.32c-2.22-1.9-4.34-3.84-6.55-5.78c-1.44-2.56-2.81-5.13-4.24-7.69
			c-1.69-5.7-1.99-11.49-1.01-17.34c15.91-34.89,48.56-22.62,75.34-26.89c60.83-3.18,88.53-54.61,128.35-88.36
			c4.14-3.11,8.61-5.66,13.28-7.87c35.96-10.73,37.13-32.86,32.05-67.38c-6.17-41.9-55.07-65.59-42.37-112.69
			c7.11-4.77,14.93-5.78,23.21-4.61c22.82,8.31,46.66,13.82,68.64,24.52C859.77,697.53,898.02,735.24,949.89,757.21z"/>
		<path class="st2" d="M771.41,91.44c33.89-0.82,57.65,17.21,77.89,41.81c-4.37,39.32-41.64,66.48-39.89,108.1
			c-2.18,4.8-5.51,8.54-10.1,11.16c-54.99,41.17-123.14,37.38-185.2,54.33c-6.91,2.46-14.02,4.32-21.02,6.37
			c-4.36,1.86-8.8,3.59-13.13,5.57c-2.03,1.28-4.15,2.37-6.18,3.63c-6.04,4.18-12.07,8.34-18.22,12.37
			c-32.52,22.19-68.54,34.56-107.62,38.46c-5.41-0.45-10.12-2.56-14.26-6.01c-13.83-28.47,4.17-44.81,24.23-58.29
			c28.68-19.28,54.38-42.08,80.86-63.96c3.53-2.75,11.49-2.05,11.35-5.48c-0.3-7.16,2.75,1.89-3.5-2.19
			c-2.93-4.33-4.67-9.08-5.34-14.26c-0.06-11.33,3.61-21.71,10.1-30.56c44.64-60.86,122.73-69.68,178.05-114.06
			c16.04,24.04,3.39,45.89-5.19,68.08c-1.98,5.13-5.05,11.93,0.59,14.98c5.28,2.85,9.73-3.11,13.42-7.23
			C754.53,136.07,752.27,108.11,771.41,91.44z"/>
		<path class="st3" d="M71.27,945.69c9.55-38.94,26.84-73.82,64.38-91.54c23.52-11.11,25.54-28.06,24.57-48.92
			c6.16-12.37-3.93-25.62,2.02-38.03c3.38-7.78,8.83-12.98,17.56-14.1c11.14,1.18,19.97,6.54,27.13,14.95
			c7.49,11.25,8.27,23.71,6.52,36.55c-1,8.74-1.91,17.49,6.39,23.82c21.1,6.67,42.61,2.75,63.93,3.22
			c10.81-0.23,21.55-0.29,32.36-0.18c23.79,0.45,46.5,5.17,67.71,16.32c10.89,5.86,20.99,12.63,27.22,23.82
			c11.57,82.74-30.14,128.31-111.08,121.93c-26.15-2.06-49.84-12.9-74.73-19.03c-15.7-3.02-31.05,2.7-46.62,2.47
			c-12.2-0.7-23.11,3.96-34.05,8.64c-7.38,1.63-14.44,0.82-21.18-2.61C109.8,965.31,86.51,961.1,71.27,945.69z"/>
		<path class="st4" d="M466.97,1122.34c-28.47,1.22-56.93,2.45-85.4,3.67c-11.27,7.47-22.38,7.23-33.34-0.66
			c-47.48-20.56-94.61-26.38-147.89-19.37c-48.41,6.36-97.43-11.73-120.63-64.91c-1.69-43.66,44.67-22.34,59.26-44
			c11.64-7.34,23.15-15.11,37.88-14.19c13.21,1.45,26.18,4.53,39.39,6.26c7.79,1.21,15.19,3.6,22.08,7.43
			c17.23,15.5,36.28,26.48,60.69,24.12c16.18,0.19,32.27,0.89,48.11,4.42c20.74,7.91,43.91,4.61,64.4,13.73
			c22.01,23.53,52.94,39.12,64.68,71.93C475.84,1116.77,472.62,1120.53,466.97,1122.34z"/>
		<path class="st5" d="M725.94,101.68c-14.11,6.24-24.74-6.89-30.74,6.77c-11.3,25.74-22.95,33.89-56.8,37.08
			c-41.01,3.85-82.1,37.37-90.82,89.27c-28.29,18.6-56.36,21.45-84.05-1.23C517.37,85.21,630.66,18.02,780.89,1.77
			c3.32-0.36,7.36,5.93,11.07,9.11c-3.36,4.82-7.24,9.36-8.3,15.41c0.02,2.49-0.77,4.68-2.37,6.58
			C760.83,45.34,760.76,106.44,725.94,101.68z"/>
		<path class="st6" d="M1083.62,480.14c-31.07,27.41-68.05,40.67-108.75,42.1c-22.36,0.79-43.55,2.77-62.56,15.48
			c-6.96,4.17-14.13,3.93-21.45,1.12c-15.15-8.75-27.28-21.88-43.18-29.65c-14.66-8.19-27.39-18.2-33.3-34.78
			c-7.39-39.66-31.05-77.97-10.19-120.05c27.47-17.76,52.87-11.54,77.26,6.57c6.15,6.88,8.12,14.94,6.48,23.92
			c-3.7,10.77-14.37,15.03-21.44,22.7c-7.88,8.54-12.03,20.09-2.45,28.17c16.56,13.97,18.38-8.4,27.41-13.55
			c11.3-4.91,19.87,0.58,28.15,7.25c27.73,53.57,71.44,21.38,109.41,20.2C1049.41,455.87,1071.47,459.18,1083.62,480.14z"/>
		<path class="st7" d="M949.89,757.21c-68.21,0.04-101.4-43.12-123.43-100.03c29.55-30.03,60.71-56.45,107.46-47.84
			C975.9,644.91,979.49,678.21,949.89,757.21z"/>
		<path class="st8" d="M463.53,233.56c28.02,0.41,56.04,0.82,84.06,1.23c-0.01,0,0.37-0.1,0.37-0.1c3.31,2.64,4.3,5.97,2.95,9.99
			c-22.56,32.91-55.08,54.57-88.35,74.26c-19.72,11.67-31.3,24.95-29.79,48.11c-7.31,9.37-17.15,9.48-27.58,7.6
			c-9.81-2.73-18.76-7.34-27.33-12.77c-13.98-10.65-26.99-22.16-32.9-39.54c-0.18-2.43-0.31-4.89-0.49-7.33
			c1.38-4.65,3.54-8.96,6.29-12.96c8.49-11.3,13.27-25.14,23.36-35.45c3.42-3.31,7.22-6.14,11.22-8.68
			c5.9-3.94,11.92-7.71,17.92-11.55c8.36-4.74,16.71-9.93,26.47-3.31C442.29,244.5,454.08,243.18,463.53,233.56z"/>
		<path class="st9" d="M883.65,388.99c-1.65-6.79-3.29-13.58-4.94-20.38c-4.03-8.31-4.03-16.61,0.07-24.9
			c21.49-20.82,48.04-28.48,77.08-29.54c29.29,17.19,49.54,4.54,72.41-16.3c30.73-28.01,31.38-74.59,66.21-98.68
			c13.96,13.09,8.16,30.14,9.2,45.82c-2.32,2.62-3.12,5.25-2.4,7.92c0.72,2.67,1.47,4.01,2.22,4.01
			c-0.34,6.73-0.69,13.46-1.03,20.19c-47.07,101.72-115.03,145.64-204.32,132.05C889.82,404.97,884.65,398.47,883.65,388.99z"/>
		<path class="st7" d="M893.95,400.26c83.85,10.5,139.75-31.32,182.28-97.73c6.85-10.69,10.6-24.03,26.26-25.4
			c8.61,30.09-12.58,56.73-9.98,86.13c2.14,11.07-1.99,19.55-10.78,26.12l0.71-0.18c-3.48,4.37-7.1,8.53-13.13,9.27
			c-2.83,3.73-5.67,7.46-8.5,11.19c-4.39,23.31-18.18,37.1-41.63,41.12c-36.77,9.28-71.78,5.16-104.84-13.77
			c-6.93-5.13-13.87-10.26-20.8-15.4C887.72,414.38,887.74,407.26,893.95,400.26z"/>
		<path class="st10" d="M124.36,534.08c0.31,3.83,0.62,7.67,0.92,11.5C85.1,587.71,60.89,592.13,6.17,567.34
			c-6.78-25.61-4.6-51.28-0.47-76.96c4.17-3.51,8.84-6.14,13.93-8.01c36.54,1.73,61.26-7.12,61.29-52.05
			c0.02-21.62,10.55-49.68,34.47-9.93c4.16,25.17,21.78,25.25,41.81,23.81c25.6-1.85,51.86-6.27,75.85,8.27
			c10.14,41.08-25.16,34.24-45.43,42.15C163.88,503.87,129.95,495.93,124.36,534.08z"/>
		<path class="st3" d="M103.5,423.12c-0.33-1.8-0.06-4.17-1.12-5.29c-1.89-2.01-4.58-3.27-6.93-4.84c-1.09,4.94-2.8,9.83-3.17,14.82
			c-5.47,73.71-5.43,73.71-78.26,62.21c-3.27-4.34-5.08-9.24-5.62-14.63c10.26-76.71,82.24-96.37,128.91-139.42
			c14.79,37.31,50.33,49.1,81.53,66.33c3.13,8.71,2.15,16.82-3.4,24.32C177.59,442.57,140.45,435.85,103.5,423.12z"/>
		<path class="st11" d="M214.71,400.94c-46.89,3.46-82.97-5.95-77.39-64.97c36.27-21.59,72.73-42.73,115.41-49.33
			c4.44-0.16,7.96,1.57,10.59,5.15c1.57,3.9,2.42,7.97,2.77,12.02c6.56,12.74,20.43,5.46,29.68,10.72
			c4.87,1.99,8.92,5.05,12.37,8.97c6.12,12.96,5.35,24.77-5.82,34.81c-16.59,5.07-27.8,16.79-37.21,30.69
			c-3.56,3.22-7.66,5.43-12.28,6.66c-9.13,1.59-17.68,4.97-25.99,9.12C221.96,406.14,217.96,404.71,214.71,400.94z"/>
		<path class="st1" d="M470.97,1113.21c-12.5-27.45-55.83-28.76-56.3-66.4c54.18-29.62,113.19-33.51,172.91-30.71
			c20.25,0.95,38.46,10.42,49.18,29.7c-4.57,12.72-9.13,25.44-13.7,38.16c-5.22,2.38,0,0-8,4.9c-3.54,0.88-7.13,1.53-10.75,1.96
			c-35.83,12.77-79.06-7.08-110.5,25.12C485.76,1118.54,477.93,1119.48,470.97,1113.21z"/>
		<path class="st12" d="M636.76,1045.79c-53.4-28.52-108.48-12.72-163.2-6.14c-19.63,2.36-39.26,4.76-58.89,7.14
			c-22.07-4.39-47.34,8.96-66.4-12.02c-0.56-21.4,17.1-24.47,30.27-23.63c68.63,4.36,128.32-29.14,192.54-42.95
			c43.82-18.38,73.57-17.95,60.18,43.58c-0.81,3.73,8.65,9.7,13.35,14.65C642.01,1032.9,639.39,1039.35,636.76,1045.79z"/>
		<path class="st11" d="M1094.48,199.19c-13.35,48.29-35.53,90.5-73.19,125.59c-24.58,22.9-42.4,24.82-62.29-2.21
			c-0.65-11.11,3.02-17.19,15.35-13.19c48.02-29.36,71.46-72.47,73.76-128.44c0.56-13.63-8.65-35.51,6.08-39.46
			c18.22-4.89,24.71,17.85,32.46,31.74C1090.96,180.93,1091.98,190.47,1094.48,199.19z"/>
		<path class="st10" d="M896.45,529.63c5.28,2.69,10.55,5.37,15.84,8.07c6.74,14.21,13.48,28.41,20.21,42.61
			c-68.02,22.73-137.96,29.51-209.22,25.15c-13.07-0.5-26.04-1.61-37.68-8.46c-11.48-8.21-13.39-19.76-11.23-32.67
			c3.43-11.94,12.85-18.24,22.79-24.03c11.6-6.26,23.77-11.44,35.8-16.96c4.77-2.22,9.75-3.77,14.88-4.9
			c2.61-0.06,5.23-0.03,7.84-0.07c5.05,1.27,9.63,3.57,13.75,6.73C810.69,556.63,853.64,541.26,896.45,529.63z"/>
		<path class="st2" d="M384.47,266.58c-14.15,11.65-2.13,37.95-25.04,44.7c-10.98-16.16-2.28-34.76-6.45-51.77
			c-0.29,17.76,4.4,35.88-3.88,53.06c0.72,1.84,0.94,3.74,0.66,5.69c-5.99,3.14-12.27,3.06-18.7,1.71
			c-4.22-1.05-8.29-2.53-12.3-4.22c-8.26-3.41-17.04-5.46-24.97-9.85c-3.83-2.99-6.66-6.69-8.49-11.2
			c-1.29-4.72-1.75-9.5-1.53-14.37c6.97-22.94,15.43-45.47,18.9-69.37l-0.09,0.16c6.83-7.5,20.98-10.19,16.51-25.11
			c8.96-10.07,20.74-12.08,33.37-11.65c5.24-1.21,10.53-1.44,15.87-0.72c19.74,12.57,23.11,34.35,30.46,53.93
			c2.1,7.5,2.51,15.04,0.15,22.56C396.39,257.57,390.15,261.83,384.47,266.58z"/>
		<path class="st13" d="M804.47,234.36c-13.35-46.24,22.32-70.76,44.83-101.1c21.23,10.62,26.96,35.31,43.53,49.25
			c33.92,28.54,23.12,42.75-13.2,51.94C854.56,245.92,829.51,239.71,804.47,234.36z"/>
		<path class="st2" d="M974.36,309.38c-5.12,4.4-10.24,8.79-15.35,13.19c-26.54,7.36-53.08,14.72-79.62,22.07
			c-21.46,11.01-39.23,0.4-57.13-9.71c-11.92-21.41-19.84-43.44-10.06-68.05c30.93-22.18,58.5-4.51,86.61,7.34
			c17.76,7.48,32.02,25.59,54.73,18.09C960.48,298,967.42,303.69,974.36,309.38z"/>
		<path class="st14" d="M715.31,590.23c72.89,8.01,144.27-16.82,217.15-9.93c4.62,8.96,7.05,18.02,1.53,27.51
			c-58.41,6.31-113.44,34.83-174.08,26.42c-7.32-0.05-14.64-0.1-21.97-0.15c-10.36-1.75-15.9-9.18-20.76-17.47
			C713.44,608.05,708.57,599.53,715.31,590.23z"/>
		<path class="st13" d="M726.67,78.38c23.94-8.27,23.76-45.51,54.62-45.5c-3.3,19.51-6.59,39.02-9.89,58.55
			c3.74,31.36-12.35,56.46-26.42,81.99c-7.25,13.17-17.82,15.92-32.35,9.09c-17.94-8.44-11.97-20.05-5.82-31.37
			C719.18,128.34,729.72,105.28,726.67,78.38z"/>
		<path class="st5" d="M953.54,292.32c-13.48,26.78-29.92,20.07-47.47,4.4c-25.81-23.06-57.08-29.59-90.51-29.33
			c-9.77-3.98-16.23-9.72-11.45-21.46c0.11-3.86,0.23-7.71,0.34-11.57c25.08-19.73,50.12-6.78,75.17,0.08
			C902.88,255.5,934.69,265.64,953.54,292.32z"/>
		<path class="st14" d="M6.17,567.34c41.67,3.47,82.24,0.95,119.12-21.76c22.6,23.17,4.66,34.1-13.36,45.73
			c-27.08,17.48-56.74,23.6-88.46,21.98C12.45,599.95,8.97,583.77,6.17,567.34z"/>
		<path class="st14" d="M387.2,234.63c-6.35-16.92-12.7-33.84-19.04-50.76c-0.12-17.03,8.89-33.44,3.4-50.83
			c3.63-14.76,11.48-35.49,23.32-34.22c19.78,2.13,6.27,23.68,9.41,36.42c8.83,35.86,17.01,71.88,25.45,107.82
			c-7.65,4.4-15.3,8.81-22.95,13.22C395.76,253.14,399.91,236.25,387.2,234.63z"/>
		<path class="st13" d="M1025.32,443.71c11.83-11.34,23.66-22.68,35.48-34.03c6.59,3.29,12.92,7.44,19.85,9.73
			c15.51,5.11,40.55,4.27,42.35,20.37c2.43,21.8-19.83,32.75-39.39,40.35c-20.19-7.19-43.06-8.13-59.03-25.22
			C1021.42,450.95,1021.67,447.22,1025.32,443.71z"/>
		<path class="st12" d="M759.91,634.23c56.18-20.83,114.19-29.66,174.06-26.49c0.03,0.07-0.08,1.6-0.06,1.6
			c-35.8,15.94-71.62,31.88-107.44,47.83C801.48,657.63,777.09,656.37,759.91,634.23z"/>
		<path class="st4" d="M492.56,1112.64c26.3-63.29,72.6-24.26,111.74-21.82c-27.07,27.23-64.23,23.46-97.48,31.74
			C501.18,1120.54,494.56,1119.92,492.56,1112.64z"/>
		<path class="st4" d="M804.31,890.21c24.64-53.29,55.51-69.99,92.03-49.75C871.62,868.1,844.03,890.38,804.31,890.21z"/>
		<path class="st5" d="M302.68,210.96c28.28,30.51-8.5,52.59-10.25,79.21c-11.11,8.75-22.39,8.49-33.82,0.64
			c-2.18-1.11-4.16-2.5-5.92-4.17C249,247.97,276.28,229.76,302.68,210.96z"/>
		<path class="st15" d="M113.8,721.42c14.21,1.39,28.43,2.79,42.64,4.18c15.53,9.33,12.07,23.08,8.59,36.83
			c-0.55,11.59-4.78,21.32-14.41,28.3c-12.94,15.47-21.55,9.41-25.3-6.47C120.41,763.56,117.54,742.38,113.8,721.42z"/>
		<path class="st10" d="M181.51,991.14c-11.02,3.79-22.04,7.59-33.06,11.38c-29.34,14.95-58.42,15.65-87.2-1.53
			c-2-16.73-5.56-33.66,6.02-48.71c18.22,12.04,42.68,10.33,58.89,26.78c7.03-0.09,14.06-0.18,21.1-0.28
			c6.82-5.64,14.45-7.39,22.98-4.77C179.44,976.14,184.78,980.81,181.51,991.14z"/>
		<path class="st12" d="M61.26,1001c29.06,0.5,58.13,1.01,87.19,1.52c-7.03,41.18-57.99,3.95-68.74,38.53
			C67.95,1030.29,61.48,1017.09,61.26,1001z"/>
		<path class="st16" d="M126.17,979.06c-22.97-1.57-52.15,10.53-58.89-26.77c-0.2-3.13,1.13-5.33,3.99-6.6
			C96.04,946.16,122.61,943.68,126.17,979.06z"/>
		<path class="st3" d="M371.56,133.05c18.25,18.24,15.27,35.05-3.41,50.82c-5.2-3.15-10.41-6.31-15.64-9.49
			C358.84,160.59,365.2,146.82,371.56,133.05z"/>
		<path class="st17" d="M1081.72,389.37c-1.57-10.83,2.79-19.21,10.79-26.09c5.97,3.1,17.44,7.8,17.07,9.09
			C1105.71,385.75,1094.14,388.66,1081.72,389.37z"/>
		<path class="st5" d="M319.11,186c6.88,3.31,14.61,8.92,7.92,15.71c-5.58,5.66-16.09,6.46-24.42,9.41
			C304.27,200.23,309.56,191.72,319.11,186z"/>
		<path class="st18" d="M150.61,790.72c3.05-7.12,6.09-14.24,9.14-21.36c3.01-6.26,5.88-6.52,8.58,0.2
			c2.82,13.13,4.05,25.9-8.1,35.65C157.02,800.39,153.82,795.55,150.61,790.72z"/>
		<path class="st4" d="M492.56,1112.64c4.75,3.31,9.49,6.62,14.25,9.92c-13.26-0.07-26.53-0.14-39.83-0.21
			c1.76-2.86,3.09-5.9,3.97-9.14C478.17,1113.02,485.37,1112.83,492.56,1112.64z"/>
		<path class="st13" d="M783.67,26.3c2.77-5.13,5.53-10.27,8.3-15.41C789.2,16.03,786.43,21.16,783.67,26.3z"/>
		<path class="st7" d="M8.4,475.39c1.88,4.88,3.75,9.75,5.63,14.63c-2.79,0-5.57,0.12-8.34,0.36C6.6,485.38,7.5,480.38,8.4,475.39z"
			/>
		<path class="st17" d="M1069.3,398.47c4.38-3.09,8.75-6.18,13.13-9.27C1078.05,392.29,1073.67,395.38,1069.3,398.47z"/>
		<path class="st7" d="M1103.51,256.93c-1.28-2.82-2.91-5.56-3.61-8.52c-0.19-0.79,2.45-2.25,3.78-3.4
			C1103.63,248.99,1103.57,252.96,1103.51,256.93z"/>
		<path class="st14" d="M314.84,612.5c-18.39-0.27-36.77-0.54-55.16-0.81c-7.96-6.74-15.19-14.31-23.28-20.91
			c-10.36-7.13-12.05-14.82-1.49-23.3c16.22-13.75,34.56-5.41,52.41-6.13c48.46-1.95,92.33-19.94,133.48-44.92
			c55.31-33.58,111.94-43.75,171.07-9.64c16.77,25.83-4.18,35.08-20.62,45.8c-24.59,16.04-54.35,19.54-80.19,32.54
			c-16.76,7.15-33.43,14.62-49.66,23c-13.58,6.21-27.04,13.21-42.82,9.69c-9.25-2.37-18.26-6.08-28.09-5.71
			c-7.42,0.08-14.83,0.16-22.25,0.25C337.1,612.25,325.97,612.23,314.84,612.5z"/>
		<path class="st19" d="M443.86,735.65c19.02-8.5,38.99-11.22,59.64-9.84c14.08,28.25,34.74,31.34,60.35,15.75
			c24.64,4.76,39.04,21.32,49.42,42.62c6.97,22.92,7.31,46.8,9.37,70.34c1.99,22.67-6.28,39.37-31.54,42.63
			c-31.11-3.73-36.45-45.18-68.87-47.02c-21.01-3.06-41.57,3.69-62.51,2.75c-21.44-5.62-31.42-22.82-41.08-40.44
			c-2.23-5.51-3.5-11.23-4.07-17.14C416.08,771.37,416.64,746.94,443.86,735.65z"/>
		<path class="st4" d="M725.94,613.13c4,6.98,8,13.97,12,20.95c12.33,39.84,46.31,67.45,55.65,111c9.88,46.1,3.19,71.6-45.87,77.89
			c-0.12-43.24,6.74-87.76-26.41-124.28c-9.97-10.99-17.02-25.15-35.52-19.45c-26.01,10.61-32,43.23-58.49,53.23
			c-7.37,2.63-14.98,3.94-22.73,4.74c-15.75,2.68-31.75,2.26-47.57,4.24c-14.65,3.33-27.85,3.62-31.95-15.18
			c4.11-12.01,8.23-24.01,12.34-36.02c67.68-1.72,106.2-56.44,158.07-87.01C706.91,602.61,717.31,605.17,725.94,613.13z"/>
		<path class="st10" d="M593.56,513.12c-71.71-23.73-133.72-7.46-197.13,33.45c-46.64,30.09-103.83,43.78-161.51,20.91
			c-0.12-6.81-0.21-13.62-0.3-20.42c6.58-10.45,17.46-14.49,28.4-14.89c77.33-2.77,139.75-42.86,203.33-80.16
			c10.35-5.2,21.3-6.33,32.62-4.87c20.65,6.15,41.49,6.74,62.54,1.66c22.1-0.91,37.1,10.3,48.22,28.2
			c4.73,11.18,4.97,22.23-1.15,33.04C604.41,515.05,599.39,516.07,593.56,513.12z"/>
		<path class="st1" d="M693.17,612.34c-39.57,31.26-63.66,84.7-124.93,85.2c-11.73,0.09-20.89-3.54-30.85-7.27
			c-22.39-21.11-52.02-26.26-79.93-31.02c-27.12-4.63-47.36-16.4-64.86-35.82c-2.72-2.6-3.62-5.2-2.7-7.79
			c0.92-2.58,1.83-3.88,2.75-3.88c14.85-3.53,29.69-7.05,44.54-10.58c32.66,1.21,65.89,4.98,95.74,16.28
			c46.55,17.62,84.44,10.29,118.82-23.95C668.93,592.39,689.34,584.23,693.17,612.34z"/>
		<path class="st20" d="M383.21,859.01c-20.13-13.34-43.4-13.47-66.16-15.76c-13.29-4.58-27.08-2.42-40.7-3.04
			c-8.33-0.39-17.17,0.22-19.94-10.62c10.53-27.16,22.38-53.56,23.18-83.89c0.39-14.51-0.18-35.25,24.91-34.3
			c23.46,9.96,45.72,23.43,72.14,24.74c29.38,20.25,14.45,63.78,44.11,83.97C424.86,849.17,415.4,865.09,383.21,859.01z"/>
		<path class="st18" d="M304.5,711.4c-18.58,15.43-12.41,36.32-10.69,55.2c2.72,29.93-6.19,52.42-33.89,66.03
			c-7.47,11.19-18.89,6.56-28.98,7.25c-13.32-6.68-20.5-21.69-35.44-26.2c1.86-15.24,3.72-30.48,5.59-45.73
			c1.53-1.96,3.07-3.91,4.55-5.92c30.14-10.17,19.22-34.22,18.47-54.81c0.07-2.48,0.18-4.96,0.29-7.44
			c1.02-12.5,2.98-25.02,2.84-37.51c-0.24-22.03,8.59-20.63,20.91-8.5C267.32,672.6,285.76,692.15,304.5,711.4z"/>
		<path class="st16" d="M470.93,456.87c-65.53,64.71-145.87,90.59-236.28,90.19c-17.02-16.57,3.73-30.49,3.2-45.91
			c3.76-4.72,8.48-8.1,14.12-10.21c51.94-3.96,103.58-9.29,150.05-36.23C425.18,449.32,448.64,435.7,470.93,456.87z"/>
		<path class="st14" d="M247.59,501.05c-3.25-0.01-6.5,0.02-9.74,0.09c-41.9-3.05-68.88,45.25-113.48,32.95
			c-22.37-26.28-28-40.36,17.74-46.07c31.73-3.97,71.92,4.18,94.73-31.5c2.14-1.44,4.27-2.88,6.41-4.33
			c12.52-1.72,19.45,4.2,22.05,16.09C266.08,482.8,257.55,492.31,247.59,501.05z"/>
		<path class="st15" d="M415.29,811.97c-16.99,13.15-26.59,4.37-30-12.2c-4.31-20.92-5.88-42.41-8.64-63.64
			c22.39-0.16,44.78-0.32,67.19-0.49c-6.48,20.85-12.96,41.69-19.45,62.53c-0.92,3.91-2.1,7.74-3.52,11.5
			C419.02,810.46,417.15,811.22,415.29,811.97z"/>
		<path class="st15" d="M525.05,726.28c11.42,2.68,22.85,5.35,34.27,8.03c3.49,2.35,4.75,4.82,3.79,7.43
			c-0.98,2.67-2.02,4.01-3.12,4.01c-11.95,10.27-15.36,36.26-33.79,31.23c-22.44-6.14-19.69-31.82-22.72-51.2
			C510.68,725.97,517.86,726.13,525.05,726.28z"/>
		<path class="st18" d="M181.45,723.4c13.11-10.1,25.4-21.68,42.99-23.59c-0.02-0.03,1.42,1.61,1.42,1.61
			c8.39,23.6,1.47,42.26-18.26,56.81c-5.02,2.69-10.22,2.95-15.57,1.11C184.15,748.64,172.57,739.03,181.45,723.4z"/>
		<path class="st7" d="M181.45,723.4c3.97,10.82,7.93,21.65,11.9,32.47c-3.33,5.23-7.28,6.03-11.94,1.66
			c-4.36,4.01-8.72,8.02-13.08,12.03c0,0-4.29,0.01-4.29,0.01s-4.29-0.22-4.29-0.21c-1.09-14.59-2.18-29.19-3.29-43.77
			C164.77,724.87,173.11,724.13,181.45,723.4z"/>
		<path class="st12" d="M314.84,612.5c11.07-14.55,22.2-14.37,33.39-0.14C337.16,626.6,326.03,626.51,314.84,612.5z"/>
		<path class="st12" d="M236.4,590.78c14.56-0.59,22.12,6.61,23.28,20.92C245.02,612.4,237.61,605.05,236.4,590.78z"/>
		<path class="st12" d="M392.65,611.76c-0.02,3.89-0.03,7.78-0.05,11.67c-9.18-0.25-17.49-2.19-22.13-11.31
			C377.7,601.13,385.09,600.83,392.65,611.76z"/>
		<path class="st21" d="M681.67,668.95c14.45-19.56,30.62-13.16,39.33,2.57c26.02,46.97,70.73,91.8,26.71,151.46
			c-3.38,0.18-6.75,0.4-10.11,0.65c-47.96,24.72-83.46,64.93-123.55,99.44c-24.98,8.83-58.81-18.15-76.8,18.98
			c-29.22,13.62-38.7-6.16-47.07-27.82c5.37-10.69,14.94-16.17,25.42-20.54c21.23-6.49,42.65-7.36,64.24-1.7
			c25.1-2.38,35.62-14.37,28.61-40.3c-6.35-23.48-3.45-47.24,1.59-70.71c2.07-3.2,4.88-6.81,8.06-6.53
			c52.91,4.59,60.62-3.67,58.94-64.11C676.65,696.32,669.96,681.62,681.67,668.95z"/>
		<path class="st16" d="M492.2,912.86c15.02,9.74,30.04,19.49,45.07,29.21c0.4,4.73,0.8,9.48,1.2,14.23
			c-81.71,71.21-179.8,60.55-276.8,55.49c-9.39-0.39-17.61-3.87-25.03-9.46c-6.21-1.19-12.42-2.37-18.64-3.56
			c-16.21-11.07-14.99-24.69-5.75-39.47c21.68-5.44,38.84,7.08,57.78,13.73c84.25,29.57,134.77-9.84,131.92-102.11
			c26.44-14.39,40.45,12.8,61.05,18.07C474.11,895.23,485.96,900.65,492.2,912.86z"/>
		<path class="st10" d="M259.17,1001.26c22.77-17.12,46.79-1.13,67.71,2.15c77.91,12.22,141.79-28.9,211.57-47.1
			c0.01,0-0.78,0.12-0.78,0.12c3.31,4.59,6.92,4.85,10.84,0.77c7.52,3.67,15.04,7.34,22.57,11
			c-44.02,39.93-99.24,48.71-155.08,56.07c-22.65,2.98-47.63-8.82-67.73,10.52c-18-0.54-36-1.07-54-1.61
			C285.49,1019.32,254.12,1030.31,259.17,1001.26z"/>
		<path class="st4" d="M614.06,923.07c27.87-49.68,59.87-94.24,123.55-99.44C709.51,873.03,670.79,909.23,614.06,923.07z"/>
		<path class="st16" d="M548.52,957.2c-4.17,7.72-7.78,7.37-10.84-0.76C541.33,956.12,544.94,956.37,548.52,957.2z"/>
		<path class="st13" d="M804.12,245.92c3.82,7.15,7.63,14.31,11.45,21.46c3.84,22.74,7.69,45.48,11.53,68.23
			c3.56,12.59-5.19,13.87-13.85,15.17c-3.92,0.53-7.9,1.09-11.78,1.71c-3.7-0.46-7.24-1.68-10.44-3.55c-8.5,1.26,1.11,7.2-2.49,9.76
			c-5.38,13.63-15.64,16.9-28.93,14.04c-12.51-4.94-21.94-14.06-31.57-22.91c-23.17-27.17-51.58-38.51-87.76-33.2
			c-13.14,1.93-34.66,12.79-36.18-15.91c22.67-18.63,49.64-20.65,77.58-22.64c26.03-1.85,59.22,15.38,71.66-30.13
			C757.41,233,786.57,249.38,804.12,245.92z"/>
		<path class="st3" d="M247.59,501.05c4.11-10.91,8.23-21.83,12.34-32.74c3.94-11.51,11.99-18.61,23.46-22.06
			c62.07,5.29,95.26-32.59,121.24-81.24c9.4,0.69,18.79,1.37,28.16,2.05c4.45,0.96,8.92,1.94,13.39,2.91
			c16.62-1.76,27.99,4.8,33.36,20.96c4.8,30.45-9.21,48.07-37.84,56.37c-13.95,4.04-27.6,9.21-38.02,20.16
			C356.51,501.19,302.84,504.8,247.59,501.05z"/>
		<path class="st17" d="M471.65,387.6c-8.48-5.88-16.96-11.75-25.46-17.63c37.65-15.74,75.3-31.47,112.96-47.2
			c4.03-3.41,8.04-6.83,11.62-10.72l0.04-0.03c3.59-3.65,7.35-7.1,11.3-10.36c7.32-0.31,14.65-0.61,21.97-0.92
			c10.7,15.05,22.56,4.08,34.21,1.71c41.37-8.4,75.35,2.75,99.79,38.46c0.59,39.21-14.11,51.03-47.71,25.7
			c-13.25-9.98-26.38-18.44-43.71-17.13c-36.8-1.8-65.9,18.85-97.1,33.21c-18.15,8.35-35.61,18.79-56.74,17.58
			C483.96,399.04,476.68,395.18,471.65,387.6z"/>
		<path class="st13" d="M570.77,312.04c-3.87,3.58-7.74,7.15-11.62,10.72C563.03,319.19,566.9,315.62,570.77,312.04z"/>
		<path class="st5" d="M550.91,244.68c-2.06-3.02-3.04-6.35-2.95-9.99c2.03,2.06,4.21,4.01,5.9,6.32
			C554.1,241.34,551.95,243.41,550.91,244.68z"/>
		<path class="st13" d="M582.11,301.65c-3.77,3.45-7.54,6.91-11.3,10.36C574.58,308.55,578.35,305.1,582.11,301.65z"/>
		<path class="st15" d="M459.67,898.73c-19.23-9.28-38.47-18.56-57.71-27.83c-6.27-3.96-12.53-7.93-18.77-11.9
			c31.53-1.47,31.41-24.53,32.11-47.02c0,0-0.9,0.96-0.9,0.96c3.41-3.65,7.35-4.2,11.77-2.06c19.11,6.2,17.72,25.86,25.82,39.3
			C484.98,861.54,469.94,880.51,459.67,898.73z"/>
		<path class="st12" d="M212.24,959.3c1.9,13.17,3.8,26.35,5.72,39.49c-13.23,2.67-26.59,5.85-36.46-7.65
			c-3.57-3.91-7.14-7.82-10.71-11.74c-3.24-2.15-4.29-4.26-3.17-6.34c1.11-2.06,2.22-3.09,3.33-3.09
			C184.72,966.41,198.48,962.85,212.24,959.3z"/>
		<path class="st14" d="M228.51,831.48c10.47,0.38,20.94,0.77,31.41,1.15c7.01,1.46,14.02,2.92,21.03,4.38
			c3.98,1.78,5.37,3.68,4.18,5.72c-1.22,2.09-2.46,3.15-3.74,3.15c-26.82-0.77-54.22,5.32-80.05-6.89
			C208.01,827.86,217.76,827.85,228.51,831.48z"/>
		<path class="st4" d="M228.51,831.48c-9.06,2.49-18.11,4.98-27.17,7.5c-12.08-6.1-14.59-14.41-5.82-25.3
			C213,807.6,232.52,797.74,228.51,831.48z"/>
		<path class="st16" d="M170.95,969.97c0.21,3.15,0.15,6.3-0.16,9.44c-7.83-0.2-15.67-0.4-23.52-0.61
			C150.68,963.81,154.97,951.17,170.95,969.97z"/>
		<path class="st4" d="M281.39,845.89c-0.24-2.95-0.38-5.91-0.44-8.87c12.86-2.73,25.51-4.28,36.09,6.23
			C305.16,844.13,293.28,845.01,281.39,845.89z"/>
		<path class="st10" d="M181.41,757.53c3.98-0.55,7.97-1.1,11.95-1.66c3.29,0.62,6.6,1.01,9.95,1.18c3.06,2.18,4.55,4.76,4.48,7.74
			c-0.08,3.18-0.5,4.77-1.28,4.77l-3.06,0.38c0,0-2.34-2-2.34-1.99C192.48,768.36,185.61,765.48,181.41,757.53z"/>
		<path class="st12" d="M259.17,1001.26c7.53,15.22,34.02,9.62,35.08,31.93c-25.74,1.92-49.62,0.35-57.62-30.87
			C244.14,1001.97,251.65,1001.62,259.17,1001.26z"/>
		<path class="st22" d="M761.19,366.05c17.61,2.65,19.04-9.71,20.47-22.07c4.43-3.66,8.87-3.87,13.35-0.08l-1.16,0.33
			c2.56,3.47,5.87,5.99,9.82,7.69c0.97,1.88,1.93,3.77,2.89,5.67c6.8,41.33,13.6,82.67,20.4,124c-6.42,5.77-14.16,7.12-22.42,6.78
			c-15.66-2.17-30.48-6.72-43.57-15.94c-6.16-25.35-31.66-43.13-28.6-72.25C738.64,385.99,746.25,372.92,761.19,366.05z"/>
		<path class="st16" d="M896.45,529.63c-39.46,41.75-111.33,38.75-137.1-5.72c29.35-26.33,67.63-10.24,100.24-21.08
			C875.76,506.42,886.95,516.87,896.45,529.63z"/>
		<path class="st23" d="M893.95,400.26c-0.14,7.13-0.28,14.26-0.42,21.37c-3.82,15.75,10.15,42.06-18.19,43.55
			c-24.9,1.31-32.35-23.79-35.1-42.52c-4.69-31.95,20.33-33.29,43.42-33.67C887.08,392.74,890.51,396.5,893.95,400.26z"/>
		<path class="st21" d="M1025.32,443.71c-0.23,3.74-0.46,7.48-0.71,11.21c-71.36,36.31-80.08,34.89-110.28-17.93
			C952.21,424.61,987.62,453.08,1025.32,443.71z"/>
		<path class="st9" d="M859.59,502.84c-26.94,37.77-67.01,13.14-100.23,21.07c-3.46-0.07-6.92-0.18-10.38-0.32
			c-2.16-40.7,39.37-25.97,55.36-43.63c7.53,0.54,15.06,1.08,22.6,1.62C837.83,488.67,848.71,495.75,859.59,502.84z"/>
		<path class="st23" d="M806.56,345.55c6.84-3.32,13.68-6.65,20.53-9.96c17.44,3.02,34.87,6.03,52.29,9.04
			c-0.23,7.99-0.46,15.98-0.68,23.97c-23.48-7.44-46.97-14.88-72.17-11.04c0.01,0.02-2.79-2.51-2.79-2.51
			C801.19,350.86,801.96,347.64,806.56,345.55z"/>
		<path class="st11" d="M404.63,365c-12.89,77.57-33.12,92.32-125.1,91.22c-9.49-14.04-3.01-26.45,3.88-38.85
			c30.3-24.54,49.85-66.56,98.72-61.24C389.63,359.09,397.13,362.05,404.63,365z"/>
		<path class="st9" d="M382.13,356.14c-36.67,13.48-60.09,44.63-89.82,67.37c-8.32,6.44-17.82,8.99-28.21,8.67
			c-16.17-4.39-34.75,4.06-49.37-8.96c-0.01-7.42-0.01-14.84-0.02-22.27c3.65-0.07,7.3-0.11,10.95-0.13
			c6.02-6.65,13.29-10.73,22.47-10.8c3.69-0.04,7.37-0.09,11.06-0.15c12.87-9.21,15.46-28.92,33.53-32.83
			c12.73-7.74,10.98-20.27,10.7-32.31c4.09-10.05,12.86-12.26,22.31-13.34c8.02,2.29,16.04,4.58,24.05,6.87
			C360.55,330.89,371.34,343.51,382.13,356.14z"/>
		<path class="st5" d="M349.1,312.57c2.52-18.21-8.42-37.86,5.89-54.81c1.48,17.84,2.96,35.68,4.44,53.52c0,0-4.98,2.08-4.98,2.08
			L349.1,312.57z"/>
		<path class="st3" d="M387.2,234.63c13.9,0.57,18.07,9.91,19.57,21.67c-4.19,2.68-8.4,5.37-12.61,8.06
			c-3.63-1.43-5.42-3.52-5.39-6.27c0.04-3.09,0.51-4.63,1.42-4.63C389.19,247.18,388.19,240.91,387.2,234.63z"/>
		<path class="st12" d="M390.18,253.46c1.32,3.64,2.65,7.28,3.97,10.91c-2.92,2.1-6.16,2.85-9.7,2.22
			C386.37,262.21,388.28,257.83,390.18,253.46z"/>
		<path class="st16" d="M214.72,423.21c14.87,3.99,29.65-19.84,44.57-0.15c7.39,21.11-15.58,21.87-22.43,33.43
			c0,0-0.03,0.03-0.03,0.03c-30.81,1.06-63.37-3.83-92.01,4.6c-42.12,12.4-42.61-9.11-41.33-37.99
			C140.59,405.08,177.64,427.95,214.72,423.21z"/>
		<path class="st7" d="M293.36,321.51c-15.07,2.01-30.21,4.86-44.35-3.84c3.68-5.45,7.37-10.89,11.05-16.34
			c10.91-8.57,22.13-7.6,33.53-1.07l-0.4-0.36c3.08,3,5.04,6.6,5.87,10.82C298.47,315.02,296.63,318.64,293.36,321.51z"/>
		<path class="st3" d="M292.71,357.04c-8.31,13.87-11.76,32.7-33.53,32.83C266.83,375.32,257.77,343.72,292.71,357.04z"/>
		<path class="st3" d="M248.13,390.02c-4.94,8.91-13.25,10.8-22.47,10.8C228.15,386.82,230.68,372.9,248.13,390.02z"/>
		<path class="st10" d="M293.58,300.26c-11.18,0.35-22.37,0.71-33.54,1.06c-0.56-3.49-1.03-6.99-1.43-10.5
			c11.27-0.21,22.54-0.43,33.81-0.64C294.62,293.33,295,296.69,293.58,300.26z"/>
		<path class="st18" d="M293.36,321.51c-0.64-3.09-0.88-6.21-0.73-9.35c11.29-7.97,22.56-7.61,33.82,0.08c0,0-0.74-0.84-0.74-0.84
			c0.04,16.94-13.53,11.13-22.31,13.34C300.37,322.68,297.02,321.6,293.36,321.51z"/>
		<path class="st3" d="M804.35,479.96c-2.08,15.48-4.97,29.9-26.52,24.7c-16.1-3.88-23.05,6.78-28.85,18.93c0,0,0,0.28,0,0.28
			c-4.04,3.24-7.74,6.83-11.1,10.77c-11.19,3.52-22.37,7.04-33.56,10.56c-11.99-0.31-23.57,1.48-34.52,6.75
			c-20.62,3.12-32.44-10.85-45.24-23.16c-3.48-4.33-6.01-9.09-7.81-14.33c0.17-16.43-11.84-34.18,5.33-48.78
			c46.15-19.78,92.22-22.46,138.21,0.41C774.97,470.71,789.66,475.33,804.35,479.96z"/>
		<path class="st14" d="M625.44,526.16c20.14-4.97,26.46,21.82,45.34,19.73c6.34,1.16,9.89,4.98,10.81,11.32
			c0.33,10.74,0.66,21.48,0.99,32.23c-9.35,9.69-21.52,4.74-32.46,6.24c-6,0.88-11.33-0.62-16.02-4.48
			C622.62,570.68,613.49,549.82,625.44,526.16z"/>
		<path class="st12" d="M648.65,590.08c11.31-0.21,22.61-0.42,33.92-0.64c10.92,0.26,21.83,0.52,32.74,0.79
			c3.55,7.63,7.09,15.26,10.63,22.89c-10.93-0.26-21.85-0.52-32.78-0.79c-11.71-16.21-29.17-9.48-44.52-11.17
			c-2.85-2.47-3.79-4.93-2.84-7.4C646.75,591.31,647.69,590.08,648.65,590.08z"/>
		<path class="st16" d="M681.59,557.21c-3.6-3.78-7.2-7.55-10.8-11.32c10.88-14.64,22.07-14.44,33.53-0.69
			C699.58,554.57,690.86,556.4,681.59,557.21z"/>
		<path class="st16" d="M737.88,534.64c3.7-3.59,7.4-7.19,11.1-10.78C745.28,527.45,741.58,531.05,737.88,534.64z"/>
		<path class="st10" d="M326.45,312.23c-11.27-0.03-22.55-0.05-33.82-0.08c0.18-4.08,0.37-8.16,0.55-12.25
			C305.46,300.8,320.36,294.62,326.45,312.23z"/>
		<path class="st5" d="M336.4,273.03c-1.63,2.86-3.19,5.6-4.74,8.34c-1.6-2.7-4.42-5.38-4.47-8.12c-0.06-2.73,2.65-5.52,4.14-8.28
			C333,267.62,334.67,270.27,336.4,273.03z"/>
		<path class="st7" d="M648.65,590.08c-0.01,3.7-0.01,7.4,0,11.09c-14.17,44.32-47.84,57.8-85.17,38.71
			c-40.67-20.8-92.69,0.54-126.28-38.7c11.29-14.54,26.96-20.29,44.55-22.18c52.64-4.76,104.57,0.73,156.19,10.75
			C641.5,589.79,645.08,589.9,648.65,590.08z"/>
		<path class="st12" d="M637.93,589.75c-53.71,20.36-104.89,3.93-156.19-10.75c23.82-28.55,64.39-21.27,92.09-43
			c8.79-6.89,18.17-10.73,19.72-22.89c3.41-0.03,6.81-0.13,10.22-0.28c13.25-8.42,16.19,4.54,22.36,10.78c0,0-0.68,2.48-0.69,2.52
			C631.27,547.03,640.63,567.21,637.93,589.75z"/>
		<path class="st24" d="M681.67,668.95c6.13,26.56,17.3,52.66,8.13,80.69c-6.83,20.88-8.07,50.75-22.55,60.24
			c-21.05,13.81-20.05-28.71-41.12-30.26c-5.32-0.39-10.77,0.85-16.12,1.35c-16.65-11.73-33.34-23.47-50.03-35.21
			c-0.22-3.81-0.45-7.63-0.67-11.44c13.35-3.25,26.71-6.49,40.06-9.73c9.39,2.97,18.8,7.75,28.05-0.37
			C644.67,704.98,652.62,676.61,681.67,668.95z"/>
		<path class="st20" d="M459.67,898.73c-2.56-16.19-5.12-32.37-7.68-48.56c24.1-15.21,50.44-17.5,77.87-13.48
			c12.33,23.36,2.54,43.29-9.77,62.82c-9.29,4.45-18.59,8.9-27.88,13.35C481.36,908.15,470.51,903.44,459.67,898.73z"/>
		<path class="st25" d="M520.09,899.52c-8.21-22.72,6.78-41.84,9.76-62.82c36.74,0.31,37.95,32.72,50.01,55.31
			C561.84,909.69,540.23,898.76,520.09,899.52z"/>
		<path class="st20" d="M426.16,810.88c-3.92,0.69-7.85,1.37-11.77,2.06c3.34-4.91,6.68-9.83,10.01-14.75
			C424.98,802.41,425.57,806.64,426.16,810.88z"/>
		<path class="st7" d="M627.42,724.22c-9.09,18.61-18.45,16.57-28.02,0.37C608.72,724.46,618.07,724.34,627.42,724.22z"/>
		<path class="st8" d="M760.28,466.08c-48.42,3.91-98.56-11.12-145.15,13.09c-4.11,5.25-7.86,5-11.25-0.74
			c-13.99-8.27-27.97-16.55-41.96-24.82c-16.36-0.5-26.09-8.59-28.6-24.97c1.25-5.86,4.54-10.18,9.83-13
			c15.86-7.1,32.78-6.6,49.59-7c16.21-0.08,32.45,0.42,48.64-1.17c14.42-1,24.45-12.26,37.64-16.26c20.73-3.48,42-9.12,56.1,13.91
			C739.13,427.26,785.46,431.92,760.28,466.08z"/>
		<path class="st9" d="M538.23,423.69c-1.38,3.29-1.58,6.65-0.62,10.08c2.25,27.33-19.27,20.09-33.7,23.16
			c-11-0.03-21.99-0.05-32.98-0.07c-23.69-4.6-44.76,7.46-67.24,10.59c0.37-19.99,16.92-21.52,30.34-26.23
			c25.47-8.95,39.75-25.46,37.62-53.62c7.21,1.77,14.43,3.55,21.64,5.32c8.08,3.92,17.41,1.25,25.59,4.81
			C528.47,404.04,536.54,411.5,538.23,423.69z"/>
		<path class="st16" d="M503.91,456.94c11.23-7.72,22.47-15.44,33.7-23.16c8.1,6.62,16.2,13.23,24.3,19.85
			C543.65,473.32,524.26,473.43,503.91,456.94z"/>
		<path class="st16" d="M603.89,478.43c3.75,0.25,7.5,0.49,11.25,0.74c7.32,13.91,13.51,28.09,11,44.43
			c-7.45-3.6-14.9-7.2-22.36-10.79C603.81,501.36,603.85,489.9,603.89,478.43z"/>
		<path class="st21" d="M206.5,769.56c-1.06-4.17-2.13-8.33-3.2-12.5c7.52-18.55,15.04-37.09,22.56-55.64
			C243.93,731.1,266.19,761.97,206.5,769.56z"/>
		<path class="st10" d="M236.87,456.49c-1.75-17.33,15.79-21.72,22.43-33.43c11.01,0.14,22.01,0.29,33.01,0.44
			c-4.25,10.91-8.49,21.82-12.75,32.73c-6.56,4.02-13.1,8.05-19.63,12.08C254.86,459.28,246.36,456.9,236.87,456.49z"/>
		<path class="st26" d="M735.12,405.13c-20.94-1.22-41.88-2.44-62.81-3.65c-6.74-23.21-19.09-44.05-28.14-66.28
			c19.03-3.27,37.56-0.04,49.44,15.04c22.77,28.91,33.46,11.77,44.47-9.32c7.69,8.36,15.39,16.74,23.09,25.13
			C760.42,384.36,749.17,395.68,735.12,405.13z"/>
		<path class="st8" d="M795,343.9c-4.45,0.04-8.89,0.08-13.34,0.1c1.42-4.27,2.45-11.97,4.34-12.19
			C794.15,330.86,795.43,337.2,795,343.9z"/>
		<path class="st8" d="M806.56,345.55c-0.83,3.21-1.76,6.39-2.81,9.52c-3.3-3.63-6.6-7.24-9.91-10.85
			C798.08,344.67,802.32,345.11,806.56,345.55z"/>
		<path class="st15" d="M644.17,335.2c31.21,12.82,38.22,35.91,28.14,66.27c-4.54,11.75-6.82,26.14-25.28,21.59
			c-15.56-23.92-41.65-0.92-59.8-13.33c-22.94-10.36-49.4,9.51-71.46-8.28c-7.49-2.84-14.99-5.69-22.47-8.53
			C541.97,369.46,589.33,342.57,644.17,335.2z"/>
		<path class="st27" d="M515.76,401.45c25.87,3.88,51.69-26.43,77.6-0.12c5.86,7.09,6.71,13.57-2.28,18.86
			c-17.62,1.17-35.24,2.34-52.86,3.5C530.74,416.28,523.25,408.86,515.76,401.45z"/>
		<path class="st6" d="M591.08,420.19c0.76-6.29,1.52-12.57,2.28-18.86c6.27,2.58,17.14,8.6,18.15,7.25
			c31.35-41.86,30.49-6.62,35.51,14.48C628.38,422.1,609.73,421.15,591.08,420.19z"/>
	</g>
</g>
</svg>
