<?xml version="1.0" encoding="utf-8"?>
<!-- Generator: Adobe Illustrator 23.1.0, SVG Export Plug-In . SVG Version: 6.00 Build 0)  -->
<svg version="1.1" id="Calque_1" xmlns="http://www.w3.org/2000/svg" xmlns:xlink="http://www.w3.org/1999/xlink" x="0px" y="0px"
	 viewBox="0 0 1125 1450.1" style="enable-background:new 0 0 1125 1450.1;" xml:space="preserve">
<style type="text/css">
	.st0{fill:#D9AA79;}
	.st1{fill:#FDFBDA;}
	.st2{fill:#E8C395;}
	.st3{fill:#D8AC80;}
	.st4{fill:#DDB7A9;}
	.st5{fill:#B87A59;}
	.st6{fill:#C1B2B5;}
	.st7{fill:#FDFAEE;}
	.st8{fill:#FEF474;}
	.st9{fill:#F9DCB2;}
	.st10{fill:#70A597;}
	.st11{fill:#A48E94;}
	.st12{fill:#E4D7D0;}
	.st13{fill:#C3926C;}
	.st14{fill:#FBEBC8;}
	.st15{fill:#49CBE6;}
	.st16{fill:#A25D3E;}
	.st17{fill:#ECCBA1;}
	.st18{fill:#ECE9E9;}
	.st19{fill:#BA8E7F;}
	.st20{fill:#D8AFA1;}
	.st21{fill:#747474;}
	.st22{fill:#F1CDC1;}
	.st23{fill:#FDFDFD;}
	.st24{fill:#FC4F50;}
	.st25{fill:#F5D5AA;}
	.st26{fill:#FDF4D8;}
	.st27{fill:#585858;}
	.st28{fill:#7A4B3D;}
	.st29{fill:#403F3E;}
</style>
<g>
	<g>
		<path class="st0" d="M93.75,1211.83c-26.04-27.65-28.66-64.71-39.95-98.4c-14.06-41.96-28.76-83.66-35.17-127.69
			C29.76,973.92,44.48,967,59.6,966.38c153.99-6.3,253.36-109.05,359.07-201.23c28.72-25.05,47.75-65.76,95.17-62.93
			c9.57,3.51,16.25,10.08,20.41,19.3c1.44,32.84-22.98,50.96-43.58,68.43C430.73,840.8,387.02,904.71,341.4,967.28
			c-35.02,29.42-59.99,71.43-106.9,86.07c-27.5,4.93-44.78,23.48-59.68,45.11c-3.18,4.61-6.78,8.9-10.48,13.06
			c-10.36,10.13-14.99,23.11-17.97,36.95C134.24,1174.1,138.85,1213.71,93.75,1211.83z"/>
		<path class="st1" d="M74.73,574.97c29.57-59.77,73.41-106.99,127.01-145.94c13.65-9.91,30.6-17.25,35.32-36.15
			c13.64-21.99,37.16-28.77,58.87-38.46c30.23-8.39,60.33-17.47,92.05-18.73c18.37-0.51,36.14,1.75,52.32,11.34
			c56.37,43.25,80.79,98.94,65.95,169.88c-4.68,23.88-10.07,47.61-19.06,70.37c-4.81,9.52-11.93,16.84-21.3,21.95
			c-10.03,3.52-19.84,3.09-29.31-1.94c-12.23-11.72-16.56-27.46-21.67-42.8c-4.7-16.46-10.46-35.62-3.35-49.92
			c23.47-47.2-7.87-51.73-40.46-56.98c-8.13-3.97-14.95-9.64-20.87-16.36c-15.59-20.03-30.28-6.85-45.03,1.44
			c-64.6,23.15-105.64,72.42-141.96,127.18c-14.11,21.28-24.37,45.45-3.91,64.72c19.32,18.2,31.7-14.3,49.99-15.51
			c14.63-4.74,29.62-8.11,44.69-11.24c9.38-1.23,18.36-0.04,26.7,4.66c14.9,18.85,28.47,38.71,42.33,58.42
			c-0.86,26.36-15.86,39.51-40.59,43.59c-67.67-25.83-102.2,16.64-133.83,65.14c-5.43,2.97-11.2,4.74-17.37,5.25
			c-22.94-1.08-24.16-17.09-29.26-35.33C85.98,692.24,72.67,634.93,74.73,574.97z"/>
		<path class="st2" d="M517,708.9c-23.95-3.39-35.36,15.16-48.21,29.18c-47.37,51.65-98.98,99.1-155.24,140.14
			c-55.11,40.21-113.94,75.9-178.25,100.83c-5.87,2.28-15.31,7.54-17.41,5.51c-25.38-24.51-48.79-0.53-72.92,1.65
			c-8.7,0.79-17.56-0.26-26.34-0.47C9.38,933.41-8.08,881.83,4.27,827.53c40.73-18.63,63.51,17.95,94.16,30.4
			c40.62,29.47,81.43,16.76,117.39-5.74c81.71-51.14,165.12-100.65,222.59-182.34c29.41-41.79,77.18-64.76,112.29-101.21
			c13.95-9.83,28.46-16.77,45.77-8.59c7.64,7.28,10.49,16.45,10.55,26.68c-0.61,6.38-2.52,12.44-5.39,18.17
			C561.99,630.19,550.67,678.65,517,708.9z"/>
		<path class="st3" d="M1109.17,933.8c24.04,5.74,13.08,24.73,14.72,38.94c-13.24,13.15-29.82,17.14-47.68,17.62
			c-91.26,5.94-177.01-32.35-267.69-33.68c-22.1-0.32-43.15-4.88-62.51,9.13c-12.54,5.35-25.22,6.42-38.05,1.21
			c-5.59-3.18-10.35-7.39-14.36-12.43c-9.41-19.86-26.64-34.13-38.23-52.52c-4.68-12.58-4.5-24.75,3.16-36.25
			c12.48-11.15,28.59-14.77,42.57-8.88c34.9,14.71,70.58-46.03,92.81-42.68c87.19,13.11,105.32-44.46,168.66-60.09
			c9.22-2.52,18.46-2.62,27.73-0.38c27.18,13.47,55.21,25.07,83.59,35.91c5.45,3.1,9.65,7.46,12.83,12.83
			c-0.97,4.25-0.47,10.42-3.13,12.44c-29.17,22.19-22.23,50.91-15.36,79.77c-17.22,18.23-55.77-13.21-55.23,8.75
			c0.75,30.15,38.77,12.43,59.8,18.68C1085,925.8,1098.72,924.75,1109.17,933.8z"/>
		<path class="st2" d="M965.94,761.96c-2.81,16.82-19.7,16.33-29.98,20.96c-24.42,11.01-40.28,24.32-36.42,53.7
			c1.07,8.17,0.34,18.25-3.65,25.05c-7.83,13.35-18.19,26.78-35.93,11.49c-8.27-7.13-16.03-14.9-23.55-22.84
			c-12.03-12.69-22.76-9.16-33.21,1.9c-6,6.35-14.2,11.8-17.43,19.36c-13.23,30.98-37.72,31.1-56.9,13.77
			c-21.07-19.04-42.92-17.7-66.58-17.77c-15.25-1.2-26.87-9.94-38.66-18.45c-4.53-3.84-8.29-8.34-11.61-13.26
			c-3.32-5-6.06-10.29-8.54-15.77c-2.39-5.65-3.89-11.51-4.76-17.58c-0.45-12.79,1.39-24.68,13.12-32.57
			c36.1-9.02,55.49,20.13,78.99,36.95c25.68,18.39,46.46,19.02,69.32-2.42c19.02-17.84,41.6-31.71,60.81-49.05
			c60.72-54.81,60.4-107.04,1.28-175.84c-13.58-20.51-19.81-41.85-7.36-65.26c31.19-19.27,54.63,5.56,80.97,14.17
			c8.06,5.32,12.99,13.09,16.73,21.72c2.59,5.31,4.85,10.84,7.06,16.32c2.61,5.18,4.9,10.56,7.24,15.88
			c11.57,39.79,52.01,61.21,64.22,100.59c0.35,4.3,0.81,8.6,1.37,12.88C941.1,700.83,965.52,736.21,965.94,761.96z"/>
		<path class="st4" d="M701.32,1317.9c-12.23,1.29-24.45,2.58-36.68,3.87c-40.75-10.32-51.27-40.85-52.14-77.85
			c70.98-37.58,89.37-120,145.08-170.72c14.82,3.84,19.71,14.97,21.19,28.64c-3.18,36.82-19.78,70.55-24.77,106.38
			c2.02,4.25-9.72,7.94-0.88,13.06c0.36-4.28,1.79-7.79,4.43-11.15c2.7-4.11,5.49-7.81,8.47-11.68c1.57-2.25,3.13-4.19,4.65-6.39
			c22.25-26.01,32.16-64.08,71.89-72.68c42.98-0.36,77.73,15.89,103.25,50.95c12.72,36.94-6.34,58.83-35.8,75.81
			c-28.34,7.08-52.22,21.36-70.51,44.57c-35.53,27.51-83.1,6.41-119.71,29.78C713.24,1322.46,707.1,1321.43,701.32,1317.9z"/>
		<path class="st5" d="M1071.55,973.18c17.45-0.15,34.9-0.29,52.35-0.44c-1.05,41.98-41.18,53.86-62.04,80.58
			c-27.84,32.37-64.75,48.25-105.06,57.97c-34.04-10.77-68.67-15.61-104.31-9.24c-20.22-3.3-41.83,4.27-61.03-7.52
			c-20.95-32.79-19.88-84.88-76.17-86.64c-6.2-1.03-11.77-3.46-16.83-7.15c-7.79-11.31-8.17-23.13-2.45-35.37
			c2.29-2.12,4.59-4.23,6.9-6.34c12.86,0.19,25.72,0.38,38.58,0.57c60.43-8.08,120.17-5.09,178.07,14.74
			C970.69,991.86,1021.01,990.24,1071.55,973.18z"/>
		<path class="st6" d="M896.55,538.12c-30.21,4.73-50.47-18.48-75.94-27.06c-8.29,0.55-16.04-1.44-23.57-4.85
			c-5.01-2.63-9.42-6-13.33-10.11c-7.67-9.41-11.72-20.01-10.8-32.32c2.07-15.15,4.9-33.16,17.21-40.32
			c40.54-23.58,32.32-60.05,29.85-95.71c5.48-7.66,13.3-11.7,22.09-14.17c32.48-2.42,55.41-25.81,83.33-38.28
			c30.72,0.05,61.43,0.11,92.15,0.16c-11.29,43.09-24.82,83.99-80.6,85.04c-2.38,0.05-5.84-6.29-7.52,0.73
			c4.14-0.27,8.26,0.75,12.65,1.79c28.44,6.78,56.76,13.46,22.4,48.98c-18.1,16.4-30.67,36.41-38.64,59.43
			C913.31,492.46,922.44,523.04,896.55,538.12z"/>
		<path class="st7" d="M460.37,47.71c41.65-60.2,42.42-61.09,94.82-15.82c41.1,35.51,80,73.57,119.88,110.49
			c-5.31,77.32-12.4,83.59-81.37,69.91c-13.25-2.63-25.94-1.04-38.84,0.97c-29.45-5.47-57.41-16.35-86.31-23.99
			c-5.28-3.19-9.37-7.54-12.38-12.88c-2.26-5.52-3.62-11.32-4.23-17.26c-0.81-17.62,5.18-33.63,11.97-49.37
			c1.75-4.77,3.81-9.52,5.71-14.2c2.97-9.33,2.78-18.56-1.58-27.58C464.41,61.6,462.36,54.66,460.37,47.71z"/>
		<path class="st8" d="M146.89,1370.04c-27-27.39-33.03-59-18.11-94.25c6.25-14.78,10.92-28.58-5.2-40.09
			c-3.99-12.61,4.07-19.03,12.82-25.14c48.61-19.19,97.46-37.11,151.21-23.49c28.94,14.2,49.77,35.15,56.05,68
			c0.47,6.35,0.04,12.75-1,19.03c-6.12,20.2-7.89,41.23-10.31,62.13c-1.15,5.81-3.29,11.29-6.1,16.48
			c-3.56,4.75-8.36,7.66-14.11,9.05c-8.41,0.42-16.72-1.01-25.02-1.92c-11.15-0.37-21.67,2.27-31.88,6.87
			c-5.36,2.83-10.81,5.16-16.39,7.44C207.55,1386.43,176.8,1387.03,146.89,1370.04z"/>
		<path class="st9" d="M94.69,867.68c-10.9,0.27-20.98-0.81-29.32-9.58c-16.58-17.44-37.03-27.79-61.11-30.57
			c0.54-21.93,1.08-43.86,1.62-65.79c5.68-13.69,0.8-29.29,7.71-42.76c-0.72-3.66,0.03-6.98,2.25-9.97
			c56.16-23.76,65.21,22.79,76.51,56.01c11.08,32.57,21.91,31.62,41.96,10.13c4.35-0.03,8.7-0.1,13.05-0.19
			c42.19-25.62,95.58-28.58,132.25-65.38c17.9-8.69,31.48-21.63,39.54-40.04c4.87-5.25,10.82-8.53,17.86-9.89
			c22.38-1,40.98,5.98,53.66,25.44c0.64,82.15-78.04,90.69-123.5,127.59C219.33,851.55,155.65,859.75,94.69,867.68z"/>
		<path class="st10" d="M306.69,1357.6c3.85-0.88,7.71-1.75,11.58-2.59c8.23-6.21,17.31-9.93,27.79-9.51
			c6.55,0.81,12.77,2.83,18.71,5.66c24.27,21.77,51.41,15.95,79.57,9.68c33.58-7.47,68.11-17.43,99.31,8.1
			c16.84-0.5,32.69,6.59,36.36,21.69c4.79,19.72-13.55,32.16-27.96,38.78c-20.89,9.59-44.59,17.94-67.15,18.09
			c-68.6,0.47-138.07,10.33-205.46-11.7c-6.52-6.44-10.4-14.1-10.75-23.38c0.23-5.89,1.45-11.59,3.48-17.13
			C280.91,1380.23,289.95,1365.38,306.69,1357.6z"/>
		<path class="st11" d="M951.68,404.8c21.34-19.28,21.33-19.39,0.92-26.47c-3.95-1.37-7.62-3.56-11.56-5
			c-11.6-4.25-23.27-8.31-34.91-12.44c9.55-16.03,24.89-6.82,37.44-7.8c20.13-1.57,30.59-11.78,36.4-30.22
			c6.39-20.28,22.74-33.4,37.56-47.41c127.6-4.84,95.65-7.34,76.69,96.49c-4.55,24.9-16.31,48.49-24.75,72.69
			c-12.23,5.83-21.74-0.9-31.48-6.67c-13.72-10.11-28.99-15.98-46.2-16.64C976.86,419.52,961.59,418.59,951.68,404.8z"/>
		<path class="st12" d="M464.35,167.43c0.33,3.75,0.47,7.51,0.41,11.28c-17.43,24.54-51.73,27.2-68.25,52.85
			c-3.87,4.2-8.28,7.82-12.91,11.14c-11.64,7.52-22.96,15.54-33.19,25.04c-6.25,5.76-12.92,10.95-19.85,15.86
			c-19.68,12.46-35.63,29.45-53.55,44.11c-4.99,3.57-10.46,6.1-16.29,7.96c-12.82,2.6-24.35,0.57-33.67-9.37
			c-3.33-13.04-5.62-27.54,5.01-36.95c65.21-57.75,111.76-133.09,178.87-188.94c21.82,18.83,44.81-16.74,66.65,1.42
			c-4.44,17.6-8.88,35.19-13.32,52.79c-3.55,2.87-4.72,5.72-3.52,8.56C461.96,166.02,463.15,167.43,464.35,167.43z"/>
		<path class="st13" d="M953.24,1104.95c31.7-26.7,72.35-34.53,108.62-51.62c-28.12,109.73-78.34,203.02-187.67,252.34
			c-4.27-4.67-6.48-10.17-6.69-16.51c2.17-22.96,12.76-40.57,33.2-51.84c27.24-13.56,43-34,39.49-65.97
			C935.33,1147.41,932.73,1123.9,953.24,1104.95z"/>
		<path class="st14" d="M134.32,775.16c-0.54,6.52,1.46,15.76-2.08,19.05c-11.56,10.76-8.03,37.39-33.54,33.24
			c-28-4.55-18.81-28.17-16.11-41.61c6.4-31.81-21.36-45.9-30.78-69.07c-5.47-13.44-23.48-6.24-35.95-7.76
			c8.63-49.51,30.3-93.3,58.88-134.05c26.4,8.48,42.59,20.02,22.08,50.59c-6.37,9.5-2.31,24.96-11.41,35.65
			c-4.34,5.09-4.46,14.61,1.77,16.4c57.7,16.54,32.56,54.76,25.96,89.82C111.41,776.48,126.36,774.13,134.32,775.16z"/>
		<path class="st15" d="M1004.78,405.41c20.82-2,33.81,8.23,41.55,26.64c6.41,20.01,2.18,37.99-10.32,54.41
			c-8.53,1.99,3.29,0.96-5.09,3.35c-9.25,2.64-18.21,0.54-27.29,0.89c7.96,1.38,15.77,3.09,21.54,9.52
			c11.75,20.36,11.71,42.97,12.51,65.43c0.76,9.72,0.4,19.24-5.13,27.8c-0.43,2.61-0.94,5.21-1.52,7.79
			c-11.9,14.1-27.18,15.62-43.91,11.87c-21.11-9.09-31.93-29.96-49.47-43.26c-4.1-5.04-7.16-10.65-9.43-16.72
			c-5.97-22.4-5.45-44.97-1.72-67.65C933.74,440.39,968.3,421.96,1004.78,405.41z"/>
		<path class="st12" d="M847.45,325.81c-9,0.17-18,0.34-27,0.51c-3.05-0.71-6.09-1.43-9.15-2.1
			c-47.56-16.61-95.4-32.19-145.75-38.68c-36.78-42.59-19.38-78.54,50.69-104.92c25.64,20.16,53.93,37.8,76.19,61.18
			c23.27,24.43,49.19,34.66,81.34,33.88C892.23,306.7,862.95,312.63,847.45,325.81z"/>
		<path class="st16" d="M133.82,1224.44c-7.13,0.37-10.62,4.05-10.25,11.25c-20.36,5.06-30.33-2.85-29.82-23.86
			c37.84-14.13,28.37-52.76,41.32-79.78c8.14-9.31,16.93-17.99,25.66-26.74l0.09-0.09c22.12-21.83,44.07-43.82,65.95-65.9
			c20.46,2.59,30.53-12.91,43.25-24.33c20.81-18.68,36.66-42.83,62.11-56.38c13.32,4.33,19.35,14.23,21.05,27.47
			c-2.18,26.74-22.74,41.46-38.64,59.27c-14.66,14.04-28.79,28.7-45.14,40.9c-24.51,14.71-44.84,34.21-63.33,55.86
			C182.53,1170.07,156.33,1195.62,133.82,1224.44z"/>
		<path class="st17" d="M965.94,761.96c-9.7-25.12-36.08-36.18-49.09-58.41c-1.91-3.27-3.03-8.92-1.48-11.89
			c2.97-5.68,10.57-11.05,15.52-6.98c18.84,15.48,40.59,10.43,61.6,11.22c25.5,10.77,51.36,20.04,78.02,28.06
			c59.7,17.96,62.11,33.57,16.24,78.57c-5.03-0.41-10.07-0.81-15.1-1.22c-20.33-25.42-47.3-37.47-79.29-39.4
			C983.54,761.92,974.74,761.94,965.94,761.96z"/>
		<path class="st18" d="M716.25,180.63c-13.89,2.68-25.37,12.91-26.14,24.36c-1.43,21.06-8.16,29.49-29.87,30.58
			c-13.02,0.65-12.46,15.69-10.3,25.58c2.88,13.21,15.07,11.98,25.46,12.31c11.47,13.79,5.38,24.98-5.19,35.55
			c-14.08,10.14-29.06,15.89-46.42,8.96c-23.91-18.72-10.3-61.86-47.08-72.3c-12.35-9.67-26.51-18.43-20.03-37.98
			c6.04-12.91,9.32-29.5,30.47-17.73c14.59,8.12,30.54,13.77,45.19,21.79c9.21,5.04,16.28,6.34,16.4-6.19
			c0.25-24.92,19-41.56,26.33-63.18C693.35,150.23,706.16,163.96,716.25,180.63z"/>
		<path class="st19" d="M609.54,1342.76c-18.1,22.59-44.12,7.24-65.59,13.7c-28.21,12.38-57.79,3.43-86.66,5.55
			c-20.31-7.25-25.48-23.94-26.88-42.99c30.44-48.51,75.72-52.53,125.94-41.9C582.97,1291.72,610.08,1306.06,609.54,1342.76z"/>
		<path class="st5" d="M794.47,1355.96c-6.4-19.06-19.73-29.04-39.64-26.22c-17.61,2.49-27.77-10.97-41.71-16.07
			c1.8-18.21,11.68-23.07,29.83-24.41c30.46-2.25,63.24,14.23,91.35-9.63c17.12-19.01,28.93-7.05,40.4,6.93
			c-0.17,6.37-0.34,12.74-0.51,19.12C855.66,1335.19,827.71,1349.76,794.47,1355.96z"/>
		<path class="st20" d="M609.54,1342.76c-25.29-10.37-25.48-45.8-53.41-53.54c-10.68-13.2-24.39-28.01-7.19-43.39
			c21.39-19.14,46.49-29.03,73.75-8.6c1.22,34.52,21.73,59.46,41.97,84.54C651.5,1342.49,631.26,1344.57,609.54,1342.76z"/>
		<path class="st11" d="M977.9,602.93c17.71-0.56,35.41-1.13,53.12-1.69c-9.52,29.11-18.18,58.63-39.91,81.78
			c-35.65-27.89-71.42-55.69-78.77-104.85c6.33-7.99,14.52-9.73,23.99-7.13C953.56,577.25,969.26,585.5,977.9,602.93z"/>
		<path class="st17" d="M1109.17,933.8c-19.29,0.91-42.03-4.36-57.12,4.07c-28.62,15.99-44.5-3.2-62.49-15.18
			c-14.31-9.53-14.63-25.78-4.56-40.12c9.69-13.8,23.4-19.85,39.37-12.41c15.15,7.06,23.48,26.54,43.87,24.58
			C1081.89,907.76,1095.53,920.78,1109.17,933.8z"/>
		<path class="st10" d="M1034.21,563.85c-30.8-16.83-8.84-44.39-13.53-66.53c2.23-6.02,12.62-3.62,12.48-12.09
			c-3.92-19.78,1-37.38,13.16-53.18c7.71,4.19,15.43,8.39,23.14,12.58c-3.07,35.69,14.05,72.78-7.46,107.19
			c-6.92,2.21-12.18,6.49-15.89,12.73l-0.21,0.39C1041.48,570.28,1037.56,570.19,1034.21,563.85z"/>
		<path class="st21" d="M451.28,1355.34c30.89,0.37,61.77,0.74,92.66,1.12c-0.46,4.15-0.56,8.32-0.29,12.49
			c-42.93-2.33-87.14-2.74-126.04,14.79c-35.8,16.13-49.26,2.66-59.76-27.11C388.64,1330.86,419.83,1333.64,451.28,1355.34z"/>
		<path class="st18" d="M477.6,101.83c-18.12-2.94-24.72,8.64-31.5,22.64c-4.31,8.89-12.98,18.89-24.57,14.76
			c-15.68-5.58-8.18-21.17-10.25-32.58c-0.37-2.04-0.24-4.16-0.33-6.25c12.8-21.01,29.6-38.28,49.42-52.7
			c8.98,1.08,15.68,4.84,17.16,14.69c9.09,13.18,8.89,26.35-0.02,39.52L477.6,101.83z"/>
		<path class="st12" d="M292.87,366.17c-13.67,19.22-33.18,26.21-55.81,26.71c-18.64-15.19-7.76-35.34-8.96-53.46
			c9.94-12.39,28.21-0.49,38.09-13.05l0.24-0.18C296.01,325.78,305.43,338.71,292.87,366.17z"/>
		<path class="st13" d="M146.89,1370.04c35.82-0.29,71.71-0.03,105.79-13.74c15.43,21.97,0.52,31.54-16.41,40.3
			c-5.36,2.21-10.92,3.9-16.6,5.08c-11.29-0.21-23.13,2.77-33.12-5.46C167.06,1396.98,153.75,1388.39,146.89,1370.04z"/>
		<path class="st18" d="M847.45,325.81c4.18-19.12,31.22-26.23,26.33-50.12c17.2-0.13,34.4-0.27,51.6-0.4
			C905.58,301.66,889.25,333.37,847.45,325.81z"/>
		<path class="st6" d="M278.88,1408.53c0.19,9.09,0.38,18.18,0.57,27.27c-20.53,1.81-34.46-7.25-42.6-25.86
			C250.42,1396.6,264.5,1398.01,278.88,1408.53z"/>
		<path class="st5" d="M278.88,1408.53c-14.01,0.47-28.02,0.94-42.03,1.41c-3.65-0.03-7.18-0.72-10.58-2.07
			c-4.05-2.61-5.39-5.22-4.05-7.83c1.34-2.61,2.68-3.92,4.04-3.92l1.02-0.9c17.9-7.86,35.79-14.61,53.34,0.8
			C280.17,1400.21,279.59,1404.38,278.88,1408.53z"/>
		<path class="st0" d="M226.25,1396.12c0.37,3.92,0.37,7.83,0.01,11.75c-13.88-1.71-30.81,7.01-39.72-11.65
			C199.78,1396.19,213.02,1396.15,226.25,1396.12z"/>
		<path class="st2" d="M13.59,718.99c-0.33,14.66,10.51,31.33-7.71,42.76C3.18,746.54-2.19,730.86,13.59,718.99z"/>
		<path class="st22" d="M266.19,326.37c-6.7,21.85-24.94,10.02-38.09,13.05c-0.34-4.37-0.69-8.74-1.03-13.12
			C240.11,326.33,253.15,326.35,266.19,326.37z"/>
		<path class="st6" d="M1034.21,563.85c3.92,0.19,7.82,0.55,11.7,1.08c4.5,13.7-1.71,22.39-13.37,28.52
			C1033.1,583.59,1033.65,573.72,1034.21,563.85z"/>
		<path class="st6" d="M1046.12,564.54c0.47-10.27,6.58-13.5,15.89-12.73C1058.71,558.55,1056.22,566.31,1046.12,564.54z"/>
		<path class="st5" d="M345.44,986.36c-4.44-9.25-8.87-18.5-13.31-27.75c17.81-25.72,41.64-47.44,48.58-80.26
			c2.47-11.7,13.53-18.86,23.21-27.44c44.92-39.81,91.01-79.02,126.06-128.69c8.01-29.38,32.02-45.63,52.87-64.57
			c15.12-9.01,30.27-14.1,45.34,0.09c12.86,22.46,10.68,44.54-1.61,66.37c-13.22,17.04-25.04,35.14-36.86,53.23
			c-26.76,27.79-50.39,58.52-78.33,85.29c-48.05,42.07-85.66,95.39-140.2,130.53C361.43,995.36,352.54,994.2,345.44,986.36z"/>
		<path class="st3" d="M582.95,669.39c-12.7,22.58-30.05,40.49-52.96,52.84c-8-0.86-12.13-5.5-12.99-13.32
			c1.01-29.4,19.59-51.85,32.48-75.91c8.69-16.22,22.88-32.82,46.64-29.64C615.4,630.09,593.96,648.7,582.95,669.39z"/>
		<path class="st5" d="M226.77,1039.32c-6.56,37.41-28.39,59.52-65.95,65.9C166.92,1067.35,188.92,1045.4,226.77,1039.32z"/>
		<path class="st5" d="M160.73,1105.31c2.16,19.2-6.29,28.21-25.66,26.74C131.95,1111.92,140.64,1103.15,160.73,1105.31z"/>
		<path class="st23" d="M279.51,616.6c-8.8,0.01-17.6,0.01-26.4,0.02c-14.75-0.19-29.21,0.48-39.61,13.28
			c-16.19,4.01-23.58,18.54-34.44,28.9c-7.13,6.8-5.01,23.94-19.95,21.26c-14.33-2.58-10.77-16.23-11.64-26.47
			c-0.37-4.36,0.96-11.56-1.09-12.67c-49.27-26.79-14.85-53.15,1.51-77.15c40-58.7,78.19-120.54,158-131.91
			c17.61-11.56,35.2-14.54,52.78,0.07c0.89,7.93,5.29,12.33,13.22,13.22c27.69,44.44,6.87,80.75-23.19,111.45
			C327.56,578.18,306.96,601.72,279.51,616.6z"/>
		<path class="st24" d="M556.68,207.69c2.53,12.86,12.01,20.32,21.54,27.75c35.42,27.62,14.1,60.71,8.98,92.3
			c-2.68,11.44-7.46,21.73-16.07,30.01c-9.75,7.01-20.82,10.33-32.56,11.82c-34.79,2.01-70.27,7.85-100.7-16.65
			c-16.61-0.75-33.23-1.49-49.84-2.24c-5.55-3.08-9.82-7.42-12.86-12.99c-5.59-14.74-5.24-29.93-3.43-45.22
			c5.48-19.08,3.5-39.98,13.5-58.06c5.98-47.89,46.09-47.03,79.53-55.7C498.33,179.07,531.11,181.95,556.68,207.69z"/>
		<path class="st25" d="M94.69,867.68c0.24-13.67,1.66-29.86,19.85-25.91c58.72,12.77,101.69-30.24,153.57-41.19
			c12.76-2.7,20.87-13.86,25.44-27.5c4.26-12.73,13.89-23.72,28.19-23.8c44.93-0.25,53.31-33.91,63.35-66.59
			c-4.71-10.75,1.78-16.99,9.13-22.92c27.3-13.78,47.77-36.15,70.15-56.13c0.82-8.02,5.24-12.44,13.25-13.28
			c23.14-23.75,47.88-37.95,79.12-13.22c-0.56,2.12-0.4,5.16-1.78,6.23c-76.55,59.62-129.57,144.57-206.67,201.43
			c-53.87,39.73-106.98,86.77-175.86,103.41C142.95,895.32,112.04,906.95,94.69,867.68z"/>
		<path class="st7" d="M279.51,616.6c-3.31-28.9,19.18-45.65,37.41-54.83c50.99-25.69,55.41-69.03,54.97-116.63
			c25.71,3.92,53.08,19.44,74.02-10.97c1.04-1.51,8.22-0.23,11.55,1.59c6.99,3.82,8.14,12.89,3.32,16.34
			c-39.92,28.58-37.74,70.14-36.12,111.76c-3.29,20.98-21.02,32.36-31.88,48.34c-14.88,24.7-34.14,44.79-60.62,57.15
			c-4.33,0.09-8.66,0.15-12.99,0.19C281.73,660.38,281.52,660.1,279.51,616.6z"/>
		<path class="st9" d="M556.74,577.14c-28.28-6.97-52.3,11.52-79.12,13.22c-0.56-22.98-2.02-46.14,13.28-65.92
			c28.61-53.32,47.77-109.56,52.36-170.27c7.8-1.49,15.61-2.97,23.41-4.46c26.2-0.59,49.85,6.34,70.04,23.65
			c3.9,5.11,6.41,10.83,7.43,17.18c0.04,6.32-1.11,12.46-3.43,18.35c-20.99,40.76-38.78,82.41-35.15,129.88
			c0.13,9.56-1.96,18.3-9.47,24.95C580.14,559.83,570.21,573.68,556.74,577.14z"/>
		<path class="st14" d="M543.27,354.16c21.95,72.43,10.77,108.8-52.36,170.27c-0.06-23.78,0.21-47.57-0.27-71.35
			c-0.45-22.11,8.21-46.76-30.02-51.38c-12.32-1.49-23.73-28.05-22.75-48.79C473,353.34,508.13,353.75,543.27,354.16z"/>
		<path class="st14" d="M279.63,709.59c-2.72,15.22,7.65,33.3-20.23,40.32c-37.18,9.37-70.66,33.89-112.02,25.06
			c-3.57-23.88,3.9-44.52,24.54-56.17c25.82-14.57,49.86-36.04,81.56-35.1C266.23,684.07,276.19,695.53,279.63,709.59z"/>
		<path class="st22" d="M384.01,339.3c1.78,3.64,3.12,7.43,4.01,11.38c-32.66-0.65-61.61,21.52-95.15,15.49
			c1.41-20.09-7.23-33.53-26.44-39.98c16.23-24.71,31.7-50.38,65.81-52.81c2.19,1.9,4.38,3.8,6.61,5.65
			C348.57,303.11,363.86,323.02,384.01,339.3z"/>
		<path class="st9" d="M464.37,603.64c-6.47,37.58-28.27,59.77-66.11,65.85c-17.91-25.19,3.02-40.66,14.56-58.54
			c7.09-6.7,14.57-12.33,25.12-7.57C446.75,603.47,455.56,603.56,464.37,603.64z"/>
		<path class="st26" d="M437.94,603.38c-7.88,0.98-12.37,5.34-13.31,13.28c-19.11,13.23-31.15,5.34-39.62-13.25
			c8.32-18.09,21.48-31.32,39.63-39.54C447.18,570.95,434.63,589.84,437.94,603.38z"/>
		<path class="st7" d="M358.67,431.92c-17.59-0.02-35.19-0.04-52.78-0.07c6.53-18.83,19.06-29.05,39.57-25.69
			C360.54,408.64,357.82,421.48,358.67,431.92z"/>
		<path class="st7" d="M213.5,629.9c0.41-9.82-1.3-21.96,10.72-25.11c11.12-2.91,24.64-5.07,28.89,11.82
			C246.02,639.28,227.08,626.6,213.5,629.9z"/>
		<path class="st3" d="M596.1,563.71c0.22-8.68,0.44-17.37,0.66-26.05c8.23-28.33,24.08-53.54,33.36-81.48
			c14.33-15.28,20.91-38.46,44.72-44.21c14.22-0.16,24.63,6.66,32.77,17.74c4.7,9.04,6.23,18.67,5.44,28.74
			c-6.7,32.64-23.7,60.27-42.52,87.04c-22.96,17.78-28.66,64.32-74.12,44.9C596.31,581.5,596.21,572.61,596.1,563.71z"/>
		<path class="st13" d="M596.42,590.4c19.09,2.2,32.15-7.12,38.46-23.8c5.46-14.44,13.04-25.05,28.07-29.52
			c14.31,13.91,13.63,31.06,10.72,48.75c-11.83,26.59-9.07,63.33-48.66,70.89c-16.83-5.12-27.87,8.97-42.05,12.66
			c-6.29-24.14,15.26-42.73,13.17-66.03C596.22,599.04,596.32,594.72,596.42,590.4z"/>
		<path class="st0" d="M1071.55,973.18c-5.17,16.05-15.93,27.05-32.91,26.09c-42.6-2.42-85.77,7.83-127.76-11.72
			c-26.86-12.5-57.23-19.86-87.75-14.09c-29.37,5.55-54.19-10.93-81.65-13.85c0.49-10.83-0.38-24.52,13.88-25.27
			c16.96-0.89,35.45-6.09,50.97,5.34c13.97,10.29,33.25,12.27,43.46,5.21c28.89-19.97,46.27-6.17,69.05,10.72
			c20.06,14.87,44.59,26.73,72.46,11.97C1018.55,953.15,1043.91,982.82,1071.55,973.18z"/>
		<path class="st2" d="M992.34,761.9c45.78-22.38,57.39-16.61,79.29,39.4C1045.25,788.09,1006.31,800.12,992.34,761.9z"/>
		<path class="st13" d="M622.51,841.55c20.52-2.42,33.38,6.87,39.79,26.03c0.04,13.16,0.08,26.33,0.13,39.49
			c-3.07,0.91-6.14,1.82-9.21,2.74c-25.11-7.68-34.43-27.16-38.08-50.91C615.74,852.34,618.13,846.52,622.51,841.55z"/>
		<path class="st13" d="M662.43,907.07c26.91-0.8,39.99,12.44,39.79,39.18c-5.83,6.35-8.71,15.76-18.61,17.92
			c-6.16-0.57-11.77-2.62-16.9-6.08c-14.43-14.83-20.55-30.75-6.37-49.27L662.43,907.07z"/>
		<path class="st5" d="M688.44,960.66c0.87-8.36,5.51-13.12,13.77-14.41c0.11,4.26,0.33,8.52,0.69,12.77l-4.34,4.33l-5.74,1.2
			L688.44,960.66z"/>
		<path class="st25" d="M661.95,589.8c0.33-17.57,0.66-35.14,0.99-52.72c13.77-26.73,27.54-53.47,41.31-80.2
			c30.21-18.7,54.27-5.89,76.75,15c4.46,8.62,8.92,17.23,13.38,25.85c4.27,4.71,8.69,5.1,13.3,0.49c7.83,0.74,12.06,5.1,12.94,12.84
			c-0.26,22.97-1.7,46.17,13.31,66.07c9.26,14.71,17.98,29.8,25.24,45.54c17.13,37.12,7.73,58.91-35.99,59.49
			c-23.31-5.71-46.08-7.89-65.04,11.68c-17.93,12.19-35.67,24.92-59.18,21.82C671.18,678.27,673.84,631.9,661.95,589.8z"/>
		<path class="st17" d="M807.43,669.5c2.2,0.01,4.4,0.12,6.59,0.01c49.9-2.66,51.42-3.43,31.67-42.77
			c-8.26-16.46-13.12-31.8-11.77-49.61c17.85,5.56,27.9,20.24,37.81,34.18c27.91,39.29,27.56,39.55-4.53,87.37
			c-1.21,1.81-3.77,3.52-3.74,5.23c1.59,86.07-95.08,85.91-126.35,143.59c-7.52,13.86-18.59,1.87-26.67-4.67
			c-26.71-21.6-53.03-43.68-80.21-64.66c-4.45-3.43-12.46-2.26-18.82-3.21c-15.56-17.37-12.15-34.88-0.37-52.45
			c22.79-18.08,6.28-44.5,13.96-65.78c26.28-14.6,14.15-50.41,36.95-66.93c8.7,12.08,19.34,23.24,25.64,36.46
			c9.72,20.38,24.57,41.05,3.26,64.65c-6.28,6.95,1.28,15.6,11,18.24c7.76,6.7,8.58,15.23,6.57,24.49
			c-8.21,19.49-22.71,40.9,14.3,46.44c25.56-13.87,42.99-35.37,57.43-59.59c2.31-4.65,5.14-9.07,8.07-13.32
			c5.71-7.73,10.48-16,12.27-25.72C801.55,676.73,803.85,672.73,807.43,669.5z"/>
		<path class="st21" d="M938.42,578.04c-8.69,0.04-17.39,0.09-26.08,0.13l-0.11-0.41c-3.06-5.63-7.4-9.98-13.01-13.06
			c-0.89-8.86-1.78-17.72-2.67-26.58c6.7-26.5-4.83-56.82,16.77-80.2c21.96-2.1,19.09,13.64,19.45,27.06
			c3.03,26.15-7.09,53.51,7.19,78.65l-0.02-0.14C944.14,568.83,943.63,573.68,938.42,578.04z"/>
		<path class="st16" d="M611.04,722.51c0.12,17.48,0.25,34.97,0.37,52.45c-0.55,13.23-1.09,26.47-1.64,39.7
			c-5.79,3.56-11.84,4.1-18.18,1.63c-13.88-11.43-22.06-24.07-8.58-41.2C584.83,753.56,589.66,733.62,611.04,722.51z"/>
		<path class="st5" d="M596.27,814.77c4.5-0.04,9-0.07,13.49-0.11l0.53-0.41c3.15,5.45,7.76,9.58,12.4,13.68
			c-0.06,4.54-0.12,9.08-0.19,13.63c-0.2,3.39-0.07,6.78,0.41,10.14c-6.56,10.36-16.63,11.92-27.72,11.14
			c-17.66-4.47-35.83-8.17-44.21-27.55C553.66,801.05,572.19,801.78,596.27,814.77z"/>
		<path class="st11" d="M899.22,564.7c8.46,0.24,13.05,4.34,13.01,13.06C904.42,576.86,900.26,572.34,899.22,564.7z"/>
		<path class="st13" d="M622.7,827.93c-8.17-0.9-12.49-5.29-12.4-13.68C617.98,815.59,622.2,820.07,622.7,827.93z"/>
		<path class="st22" d="M688.44,960.66c3.44,0.64,6.82,1.54,10.12,2.7c1.08,12.15,2.16,24.29,3.24,36.44
			c11.61,12.54,24.81,23.14,39.46,32.06c13.86,12.89,29.17,25.38,13.91,46.85c-28.41,28.47-19.6,76.07-52.45,102.36
			c-1.26,1.01-0.26,4.49-1.35,6.12c-23.02,34.41-37.98,43.87-78.7,50.05c-14.78,0.56-29.3,5.38-43.08,7.18
			c-34.36,4.49-29.14,22.97-23.48,44.81c-42.73-6.2-81.19,7.57-118.79,25.4c-22.27,22.23-42.54,10.45-62.67-3.61
			c-11.05-12.16-0.21-29.26-9.37-42.04c16.3-46.39,54.38-12.28,80.61-22.12c8.92-0.23,17.87,0,26.76-0.17
			c19.35,1.39,31.61-9.37,41.41-24.43c24.19-32.98,60.64-26.76,94.13-29.78c30.73-3.5,21.51-26.01,20.85-44.36
			c-0.53-5.8-0.09-11.53,0.91-17.23c5.49-21.26,18.41-41.41,9.33-64.79c-4.2-22.11-11.34-43.67-12.25-66.37
			c0.65-5.67,2.55-10.93,5.38-15.87c9.67-10.33,21.55-17.37,34.55-22.7c2.72-0.41,5.45-0.77,8.18-1.13
			C679.59,960.23,684.02,960.45,688.44,960.66z"/>
		<path class="st20" d="M953.24,1104.95c-6,21.81,12.31,48.4-13.04,66.4c-27.77-1.98-40.71-31.72-68.72-35.73
			c-12.51-1.79-25.06-2.83-37.61-4.05c-8.24-17.42-0.39-29.4,13.32-39.39C884.3,1081.8,922.16,1065.2,953.24,1104.95z"/>
		<path class="st16" d="M755.18,1078.71c0.19-18.98-7.61-32.86-25.68-40.18c-11.63-10.12-20.4-21.36-14.96-38.17
			c2.6-9.04,7.8-16.21,17.9-12.55c48.92,17.7,66.14,54.75,62.02,104.27c4.59,11.22-2.09,15.93-11.15,19.25
			c-6.34,0.37-11.18-2.25-14.7-7.45C767.89,1093.49,769.64,1081.78,755.18,1078.71z"/>
		<path class="st13" d="M781.4,1104.95c7.54-1.06,12.06-5.18,13.06-12.87c10.81,0.45,20.4-1.62,29.52-8.65
			c10.95-8.43,19.23-4.18,23.21,8.75c3.95,15.97-10.06,25.86-13.32,39.39c-29.85,19.95-30.54,64.16-66.06,79.39
			C744.41,1172.04,771.72,1139.63,781.4,1104.95z"/>
		<path class="st2" d="M781.4,1104.95c8.9,37.06-15.09,69.9-13.59,106.01l0.28-0.29c-4.81,4.2-9.36,8.65-13.49,13.52l0.29-0.28
			c-4.51,6.44-8.99,6.13-13.46-0.05c-4.58-43.08,9.09-82.02,27.17-119.97C772.85,1104.49,777.11,1104.84,781.4,1104.95z"/>
		<path class="st14" d="M874.7,1286.55c-13.62-1.39-25.55-12.69-40.4-6.93c10.68-32.09,32.95-45.98,66.4-42.31
			C885.97,1250.53,891.78,1274.58,874.7,1286.55z"/>
		<path class="st13" d="M741.43,1223.85c4.49,0.02,8.97,0.03,13.46,0.05c-0.05,2.06-0.1,4.12-0.15,6.18
			c-0.28,11.26-4.63,23.57-16.83,17.84C722.85,1240.85,744.94,1232.92,741.43,1223.85z"/>
		<path class="st13" d="M754.6,1224.19c0.93-8.06,5.2-12.8,13.49-13.52C767.18,1218.75,762.9,1223.48,754.6,1224.19z"/>
		<path class="st4" d="M714.54,1000.37c4.3,12.99,17.6,22.45,14.96,38.17c-34.11,4.88-26.88-19.81-27.7-38.74
			C706.07,999.47,710.32,999.66,714.54,1000.37z"/>
		<path class="st18" d="M780.99,471.88c-27.63,5.46-49.41-18.97-76.75-15c-0.55-8.36-1.09-16.72-1.64-25.08
			c7.62-52.1,12.93-105.76,79.6-118.06c14.41-0.48,27.81,2.12,38.5,12.82l-0.24-0.24c31.95,44.92,37.62,69.91,2.37,91.87
			C798.45,433.38,791.84,451.76,780.99,471.88z"/>
		<path class="st10" d="M926.48,485.16c-0.52-10.95,2.78-23.75-13.16-27.24c12.02-18.26,13.61-44.05,38.35-53.12
			c17.7,0.2,35.4,0.41,53.1,0.61c-19.52,29.17-58.56,42.04-67.12,80.38C933.66,490.67,929.93,490.46,926.48,485.16z"/>
		<path class="st2" d="M807.67,498.21c-1.6,3.02-2.68,8.14-4.88,8.67c-6.79,1.64-7.55-4.22-8.42-9.16
			C798.81,497.89,803.24,498.05,807.67,498.21z"/>
		<path class="st12" d="M477.52,101.92c0.01-13.17,0.01-26.35,0.02-39.52C499.84,75.58,499.02,88.75,477.52,101.92z"/>
		<path class="st18" d="M464.35,167.43c-3.08-1.39-8.27-2.18-8.87-4.27c-1.91-6.77,3.95-7.55,8.79-8.54
			C464.33,158.89,464.35,163.16,464.35,167.43z"/>
		<path class="st7" d="M477.46,1263.49c-8.76,0-17.52,0-26.28,0c-57.09-12.11-108.48-38.24-159.64-64.94
			c-55.57-9.68-105.4,15.67-157.71,25.88c-1.69-48.42,41.33-63.44,67.82-90.81c15.85-16.96,38.59-18.04,58.52-25.62
			c14.34-4.96,28.52-10.6,43.78-12.27c32.54,9.77,61.61-19.79,94.33-8.57c9.94,6.78,15.65,16.79,20.81,27.2
			c7.23,17.91,16.15,34.75,31.31,47.53c19.13,17.57,40.92,21.08,65.03,12.76c5.7-1.75,11.52-2.87,17.4-3.79
			c20.79-2.01,41.71-2.98,62.14-8.27c6.36-0.91,12.63-0.69,18.95,0.46c6.34,2.14,11.3,6.05,15.17,11.44
			c5.58,13.42,3.88,25.54-6.43,36.11c-16.68,0.09-34.06,3.22-49.9-0.4c-27.39-6.27-40.39,11.33-55.47,27.16
			C506.96,1250.57,487.6,1250,477.46,1263.49z"/>
		<path class="st26" d="M291.54,1198.56c14.77-3.88,28.4-25.52,44.9-3.22c25.4,34.35,58.77,47.44,101.4,42.92
			c12.9-1.37,12.98,14.42,13.35,25.24c-22.27-2.74-44.53,4.06-67.37-6.35c-15.98-7.28-9.09,11.87-11.97,19.49
			c-18.03,9.04-28.35-2.04-38.11-14.59C335.12,1230.6,301.35,1222.54,291.54,1198.56z"/>
		<path class="st0" d="M280.62,1396.02c-17.78-0.27-35.56-0.53-53.34-0.8c2.65-16.77,35.47-13.85,25.4-38.92l0.93-0.72
			c10.8-10.9,28.06-0.76,38.78-11.91c9.27,0.02,13.1,5.63,14.29,13.93C307.18,1376.65,297.63,1388.86,280.62,1396.02z"/>
		<path class="st17" d="M333.73,1262.04c15.22-1.7,24.56,11.95,38.11,14.59c23.61,8.47-2.91,16.89-0.02,25.33
			c11.22,14.3,6.3,24.76-7.82,33.05c-6.82,1.58-13.41,0.85-19.75-2.14c-13.48-16.73-16.1-35.74-11.66-56.21
			C332.96,1271.79,333.34,1266.91,333.73,1262.04z"/>
		<path class="st1" d="M206.52,1290.64c-28.19-1.17-32.95-9.2-32.35-21.87c0.89-18.77,14.41-18.4,27.72-18.47
			c11.09-0.06,24.95,0.25,22.82,14.89C222.34,1281.37,209.77,1290.74,206.52,1290.64z"/>
		<path class="st0" d="M332.58,1276.66c9.98,16.11,16.02,33.21,13.29,52.53c1.78,2.14,3.55,4.27,5.33,6.41
			c-0.65,5.89-3.65,10.07-9.02,12.57c-8.29,0.89-16.66,2.07-23.08-5.26C325.03,1321.12,305.36,1294.12,332.58,1276.66z"/>
		<path class="st14" d="M277.31,1289.68c5.59,0.44,12.15,0.36,18.44,1.6c6.45,1.28,7.47,7.41,3.19,7.52
			c-18.83,0.49-33.09,19.42-53.24,12.65c-1.8-0.6-4.31-3.3-4.14-4.75c0.46-4.03,0.99-9.14,3.59-11.62
			C254.12,1286.54,265.94,1291.68,277.31,1289.68z"/>
		<path class="st13" d="M292.39,1343.67c-7.68,21.06-25.41,9.39-38.78,11.91C260.96,1333.43,278.83,1345.57,292.39,1343.67z"/>
		<path class="st3" d="M319.11,1342.92c8.83,0.02,17.67,0.05,26.5,0.07c3.24,3.02,4.16,5.82,2.75,8.42
			c-1.35,2.49-2.63,3.73-3.85,3.73c-8.75-0.04-17.5-0.09-26.24-0.13C318.68,1350.99,318.96,1346.96,319.11,1342.92z"/>
		<path class="st14" d="M385.02,603.41c13.53,3.45,23.57,17.34,39.62,13.25c-3.85,20.08-33.45,27.3-26.37,52.83
			c-7.93,0.87-12.32,5.26-13.17,13.2c-19.88,4.42-33.12-17.55-52.95-13.33C349.77,647.38,367.39,625.39,385.02,603.41z"/>
		<path class="st5" d="M344.51,1355.14c0.67-4.02,1.04-8.07,1.1-12.15l0.07-0.08c4.29-4.46,8.1-9.4,13.09-13.16
			c15.68-3.94,12.57-16.71,13.05-27.79c22.89-1.21,41.45,20.02,65.53,12.65c2.77,14.22,17.88,24.21,13.94,40.72
			c-31.15,0.43-62.29,0.86-93.44,1.28C353.4,1356.13,348.95,1355.64,344.51,1355.14z"/>
		<path class="st0" d="M385.23,234.41c13.74,18.28,11.36,35.79-2.5,52.76c-17.72-0.34-20.18-13.04-21.62-26.61
			c1.63-9.73,4.29-19.04,11.25-26.53C376.67,233.88,380.95,234.01,385.23,234.41z"/>
		<path class="st22" d="M372.37,234.04c-0.35,8.82-0.7,17.64-1.05,26.46c-5.51,6.86-12.52,7.73-20.4,5.07
			c-1.83-1.79-3.66-3.58-5.48-5.37C349.61,246.52,358.17,237.38,372.37,234.04z"/>
		<path class="st22" d="M332.24,273.38c0.93-7.87,5.32-12.27,13.19-13.19l0.15,0.15c3.05,11.84-1.39,16.2-13.19,13.2L332.24,273.38z
			"/>
		<path class="st27" d="M938.42,578.04c0.51-4.85,1.02-9.71,1.53-14.56c26.5-0.18,38.93,13.19,37.96,39.45
			C965.54,593.37,946.16,594.93,938.42,578.04z"/>
		<path class="st27" d="M926.48,485.16c3.75-0.18,7.48,0.02,11.18,0.62c0.77,25.95,1.53,51.89,2.3,77.84
			c-9.04-2.05-13.74-7.66-13.72-16.98C926.28,526.15,926.4,505.65,926.48,485.16z"/>
		<path class="st18" d="M1033.16,485.23c2.56,2.27,5.13,4.54,7.69,6.81c-6.72,1.76-13.45,3.52-20.17,5.28
			c-7.99-1.3-21.48,2.69-21.89-6.65c-0.31-7.03,13.6-4.58,21.5-4.87C1024.58,485.64,1028.87,485.42,1033.16,485.23z"/>
		<path class="st6" d="M820.7,326.56c-13.1-0.19-26.2-0.38-39.29-0.58c-29.03-11.23-59.18-1.97-88.64-4.92
			c-13.68-1.37-32.87,4-30.3-21.13c16.13-3.05,12.95-15.53,12.93-26.47c49.72-6.37,90.68,26.99,138.37,30.89
			C822.63,305.08,819.71,318.52,820.7,326.56z"/>
		<path class="st20" d="M305.11,1104.59c-13.11,4.14-22.72,18.19-38.87,13.73c-11.66-13.22-10.24-26.54-0.27-39.91
			c8.74-17.7,21.95-30.89,39.74-39.46c26.14-12.39,47.17-31.17,65.92-52.79c39.2-48.88,83.23-92.94,132.09-132.18
			c16.79-7.91,31.78-23.17,52.99-12.96c13.67,2.78,31.72-9.05,39.92,11.97c-12.13,49.88-64.64,71.95-81.43,118.6
			c-6.41,9.46-14,17.97-21.6,26.45c-3.42,4.4-7.08,8.61-10.66,12.91c-3.19,4.69-6.67,9.12-10.18,13.58
			c-9.34,11.88-20.59,20.65-36.19,22.42C386.86,1052.76,353.55,1095.98,305.11,1104.59z"/>
		<path class="st19" d="M265.96,1078.41c0.09,13.3,0.18,26.61,0.27,39.91c-17.2,23.39-42.97,10.59-64.59,15.3
			C213.97,1104.6,232.72,1083.07,265.96,1078.41z"/>
		<path class="st19" d="M371.62,986.16c-11.89,42.37-21.06,49.71-65.92,52.79c5.92-23.07,33.61-29.68,39.74-52.59
			C354.17,986.3,362.9,986.23,371.62,986.16z"/>
		<path class="st12" d="M662.46,299.93c2.57,9.36,9.31,16.42,17.95,11.11c38.36-23.6,69.63-5.32,100.99,14.95
			c-37.4-2.12-42.5,29.67-51.63,53.28c-7.29,18.86-8.77,39.7-27.17,52.54c-8.98-4.5-17.96-9-26.94-13.5
			c-15.36-5.54-32.66-8.13-39.77-26.19c-0.02-4.31-0.02-8.61,0.01-12.92c-8.84-27.95-52.67-19.19-55.77-53.22
			c11.22-13.91,24.57-20.83,42.44-13.15C638.68,317.25,648.78,303.05,662.46,299.93z"/>
		<path class="st7" d="M622.57,312.83c-13.33,3.91-23.43,17.29-39.41,13.47c-4.47,6.33-8.89,6.3-13.27-0.09
			c9.74-29.61,16.63-59.49,8.33-90.76c29.92-4.46,44.73,8.44,44.52,38.68C622.65,287.02,622.62,299.93,622.57,312.83z"/>
		<path class="st19" d="M556.71,841.03c-15.96,11.31-33.67,15.44-52.99,12.96c23.95-28.79,43.81-61.69,79.29-78.9
			c-3.44,15.85,10.29,25.97,13.27,39.68C577.93,815.75,553.58,807.68,556.71,841.03z"/>
		<path class="st12" d="M332.4,273.54c7.87-0.92,12.27-5.32,13.19-13.2c8.58,0.05,17.16,0.11,25.73,0.16
			c1.42,9.91-1.71,21.77,11.41,26.67c0.43,17.38,0.85,34.75,1.28,52.13C333.5,333.69,333.5,333.69,332.4,273.54z"/>
		<path class="st18" d="M569.89,326.2c4.42,0.03,8.85,0.06,13.27,0.09c2.48,8.93,8.34,14.85,17.57,13.1
			c34.71-6.6,37.83,13.86,35.17,39.81c-24.81-5.76-51.78-6.45-69.23-29.49C567.75,341.87,568.82,334.04,569.89,326.2z"/>
		<path class="st4" d="M462.55,271.73c-13.43-4.35-24.16-13.2-22.32-27.01c1.67-12.54,11.25-24.82,25.99-22.72
			c13.02,1.85,23.97,11.98,22.29,26.42C486.93,261.87,476.65,270.14,462.55,271.73z"/>
		<path class="st20" d="M523.05,273.64c4.37,1.47,10.28,3.46,16.19,5.45c-3.25,6.31-9.08,6.73-15.13,6.64
			c-5.9-0.08-11.83-0.06-14.68-6.75C513.3,277.46,517.18,275.94,523.05,273.64z"/>
		<path class="st25" d="M636.36,458.65c3.77,34.84-4.45,63.68-39.6,79.01c-9.02-2.6-15.61-8-13.44-17.94
			c7.89-36.19,26.9-69.14,30.25-106.93c0.82-9.23,14.12-6.14,22.1-7.39C651.37,422.95,649.39,440.73,636.36,458.65z"/>
		<path class="st2" d="M636.36,458.65c-0.23-17.75-0.46-35.51-0.69-53.26c0.07-4.43,0.15-8.86,0.22-13.29
			c12.61,9.72,32.06,9.04,39.77,26.19c-8.33,2.63-14.19,7.48-13.31,17.01C664.16,454.96,652.56,459.27,636.36,458.65z"/>
		<path class="st1" d="M514.61,399.22c-1.46,1.27-3.01,3.64-4.34,3.52c-1.41-0.13-2.6-2.62-3.89-4.08c1.47-1.29,2.93-2.58,4.4-3.87
			C512.06,396.27,513.34,397.74,514.61,399.22z"/>
		<path class="st14" d="M503.72,973.52c10.97-55.6,54.71-85.92,92.9-120.52c8.76-0.44,17.53-0.87,26.29-1.31
			c10.25,20.5,14.78,44.74,37.41,57.13c-0.45,18.63,5.96,35.27,14.84,51.19l0.51-0.45c-12.59,9.78-27,16.79-39.79,26.25l0.3-0.1
			c-38.28,18.14-76.6,2.12-114.94,0.23C514.24,983.45,508.41,979.28,503.72,973.52z"/>
		<path class="st14" d="M701.92,735.53c-0.02-8.8-0.05-17.59-0.07-26.39c17.6-8.84,35.21-17.68,52.81-26.51
			c15.63,5.33,30.01,12.53,39.79,26.61c-1.1,12.74,5.48,30.84-6.39,36.89c-25.76,13.13-32.91,44.62-59.65,55.36
			C701.9,786.6,696.62,763.19,701.92,735.53z"/>
		<path class="st26" d="M794.44,709.24c-18.57-0.94-42.83,6.65-39.79-26.61c24.38-33.32,26.23-33.78,52.78-13.13
			c-0.09,4.43-0.19,8.87-0.28,13.3C807.25,693.7,802.14,702.1,794.44,709.24L794.44,709.24z"/>
		<path class="st25" d="M701.92,735.53c9.18,2.73,15.14,8.64,13.03,18.41c-3.98,18.51,6.41,32.44,13.44,47.54
			c-32.09-4.05-50.89-20.29-52.54-46.95C674.7,735.89,688.63,735.61,701.92,735.53z"/>
		<path class="st14" d="M794.43,709.25c0.39-10.67-3.26-23.28,12.72-26.45c8.21,2.27,15.11,6.33,11.92,16.11
			C815.11,711.08,803.85,708.58,794.43,709.25z"/>
		<path class="st28" d="M517.85,974.49c40.53-7.64,80.01-4.32,118.34,11.23c5.44,26.68,21.06,51.08,17.74,79.71
			c-4.78,3.94-10.26,5.26-16.34,4.35c-10.95-5.6-16.74-15.74-22.74-25.66c-8-14.36-18.17-26.65-33.26-34.15
			c-9.99-4.7-20.58-7.12-31.48-8.56c-11.74-1.48-23.24-3.58-32.84-11.23C513.33,984.79,513.54,979.56,517.85,974.49z"/>
		<path class="st26" d="M622.65,1210.6c-0.17-13.65-0.35-27.3-0.52-40.96c-3.98-14.2,2.75-21.3,15.97-24.11
			C657.72,1186.49,654.62,1199.57,622.65,1210.6z"/>
		<path class="st5" d="M637.51,1064.71c5.47,0.24,10.94,0.48,16.41,0.72c19.61,28.43-2.74,46.76-16.18,67.23
			c-2.77-2.45-5.54-4.89-8.34-7.32C619,1103.38,617.34,1082.58,637.51,1064.71z"/>
		<path class="st26" d="M477.46,1263.49c-2.88-33.34,21.36-25.34,39.82-26.14C519.99,1270.43,496.07,1262.92,477.46,1263.49z"/>
		<path class="st19" d="M635.88,985.82c6.56-18.92,19.93-27.5,39.79-26.25C667.91,976.65,658.11,990.66,635.88,985.82z"/>
		<path class="st21" d="M638.1,1145.53c-5.32,8.04-10.65,16.07-15.97,24.11c-4.84,0.66-9.68,1.31-14.52,1.97
			c-10.63-16.88-3.94-29.8,9.39-41.22c6-2.98,11.82-2.78,17.41,1.1l3.33,1.17C636.72,1136.98,636.84,1141.28,638.1,1145.53z"/>
		<path class="st23" d="M517.47,995.24c11.45-1.63,22.89-3.26,34.34-4.89c6.56-0.31,10.49,2.6,11.39,9.27
			c-0.5,9.08-4.52,16.66-9.89,23.66c-13.35,15.35-19.89,33.22-19.42,53.67c-0.51,23.92-0.44,47.76,1.1,71.62
			c0.83,12.4,2.73,24.96-5.29,36.02c-4.14-0.17-8.29-0.25-12.44-0.23c-29.27,12.76-53.18-6.92-79.31-13.1
			c-15.37-14.67-35.16-27.14-26.8-53.66c-6.96-7.09-5.83-16.23-6.32-24.97c0.25-22.84,6.61-41.43,32.36-46.51
			c9.26-8.78,18.52-17.56,27.78-26.35c1.46-8.39,6.2-14.51,13.2-19.07l0.41-0.16C490.16,988.59,503.16,987.1,517.47,995.24z"/>
		<path class="st15" d="M545.61,1012.76c3.32-3.28,6.64-6.57,9.95-9.85c7.3-10.82,15.58-11.31,24.77-2.37
			c24.03,1.95,40.04,12.95,43.26,38.38c7.81,30.87,10.3,61.67-1.25,92.29c-4.46,13.63-16.32,24.57-14.73,40.41l-6.34,1.33
			c-25.62,6.46-50.93,10.91-71.91-11.48c-10.45-23.71-3.46-48.71-5.29-72.94c0.91-6.78,4.61-11.22,11.4-12.81
			c18.57,0.14,18,35.2,35.47,25.36c13.71-7.72,3.15-26.44-7.56-37.91c-9.02-7.9-19.23-14.57-25.06-25.52
			C537.13,1028.28,536.52,1019.09,545.61,1012.76z"/>
		<path class="st26" d="M437.19,1046.11c-8.52,15.19-17.04,30.38-25.56,45.57c-4.43,6.51-8.97,6.9-13.64,0.25
			c-18.89-3.36-34.66,8.13-46.67,17.49c-19.86,15.46-31.4,0.27-46.2-4.83c31.75-34.27,74.87-51.85,113.47-75.85
			C430.77,1021.17,435.53,1035.14,437.19,1046.11z"/>
		<path class="st18" d="M437.94,1171.25c28.31-6.99,52.4,11.64,79.31,13.1C484.15,1205.2,480.94,1204.67,437.94,1171.25z"/>
		<path class="st10" d="M528.23,1157.65c21.97,16.44,47.76,14.67,73.04,15.29c-20.77,22.91-47.38,9.89-71.58,11.64
			c-0.57-10.52-14.32-15.81-11.05-27.85C522.37,1151.57,525.57,1151.88,528.23,1157.65z"/>
		<path class="st4" d="M397.99,1091.93c4.55-0.08,9.1-0.17,13.64-0.25c-0.16,8.63-0.32,17.27-0.48,25.9
			C394.77,1115.19,399.36,1102.03,397.99,1091.93z"/>
		<path class="st3" d="M358.76,1329.75c-0.76,7.97-5.13,12.35-13.09,13.16c0.07-4.57,0.13-9.15,0.2-13.72
			C350.16,1329.56,354.46,1329.75,358.76,1329.75z"/>
		<path class="st5" d="M517.47,995.24c-12.03,8.62-25.19,8.99-38.89,5.29c0.11-16.7,13.46-21.08,25.15-27.01
			c4.71,0.32,9.42,0.65,14.12,0.97C517.72,981.41,517.6,988.32,517.47,995.24z"/>
		<path class="st5" d="M478.16,1000.69c1.82,10.66-6.4,14.37-13.2,19.07C463.06,1009.04,464.05,1000.33,478.16,1000.69z"/>
		<path class="st10" d="M622.34,1131.2c0.42-30.76,0.83-61.52,1.25-92.29c14.36,3.35,11.63,15.93,13.93,25.79
			c-1.04,22.26-2.07,44.52-3.11,66.78C630.39,1131.4,626.36,1131.31,622.34,1131.2z"/>
		<path class="st5" d="M580.33,1000.54c-8.26,0.79-16.51,1.58-24.77,2.37c-1.25-4.19-2.5-8.38-3.75-12.56
			C563.2,988.48,577.36,978.85,580.33,1000.54z"/>
		<path class="st27" d="M528.23,1157.65c-3.24,0.13-6.43-0.18-9.59-0.92c-0.27-30.15-0.54-60.29-0.81-90.44
			c11.25-4.12,14.71,1.36,14.31,11.61C530.85,1104.48,529.54,1131.07,528.23,1157.65z"/>
		<path class="st10" d="M532.16,1077.9c-2.73-6.39-6-12.11-14.31-11.61c0.39-22.44,5.66-42.35,27.77-53.53
			c0.31,9.6,0.63,19.21,0.94,28.81c7.05,9.36,8.33,19.52,4.22,30.43c-1.65,2.13-3.34,4.24-5.02,6.36
			C541.22,1078.21,536.69,1078.05,532.16,1077.9z"/>
		<path class="st29" d="M568.48,1048.62c13.36,0.48,27.08,1.66,28.35,18.85c0.94,12.84,2.92,27.61-2.17,38.39
			c-6.49,13.72-7.67,38.53-29.87,34.96c-15.25-2.46-21.43-19.62-20.05-36.51c0.7-8.62,0.7-17.3,1.01-25.95l-0.26-0.79
			C552.62,1067.51,555.59,1054.12,568.48,1048.62z"/>
		<path class="st18" d="M568.48,1048.62c-1.18,14.8-8.65,24.6-22.99,28.95c0.35-12,0.71-24,1.06-36.01
			C555.25,1039.59,563.88,1037.85,568.48,1048.62z"/>
	</g>
</g>
</svg>
