<?xml version="1.0" encoding="utf-8"?>
<!-- Generator: Adobe Illustrator 23.1.0, SVG Export Plug-In . SVG Version: 6.00 Build 0)  -->
<svg version="1.1" id="Calque_1" xmlns="http://www.w3.org/2000/svg" xmlns:xlink="http://www.w3.org/1999/xlink" x="0px" y="0px"
	 viewBox="0 0 1125 1168.99" style="enable-background:new 0 0 1125 1168.99;" xml:space="preserve">
<style type="text/css">
	.st0{fill:#0D5011;}
	.st1{fill:#115212;}
	.st2{fill:#F9D7B0;}
	.st3{fill:#E9B68B;}
	.st4{fill:#D4956C;}
	.st5{fill:#078302;}
	.st6{fill:#04BE02;}
	.st7{fill:#0C5A0D;}
	.st8{fill:#049100;}
	.st9{fill:#0B6A0A;}
	.st10{fill:#BC7C58;}
	.st11{fill:#03A000;}
	.st12{fill:#FCF1D0;}
	.st13{fill:#097506;}
	.st14{fill:#0EAF10;}
	.st15{fill:#7E1A06;}
	.st16{fill:#DBA078;}
	.st17{fill:#104714;}
	.st18{fill:#120C04;}
	.st19{fill:#8F6550;}
	.st20{fill:#9A563F;}
	.st21{fill:#F2F8F0;}
	.st22{fill:#0D2206;}
	.st23{fill:#424341;}
	.st24{fill:#DEA67E;}
	.st25{fill:#898989;}
	.st26{fill:#3AEB81;}
	.st27{fill:#CA9271;}
	.st28{fill:#3D0B02;}
</style>
<g>
	<g>
		<path class="st0" d="M1023.81,417.79c29.73,59.92,49.11,123.24,65.34,188.01c9.83,39.26,19.22,79.07,30.7,117.27
			c10.15,33.78,3.64,59.51-5.3,88.81c-21.78,71.46-70.57,119.89-131.83,158.49c-8.54,5.38-16.2,2.74-24.34,3.34
			c-18.86-38.44,17.53-72.03,9.4-109.47c2.02-41.44-21.07-72.78-42.37-104.79c-62.2-89.67-147.71-151.25-242.65-201.5
			c-7.82-4.87-14.11-11.27-19.11-18.96c-20.94-52.74-82.86-54.98-115.46-93.4c-18.16-27.33-49.19-40.48-70.64-63.96
			c-27.88-30.52-20.87-48.89,20.5-53.5c42.43,8.32,68.35,44.5,105.13,62.37c4.79,2.79,9.29,6.1,13.63,9.53
			c12,10.32,23.49,21.37,37.17,29.68c4.46,2.63,8.65,5.66,12.74,8.81c6.09,4.65,11.81,9.78,17.58,14.83
			c7.93,6.46,16.29,12.32,25.01,17.76c4.64,2.71,8.95,5.8,13.2,9.08c4.47,3.26,8.61,6.82,12.72,10.51c2.15,1.83,4.14,3.76,6.3,5.59
			c4.45,3.68,8.59,7.6,12.77,11.53c81.4,66.9,178.2,43.08,224.63-54.98C987.8,434.12,987.77,402.4,1023.81,417.79z"/>
		<path class="st1" d="M506.01,340.16c-8.37,0-16.76,0.43-25.09-0.12c-7.67-0.5-11.48,3.69-12.94,9.97
			c-1.47,6.34,0.51,14.08,6.8,15.17c30.22,5.24,39.59,40.33,69.72,46.84c13.15,2.84,15.15,18.32,13.34,31.66
			c-30.73,23.83-57.09,1.77-83.35-9.37c-79.08-33.54-158.83-47.05-243.91-23.11c-71.38,20.09-79.21,30.37-60.58,103.09
			c10.8,42.17,23.55,85.42-33.18,106.91c-16.08,0.39-24.48-10.25-31.98-22.19c-18.58-24.87-37.36-50.17-53.94-75.8
			c-25.05-38.72-51.4-77.81-50.9-129.85c0.65-67.57-3.18-67.6,13.83-92.06c6.81-8.01,12.4-16.93,18.89-25.17
			c1.6-5.05,4.09-9.62,7.33-13.8l-0.09,0.09c7.15-7.27,19.17-4.88,25.87-13.03l0.03-0.03c72.12-31.88,145.59-32.14,219.05-6.57
			c54.69,19.03,109.83,35.26,167.46,42.23c19.38,6.64,39.2,12.46,54.45,27.35C512.66,321.8,514.22,331.13,506.01,340.16z"/>
		<path class="st2" d="M91.06,858.29c-17.11-3.17-11.17-16.18-11.36-26.58c9-44.77,45.96-53,81.66-59.01
			c61.07-10.28,102.08-40.56,115.4-103.19c3.31-6.03,7.95-10.66,13.85-14.12c9.31-4.61,19.19-6.96,29.44-8
			c47.49-1.7,95.28-5.53,139.61,17.58c20.8,14.27,24.37,58.66,65.65,37.42c61.21-1.93,80.75,47.4,107.89,87.48
			c7.12,57.36-32.11,86.05-72.78,110.67c-30.16,18.26-58.52,5.5-79.75-20.4c-27.22-33.2-60.94-61.05-82.65-98.7
			c-18.68-32.38-32.27-29.56-55.47-0.78C278.57,860.02,173.21,890.52,91.06,858.29z"/>
		<path class="st3" d="M91.06,858.29c48.99,8.87,96.95-7.52,142.65-16.49c52.79-10.36,96.68-49.88,117.11-105.96
			c9.45-25.92,12.82-26.75,31.14-8.6c3.05,3.02,7.98,5.64,8.8,9.19c14.15,61.24,75.89,87.04,103.06,139.04
			c14.56,27.87,45.8,30.23,69.34,9.07c15.93-14.33,29.35-31.61,45.99-44.94c16.5-13.22,12.79-29.97,13.47-46.51
			c24.14-16.47,39.85-7.57,50.54,16.67c16.08,67.36-31.71,107.06-66.13,152.61c-11.44,12.65-25,21.03-42.75,20.67
			c-12.46-1.02-24.5-4.41-36.63-7.26c-18.35-4.23-33.08-13.99-44.17-29.2c-17.04-21.88-28.06-48.49-51.23-65.44
			c-93.45,73.58-62.73,19.51-122.43-24.25c-24.68,10-45.08,27.16-68.59,38.95c-34.28,14.06-69.05,22.41-105.67,9.28
			c-6.53-1.63-12.52-4.42-17.97-8.36C98.36,891.09,90.42,877.64,91.06,858.29z"/>
		<path class="st4" d="M285.96,1091.05c-34.31-15.44-43.29-51.59-63.91-78.22c13.96-15.74-5.65-36.5,7.76-52.31
			c27.1-18.92,70.29-12.85,83.42-53.65c35.81,0.27,91.6-34.27,79.21,48.27c-4.1,27.33,20.85,29.55,39.79,26.87
			c33.67-4.77,67.26-5.8,101.09-5.33c9.58-0.25,18.19,3.02,26.55,7.24c24.4,50.15,68.01,87.48,92.18,137.84
			c-5.55,14.99-17.53,17.91-31.62,16.93c-48.7-6.31-96.98-12.56-135.24-49.14c-20.84-19.92-47.16-16.12-72.8-9.29
			C370.92,1091.29,329.17,1099.91,285.96,1091.05z"/>
		<path class="st4" d="M984.92,857.86c9.82,42.9-17.01,77.4-26.54,115.87l0.16-0.11c-3.77,4.53-7.88,4.85-12.31,0.97
			c-49.76,37.78-104.9,57.89-168.2,51.21c-7.34,7.6-15.95,8.19-25.32,4.63c-21.76-23.04-14.19-47.58,0.38-68.95
			c19.83-29.08,4.43-46.21-16.09-63.52c22.34-51.34,56.63-94.9,90.51-138.81c16.94-10.24,34.29-18.17,54.34-8.7
			c26.77,41.56-9.55,61.13-30.08,86.31c-5.34,6.56-10.93,13.36-7.68,22.94c2.08-3.63,2.72-9.25,5.67-11.21
			C915.24,804.95,930.25,806.09,984.92,857.86z"/>
		<path class="st5" d="M506.01,340.16c-0.46-9.15-0.92-18.3-1.38-27.45c1-2.69,2-5.38,2.95-8.11c3.1-5.03,6.91-9.43,11.26-13.47
			c2.38-1.87,4.79-3.6,7.18-5.47c10.67-6.88,22.45-10.38,34.96-11.9c39.66-3.53,76.12,12.39,114.16,18.68
			c83.93,13.87,123.34-22.08,116.87-106.15c-2.42-31.49-14.08-64.21,11.78-92.1c17.81,8.07,30.74,21.03,38.83,38.83
			c9.84,12.15,12.75,28.96,26,38.83c8.58,0.07,12.8,4.46,12.84,12.98c-3.12,31.8-7.46,63.46-10.72,95.25
			c-10.57,103.19-70.32,140.36-167.85,107.71c-33.77-11.31-69.86-30.12-93.29,17.12c-32.14-5.4-55.34-25.89-78.76-46.25
			C523.07,351.9,518.6,340.48,506.01,340.16z"/>
		<path class="st6" d="M324.31,81.1c30.57-43.55,81.18-48.1,125.68-64.5C498.24-1.2,548.56,4.3,598.32,3.71
			c12.54-0.15,77.33,18.94,89.04,25.63c27.88,83.09-19.71,155.61-108.33,165.23c-29.25-9.17-33.91-37.17-45.71-59.67
			c-3.17-4.96-6.39-9.96-10.03-14.59c-2.17-1.93-4.14-4.1-6.32-6.04c-4.93-3.27-9.74-6.64-14.81-9.67
			c-48.73-28.44-100.42-19.01-151.94-12.15C340.11,91.99,331.11,89.03,324.31,81.1z"/>
		<path class="st7" d="M1023.81,417.79c-11.89,0.8-27.43-3.8-25.87,17.16c2.58,34.57-16.51,58.44-39.43,80.52
			c-10.52,10.13-19.5,19.14-37.22,20.04c-14.6,0.74-30.9,11.19-42.23,21.82c-14.07,13.2-30.92,22.79-47.29,27.26
			c-17.94,4.9-24.71-19.9-38.75-28.44c-20.91-12.72-44.9-21.7-53.98-47.71c-4.52-4.12-8.38-8.89-12.94-12.96l0,0
			c-4.19-4.43-8.5-8.75-12.94-12.93l-0.01-0.01c-13.71-23.32,0.9-31.37,20.07-34.76c17.72-3.13,33.44,5.99,49.68,11.68
			c89.06,31.16,154.51-23.97,142.14-117.68c-4.58-34.69-30.33-69.06-4.73-105.25c37.59,14.22,38.94,55.91,58.93,83.17
			C999.28,347.03,1021.06,379.72,1023.81,417.79z"/>
		<path class="st8" d="M803.79,94.18c3.06,35.13-3.25,69.82,11.09,105.69c10.14,25.37-5.82,56.49-22.82,80.07
			c-18.13,25.13-41.62,36.04-76.08,36.37c-34.7,0.33-66.93-10.43-97.48-18.33c-25.18-6.51-49.3-5.76-73.64-9.61
			c-10.91-12.29-11.63-25.6-4.07-39.74c4.93-5.14,10.82-8.88,17.51-11.29c18.64-5.86,38.15-4.27,57.3-6.1
			c80.18-7.65,110.31-36.98,118.6-115.79c2.23-21.18,0.44-43.33,17.76-59.95C769.26,68.36,796.97,67.27,803.79,94.18z"/>
		<path class="st9" d="M920.29,236.5c-6.37,29.97,10.86,56.15,16.13,83.91c12.95,68.16,15.25,81.56-16.19,126.89
			c-28.46,41.03-90.56,57.12-135.24,34.75c-16.27-8.14-31.36-19.65-48.44-24.89c-20.16-6.19-25.51,7.61-23.4,25.34
			c-19.99,2-33.3-6.06-38.82-25.81c-4.5-4.16-8.37-8.94-12.96-13l0.01,0.01c-12.42-8.12-22.26-17.51-16.92-34.37
			c24.55-28.98,53.7-17.84,83.13-10.31c108.64,27.8,141.78,2.93,149.58-108.37c1.74-24.85-9.81-58.42,30.27-67.07
			C915.99,223.64,920.25,227.96,920.29,236.5z"/>
		<path class="st10" d="M285.96,1091.05c0-7.24,4.21-13.59,10.47-13.32c48.29,2.09,94.36-4.05,139.48-23.88
			c18.54-8.15,40.54-3.95,56.6,16.18c26.07,32.68,59.15,52.11,103.75,47.24c8.5-0.93,18.12,8.33,27.22,12.88
			c1.48,10.63-2.46,15.55-13.59,12.85c-81.7,35.72-165.53,29.18-249.87,12.61C339.04,1129.84,298.68,1126.3,285.96,1091.05z"/>
		<path class="st11" d="M751.97,55.48c0.01,23.41,0.13,46.82,0,70.22c-0.4,70.36-47.35,120.2-117.51,123.64
			c-25.48,1.25-51.06,0.2-76.6,0.2c-17.49-25.9-17.93-48.41,12.89-64.68c45.97,1.16,77.54-19.68,94.9-62.17
			c12.24-29.95,25.64-59.64,21.71-93.35C716.54,19.16,730.8,45.87,751.97,55.48z"/>
		<path class="st12" d="M285.76,664.69c-1.24,73.99-23.61,99.96-98.6,115.53c-19.69,4.09-37.25,13.43-58.94,14.36
			c-19.62,0.85-33.29,23.03-48.52,37.13c-0.3-4.29-0.25-8.63-0.96-12.85c-9.64-57.29,14-102.33,52.13-142.07
			c2.07-10.54,8.38-17.66,17.85-22.3c12.58-5.17,25.83-6.72,39.29-7.27c20.32-0.49,40.65-0.97,61.01,0.25
			C263.22,649.04,276.71,652.18,285.76,664.69z"/>
		<path class="st13" d="M907.43,223.6c-10.58,0.89-13.56,7.04-13.38,17.05c0.5,27.92-1.57,56,0.72,83.74
			c3.8,46.02-22.26,76.65-54.6,100.01c-19.95,14.41-48.22,8.59-72.86,1.78c-33.47-9.25-65.93-22.9-101.75-21.69
			c-9.84,0.33-16.26,2.61-17.11,13.31c-17.08,8.1-26.4-7.11-38.86-12.91l0.01,0.01c-4.36-9.14-10.8-17.9-12.57-27.52
			c-2.39-13-0.77-23.21,18.53-24.95c43.45-3.91,80.68,13.92,118.62,29.23c36.51,14.73,63.6,15.07,83.82-12.32
			c17.61-23.85,37.97-49.06,37.58-82.36c-0.25-21.51,0.61-43.05-0.23-64.53c-0.77-19.68,6.94-32.34,26.12-37.62
			C901.16,190.35,909.21,203.69,907.43,223.6z"/>
		<path class="st14" d="M452.69,301.73c-20.46,1.6-40.69-25.32-61.34-0.51c-26.15-10.52-53.1-19.43-78.27-31.94
			c-39.09-19.43-83.61-15.99-123.54-31.95c-10.99-4.39-29-5.54-37.41,0.59c-27.65,20.13-57.63,7.98-86.25,11.45
			c13.64-36,48.95-35.09,76.22-36.94c37.91-2.58,69.55-5.11,82.01-48.19c2.54-8.78,14.86-4.48,22.81-5.57
			c1.79,2.22,3.59,4.44,5.41,6.64c-3.01,29.74,9.84,45.25,40.48,44.74c15.8,2.73,30.6,8.28,45.31,14.23
			c25.43,12.14,52.88,9.15,79.73,11.94C459.12,240.49,482,258.17,452.69,301.73z"/>
		<path class="st10" d="M311.9,909.63c0.05,4.29-0.82,8.83,0.29,12.81c8.15,29.25,4.53,37.28-20.11,38.7
			c-19.22,1.11-38.56,0.25-57.85,0.26c-14.84,8.16-18.65-5.97-26.03-12.89c-31.22-2.07-54.51-20.09-77.59-38.56
			c-3.24-2.98-4.31-5.94-3.2-8.9c1.1-2.94,2.2-4.41,3.29-4.41c40.34,9.34,77.17-12.72,116.43-13.02
			c27.55-19.01,45.15-3.07,61.49,17.45C309.76,903.91,310.83,906.77,311.9,909.63z"/>
		<path class="st14" d="M324.31,81.1c8.65,0.02,17.31,0.03,25.96,0.05c8.85,18.55-8.76,21.99-17.34,30.67
			c-4.42,3.16-9.06,5.95-13.78,8.64c-16.86,8.17-31.35,23.52-52.87,17.82c-2.1-1.78-4.2-3.58-6.3-5.39
			C276.46,109.48,290.14,82.57,324.31,81.1z"/>
		<path class="st15" d="M751.9,1025.56c8.71,0.08,17.42,0.15,26.12,0.23c-6.31,33.79-17.82,45.39-51.76,52.18l-1.1-1.75
			C714.22,1048.85,719.72,1030.17,751.9,1025.56z"/>
		<path class="st3" d="M208.2,948.51c8.68,4.3,17.35,8.59,26.03,12.89c0.09,11.93-0.18,23.87,0.39,35.77
			c0.45,9.37-2.87,14.86-12.57,15.66C222.2,990.36,202.31,972.21,208.2,948.51z"/>
		<path class="st1" d="M145.81,664.77c-2.13,7.55-6.8,11.93-14.94,12.02c-19.73-5.63-28.15-18.79-25.99-39
			c7.31-7.4,15.86-8.12,25.21-4.72C141.1,640.77,146.11,651.46,145.81,664.77z"/>
		<path class="st9" d="M130.72,637.79c-8.61,0-17.22-0.01-25.83-0.01c-0.01-12.92-0.02-25.85-0.03-38.77
			c8.62,4.31,17.23,8.62,25.85,12.92C138.45,620.55,137.49,629.17,130.72,637.79z"/>
		<path class="st13" d="M868.62,171.83c-35.83,5.25-24.19-21.29-26-38.83C862.24,138.61,870.41,151.89,868.62,171.83z"/>
		<path class="st11" d="M40.19,275.44c-3.43,14.08-11.9,23.02-26.36,25.86c1.77-9.99-4.97-24.31,13.2-25.96
			C31.46,270.73,35.84,270.99,40.19,275.44z"/>
		<path class="st14" d="M246.92,158.66c1.34-10.11-4.94-24.09,13.05-25.76l2.31,2.19c5.52,14.26,4.42,24.6-14.45,24.43
			L246.92,158.66z"/>
		<path class="st14" d="M65.84,249.39c-1.17,19.14-15.7,11.76-25.87,13.03C41.68,244.36,55.59,250.51,65.84,249.39z"/>
		<path class="st16" d="M130.71,896.64c-0.03,4.44-0.06,8.87-0.09,13.31c-8.33-0.46-12.87-4.67-13.04-13.2
			C121.96,896.72,126.33,896.68,130.71,896.64z"/>
		<path class="st0" d="M946.23,974.58c4.07-0.73,8.18-1.05,12.31-0.97c0.09,5.66,0.13,12.02-7.76,10.97
			C948.85,984.33,947.72,978.08,946.23,974.58z"/>
		<path class="st14" d="M40.19,275.44c-4.39-0.03-8.77-0.06-13.16-0.1c0.15-8.53,4.49-12.87,13.02-13.01
			C40.1,266.7,40.15,271.07,40.19,275.44z"/>
		<path class="st17" d="M130.72,637.79c-0.01-8.62-0.01-17.24-0.02-25.86c6.41-0.28,12.82-0.56,19.23-0.85
			c-3.47-24.39,36.55-44.41,7.16-71.4c5.49-24.13-13.87-41.7-16.94-64.51c-4.01-29.85,1.08-43.04,23.93-61.06
			c16.22-12.79,39.38-1.48,50.67-20.81c48.02,1.06,94.29-25.28,142.07-13.51c46.65,11.49,94.99,19.38,137.41,45.07
			c19.24,11.65,39.31,23.09,63.62,18.81c24.52,12.94,48.62,26.79,73.7,38.55c23.14,10.85,44.69,21.61,42.67,52.35
			c-20.94,17.05-39.41,0.99-58.39-4.75c-21.84-6.6-43.06-17.53-66.18-4.72c-5.66,1.82-11.43,2.37-17.33,1.7
			c-18.9-6.82-36.84-16.56-57.32-18.79c-5.93-0.89-11.7-2.28-17.47-3.76c-32.78-8.61-66.25-3.59-99.33-5.13
			c-11.81,0.07-23.64-0.34-35.4,1.12c-5.7,1.23-11.42,2.38-17.06,3.86c-5.55,1.83-11.21,3.2-16.87,4.56
			c-85.42,10.12-89.46,75.99-96.01,140.14c-2.94,5.27-6.7,9.88-11.21,13.87c-11.95,0.7-23.89,1.39-35.84,2.09
			C126.6,663.71,131.23,649.31,130.72,637.79z"/>
		<path class="st18" d="M881.18,754.72c-19.69-5.12-32.26,16.52-51.35,13.66c-5.02-3.25-9.18-7.36-12.45-12.39
			c-24.51-31.95-36.5-82.29-94.96-64.22c-11.79-6.75-18.87-17.3-24.28-29.33c-9.33-37.85-40.44-73.67-10.98-115.19
			c33.78-0.89,55.72,26.07,80.31,40.95c63.14,38.21,115.26,92.12,164.83,147.27c3.26,3.63,0.74,12.44,0.91,18.84
			C915.99,770.05,898.62,767.22,881.18,754.72z"/>
		<path class="st19" d="M687.16,547.26c-8.35,42.6,22.38,76.57,25.72,116.59c-46.98,15.89-71.41-26.44-105.63-42.46
			c-20.4-9.55-37.41-27.54-53.55-44.56c-11.44-17.15-12.72-35.94-8.75-55.53c-1.88-17.09,2.18-31.5,22.82-25.32
			c26.56,7.95,52.88,17.92,77.53,30.48c9.84,5.02,18.43,8.25,28.91,8.12C674.33,543.1,678.75,547.21,687.16,547.26z"/>
		<path class="st20" d="M881.18,754.72c17.34-0.13,34.68-0.27,52.03-0.4c33.04,30.76,47.35,59.41,51.71,103.54
			c-8.09-1.33-17.93,3.59-23.97-5c-21.49-30.58-53.66-20.16-82.18-20.46c-14.72-0.16-23.85,21.15-16.74,37.55
			c3.39,7.82,10.72,15.8,2.92,21.9c-12.48,9.77-29.06,7.6-42.07,2.11c-11.23-4.73-8.55-19.94-4.9-28.56
			c9.86-23.3,24.39-44.44,44.86-59.75C880.92,792.13,883.1,774.56,881.18,754.72z"/>
		<path class="st5" d="M609.58,404.88c16.29-5.74,25.24,10.61,38.86,12.91c4.31,8.64,8.62,17.27,12.93,25.91
			C633.02,445.56,620.93,425.71,609.58,404.88z"/>
		<path class="st9" d="M726.1,495.46c8.66-0.02,12.95,4.33,12.94,12.96C730.43,508.39,726.09,504.09,726.1,495.46z"/>
		<path class="st9" d="M713.16,482.52c8.64-0.02,12.95,4.3,12.94,12.93C717.47,495.46,713.14,491.16,713.16,482.52z"/>
		<path class="st5" d="M661.36,443.7c8.7-0.04,12.98,4.34,12.96,13C665.73,456.62,661.35,452.35,661.36,443.7z"/>
		<path class="st21" d="M324.14,107.13c1.02-9.69,6.65-13.05,16.07-13.57c6.51-0.36,9.89-5.66,10.06-12.41
			C408.1,60.31,464.31,59.3,517.55,94.78c5.24,3.76,10.32,7.68,13.65,13.38l-0.27-0.21c5.16,4.59,7.77,10.34,7.85,17.24
			c15.38,30.26,19.22,61.93,11.6,94.99c-13.12,25.73-13.5,56.67-32.65,79.95l0.1-0.05c-2.69,5.96-7.67,9.68-12.87,13.19l-0.32-0.57
			c-19.68,7.53-35.69-2.3-51.94-10.97c-0.03-55.39-4.52-64.2-48.09-49.59c-34.22,11.48-54.1-4.07-78.72-16.42
			c-18.71-22.47-5.14-45.35,0.7-67.12C332.31,147.24,338.26,127.16,324.14,107.13z"/>
		<path class="st16" d="M285.76,664.69c-12.96-0.58-25.92-1.16-38.88-1.74c-4.16-4.66-7.46-9.86-9.95-15.6
			c-5.3-36,10.95-66.49,24.89-97.62c3.16-5.43,6.95-10.38,11.22-14.98c4.38-4.5,9.28-8.39,14.43-11.97
			c21.59-12.32,41.72-28.51,68.78-26.98c55.03-7.63,93.46,11.02,132.62,54.87c74.01,82.88,177.15,133.95,255.27,213.98
			c7.37,11.87,9.94,24.99,10.36,38.71c0.26,6.86-0.46,13.63-1.85,20.34c-9.37,29.52-28.37,44.8-60.42,40.54
			c-20.58-8.01-14.91-33.98-30.83-45.25c5-35.48-21.29-24.11-38.79-25.91c-4.22-18.26-21.34-25.52-32.72-37.58
			c-3.66-3.88-15.97-4.58-15.88-6.29c2.5-47.13-33.62-30.38-56.71-34.87c-12.49-11.87-11.66-26.33-8.14-41.3
			c3.17-6.04,5.48-12.49,7.48-18.43c-4.33,0.94-6.18,3.24-5.66,7.86c-1.74,4.4-4.48,7.49-8.43,9.77
			c-10.92,5.39-21.56,11.9-34.03,4.68c-28.07,5.85-50.62-17.42-79.13-13.88c-25.39,3.15-51.47,0.75-77.24,0.8
			c-8.54-29.42-17.37-9.99-26.14-0.16L285.76,664.69z"/>
		<path class="st22" d="M519.53,663.8c-0.74,16.85-1.48,33.69-2.22,50.54c-16.46,3.85-21.32,32.55-39.4,24.96
			c-21.73-9.12-7.26-32.79-10-49.86c-0.65-4.04,0.37-8.34,0.62-12.53c12.81-3.7,22.27-17.05,37.74-13.09
			C510.68,659.35,515.1,659.34,519.53,663.8z"/>
		<path class="st23" d="M286.02,663.68c-1.87-20.27,10.82-33.89,22-48.2c9.12,15.46,1.35,32.36,4.14,48.35
			C303.45,663.79,294.73,663.73,286.02,663.68z"/>
		<path class="st24" d="M661.4,818.99c35.85-5.04,23.87,21.63,25.89,39.03c10.94,21.29,38.32,20.57,51.69,38.6
			c6.35,0,13.02-1.27,19.01,0.21c35.94,8.88,45.88,32.38,20.21,56.19c-22.82,21.17-30.18,43.77-26.3,72.54
			c-17.77,12.21-24.88,30.04-26.74,50.65c-15.76-3.4-24.02,12.01-37.3,14.84c-73.34-13.04-70.61-79.57-91.2-129.71
			c-5.2-24.14,14.62-34.15,27.89-46.75C652.29,888.24,666.08,857.41,661.4,818.99z"/>
		<path class="st16" d="M531.96,987.25c-0.67,10.79-9.58,17.25-16.43,12.3c-19.31-13.96-33.75-13.05-56.13-2.12
			c-18.93,9.24-45.79,4.34-68.86,2.42c-21.61-1.8-34.24-28.64-23.24-47.24c5.29-8.95,14.63-15.41,21.04-23.83
			c2.04-2.69,2.3-10.11,0.34-11.78c-4.3-3.65-14.63-7.94-15.41-6.87c-21.04,29.26-41.1-8.17-61.37-0.5l-0.01-0.01
			c-16.51-21.59-17.49-43.17,0.04-64.74c-0.52-10.19,7.84-14.74,14.02-19.77c4.29-3.49,12.17-6.66,16.61-5.02
			c9.02,3.34,10.9,12.06,5.39,20.21c-5.7,8.43-16.62,15.91-6.34,26.86c9.97,10.62,21.42,19.95,32.94,28.93
			c1.86,1.45,9.27-0.68,10.95-3.24c4.36-6.63,6.49-14.68,10.34-21.71c17.92-32.7,18.02-32.64,45.53-0.4
			c14.06,24.12,20.79,54.11,51.76,64.72c5.48,19.82,18.83,27.85,38.83,25.89C539.59,970,539.65,978.62,531.96,987.25z"/>
		<path class="st16" d="M596.66,961.35c15.6,4.43,21.68,14.88,26.7,30.6c12.28,38.42,23.48,78.87,64.5,99.11
			c-6.45,18.04-18.97,27.16-38.41,26.11c-47.38-31.43-84.82-69.87-91.61-129.92c-3.27-2.88-4.35-5.76-3.26-8.64
			c1.09-2.88,2.17-4.32,3.27-4.32C574.12,979.98,583.06,963.67,596.66,961.35z"/>
		<path class="st4" d="M311.93,844.88c-0.01,21.58-0.02,43.16-0.04,64.74c-7.89-1.09-21.31,3.23-22.56-4.83
			c-4.48-28.94-25.5-19.72-42.2-21.16C259.11,854.61,285.02,848.91,311.93,844.88z"/>
		<path class="st24" d="M493.13,935.48c-43.53-2.07-48.76-8.61-51.76-64.72C469.9,883.31,474.19,915.25,493.13,935.48z"/>
		<path class="st24" d="M557.85,974.29c0,4.32,0,8.64,0,12.96c-8.63,0-17.26,0-25.88,0c0-8.63,0-17.26-0.01-25.88
			C542.05,962.74,556.3,955.79,557.85,974.29z"/>
		<path class="st20" d="M338.25,1038.99c-1.79,3.59-3.58,7.18-5.38,10.76c-2.73-2.05-5.89-3.74-8.01-6.29
			c-1.07-1.28,0.04-4.18-0.33-6.26c-2.02-11.39-20.12-17.98-9.87-32.97c0.78-1.15,3.45-2.46,4.13-2.01
			C331.95,1010.87,341.18,1021.76,338.25,1038.99z"/>
		<path class="st15" d="M738.98,896.62c-12.18-0.05-24.53,1.17-36.49-0.47c-14.95-2.05-22.02-21.34-15.2-38.13
			c22.31-6.31,52.13-2.62,51.85-38.98c4.44-4.58,8.08-9.72,10.92-15.45c11.73-40.23,24.36-78.99,79.41-49.11
			c0.12,4.64,0.24,9.27,0.36,13.91c-7.68,13.95-15.81,27.68-22.96,41.9C790.06,843.69,770.9,875.13,738.98,896.62z"/>
		<path class="st1" d="M517.72,300.13c1.59-28.21,8.14-54.66,27.08-76.75c7.22,8.69,8.18,17.41,0.15,26.19
			c-0.03,12.93-0.06,25.86-0.09,38.79C533.31,286.52,530.25,304.24,517.72,300.13z"/>
		<path class="st1" d="M504.95,313.28c0.96-7.65,5-12.28,12.87-13.19C519.4,310.2,515.04,314.54,504.95,313.28z"/>
		<path class="st9" d="M544.95,249.57c-0.05-8.73-0.1-17.46-0.15-26.19c1.29-35.06,1-69.93-12.15-103.28
			c4.09-3.95,8.17-3.94,12.25,0.03c8.62,21.58,17.23,43.16,25.85,64.74c-15.64,19.3-13.35,42.18-12.89,64.68
			C553.55,249.55,549.25,249.56,544.95,249.57z"/>
		<path class="st11" d="M544.89,120.13c-4.08,0-8.16-0.01-12.25-0.03c-0.97-3.99-1.54-8.04-1.73-12.15
			C540.13,106.79,544.77,110.87,544.89,120.13z"/>
		<path class="st11" d="M531.2,108.16c-8.35-0.58-12.36-5.6-13.65-13.38C527.25,93.98,532.33,97.9,531.2,108.16z"/>
		<path class="st25" d="M246.38,649.65c0.17,4.44,0.33,8.87,0.5,13.31c-21.74-0.09-43.48-0.18-65.23-0.28
			c0.72-3.84,1.04-7.72,0.94-11.63C203.5,634.29,224.73,632.65,246.38,649.65z"/>
		<path class="st26" d="M324.14,107.13c6.31-0.02,12.65,0.33,18.92-0.13c15.71-1.15,27.92,6.1,17.39,20.49
			c-24.02,32.82-21.61,72.73-34.59,108.24c-14.3-2.02-24.17-18.03-40.73-12.88c-23.31-51.28,5.44-84.79,39.72-116.41
			C324.86,106.44,324.14,107.13,324.14,107.13z"/>
		<path class="st21" d="M324.86,106.44c-17.11,37.48-38.07,73.66-39.72,116.41c-20.06,4.61-36.8-5.46-54.28-12.26
			c-7.55-2.94-7.7-6.72-2.52-12.67c9.65-11.09,22.21-20.94,19.49-38.4c15.57-1.78,11.74-15.04,14.45-24.43
			c12.95,0.02,23.06-5.78,30.77-15.74C301.24,108.75,312.12,105.47,324.86,106.44z"/>
		<path class="st27" d="M739.12,767.22c-8.02-1.36-16.66,2.81-24.05-4.59c-36.74-36.78-76.54-68.69-120.02-98.37
			c-36.84-25.14-74.89-53.76-105.62-88.52c-13.52-15.29-40.15-18.96-38.42-48.77c0.49-8.47-13.5-19.88-29.31-18.94
			c-23.43,1.39-47,0.45-70.51,0.5c-8.07-8.49-8.09-17.23-0.83-26.2c33.53-0.06,67.06,0.1,100.58-0.31c9.85-0.12,15.65,3.1,16.3,13.4
			c3.99,12.82,8.74,1.61,13.18,0.42c21.95-1.18,43.66-1.86,51.55,25.44c17.31,12.75,14.72,35.37,25.49,51.36
			c7.91,1.96,18.43-3.76,23.75,4.99c26.37,43.42,83.64,45.61,113.14,85.06c2.4,3.21,12.17,0.9,18.52,1.15
			c4.47,8.57,8.95,17.14,13.42,25.71c15.01,11.48,22.92,26.8,24.69,45.49c0.34,6.01-0.21,11.95-1.59,17.82
			C747.33,758.61,743.88,763.39,739.12,767.22z"/>
		<path class="st22" d="M246.38,649.65c-21.26,0.47-42.53,0.93-63.79,1.4c-0.03-12.77-0.12-25.54-0.08-38.31
			c0.23-79.85,35.78-115.62,116.52-117.26c8.81,17.28-2.82,27.84-12.78,38.96l-0.05,0.02c-4.82,3.89-8.8,8.55-12.36,13.59
			C269.71,583.27,244.77,612.87,246.38,649.65z"/>
		<path class="st23" d="M286.24,534.43c-6.09-16.38,10.6-25.29,12.78-38.96l-0.01,0.01c4.61-4.01,8.93-8.31,12.9-12.97
			c12.82-0.06,25.64-0.12,38.46-0.18c0.28,8.73,0.55,17.46,0.83,26.2c-12.85-0.99-24.78,0.18-32.71,12.41
			C310.87,532.7,299.6,536.17,286.24,534.43z"/>
		<path class="st23" d="M557.48,572.65c-18-12.41-24.91-30.31-25.49-51.36c4.32,0,8.65,0.01,12.97,0.01
			c9.19,1.06,13.78,5.53,13.16,15.45C557.38,548.68,557.65,560.67,557.48,572.65z"/>
		<path class="st19" d="M480.43,495.84c-0.95,10.94-8,13.83-17.45,12.52c-5.49-0.76-8.14-4.55-5.63-7.47
			c2.3-2.68,6.53-3.71,9.9-5.47C471.64,495.56,476.04,495.7,480.43,495.84z"/>
		<path class="st22" d="M311.91,482.52c-0.03,8.57-4.28,12.94-12.9,12.97C298.95,486.83,303.26,482.51,311.91,482.52z"/>
		<path class="st28" d="M739.27,741.3c4.49-19.46-18.41-32.05-12.96-51.75c26.92-0.07-1.97-42.59,28.24-38.13
			c19.43,2.87,19.22,25.22,29.56,37.37c11.14,13.1,23.43,25.42,36.49,36.61c9.81,8.41,9.37,18.34,8.88,29.06
			c-4.18-0.04-8.35-0.21-12.53-0.11c-36.84,0.97-35.58,1.62-50.01,30.35c-5.66,11.27,9.57,31.96-15.12,34.25
			c-4.51-3.86-8.43-8.25-11.78-13.16c-0.31-12.86-0.61-25.72-0.92-38.58c0.14-4.26,0.33-8.52,0.57-12.78
			c3.1-3.02,4.08-5.98,2.92-8.86C741.46,742.73,740.35,741.3,739.27,741.3z"/>
		<path class="st23" d="M519.53,663.8c-4.42,0.01-8.84,0.02-13.25,0.03c-0.31-4.34-0.62-8.68-0.93-13.01
			c-3.79-4.64-7.8-9.07-12.08-13.27c5.53-19.35,16.33-15.07,26.41-4.84C529.14,642.33,545.01,653.65,519.53,663.8z"/>
		<path class="st23" d="M740.04,805.8c8.26,0.5,11.93,5.12,11.78,13.16c-4.22,0.02-8.45,0.04-12.67,0.08
			C739.44,814.63,739.74,810.22,740.04,805.8z"/>
		<path class="st27" d="M493.26,637.55c8.58,0.28,12.71,4.61,12.08,13.27C496.77,650.54,493.01,645.87,493.26,637.55z"/>
		<path class="st23" d="M273.84,548.05c-1.01-9.2,3.14-13.69,12.36-13.59C286.33,542.85,281.96,547.15,273.84,548.05z"/>
		<path class="st23" d="M739.27,741.3c5.36,0.6,11.56,1.19,9.98,8.54c-0.46,2.12-6.22,3.1-9.55,4.6
			C739.55,750.06,739.41,745.68,739.27,741.3z"/>
	</g>
</g>
</svg>
