<?xml version="1.0" encoding="utf-8"?>
<!-- Generator: Adobe Illustrator 23.1.0, SVG Export Plug-In . SVG Version: 6.00 Build 0)  -->
<svg version="1.1" id="Calque_1" xmlns="http://www.w3.org/2000/svg" xmlns:xlink="http://www.w3.org/1999/xlink" x="0px" y="0px"
	 viewBox="0 0 1125 1557.26" style="enable-background:new 0 0 1125 1557.26;" xml:space="preserve">
<style type="text/css">
	.st0{fill:#B64F21;}
	.st1{fill:#CF997E;}
	.st2{fill:#FCDAB6;}
	.st3{fill:#FDFA90;}
	.st4{fill:#F68B23;}
	.st5{fill:#CB5620;}
	.st6{fill:#FBE2BE;}
	.st7{fill:#FBEE72;}
	.st8{fill:#8F4526;}
	.st9{fill:#D55A20;}
	.st10{fill:#ECB467;}
	.st11{fill:#EF7A21;}
	.st12{fill:#99847C;}
	.st13{fill:#EEBE70;}
	.st14{fill:#AB4C21;}
	.st15{fill:#E5681F;}
	.st16{fill:#F7EBE2;}
	.st17{fill:#DE8D41;}
	.st18{fill:#783F24;}
	.st19{fill:#29A1CF;}
	.st20{fill:#E7B795;}
	.st21{fill:#F6CB5F;}
	.st22{fill:#BE8673;}
	.st23{fill:#F4CCAA;}
	.st24{fill:#454442;}
	.st25{fill:#F2BE87;}
	.st26{fill:#DD5F20;}
	.st27{fill:#FCFCFC;}
	.st28{fill:#08C1A5;}
</style>
<g>
	<g>
		<path class="st0" d="M1124.45,989.58c-9.24,18.48-18.48,36.96-27.72,55.45c-16.46,15.82-37.53,21.49-58.74,26.91
			c-38.57,3.91-76.33,19.25-115.99,9.01c-20.96-12.69-19.99-33.51-19.74-54.02c0.93-77.03,0.94-77.03-81.27-81.55
			c-6.32-0.61-12.47-2.1-18.43-4.25c-24.04-15.06-49.5-21.33-77.4-12.08c-8.88,1.91-17.84,2.23-26.83,1.33
			c-14.93-2.55-29.52-0.21-44.09,3.37c-22.78,3.71-45.28,4.46-66.86-5.74c-21.36-16.5-46.96-29.63-49.31-61.42
			c5.58-14.51,16.63-22.01,31.49-24.64c7-0.55,13.88,0.27,20.6,2.23c24.36,14.96,49.9,6.63,73.92,0.91
			c48.72-11.6,95.26-11.4,142.1,9.06c48.87,21.35,79.66,0.76,95.58-47.36c6.52-19.71,11.91-40.02,24.78-56.87
			c38.42-50.29,92.65-45.51,118.77,11.94c14.36,31.57,25.68,64.34,51.43,89.12c12.5-0.93,13.87,7.32,13.86,16.76
			c-0.02,22.14-0.01,44.27-0.01,66.41c-10.37,15.26-39.88,0.26-40.04,14.28C1070.2,979.89,1111.39,968.4,1124.45,989.58z"/>
		<path class="st1" d="M653.23,1447c-28.31,1.09-58.07-6.56-83.16,13.86c-5.97,4.03-11.72,3.73-17.27-0.87
			c-0.85-2.09-2.78-4.43-2.37-6.27c9.17-41.81,9.28-41.51-40.43-31.33c-44.76,9.17-89.95,19.43-127.31-19.92
			c-5.92-13.8-5.26-27.12,2.75-39.95c24.75-21.22,55.08-16.15,83.8-16.86c34.07-0.84,67.51-2.41,96.17-23.88
			c5.42-3.71,11.31-6.69,17.34-9.23c37.78-11.61,91.64-10.64,59.67-76.77c-1.81-20.51,5.35-38.03,17.56-53.76
			c12.13-29.45-10.79-80.49,49.29-80.99c34.47,1.41,52.71,26.74,72.92,49.2c3.66,5.63,6.43,11.71,8.42,18.12
			c4.59,19.07,4.18,38.43,2.75,57.77c-0.48,5.98-1.63,11.93-3.08,17.73c-2.07,8.32-4.23,16.7-4.49,25.39
			c1.21,8.81,3.33,17.42,4.81,26.23c3.96,37.99-13.53,68.93-32.35,99.5C730.26,1426.46,692.87,1439,653.23,1447z"/>
		<path class="st2" d="M223.59,1045.02c6.78-17.66-11.86-26.85-13.86-41.58c-21.65-20.29-44.43-40.01-37.29-74.69
			c2.13-6.23,5.59-11.66,10.22-16.34c18.7-13.15,38.17-22.76,61.51-12.17c1.14,5.61,16.71,5.22,6.56,15.69
			c9.83-11.94-8.5-12.88-8.35-21.16c-4.76-12.64-4.29-25,1.36-37.22c10.71-16.38,25.77-19.78,43.65-14.76
			c32.57,48.22,65.72-8.01,98.56,0.37c9.39,2.8,16.93,8.39,23.49,15.43c12.39,17.86,27.38,31.61,50.95,31.65
			c19.23,5.74,48.22,1.03,40.04,36.64c-2.87,5.44-6.63,10.26-11.07,14.52c-14.92,10.62-26.74,23.68-31.93,41.91
			c-53.3,97.73-112.21,128.89-201.18,106.78c-6.33-2.39-12.25-5.58-17.82-9.44C227.81,1071.17,222.28,1059.51,223.59,1045.02z"/>
		<path class="st3" d="M445.34,33.15c3.91-26.09,12.99-35.56,23.22-24.76c57.17,60.39,132.23,99.63,188.75,160.62
			c4.39,4.74,12,7.86,9.78,16.61c30.39,78.12,11.1,135.15-51.21,151.58c-23.5-13.96-39.16-37.92-63.83-50.56
			c-38.91-38.49-66.74-92.13-131.31-95.65C387.48,131.91,425.98,84.03,445.34,33.15z"/>
		<path class="st4" d="M154.29,504.43c7.09-29.05,37.43-27.09,55.44-41.58c13.17-17.97,24.77-37.75,49.29-42.69
			c26.98-3.95,53.68-5.73,77.83,10.84c21.44,34.17,26.24,72.03,24.67,111.35c-4.45,20.08-16.77,34.18-33.92,44.59
			c-51.59,29.27-92.68,82.37-163.81,67.25c-21.48-4.57-47.29,4.86-59.36-21.42c-10.57-23-2.74-45.03,11.56-64.01
			C131.17,548.64,141.89,526.09,154.29,504.43z"/>
		<path class="st5" d="M1096.74,850.96c-33.56,1.77-49.7-20.52-54.12-47.72c-2.89-17.77-15.07-30.14-16.86-48.99
			c-2.45-25.76-25.6-32.52-50.22-25.09c-46.52,14.05-52.14,54.93-57.42,91.95c-2.93,20.56-12.44,31.96-23.88,45.75
			c-15.56,18.76-43.56,6.49-59.03,25.17c-1.04,1.26-11.33-4.22-16.67-7.58c-41.15-25.92-80.87-48.84-132.63-20.94
			c-19.43,10.47-46.69-2.68-70.38,13.62c-12.81,8.81-26.68-9.9-31.6-26.17c19.4-40.61,68.2-35.23,96.58-61.86
			c9.69-3.36,19.37-3.28,29.02,0.07c88.56,48.44,111.82,41.11,160.61-45.91c22.04-39.31,48.47-76.13,71.21-115.22
			c19.42-8.54,32.6,1.35,44.51,15.01c8.21,22.3,28.63,34.15,43.81,50.35C1063.05,729.06,1092.49,796.47,1096.74,850.96z"/>
		<path class="st6" d="M140.43,1336.11c-26.41-14-19.61-44.08-31.41-64.1c-16.1-27.32-11.14-47.89,3.27-71.9
			c7.87-13.12-12.53-36.3,14.28-44.2c23.8,33.41,50.52,60.97,97.27,48.22c9.99,0.39,19.87,1.71,29.9,1.7
			c53.16-1.96,104.85,10.02,157.15,15.76c6.94,0.66,13.71,2.23,20.32,4.37c37.9,21.84,77.75,38.23,121.91,42.19
			c8.85,1.2,17.23,4.65,26.28,5.06c17,0.77,42.26-7.99,46.27,14.09c4.83,26.54-27.21,23.36-41.74,34.95
			c-69.45,31.37-139.35,25.23-209.43,2.64c-16.86-6.58-30.17-18.11-42.36-31c-13.67-17.65-30.33-25.99-52.63-16.29
			c-20.02,5.17-37.57,15.61-55.29,25.71C195.24,1311.57,170.6,1330.95,140.43,1336.11z"/>
		<path class="st7" d="M445.34,33.15c4.22,39.32-4.33,76.15-21.27,111.49c-7.26,15.14-17.37,31.38,7.41,40.99
			c4.59,4.42,6.33,9.7,4.82,15.97c-13.26,23.04-30.68,43.67-40.15,68.98c-4.78,7.92-10.84,14.7-17.98,20.52
			C353.26,305,338.21,326.86,328.42,353c-4.97,8.32-11.5,15.13-19.4,20.69c-13.93,7.91-28.14,14.57-44.68,8.83
			c-14.89-7.3-1.79-32.83-23.49-35.86c-15.92,0.01-22.98-11.96-31.13-22.43c38.38-33.91,59.76-78.98,83.93-122.89
			c20.15-36.6,45.49-70.82,76.51-99.63C395.01,78.65,414.4,49.53,445.34,33.15z"/>
		<path class="st8" d="M292.88,850.96c-13.64,5.28-35.08-12.85-41.58,13.86c-18.47,24.27-51.26,30.64-69.3,55.45
			c-30.38,25.26-16.75,69.39-41.58,97.03c-9.84-1.98-24.61,6.54-27.38-10.72c-1.79-11.16-0.85-22.86-0.21-34.27
			c0.87-15.31-7.8-17.99-19.43-26.58c-21.36-15.76-53.33-30.36-49.99-67.05c0.85-42.45,36.68-47.61,64.92-56.96
			c39.28-13,77.57-25.96,106.51-57.32c22.22-20.7,45.46-38.02,78.03-21.83c20.68,11.64,40.1,12.33,57.51-6.46
			c7.01-0.68,12.89,1.57,17.97,6.33c6.03,8.98,8.86,18.96,10.01,29.59c1.33,18.81-0.44,37.09-8.8,54.32
			C349.16,850.53,328.82,875.16,292.88,850.96z"/>
		<path class="st9" d="M944.28,629.18c3.6,30.59-7.32,56.94-29.1,76.62c-18.67,16.87-30.7,37.98-39.36,59.33
			c-26.12,64.41-54.69,85.95-114.03,70.52c-15.74-4.09-31.78-10.88-48.24-15.48c-10.19-2.84-3.1-16.22-4.88-24.66
			c84.8-59.52,160.65-126.83,197.79-227.67c7.51-12.75,23.73-16.98,30.32-30.88c5.83-7.8,13.44-12.79,22.89-15.12
			c10.21-1.59,19.97-0.2,29.42,3.92c9.42,5.07,17.24,11.97,23.8,20.38c14.9,22.9,20.58,45.94,0.68,69.18c-4.62,0-9.24,0-13.86,0
			C984.81,634.21,957.22,602.4,944.28,629.18z"/>
		<path class="st10" d="M972,268.79c14.96-2.07,30.32,4.25,44.6-9.07c22.71-21.18,52.4-19.99,81.42-18.75
			c26.92,1.15,29.22,1.78,17.27,28.91c-8.08,18.33-2.26,35.55-4.45,53.11c-1.9,15.26-17.36,23.86-15.04,42.47
			c3.52,28.2-22.57,53.28-12.93,83.53c-9.79,12.26-21.59,20.45-38.21,18.85c-13.57-4.9-24.81-14.85-39.19-18.17
			c-8.61-2.78-16.48-6.75-22.5-13.75c-3.97-13.5,2.26-23.42,11.16-32.3c5.22-4.75,13-8.02,10.66-17.27
			c-7.69-3.66-13.16-2.28-16.27,6.23c-8.94,13.12-21.22,20.38-36.61,22.76c-6.68-0.17-12.79-2.02-18.48-5.49
			C928.01,357.8,941.72,311.03,972,268.79z"/>
		<path class="st11" d="M154.29,504.43c4.22,31.07-0.65,58.5-28.91,77.82c-7.12,4.87-14.58,11.25-12.69,22.17
			c2.22,12.86-6.87,30.14,7.41,37.46c7.65,3.92,22.93,6.79,31.78-3.65c12.83-15.13,34.76-14.08,43.68-7.75
			c31.91,22.67,46.22,1.33,65.8-17.33c17.05-16.26,27.41-44.74,59.24-39.42c15,50.58-17.64,83.54-43.88,118.97
			c-85.21,34.78-193.7,18.07-233.31-35.8c-10.02-28.2,18.92-37.75,29.14-55.17C93.9,565.38,112.35,524.33,154.29,504.43z"/>
		<path class="st12" d="M556.21,1460.86c4.62,0,9.24,0,13.86,0c-0.11,22.86,24.67,11.26,34.22,25.52
			c19.14,28.56,20.28,41.93-4.8,63.3c-9.89,8.43-16.73,10.6-28.82,2.58c-29.59-19.61-60.68-36.1-94.91-8.23
			c-28.74-14.54-73.52,1.4-85.64-44.41c-3.3-12.48-15.25-15.07-20.08-10.42c-27.77,26.76-61.18,6.69-91.02,13.25
			c-2.67-33.06,25.88-38.44,45.66-51.73c10.36-4.14,21.13-6.42,32.22-7.38C423.66,1445.52,489.87,1453.95,556.21,1460.86z"/>
		<path class="st13" d="M972,268.79c3.51,35.97-20.98,67.57-15.78,104.67c1.18,8.42-15.38,19.3-23.51,29.26
			c-0.14,0.17,2.78,3.69,4.74,4.5c1.97,0.81,4.53,0.18,6.83,0.18c3.34,3.56,4.89,7.41,4.67,11.55c-0.23,4.3-0.79,6.44-1.65,6.47
			c-7.73,12-18.99,18.38-32.84,20.65c-34.75-0.8-63.36-14.83-86.56-40.47c-3.25-5.72-5.38-11.88-6.74-18.32
			c-1.42-9.73-0.86-19.39,1.29-28.97c1.51-6.2,3.8-12.15,6.47-17.94c10.53-23.04,22.91-44.71,46.07-57.72
			c19.54,6.66,30.15-16.53,49.11-14.25C939.85,270.3,956.02,268.79,972,268.79z"/>
		<path class="st1" d="M902.7,1363.83c-4.45,16-13.56,26.28-31.28,27.98c-6.77,0.65-11.86,5.28-10.3,13.6
			c-8.54,8.76-19.08,11.07-30.82,9.63c-7.55-1.79-13.97-5.54-19.33-11.14c-16.8-22.66-20.5-46.71-0.7-68.48
			c23.24-25.56,39.4-55.36,58.08-83.87c34.91-53.28,75.7-51.42,116.31,2.27c4.77,20.27-1.65,37.96-12.67,54.57
			c-13.22,23.74-31.7,42.23-55.44,55.45c-9.07-8.44-17.17-19.84-32.06-10.49C890.62,1356.75,898.34,1357.38,902.7,1363.83z"/>
		<path class="st9" d="M292.88,753.93c-8.37-1.69-17.89,3.97-25.26-4.38c-5.8-6.58-14.83-15.67-15.69,1.37
			c-1.16,22.94-16.44,15.62-28.35,16.87c-63.98,40.44-131.14,65.01-207.89,41.58c-6.76-16.37-27.73-32.28-0.41-49.75
			c3.06-1.96,0.41-12.82,0.41-19.55c28.87-35.2,68.54-36.8,107.25-28.52c56.41,12.06,109.19,5.45,161.09-17.39
			C311.18,710.52,309.61,731.11,292.88,753.93z"/>
		<path class="st7" d="M611.65,324.24c7.16-13.04,15.95,36.38,30.52-4.06c16.2-44.94,27.03-87.68,24.91-134.55
			c48.59,19.04,81.36,56.18,110.88,97.03c-12.57,30.4-17.75,64.51-44.2,88.01c-38.99,1.85-77.91,2.99-115.81-9.24
			c-6.73-3.78-11-9.42-12.89-16.89C604.47,336.86,606.67,330.1,611.65,324.24z"/>
		<path class="st14" d="M972,1308.38c0-18.48,0-36.96,0-55.44c9.22-15.01-2.63-32.67,5.85-47.8
			c24.82-47.15,27.07-104.13,63.44-146.26c-0.85-12.01,6.84-13.92,16.3-13.88c13.05,0.06,26.1,0.01,39.14,0.01
			C1092.71,1150.6,1063.8,1244.39,972,1308.38z"/>
		<path class="st6" d="M736.39,365.82c-5.94-28.82,15.45-51.64,17.77-79.05c0.7-8.31,15.56-2.58,23.81-4.11
			c14.73,2,23.92,20.64,41.58,13.86c11.87,6.32,17.87,16.69,20.37,29.49c0.18,9.23,0.61,18.54-6.51,25.96
			c-8.31,9.24-9,18.48,0,27.72c0,4.62,0,9.24,0,13.86c-5.95,6.68-11.45,13.76-17.87,20.03c-18.49,21.35-16.5,54.84-42.54,71.76
			c-25.88,9.37-48.48,5.12-67.1-15.94c-13.9-24.89-3.34-48.2,4.54-71.73C715.59,384.24,725.11,374.3,736.39,365.82z"/>
		<path class="st15" d="M279.02,698.49c-28.19,31.71-80.13,56.23-122.49,39.49c-50.19-19.83-94.17-8.33-140.84,2.1
			c-1.03-31.15,5.6-59.74,27.72-83.17c36.58,27.6,36.68,25.82,83.74,28.44c25.38,1.41,53.73-12.67,76.91,12.25
			c3.76,4.04,22.24,6.51,30.98-3.91c12.58-14.98,29.17-6.94,43.97-9.06c1.55,2.31,3.09,4.62,4.64,6.93
			C282.13,693.87,280.57,696.18,279.02,698.49z"/>
		<path class="st16" d="M223.59,1211.36c-63.01,28.94-92.32,12.19-97.02-55.45c0.35-30.2-0.8-59.69,12.25-89.31
			c5.39-12.23,10.47-23.01,19.38-32.34c22.45-23.51,22.52-23.44,51.53,10.77c-5.38,45.23-59.3,93.81,9.33,133.84
			c8.25,6.26,11.73,14.48,9.96,24.77C227.22,1206.2,225.4,1208.78,223.59,1211.36z"/>
		<path class="st7" d="M140.43,1336.11c17.27-34.76,48.23-42.15,83.16-41.58c35.08-18.74,49.88-3.76,50.43,31.53
			c0.31,19.92-2.92,39.75-8.09,59.08c-2.2,7.22-5.79,13.76-10.53,19.63c-11.27,10.47-24.45,12.94-39.02,8.88
			c-20.04-39.51-41.84-24.51-63.9-1.8c-9.82,2.55-18.65,1.18-25.92-6.43C119.45,1379.96,142.73,1360.59,140.43,1336.11z"/>
		<path class="st17" d="M320.6,1460.86c-4.45,16-13.56,26.28-31.28,27.98c-6.77,0.65-11.86,5.28-10.3,13.6
			c-24.5,0-49.08,1.2-73.49-0.28c-36.16-2.2-55.28-19.33-65.11-55.16c3.75-14.24,14.27-21.13,27.31-25.32
			c12.48-3.06,24.94-2.33,37.34,0.42c17.37,5.7,34.76,5.16,52.2-0.35c27.46-4.05,52.09-1.94,63.1,29.32
			C320.48,1454.33,320.54,1457.59,320.6,1460.86z"/>
		<path class="st5" d="M15.69,809.38c57.58-15.32,120.33-8.01,174.21-40.88c8.29-5.05,22.31-0.71,33.68-0.71
			c-1.87,8.51,5.4,20.46-5.04,25.34c-36.74,17.18-69.37,45.34-113.33,44c-4.55-0.14-12.07-1.44-13.23,0.61
			c-11.2,19.84-39.24,19.37-48.58,40.94C3.93,867.68,18.53,835.04,15.69,809.38z"/>
		<path class="st1" d="M1041.3,462.85c14.73-2,23.92-20.64,41.58-13.86c2,14.74,20.64,23.92,13.86,41.58
			c-11.52,21.72-9.49,46.15-13.86,69.31c-1.03,46.07-38.07,47.12-69.3,55.45c-0.37-23.95,4.35-48.92-13.86-69.31
			c0.31-11.08,2.51-21.56,9.65-30.57c3.93-4.04,8.24-7.56,12.77-10.79c6.25-5.52,10.03-12.19,10.1-20.71
			C1032.55,475.73,1034.48,468.22,1041.3,462.85z"/>
		<path class="st18" d="M653.23,1447c26.64-28.46,65.28-35.91,97.02-55.44c26.32-16.41,44.89-4.15,61.22,16.52
			c14.74,23.66,11.37,45.75-5.78,66.64c-9.24,0-18.48,0-27.72,0c-9.24-8.71-18.48-8.71-27.72,0c-15.41-7.27-29.3-19.89-48.51-13.86
			C682.53,1466.88,668.64,1454.27,653.23,1447z"/>
		<path class="st19" d="M223.59,1183.63c-35.45,18.81-35.45,18.81-48.79-14.14c-18.25-45.07-6.48-87.03,34.93-124.47
			c4.62,0,9.24,0,13.86,0c20.73,1.18,11.77,17.22,13.86,27.72c19.17,20.15,18.08,44.32,13.87,69.16c-3.2,13.71-9.01,26.1-18.98,36.3
			C229.45,1180.04,226.52,1181.84,223.59,1183.63z"/>
		<path class="st5" d="M1124.45,989.58c-11.32,0-22.64,0.3-33.95-0.05c-43.9-1.38-49.21-6.67-48.98-51.19
			c0.05-10.55-5.66-24.41,6.37-30.84c12.14-6.49,21.15,3.7,27.58,12.69c9.05,12.65,20.79,15.91,35.12,13.95
			c0.01,11-2.38,22.35,9.22,30.29C1129.09,970.77,1122.73,981.18,1124.45,989.58z"/>
		<path class="st20" d="M140.43,1017.3c0-19.96,0.32-39.93-0.08-59.89c-0.58-28.89,15.97-38,41.66-37.14
			c-0.1,19.91-3.32,40.79,18.49,53.23c12.15,6.94,9.18,19.01,9.23,29.93C185.78,1003.8,160.81,999.08,140.43,1017.3z"/>
		<path class="st13" d="M209.73,324.24c14.73,2,23.92,20.64,41.58,13.86c14.3,18.85,0.04,42.62,10.86,62.11
			c1.75,13.31-0.6,25.37-10.86,34.92c-13.86,9.24-27.72,18.48-41.58,27.72c-6.54-21.33,15.48-34.29,15.31-55.67
			c-0.16-19.44-18.49-29.98-15.62-48.87C211.11,347.19,209.73,335.61,209.73,324.24z"/>
		<path class="st14" d="M833.4,1405.41c9.24,0,18.48,0,27.72,0c22.47,2.07,16.69,23.03,12.75,29.88
			c-11.57,20.14-23.79,43.73-54.33,39.42C817.11,1450.21,816.13,1425.98,833.4,1405.41z"/>
		<path class="st20" d="M902.7,1363.83c-9.2,0-18.43,0.47-27.58-0.22c-4.04-0.3-7.9-2.96-11.84-4.55
			c8.33-15.7,20.98-27.38,35.82-36.47c2.81-1.72,10.02-0.45,12.4,2.08c10.83,11.5,2.55,26.13,5.05,39.15
			C911.94,1363.83,907.32,1363.83,902.7,1363.83z"/>
		<path class="st10" d="M944.28,629.18c0-8.7-0.32-17.43,0.14-26.11c0.21-3.96,0.75-9.2,3.28-11.49c7.97-7.21,10.35,3.11,13.33,6.38
			c10.59,11.64,21.4,21.26,38.69,17.35c-4.62,9.24-9.24,18.48-13.86,27.72C968.2,649.83,959.01,631.18,944.28,629.18z"/>
		<path class="st8" d="M833.4,1405.41c-0.37,23.95,4.35,48.92-13.86,69.31c-4.62,0-9.24,0-13.86,0c0-23.1,0-46.2,0-69.31
			c4.62-4.8,9.24-4.8,13.86,0C824.17,1405.41,828.78,1405.41,833.4,1405.41z"/>
		<path class="st21" d="M168.15,1433.14c-9.24,4.62-18.48,9.24-27.72,13.86c-26.71-6.5-8.58-27.94-13.86-41.58
			c9.24,0,18.48,0,27.72,0C177.57,1405.32,177.13,1417.09,168.15,1433.14z"/>
		<path class="st16" d="M833.4,351.96c0-9.24,0-18.48,0-27.72c-14.67-20.29,0.1-30.77,13.86-41.58c9.24,0,18.48,0,27.72,0
			C859.39,304.71,857.28,334.87,833.4,351.96z"/>
		<path class="st20" d="M1082.88,559.88c-3.86-1.55-10.43-2.37-11.09-4.8c-2.14-7.83,16.67-53.73,24.95-64.51
			c0,17.58-0.02,35.16,0.01,52.74C1096.76,552.76,1095.17,560.78,1082.88,559.88z"/>
		<path class="st13" d="M847.26,282.65c-2,14.74-20.64,23.92-13.86,41.58c-20.73-1.18-11.77-17.22-13.86-27.72
			C820.73,275.78,836.76,284.74,847.26,282.65z"/>
		<path class="st8" d="M750.25,1474.72c-1-13.01,7.91-14.63,17.21-13.59c6.92,0.77,12.08,5.14,10.51,13.59
			C768.73,1474.72,759.49,1474.72,750.25,1474.72z"/>
		<path class="st18" d="M1041.3,1058.88c-3.44,43.66-30.34,117.64-55.44,152.47c-29.42-20.68-38.32-67.95-85.32-65.62
			c-37.14,0.8-79.04-18.25-105.61,25.95c-6.12,3.32-11.77,2.65-16.96-1.92c0-4.62,0-9.24,0-13.86
			c-22.27-62.3-76.68-106.21-97.03-169.63c33.34-19.81,59.24,2.32,86.35,15.8c21.98,10.93,44.63,19.65,68.54,25.14
			c31.22,7.53,59.4,20.48,80.74,45.52C958.51,1071.42,998.16,1049.46,1041.3,1058.88z"/>
		<path class="st8" d="M833.4,1045.02c-31.99-4.59-60.33-14.54-86.81-35.97c-16.51-13.36-40.26-24.99-65.64-19.47
			c-30.93,20.59-49.1-8.27-72.16-18.47c-13.65-10.75-25.14-23.01-27.98-41.13c1.03-3.23,2.08-6.47,3.12-9.71
			c27.72,0,55.44,0,83.16,0c9.24,0.09,18.48,0.09,27.72,0c9.24,0,18.48,0,27.72,0c28.25,1.44,57.81-4.97,83.16,13.86
			C826.38,968.23,857.99,999.6,833.4,1045.02z"/>
		<path class="st14" d="M833.4,1045.02c-2.26-12.91,7.22-30.35-4.8-38.3c-28.58-18.9-22.32-46.29-22.92-72.59
			c20.33,12.25,32.5-28.08,54.18-8.28c17.57,16.05,39.22,5.12,58.77,8.23c7.64,1.21,11.98,4.68,11.86,13.05
			c-0.24,16.13,6.65,38.22-1.35,47.25c-22.32,25.18-7.75,52.65-12.58,78.36c-21.49,4.65-36.69-10.77-52.53-19.66
			C853.4,1047.11,844.32,1045.08,833.4,1045.02z"/>
		<path class="st5" d="M570.07,850.96c-9.24,4.62-18.48,9.24-27.72,13.86c-4.39,7.39-11.31,9.04-19.23,8.53
			c-5.06-1.03-9.74-2.99-14.14-5.72c-4.29-3-8.24-6.37-12.06-9.98c-1.94-1.84-3.73-3.77-5.68-5.64c-3.85-3.97-7.09-8.34-10.03-13.05
			c-2.53-5.2-4.07-10.63-4.86-16.34c-0.44-9.13,1.54-17.64,6.3-25.49c11.15-13.08,25.83-15.66,41.9-14.24
			c6.14,1.09,11.95,3.15,17.43,6.14c10.08,7.52,16.53,18.02,23.19,28.37C570.75,827.99,578.6,838.32,570.07,850.96z"/>
		<path class="st9" d="M570.07,850.96c-4.62-9.24-9.24-18.48-13.86-27.72c37.29-28.52,74.31-58.29,124.74-27.72
			c-1.53,11.43,5.7,24.54-15.8,28.67c-27.76,5.34-54.2,17.53-81.21,26.77C579.31,850.96,574.69,850.96,570.07,850.96z"/>
		<path class="st14" d="M805.69,934.13c-22.13,0-44.27-0.01-66.4,0.01c-9.44,0.01-17.69-1.37-16.76-13.87
			C756.26,897.54,777.54,901.09,805.69,934.13z"/>
		<path class="st8" d="M514.64,864.82c9.24,0,18.48,0,27.72,0c2.1,14.78,13.06,25.71,24.93,26.77
			c22.66,2.03,15.34,16.85,16.64,28.67c-11.44,11.56-24.79,12.32-39.26,7.02C524.5,911.38,507.54,893.88,514.64,864.82z"/>
		<path class="st14" d="M694.81,920.27c1,13.01-7.91,14.63-17.21,13.59c-6.92-0.77-12.08-5.14-10.51-13.59
			c-1-13.01,7.91-14.63,17.21-13.59C691.22,907.45,696.38,911.82,694.81,920.27z"/>
		<path class="st22" d="M902.7,1128.19c15.01,2.07,31.02-5.07,44.57,9.35c19.98,21.27,37.63,42.96,38.59,73.82
			c-5.28,13.64,12.85,35.09-13.86,41.58c-7.64-28.35-30.1-31.44-52.82-27.1c-23.02,4.39-38.73,20.74-43.99,44.13
			c-7.33,32.62-17.54,60.75-54.25,73.1c-13.69,4.61-26.04,20.96-6.07,36.88c8.97,7.16,2.88,17.02,4.66,25.47c-4.62,0-9.24,0-13.86,0
			c-8.4-1.73-18.81,4.64-25.15-4.64c-7.94-11.6-19.28-9.21-30.28-9.22c0.01-11-0.05-20.51,8.79-30.6
			c19.84-22.67,21.24-51.44,18.93-80.29c2.73-15.06,13.61-25.16,22.12-36.72c3.58-4.43,7.41-8.66,11.2-12.91
			c5.16-6.91,10.12-13.98,15.11-21.12c3.47-5.04,7.37-9.62,11.46-14.13C857.57,1171.39,872.16,1142.11,902.7,1128.19z"/>
		<path class="st22" d="M556.21,1460.86c-36.98,23.63-82.86,22.85-116.35,10.36c-32.48-12.12-61.73-4-91.54-10.36
			c-4.06-31.92,5.45-53.67,41.58-55.45c13.05,2.54,28.64-6.61,39.12,5.17c9.38,10.54,21.66,12.03,30.95,8.08
			c43.47-18.49,94.31-15.35,133.48-44.57c10.11-7.54,18.83-10.53,30.52-10.52c7.86,0.01,13.41,2.65,15.14,9.72
			c1.62,6.65,0.63,16.08-6.44,17.49c-27.16,5.4-47.47,20.74-67.08,39.13C555.38,1439.48,556.08,1449.6,556.21,1460.86z"/>
		<path class="st22" d="M611.65,961.85c14.14-1.85,26.54,0.63,34.65,13.86c8.11,13.23,20.51,15.71,34.65,13.86
			c14.14,7.37,8.33,18.26,14.94,21c65.74,27.22,72.05,87.19,82.08,145.34c-9.81-1.82-23.6,6.08-27.6-10.17
			c-5.45-22.1-17.6-34.47-41.69-31.41c-6.15-5.92-14.65-8.67-20.47-15.08c-9.73-17-16.54-35.88-31.84-49.36
			c-17.66-20.45-40.86-36.26-51.89-62.22C602.57,977.87,604.11,969.02,611.65,961.85z"/>
		<path class="st23" d="M362.18,1308.38c37.91-1.46,72.01,20.28,111.59,14.9c36.1-4.9,73.39-1.04,110.16-1.04
			c-13.1,33.52-43.83,38.74-72.97,40.85c-40.16,2.92-80.69,0.73-121.06,0.73c-9.36-1.34-16.24-6.52-21.74-13.91
			C361.26,1336.81,353.38,1323.78,362.18,1308.38z"/>
		<path class="st23" d="M583.93,1322.25c1.53-3.84,2.9-10.94,4.62-11.02c17.16-0.85,37.14-19.32,34.93-22.86
			c-13.49-21.59-24.03,5.33-36.79,5.5c-10.83,0.14-28.42,9.24-30.47-13.2c9.27-17.05,27.41-22.66,42.01-32.86
			c7.31-5.09,14.84-9.84,22.77-13.94c5.53-2.3,11.3-3.45,17.29-3.44c5.87,1.32,10.9,4.14,14.95,8.65c1.62,3.93,2.11,9.64,5.04,11.52
			c26.04,16.62,30.03,30.77,12.24,47.39C645.89,1320.97,615.69,1324.49,583.93,1322.25z"/>
		<path class="st17" d="M376.04,1349.97c9.59-0.35,14.21,4.27,13.86,13.86c0,13.86,0,27.72,0,41.58
			c-13.86,18.48-27.72,36.96-41.58,55.45c-9.24,0-18.48,0-27.72,0c-3.78-22.94-5.07-45.79,2.69-68.25
			C354.16,1394.97,351.73,1355.89,376.04,1349.97z"/>
		<path class="st24" d="M694.81,1100.47c9.59-0.35,14.21,4.27,13.86,13.86c-18.32-4.58-30.82,5.51-39.02,19.08
			c-5.93,9.82-5.35,21.15,11.62,22.72c12.92,1.2,26.75-5.23,38.75,4.2c-13.14,7.77-26.06,15.95-39.55,23.02
			c-3.54,1.85-8.87,0.28-13.37,0.28c-36.25-1.22-27.64-33.36-36.84-53.3c-1.16-10.95,0.68-21.2,7.11-30.39
			c8.02-7.89,17.86-11.41,28.92-11.99C677.43,1088.34,686.71,1093.06,694.81,1100.47z"/>
		<path class="st0" d="M777.97,1169.77c4.62,0,9.24,0,13.86,0c39.03-11.31,52.88,2.56,41.58,41.58
			c-8.43,7.34-5.91,20.14-13.86,27.72c-13.86,9.95-27.72,11.78-41.58,0C777.97,1215.98,777.97,1192.87,777.97,1169.77z"/>
		<path class="st12" d="M639.37,1128.19c18.63,0.11,11.84,14.49,14.04,24.27c2.5,11.15-9.15,28.91,13.68,31.17
			c-1.73,8.4,4.64,18.81-4.64,25.16c-11.6,7.94-9.21,19.28-9.22,30.29c-4.62,0-9.24,0-13.86,0c-10.86-12.48-17.15-26.83-18.03-43.47
			C620.49,1171.32,619.6,1146.97,639.37,1128.19z"/>
		<path class="st14" d="M777.97,1239.08c13.86,0,27.72,0,41.58,0c-8.21,19.52-22.07,33.38-41.58,41.58
			c-9.59,0.35-14.21-4.27-13.86-13.86c5.63-3.61,8.71-9.77,13.86-13.86C777.97,1248.32,777.97,1243.7,777.97,1239.08z"/>
		<path class="st0" d="M777.97,1252.94c0.35,9.59-4.27,14.21-13.86,13.86C763.75,1257.21,768.37,1252.59,777.97,1252.94z"/>
		<path class="st23" d="M611.65,961.85c0,9.24,0,18.48,0,27.72c-16.33,33.05-55.58,34.23-79.1,57.09
			c-3.15,4.5-6.76,8.69-10.55,12.66c-5.73,5.31-12.59,8.78-19.84,11.36c-6.28,2.68-12.35,5.86-17.18,10.96
			c0.16,0.16-4.27,5.19-4.15,5.31c0.12,0.12-4.15,5.33-4.05,5.44c-2.63,3.75-5.65,7.13-8.87,10.36c0.1,0.11-4.82,4.84-4.7,4.95
			c-2.97,3.47-6.14,6.75-9.24,10.11c0.14,0.14-4.31,5.37-4.15,5.51c-3.64,6.08-6.71,12.39-9.4,18.99c-1.5,4.87-3.15,9.59-4.59,14.43
			c-3.32,13.42-2.24,27.02-2.44,40.62c-0.23,15.85-3.64,30.45-15.77,41.72c-60.59,2.24-119.02-23.44-180.17-13.86
			c-4.82-5.46-7.01-11.83-6.58-19.11c-0.45-10.67,2.19-20.76,5.75-30.69c17.6-32.41-2.04-70.15,14.69-102.67
			c8.4,1.72,16.48-1.3,25.61,3.99c32.19,18.68,61.85,17.2,88.45-13.24c12.5-14.31,26.69-26.56,45.98-35.65
			c23.02-10.85,33.14-38.41,33.99-66c13.32-10.05,28.6-17.16,41.58-27.72c17.57-8.27,30.94-33.31,55.44-13.86
			c13.86,0,27.72,0,41.58,0C593.17,934.13,602.41,947.99,611.65,961.85z"/>
		<path class="st20" d="M542.35,920.27c-8.4,1.73-18.81-4.64-25.15,4.64c-7.94,11.6-19.28,9.21-30.28,9.22
			c-5.51-11.75,18.95-13.54,9.14-24.23c-4.23-4.61-15.73-2.69-23.96-3.42c-4.27-0.38-8.6-0.07-12.9-0.07
			c-19.44-25.49-16.71-48.82,6.82-70.14c7.14-4.37,14.11-4.08,20.9,0.83c4.5,4.74,9.12,9.36,13.86,13.86
			c4.64,4.6,8.77,9.71,13.86,13.86c-0.58,13.55,11.47,18.52,19.14,25.26C544.03,899.1,542.22,909.49,542.35,920.27z"/>
		<path class="st1" d="M473.06,837.1c-18.21,20.38-13.49,45.35-13.86,69.31c-46.35-0.63-49.71-3.15-55.44-41.58
			c7.08-12.95,22.01-20.66,24.3-36.81c4.93-15.09,7.84-31.68,26.71-36.52c10.84,1.55,18.05,7.74,22.47,17.53
			C479.68,818.96,481.85,828.85,473.06,837.1z"/>
		<path class="st20" d="M292.88,850.96c31.27,11.2,46.56-17.58,69.3-27.72c14.32-8.39,22.46,0.91,30.47,10.62
			c1.89,6.14,0.97,11.85-2.75,17.1c-8.49,1.84-18.06-4.08-25.73,4.7c-7.55,8.64-17.24,15.55-24.02,24.68
			c-11.79,15.9-28.79,16.89-41.93,9.07C285.39,881.77,295.38,863.99,292.88,850.96z"/>
		<path class="st20" d="M182.01,920.27c1.03-46.07,38.07-47.12,69.3-55.45c0,13.86,0,27.72,0,41.58
			C225.86,899.29,206.49,922.57,182.01,920.27z"/>
		<path class="st0" d="M389.9,850.96c0-4.62,0-9.24,0-13.86c10.23-12.04,23.47-13.68,37.96-11.03c6.54,2.51,12.37,6.2,17.48,11.03
			c-2.56,27.72-2.56,27.72-41.58,27.72C394.17,865.18,389.55,860.56,389.9,850.96z"/>
		<path class="st12" d="M251.3,1072.74c0,31.29,0,62.58,0,93.87c0,9.43-1.09,17.98-13.86,17.02c-1.9-1.88-3.8-3.76-5.7-5.64
			c-1.11-8.14-0.81-15.92,5.7-22.09c0-27.72,0-55.45,0-83.17C242.06,1072.74,246.68,1072.74,251.3,1072.74z"/>
		<path class="st20" d="M486.92,934.13c-5.43,21.89-20.07,29.95-41.58,27.72C450.77,939.97,465.41,931.9,486.92,934.13z"/>
		<path class="st20" d="M263.43,925.63c-0.17,0.31-2.86,7.06-3.89,6.82c-11.01-2.61-7.16-12.07-8.44-19.55
			c-1.14-6.63,0.65-9.45,6.54-6.26C263.28,909.7,267.08,915.05,263.43,925.63z"/>
		<path class="st25" d="M431.48,199.48c0-4.62,0-9.24,0-13.86c11.51,0,23.07,0.7,34.51-0.14c25.07-1.84,40.87,4.77,50.05,32.27
			c5.86,17.55,15.15,39.98,40,45.04c1.35,0.27,0.17,12.96,0.17,19.86c-2.57,2.27-5.14,4.54-7.7,6.84
			c-25.6,9.23-46.34-0.31-65.25-16.85C471.85,244.2,454.23,220.03,431.48,199.48z"/>
		<path class="st25" d="M611.65,324.24c0,4.62,0,9.24,0,13.86c-4.15,4.7-9.29,6.35-15.43,5c-8.35-3.45-15.36-8.83-21.8-15.05
			c-9.86-13.58-28.58-23.7-18.2-45.39C592.16,273.22,602.05,298.54,611.65,324.24z"/>
		<path class="st15" d="M279.02,684.63c4.57-31.98,10.97-63.17,37.21-85.72c8.39-7.21,2.7-16.82,4.36-25.17
			c15.11-3.37,24.35-12.61,27.72-27.72c29.37-34.05,21.76-82.99,47.71-118.49c22.09-7.57,39.58-0.92,53.42,17.12
			c13.15,39.3-23.08,75.35-7.47,114.88c-1.45,23.6-7.1,46.34-13.91,68.87c-13.13,27.28-21.65,57.76-50.56,74.24
			c-6.67,1.26-12.87-0.15-18.57-3.76c-2.73-3.66-4.7-7.73-6.07-12.07c-5.03-16.01,1.33-31.67,1.4-47.52
			c-20.06,4.43-20.54,26.69-34.08,37.4C307.38,686.83,296.16,699.33,279.02,684.63z"/>
		<path class="st11" d="M389.9,435.13c23.36,32.18,2.13,59.67-11.46,86.29c-5.22,10.23-14.35,23.54-30.12,24.6
			c1.58-37.74-23.83-72.1-13.86-110.89c-3.35-3.79-4.56-7.67-3.65-11.62c0.92-4,1.9-6,2.95-6.03c8.33-6.49,17.92-9.14,28.31-9.51
			c10.43,0.19,20.05,2.9,28.42,9.36C394.68,423.38,394.48,429.33,389.9,435.13z"/>
		<path class="st7" d="M334.46,421.26c0,4.62,0,9.24,0,13.86c-27.72,0-55.44,0-83.16,0c0-13.86,0-27.72,0-41.58
			c4-4.59,9-6.03,14.88-4.77c14.67,3.6,27.92-6.56,42.49-4.5c6.03,0.78,11.59,2.85,16.83,5.91
			C334.02,398.94,343.21,407.54,334.46,421.26z"/>
		<path class="st26" d="M680.95,795.52c-28.9-2.32-57.89-1.01-80.43,19.01c-14.4,12.79-29.49,6.6-44.31,8.71
			c-20.73-1.18-11.77-17.22-13.86-27.72c3.35-37.92,35.17-29.16,56.58-31.42c60.44-6.38,106-29.09,137.53-85.5
			c30.12-53.88,84.82-87.17,130.21-128.1c6.83-2.54,13.86-3.73,21.13-3.81c11.27,0.73,21.24,4.29,28.74,13.18
			c5.57,43.41-12.16,76.47-42.85,106.11c-22.08,21.33-42.01,44.75-60.73,70.01c-23.48,31.68-56.52,62.84-104.32,59.52
			C699.43,795.52,690.19,795.52,680.95,795.52z"/>
		<path class="st16" d="M611.65,1252.94c-14.04,18.13-31.79,28.81-55.44,27.72c-11.37,0-22.75,0.3-34.11-0.06
			c-27.17-0.86-73.89-22.42-90.63-41.52c-12.34-16.76-4.47-36.04-6.73-54.06c1.38-14.46-3.98-29.98,6.73-42.97
			c8.43-7.34,5.91-20.14,13.86-27.72c4.74-4.5,9.36-9.12,13.86-13.86c4.74-4.5,9.36-9.12,13.86-13.86
			c42.89-26.66,85.7-49.06,127.05,2.39c1.75,10.18-4.04,16.34-11.05,22.83c-61.72,57.14-57.15,93.31,16.58,133.7
			C607.67,1247.97,609.66,1250.45,611.65,1252.94z"/>
		<path class="st21" d="M376.04,1349.97c-1.86,14.69-20.24,23.53-14.11,41.39c2.12,6.18-0.98,13.69-8.76,11.36
			c-8.13-2.44-1.86-13.27-5.26-17.4c-9.44-11.48-12.9-4.55-13.44,6.24c-6.44,7.12-14.72,9.8-24.01,10.2
			c-19.93-1.97-42.1,8.58-59.15-10.2c4.38-23.21-6.39-46.82,7.01-70.71c12.42-22.13,9.3-23.92-21.37-26.27
			c-4.43-0.34-8.9-0.05-13.36-0.05c7.76-30.68,31.78-28.83,55.44-27.72c23.04-13.62,41.13-7.43,55.44,13.86
			c15.11,3.37,24.35,12.61,27.72,27.72C364.18,1323.12,382.82,1332.31,376.04,1349.97z"/>
		<path class="st23" d="M334.46,1280.66c-16.35-13.14-35.39-15.53-55.44-13.86c11.18-29.11,33.9-11.23,50.74-10.38
			C339.05,1256.89,332.69,1272.23,334.46,1280.66z"/>
		<path class="st12" d="M431.48,1183.63c0,18.48,0,36.96,0,55.44c-4.62,0-9.24,0-13.86,0c0-18.48,0-36.96,0-55.44
			C422.24,1177.29,426.86,1177.29,431.48,1183.63z"/>
		<path class="st2" d="M237.45,1211.36c0,4.62,0,9.24,0,13.86c-9.59,0.35-14.21-4.27-13.86-13.86
			C228.21,1205.01,232.83,1205.01,237.45,1211.36z"/>
		<path class="st16" d="M320.6,351.96c2.83-14.11-6.8-30.32,7.75-42.53c14.26-11.96,23.94-31.79,47.68-26.78
			c5.64-4.32,11.81-7.65,18.5-10.03c17.33-6.77,34.04-5.58,50.04,3.95c15.03,62.03,3.43,73.3-66.99,65.48
			c-7.94,0.47-14.95,3.4-21.02,8.79c-3.98,3.8-8.57,6.49-13.72,8.33C334.21,360.5,326.55,358.84,320.6,351.96z"/>
		<path class="st27" d="M431.48,199.48c55.02,2.88,55.02,2.88,55.44,69.31c-4.03,4.48-9.05,7.23-14.89,8.54
			c-5.86,0.39-11.6-0.38-17.18-2.18c-19.32-13.03-39.02,1.97-58.49-0.67c-2.16-1.89-4.3-3.79-6.45-5.69
			C384.63,234.21,401.88,213.14,431.48,199.48z"/>
		<path class="st6" d="M320.6,351.96c9.24,0,18.48,0,27.72,0c25.31,8.75,34.29,31.67,45.68,52.55c1.01,6.16-0.26,11.78-4.11,16.76
			c-9.24,0-18.48,0-27.72,0c-12.85-10.75-28.34-17.56-41.58-27.72c-7.61-7.75-22.66-11.77-13.86-27.72
			C306.39,356.23,311.01,351.61,320.6,351.96z"/>
		<path class="st10" d="M306.74,365.82c4.62,9.24,9.24,18.48,13.86,27.72c-10.27,0.43-20.08-1.5-29.32,7.7
			c-10.55,10.52-22.44,11.88-26.12-7.7c-3.91-3.08-5.21-6.16-3.91-9.24c1.3-3.08,2.6-4.62,3.91-4.62
			C279.9,377.68,289.08,359.04,306.74,365.82z"/>
		<path class="st6" d="M265.16,379.68c0,4.62,0,9.24,0,13.86c-4.62,0-9.24,0-13.86,0c-6.71,0.77-14.64-5.65-11.45-8.07
			c17.52-13.29,9.6-31.27,11.45-47.38c1.58-3.89,3.16-7.79,4.75-11.68c3.04,1.83,8.62,3.55,8.71,5.52
			C265.48,347.83,265.16,363.76,265.16,379.68z"/>
		<path class="st27" d="M389.9,282.65c-4.62,0-9.24,0-13.86,0c-0.35-9.59,4.27-14.21,13.86-13.86c4.58,3.08,6.1,6.16,4.58,9.24
			C392.96,281.11,391.44,282.65,389.9,282.65z"/>
		<path class="st11" d="M279.02,684.63c9.84-1.96,21.71,5.57,28.16-10.43c10.25-25.45,28.65-46.96,36.4-74.1
			c2.09-7.33,10.86-14.41,21.67-12.52c12.67,2.22,8.96,12.33,11.18,20.59c8.73,32.52-21.37,58.44-14.25,90.32
			c2.73,16.31-1.05,30.45-13.86,41.58c0,4.52,0.21,9.05-0.04,13.56c-1.14,20.49-1.21,20.55-24.51,14.13
			c-10.98-3.03-28.71,8.86-30.89-13.83c0-13.05-0.04-26.1,0.01-39.15c0.04-9.46-1.86-17.15-13.87-16.3
			C279.02,693.87,279.02,689.25,279.02,684.63z"/>
		<path class="st26" d="M431.48,837.1c-13.86,0-27.72,0-41.58,0c-9.24-4.62-18.48-9.24-27.72-13.86c0-18.48,0-36.96,0-55.45
			c18.89-15.62,38.59-30.26,56.81-46.82c15.12-3.88,26.52,0.5,33.48,14.94c2.1,6.87,2.7,13.84,1.97,20.95
			C444.53,782.96,439.83,810.56,431.48,837.1z"/>
		<path class="st4" d="M417.62,726.21c-1.35,41.58-1.35,41.58-55.44,41.58c0-9.24,0-18.48,0-27.72
			c-0.03-15.41,0.66-30.58,13.86-41.58c15.6-22.06,17.7-52.21,41.58-69.31C470.33,661.53,433.64,693.87,417.62,726.21z"/>
		<path class="st26" d="M376.04,698.49c-5.28,13.64,12.85,35.09-13.86,41.58c-4.62,0-9.24,0-13.86,0
			c5.28-13.64-12.85-35.09,13.86-41.58C366.8,698.49,371.42,698.49,376.04,698.49z"/>
		<path class="st5" d="M287.73,835.32c-7.78-1.06-9.69-6.31-8.64-12.98c1.54-9.71-6.16-23.45,10.79-26.74
			c6.94-1.35,13.6,0.89,16.63,7.37C309.72,809.84,294.91,834.16,287.73,835.32z"/>
		<path class="st25" d="M1027.44,518.29c-4.62,0-9.24,0-13.86,0c-7.29,8.52-16.31,13.57-27.72,13.86c-9.24,0-18.48,0-27.72,0
			c-11.19-10.93-12.26-23.8-7.33-37.83c19.04-21.67,46.81-34.17,62.77-59.2c22.68-4.2,31.92,5.04,27.72,27.72
			c0,9.24,0,18.48,0,27.72C1038.23,500.59,1033.99,510.02,1027.44,518.29z"/>
		<path class="st17" d="M916.56,559.88c-9.24,0-18.48,0-27.72,0c-16.26-17.78-18.1-38.04-10.39-59.91
			c3.15-6.21,7.89-10.9,14.31-13.78c18.85-0.17,28.56,14,39.95,25.58c9.01,9.65,3.23,24.31,11.57,34.25
			C943.19,573.28,941.89,573.93,916.56,559.88z"/>
		<path class="st10" d="M944.28,546.02c-20.73-1.18-11.77-17.22-13.86-27.72c-9.88-15.4-3.04-29.96,2.15-44.64
			c2.9-5.63,7.01-10.22,12.2-13.84c6.43-0.46,11.99,1.57,16.63,6.07c4.68,8.97,5.05,17.4-3.25,24.69c0,13.86,0,27.72,0,41.58
			C948.55,531.8,943.93,536.42,944.28,546.02z"/>
		<path class="st10" d="M985.86,532.15c1.18-20.74,17.21-11.77,27.72-13.86c-2.09,10.51,6.87,26.54-13.86,27.72
			C990.13,546.37,985.51,541.75,985.86,532.15z"/>
		<path class="st23" d="M958.14,490.57c0-9.24,0-18.48,0-27.72c0.37-2.32,0.74-4.63,1.06-6.97c2.07-4.27,4.74-8.13,8-11.6
			c5.28-4.95,11.19-8.65,18.66-9.15c9.24,0,18.48,0,27.72,0C1011.8,488.49,1011.5,488.79,958.14,490.57z"/>
		<path class="st21" d="M958.14,407.4c-1-13.01,7.91-13.02,17.21-14.12c6.93-0.82,12.08-5.15,10.51-13.6
			c13.86-9.35,27.72-9.46,41.58,0c-5.51,11.75,18.95,13.54,9.14,24.23c-4.23,4.61-15.73,2.69-23.96,3.42
			c-4.27,0.38-8.6,0.07-12.9,0.07C985.86,417.21,972,420.06,958.14,407.4z"/>
		<path class="st7" d="M958.14,407.4c13.86,0,27.72,0,41.58,0c-4.62,9.24-9.24,18.48-13.86,27.72c0.35,9.59-4.27,14.21-13.86,13.86
			c-2.28,1.81-4.55,3.62-6.83,5.45c-5.94-0.87-10.87-3.6-14.83-8.13c-4.82-7.66-6.22-16.16-6.07-25.04c0-4.62,0-9.24,0-13.86
			C948.9,407.4,953.52,407.4,958.14,407.4z"/>
		<path class="st22" d="M1027.44,379.68c-13.86,0-27.72,0-41.58,0c-6.72,0.69-14.97-4.65-11.21-8.29
			C986.71,359.68,1011.54,364.76,1027.44,379.68z"/>
		<path class="st1" d="M902.7,490.57c-4.62,0-9.24,0-13.86,0c-14.85-4.81-26.11-15.49-39-23.59
			c-21.99-20.09-60.31-30.47-44.15-73.43c9.24,0,18.48,0,27.72,0c23.88,21.54,49.28,40.05,83.16,41.58c8.2,6.8,9.57,15.74,8.1,25.62
			C921.02,473.38,914.85,484.19,902.7,490.57z"/>
		<path class="st16" d="M916.56,462.85c0-9.24,0-18.48,0-27.72c9.24-4.62,18.48-9.24,27.72-13.86
			c20.73,1.18,11.77,17.22,13.86,27.72c-0.87,8.37-9.47,9.01-13.86,13.86C935.04,471.15,925.8,470.21,916.56,462.85z"/>
		<path class="st16" d="M833.4,379.68c-13.01,1-14.63-7.91-13.59-17.21c0.77-6.93,5.14-12.08,13.59-10.51
			C833.4,361.2,833.4,370.44,833.4,379.68z"/>
		<path class="st1" d="M597.79,338.1c4.62,0,9.24,0,13.86,0c0,4.62,0,9.24,0,13.86c7.77,6.86,9.33,15.53,7.42,25.25
			c-2.96,8.97-8.31,16.38-14.9,22.99c-13.16,12.31-28.99,20.67-44.37,29.7c-19.04,8.94-30.97,26.73-47.74,38.64
			c-5.84,2.71-11.93,4.12-18.35,4.41c-14.39-1.56-24.58-8.26-28.35-22.93c-1.64-20.96,5-39.38,17.17-56.11
			c32.83-19.35,67.3-36.13,97.54-59.86C586.71,332.22,592.65,333.44,597.79,338.1z"/>
		<path class="st10" d="M611.65,379.68c0-9.24,0-18.48,0-27.72c27.47,0,55.23,2.41,82.31-0.84c18.32-2.2,27.59,12.33,42.43,14.7
			c-2.09,10.51,6.87,26.54-13.86,27.72c-8.55,7.67-18.68,10.46-29.96,9.82C665.61,395.51,633.93,403.57,611.65,379.68z"/>
		<path class="st11" d="M417.62,726.21c3.39-20.5-7.55-42.57,11.39-62.13c5.5-5.68,14.05-30.3-11.39-34.9
			c0.37-23.95-4.35-48.92,13.86-69.31c4.95-4.87,10.92-6.77,17.75-6.15c20.91,7.34,24.1,26.1,26.61,44.05
			c6.98,49.96,46.72,43.14,79.11,44.12c38.83,1.18,26.46-32.4,34.06-54.34c15.96-46.07-0.38-95.58,18.81-140.62
			c10.81-9.82,24.05-12.66,38.02-13.54c10.51-0.28,20.75,1.3,30.73,4.56c13.72,4.36,22.2,15.54,32.11,24.89
			c20.38,18.22,45.35,13.49,69.3,13.86c21.18,3.77,38.72,12.56,47.07,34.13c0.15,7.28-1.67,13.99-5.33,20.28
			c-50.92,50.3-102.06,99.94-116.33,175.23c-3.45,18.22-20.21,33.82-38.11,37.53c-73.3,15.18-147.47,41.14-219.93-3.8
			C444.16,719.34,428.12,728.3,417.62,726.21z"/>
		<path class="st13" d="M819.55,504.43c-21.5,2.23-36.15-5.84-41.58-27.72c-1.03-31.15,5.6-59.74,27.72-83.17
			c-3.74,20.7,6.56,35.63,24.37,40.75c16.68,4.8,26.61,12.56,31.06,28.55C854.41,483.86,838.08,495.24,819.55,504.43z"/>
		<path class="st21" d="M708.67,462.85c-10.51-2.09-26.54,6.88-27.72-13.86c-16.36-23.73-12.75-42.46,13.86-55.45
			c9.24,0,18.48,0,27.72,0C729.64,418.99,706.37,438.36,708.67,462.85z"/>
		<path class="st23" d="M757.72,408.42c-3.03-4.79-6.8-8.16-7.16-11.86c-0.91-9.27,0.78-17.48,13.47-17.03
			c6.7,0.24,14.15,1.92,11.12,9.04C771.9,396.17,763.88,401.73,757.72,408.42z"/>
		<path class="st1" d="M237.45,1211.36c-4.62,0-9.24,0-13.86,0c0-9.24,0-18.48,0-27.72c4.62-6.35,9.24-6.35,13.86,0
			C237.45,1192.87,237.45,1202.11,237.45,1211.36z"/>
		<path class="st3" d="M168.15,1433.14c-2.09-10.51,6.87-26.54-13.86-27.72c3.07-13.12,35.91-54.48,44.99-55.29
			c20.96-1.86,30.47,0.8,11.32,22.12c-5.62,6.26-0.87,21.85-0.87,33.16c8.32,9.24,7.22,18.48,0,27.72
			C195.87,1433.14,182.01,1433.14,168.15,1433.14z"/>
		<path class="st21" d="M209.73,1433.14c0-9.24,0-18.48,0-27.72c13.86,0,27.72,0,41.58,0c1.88,1.99,3.77,3.99,5.66,5.97
			c2.82,8.47,1.85,15.96-5.66,21.75C237.36,1452.13,223.67,1452.13,209.73,1433.14z"/>
		<path class="st13" d="M251.3,1391.55c16.1-1.85,34.08,6.07,47.37-11.45c2.42-3.18,8.83,4.75,8.07,11.45
			c-10.36,37.09-32.58,26.76-55.44,13.86C251.3,1400.79,251.3,1396.17,251.3,1391.55z"/>
		<path class="st10" d="M251.3,1405.41c13.05,0,26.1-0.04,39.14,0.01c9.46,0.04,17.15-1.86,16.3-13.88c9.24,0,18.48,0,27.72,0
			c-0.37,23.95,4.35,48.92-13.86,69.31c-25.56-27.72-25.56-27.72-69.3-27.72C251.3,1423.89,251.3,1414.65,251.3,1405.41z"/>
		<path class="st23" d="M1027.44,518.29c2.09-10.51-6.87-26.54,13.86-27.72c6.73-0.56,14.99,3.21,10.89,8.61
			C1046.2,507.06,1040.87,518.9,1027.44,518.29z"/>
		<path class="st24" d="M209.73,1134.59c0,4.53,1.09,9.47-0.39,13.45c-0.97,2.63-6.56,6.13-8.5,5.34c-7-2.83-7.51-45.4-0.49-49.87
			c1.64-1.04,8.77,2.2,8.95,3.93C210.23,1116.41,209.73,1125.53,209.73,1134.59z"/>
		<path class="st23" d="M237.45,1183.63c-4.62,0-9.24,0-13.86,0c2.09-10.51-6.87-26.54,13.86-27.72
			C237.45,1165.15,237.45,1174.39,237.45,1183.63z"/>
		<path class="st14" d="M833.4,1211.36c-2.9-31.05-10.53-38.68-41.58-41.58c2.47-14.45-6.42-30.68,8.29-43.33
			c8.34-7.17,18.07-19.04,27.2-10.08c23.29,22.86,50.65,6.5,75.38,11.83c-12.49,24.91-38.02,41.97-41.88,72.33
			C858.59,1218.03,843.26,1209.33,833.4,1211.36z"/>
		<path class="st15" d="M445.34,740.07c19.23,4.39,41.42-9.83,58.5,9.57c2.45,2.78,9.57,5.38,11.68,3.93
			c37.45-25.81,79.58-8.35,119.14-13.54c38.7-5.08,58.52-24.65,59.75-63.99c1.51-48.45,39.5-76.22,60.29-113.68
			c30.85-1.1,37.7-37.52,64.84-44.06c33.76-6.51,55.91,2.45,55.44,41.58c-13.86-0.52-22.69,11.69-25.19,19.63
			c-7.99,25.36-24.81,37.81-46.84,50.81c-23.86,14.08-44.76,33.21-55.68,63.05c-23.22,63.43-78.59,81.79-139.45,88
			c-18.07,1.84-36.5-0.26-54.72,0.56c-7.04,0.32-12.32,4.98-10.75,13.59c-4.62,0-9.24,0-13.86,0c-20.61-24.74-48.3,3.02-70.59-9.49
			c-11.16-7.97-19.24-17.16-12.57-32.1C445.34,749.31,445.34,744.69,445.34,740.07z"/>
		<path class="st26" d="M459.2,781.66c6.47,0,15.82,2.79,18.96-0.44c26.52-27.34,38.94-9.16,50.34,14.3
			c-13.64,5.28-35.08-12.85-41.58,13.86c-4.62,6.77-9.24,6.77-13.86,0c-9.59,0.35-14.21-4.27-13.86-13.86
			c-3.14-3.08-4.19-6.16-3.14-9.24C457.1,783.2,458.15,781.66,459.2,781.66z"/>
		<ellipse class="st8" cx="479.99" cy="823.24" rx="9.8" ry="19.6"/>
		<path class="st8" d="M514.64,864.82c-9.59,0.35-14.21-4.27-13.86-13.86C510.37,850.61,514.99,855.23,514.64,864.82z"/>
		<path class="st8" d="M500.78,850.96c-9.59,0.35-14.21-4.27-13.86-13.86C496.51,836.75,501.13,841.37,500.78,850.96z"/>
		<path class="st14" d="M819.55,1239.08c2.09-10.51-6.87-26.54,13.86-27.72C831.32,1221.86,840.28,1237.9,819.55,1239.08z"/>
		<path class="st20" d="M514.64,1045.02c1.58-9.76-5.05-27.5,9.32-26.65c28.77,1.7,49.88-7.49,68.39-28.34
			c2.91-3.28,12.7-0.46,19.31-0.46c23.74,13.22,42.22,31.7,55.44,55.45c12.23,18.48,15.27,36.96,0,55.44c-9.24,0-18.48,0-27.72,0
			c-3.09-0.35-6.17-0.71-9.28-0.99c-20.1-8.45-35.44-24.73-55.28-33.63C556.65,1053.42,530.26,1064.74,514.64,1045.02z"/>
		<path class="st1" d="M667.09,1100.47c0-18.48,0-36.96,0-55.44c30.67,7.76,28.83,31.79,27.72,55.44
			C685.57,1100.47,676.33,1100.47,667.09,1100.47z"/>
		<path class="st20" d="M639.37,1197.49c0,13.86,0,27.72,0,41.58c-4.62,0-9.24,0-13.86,0c-5.79,6.34-11.5,6.28-17.17-0.17
			C607.47,1216.72,608.11,1195.63,639.37,1197.49z"/>
		<path class="st16" d="M611.65,1239.08c4.62,0,9.24,0,13.86,0c0.35,9.59-4.27,14.21-13.86,13.86c-3.47-3.08-4.63-6.16-3.48-9.24
			C609.33,1240.62,610.49,1239.08,611.65,1239.08z"/>
		<path class="st19" d="M611.65,1239.08c0,4.62,0,9.24,0,13.86c-34.96,3.58-63.95-0.37-76.99-41.43
			c-10.89-34.3-5.25-75.5,19.23-102.19c13.15-14.33,29.16-6.7,43.9-8.86c13.86-12.34,27.72-9.54,41.58,0c0,9.24,0,18.48,0,27.72
			c0,23.1,0,46.2,0,69.31C615.84,1201.83,625.93,1228.58,611.65,1239.08z"/>
		<path class="st24" d="M639.37,1100.47c-13.86,0-27.72,0-41.58,0c-31.58-30.05-65.27-42.22-105.12-14.28
			c-4.45,3.12-12.98,0.42-19.62,0.42c0-4.62,0-9.24,0-13.86c5.34-3.9,9.38-9.1,13.86-13.86c9.24,0,18.48,0,27.72,0
			c23.1-10.51,46.2-10.36,69.3,0C601.94,1073.38,632.29,1071.41,639.37,1100.47z"/>
		<path class="st1" d="M583.93,1058.88c-23.1,0-46.2,0-69.3,0c0-4.62,0-9.24,0-13.86c17.58,0,35.15,0.02,52.73-0.01
			C576.81,1044.99,584.83,1046.59,583.93,1058.88z"/>
		<path class="st24" d="M431.48,1183.63c-4.62,0-9.24,0-13.86,0c5.28-13.64-12.85-35.09,13.86-41.58
			C431.48,1155.91,431.48,1169.77,431.48,1183.63z"/>
		<path class="st24" d="M445.34,1114.33c-2.09,10.51,6.87,26.54-13.86,27.72C433.57,1131.54,424.6,1115.51,445.34,1114.33z"/>
		<path class="st20" d="M486.92,1058.88c0.35,9.59-4.27,14.21-13.86,13.86C472.7,1063.15,477.32,1058.53,486.92,1058.88z"/>
		<path class="st24" d="M473.06,1086.6c0.35,9.59-4.27,14.21-13.86,13.86C458.85,1090.87,463.47,1086.25,473.06,1086.6z"/>
		<path class="st24" d="M459.2,1100.47c0.35,9.59-4.27,14.21-13.86,13.86C444.99,1104.73,449.61,1100.11,459.2,1100.47z"/>
		<path class="st18" d="M459.2,781.66c0,4.62,0,9.24,0,13.86c-26.71,6.5-8.58,27.94-13.86,41.58c-4.62,0-9.24,0-13.86,0
			c0-22.14,0.01-44.27-0.01-66.41c-0.01-9.44,1.37-17.69,13.86-16.76C449.96,763.18,454.58,772.42,459.2,781.66z"/>
		<path class="st16" d="M583.93,338.1c-6.22,21.04-26.12,30.47-39.08,45.79c-16.27,19.23-38.72,5.65-57.94,9.66
			c-1.98-2.43-3.95-4.86-5.96-7.28c3.79-39.58-6.88-78.2-7.9-117.47c4.62,0,9.24,0,13.86,0c24.48-2.3,43.85,20.98,69.3,13.86
			c9.24,13.86,18.48,27.72,27.72,41.58c3.85,3.08,5.13,6.16,3.85,9.24C586.5,336.56,585.22,338.1,583.93,338.1z"/>
		<path class="st23" d="M583.93,338.1c0-4.62,0-9.24,0-13.86c9.59-0.35,14.21,4.27,13.86,13.86
			C593.17,338.1,588.55,338.1,583.93,338.1z"/>
		<path class="st5" d="M445.34,559.88c-4.62,0-9.24,0-13.86,0c-18.98-31.03-24.8-60.48,9.42-85.82c8.87-6.57,2.77-16.72,4.44-25.07
			c9.24-7.33,18.48-8.69,27.72,0c1.18,20.74,17.21,11.77,27.72,13.86c4.8,4.5,7.5,9.98,7.84,16.59
			C499.45,515.62,471.48,537.03,445.34,559.88z"/>
		<path class="st23" d="M473.06,448.99c-9.24,0-18.48,0-27.72,0c-16.35-13.14-35.39-15.53-55.44-13.86c0-4.62,0-9.24,0-13.86
			s0-9.24,0-13.86c29.59-23.9,62.4-25.21,97.02-13.86C488.59,413.6,486.19,432.63,473.06,448.99z"/>
		<path class="st1" d="M320.6,393.54c21.5-2.23,36.15,5.84,41.58,27.72c-9.24,0-18.48,0-27.72,0
			C329.84,412.02,325.22,402.78,320.6,393.54z"/>
		<path class="st10" d="M874.98,559.88c-7.09-29.05-37.43-27.09-55.44-41.58c0-4.62,0-9.24,0-13.86
			c-0.26-14.96-2.87-30.53,21.35-28.98c6.36,0.41,9.47-14.24,20.23-12.6c22.68-4.2,31.92,5.04,27.72,27.72c0,23.1,0,46.2,0,69.31
			C884.22,559.88,879.6,559.88,874.98,559.88z"/>
		<path class="st10" d="M332.46,1341.04c-1.6,2.91-3.27,5.92-4.93,8.93c-1.54-1.54-4.59-3.42-4.33-4.56
			c0.73-3.26,2.79-6.22,4.33-9.3C329.07,1337.65,330.61,1339.19,332.46,1341.04z"/>
		<path class="st28" d="M486.92,393.54c-29.73,22.88-64.41,11.1-97.02,13.86c-29.05-7.09-27.08-37.44-41.58-55.45
			c0-4.62,0-9.24,0-13.86c5.29-3.95,8.95-9.53,13.86-13.86c1.53-3.84,3.06-7.68,4.59-11.53c3.16,1.61,7.17,2.47,9.36,4.95
			c13.76,15.54,28.3,29.35,50.9,17.73c22.31-11.47,18.28-33.02,18.3-52.73c-3.25-12.49-0.72-19.2,13.86-13.86c4.62,0,9.24,0,13.86,0
			C513.8,306.36,501.84,349.79,486.92,393.54z"/>
		<path class="st19" d="M459.2,268.79c-9.59-0.35-14.21,4.27-13.86,13.86c-18.48,0-36.96,0-55.44,0c0-4.62,0-9.24,0-13.86
			c10.42-0.34,19.59-0.16,29.74-7.58C432.45,251.86,450.37,244.18,459.2,268.79z"/>
		<path class="st6" d="M362.18,324.24c0.35,9.59-4.27,14.21-13.86,13.86C347.97,328.5,352.59,323.88,362.18,324.24z"/>
		<path class="st7" d="M916.56,462.85c9.24,0,18.48,0,27.72,0c1.67,20.05-0.73,39.09-13.86,55.45c-22.68,4.2-31.92-5.04-27.72-27.72
			C904.79,480.06,895.83,464.03,916.56,462.85z"/>
		<path class="st3" d="M944.28,462.85c-0.35-9.59,4.27-14.21,13.86-13.86c3.12,3.08,4.16,6.16,3.12,9.24
			c-1.04,3.08-2.08,4.62-3.12,4.62C953.52,462.85,948.9,462.85,944.28,462.85z"/>
		<path class="st25" d="M958.14,462.85c0-4.62,0-9.24,0-13.86c4.62,0,9.24,0,13.86,0C972.35,458.58,967.73,463.2,958.14,462.85z"/>
		<path class="st7" d="M653.23,448.99c-13.86,0-27.72,0-41.58,0c-6.97,7.24-15.33,11.7-25.43,12.78c-6.6,0.29-13.06-0.51-19.44-2.21
			c-6.2-2.48-11.35-6.37-15.53-11.57c-3.8-9.9-3.1-18.99,4.95-26.72c4.33-23.53,31.08-13.44,41.58-27.72
			C666.99,384.21,669.18,386.4,653.23,448.99z"/>
		<path class="st3" d="M653.23,448.99c0-8.9-1.16-17.99,0.22-26.67c3.77-23.68-5.32-32.76-28.99-29
			c-8.68,1.38-17.77,0.22-26.67,0.22c-0.35-9.59,4.27-14.21,13.86-13.86c22.13,0,44.27,0.01,66.4-0.01
			c9.44-0.01,17.69,1.37,16.76,13.87c-13.13,16.35-15.53,35.39-13.86,55.45C671.71,448.99,662.47,448.99,653.23,448.99z"/>
		<path class="st13" d="M556.21,421.26c0,9.24,0,18.48,0,27.72c1.04,27.15-16.56,23.56-33.83,20.53c-2.59-2.21-5.17-4.44-7.75-6.67
			C517.53,431.8,525.17,424.16,556.21,421.26z"/>
		<path class="st13" d="M500.78,476.71c0-4.62,0-9.24,0-13.86c4.62,0,9.24,0,13.86,0C517.95,475.41,513.1,479.8,500.78,476.71z"/>
		<path class="st4" d="M500.78,476.71c9.59,0.35,14.21-4.27,13.86-13.86c13.64-5.28,35.08,12.85,41.58-13.86c4.62,0,9.24,0,13.86,0
			c4.62,5.03,9.24,5.03,13.86,0c9.24,0,18.48,0,27.72,0c0,13.71-5.67,31.92,1.01,40.33c24.91,31.37,8.55,57.12-7.07,82.67
			c-6.55,10.71-6.92,16.47-2.63,28.94c19.71,57.24,7.89,68.29-54.66,56.21c-8.81-1.7-18.31,0.51-27.36-0.39
			c-19.87-1.97-46.77,10.03-57.81-6.01c-9.69-14.08-2.26-39.37-4.34-59.5c-1.16-11.23,9.48-29.04-13.47-31.37
			c0.21-10.65-0.91-20.37,8.31-29.96C470.02,512.88,491.77,500.3,500.78,476.71z"/>
		<path class="st24" d="M583.93,1142.05c26.63,16.75,11.66,42.23,11.54,63.61c-0.05,9.1-15.06,4.91-23.45,5.62
			c-10.6,0.89-16.24-3.65-15.91-15.04c0.39-13.43,0.09-26.88,0.09-40.32C563.65,1147.67,572.5,1142.28,583.93,1142.05z"/>
		<path class="st23" d="M583.93,1142.05c-1.18,20.74-17.21,11.77-27.72,13.86c1.88-9.82-6.28-24.15,10.39-27.39
			C575.67,1126.75,584.95,1128.88,583.93,1142.05z"/>
		<path class="st11" d="M583.93,448.99c0.49,6.74-0.88,12.87-9.18,10.99c-2.27-0.52-3.16-7.16-4.68-10.99
			C574.69,448.99,579.31,448.99,583.93,448.99z"/>
	</g>
</g>
</svg>
