<?xml version="1.0" encoding="utf-8"?>
<!-- Generator: Adobe Illustrator 23.1.0, SVG Export Plug-In . SVG Version: 6.00 Build 0)  -->
<svg version="1.1" id="Calque_1" xmlns="http://www.w3.org/2000/svg" xmlns:xlink="http://www.w3.org/1999/xlink" x="0px" y="0px"
	 viewBox="0 0 1125 1574.47" style="enable-background:new 0 0 1125 1574.47;" xml:space="preserve">
<style type="text/css">
	.st0{fill:#C2917A;}
	.st1{fill:#E5BF68;}
	.st2{fill:#FCF378;}
	.st3{fill:#C09501;}
	.st4{fill:#FDF89A;}
	.st5{fill:#B24F6F;}
	.st6{fill:#C8A301;}
	.st7{fill:#A17206;}
	.st8{fill:#EBC4A9;}
	.st9{fill:#F0DE73;}
	.st10{fill:#FDE2CE;}
	.st11{fill:#9CDCF4;}
	.st12{fill:#F4DF01;}
	.st13{fill:#E6CD02;}
	.st14{fill:#82AFBF;}
	.st15{fill:#F8D1BA;}
	.st16{fill:#D9B800;}
	.st17{fill:#AE8000;}
	.st18{fill:#FEF900;}
	.st19{fill:#EF91A9;}
	.st20{fill:#E6D143;}
	.st21{fill:#D8AC97;}
	.st22{fill:#F4E5DC;}
	.st23{fill:#FEFA4C;}
	.st24{fill:#FEFEFE;}
	.st25{fill:#7A7A7A;}
	.st26{fill:#D4A42C;}
	.st27{fill:#48A4D6;}
	.st28{fill:#8C8C8C;}
	.st29{fill:#403F3C;}
</style>
<g>
	<g>
		<path class="st0" d="M899.64,1379.14c-4.07,14.57-13.4,23.77-28.08,27.52c-4.68,4.8-9.86,9.07-14.42,13.99l0.12-0.12
			c-5.67,4.34-11.96,7.39-18.86,9.21c-19.68,9.36-40.7,8.66-61.66,8.42c-61.77-23.5-113.29,26.41-172.09,24.26
			c-17.62,0.03-35.26,0.54-52.86-0.08c-10.68-0.37-16.1,4.11-17.77,14.18c-81.53,43.51-162.32,17.31-243.16-2.47
			c-25.35-17.49-18.06-38.59-6.6-60.07c34.54-10.19,20.19-43.06,29.71-64.99c4.69-9.35,11.49-15.65,22.57-15.86
			c12.28,5.77,20.08,16.58,29.35,25.69c34.11,26.9,73.42,12.56,110.7,13.93c108.74-20.12,178.32-76.54,194.11-193.13
			c4.59-33.88,5.09-75.27,38.58-100.75c7.1-1.81,14.02-1.28,20.8,1.49c24.37,17.12,38.35,40.8,44.04,69.7
			c6.37,47.1-3.76,91.87-19.87,135.78c-2.36,6.43-6.7,16.3-1.78,19.23c5.16,3.07,10.98-5.8,15.02-11.08
			c18.28-23.89,28.52-53.01,48.85-75.61c14.84-18.14,23.67-40.66,41.11-56.99c21.28-16.53,44.38-24.27,71.11-14.87
			c17.43,8.82,30.04,22.18,37.8,40.11c16.18,64.44,7.68,122.56-43.74,169.43c-4.34,1.54-8.98,2.06-13.27,0.39
			c-4.06-1.58-7.25-4.58-10.03-7.8c-0.59,4.76,5.25,5.07,6.16,8.9C908.28,1366.09,906.39,1373.28,899.64,1379.14z"/>
		<path class="st1" d="M828.98,297.52c7.85-25.73,28.25-9.06,42.66-12.63c9.32,7.98,18.51,7.76,27.57-0.44
			c24.72,1.77,44.51-22.27,70.57-13.47c14.14,8.85,28.1,9.82,41.79-0.95c22.69-22.39,56.35-8.95,82.42-26.68
			c18.65-12.68,34.97,3.38,29.25,29.05c-10.61,47.54-22.46,95.05-38.35,140.99c-4.42,12.79,9.19,35.66-16.64,39.61
			c-21.43,0.65-38.71-9.39-55.21-21.29c-3.79-3.84-6.2-8.53-7.28-13.8c-0.06-7.29,2.22-14.57,0.97-21.83
			c-14.45-11.71-23.01,1.72-33.16,7.56c-3.76,4.42-7.71,8.56-11.64,12.79c-10.1,10.97-20.15,21.94-31.23,31.96
			c-7.31,6.34-15.46,11-25.05,12.95c-41.28-3.3-75.7-18.85-98.51-55.21c-3.41-9.38-4.16-19.01-2.64-28.78
			c1.28-6.02,3.5-11.8,6.36-17.24c10.17-16.72,22.83-32.63,19.23-54.36C829.67,303,829.33,300.26,828.98,297.52z"/>
		<path class="st2" d="M225.16,283.32c10.57-58.18,53.95-97.73,84.56-143.92c31.68-47.79,85.88-76.65,115.7-128.28
			c8.9-15.4,34.12-13.59,49.9-2.03c12.49,9.15,26.83,18.64,31.53,35.56c17.72,25.87-0.86,43.81-15.79,59.7
			c-22.41,23.86-28.75,50.57-23.71,81.53c-6.05,7.48-14.23,11.56-23.05,14.55c-19.77,2.58-27.16,19.24-37.12,33.02
			c-19.12,13.55-44.34,16.89-59.92,36.23c-22.65,23.98-15.57,59.08-31.94,85.38c-18.12,16.71-39.81,22.98-63.97,22.03
			c-6.48-1.59-12.06-4.83-16.76-9.57c-12.88-23.58-10.91-49.29-10.41-74.79C224.48,289.59,224.82,286.46,225.16,283.32z"/>
		<path class="st3" d="M899.64,1379.14c0.01-9.41,0.01-18.83,0.02-28.24l0.07-0.09c8.68-1.36,20.96,3.81,25.19-6.18
			c15.4-36.38,39.17-70.43,31.06-113.81c-2.92-15.63-0.62-32.23-0.71-48.38c-1.29-17.45-18.3-19.29-28.08-28.31
			c-25.66-7.19-45.12,16.28-69.76,14.11c-2.21-2.34-4.42-4.68-6.66-7c-10.82-40.06,11.11-64.73,45.2-69.96
			c38.35-5.89,52.82-31.22,68.98-58.74c27.44-31.79,61.58-49.34,104.07-49.41c15.53,0.25,28.8,6.12,40.33,16.28
			c6.7,32.5-29.84,42.85-36.04,70.01c-2.75,12.04-6.8,19.77,2.64,29.76c9.09,9.62,23.2,16.98,19.79,33.99
			c-4,19.93-9.83,42.64-26.24,52.31c-43.05,25.38-58.12,68.03-80.69,107.95c-16.24,28.71-34.71,58.78-63.03,79.8
			C917.09,1379.67,908.36,1377.45,899.64,1379.14z"/>
		<path class="st4" d="M464.45,186.01c1.39-20.23-24.12-9.19-27.37-23.34c-4.01-17.48,12.72-27.32,17.98-41.71
			c5.78-15.83,23.37-28.14,37.57-39.85c12.3-10.15,15.34-22.03,14.22-36.45c61.25,45.78,122.45,91.62,168.86,153.72
			c19.52,51.7-5.26,96.2-22.94,141.88c-74.31,40.69-73.34-28.93-95.35-64.95c-6.3-10.94-12.21-22.2-18.81-32.93
			c-8.43-17.39-23.72-21.98-41.57-21.88C480.83,214.04,459.62,212.26,464.45,186.01z"/>
		<path class="st5" d="M282.08,1462.7c43.53-6.5,82.42,20.87,127.03,15.16c41.03-5.25,83.23-1.26,124.92-1.33
			c3.36,17.68,19.52,25.03,30.32,36.44c14.7,15.54,19.77,30.25,4.95,48.31c-12.53,15.28-24.7,18.53-40.15,3.18
			c-3.81-3.79-13.08-4.15-19.31-3.05c-21.16,3.72-24.17-33.22-42.58-22.37c-18.31,10.8-35.55,5.41-53.1,8.08
			c-36.66,5.58-62.98-9.12-75.23-43.39c-5.69-15.92-8.88-7.9-17.42-4.1c-22.13,9.86-43.34,24.74-69.69,19.57
			c-7.16-1.41-11.81-6.13-11.97-14.08c-8.58-14.06,0.45-23.84,8.18-33.99C258.08,1463.15,267.99,1454.39,282.08,1462.7z"/>
		<path class="st6" d="M1080.83,831.03c-10.07,18.58-14.39,40.77-32.45,54.34c-10.84,8.15-8.59,19.45-9.34,30.23
			c-33.1,19.64-49.76-7.94-68.33-25.4c-26.51-24.92-41.7-58.89-64.76-86.79c-11.35-22.41-10.79-47.93-18.75-71.28
			c-4.28-21.44-6.05-42.68,5.77-62.64c29.94-20.36,44.86,2.69,61.33,21.29c-4.12,21.02,20.64,33.93,15.52,55.23
			C986.49,800.91,1045.89,799.98,1080.83,831.03z"/>
		<path class="st7" d="M604.66,1462.42c31.22-26,74.72-27.99,106.04-54.49c7.38-6.25,16.32,2.03,23.35,7.99
			c11.73,9.96,26.16,2.43,39.08,5.12c-2.25,50.79,12.4,89.5,69.76,97.7c-15.15,27.5-41.34,30.29-67.95,27.89
			c-28.15-2.53-56.44,8.33-84.13-16.21C663.78,1506.47,632.94,1485.73,604.66,1462.42z"/>
		<path class="st8" d="M86.91,1336.54c-14.41-36.99-40.08-70.53-16.81-115.46c9.3-17.97,2.21-44.44,2.57-67.04
			c12.02-18.72,3.84-39.58,6.28-59.32c0.16-20.45-0.42-40.89,0.44-61.33c3.88-41.32,7.15-82.74,22.9-121.91
			c3.3-6.76,8.2-11.97,14.66-15.81c7.27-2.36,14.58-2.65,22.03-1c44.05,23.57,73.73,53.56,48.09,108.13
			c-47.88,14.61-64.04,51.39-67.68,97.06c-1.98,24.8-0.54,49.9-6.27,74.36c-24.53,45.89,13.34,79.86,22.97,119.27
			C130.72,1320.43,119.25,1340.46,86.91,1336.54z"/>
		<path class="st9" d="M646.83,340.29c-3.64-50,21.19-94.21,28.88-141.91c41.37,8.15,60.76,41.73,83.11,71.89
			c-2.08,40.42,0.84,82.76-41.55,107.68C687.58,377.06,654.39,382.62,646.83,340.29z"/>
		<path class="st10" d="M717.26,368.34c21.12-22.67,17.16-53.95,26.95-80.57c3.26-8.85,3.51-16.65,14.61-17.5
			c7.09,0.38,13.5,3.91,13.87,10.63c1.11,20.17,16.56,15.83,28.36,18.04c4.52,3.77,6.65,8.6,6.5,14.45
			c-1.94,13.73-1.31,27.38,1.94,40.96c0.35,5.73-0.09,11.37-1.26,16.98c-0.35,8.74-0.21,17.5-2.39,26.08
			c-2.92,14.94-4.27,30.24-10.84,44.31c-11.82,23.14-23.24,46.67-49.76,56.99c-6.9,0.06-12.93-2.19-18.17-6.68
			c-8.72-11.11-10.8-24.07-10.62-37.66c0.94-16.48,6.07-31.32,17.26-43.03c2.69-2.5,6.29-4.76,10.28-6.4
			c-2.28-3.34-5.68-3.54-10.59-0.56c-8.74-0.6-15.21-4.6-20.38-11.26C709.19,383.87,709.47,375.44,717.26,368.34z"/>
		<path class="st11" d="M1011.53,424.46c24.39-1.4,41.84,11,56.71,28.53c9.93,22.7,38.21,38.32,26.75,69.29
			c-47.34,36.06-93.63,77.26-157.57,32.14c-10.92-16.34-12.13-33.75-5.58-51.9c3.08-6.2,8.03-10.51,14.4-13.15
			c14.73-2.93,31.9,10.57,44.31-2.51c13.28-13.99-4.74-22.99-9.87-34.01C979.94,431.35,993.56,425.53,1011.53,424.46z"/>
		<path class="st12" d="M23.28,788.74c18.87-53.27,38.78-123.27,76.3-167.97c9.7-8.25,20.04-8.16,30.85-2.46
			c18.42,28.62,28.16,58.93,17.85,92.93c-25.76,5.67-24.64,31.28-35.55,48.19C85.3,801.94,51.95,821.06,23.28,788.74z"/>
		<path class="st13" d="M29.12,774.2c2.16,21.77,23.2,19.37,30.34,14.26c26.51-18.95,58.61-35.99,54.63-77.57
			c-0.59-6.1-4.41-19.26,10.11-14.59c3.51,1.13,3.1,12.07,6.33,17.37c1.81,2.98,7.39,3.66,11.28,5.38c3.05,0.86,6.1,1.73,9.17,2.56
			c5.38,3.62,9.6,8.28,12.76,13.94c3.64,9.19,4.37,18.66,2.64,28.37c-1.68,6.29-4.41,12.09-8.13,17.44
			c-15.45,16.69-29.38,34.89-47.24,49.39c-16.35,11.78-31.15,27.86-50.81,32.07c-36.72,7.85-57.26-4.33-44.94-46.26
			C20.12,802.53,3.28,781.38,29.12,774.2z"/>
		<path class="st14" d="M941.58,550.44c39.15,12.85,77.17,13.88,108.18-17.67c14.11-14.36,29.95-8.24,45.23-10.49
			c3.4,28.1-1.91,52.96-26.36,70.67c-5.23,4.45-10.71,8.65-14.61,14.44l0.24-0.21c-14.79,8.05-35.01,7.59-42.45,27.13
			c-9.35,0.22-18.71,0.44-28.06,0.66c-2.51-1.6-5.02-3.2-7.58-4.72c-11.84-17.5-34.02-24.96-43.63-44.74
			C929.29,572.19,930.29,559.98,941.58,550.44z"/>
		<path class="st0" d="M254.07,1476.86c-4.74,9.42-9.47,18.84-14.21,28.25c-30.12-0.08-60.59,2.61-90.25-1.13
			c-22.44-2.83-52.05-3.89-50.1-40.23c-7.46-9.96-8.7-20.39-2.37-31.4c12.52-10.38,27.15-11.39,42.4-9.74
			c20.22,3.34,40.48,6.31,61.15,3.81C238.6,1421.84,256.9,1438.21,254.07,1476.86z"/>
		<path class="st9" d="M169.8,452.35c20.26-37.13,20.28-40.18,14.69-88.01c-1.83-15.69-0.69-31.76-0.37-47.65
			c0.59-29.26,0.76-29.25,41.03-33.37l0.98,0.78c17.23,25.97-4.25,58.34,13.91,84.15l0.09,0.15c7.09,7.1,10.6,15.66,10.46,25.66
			c-7.98,24.6-22.15,47.69-19.14,75.26c-10.96,17.48-24,31.46-47.25,28.4C169.09,485.89,169.04,469.25,169.8,452.35z"/>
		<path class="st15" d="M141.79,1434.78c-13.98-0.01-27.96-0.01-41.94-0.02c-29.63-18.65-23.28-44.7-14.66-71.23
			c0.57-9,1.14-18,1.72-27c18.06-9.77,32.72-22.84,40.93-42.17c10.72-11.39,24.36-15.56,39.49-16.15
			c43.57,3.41,62.5,18.2,26.65,58.08c-16.28,15.38-48.18,19.39-38.8,53.59C156.07,1406.48,156.16,1422.82,141.79,1434.78z"/>
		<path class="st3" d="M842.88,1518.74c-16.17,0.05-32.35,0.24-48.52,0.13c-57.84-0.37-58.34-2.39-36.05-54.78
			c5.79-13.6,21.49-24.91,14.8-43.06c23.37-0.14,46.74-0.27,70.12-0.41c3.57,3.13,4.77,6.27,3.59,9.42
			c-1.18,3.15-2.37,4.72-3.56,4.72C823.58,1462.66,824.3,1490.66,842.88,1518.74z"/>
		<path class="st16" d="M15.26,816.58c0.59,11.12-1.06,22.11,9.36,31.23c11.3,9.89,19.77,16.96,34.3,3.89
			c16.06-14.45,25.97-40.05,54.84-34.45c10.67,5.87,16.09,15.84,20.76,26.46c2.81,8.67,2.93,17.36,0.1,26.08
			c-2.9,5.41-7.02,9.62-12.27,12.78c-5.45,2.59-11.11,4.61-16.9,6.23c-28.74,6.92-38.04,50.13-75.58,40.63
			C-5.36,881.96-8.36,858.8,15.26,816.58z"/>
		<path class="st16" d="M913.41,803.24c10.05,1.87,23.29-5.13,27.78,11.54c11.16,41.42,43.82,66.75,72.09,95.42
			c7.82,7.93,17.1,4.07,25.75,5.4c0.63,4.47,0.87,8.96,0.72,13.47c8.21,9.67,8.13,19.89,2.01,30.52
			c-58.26-1.3-147.94-82.96-149.48-137.05C891.93,810.24,897.79,800.27,913.41,803.24z"/>
		<path class="st1" d="M941.58,550.44c0.03,13.97,0.06,27.94,0.09,41.9c14.52,13.62,28.62,27.66,41.9,42.5l0.17,0.13
			c-9.81,18.6-19.63,37.2-29.44,55.81c-27.47,8.69-33.24-25.25-54.91-27.97c-1.97-2.43-3.94-4.86-5.93-7.29
			c-2.79-9.41-1.47-18.34,2.97-26.92c12.38-15.57,12.24-32.77,6.3-50.74c-2.45-9.33-3.66-18.75-3.63-28.39
			c0.21-10.06,2.18-19.73,5.87-29.08c8.69-13.71,14.26-32.02,36.88-25.82C941.75,513.21,941.66,531.82,941.58,550.44z"/>
		<path class="st13" d="M1080.83,831.03c-30.51,7.86-54.88-18.93-85.91-14.8c-10.63,1.42-24.32-12.66-25.39-28.28
			c-0.95-13.91,0.11-27.95,0.29-41.94c33.66,14.49,67.38,28.85,100.96,43.53C1092.01,798.82,1078.45,816.95,1080.83,831.03z"/>
		<path class="st6" d="M29.87,929.43c19.14-4.17,34.77-20.7,37.89-33.97c7.37-31.3,28.65-19.6,45.93-22.11
			c8.4,9.38,8.39,18.84,0.28,28.38l0.1-0.12c-27.32,27.68-10.81,80.46-56,97.91C48.67,976.16,39.27,952.8,29.87,929.43z"/>
		<path class="st11" d="M169.8,452.35c27.41,6.46,8.51,28.21,13.84,41.96c4.87,4.08,6.76,9.18,5.28,15.44
			c-5.91,13.91-16.83,24.17-26,35.73c-10.41,7.97-14.68,28.43-34.6,17.44C127.67,520.63,122.03,476.46,169.8,452.35z"/>
		<path class="st17" d="M58.07,999.53c16.54-1.49,12.39-13.81,13.94-24.46c4.33-29.73,9-59.92,42.06-73.45
			c1.42,43.1-15.5,83.07-21.53,124.91c-0.11,0.77-4.31,0.94-6.6,1.39c-4.55,6.82-9.17,6.52-13.83,0.11
			C67.43,1018.54,62.75,1009.03,58.07,999.53z"/>
		<path class="st12" d="M1039.64,957.62c0.04-9.51,0.07-19.03,0.11-28.54c4.61,0.21,9.19,0.68,13.74,1.42
			c4.91,4.23,9.78,8.52,14.59,12.87c13.93,5.14,35.04-12.48,42.43,13.39c6.97,9.86,7.39,19.59-0.61,29.14
			c0.04,4.51-0.15,9.02-0.57,13.51c-13.86,0.07-27.73,0.15-41.59,0.22c-8.75-11.49-24.69-14.44-32.39-27.21
			C1033.23,966.46,1034.84,961.57,1039.64,957.62z"/>
		<path class="st18" d="M128.31,562.92c7.62,0.96,12.79-2.98,12.75-9.96c-0.06-10.62,5.32-15.46,14.36-18.12
			c19.96,38.06,19.73,69.61-27.67,85.97c-9.39-0.01-18.78-0.02-28.17-0.03C92.58,593.25,124.87,585.25,128.31,562.92z"/>
		<path class="st19" d="M85.19,1363.53c1.26,24.49-2.81,50.08,14.66,71.23c-0.11,9.66-0.22,19.32-0.34,28.99
			c-15.73-5.82-29.33-16.05-27.08-33.47C75.31,1407.94,59.15,1381.4,85.19,1363.53z"/>
		<path class="st4" d="M801.15,368.32c-0.05-4.75-0.1-9.5-0.16-14.26c-9.34-13.95-9.38-27.89,0.02-41.83
			c0.13-4.43,0.15-8.86,0.04-13.3c9.31-0.47,18.62-0.95,27.93-1.42c0,0,0.29,1.09,0.29,1.09c17.22,27.64-5.34,47.35-13.91,69.85
			l0.03-0.02C810.6,374.49,805.85,374.74,801.15,368.32z"/>
		<path class="st13" d="M72.11,1028.04c4.61-0.38,9.22-0.42,13.83-0.11c-0.11,23.31-0.22,46.61-0.33,69.92
			c-4.47,6.38-9,6.42-13.58,0.11C72.06,1074.65,72.09,1051.35,72.11,1028.04z"/>
		<path class="st20" d="M72.03,1097.96c4.53-0.02,9.06-0.06,13.58-0.11c0.09,12.91-0.19,25.84,0.41,38.73
			c0.46,10-2.94,16.19-13.35,17.45C72.45,1135.34,72.24,1116.65,72.03,1097.96z"/>
		<path class="st11" d="M1011.8,634.32c-5.26-39.43,23.55-25.53,42.45-27.13C1046.23,625.81,1026.01,625.36,1011.8,634.32z"/>
		<path class="st9" d="M1011.57,270.03c-14.1,19.21-26.33,19.49-41.79,0.95C983.71,270.66,997.64,270.34,1011.57,270.03z"/>
		<path class="st2" d="M899.21,284.45c-0.71,10.62-6.81,15.29-16.87,13.76c-6.91-1.05-10.73-5.98-10.7-13.32
			C880.83,284.74,890.02,284.6,899.21,284.45z"/>
		<path class="st3" d="M1109.91,985.89c0.2-9.71,0.41-19.42,0.61-29.14C1129.98,969.63,1129.88,974.44,1109.91,985.89z"/>
		<path class="st16" d="M1068.08,943.37c-8.89,0.28-14.27-3.43-14.59-12.87C1063.06,929.45,1067.4,934.33,1068.08,943.37z"/>
		<path class="st17" d="M857.14,1420.65c-0.04-9.67,5.07-14.02,14.42-13.99C871.25,1415.95,866.55,1420.73,857.14,1420.65z"/>
		<path class="st17" d="M843.27,1434.76c-0.01-4.71-0.02-9.42-0.03-14.14c4.67-0.12,9.35-0.15,14.02-0.09
			C857.26,1429.86,852.61,1434.62,843.27,1434.76z"/>
		<path class="st11" d="M1054.02,607.39c-0.81-10.56,4.72-14.71,14.61-14.44C1067.71,601.77,1063.21,606.95,1054.02,607.39z"/>
		<path class="st21" d="M717.21,1083.81c-7.81,0-14.76,4.58-14.37,11.3c4,68.47-33.91,127.12-45.2,192.21
			c-4.07,23.47-20.97,46.12-51.27,56.26c-43.13,14.44-83.46,37.21-127.93,48.89c-7.86-7.78-8.81-17.02-5.74-27.12
			c12.33-19.33,27.88-35.82,45.1-50.86c14.48-17.76,46.72-7.53,54.84-35.24c-1.73-11.94,2.94-22.06,8.18-32.1
			c5.64-10.59,11.1-21.23,15.55-32.41c2.93-8.96-1.62,1.81,2.45-6.53c32.19-65.92,30.16-123.24-40.06-164.05
			c18.77-32.37,50.79-48.34,81.53-65.94c21.48-2.44,35.99,9.56,49.4,23.84c5.8,6.8,10.42,14.44,14.85,22.14
			c3.22,4.67,6.2,9.56,9.22,14.39c4.88,7.01,9.16,14.36,11.42,22.72C726.33,1070.13,724.75,1078.03,717.21,1083.81z"/>
		<path class="st19" d="M141.79,1434.78c0.07-18.66,0.13-37.32,0.2-55.98c8.33-19.69,28.99-27.2,41.87-42.4
			c1.49-8.69-3.31-19.05,5.73-25.67c6.06-4.43,21.3,0.65,18.77-10.76c-2.15-9.7-15.86-4.92-24.63-5.55
			c-4.61-0.33-9.25-0.05-13.88-0.05c10.51-43.77,44.1-28.09,71.67-28.02c23.63,6.08,44.64,18.88,67.58,26.89
			c12.65,5.36,23.94,12.54,31.38,24.57c2.27,6.62,1.46,12.87-2.4,18.73c-9.3,0-13.84,4.74-13.84,13.96
			c-19.9,13.42-8.27,42.6-28.04,56.08c5.92,21.38-20.03,34.72-14.12,56.1c-9.34,4.72-18.67,9.44-28.01,14.16
			c-17.01-1.56-14.14-14.06-14.11-25.26c0.05-15.6-8.45-18.84-22-14.99C168.3,1450.71,168.29,1450.66,141.79,1434.78z"/>
		<path class="st16" d="M829.26,1224.24c-27.89,31.73-31.49,79.54-69.43,104.76c-5.69,3.78-9.97,9.67-14.92,14.56
			c-7.18,7.09-15.33,10.21-23.79,2.97c-5.82-4.99-6.45-14.5-1.56-18.05c15.84-11.5,7.14-30.19,14.95-43.64
			c23.56-40.58,27.41-84.94,24.91-130.5c8.17-7.73,17.71-12.31,29.08-12.75c15.44,0.74,27.69,6.97,35.51,20.75
			C834.43,1182.2,828.11,1203.53,829.26,1224.24z"/>
		<path class="st15" d="M338.08,1336.55c0.03-4.69,0.06-9.39,0.09-14.08c60.81-33.67,121.62-28.07,182.43-0.03
			c-13.38,14.65-9.04,47.08-42.09,42c-42.04,5.1-84.09,11.29-126.14,0.04C332.35,1362.99,339.76,1347.44,338.08,1336.55z"/>
		<path class="st8" d="M352.38,1364.48c40.64-21.66,82.64-18.09,124.96-6.4c0.91,0.25,0.81,4.16,1.18,6.36
			c-0.03,9.34-0.05,18.69-0.08,28.03c-36.15,0.02-72.31-0.26-108.46,0.17C347.83,1392.9,353.35,1376.9,352.38,1364.48z"/>
		<path class="st5" d="M887.28,1224.42c-6.94,0-14.02,0.78-20.75-0.41c-2.47-0.44-6.15-7.89-5.86-8.14
			c15-12.8,22.16-36.78,48.39-33.84c9.75,1.09,18.56,2.13,18.21,14.62c-0.3,10.65,4.27,24.44-12.19,27.2
			c-9.03,1.51-18.51,0.27-27.79,0.27C887.28,1224.22,887.28,1224.32,887.28,1224.42z"/>
		<path class="st7" d="M787.13,1154.04c-9.24,0.1-18.48,0.19-27.71,0.29c1.02-14.08-1.24-26.75-14.22-35.27
			c-12.75-8.37-16.1-20.73-14.22-35.13c3.05-1.97,6.1-3.93,9.15-5.91C785.33,1085.09,803.56,1108.85,787.13,1154.04z"/>
		<path class="st3" d="M829.26,1224.24c-10.07-1.09-15.09-5.95-14.47-16.83c0.74-13.08,0.32-26.22,0.41-39.33
			c14.02-12,28.04-11.07,42.06-0.01l0.18,0.18C858.62,1192.24,845.99,1209.27,829.26,1224.24z"/>
		<path class="st21" d="M296.2,1406.6c-0.01-10.99,1.21-22.15-0.28-32.93c-3.34-24.21,12.38-23.44,28.32-23.15
			c-0.01,15.3,0.26,30.6-0.09,45.89C323.65,1417.45,320.39,1418.56,296.2,1406.6z"/>
		<path class="st7" d="M927.2,1154.13c9.09-0.02,18.23,0.51,27.27-0.23c8.48-0.7,12.79,4.1,14.44,10.71
			c2.69,10.75-2.75,16.72-13.62,17.83C940.39,1178.5,930.9,1169.19,927.2,1154.13z"/>
		<path class="st21" d="M899.66,1350.9c-4.87-3.27-12.57-5.72-13.83-10.05c-1.35-4.62,3.39-11.01,5.47-16.63
			c6.37,2.46,8.43,7.27,8.05,13.81c-0.25,4.24,0.23,8.52,0.38,12.79C899.73,1350.81,899.66,1350.9,899.66,1350.9z"/>
		<path class="st7" d="M717.21,1083.81c-0.31-9.25-0.63-18.5-0.94-27.74c24.52-1.27,23.54,11.15,14.86,27.7l-0.16,0.16l-6.88-0.13
			L717.21,1083.81z"/>
		<path class="st4" d="M941.83,494.59c-10.82,0.64-14.69,6.2-14.69,17.12c0,7.16-6.56,10.58-13.79,11.04
			c-27.82,2.57-23.26-17.18-23.34-33.73c1.99-6.3,5.5-11.75,10.14-16.42c13.03-8.19,27.93-14.97,27.22-34.23
			c3.62-15.14,12.98-24.48,28.17-27.96c18.64-14.17,37.29-17.43,55.96-0.05c0.01,4.7,0.02,9.4,0.03,14.1
			c-0.38,7.15-3.73,13.63-10.79,13.68c-10.62,0.07-16.34,3.72-17.32,14.34c-2.59,18.45-11.8,32.5-27.91,41.94
			C950.96,494.57,946.4,494.62,941.83,494.59z"/>
		<path class="st0" d="M912.79,480.19c-4.56,0.02-9.11,0.11-13.66,0.29c-4.91,4.69-10.69,7.4-17.51,7.87
			c-34.46-10.96-66.47-26.59-94.33-50.05c5.15-13.83-13.82-35.66,13.91-42.01c4.89-7.01,9.52-6.49,13.93,0.47
			c27.54,29.16,50.4,42.18,97.97,55.81C922.22,461.87,921.27,471.07,912.79,480.19z"/>
		<path class="st22" d="M815.37,368.45c-7.5-25.7,15.93-45.24,13.91-69.85c14.77,0.24,37.48-3.09,24.32,21.68
			C844.39,337.65,842.08,363.84,815.37,368.45z"/>
		<path class="st0" d="M955.51,396.56c7.85-22.27,30.02-22.21,47.07-27.61c16.56-5.24,27.9,6.91,34.11,22.24
			c0.3,0.75-2.86,2.91-4.41,4.42c-1.63-9.21-10.45,9.44-6.8,0.82C1002.18,406.8,978.86,406.67,955.51,396.56z"/>
		<path class="st23" d="M955.51,396.56c23.32-0.04,46.65-0.08,69.97-0.13c0.11,9.43-4.75,13.88-13.98,13.93
			c-18.65,0.02-37.31,0.04-55.96,0.05C955.57,405.8,955.56,401.18,955.51,396.56z"/>
		<path class="st22" d="M912.79,480.19c0.1-9.21,0.2-18.42,0.31-27.62c0.41-9.11,4.96-14.05,14.28-14.19
			c14.95,2.31,18.71,11.56,10.81,22.92C932.29,469.76,926.23,480.69,912.79,480.19z"/>
		<path class="st22" d="M815.12,396.76c-4.64-0.13-9.28-0.29-13.93-0.47c-0.02-9.32-0.03-18.64-0.05-27.97
			c4.75,0.04,9.5,0.08,14.25,0.12C815.31,377.87,815.21,387.32,815.12,396.76z"/>
		<path class="st19" d="M310.34,354.09c0.63-35.18-8.23-73.09,28.07-98.06c5.53,4.4,9.09,10.18,12.13,16.48
			c7.41,15.38,6.05,40.91,32.83,36.07c20.58-3.72,28.57-21.61,31.22-41.18c1.55-11.42-0.22-23.11,2.56-34.49
			c3.81-11.41,13.03-13.58,23.41-13.84c6.59,0.99,12.66,3.4,18.22,7.07c19.06,18.78,32.02,40.03,26.9,68.35
			c-6.33,13.29-12.28,26.76-11.33,42.19c-0.92,9.86-4.32,18.43-12.36,24.72c-8.82,5.3-18.45,7.98-28.54,9.38
			c-34.36,0.38-67.57,18.86-102.77,6.75C320.59,372.58,313.36,365.14,310.34,354.09z"/>
		<path class="st22" d="M422.23,228c21.32,47.76,6.29,93.43-36.97,112.3c-16.87,7.36-44.35-8.19-46.73-28.71
			c-2.12-18.28-0.24-37.02-0.12-55.55c17.06-24.96,42.21-29.87,69.99-28.24C413.07,223.67,417.68,223.52,422.23,228z"/>
		<path class="st1" d="M310.34,354.09c9.3,0.08,13.91,4.8,13.92,14.08c-1.17,3.16-2.34,6.32-3.48,9.51
			c-6.14,8.45-14.33,14.24-23.81,18.36c-18.9,5.49-37.86,17.35-56.87,0.26c0.02-9.29,0.03-18.59,0.05-27.88
			C264.89,370.27,284.57,347.25,310.34,354.09z"/>
		<path class="st10" d="M464.45,186.01c4.57,23.55,31.19,13.89,42.06,27.95c2.39,7.63,0.53,14.02-5.55,19.21
			c-18.1,10.58-34.66,5.89-50.57-5.12l0.07-0.16c-15.07-10.52-30.12-21.05-13.95-41.96C445.83,185.96,455.14,185.99,464.45,186.01z"
			/>
		<path class="st4" d="M436.52,185.94c-6.3,17.63,11.6,27.21,13.95,41.96c-9.41,0.03-18.83,0.07-28.24,0.1
			c-4.61,0.02-9.22-0.05-13.83-0.21C393.34,198.75,398.97,190.36,436.52,185.94z"/>
		<path class="st4" d="M240.05,368.25c-10.55-0.98-14.8-6.48-14.46-17.3c0.69-22.27,0.43-44.56,0.55-66.85
			c10.62,0.99,14.62,6.68,14.31,17.39C239.81,323.73,240.13,346,240.05,368.25z"/>
		<path class="st16" d="M1039.65,971.6c22.2-3.54,31.65,5.73,28.09,28.03c-41.79-7.07-67.2,24.07-98.22,42.12
			c-8.92,8.11-19.01,8.69-29.81,4.69c-45.55-59.68-103.91-83.2-178.3-64.98c-43.59,10.68-81.94-13.35-122.69-21.57
			c-6.52-2.04-12.58-5.09-18.32-8.78c-11.01-9.13-14.39-22.09-17.66-35.15c-1.95-6.29-3.46-12.7-4.94-19.15
			c-1.74-6.53-2.51-13.16-2.65-19.92c0.97-10.74,4.74-19.84,14.79-25.28c6.56-2.47,13.36-3.54,20.36-3.53
			c62.07,36.18,128.5,45.25,199.49,36.97c55.43-6.46,105.38,10.42,145.18,51.43C993.01,955.09,1012.21,970.72,1039.65,971.6z"/>
		<path class="st17" d="M941.5,1041.73c9.34,0.01,18.68,0.01,28.03,0.02c1.46,24.02-13.68,41.22-25.09,59.76
			c-4.98,8.09-13,11.29-23.4,10.17c-51.34-5.55-58.84,1.31-63.78,56.38c-14.02,0-28.04,0.01-42.06,0.01
			c-1.73-19.95-17.14-12.5-28.07-14.03c-6.67-32.99-11-67.84-55.99-70.28c-1.63-11.02,6.06-27.04-14.86-27.7
			c-9.28-0.17-13.34-5.29-13.42-14.18c48.48-28.31,104.82-28.42,157.21-42.49C895.34,989.93,918.71,1018.86,941.5,1041.73z"/>
		<path class="st1" d="M717.26,368.34c-0.02,9.35-0.04,18.7-0.06,28.05c-2.24,2.16-4.48,4.33-6.7,6.52
			c-48.14,16.76-95.48-31.37-143.85-1.67c-6.6,1.27-12.96,0.48-19.18-1.97c-4.72-4.88-8.08-10.54-10.23-16.97
			c-2.44-9.97-2.52-20-1.06-30.1c1.96-13.27,6.41-26.06,7.64-39.5c2.86-20.02,1.09-41.61,18.82-56.66
			c21.41,4.81,18.21,27.22,27.25,40.65c7.58,11.25-8.14,34.61,9.77,42.3c13.43,5.77,31.3,1.24,47.19,1.29
			C656.65,349.56,694.29,364.55,717.26,368.34z"/>
		<path class="st20" d="M562.63,256.05c0,23.39,0,46.77,0.01,70.16c-44.88-11.9-33.85-50.03-38.08-81.06
			c4.04-11.21,9.79-20.1,23.98-17.11C553.23,237.38,557.93,246.71,562.63,256.05z"/>
		<path class="st9" d="M548.53,228.04c-9.31-0.06-13.86,4.65-13.86,13.89c-3.56,4.71-8.17,6.57-14.01,5.15
			c-4.99-2.63-9.03-6.3-12.17-10.98c-0.69-2.68-1.35-5.38-2.02-8.08c0.01-4.68,0.03-9.37,0.04-14.05c2.21-14.82,11.4-18.74,22.71-11
			C537.72,208.78,548.43,214.89,548.53,228.04z"/>
		<path class="st13" d="M1039.65,971.6c-17.37,9.75-34.32,24.72-51.2-1.72c-14-21.93-43.91-27.91-55.51-53.4
			c-1.23-2.71-14.9,2.09-19.55-1.19c-35.48-25.07-75.52-9.49-113.18-14.06c-28.88,31.26-56.92-10.42-87.19-0.6
			c-35.63,11.56-50.69-23.31-73.67-40.2c-4.58-3.37-13.48-0.86-20.39-1.07c-8-8.09-8.66-17.41-4.64-27.48
			c4.74-5.24,11.83-11.8,17.34-9.83c86.27,30.79,116.19-22.73,136.94-90.54c30.93-19.62,56.26-7.3,68.85,20.75
			c23.69,52.81,25.09,10.02,34.44-5.91c5.9-10.06,13.58-18.97,27.62-13.25c10.42,1.05,14.67,6.51,14.26,17.22
			c-0.68,17.62-0.3,35.28-0.36,52.92c-11.41,0.73-18.68,9.86-13.35,17.47c11.32,16.16,15.64,36.05,31.14,50.15
			c27,24.55,52.57,50.76,77.55,77.4c9.35,9.98,19.65,9.44,30.89,9.35C1039.64,962.28,1039.65,966.94,1039.65,971.6z"/>
		<path class="st20" d="M899.52,733.11c-25.08,34.46-28.07,35.81-17.82,58.57c8.58,19.08-2.59,27.13-12.82,33.85
			c-14.35,9.43-23.19-11.43-23.02-14.95c0.8-16.13-17.4-22.16-16.71-36.53c2.06-42.38-26.46-42.19-56.04-40.79
			c-48.33-1.56-49.65-40.49-52.91-72.58c-3.51-34.58,13.14-62.89,48.23-74.02c23.82-7.55,47.77-15.49,72.64-19.63
			c19.29-1.28,35.64,4.69,48.19,19.81c8.06,12.21,9.84,25.55,6.79,39.66c-3.82,12.56-7.46,25.14,3.41,36.39l-0.07-0.09
			C899.43,686.25,899.47,709.68,899.52,733.11z"/>
		<path class="st15" d="M183.73,1000.06c9.27-48.86-17.4-77.23-56.21-98.68c-7.81-9.44-8.34-18.7,0.74-27.69l-0.15,0.13
			c6.54-9.01,11.96-19.41,25.08-20.3c11.2,0.55,21.81,3.89,32.43,7.11c5.23,1.54,10.24,3.67,15.12,6.09
			c7.16,3.7,13.92,8.07,20.28,13.05c6.16,5.29,10.34,11.94,13.26,19.42c5.77,12.7,17.3,19.63,27.92,27.55
			c7.17,5.37,13.78,11.29,20.24,17.47c34.34,38.1,87.18,11.94,125.42,36.19c23.09,43.69-16.55,61.42-36.54,86.93
			c-8.55,10.9-20.03,19.37-30.53,28.56c-61.86,54.15-60.91,60.35,15.04,95.71c12.65,5.89,25.95,10.61,33.32,23.92
			c7.41,18.23,6.82,35.64-5.02,51.96c-10.07,7.15-22.86,10.64-32.47,4.59c-51.55-32.44-111.33-39.62-167.83-56.9
			c-7.9-8.77-10.58-19.32-10.56-30.78c8.84-45.13,5.92-90.87,6.06-136.41c-0.64-9.99-1.69-19.99-2.52-30
			C176.9,1011.16,179.25,1005.19,183.73,1000.06z"/>
		<path class="st10" d="M183.76,1210.25c66.77-6.74,127.31,5.79,176.73,55.32c3.43,3.44,13.18,0.57,20,0.64
			c5.32-4.52,11.46-6.62,18.43-6.4c41.96,12.12,84.12,20.33,127.37,5.66c18.39-1.33,36.03-0.1,49.76,14.45
			c2.26,0.11,4.57-0.06,6.76,0.36c10.76,2.09,28.2-5.96,31.11,4.32c3.54,12.48-11.65,25.17-23.66,23.02
			c-26.17-4.68-44.97,17.82-69.66,14.82c-60.81,0.01-121.62,0.02-182.43,0.03c-9.33-4.7-18.66-9.4-27.99-14.09
			c-7.8-8.08-17.43-15.08-22.55-24.91c-10.29-19.73-20.97-17.87-33.61-3.06c-22.25-0.09-44.51,0.22-66.75-0.43
			c-10.76-0.31-16.33,3.88-17.42,14.39c-14.01,0-28.01,0-42.02-0.01c-2.85-17.81-19.9-24.13-29.59-36.42
			c-17.97-22.78-17.8-43.78,1.51-75.85c11.42,2.83,22.9,5.36,34.67,6.57C153,1191.02,167.96,1201.59,183.76,1210.25z"/>
		<path class="st22" d="M127.79,1196.26c-0.85,10.91-7.02,16.11-17.4,13.36c-15.29-4.05-9.06-17.53-10.64-27.52
			c1.22-45.19-2.35-89.86,12.76-134.92c14.62-43.61,10.04-45.17,57.26-47.25c4.64-0.2,9.3,0.08,13.95,0.13
			c0.04,4.49,0.14,8.98,0.28,13.47c1.93,2.92,3.86,5.84,5.81,8.74c-1.37,3.2-2.76,6.41-4.1,9.62c-3.86,5.73-8.37,10.93-13.48,15.56
			c-24.42,18.53-25.84,45.13-26.69,72.68C144.75,1146.47,150.24,1174.78,127.79,1196.26z"/>
		<path class="st17" d="M128.26,873.69c-0.25,9.23-0.49,18.46-0.74,27.69c-4.52,0.08-9.03,0.2-13.55,0.36
			c-0.09-9.46-0.19-18.92-0.28-28.38C118.55,873.47,123.4,873.58,128.26,873.69z"/>
		<path class="st12" d="M843.53,578.72c-26.22-0.28-41.29,43.77-74.89,17.97c-7.94-6.1-14.61,7.25-18.68,13.27
			c-29.38,43.39-21.7,82.27,23.16,123.31c5.72,47.73-12.5,86.1-51.78,110.94c-15.26,9.65-39.12,27.81-57.43-2.42
			c-10.6-17.5-29.44-8.58-44.81-10.58c-21.09-32.84,7.44-57.14,14.38-85.17c12.52-24.84,8.19-50.1,1.67-75.44
			c-2.68-34.27,5.78-66.77,15.58-99.04c21.62-26.51,58.5-37.67,72.59-71.92c2.55-1.89,5.14-3.71,7.74-5.54
			c4.67,0.09,9.35,0.19,14.02,0.28C790.48,507.79,836.65,520.31,843.53,578.72z"/>
		<path class="st1" d="M843.53,578.72c-17.62-37.47-56.05-49.12-87.17-69.68c-6.06-4.01-11.11-6.95-11.29-14.66
			c14.07-18.69,28.14-37.39,42.22-56.08c41.74-6.88,67.12,24.23,98.13,42.27c7.34,37.43,26.61,74.89-0.22,112.25
			C870.58,590.26,861.1,572.53,843.53,578.72z"/>
		<path class="st22" d="M745.05,410.34c-2.5,14.74-20.23,24.4-14.02,42.04c-10.66,8.35-3.21,27.71-19.8,32.48
			c-7.35-0.75-12.67-4.5-16.33-10.83c-9.43-30.68,1.61-55.51,22.11-77.64c0,0,0.19,0,0.19,0c9.22-0.01,18.45-0.02,27.67-0.03
			c4,3.06,5.35,6.15,4.08,9.27C747.66,408.77,746.37,410.34,745.05,410.34z"/>
		<path class="st8" d="M745.05,410.34c-0.01-4.66-0.07-9.32-0.18-13.98c0.1-4.65-0.46-9.44,0.48-13.91
			c0.88-4.14,3.36-7.95,5.14-11.9c2.99,2.44,8.8,5.32,8.5,7.26C757.16,389.68,767.19,407.22,745.05,410.34z"/>
		<path class="st24" d="M801.01,312.23c-0.01,13.94-0.01,27.88-0.02,41.83C781.74,339.48,781.74,326.81,801.01,312.23z"/>
		<path class="st2" d="M716.99,480.67c1.6-10.96-6.07-26.52,14.04-28.29c0.01,13.9,0.01,27.81,0.02,41.71c0,0,0.05,0.82,0.05,0.82
			C718.65,497.85,713.63,493.41,716.99,480.67z"/>
		<path class="st24" d="M955.52,494.42c-2.21-21.65,6.88-35.77,27.91-41.94c14.25,5.38,40.04-14.89,41.83,17.64
			c1.1,20.12-26.95,53.99-43.76,51.54C968.71,519.79,958.03,509.41,955.52,494.42z"/>
		<path class="st23" d="M127.75,620.8c22.13-24.5,30.3-53.49,27.67-85.97c4.26-13.47,13.54-22.01,26.47-26.95
			c48.63,0.68,101.47-16.17,138.43,33.27c2.04,33.43-27.53,52.26-37.02,80.34c-2.86,5.62-6.55,10.75-10.89,15.32
			c-12.44,20.59-33.18-18.09-45.22,6.41c-8.97,9.22-19.47,14.56-32.61,13.56c-6.29-1.41-11.43-4.7-15.41-9.26
			c9.43-0.92-7.88,1.29-2.89-6.35c3.27-5.01-5.19-9.03-5.31-7.07c-1.89,29.21,8.02,59.9-12.06,86.7c-6.13,3.95-11.82,3.37-17.05-1.7
			l-0.05-0.05C147.33,684.85,117.78,655.65,127.75,620.8z"/>
		<path class="st12" d="M155.91,775.11c0.07-4.8,0.14-9.6,0.21-14.41c10.05-10,12.32-26.55,27.26-32.47
			c2.87-0.41,5.75-0.78,8.64-1.2c5.8,0.98,11.15,3.12,16.12,6.23c11.82,8.69,25.76,13.01,39.15,18.51
			c27.22,23.26,48.36,7.91,68.91-10.91c12.55-8.21,25.32-15.24,40.19-5.7c7.04,3.6,13.82,3.66,19.93-2.6
			c19.39-20.68,24.01-57.35,62.33-56.96c4.39,5.18,7.36,11.01,9.1,17.55c1.79,10.38,1.1,20.61-1.08,30.82
			c-7.69,23.29-4.81,50.01-22.54,70.09c-12.86,10.58-30.53,10.16-43.99,17.94c-72.63,42-142.45,41.17-210.28-10.08
			C160.19,795.63,152.25,788.36,155.91,775.11z"/>
		<path class="st2" d="M183.8,733.07c-3.56,14.88-12.46,24.42-27.67,27.64c-0.14-9.21-0.28-18.42-0.42-27.63
			c-3.77-3.11-5.01-6.21-3.74-9.29c1.27-3.08,2.54-4.62,3.81-4.62c0.03-27.27-0.2-54.54,0.25-81.79c0.14-8.67-0.83-19.61,3.81-25.5
			c9.28-11.8,22.08-20.83,33.42-31c8.84,15.33,8.15,29.81-4.71,42.53c-7.84,7.76-3.15,17.11-4.43,25.68
			C206.16,677.16,206.04,705.16,183.8,733.07z"/>
		<path class="st6" d="M155.91,775.11c0,9.36,4.65,14.08,14.04,14.08c7.96,8.08,8.84,17.55,5.51,27.89
			c-12.57,15.01-22.11,35.21-47.7,28.27c-20.04-1.7-12.44-17.19-14.01-28.1C127.17,802.56,122.89,770.17,155.91,775.11z"/>
		<path class="st12" d="M155.77,719.16c0.12,4.64,0.09,9.28-0.06,13.91c-9.28-0.03-13.84-4.74-13.85-13.97
			C146.49,719.05,151.13,719.07,155.77,719.16z"/>
		<path class="st25" d="M983.57,634.85c-32.09-3.65-38.78-10.43-41.9-42.5C982.85,593.58,982.85,593.58,983.57,634.85z"/>
		<path class="st18" d="M310.18,550.74c2.31-19.27-2.7-30.88-25.65-28.46c-41.75,4.41-70.29-0.14-102.64-14.39
			c1.36-4.42,1.94-8.95,1.75-13.57c19.99-0.46,22.78-26.94,42.36-28.02c19.9-37.57,54.83-44.37,92.6-45.45
			c13.92-0.34,27.82,0.34,41.59,2.2c6.55,0.82,13.02,2.33,19.35,4.21c30.63,7.47,55.82,28.99,87.45,33.95
			c16.1,1.75,31.16-3.09,46.38-7.31c13.5-3.4,27.18-5.08,41.07-5.59c22.18-0.94,44.32-1.16,66.5-1.03
			c31.28,1.23,63.76-0.49,82.24,32.77c4.59,0.39,9.19,0.6,13.8,0.63c-0.03,9.44,5.08,13.79,14.12,14.25
			c1.25,21.25-2.1,38.96-19.45,55.72c-16.14,15.59-32.9,13.42-50.87,14.1c-42.99,9.04-85.33,40.64-128.57-5.61
			c-10.3-11.02-18.62,16.66-27.04,26.54c-40.6,47.69-43.1,48.86-62.13-6.39c-6.28-18.22-15.13-13.62-24.88-13.55
			c-21.21,0.16-41.2-6.41-61.83-9.13C340.94,554.81,324.52,560.76,310.18,550.74z"/>
		<path class="st2" d="M324.11,438.36c-37.5-7.56-67.3,11.97-98.11,27.94c-0.04-4.41,1.78-10.42-0.42-12.99
			c-17.14-19.99-5.27-32.72,9.81-45.58c2.79-2.38,3.19-7.56,4.7-11.44c21.36,6.07,34.68-20.1,56.06-13.98
			c17.78,7.91,28.66,21.64,33.89,40.16C330.8,428.77,328.93,434.12,324.11,438.36z"/>
		<path class="st22" d="M183.86,1336.4c-3.24,31.77-10,38.6-41.87,42.4c-14.79-2.5-18-10.92-11.23-23.41
			C142.69,1333.37,163.86,1336.33,183.86,1336.4z"/>
		<path class="st17" d="M127.77,845.34c7.34-0.16,14.06-3.78,14.05-10.73c-0.04-22.23,16.13-16.01,28.16-17.41
			c4.4,4.4,6.75,9.74,7.39,15.9c-1.78,13.17-7.98,22.61-21.69,25.7c-9.19,5-18.38,10-27.57,15
			C127.99,864.32,127.88,854.83,127.77,845.34z"/>
		<path class="st26" d="M885.2,592.82c0.07-37.42,0.15-74.84,0.22-112.25c4.57-0.06,9.14-0.1,13.7-0.09
			c5.77,13.74-13.4,35.89,14.23,42.27c-0.02,9.3-0.03,18.6-0.05,27.9c-6.64,9.36-12.38,18.72,0.21,27.94
			c27.68,8.05,12.52,30.4,12.76,45.37c0.24,15.22-16.69,9.61-26.96,10.92c-4.63,6.64-9.26,6.98-13.89,0
			C885.34,620.85,885.27,606.83,885.2,592.82z"/>
		<path class="st16" d="M913.51,578.58c-0.21,7.09-7.94,14.62-9.89,10.08c-5.72-13.31-14.61-30.98,9.68-38.02
			C913.37,559.95,913.44,569.26,913.51,578.58z"/>
		<path class="st16" d="M885.42,634.86c4.63,0.01,9.26,0.01,13.89,0c0.05,9.35,0.1,18.7,0.15,28.05
			C879.27,661.32,886.84,645.84,885.42,634.86z"/>
		<path class="st8" d="M380.41,1210.2c-27.98,6.75-53.19-8.57-76.21-17.14c-47.06-17.51-50.49-61.52-6.59-87.46
			c40.32-23.83,66.84-60.3,101.28-89.06c10.64-8.89,9.62-19.66,9.53-30.96c62.3-54.06,131.61-73.41,211.05-42.68
			c4.56,0.26,9.13,0.45,13.7,0.55c14.41,10.74,29.95,21.1,14.22,42.04c-2.23,0.25-4.8-0.13-6.63,0.85
			c-16.42,8.86-19.91,36.87-30.22,38.52c-17.97,2.87-32.49,10.16-48.01,17.04c-20.26,22.96-52.35,10.89-75.25,25.61
			c-4.28,3.28-8.72,6.46-12.91,9.8c-3.49,3.76-7.2,7.42-10.7,11.14c-3.12,3.76-6.77,7.1-10.56,10.12c-3.68,2.96-8,4.16-12.64,3.59
			c0.18,0.01-3.77-4.81-3.77-4.81s-3.98,4.8-3.78,4.91c0.11,6.62-0.42,13.08-2.24,19.45c-1.24,4.54-3.15,8.72-5.52,12.72
			c-3.02,6.49-5.83,13.05-8.4,19.77c-1.5,4.85-3.21,9.54-4.81,14.33c-1.87,7.75-3.35,15.52-4.91,23.36
			c-1.17,5.61-3.18,10.83-5.87,15.86c-1.97,2.12-3.96,4.15-5.97,6.23C389.33,1216.34,384.4,1215.07,380.41,1210.2z"/>
		<path class="st3" d="M647.38,985.49c5.39-17.44-12.19-27.11-14.22-42.04c11.45,0.41,24.51-2.62,34.06,1.86
			c35.93,16.82,66.98,28.51,111.66,14.95c59.01-17.91,117.42,0.56,157.62,55.24c6.53,8.89,3.56,17.5,5,26.23
			c-11.27,0.21-20.75-0.78-31.07-9c-32.3-25.71-57.22-26.97-88.73-3.32c-11.94,8.96-22.34,12.98-36.56,12.6
			c-27.41-0.73-54.85-0.16-82.28-0.12l0.01,0.01c-7.79-7.79-5.43-20.86-14.55-27.95C669.14,1012.41,666.62,986.92,647.38,985.49z"/>
		<path class="st27" d="M576.05,1279.91c-18.27,0.02-36.54,0.05-54.8,0.07c-56.85-31.85-61.51-61.91-18.42-117.81
			c4.43-0.49,8.76,0.52,13.07,1c14.29,1.59,14.25,28.72,26.25,21.12c8.29-5.25-0.14-24.91-8.22-36.43
			c-22.18-28.31-19.94-49.7,17.41-61.06c11.21-1.23,21.77,0.77,31.77,5.99c37.12,25.1,40.75,59.73,28.11,98.94
			c-10.55,19.01-10.72,41.51-20.26,60.89C585.99,1261.71,581.02,1270.81,576.05,1279.91z"/>
		<path class="st25" d="M604.72,1196.12c3.37-36.37,0.49-70.96-27.98-98.26c-16.16-14.58-35.36-13.88-55.05-10.85
			c-20.53-0.56-41.53,0.49-57.09-16.8c6.23-17.93,16.7-29.56,37.77-28.62c20.01,0.89,40.1,0.27,60.15,0.32
			c0.12,7.95,4.7,13.04,11.88,14.13c9.27,1.4,9,1.47,34.44,23.89c4.27,3.77,12.94,2.21,19.31,4.04c6.1,1.76,14.22,3.07,17.29,7.47
			c9.03,12.96-44.66-3.17-10.94,19.53c24.48,16.47-4.9,18.92-3.13,30.09c4.89,30.86-4.04,59.94-26.51,83.42
			C596.88,1215.05,596.63,1205.6,604.72,1196.12z"/>
		<path class="st28" d="M604.72,1196.12c0.04,9.45,0.09,18.9,0.13,28.35c-1.29,11.03,5.56,26.09-13.9,28.14
			c-0.1-13.12,0.28-26.27-0.44-39.36C589.92,1202.57,594.51,1197.29,604.72,1196.12z"/>
		<path class="st17" d="M688.31,1013.95c20.94,0.93,13.15,16.84,14.55,27.95C683.39,1040.2,690.27,1024.77,688.31,1013.95z"/>
		<path class="st15" d="M254.03,1280.41c7.09-0.04,14.61-5.98,10.01-9.82c-5.64-4.72-16.82-2.42-25.38-4.23
			c-4-0.84-7.48-4.19-11.19-6.4c3.03-2.68,5.73-7.1,9.15-7.77c38.82-7.59,57.32,3.2,73.24,42.64c1.58,3.92,0.29,9,0.33,13.55
			C286.17,1309.71,268.74,1297.77,254.03,1280.41z"/>
		<path class="st1" d="M450.39,228.06c18.69-0.01,37.39-0.03,56.08-0.04l0.01,0c6.83,11.31,14.2,22.29,20.6,33.86
			c10.57,32.35,8.83,65.56,6.97,98.78c-0.37,6.6-1.45,13.1-3.04,19.52c-2.89,9.46-6.57,18.63-10.54,27.72
			c-4,9.31-9.61,17.45-17.64,23.78c-23.69,12.8-47.58,24.77-75.61,14c-6.02-3.08-9.53-8.02-10.55-14.71
			c4.61-32.67,39.94-46.45,47.69-77.26c0.08-9.2,0.16-18.39,0.24-27.59c0.2-11.5,5.29-20.59,13.79-28
			C480.98,270.01,457.33,252.37,450.39,228.06z"/>
		<path class="st16" d="M464.36,353.72c14.15,2.6,20.2,12.86,11.12,22.76c-16.03,17.48-29.26,38.84-53.03,47.99
			c-15.67,16.06-34.35,8.86-52.36,6.82c-10.8-0.2-21.72,0.55-32.03-3.71c-9.34-11.4-13.29-23.95-7.93-38.36
			c32.65-20.01,80.83,7.3,106.39-34.7C445.8,354.25,455.08,353.99,464.36,353.72z"/>
		<path class="st26" d="M436.52,354.51c5.07,28.5-19.87,38.13-34.68,53.71c-4.05,4.26-11.54,2.51-18.2-1.6
			c-14.56-8.99-30.22-16.2-45.43-24.13c-12.57,3.12-17.64-1.22-14.07-14.15l0.13-0.18C363.13,375.61,397.59,346.66,436.52,354.51z"
			/>
		<path class="st8" d="M478.38,298.13c-1.28,10.97,6.2,26.25-13.79,28c-10.75-0.86-16.27-6.67-13.58-17.25
			C454.94,293.4,468.41,299.68,478.38,298.13z"/>
		<path class="st9" d="M324.13,368.34c0.16,9.23,4.81,13.98,14.07,14.15c0.12,13.96,0.24,27.91,0.36,41.87
			c-4.72,6.04-9.47,5.78-14.24,0.05c-24.18-4.13-13.85-31.37-28.17-42.11C305.48,377.66,314.8,373,324.13,368.34z"/>
		<path class="st3" d="M646.81,747.12c4.23,21.6-11.27,36.73-19.87,53.18c-5.54,10.6-8.29,19.8-7.85,30.91
			c-0.05,9.38-0.09,18.76-0.14,28.15c-4.63,0.03-9.26,0.1-13.89,0.21c-4.27-2.68-4.86-8.21-7.55-10.98
			c-7.58-7.81-4.95,3.16-5.26,4.4c-2.89,11.51-7.4,21.91-16.52,29.99c-61.1,33.64-120.27,73.13-195.25,64.7
			c-21.95-45.3,16.66-56.82,42.83-72.02c30.58-17.76,62.62-32.06,70.35-71.51c6.48-16.72,19.11-27.75,33.84-36.86
			c31.69-17,60.44-41.48,99.58-40.18C637.76,729.72,644.31,736.43,646.81,747.12z"/>
		<path class="st0" d="M380.29,943.34c57.52-13.37,112.81-33.31,164.84-60.97c10.71-5.69,20.07-9.26,31.5-9.33
			c16.1-8.43,20.29,6.66,28.26,14.31l0.12,0.05c4.48,4.86,8.75,9.92,13.74,14.3c0.24,13.73,0.48,27.47,0.71,41.2
			c-73.8-2.86-142.3,20.54-211.05,42.68c-30.34,0.02-61.06,2.97-90.9-0.89c-22.37-2.89-51.2-5.56-49.64-40.9
			c2.55-2.08,5.11-4.15,7.65-6.26C310.5,938.39,346.16,927.07,380.29,943.34z"/>
		<path class="st7" d="M604.89,887.34c-9.42-4.77-18.84-9.54-28.26-14.31c-5.63-19.34,15.25-30.31,15.27-48.3
			c0.01-5.34,6.18-6.94,8.37-3.6c2.24,3.42,4.21,7.6,4.52,11.58c0.68,8.9,0.26,17.89,0.28,26.85
			C605.01,868.82,604.95,878.08,604.89,887.34z"/>
		<path class="st3" d="M618.75,901.69c-9.29-0.24-14.04-4.84-13.74-14.3C614.52,887.42,618.88,892.4,618.75,901.69z"/>
		<path class="st4" d="M703.19,480.04c-25.75-18.94-55.67-12.41-84.29-13.8c-0.19-34.41-8.16-61.3-51.87-53.65
			c-5.44-4.35-6.9-9.78-4.39-16.28c12.27-27.28,27.66-33.09,58.54-21.32c29.83,11.37,61.93,23.38,95.83,21.4
			C724.11,426.21,695.67,450.15,703.19,480.04z"/>
		<path class="st2" d="M520.59,382.3c-0.01-42.02-0.03-84.04-0.04-126.05c-3.87-3.22-5.14-6.42-3.81-9.6
			c1.32-3.16,2.63-4.75,3.94-4.75c4.66,0.04,9.33,0.05,13.99,0.03c5.59,26.46,10.92,52.98,17.18,79.27
			c0.57,2.39,7.05,3.37,10.79,5.01c-4.68,9.33-9.36,18.65-14.05,27.98c-9.66,8.14-5.07,21.85-12.12,31.01
			C530.69,386.91,525.39,385.94,520.59,382.3z"/>
		<path class="st20" d="M520.59,382.3c4.68-0.02,9.36-0.03,14.04-0.05c4.67-6.79,9.34-6.8,14.02-0.01
			c-0.01,4.69-0.01,9.37-0.01,14.06c4.76,4.05,7.32,9.19,7.68,15.43c-0.52,2.96-1.07,5.92-1.58,8.89c-1.89,2.34-3.8,4.67-5.68,7.04
			c-11.53,5.2-23.35,4.82-35.31,1.8c-2.44-1.71-4.88-3.46-7.31-5.21c0.04-9.3,0.09-18.6,0.13-27.89c5-4.38,9.69-9.07,14.05-14.08
			L520.59,382.3z"/>
		<path class="st9" d="M548.66,382.24l-7.01,0.04l-7.01-0.03c1.47-10.94-6-26.33,13.96-28.06
			C548.61,363.54,548.64,372.89,548.66,382.24z"/>
		<path class="st9" d="M548.65,410.33c-0.04-4.68-0.04-9.35-0.01-14.03c4.67,0.04,9.33,0.04,14,0.02c0.03,4.67,0.05,9.34,0.05,14.01
			c-2.34,1.76-4.68,3.52-7.02,5.28C553.33,413.86,550.99,412.09,548.65,410.33z"/>
		<path class="st10" d="M520.68,241.9c-0.04,4.78-0.09,9.57-0.13,14.35c-19.59-1.98-12.89-17.07-14.07-28.23
			C515.88,227.87,520.51,232.6,520.68,241.9z"/>
		<path class="st6" d="M225.53,901.37c0.14-9.64-5.14-13.68-14.24-13.77c-4.07-4.99-8.54-9.59-13.48-13.72l-0.3-0.29
			c-17.6-11.04-27.49-24.58-14.77-45.46c73.39,28.77,142.34,17.52,209.56-20.79c11.36-6.47,26.97,0.49,36.33,12.95
			c13.36,40.76-16.85,52.69-44.08,65.98c-43.87,21.41-87.84,43.26-139.14,27.51C237.83,911.18,231.2,907.05,225.53,901.37z"/>
		<path class="st27" d="M127.79,1196.26c-0.03-30.28,1.82-60.7-0.57-90.79c-2.87-36.16,8.72-62.27,42.27-77.51
			c10.74,5.68,20.36,12.27,20.97,26.09c-2.97,42.69,7.58,86.05-6.25,128.22c-0.15,9.32-0.3,18.65-0.46,27.97
			c-0.86,6.15-1.57,13.95-10.46,9.81C157.79,1212.85,142.92,1204.26,127.79,1196.26z"/>
		<path class="st0" d="M184.22,1182.28c-0.11-46.71-0.22-93.41-0.33-140.12c-3.52-3.19-4.71-6.4-3.57-9.63
			c1.14-3.24,2.29-4.86,3.45-4.86l0.08-0.08c4.76-4.1,9.47-4.26,14.12,0.16c0.04,45.4-0.14,90.79,0.28,136.18
			C198.35,1174.47,195.25,1181.02,184.22,1182.28z"/>
		<path class="st8" d="M183.29,831.52c-4.97,17.31,12.17,27.13,14.22,42.07c-13.74-5.5-36.06,13.32-41.83-14.77
			c4.85-9.08,9.7-18.17,14.55-27.25C174.57,826.68,178.92,826.43,183.29,831.52z"/>
		<path class="st0" d="M225.53,901.37c4.77,0.06,9.54,0.12,14.31,0.18c6.94,5.61,14.88,10.37,17.25,19.94
			c-1.11,2.8-2.23,5.6-3.35,8.41c-17.43,3.41-29.8-5.68-38.3-18.66C211.23,904.8,219.11,901.77,225.53,901.37z"/>
		<path class="st0" d="M380.41,1210.2c4.67-0.01,9.34-0.02,14.01-0.02c16.06,18.71,16.06,37.38-0.13,56.02l-6.9,0.08l-6.9-0.07
			C380.46,1247.54,380.43,1228.87,380.41,1210.2z"/>
		<path class="st0" d="M267.88,943.78c-9.08-0.18-13.84-4.77-14.13-13.89l0.41-0.43c12.45-3.23,17.1,1.47,14.14,13.91L267.88,943.78
			z"/>
		<path class="st8" d="M197.81,873.87c9.38-0.22,14.01,4.21,13.48,13.72C202.42,887.32,198.03,882.65,197.81,873.87z"/>
		<path class="st8" d="M197.97,1027.75c-4.71-0.05-9.42-0.11-14.12-0.16c0.06-4.69,0.12-9.37,0.18-14.06
			C193.26,1013.76,198.02,1018.4,197.97,1027.75z"/>
		<path class="st22" d="M394.29,1266.2c0.04-18.67,0.09-37.35,0.13-56.02l0.01,0.08c7.02-6.43,7.14-14.97,7.16-23.54
			c0.62-11.24-2.09-23.19,6.93-32.63l-0.1,0.1c8.44-7.5,5.92-20.52,14.13-28.13l-0.07,0.07c9.27-7.06,3.94-21.76,14.69-28.04
			c8.41-0.2,13.1-4.25,13.31-12.91c4.51-5.33,9.45-10.26,14.35-15.22l-0.23,0.25c23.31,0.02,46.62,0.04,69.92,0.06
			c7.69,7.33,22.4,10.98,14.02,26.74c-5.68,3.55-11.97,6.41-16.92,10.8c-10.98,9.75-14.54,17.61,5.8,18.6
			c7.57,0.37,11.09,6.78,11.69,14.26c10.57,28.7,1.07,37.75-27.51,28.12c-10.94-0.33-26.33-5.54-28.17,10.31
			c-2.66,23.02,0.91,46.72-1.23,69.85c-2.16,23.25,30.27,10.78,29.04,31.04C471.15,1302.29,449.78,1299.97,394.29,1266.2z"/>
		<path class="st8" d="M183.76,1027.67c0.04,4.83,0.08,9.66,0.12,14.49c-9.2-0.26-14.13-4.86-14.39-14.2
			C174.25,1027.86,179.01,1027.77,183.76,1027.67z"/>
		<path class="st23" d="M352.28,536.62c34.07,0.13,66.3,33.43,102.34,4.59c9.31-7.45,8.18,4.77,9.96,9.55
			c0.75,2-0.18,4.57-0.06,6.87c1.2,21.29-29.02,38.32-8.45,62.23c21.87-8.21,19.77-34.46,35.54-47.31c3.56-2.9,6.13-7.17,9.93-9.59
			c14.33-9.11,17.59-25.19,25.13-38.58c8.37,12.16,16.97,24.16,25.05,36.51c10.82,16.54,20.8,10.46,36.83,4.7
			c44.43-15.96,45.19-13.84,72.25-0.84c10.57,39.28-15.72,73.98-13.92,112.17c-2.04,3.09-4.08,6.17-6.09,9.3
			c-32.01,24.86-66.74,27.14-103.46,12.44c-18.18-20.65-30.6-67.74-64.65-12.45c-7.42,12.04-22.08,16.95-35.95,4.93
			c-0.09-4.82-0.18-9.64-0.27-14.46c-29.87-31.68-85.56-38.37-89.57-95.77C345.74,564.97,338.73,550.1,352.28,536.62z"/>
		<path class="st13" d="M646.81,747.12c-9.45,0-14.01-4.83-14.02-14.17c-18.88-24.54,0.58-39.54,13.94-56.06l0.13,0.02
			C666.98,699.69,666.97,724.52,646.81,747.12z"/>
		<path class="st2" d="M352.28,536.62c5.22,14.53-13.13,35.35,17.84,44.03c20.17,5.65,6.4,32.08,10.21,48.73
			c1.44,6.31,3.83,12.41,5.79,18.61c5.21-4.54,11.41-8.36,15.34-13.82c3.71-5.14,4.83-12.09,7.45-18.08
			c3.04-6.94,8.69-9.96,16.08-8.59c7.35,1.37,11.57,5.53,11.46,13.74c-0.24,18.47-0.05,36.95-0.03,55.43
			c-18.69,23.49-37.38,46.98-56.08,70.47c-9.34,8.31-18.65,8.25-27.92-0.12c-2.54-16.5-8.75-13.94-17.54-3.86
			c-2.19,2.51-7.05,2.7-10.68,3.95c-20.96,13.97-43.02,20.52-67.52,10.03c-19.9-7.06-39.61-14.85-58.74-24.06l0,0
			c-10.25-11.62-6.14-25.34-5.64-38.51c10.9-20.1,21.9-40.17,33.68-59.81c1.47-8.61-4.58-22.46,5.61-24.61
			c11.11-2.34,6.38,12.94,10.85,19.09c6.57,9.01,16.9,4.27,25.59,5.57c7.87,4.54,13.12,11.98,19.8,17.8
			c10.48,9.13,23.89,18.58,31-1.2c4.83-13.43-8.22-18.35-20.05-19.7c-11.12-1.27-22.25-2.15-30.67-10.88
			c-1.82-14.12,2.35-24.88,13.3-35.24c10.78-10.2,26.35-17.44,28.76-34.85C324.95,548.23,334.65,530.59,352.28,536.62z"/>
		<path class="st4" d="M268.13,620.84c17.93,6.27,27.79-12.16,42.83-14.1c29.39-3.8,44.66,15.6,32.27,43.74
			c-7.25,16.47,2.22,48.61-36.26,41.16c-29.7-5.76-35.03-10.16-38.91-56.81C268.08,630.15,268.1,625.49,268.13,620.84z"/>
		<path class="st4" d="M226.01,634.76c0,10.96-1.25,22.09,0.25,32.83c3.33,23.83-11.68,23.95-27.98,23.29
			c-9.84-13.97-10.19-27.96-0.12-41.99C207.44,644.19,216.73,639.47,226.01,634.76z"/>
		<path class="st18" d="M198.16,648.9c0.04,14,0.08,27.99,0.12,41.99c-0.11,14.07-0.22,28.13-0.33,42.2
			c-4.72-0.01-9.44-0.01-14.16-0.02c0.1-27.99,0.21-55.99,0.31-83.98C188.79,649.02,193.48,648.96,198.16,648.9z"/>
		<path class="st13" d="M183.29,831.52l-6.53-0.02l-6.53,0.06c-0.09-4.79-0.17-9.57-0.26-14.36c-0.01-9.34-0.01-18.68-0.02-28.02
			c20.92-0.94,40.22-0.37,55.03,19.41c21.01,28.06,45.5,27.77,77.65,13.1c16.44-7.5,40.16-9.93,54.4-19.95
			c21.82-15.34,43.29-10.57,65.3-12.54c6.45-4.48,12.38-3.66,17.88,1.73c3.22,14.93,4.28,28.43-17.72,26.47
			c-41.06-4.29-71.12,20.98-102.7,40.09c-38.22,23.12-62.17,23.31-95.39-7.21C212.32,839.17,202.06,826.79,183.29,831.52z"/>
		<path class="st2" d="M436.7,691.13c9.98-2,21.75,4.27,27.96-11.65c7.84-20.09,13.56-42.46,33.12-55.74
			c16.31-11.08,35.82-1.01,36.69,19.08c0.69,16.02,0.14,32.09,0.15,48.14c8.01,8.13,9.37,17.82,6.73,28.49
			c-13.58,25.57-32.03,45.08-62.31,49.81c-28.68-4.41-41.06-22.7-42.61-50.2C436.52,709.75,436.61,700.44,436.7,691.13z"/>
		<path class="st9" d="M436.43,719.06c7.15,0.27,13.31,3.46,14.03,10.57c1.78,17.62,11.82,27.01,27.92,31.46
			c7.02,15.92-1.8,25.47-13.57,33.87c-10.38,3.48-19.89,2.35-28.12-5.42c-4.78-0.11-9.57-0.23-14.35-0.34
			c-0.05-17.66,0.32-35.34-0.31-52.98C421.64,725.5,426.02,720.07,436.43,719.06z"/>
		<path class="st23" d="M240.29,746.99c27.98,0.04,55.95,0.08,83.93,0.13c-2.77,17.69-17.67,26.93-29.79,35.29
			c-18.45,12.73-38.48,16.28-43.15-16c-0.33-2.26-7.32-3.55-11.21-5.28c-3.5-3.2-4.64-6.35-3.4-9.48
			C237.89,748.54,239.1,746.99,240.29,746.99z"/>
		<path class="st18" d="M240.29,746.99c-0.07,4.71-0.15,9.42-0.22,14.13c-18.93-1.98-47.56,10.61-42.11-28.03
			c4.09-1.63,8.41-2.83,12.22-4.96C235.29,714.05,235.26,713.99,240.29,746.99z"/>
		<path class="st23" d="M352.43,747.02c9.31,0.04,18.61,0.08,27.92,0.12c-1.37,11.98,4.66,30.17-17.42,26.94
			C347.22,771.78,353.92,756.95,352.43,747.02z"/>
		<path class="st2" d="M562.69,410.33c4.01-1.58,8.46-2.52,11.97-4.85c22.67-15.03,46.3-11.75,70.25-4.29
			c-19.16,12.85-3.93,39.28-20.99,53.29c-2.92,2.4-3.41,7.77-5.03,11.76c-23.45-0.04-46.89-0.07-70.34-0.11
			c-11.1-13.96-11.93-27.91-0.02-41.88l0.01,0.01c4.05-5.3,9.3-9.4,14.12-13.92L562.69,410.33z"/>
		<path class="st20" d="M422.4,438.36c29.99,7.08,54.07-21.09,84.05-14.12l0.34,0.33c8.24,7.43,8.94,16.49,5.74,26.4
			c-10.62,18.46-32.04,19.32-47.85,29.35c-2.32,0.03-4.68-0.17-6.96,0.14c-19.81,2.73-27.94-14.18-38.9-24.68
			c-11.29-10.81-35.64,9.75-38.42-17.37C394.38,429.1,408.38,428.51,422.4,438.36z"/>
		<path class="st4" d="M506.53,452.48c0.08-9.3,0.16-18.6,0.25-27.91c13.83-12.55,27.75-12.67,41.76-0.31
			c0.01,13.96,0.01,27.92,0.02,41.88c-13.94,0.29-27.89,0.58-41.83,0.88c-4.43-3.17-5.93-6.38-4.52-9.63
			C503.63,454.11,505.07,452.48,506.53,452.48z"/>
		<path class="st2" d="M506.53,452.48c0.06,4.84,0.13,9.69,0.19,14.53c-6.9,26.94-28.22,8.29-42.05,13.31
			C469.15,456.79,495.64,466.36,506.53,452.48z"/>
		<path class="st26" d="M422.4,438.36c-14,0.02-28.01,0.04-42.01,0.06c-4.68-0.02-9.37-0.04-14.05-0.06
			c-4.63-3.07-6.18-6.16-4.68-9.28c1.51-3.13,3.02-4.69,4.57-4.69c18.74,0.03,37.48,0.06,56.22,0.09
			C422.39,429.1,422.37,433.73,422.4,438.36z"/>
		<path class="st12" d="M366.23,424.39c0.04,4.66,0.08,9.32,0.11,13.97c-14.07,0-28.15,0-42.22,0c0.08-4.65,0.15-9.3,0.21-13.94
			c4.75-0.02,9.49-0.03,14.24-0.05C347.78,424.37,357,424.38,366.23,424.39z"/>
		<path class="st0" d="M408.51,1154.08c-0.15,13.98-0.3,27.95-0.45,41.93c-4.52,4.44-9.08,4.47-13.67,0.1
			C399.93,1182.38,380.4,1160.22,408.51,1154.08z"/>
		<path class="st0" d="M422.55,1126.05c-1.51,10.98,5.63,26.33-14.13,28.13C409.94,1143.2,402,1127.46,422.55,1126.05z"/>
		<path class="st0" d="M437.16,1098.08c-2.13,10.8,4.91,26.4-14.69,28.04c-0.03-9.4-0.05-18.81-0.08-28.21
			c4.63-3.73,9.33-3.8,14.07-0.22L437.16,1098.08z"/>
		<path class="st21" d="M394.4,1196.11c4.56,0.05,9.11,0.01,13.67-0.1c0.36,9.45-4.22,14.17-13.64,14.24
			C394.42,1205.54,394.41,1200.83,394.4,1196.11z"/>
		<path class="st21" d="M436.47,1097.69c-4.69,0.07-9.38,0.15-14.07,0.22c0.61-5.91,0.93-12.95,9.33-10.97
			C434.02,1087.48,434.93,1093.94,436.47,1097.69z"/>
		<path class="st25" d="M464.83,1069.94c0.17,9.74-5.51,13.97-14.35,15.22C450.06,1075.19,454.28,1069.58,464.83,1069.94z"/>
		<path class="st29" d="M521.6,1168.79c21.3,2.5,28.89-8.42,27.51-28.12c19.25,33.4,19.45,68.33,1.48,89.02
			c-9.08,10.46-13.79,3.65-20.38-2.64C512.03,1209.68,524.05,1188.24,521.6,1168.79z"/>
		<path class="st8" d="M548.54,1097c-4.67-8.91-9.35-17.83-14.02-26.74c22-2.93,35.6,6.99,42.22,27.59
			C567.34,1097.57,557.94,1097.29,548.54,1097z"/>
		<path class="st2" d="M520.63,382.26c0,9.37-4.7,14.05-14.05,14.08C506.57,386.97,511.22,382.24,520.63,382.26z"/>
		<path class="st17" d="M436.69,789.54c9.2-0.17,18.4-0.35,27.6-0.52c16.02-1,31.37,0.01,42.27,14.22
			c5.37,34.39-1.67,60.1-40.53,70.82c-22.75,6.28-44.36,17.94-65.21,29.49c-14.4,7.97-24.68,20.87-20.53,39.78
			c-56.04,15.29-56.04,15.29-112,0.03c-0.14-9.29-4.92-13.85-14.14-13.91c-4.77-9.3-9.54-18.61-14.31-27.91
			c56.09,6.9,105.28-10.6,150.41-42.5c39.18,8.15,32.33-19.38,32.26-41.65C442.22,815.75,435.15,800.46,436.69,789.54z"/>
		<path class="st20" d="M534.62,718.78c0-9.27,0-18.55,0.01-27.82c38.13,1.38,76.12,1.61,112.11-14.07
			c6.26,21.4-19.99,34.72-13.94,56.06c-35.41,7.95-62.09,36.11-98.2,42.45C517.24,756.52,523.07,737.65,534.62,718.78z"/>
		<path class="st13" d="M534.62,718.78c-0.01,18.87-0.02,37.74-0.02,56.61c-0.32,7.19-3.72,13.63-10.8,13.6
			c-10.67-0.05-16.38,3.54-17.23,14.25c-13.83-5.51-36.04,13.89-42.27-14.22c4.7-9.31,9.39-18.62,14.09-27.93
			C503.74,755.8,509.35,724.21,534.62,718.78z"/>
		<path class="st4" d="M562.67,410.35c0.04,9.46-4.67,14.1-14.12,13.92c0.01-4.65,0.04-9.29,0.1-13.94
			C553.32,410.33,558,410.34,562.67,410.35z"/>
		<path class="st29" d="M157.46,1085.13c21.42,19.76,13.99,43.23,7.3,65.81c-1.69,5.69-9.53,13.57-14.48,13.52
			c-13.6-0.13-7.79-12.19-8.17-19.6c-0.59-11.46,0.08-22.98,0.22-34.47C152.2,1104.87,145.19,1089.22,157.46,1085.13z"/>
		<path class="st22" d="M157.46,1085.13c-3.4,9.4,3.48,24.97-15.14,25.25c-0.23-8.89-0.97-17.8-0.45-26.64
			c0.24-4.04,3.28-11.43,4.48-11.31C153.25,1073.09,156.9,1078.1,157.46,1085.13z"/>
		<path class="st23" d="M366,703.83c1.37,7.17-1.52,12.06-8.23,12.42c-1.68,0.09-4.4-6.36-5.46-10.13
			c-1.99-7.13,2.39-11.29,8.67-12.26C362.15,693.68,364.39,700.52,366,703.83z"/>
	</g>
</g>
</svg>
