<?xml version="1.0" encoding="utf-8"?>
<!-- Generator: Adobe Illustrator 23.1.0, SVG Export Plug-In . SVG Version: 6.00 Build 0)  -->
<svg version="1.1" id="Calque_1" xmlns="http://www.w3.org/2000/svg" xmlns:xlink="http://www.w3.org/1999/xlink" x="0px" y="0px"
	 viewBox="0 0 1125 1068.19" style="enable-background:new 0 0 1125 1068.19;" xml:space="preserve">
<style type="text/css">
	.st0{fill:#FA0505;}
	.st1{fill:#E1A178;}
	.st2{fill:#F60000;}
	.st3{fill:#F9D3A9;}
	.st4{fill:#ED0100;}
	.st5{fill:#E30000;}
	.st6{fill:#D30000;}
	.st7{fill:#BC0000;}
	.st8{fill:#DC996F;}
	.st9{fill:#FDF4D5;}
	.st10{fill:#C37D5C;}
	.st11{fill:#FAE5C1;}
	.st12{fill:#B90302;}
	.st13{fill:#CB0201;}
	.st14{fill:#471F06;}
	.st15{fill:#E80D0B;}
	.st16{fill:#EAB387;}
	.st17{fill:#D70100;}
	.st18{fill:#FDEEEE;}
	.st19{fill:#FEE9E7;}
	.st20{fill:#DA9973;}
	.st21{fill:#A7654E;}
	.st22{fill:#774839;}
	.st23{fill:#464141;}
	.st24{fill:#371804;}
	.st25{fill:#CA8868;}
</style>
<g>
	<g>
		<path class="st0" d="M284.73,140.49c14.44-53.23,63.38-69.95,104.2-91.13c46.7-24.24,100.72-30.48,152.28-41.59
			c42.59-9.17,84.47,6.72,124.3,14.59c49.7,9.82,102.91,26.17,138,70.66c-4.33,34.26-4.17,67.99,0.55,102.71
			c11.55,85.02-31.65,141.25-115.61,156.55c-78.89,14.38-78.89,14.38-89.21,93.44c-29.3,28.56-52.47,3.87-77.08-8.74
			c-16.98-13.08-32.68-27.11-33.58-50.83c1.06-8.66,4.75-16.25,9.92-23.16c4.88-6.46,10.46-12.37,16.11-18.18
			c5.19-5.89,10.48-11.71,15.3-17.93c12.79-14.91,12.46-33.92,16.06-51.67c0.96-5.24,2.39-10.35,3.98-15.4
			c4.96-15.04,5.97-30.2,1.27-45.52c-1.73-4.88-3.12-9.85-4.55-14.81c-3.48-12.6-8.73-24.34-16.79-34.77
			c-57.66-65.24-86.58-70.77-183.5-34.79c-18.15,6.99-33.27,24.14-55.71,16.87C288.69,144.71,286.71,142.6,284.73,140.49z"/>
		<path class="st1" d="M876.16,978.05l-5.54-0.34l-5.53,0.55c-27.19,18.78-61.13-11.76-87.64,11.98
			c-6.9,0.21-10.92,3.51-11.41,10.61c-5.64,9.25-17.84,7-24.72,14.08l0.31-0.32c-6.35,8.21-14.62,12.39-25.11,11.88
			c-7.88,0.36-15.76,0.73-23.63,1.1c-26.41,9.09-54.23,8.07-81.45,11.33c-48.24-9.67-82.44-31.47-76.21-88.08
			c9.05-23.55,32.11-29.72,51.46-40.12c81.33-43.73,81.7-44.42,39.65-121.31c0.93-6.26,4.02-11.1,9.25-14.65
			c42.59-14,77.97,8.03,114.8,22.72c20.12,33.16,41.48,37.2,66.43,4.08c9.25-12.27,19.35-25.48,37.62-25.63
			c9.06,1.9,14.96,7.43,18.43,15.79c3.95,11.75,0.99,23.53,0.09,35.32c14.33-1.25,8.61-17.67,18.08-23.35
			c28.54-17.11,53.26-5.67,77.99,8.88c17.83,14.14,30.5,30.99,29.37,55.16C986.45,936.29,941.52,968.47,876.16,978.05z"/>
		<path class="st2" d="M594.11,449.68c6.38-21.23-10.91-37.24-12.51-56.92c-2.68-32.9,11.07-50.5,45.15-53.55
			c14.15-1.27,28.52,0.09,42.78-0.26c89.05-2.18,140.86-72.58,117.17-157.71c-8.78-31.54-27.61-66.24,16.81-88.21
			c21.1,11.66,37.38,28.16,49.23,49.07c10.52,47.76,24.03,94.87,31.72,143.23c17.3,108.72-27.61,169.49-135.43,165.02
			c-52.06-2.16-49.92,48.89-83.92,58.57c-29.25,4.77-48.82-9.73-64.37-32.28c-3.32-5.42-5.5-11.3-6.69-17.54
			C594.05,455.98,594.08,452.83,594.11,449.68z"/>
		<path class="st3" d="M630.9,781.65c0.06,4.08,0.1,8.16,0.12,12.23c17.67,62.98-12.34,95.34-101.88,110.01
			c-40.75-8.77-50.74-48.51-74.74-74.14c-12.59-16.12-22.04-34.56-35.55-49.78c-7.13-4.14-11.45-0.2-15.16,5.6
			c-4.58,8.94-9.3,17.57-16.55,24.54c-4.24,3.06-8.86,5.34-13.74,7.14c-18.95,3.68-33.34,12.88-39.3,32.47
			c-2.68,5.25-6,9.9-9.97,14.21c-12.12,11.18-26.8,14.65-42.69,14.76c-47.78,1.14-96.77,17.18-142.17-11.25
			c-3.95-8.23-7.9-16.46-11.85-24.68c10.36-26.4,34.3-25.68,56.39-27.3c26.62-1.95,53.05-5.03,77.22-16.63
			c41.22-19.78,73.96-45.22,57.88-99.04c-3.62-12.13-2.85-24.24,7.64-33.74c20.61-13.07,43.18-11.62,65.9-9.16
			c30.44,7.13,60.39,15.8,88.11,30.77c15.82,15.59,20.22,49.48,55.35,34.33C577.52,726.13,615.52,735.97,630.9,781.65z"/>
		<path class="st0" d="M40.06,338.66c24.35-36.99,64.61-43.38,102.82-47.55c25.56-2.79,38.95-9.81,49.01-33.93
			c12-28.78,28.92-55.9,46.48-81.86c10.85-16.03,67.69-84.11,91.95-83.89c1.48,1.58-25.39,46.62-23.81,48.1
			c11.74,36.1-41.62,57.93-50.5,85.53c-3.02,9.37-9.97,17.53-8.52,28.25c9.86-3.96,10.54-14.63,16-21.82
			c23.95-31.5,32.26-75.31,73.56-93.17c26.61,16.67,50.67,26.05,80.44,0.57c25.62-21.92,50.39-13.2,57.49,21.96
			c9.99,49.43,34.63,94.67,40.22,145.29c-11.89,30.13-33.56,43.57-65.96,38.69c-27.88-18.12-27.24-48.3-31.61-76.14
			c-3.43-21.87-9.82-31.55-29.43-11.12c-10.3,10.74-22.78,16.59-38.73,10.26c-9.22-3.66-20.43-21.63-28.86-2.11
			c-7.7,17.83,3.25,31.22,19.9,39.14c34.6,16.45,75.05,22.82,99.06,57.56c3.19,9.11,2.66,17.91-2.01,26.44
			c-7.12,6.86-15.84,9.38-25.47,9.51c-15.68-0.92-29.66-7.3-43.68-13.55c-23.42-13.94-49.8-18.02-76.08-22.49
			c-57.6-23.97-117.24-23.31-177.51-14.72c-8.29,4.04-16.21,8.8-24.93,12c-6,2.16-12.18,3.3-18.53,3.69
			C56.63,360.57,37.24,363.62,40.06,338.66z"/>
		<path class="st4" d="M655.64,498.84c9.4-1.06,22.27,3.18,24.28-11.13c1.69-12.02-1.18-24.69,0.59-36.69
			c2.79-18.92,15.79-23.47,38.52-18.82c35.28,7.23,70.12,11.91,105.18-5.84c11.39-5.77,23.2-10.99,27.45-21.27
			c7.38-17.86,10.41-38.01,15.45-56.25c5.6-20.26,5.61-33.6,0.92-54.53c-8.51-38.02-12.12-77.05-27.54-113.65
			c-6.48-15.38,9.41-25.26,12.25-38.56c26.58,12.39,32.16,41.53,49.2,61.52c30.34,68.04,48.22,138.05,41.65,213.73
			C935.72,508.14,899.61,544,808.39,544.5c-21.08,0.12-40.25,6.37-59.86,12.04C707.88,552.96,666.08,551.04,655.64,498.84z"/>
		<path class="st5" d="M741.81,548.02c20.54-32.55,54.37-33.71,80.96-20.02c31.46,16.19,53.65,2.14,68.42-15.09
			c19.63-22.89,37.26-50.61,35.53-85.01c-2.88-57.3,7.91-115.68-22.64-170.24c-7.85-14.03-1.8-35.81-2.13-54.03
			c15.28,25.32,46.77,39.81,49.28,73.64c24.71,64.18,48.92,127.45,42.15,199.43c-6.17,65.52-38.42,114.68-82.42,158.35
			c-22.05,21.88-49.59,27-78.32,10.24C810.44,605.43,749.95,601.07,741.81,548.02z"/>
		<path class="st6" d="M828.05,634.02c18.3-7.75,31.4,24.6,54.9,3.95c12.98-11.4,28.23-17.81,34.66-36.3
			c3.03-8.73,14.48-14.16,20.29-22.38c23.01-32.53,42.8-65.91,38.28-108.83c-2.55-24.16-0.04-48.82-0.64-73.23
			c-0.29-11.66,3.02-23.36-6.25-34.64c-20.45-24.88-20.04-55.17-18.06-85.33c20.17,26.56,40.97,52.76,49.21,86.12
			c14.2,32.16,18.51,68.07,37.38,98.47c0.14,3.76,0.17,7.52,0.07,11.29c8.74,11.42,12.12,24.19,9.92,38.43
			c-8.94,35.44-7.31,72.44-17.29,107.96c-23.77,84.62-61.17,104.91-144.08,75.17c-9.58-3.44-19.18-6.6-29.01-9.19
			c-16.5-5.93-29.9-15.19-35.1-33.09C821.68,645.51,823.6,639.37,828.05,634.02z"/>
		<path class="st7" d="M852.65,670.92c18.83-3.22,35.06,4.1,51.11,12.4c69.23,35.8,94.32-5.6,108.35-55.5
			c9.08-32.29,17.77-65.49,12.66-99.98c-1.43-9.66,2.87-15.2,12.46-16.75c37.9,8.28,29.72,40.84,28.54,63.77
			c-2.41,46.65,11.98,79.36,56.94,96.09c0.18,24.6,0.37,49.2,0.55,73.8c-35.36,29.04-75.59,49.96-116.57,69.67
			c-18.77,3.95-33.07-3.33-44.57-17.64c-3.69-3.84-7.1-8-10.47-12.13c-12.92-16.27-28.2-30.03-45.58-41.51
			c-4.35-3.04-8.23-6.58-11.88-10.39C883.28,710.19,846.81,704.67,852.65,670.92z"/>
		<path class="st8" d="M286.43,867.43c15.28,5.05,23.98-9.6,36.7-12.23c17.77-4.66,18.92,9.32,20.81,20.01
			c4.49,25.41,19.17,26.02,38.54,17.39c10.76-3.31,21.61-8.1,31.75,1.4c10.8,30.71,29.48,44.89,63.84,34.84
			c17.07-4.99,35.75-3.74,53.42,2c5.41,2.37,9.86,5.92,13.41,10.58c-9.16,49.9,22.6,70.58,61.61,86.08
			c7.53,14.09-5.2,17.58-12.54,23.89c-16.36,0.17-32.72,0.34-49.07,0.51c-17.96-2.13-29.47-14.3-39.14-27.44
			c-19.3-26.2-45.73-35.53-75.76-29.45c-39.56,8.02-80.95-15.49-119.07,8.23c-3.52-1.59-7.44-2.64-10.5-4.86
			c-24.51-17.7-28.62-57.3-57.12-65.58c-26.6-7.73-48.9-23.19-74.86-30.73c-2.61-0.76-3.83-6.28-5.7-9.59
			C200.57,867.38,248,889.56,286.43,867.43z"/>
		<path class="st9" d="M123.4,780.54c-2.93-28.6,12.02-50.75,26.42-73.1c-4.45-19.28,11.22-23.71,22.9-31.16
			c10.56-4.47,21.8-6.46,32.94-8.91c8.46-2.4,16.89-4.9,25.46-7.09c9.29-2.34,18.67-3.29,28.27-2.88
			c14.14,1.27,27.02,5.22,36.67,16.48c22.13,55.88,14.86,84.47-35.36,108.94C216.02,804.59,168.62,811.85,123.4,780.54z"/>
		<path class="st10" d="M310.93,1003.23c1.2-23.2,25.94-21.48,37.15-34.68c15.06-17.73,18.19-17.05,23.94,5.59
			c4.25,16.74,10.31,21.04,23.98,10.92c7-5.18,13.73-7.22,22.4-7c22.53,0.57,45.61-2.96,67.48,0.85
			c22.37,3.89,20.63,32.57,36.64,45.37c9,7.19,20.44,14.03,22.4,27.61c-19.77,26.26-48.7,13.7-70.5,10.47
			c-47.2-6.98-93.2-22.39-139.41-35.32C323.57,1023.84,313.92,1016.22,310.93,1003.23z"/>
		<path class="st6" d="M999.54,806.51c28.35-24.61,66.32-34.05,94.25-59.96c5.58-5.17,19.43-1.43,29.47-1.8
			c11.23,77-33.84,127.04-83.25,175.57c-12.31,12.09-26.22,7.49-39.66,9.47c-22.19-27.96,13.08-60.23-6.69-88.38
			C988.14,828.51,991.08,817.04,999.54,806.51z"/>
		<path class="st11" d="M123.4,780.54c24.38,0.35,48.78,0.11,73.13,1.19c28.97,1.29,53.17-1.98,75.5-26.79
			c26.64-29.61,29.73-26.59,15.58-65.45c-1.99-5.46-0.95-12.02-1.31-18.07c3.77-4.44,8.44-7.46,14.12-8.89
			c5.77-0.4,11.35,0.46,16.71,2.69c2.03,2,4.06,4.02,6.09,6.04c1.03,7.76-0.62,15.35,4.86,23.01c24.09,33.65,23.81,46.58-0.63,76.87
			c-31.95,39.61-75.84,55.15-124.61,59.43c-25.49,2.24-52.48-5.76-75.39,12.2C118.11,822.54,100.44,802.85,123.4,780.54z"/>
		<path class="st12" d="M1122.71,670.95c-23.4-3.09-53.87,11.56-68.5-7.03c-10.96-13.92-4.16-42.11-4.52-63.96
			c-0.4-24.17-0.34-48.36,0.3-72.52c0.26-9.76-3.49-14.79-12.76-16.34c0.22-12.65,0.44-25.3,0.66-37.96
			c9.05,1.9,19.63-1.64,24,12.25c11.5,36.57,28.1,71.94,35.71,109.2C1103.1,621.56,1115.48,645.19,1122.71,670.95z"/>
		<path class="st13" d="M176.38,684.24c-2.3,15.22-23.8,8.51-26.57,23.19c-23.48-12.39-18.1-40.24-22.8-56.39
			c-3.98-34.68-19.48-53.88-39.92-75.18c-10.91-11.37-46.46-43.65-43.71-62.94c2.15-1.4,24.95,20.35,27.08,18.93
			c2.54,0.1,5.09,0.22,7.59,0.23c8.13,3.27,14.8-3.23,22.56-3.65c39.38,8.58,62.91,37.07,85.35,67.12
			C194.59,626.4,197.31,656.61,176.38,684.24z"/>
		<path class="st14" d="M1000.26,843.22c24.29,17.43,12.56,39.95,6.03,59.61c-3.02,9.1-6.22,17.42-5.93,26.96
			c-28.51,49.16-76.08,49.39-124.19,48.26c2.19-3.18,4-8.77,6.64-9.2c47.84-7.68,79.36-33.76,94-80.27
			c2.34-7.42,7.63-13.92,11.56-20.84C996.42,861.55,991.42,849.04,1000.26,843.22z"/>
		<path class="st15" d="M77.14,535.68c-4.37,0.13-8.73,0.25-13.1,0.38C37.98,524.1-7.91,448.91,6.86,401.71
			c-3.3-31.43,39.76-31.98,51.84-37.78C83.84,410.55,80.44,482.97,77.14,535.68z"/>
		<path class="st16" d="M286.43,867.43c-12.3,19.55-31.03,25.1-52.82,24.85c-23.62-0.27-47.25,0.1-70.87,0.19
			c-12.35-4.11-21.28-11.41-23.46-25.03c26.49,0.06,52.99,0.32,79.48,0.11c17.78-0.14,35.65,2.81,51.47-11.18
			C276.2,851.1,285.2,857.31,286.43,867.43z"/>
		<path class="st17" d="M52.48,388.24c-15.97,5.77-25.59,15.58-24.77,34.09c0.78,17.6-0.1,35.27-0.24,52.9
			c-24.65-13.18-3.43-38.19-12.85-52.98c-18.89-29.63,1.48-50.64,11.28-74.1c1.83-4.37,9.3-6.39,14.17-9.49
			c5.68,23.89,24.8,8.3,37.14,12.61c1.72,1.49,3.44,2.98,5.17,4.48c-0.06,2.29-0.12,4.57-0.13,6.86c-1.58,4.35-3.91,8.27-6.78,11.89
			c-1.55,1.69-3.18,3.31-4.74,5.01c-3.42,3.11-7.25,5.64-11.42,7.66C57.04,387.56,54.76,387.9,52.48,388.24z"/>
		<path class="st7" d="M1061.89,485.38c-7.72-0.95-45.64-21.01-45.8-28.78c-0.69-32.04-22.08-60.35-15.66-93.23
			c18.79,21.45,28.39,33.41,41.59,63.11c1.08,2.93,3.92,10.94,4.3,15.13c0.27,3.05,5.27,13.94,4.29,13.94
			C1050.9,459.38,1062.04,481.55,1061.89,485.38z"/>
		<path class="st10" d="M593.97,1051.37c4.18-7.96,8.36-15.92,12.54-23.89c28.79,0.03,57.58,0.06,86.37,0.09
			C662.49,1046.2,629.6,1054.47,593.97,1051.37z"/>
		<path class="st14" d="M777.45,990.24c10.55-12.78,16.62-34.66,40.76-16.78c13.93,10.33,31.29,2.3,46.89,4.8
			c-1.61,8.98-6.4,13.02-16.09,12.73C825.16,990.28,801.3,990.44,777.45,990.24z"/>
		<path class="st12" d="M1037.62,450.35c-0.11-4.31-0.21-8.61-0.32-12.92c3.14,1.36,8.38,2.07,9.02,4.19
			C1048.4,448.4,1042.59,449.38,1037.62,450.35z"/>
		<path class="st18" d="M508.67,302.1c-27.27-46.94-40.99-98.67-48.12-151.52c-3.58-26.51-10.74-16.37-24.29-9.36
			c-20.5,10.61-32.95,29.41-49.68,43.74c-11.68,10-18.93,9.83-26.59-6.25c-6.16-12.94-4.84-32.36-24.45-36.79
			c-7.36-7.43-6.6-14.8,0.18-22.12c20.07-14.08,43.36-21.63,66.64-25.52c66.86-11.18,106.43,9.99,143.11,72.63
			c9.98,10.66,0.79,27.05,11.26,37.55l-0.27-0.31c10.25,20.2,10.79,40.35-0.3,60.44l0.3-0.26c-10.89,15.97,0.01,40.62-21,52.59
			C521.75,320.59,513.76,313.97,508.67,302.1z"/>
		<path class="st19" d="M335.72,119.8c-0.06,7.37-0.12,14.74-0.18,22.12c-25.32,45.14-61.49,84.27-75.13,135.91
			c-3.32,12.57-13.85,13.97-24.26,12.1c-14.29-2.56-12.05-14.53-10.57-23.97c5.1-32.51,21.05-60.18,41.1-85.62
			c8.72-11.06,17.52-19.53,25.8-32.14C295.97,145.98,316.98,128.92,335.72,119.8z"/>
		<path class="st15" d="M434.12,388.2c0-8.09-0.01-16.19-0.01-24.28c3.87-3.53,8.43-5.26,13.66-5.25
			c14.89,2.55,30.06,4.12,43.62,11.71c1.6,1.96,3.17,3.94,4.75,5.93c-8.22,24.26,21.34,29.83,24.13,48.64
			c3.01,3.19,4.13,6.47,3.35,9.85c-0.79,3.43-1.65,5.14-2.58,5.15c-17.6,10.32-33.23,1.75-49.09-4.98
			c-10.21-4.9-20.18-10.26-29.23-17.22C435.02,409.34,426.82,401,434.12,388.2z"/>
		<path class="st13" d="M520.27,437.3c0-4.12,0.01-8.23,0.01-12.35c9.78-0.02,20.23-1.47,26.64,8.42
			c11.56,17.84,29.42,16.8,47.2,16.31l-0.01-0.02c4.15,4.85,5.81,10.44,4.99,16.77c-10.03,21.57-28.11,20.52-47.18,16.82
			c-8.77-2.96-16.35-7.88-23-14.27C521.39,459.72,513.05,450.61,520.27,437.3z"/>
		<path class="st15" d="M532.63,314.46c16.19-12.8,4.04-39.04,23.83-50.13c0.25,11.66-0.09,23.37,0.89,34.97
			c1.66,19.63-4.55,33.86-24.61,39.86c-1.71-1.77-3.42-3.55-5.13-5.32C525.15,326.31,525.51,319.51,532.63,314.46z"/>
		<path class="st15" d="M556.16,264.59c0.1-20.15,0.2-40.29,0.3-60.44C575.35,223.4,575.24,246.4,556.16,264.59z"/>
		<path class="st15" d="M508.5,364.06c-0.87,7.35-4.83,11.6-12.35,12.25l-0.9-0.89c-1.49-5.79,0.29-10.3,5.33-13.52
			C503.22,362.62,505.86,363.34,508.5,364.06z"/>
		<path class="st15" d="M532.74,339.16c-0.3,7.78-4.48,11.81-12.11,12.51c-0.77-2.43-1.54-4.86-2.31-7.29
			c2.69-4.68,6.67-7.22,12.15-7.27L532.74,339.16z"/>
		<path class="st15" d="M520.63,351.67c-0.59,7.5-4.63,11.63-12.13,12.4l-0.89-0.85c-2.38-10.2,1.97-14.07,11.94-12.65
			L520.63,351.67z"/>
		<path class="st20" d="M298.79,670.5c-4.17,0.3-8.34,0.61-12.5,0.91c-12.49-0.34-24.97-0.68-37.46-1.02
			c-7.46-65.53,32.87-106.41,75.42-146.23c4.31-4.48,9.15-8.26,14.35-11.63c31.15-17.86,64.16-20.54,98.52-11.94
			c14.31,5.07,23.96,16.08,33.91,26.72c3.52,4.37,5.97,9.33,7.48,14.73c0.62,5.43,0.11,10.82-1.55,16.06
			c-2.52,4.72-6.08,8.48-10.94,10.94c5.28-0.26,10.48,0.31,15.64,1.6c27.2,11.34,47.76,36.52,79.79,37.73
			c8.58,1.6,16.57,4.56,23.77,9.54c42.04,57.53,100.83,93.69,162.12,126.76c9.88,19.8,17.51,39.81,5.63,61.58
			c-24.34,5.89-46.04-8.1-65.58-15.99c-19.75-7.97-37.64-6.61-56.49-8.59c-29.41-24.91-60.66-46.21-100.33-50.97
			c-2.59-4.24-3.42-8.83-2.83-13.71c1.57-9.43,3.12-18.88,1.59-28.38c-16.71-23.38-19.69,5.46-29.55,7.74
			c-5.19,3.05-10.24,2.85-15.16-0.51c-31.88,1.28-59.06-13.86-87.41-24.95c-9.03-8.62-10.96-19.22-8.7-30.97
			c-2.89-11.5,23.56-17.63,5.43-31.71c-28.56-3.21-41.57,20.57-60.41,33.71C320.33,649.4,308.99,659.25,298.79,670.5z"/>
		<path class="st14" d="M752.97,806.23c-10.04-19.32-13.99-39.62-10.03-61.23c0.19-7.94,3.94-14.45,8.18-20.81
			c8.9-12.4,7.51-31.85,25.81-37.95c48.24-8.78,60.63,31.8,82.44,59.54c4.14,13.17,3.54,25.32-7.61,35.17
			c-18.08,20.59-36.2,41.14-54.23,61.77c-8.63,9.88-19.29,14.91-32.2,11.62c-17.22-4.39-8.97-19.49-11.31-29.98
			C752.7,818.54,753.25,812.29,752.97,806.23z"/>
		<path class="st16" d="M544.89,941.41c-4.1-0.01-8.19-0.02-12.29-0.03c-12.8-14.2-28.67-27.63-12.34-49.13
			c37.78,2.48,65.22-20.09,94.23-38.83c23.16-14.95,15.31-38.5,16.53-59.54c4.99,2.91,10.8,4.98,14.86,8.87
			c47.11,45.16,46.57,70.3-10.74,100.13C606.7,917.69,579.59,939.71,544.89,941.41z"/>
		<path class="st21" d="M963.51,818.33c-20.79,5.42-34.19-19.16-56.41-12.78c-14.47,4.15-22.85,7.57-13.03,22.66
			c4.43,6.81,12.01,15.23,5.58,20.58c-9.95,8.29-22.89,14.46-35.53,17.61c-10.25,2.55-9.35-8.7-11.86-16.08
			c-7.45-21.89,17.42-35.69,12.84-56.37c7.08-18.12,18.36-30.84,39.58-30.94c20.98,1.45,40.94,6.19,58.37,18.77l0.16,0.17
			C971.47,794.01,973.04,806.12,963.51,818.33z"/>
		<path class="st10" d="M901.7,769.18c-12.2,8.26-24.41,16.51-36.61,24.77c-0.3-8.58-5.34-12.3-13.34-12.99
			c0.6-11.94,1.2-23.88,1.81-35.82c12.54-17.58,27.49-26.44,48.49-13.32c3.84,0.53,7.69,0.87,11.56,1.02
			C920.16,748.4,915,760.12,901.7,769.18z"/>
		<path class="st22" d="M963.51,818.33c-0.1-12.13-0.21-24.25-0.31-36.38c5.97,0.46,12.14,2.91,12.32,8.89
			c0.54,17.62,13.06,15.06,24.02,15.67c0.24,12.24,0.48,24.47,0.72,36.71c-0.76,9.73,4.35,22.3-11.9,24.53
			C995.38,843.6,967.2,837.11,963.51,818.33z"/>
		<path class="st12" d="M445.87,513.41c-37.45-4.39-74.4-3.22-110.24,10.01c-6.82,6.41-14.78,10.65-23.98,12.51
			c-37.36,1.98-68.75,24.75-105.22,30.21c-6.8-1.15-12.54-4.17-17.41-9.03c-16.25-53.86-4.26-78.69,48.09-96.47
			c69.95-23.76,140.58-17.15,211.15-3.13c9.33,0.64,18.57,2.2,27.53,4.74c22.37,2.97,40.18,23.78,65.15,16.66
			c-0.1-0.15,3.97-4.69,3.97-4.69c11.4,0.08,22.83-0.22,34.2,0.35c9.37,0.47,13.62-4.11,15.02-12.6c4.11-3.84,8.21-3.82,12.29,0.05
			c10.86,19.67,22.46,38.35,49.22,36.81c1.47,3.53,1.94,8.88,4.56,10.3c26.49,14.41,51.15,32.79,81.61,38.88
			c3.8,25.06,28.97,25.28,44.38,35.16c20.48,13.12,42.81,21.36,41.86,50.84c-0.12,4.31-0.25,8.62-0.37,12.93
			c-46.21,15.68-71.58-32.17-111.3-36.22c-28.51-10.77-54.46-27.41-83.68-36.54c-17.09-6.59-34.69-11.47-52.69-14.91
			c-5.04-1.05-9.97-2.55-14.85-4.14c-4.98-1.12-9.92-2.43-14.93-3.5c-5.21-0.44-10.34-1.11-15.54-1.6
			c-13.46-0.88-26.89-1.71-39.7-6.45C478.97,532.97,462.09,523.73,445.87,513.41z"/>
		<path class="st0" d="M606.42,462.03l-6.14-0.06l-6.14,0c-0.01-4.1-0.02-8.21-0.04-12.31
			C602.18,449.83,606.27,453.97,606.42,462.03z"/>
		<path class="st1" d="M520.26,892.25c-5,18.66,17.33,30.47,12.34,49.13c-29.66,1.29-58.76-1.99-88.35,11.1
			c-24.64,10.9-33.69,0.09-34.69-29.74c-0.34-10.19-0.06-20.4-0.07-30.6c-4.21-4.15-6-9.17-5.46-15.07
			c1.23-8.55,3.61-16.81,6.41-24.99c10.94-18.56,13.53-49.28,48.31-33.63c29.01,11.3,33.13,41.86,48.75,63.48
			C511.12,886.96,513.56,891.74,520.26,892.25z"/>
		<path class="st16" d="M458.74,818.45c-36.19-1.52-30.21,28.58-36.93,49.15c-4.62,3.6-7.88,8.54-12.31,12.32
			c-0.01,4.07-0.02,8.15-0.01,12.22c-8.2,4.12-16.4,8.24-24.6,12.37c-33.87-28.25-33.88-34.44-0.16-98.5
			c1.12-9.63-4.48-22.6,12.19-24.51c6.77-7.22,14.07-13.37,24.94-12.29C447.5,775.66,446.3,802.15,458.74,818.45z"/>
		<path class="st1" d="M323.23,634.08c3.61-1.5,7.11-3.35,10.83-4.44c22.79-6.7,3.29-41.12,24.3-42.51
			c15.83-1.05,32.35,13.54,51.1,10.05c7.23,16.01-6.21,25.18-12.22,36.8c-0.01,12.3-0.02,24.59-0.04,36.89
			c-24.67,0.13-49.34,0.25-74.01,0.38l0.17-0.51C313.27,658.56,313.34,646.34,323.23,634.08z"/>
		<path class="st1" d="M384.73,806.01c17.5,4.74,16.32,16.06,5.54,24.69c-24.4,19.55-18.86,44.31-14.95,69.06
			c0.32,2.03,6.25,3.19,9.57,4.75c-15.93,22.6-38.46,14.47-56.49,7.58c-10.61-4.06-7.09-20.8,0.45-31.08
			c8.21-11.2,12.56-20.8-5.71-25.81c0.08-4.07,0.13-8.13,0.14-12.2c13.38-16.35,32.26-25.38,49.28-36.88
			C376.61,806.09,380.67,806.06,384.73,806.01z"/>
		<path class="st23" d="M535.4,716.65c-0.38,3.55-3.95,10.57-4.83,14.03c-14.35,5.08-20.08,30.09-36.56,23.3
			c-20.07-8.27-7.26-30.57-9.99-46.52c-0.64-3.74,3.77-4,4.01-7.89c3.64,0.31,4.56-15.54,8.16-16.18
			c14.05-9.71,33.65-23.46,48.47,6.54C544.93,698.97,542.57,709.26,535.4,716.65z"/>
		<path class="st16" d="M372.55,806.12c-10.65,19.99-22.4,38.52-49.28,36.88C329.57,808.9,332.4,806.78,372.55,806.12z"/>
		<path class="st1" d="M421.86,769.22c-1.91,17.07-15.07,11.34-24.94,12.29c0.06-3.88-0.19-7.79,0.23-11.62
			c0.96-8.78-4.29-21.67,8.96-23.82C424.77,743.03,420.72,758.59,421.86,769.22z"/>
		<path class="st17" d="M483.36,474.23c-8.2-0.01-16.4-0.02-24.6-0.03c-89.52-45.17-180.66-34.51-271.48-5.98
			c-28.59,8.98-35.52,31.39-23.35,59.12c7.21,16.41,22,30.36,17.07,50.86c-1.63,2.36-3.28,4.72-4.92,7.08
			c-21.28,3.63-30.62-13.47-43.4-24.78c-12.65-11.19-21.33-29.53-43.19-24.79c-4.1,3.81-8.2,3.82-12.3,0.02l-0.04-0.04
			c-0.23-6.05,1.97-14.1-1.09-17.81c-15.55-18.79-16.38-44.39-27.91-63.1c-16.26-26.37,15.36-44.12,4.35-66.54l0.13-0.13
			c4.48-3.65,8.12-8.13,12.19-12.18l0.1-0.1c4.18-3.96,8.26-8.03,12.22-12.2l0.08-0.08c4.74-5.32,12.33-5.96,17.45-10.61
			c2.82-3.03,6.2-5.22,9.79-6.56c7.5,2.49-1.79,6.72,4.14,1.24c3.46-3.2,0.82-6.08-4.18-4.51c-0.05,0.03-2.66-4.14-2.66-4.14
			c1.55-9.42,6.85-12.88,16.56-12.66c26.37,0.6,52.89,1.97,79.12-0.02c36.92-2.79,70.46,4.72,101.27,24.97
			c24.66,8.13,47.59,21.43,73.92,24.56c15.32-4.93,24.05,9.8,36.87,12.32c9.43,12.58,25.48,15.2,37.05,24.57
			c9.68,1.04,22.68-4.58,24.53,12.19c9.04,7.06,19.02,13.36,21.15,26.04C492.85,460.07,490.59,468.1,483.36,474.23z"/>
		<path class="st19" d="M446.45,363.55c-4.11,0.13-8.23,0.25-12.34,0.38c-36.26-21.59-74.73-39.01-115.47-49.01
			c-19.38-4.76-20.13-14.12-21.82-29.57c-2.4-22,16.64-37.04,15.71-58.19c-0.26-5.83,5.01-10.73,12.44-10.25
			c7.37,0.48,8.91,5.45,10.9,11.62c2.44,7.56,7.08,14.42,10.89,21.52c11.18,20.79,19.09,21.97,32.15,1.59
			c10.98-17.14,20.66-34.71,38.42-45.93c5.91,21.01,17.8,41.17,15.62,63.39c-2.49,25.42,13.55,46.52,13.08,71
			C453.86,347.78,452.64,355.63,446.45,363.55z"/>
		<path class="st19" d="M446.45,363.55c-0.13-7.82-0.27-15.64-0.4-23.45c27.34-2.03,49.27-12.97,62.62-38
			c7.99,4.12,15.97,8.24,23.96,12.37c-0.72,7.55-1.44,15.1-2.16,22.64c-6.92,1.83-10.4,6.44-10.92,13.45
			c-7.36,1.04-11.38,5.22-11.94,12.65c-7.49,0.66-11.72,4.62-12.37,12.21C478.49,373.5,458.06,386.59,446.45,363.55z"/>
		<path class="st13" d="M372.62,375.82c-0.46,6.7-5.56,14.08-10.22,11.89c-22.12-10.42-46.93-16.62-63.69-36.44
			C325.95,351.62,354.82,347.09,372.62,375.82z"/>
		<path class="st13" d="M446.54,412.72c-16.87-1.39-41.29,8.58-37.05-24.57c8.21,0.02,16.42,0.04,24.63,0.06
			C438.26,396.38,442.4,404.55,446.54,412.72z"/>
		<path class="st15" d="M101.76,351.3c-1.78,16.92-14.81,11.3-24.57,12.25c-0.06-4.1-0.05-8.19,0.01-12.29
			c4.06,0,8.12-0.01,12.18-0.03C93.54,346.59,97.67,346.62,101.76,351.3z"/>
		<path class="st17" d="M101.76,351.3c-4.13-0.02-8.25-0.05-12.38-0.07c0.26-7.96,4.37-12.07,12.36-12.26l0.04,0.03
			c4.05,2.73,5.4,5.45,4.06,8.18c-1.34,2.73-2.69,4.09-4.05,4.09L101.76,351.3z"/>
		<path class="st24" d="M717.24,597.2c31.87,4.85,58.7,20.66,83.02,40.44c8.73,7.1,17.26,9.22,27.42,9.32
			c3.78,12.71,11.94,20.87,24.97,23.96c3.81,14.21,13.8,20.46,27.32,25.44c15.02,5.54,24.78,17.4,22.07,35.46
			c-18.39-3.63-29.98,17.38-48.49,13.32c-10.64-1.66-22.51,2.57-26.19-15.3c-6.77-32.9-31.43-39.15-60.99-34.27
			c-20.02,4.68-25.22-12.04-34.19-23.44C723.84,647.86,698.38,626.89,717.24,597.2z"/>
		<path class="st22" d="M901.7,769.18c-4.66-14.93,9.68-23.66,11.91-36.34c21.87,10.87,37.94,27.6,49.43,48.94
			c-15.35,0.01-30.71-0.28-46.06,0.14C907.68,782.17,903.18,777.75,901.7,769.18z"/>
		<path class="st24" d="M212.24,559.83c28.22-25.43,60.18-40.65,99.31-36.28c5.82,8.16,18.24,4.05,23.77,12.75
			c-41.23,26.99-66.19,64.46-74.78,113.19c-1.31,7.42-7.69,13.96-11.72,20.9c-8.04,1.47-16.07,2.95-24.11,4.42
			c-6.68,1.82-13.33,1.71-19.96-0.33C186.34,634.91,191.67,596.87,212.24,559.83z"/>
		<path class="st14" d="M212.24,559.83c-2.92,35.64,8.74,72.46-8.64,106.94c3.32,1.53,6.64,3.07,9.96,4.6
			c2.77,4.88,1.39,8.38-3.57,10.67c-11.2,0.74-22.39,1.47-33.59,2.21c-0.1-32.99-0.21-65.98-0.31-98.97l-0.05-0.02
			c7.73-8.7,9.6-23,24.16-25.15C204.2,560.24,208.22,560.14,212.24,559.83z"/>
		<path class="st11" d="M224.72,674.81c-2.22,7.89-7.94,8.66-14.74,7.23"/>
		<path class="st23" d="M323.23,634.08c0.05,12.22,0.09,24.44,0.14,36.66c-8.19-0.08-16.39-0.16-24.58-0.24
			C299.81,653.59,290.67,629.88,323.23,634.08z"/>
		<path class="st15" d="M77.18,535.72c4.1-0.05,8.2-0.05,12.3-0.02c-0.66,5.02-0.98,11.11-8.17,9.25
			C79.27,544.42,78.52,538.93,77.18,535.72z"/>
		<path class="st15" d="M77.12,363.63c-0.14,8-4.21,12.07-12.22,12.2C65.03,367.83,69.12,363.78,77.12,363.63z"/>
		<path class="st15" d="M64.8,375.93c-0.15,7.97-4.17,12.07-12.19,12.18C52.73,380.1,56.81,376.06,64.8,375.93z"/>
		<path class="st7" d="M483.36,449.64c-4.1-8.24-8.2-16.49-12.3-24.73c18.65-4.75,30.51,17.37,49.21,12.4
			c4.11,8.2,8.22,16.41,12.34,24.61c-2.12,1.72-4.24,3.44-6.36,5.18C507.26,472.78,495.04,461.88,483.36,449.64z"/>
		<path class="st12" d="M532.61,461.92c8,0.21,12.12,4.3,12.3,12.3l-0.02,0.02c-11.02,2.81-15.25-1.16-12.32-12.29L532.61,461.92z"
			/>
		<path class="st25" d="M755.56,732.8c-1.34,7.03-4.62,12.05-12.62,12.21c-48.28,2.04-80.14-30.52-112.21-57.92
			c-19.89-17-50.09-30.39-48.83-64.86c-4.07-5.26-4.25-10.49,0.08-15.71C657.19,624.79,712.91,669.84,755.56,732.8z"/>
		<path class="st25" d="M557.72,621.5c-13.4-1.33-27.45,4.66-39.67-7.7c-14.62-14.8-31.25-27.61-47.01-41.28
			c-3.07-2.72-4.1-5.44-3.07-8.17c1.02-2.72,2.05-4.08,3.07-4.08c0.09-4.28,0.18-8.56,0.27-12.84c22.79-3.71,44.97,0.63,67.2,5.06
			C563.36,570.37,576.33,591.57,557.72,621.5z"/>
		<path class="st24" d="M557.72,621.5c0.66-24.34-2.36-47.17-25.31-61.88c-6.7-13.45,5.7-17.02,12.25-23.61
			c4.15,0.04,8.31,0.08,12.46,0.12c4.03,4.11,8.35,7.9,12.55,11.82l-0.13-0.12c26.23,16.13,30.19,36.81,12.69,61.88
			c-0.11,4.17-0.23,8.34-0.34,12.51C573.84,621.98,565.78,621.74,557.72,621.5z"/>
		<path class="st23" d="M533.36,696.32c-2.49-5.38-2.23-17.07-12.4-7.4c-7.83,7.44-16.52,6.26-25.49,6.4
			c0.16-4.03-1.15-8.99,0.73-11.93c7.86-12.36,8.25-36.27,24.62-34.99c25.94,2.03,24.84,26.11,23.88,46.46
			C541.61,700.75,537.8,700.99,533.36,696.32z"/>
		<path class="st24" d="M544.66,536.01c-4.08,7.87-8.17,15.74-12.25,23.61c-21.51,1.67-42.95,2.95-61.1-12.19
			c-0.41-3.87-0.22-7.7,0.56-11.51c7.67-7.45,15.6-7.05,23.71-0.75C511.94,535.46,528.3,535.73,544.66,536.01z"/>
		<path class="st25" d="M397.24,633.99c-5.06-15.3,9.8-23.99,12.22-36.8c1.37-9.17,6.4-14.33,15.74-11.38
			c9.13,2.88,11.92,11.74,6.47,18.01C421.73,615.28,413.92,629.94,397.24,633.99z"/>
		<path class="st10" d="M495.59,535.18c-7.9,0.25-15.81,0.5-23.71,0.75c-16.47,1.48-27.98-2.75-26.01-22.52
			C466.74,510.87,483.36,518.03,495.59,535.18z"/>
		<path class="st10" d="M335.32,536.3c-9.29-1.71-22.82,4.47-23.77-12.75c8.03-0.04,16.05-0.09,24.08-0.13
			C335.53,527.71,335.42,532.01,335.32,536.3z"/>
		<path class="st10" d="M471.05,560.27c-0.01,4.08-0.01,8.17,0,12.25c-3.22-1.33-8.72-2.07-9.25-4.1
			C459.93,561.24,465.99,560.89,471.05,560.27z"/>
		<path class="st21" d="M582.24,609.72c-0.17-21.46,1.52-43.3-12.69-61.88c21.36-0.18,43.19-2.64,61.38,12.58
			c38.4,35.42,74.8,72.85,111.15,110.34c17.78-1.17,6.31,26.19,24.29,24.83c16.28,31,16.28,31-10.82,37.22
			c-45.83-42.05-103.5-69.04-146.38-114.73C601.21,609.57,592.31,608.96,582.24,609.72z"/>
		<path class="st13" d="M200.18,560.1c-3.23,13-11,21.66-24.16,25.15c2.91-16.33-7.86-25.46-17.45-36.3
			c-39.28-44.4-22.96-83.05,31.89-101.3c30.19-10.05,64.38,0.76,90.8-21.45c2.48-2.09,8.22-2.19,11.65-0.97
			c34.03,12.16,66.41,20.73,102.63,1.43c15.6-8.31,55.73,26.19,63.22,47.53c-45.92,1.27-89.47-16.44-136.4-13.81
			c-32.24,1.81-61.03,14.54-92.41,17.99c-13.63,1.5-28.62,13.87-37.53,32.39C182.05,532.31,194.61,544.33,200.18,560.1z"/>
		<path class="st22" d="M742.08,670.75c-5.95-0.1-14.31,2.33-17.46-0.68c-31.48-30.11-62.35-60.88-92.58-92.24
			c-3.08-3.2-0.87-11.49-1.11-17.41c33.7,0.73,56.54,26.87,86.31,36.79c-3.4,18.88,10.1,32.03,17.58,46.58
			C739.51,652.89,742.21,661.04,742.08,670.75z"/>
		<path class="st13" d="M532.58,461.95c0.21,7.99,4.32,12.09,12.32,12.29c-2.99,17.68,36.47,9.18,21.25,31.44
			c-12.65,18.5-28.55-3.24-33.95-8.31c-14.63-13.73-40.24-0.87-48.83-23.14c0-8.2,0-16.39,0-24.59
			C502.04,444.65,513.89,466.93,532.58,461.95z"/>
		<path class="st21" d="M569.68,547.95c-7.66-0.26-12.22-3.8-12.55-11.82C565.22,535.93,569.45,539.82,569.68,547.95z"/>
		<path class="st8" d="M409.5,879.92c0.19-8,4.31-12.09,12.31-12.32C421.62,875.61,417.53,879.73,409.5,879.92z"/>
		<path class="st15" d="M101.79,351.28c0-4.09,0-8.18,0-12.28c14.82,5.09,33.21-10.06,45.72,8.05
			C133.02,356.58,116.92,348.74,101.79,351.28z"/>
	</g>
</g>
</svg>
