<?xml version="1.0" encoding="utf-8"?>
<!-- Generator: Adobe Illustrator 23.1.0, SVG Export Plug-In . SVG Version: 6.00 Build 0)  -->
<svg version="1.1" id="Calque_1" xmlns="http://www.w3.org/2000/svg" xmlns:xlink="http://www.w3.org/1999/xlink" x="0px" y="0px"
	 viewBox="0 0 1125 1528.66" style="enable-background:new 0 0 1125 1528.66;" xml:space="preserve">
<style type="text/css">
	.st0{fill:#B2744F;}
	.st1{fill:#C38055;}
	.st2{fill:#FEF2C1;}
	.st3{fill:#912E02;}
	.st4{fill:#A36848;}
	.st5{fill:#762201;}
	.st6{fill:#F6DD9B;}
	.st7{fill:#D18F5C;}
	.st8{fill:#580A1B;}
	.st9{fill:#88320B;}
	.st10{fill:#B73702;}
	.st11{fill:#CB5621;}
	.st12{fill:#EECA8D;}
	.st13{fill:#EDAA6F;}
	.st14{fill:#6B462B;}
	.st15{fill:#8F4D2A;}
	.st16{fill:#FBD38F;}
	.st17{fill:#4C4441;}
	.st18{fill:#FEEDB0;}
	.st19{fill:#F3EEEA;}
	.st20{fill:#631C02;}
	.st21{fill:#461606;}
	.st22{fill:#CE6A70;}
	.st23{fill:#5D252C;}
	.st24{fill:#813A42;}
	.st25{fill:#30000A;}
	.st26{fill:#320B12;}
</style>
<g>
	<g>
		<path class="st0" d="M95.73,1357.97c-49.38-29.72-67.78-75.34-67.14-130.75c3.97-4.39,8.59-7.93,13.93-10.52
			c5.74-1.42,11.57-1.87,17.45-1.52c5.78,0.68,11.4,2.11,16.92,3.93c13.39,4.83,27.12,8.72,40.81,12.73
			c11.11,3.23,22.39,5.49,33.99,6.19c21.52,1.18,43.14-0.14,64.53,3.4c6.42,0.97,12.67,2.48,18.91,4.18
			c9.64,2.58,19.42,4.08,29.4,4.66c35.06,1.73,70.4-2.14,105.07,5.76c38.35,11.7,76.74,11.65,115.21,0.44
			c14.47-3.37,29.1-5.06,43.94-4.9c14.76,0.36,28.93,2.97,41.45,11.29c6.67,6.97,14.7,17.8,10.06,24.67
			c-42.01,62.17,6.24,62.85,47.13,80.48c96.36,41.56,172.46,21.42,239.89-55.87c18.19-20.85,39.65-51.11,76.73-27.38
			c-66.86,138.2-179.55,210.38-329.55,228.81C445.28,1449.25,259.58,1440.02,95.73,1357.97z"/>
		<path class="st1" d="M944,1284.79c-44.71-0.39-62.84,38.06-87.77,63.66c-58.59,60.15-122.69,79.67-202.87,47.24
			c-38.51-15.58-90.51-11.46-118.49-36.38c-48.72-43.4,64.25-40.64,35.59-88.07c4.92-12.71,15.73-18.85,27.09-24.45
			c5.8-2.37,11.82-3.95,18.04-4.91c8.44-0.84,16.77-0.34,24.59,1.82c3.32,3.17,7.24,3.48,11.26,0.53c1.07-4.72,3.67-8.16,7.79-10.73
			c4.5-2.63,9.09-4.53,13.97-6.17c13.79-3.99,25.99-10.64,36.99-19.68c10.05-7.49,20.78-13.69,32.2-18.77
			c8.85-4.03,18.01-7.16,27.36-9.83c16.18-4.17,32.39-8.27,47.07,4.2c10.53,11.5,2.04,37.27,23.95,38.4
			c19.23,1,25.65-18.03,32.2-33.01c7.56-17.3,7.14-37.45,15.94-54.01c21.99-41.38,49.6-65.25,92.65-22.5
			C988.57,1173.94,996.35,1235.9,944,1284.79z"/>
		<path class="st2" d="M71.9,882.93c33.52-52.38,98.35-71.49,131.73-124.02c13.9-20.5,34.69-25.59,57.6-25.91
			c8.25,1.09,15.88,4.26,23.2,7.64c4.39,1.31,8.92,1.36,13.27-0.54c5.43-4.94,8.86-11.26,12.84-17.27
			c4.93-6.65,10.89-12.03,17.95-16.33c5.15-2.76,10.48-4.88,16-6.71c11.43-3.76,22.75-7.79,34.61-10.13
			c9.51-1.35,18.91-0.73,28.28,1.12c11,2.73,22.35,4.06,33.18,7.32c43.68,13.13,40.52,29.99,3.74,49.32
			c-9.17,5.03-19.28,7.76-28.73,11.06c0.42-0.11-2.34,3.91-2.34,3.91s4.81-0.73,5.14-0.8c7.26,0.01,13.98,1.31,20.77,3.47
			c14.29,5.21,29.36,8.94,36.91,24.18c-9.16,66.17-46.07,113.5-100.78,148.85c-13.84,4.54-27.84,4.23-41.93,1.41
			c-13.77-3.14-27.4-6.98-41.64-7.99c-14.79-1.37-29.43-3.41-43.89-6.9c-56.87-17.49-118.9,9.25-174.32-20.41
			C66.64,897.58,66.12,890.48,71.9,882.93z"/>
		<path class="st3" d="M414.37,400.17c3.8-9.93,11.59-13.7,21.61-14.04c45.35,2.42,75.36-41.59,120.51-39.94
			c14.31,1.21,27.07,7.6,40.48,11.94c23.59,7.64,50.23,28.09,70.62,0.13c19.12-26.22,4.4-54.58-9.24-79.52
			c-12.49-22.83-35.27-37.87-49.22-59.93c-6.34-33.81,25.99-78.48-27.97-98.94C565.41,98.01,557,76.33,583.23,55.8
			c36.01-4.04,57.3,21.99,82.47,40.22c40.06,26.28,62.5,65.12,77.78,109.13c14.38,66.89,60.67,127.86,37.88,201.7
			c-7.99,17.4-23.26,24.78-40.56,29.29c-19.36,1.6-35.61,11.91-52.84,19.65c-22.36,6.63-45.26,6.01-68.16,5.54
			c-29.19,2.5-53.85-21.4-83.89-14.02c-39.14,14.64-80.4,14.38-121.15,18.08c-15.39-1.61-27.35-8.12-33.23-23.26
			c4.9-4.53,9.79-9.06,14.69-13.59C408.98,423.37,406,408.14,414.37,400.17z"/>
		<path class="st4" d="M95.73,1357.97c91.99-2.68,167.42,59.73,256.41,66.26c69.19,5.08,133.06,27.74,197.34,49.48
			c23.7,8.02,49.66,16.32,64.96,39.87C443.71,1563.86,172.4,1482.46,95.73,1357.97z"/>
		<path class="st2" d="M381.54,442.13c10.39,6.3,20.79,12.59,31.18,18.89c11.07-2.22,21.86-1.32,32.4,2.69
			c10.3,3.48,20.8,6.06,31.75,6.64c8.42-0.01,16.8,0.01,25.2-0.08c5.73-0.39,11.44-0.34,17.15-0.21c14.1,0.41,28.23,0.71,41.62,5.58
			c4.48-3.43,11.4,23.82,14.21-1.37c1.04-8.32,4.21-15.32,11.34-20.1c8.07-2.27,16.21-3.04,24.5-1.84
			c13.02,5.46,21.07,16.76,30.74,25.98c6.41,6.3,12.93,4.55,19.59-0.05c7.56-4.26,15.41-7.42,23.45-10.39
			c8.85-3.67,17.81-6.71,27.23-8.66c17.97-2.39,35.03-1.49,48.66,12.66c5,10.84,4.55,21.53-0.65,32.19
			c-29.29,32.01-62.59,56.51-108.26,57.87c-81.65,6.33-166.99-15.41-243.19,32.24c-14.48,5.17-29.17,6.31-44.05,1.97
			c-14.2-5.38-22.65-15.92-26.73-30.2c-0.26-37.92-47.52-27.89-57.47-56.04c-0.52-13.43-3.39-27.16,5.53-39.22
			C308.44,430.18,346.94,442.69,381.54,442.13z"/>
		<path class="st5" d="M770.18,414.46c13.18-76.29-35.07-140.21-42.74-212.3c16.08-20.14,16.08-20.14,74.63-3.1
			c10.25,3.13,18.32,9.71,26.22,16.56c0.69,3.95,0.63,7.89-0.18,11.82c3.32,6.47,7.64,12.12,13.47,16.54
			c1.09,3.78,1.47,7.62,1.14,11.54c4.27,14.97,15.03,24.22,27.89,31.61c5.41,8.65,10.82,17.31,16.24,25.96
			c-1.21,31.83,2.55,60.83,40.27,70.64c17.94,27.78,43.09,55.64-0.94,82.68c-32.75,1.85-66.13,7.69-98.12,2.78
			C799.76,464.83,756.62,466.93,770.18,414.46z"/>
		<path class="st6" d="M613.83,1253.27c-4.86,0.57-9.71,1.14-14.57,1.71c-21.48,16.33-49.19-1.79-70.97,12.86
			c-14.79,2.24-29.57,4.49-44.36,6.73c-27.28,2.52-54.57,2.47-81.85,0.09c-48.15-22.55-99.39-9.03-149.15-12.74
			c-7.76,0-15.5-0.42-23.21-1.25l-0.63-5.78c-25.5-15-53.4-3.55-79.93-7.22c-6.89,0.06-13.6-1.03-20.13-3.23
			c-15.1-18.21-40.23-4.24-56.82-17.68c-4.67-1.24-9.33-2.48-14-3.73c-5.01-2.21-10.23-3.62-15.69-4.09
			c-5.4-1.25-10.16-3.7-14.19-7.52c-3.3-4.71-6.59-9.42-9.89-14.13c-7.42-2.87-11.11-8.28-11.06-16.23
			c-0.82-8.04-1.64-16.08-2.45-24.13c13.72-16.37,31.83-17.91,51.2-15.34c56.19,21.32,110.81,48.08,172.48,51.29
			c7.28-0.1,14.51,0.12,21.78,0.34c25.97,0.86,51.99-0.27,77.88,2.78c7.54,0.71,14.92,2.23,22.22,4.14
			c58.94,14.06,118.86,4.03,178.15,7.1c17.04-0.44,34.09-1.38,50.85-5.06c12.76-2.62,25.56-3.75,38.24,0.13
			c8.72,8.3,18.43,10.83,29.6,4.59c6.46,0.71,11.35,3.88,14.99,9.15c3.19,9.54,1.84,18.12-5.34,25.47l0.12-0.11
			C645.11,1254.28,626.23,1241.96,613.83,1253.27z"/>
		<path class="st7" d="M981.55,1112.14c-52.81-18.44-81.53-1.74-83.78,56.14c-0.44,11.4-4.23,23.39-9.28,33.75
			c-12.48,25.63-26.14,56.9-60.5,49.38c-47-10.29-11.62-46.18-15.86-70.15c-4.24-3.94-6.68-8.78-7.32-14.52
			c0.5-5.63,2.52-10.71,5.75-15.28c12.76-7.34-6.4-10.07-2.46-16.21c0.86-12.54,7.07-22.38,15.32-31.28
			c13.16-12.6,29.48-21.47,41.41-35.55c19.23-20.01,27.02-43.59,25.26-71.33c-1.41-22.23,9.12-36.03,32.75-37.45
			c14.08,0.46,25.68,6.63,36.08,15.58c9.46,9.69,16.33,20.54,14.83,34.54c-8.14,8.41-18.78,16.39-10.91,30.91
			C969.08,1064.49,975.32,1088.32,981.55,1112.14z"/>
		<path class="st4" d="M962.85,1040.67c-20.85-15.69-20.69-26.09,7.42-29.44c16.18-21.4,44.37-29.38,58.69-52.8
			c8.07-7.73,17.18-14.57,21.89-25.05c4.94-7.91-0.66,3.67,3.82-4.7c-1.74,1.48-2.82,3.51-4.38,5.27
			c-7.54,10.12-16.15,16.18-28.82,8.36c-14.88-19.08-29.24-38.53-42.69-58.76c-1.19-6.6-0.58-12.97,1.7-19.26
			c26.27-36.71,55.66-68.98,104.35-74.07c6.65,1.85,12.85,4.71,18.61,8.52C1161.11,904.8,1083.24,1038.81,962.85,1040.67z"/>
		<path class="st8" d="M44.22,994.73c-4.52-6.56-9.05-13.11-13.57-19.67c3.91-19.84,15.3-33.97,32.97-43.4
			c43.73-13.52,90.03-7.87,134.29-17.86c15.47,0.01,31-0.85,46.07,3.87c34.23,13.52,71.44,14.07,106.46,24.7
			c18.9,5.74,34.39,12.34,39.32,33.19c-20.44,46.67-63.63,41.64-102.35,42.99c-69.57,2.43-140.45-6.27-205.01,29.88
			C53.92,1041.76,61.23,1009.61,44.22,994.73z"/>
		<path class="st9" d="M1015.07,468.87c89.88,68.21,97.75,169.55,107.68,269.53c1.77,17.85-13.57,28.87-28.52,37.18
			c-3.47,0.19-6.94,0.37-10.42,0.58c-3.15-1.49-6.29-3.01-9.47-4.48c-5.54-4.39-10.05-9.67-13.66-15.73
			c-2.95-6.32-4.99-12.96-6.36-19.8c-2.65-16.85-2.65-33.89-3.03-50.88c2.79-33.59-8.96-63.73-22.46-93.41
			c4.81-48.07-55.97-65.21-53.22-112.31C984.45,460.21,1001.73,471.82,1015.07,468.87z"/>
		<path class="st10" d="M584.67,59.89c-13.57,18.79,0.37,37.32,0.51,55.98c-12.99,22.22-22.73,48.73-56.86,43.02
			c-18.68,0.75-37.35,1.5-56.03,2.24c-42.59-33.08,9.84-68.43-2.44-102.23c0.28-4.81,0.55-9.62,0.83-14.42
			c5.85-3.92,10.83-8.69,14.44-14.8c9.46-0.4,18.93-0.79,28.39-1.19c19.97,6.99,41.06,6.67,61.73,9.53
			C584.19,42.84,591.29,48.44,584.67,59.89z"/>
		<path class="st9" d="M569.79,45.24c-23.52,10.5-49.57,29.48-56.27-16.72C516.26,1.22,538.94,4.27,556.83,0
			c105.52,1.43,158.89,32.95,186.75,110.27c3.46,3.62,5,7.51,4.62,11.68c-0.39,4.31-1.06,6.46-1.99,6.46
			c-33.97,14.22-44.61-20.36-66.49-31.56C646.83,71.6,616.09,41.92,569.79,45.24z"/>
		<path class="st11" d="M555.89,357.5c-41.83,1.67-67.98,69-119.88,28.63c60.74-57.24,124.24-113.07,107.89-209.96
			c35.43-6.03,37.8,21.15,44.49,44.12C590.7,269.1,591.44,317.62,555.89,357.5z"/>
		<path class="st12" d="M269.79,743.79c-22.05,5.03-44.11,10.06-66.16,15.11c-6.43-27.61-13.05-50.48,20.73-71.77
			c33.76-21.28,4.37-72.77,32.5-101.96c19.79-9.25,34.65-0.16,48.45,12.99c5.79,9.48,7.81,19.85,7.16,30.84
			c-8.05,33.61-21.97,65.56-28.78,99.62C280.61,735.08,275.95,740.12,269.79,743.79z"/>
		<path class="st5" d="M572.42,212.87c-2.23-17.91-10.52-31.12-28.53-36.74c-5.19-5.72-10.38-11.48-15.57-17.23
			c25.37-5.86,25.93-44.51,56.86-43.01c67.9,15.42,70.78,25.67,27.47,97.71C598.99,227.19,585.57,227.79,572.42,212.87z"/>
		<path class="st3" d="M1015.07,468.87c-8.71,17.13-20.52,6.62-31.5,3.53c-13.38,12.41-28.36,20.71-47.44,18.68
			c-15.12-7.61-20.79-18.08-10-33.46c23.94-29.17-1.54-48.81-13.7-71.02c-28.51-27.79-28.3-31.33,2.6-44.83
			c27.84,1.45,24.24,34.56,44.22,43.92c10.13,13.43,28.43,16.11,38.67,29.41C1003.64,433.03,1009.36,450.95,1015.07,468.87z"/>
		<path class="st7" d="M44.22,994.73c30.69,1.78,27.08,27.95,33.45,47.03c5.73,9.08,9.72,18.79,10.7,29.6
			c1.09,14.25-0.82,28.19-4.54,41.94c-4.71,17.23-12.45,32.68-26.79,44.08c-17.37-0.14-34.75-0.29-52.12-0.43
			C-3.12,1097.75,46.66,1052.56,44.22,994.73z"/>
		<path class="st11" d="M469.86,58.91c13.51,15.9,42.51,28.77,12.23,53.97c-16.82,14-20.3,29.36-9.79,48.25
			c-5.12,13.09-10.24,26.17-15.36,39.24c-48.51,18.49-53.47-17.44-50.79-47.29c2.37-26.4,3.19-56.36,23.36-78.83l-0.17-0.27
			c4.12-5.94,9.32-10.6,16.05-13.42C453.54,60.02,461.7,59.46,469.86,58.91z"/>
		<path class="st13" d="M292.84,600.19c-11.99-5-23.99-10.01-35.98-15.02c3.61-20.52,7.22-41.05,10.83-61.57
			c12.55,2.24,18.51,12.64,26.23,20.87c8.01,7.94,17.35,14,27.39,19.08c12.08,7.63,23.99,15.51,37.87,19.64
			c13.58,0.1,27.17,0.19,40.75,0.29c26.14,9.34,46.51,19.98,9.81,43.56c-30.86,8.28-61.39,9.34-91.21-4.37
			C309.53,615.68,304.61,604.03,292.84,600.19z"/>
		<path class="st14" d="M429.51,74.25c-4.17,22.53-9.91,44.91-12.11,67.63c-2.84,29.28-1.03,57.59,39.54,58.49
			c-6.45,28.06-16.6,33.96-36.53,24.12c-22.27-10.99-14.65-39.91-33.63-52.17C406.25,141.91,378.89,91.1,429.51,74.25z"/>
		<path class="st3" d="M740.84,131.7c0.91-7.11,1.82-14.23,2.74-21.39c42.29-11.33,80.48-16.77,69.13,48.43
			c-11.29,11.79-25.21,14.75-40.81,12.2C752.89,164.74,737.79,155.38,740.84,131.7z"/>
		<path class="st9" d="M915.03,341.77c-24.31,13.58-8.21,29.51-2.6,44.83c-41.84,5.62-48.7-14.07-25.59-73.5
			C896.25,322.64,905.64,332.21,915.03,341.77z"/>
		<path class="st9" d="M769.28,159.52c14.47-0.26,28.95-0.52,43.42-0.77c5.19,18.96,10.38,37.91,15.58,56.87
			c-9.47,0-18.95,0.01-28.42,0.02C785.39,199.27,761.43,188.06,769.28,159.52z"/>
		<path class="st15" d="M58.58,949.44c-1.78,16.74-15.43,20.51-27.93,25.58c-11.02-4.52-23.54-7.5-24.35-22.9
			c7.71-8.24,15.58-16.32,22.99-24.83l-0.03,0.01c10.97-7.63,21.89-9.56,32.71,0.32C66.09,935.72,64.96,942.99,58.58,949.44z"/>
		<path class="st16" d="M287.22,556.09c-14.07-6.27-14.3-20.86-19.51-32.47c0.57-19.5-2.86-40.36,18.04-52.92
			c0.37,14.61,0.73,29.22,1.1,43.84C297.29,528.29,298.75,542.13,287.22,556.09z"/>
		<path class="st17" d="M997.92,415.11c-19.49-1.13-34.2-8.55-38.69-29.41C979.07,386.39,997.67,388.68,997.92,415.11z"/>
		<path class="st7" d="M29.29,927.29c5.69,20.67-5.77,25.43-23,24.84C6.75,937.15,10.05,924.84,29.29,927.29z"/>
		<path class="st12" d="M57.67,931.75c-9.47-1.48-18.94-2.96-28.41-4.44c1.43-17.63,15.61-23.07,28.45-29.79
			c4.98,4.67,8.05,10.33,8.9,17.15C65.74,921.46,62.86,927.21,57.67,931.75z"/>
		<path class="st9" d="M870.63,287.12c-20.18-0.9-29.6-11.3-27.9-31.58C852.03,266.05,861.33,276.58,870.63,287.12z"/>
		<path class="st6" d="M59.66,917.39c-0.65-6.63-1.3-13.25-1.94-19.88c4.73-4.86,9.45-9.72,14.18-14.58
			c0.29,5.49,0.58,10.98,0.87,16.47c3.57,2.71,5.21,5.81,4.91,9.31c-0.32,3.69-0.96,5.53-1.9,5.55
			C70.95,918.11,65.6,919.29,59.66,917.39z"/>
		<path class="st7" d="M1081.3,777.31c4.15-1.71,8.46-2.31,12.93-1.76c3.06,7.75,6.1,15.48,9.17,23.2
			c-6.14,0.57-12.31,1.15-18.47,1.72C1074.75,794.16,1076.29,786.01,1081.3,777.31z"/>
		<path class="st10" d="M414.37,400.17c0.06,13.33-3.18,24.56-18.11,28.37C402.28,419.08,408.32,409.63,414.37,400.17z"/>
		<path class="st7" d="M7.37,1181.06c3.67,5.4,7.35,10.8,11.04,16.22C14.74,1191.89,11.05,1186.47,7.37,1181.06z"/>
		<path class="st9" d="M841.59,243.98c-4.49-5.5-8.99-11-13.48-16.52C832.61,232.95,837.1,238.46,841.59,243.98z"/>
		<path class="st7" d="M28.32,1211.42c5.67,0.24,11.34,0.47,17.01,0.71c4.16,4.03,4.48,8.34,0.95,12.93
			c-5.89,0.72-11.78,1.43-17.68,2.15C28.49,1221.96,28.4,1216.69,28.32,1211.42z"/>
		<path class="st14" d="M445.39,60.57c-5.35,4.47-10.7,8.94-16.05,13.41C434.69,69.51,440.04,65.04,445.39,60.57z"/>
		<path class="st9" d="M485.13,29.69c-4.81,4.93-9.62,9.87-14.43,14.8C475.5,39.55,480.31,34.62,485.13,29.69z"/>
		<path class="st16" d="M243.46,1255.12c52.3,5.63,106.57-13.93,157.25,12.31c-7.63,10.65-17.75,8.81-28.14,5.59
			c-42.23-1.57-84.46-3.14-126.7-4.71c-4.3-2.24-6.09-4.95-5.38-8.11C241.26,1256.81,242.25,1255.12,243.46,1255.12z"/>
		<path class="st1" d="M372.57,1273.03c9.38-1.86,18.75-3.71,28.13-5.58c27.76,2.35,55.52,4.71,83.25,7.1
			C446.6,1289.07,409.45,1290.55,372.57,1273.03z"/>
		<path class="st16" d="M143.92,1240.77c28.49,4.1,60.23-11.43,85.16,14.13c-27.45-0.44-54.9-0.88-82.35-1.31
			c-6.05-1.66-8.47-4.1-7.3-7.35C140.74,1242.6,142.23,1240.77,143.92,1240.77z"/>
		<path class="st16" d="M528.29,1267.85c20.51-21.68,47.02-10.21,70.98-12.86c-9.6,5.41-19.2,10.82-28.8,16.24
			C556.4,1270.11,542.35,1268.98,528.29,1267.85z"/>
		<path class="st16" d="M72.2,1226.77c19.99,1,41.74-6.16,57.93,12.49c-3.07,6.83-7.84,8.37-14.31,4.61
			C100.92,1239.06,83.11,1241.73,72.2,1226.77z"/>
		<path class="st1" d="M115.81,1243.87c4.77-1.53,9.54-3.06,14.31-4.6c4.48,1.59,9.08,2.09,13.8,1.5c0.48,4.37,1.4,8.65,2.79,12.82
			C134.89,1255.22,123.91,1254.14,115.81,1243.87z"/>
		<path class="st16" d="M46.27,1225.07c-0.71-4.28-1.03-8.59-0.96-12.93c4.3,3.65,8.6,7.3,12.89,10.93
			C54.37,1224.57,50.39,1225.24,46.27,1225.07z"/>
		<path class="st1" d="M243.46,1255.12c0.49,4.46,1.28,8.87,2.39,13.21c-5.38-2.58-10.78-5.14-16.16-7.68
			C234.29,1258.82,238.87,1256.97,243.46,1255.12z"/>
		<path class="st13" d="M819.59,1140.6c4.19,11.82-11.63,28.89-7.45,40.68c-13.91,5.62-27.81,11.27-41.71,16.92
			c-8.1-10.96-26.81-2.93-32.53-18.17c-0.29-14.38,6.66-24.53,18.47-31.8C770.38,1141.28,805.14,1141.18,819.59,1140.6z"/>
		<path class="st16" d="M656.97,1241.52c-0.32-8.9-0.65-17.81-0.97-26.71c3.03-5.78,7.54-9.96,13.52-12.59
			c12.57-3.98,25.08-3.97,37.51,0.67c5.97,3.01,9.53,7.78,10.32,14.5C704.89,1244.65,679.95,1240.64,656.97,1241.52z"/>
		<path class="st0" d="M655.76,1254.46c9.96,2.62,22.86,1.71,21.99,17.57c-0.09,1.62-2.87,4.37-4.5,4.44
			c-15.74,0.7-15.21-11.83-17.44-22.07L655.76,1254.46z"/>
		<path class="st16" d="M613.83,1253.27c11.33-15.2,27.59-12.43,43.25-11.87c-0.53,4.35-0.97,8.7-1.32,13.06
			c0,0,0.05-0.05,0.05-0.06C641.82,1254.03,627.83,1253.65,613.83,1253.27z"/>
		<path class="st16" d="M745.92,1203.02c-9.55,4.76-19.1,9.52-28.61,14.33c0.03,0.05-4.26-5.29-4.26-5.29
			c-3.44-3.1-4.94-6.49-4.51-10.17c0.45-3.83,1.16-5.74,2.11-5.76c7.66-6.33,16.35-7.95,25.9-5.68
			C743.34,1191.91,746.63,1195.98,745.92,1203.02z"/>
		<path class="st16" d="M737.9,1167.82c11.55,1.69,26.29,17.74,32.54,30.38c-8.19,1.57-16.39,3.14-24.55,4.76
			c-4.49-4.87-18.95-8.58-23.48-13.49C725.09,1187.93,735.21,1169.36,737.9,1167.82z"/>
		<path class="st18" d="M370.66,928.08c46.14-38.45,75.98-88.45,100.64-142.11c-3.6-3.61-5.09-7.45-4.48-11.53
			c0.62-4.19,1.45-6.29,2.44-6.29c5.05-4.43,10.81-7.68,17.16-9.87c21.94-5.03,44.81-4.42,66.64-10.57
			c9.42-1.95,18.83-1.95,28.17,0.45c14.84,5.14,25.52,16.55,38.05,25.18c7.89,4.45,16.21,7.91,24.87,10.73
			c14.42,5.87,31.82,9.06,28.87,31.04c-3.91,5.21-8.55,9.68-13.63,13.66c-28.76,26.07-10.2,63.24-21.85,93.55
			c-9.07,23.61-4.35,52.52-27.68,70.77c-21.13,10.96-43.48,10.3-66.13,7.47c-48.8-8.57-94.1-28.9-141.49-42.32
			C387.24,954,368.53,951.28,370.66,928.08z"/>
		<path class="st19" d="M322.09,615.41c30.27,0.16,60.94-4.37,90.23,7.54c11.61-4.59,18.9,0.26,23.62,10.8
			c2.29,10.39,0.55,19.89-6.16,28.32c-19.6,23.43-60.24,5.57-75.15,38.29c-3.73,5.17-8.09,9.76-13.13,13.69l-6.32-0.37l-6.32,0.23
			c-11.73,7.49-24.39,13.17-36.9,19.21c-5.65,1.38-11.17,0.98-16.51-1.37c-9.67-36.65,4.35-67,25.42-95.47
			C305.29,626.63,304.59,611.76,322.09,615.41z"/>
		<path class="st7" d="M370.66,928.08c57.6,18.58,115.21,37.17,172.81,55.75c4.21,8.05,2.86,15.03-4.02,20.98
			c-58.06,18.87-109.09,7-153.17-35.15c-43.71-27.97-98.72-15.69-143.38-40.27c-4.5-14.32,0.85-20.24,15.53-18.22
			c13.49,1.17,26.97,2.33,40.46,3.5c9.31,6.62,20.94,5.53,31.08,9.4C343.53,925.4,357.09,926.74,370.66,928.08z"/>
		<path class="st6" d="M559.33,754c-22.17,26.92-51.48,14.73-78.64,14.37c-14.64-15.37-45.42-3.02-52.85-30.77
			c-3.08-14.01,38.45,0.71,15.66-21.9c-8.41-8.34-30.7,0.25-43.56-11.83c7.57-16.13,22.6-18.53,37.79-20.73
			c15.02-1.16,29.73,0.68,44.15,4.97C512.4,704.48,553.5,708.57,559.33,754z"/>
		<path class="st14" d="M443.32,694.64c-14.46,3.08-28.93,6.16-43.38,9.23c-9.69,0.46-19.38,0.92-29.08,1.38
			c-9.72,1.17-19.63,3.23-27.28-5.63c18.02-67.47,62.48-23,96.49-22.79C448.53,681.42,449.63,687.35,443.32,694.64z"/>
		<path class="st16" d="M258.43,911.18c-5.17,6.07-10.35,12.15-15.52,18.22c-13.81-1.13-27.61-2.26-41.42-3.4
			c-42.14-12.18-87.99,18.52-128.61-11.15c-0.03-5.15-0.07-10.3-0.1-15.44C134.51,905.57,197.98,884.44,258.43,911.18z"/>
		<path class="st15" d="M427.85,737.6c24.05-0.79,48.59-2.41,52.85,30.78c-3.85,0.72-6.9,2.69-9.15,5.88
			c-14.1,5.16-28.2,4.79-42.3,0.01c-9.75-0.98-19.5-1.95-29.26-2.93l-0.19-0.23C403.2,754.96,415.24,746.04,427.85,737.6z"/>
		<path class="st14" d="M275.44,731.75c3.45-0.84,6.27-2.67,8.46-5.47c11.21-5.51,22.17-6.05,32.68,1.72
			c-1.01,8.62-2.02,17.24-3.03,25.86c-7.09,11.62-16.78,10.25-27.15,5.41c-5.53-5.17-11.07-10.33-16.61-15.49
			C274.62,741.16,276.51,737.15,275.44,731.75z"/>
		<path class="st12" d="M316.58,727.99c-10.88-0.58-21.76-1.16-32.66-1.73c11.72-15.91,28.65-12.96,44.93-12.36
			C324.76,718.6,320.67,723.3,316.58,727.99z"/>
		<path class="st6" d="M429.25,774.27c14.1,0,28.2-0.01,42.3-0.01c0.17,3.91,0.09,7.8-0.25,11.7
			C456.62,784.44,440.66,787.53,429.25,774.27z"/>
		<path class="st18" d="M286.4,759.26c9.05-1.8,18.1-3.61,27.15-5.41C307.49,770.67,298.32,771.87,286.4,759.26z"/>
		<path class="st6" d="M343.59,699.62c9.1,1.88,18.19,3.76,27.28,5.63c-9.79,2.93-19.56,5.86-29.36,8.79
			C342.19,709.24,342.89,704.43,343.59,699.62z"/>
		<path class="st16" d="M329.97,924.07c-12.28,3.21-22.84,0.76-31.07-9.4C310.82,912.58,321.58,914.41,329.97,924.07z"/>
		<path class="st6" d="M400,771.34c-2.05,1.98-4.1,3.97-6.14,5.95c0.23-1.42-0.02-3.41,0.81-4.12c1.33-1.13,3.39-1.42,5.14-2.06
			C399.81,771.11,400,771.34,400,771.34z"/>
		<path class="st20" d="M926.13,457.62c0.84,11.81,3.25,22.82,14.93,29.06c33.52,32.81,61.4,71.31,99.87,99.13
			c25.37,28.58,32.39,62.47,28.76,99.43c-25.39,26.76-50.59,53.85-92.31,51.1c-6.3-2.12-11.5-5.83-15.43-11.22
			c-9.9-22.93-11.64-49.27-28.71-69.35c-4.97-12.75-5.37-25.43,0.55-38.01c5.61-8.87,14.05-12.63,24.09-13.26
			c5.83,1.34,10.71,4.24,13.85,9.65c-1.41-5.93-5.02-10.06-10.49-12.7c-20.52-12.88-31.97-35.16-51.44-49.05
			c-13.26-10.74-25.18-23.19-40.39-31.37c-5.09-2.11-10.04-4.52-15.02-6.81c-5.02-2.07-9.73-4.77-14.25-7.73
			c-4.23-3.13-8.32-6.53-12.38-9.83c-6.81-4.09-14.2-6.6-22.16-7.63c-17.05-0.97-34.28-0.52-50.01-8.6
			c-16.74-0.8-33.48-1.6-50.22-2.41c-7.8-4.65-13.91,2.33-20.93,3.05c-9.57,2.27-19.14,4.53-28.71,6.8c0,0-5.27-2.69-5.28-2.67
			c-0.01,0.02-1.78-5.56-1.78-5.56s-0.63,5.82-0.63,5.84c0.01,0.02-4.94,3.23-4.94,3.23c-11.37-6.5-36.71,11.15-34.01-19.67
			c-4.53-9.55-2.95-17.94,4.77-25.17c28.21-0.32,56.42-0.64,84.64-0.96c7.98-8.06,17.22-13.27,28.98-12.7
			c14.23-5.25,28.46-10.51,42.69-15.77c14.24,43.06,49.41,44.6,83.21,35.74C880.33,443.14,902.96,444.28,926.13,457.62z"/>
		<path class="st10" d="M572.42,212.87c13.42,0.26,26.83,0.52,40.24,0.75c31.62,4.91,51.56,33.43,61.64,53.68
			c16.03,32.22,43.44,72.66,9.42,111.52c-33.23,37.96-64.44,1.85-96-5.79c-11.2-2.71-21.25-10.21-31.83-15.52
			C561.4,309.29,566.91,261.08,572.42,212.87z"/>
		<path class="st21" d="M769.28,159.52c9.38,19.14,31.3,31.46,30.57,56.11c-26.19,6.58-44.14-31.14-72.41-13.49
			c-11.79-41.59-49.41-65.05-70.39-100.19c6.07-11.21,16.49-14.59,28.19-15.68c29.65,1.53,32.23,36.2,55.6,45.42
			C750.32,140.98,759.8,150.25,769.28,159.52z"/>
		<path class="st20" d="M570.75,491.19c-18.88-1.57-37.76-3.14-56.63-4.72c-4.5-5.22-9.37-5.84-14.65-1.15
			c-9.29-1.5-18.58-3-27.88-4.5c-10.88-1.56-21.85-2.7-32.33-6.29c-10.95-0.37-21.03-2.47-26.55-13.51
			c37.42-34.44,89.76-8.02,129.79-31.81c18.37,18.72,48.43,17.7,65.43,38.74c-0.27,14.35-10.54,19.38-21.84,23.45
			C580.98,491.08,575.87,491,570.75,491.19z"/>
		<path class="st20" d="M685.25,86.27c-5.63,12.01-16.06,15.38-28.2,15.68c-24.12-14.02-48.24-28.04-72.37-42.06
			c-4.96-4.88-9.91-9.77-14.87-14.65C622.67,18.39,655.11,49.1,685.25,86.27z"/>
		<path class="st5" d="M607.93,467.95c-21.21-13.93-59.24,0.56-65.43-38.74c29.91-24.89,43.18,31.17,71.37,14.67
			c-1.59,8.37-3.19,16.74-4.78,25.14C609.11,469.06,607.93,467.95,607.93,467.95z"/>
		<path class="st5" d="M727.49,430.23c-6.63,11.12-17.27,13.13-28.97,12.7C702.26,425.19,705.96,407.36,727.49,430.23z"/>
		<path class="st16" d="M429.33,631.01c-5.68-2.73-11.37-5.46-17.03-8.13c22.1-21.31-11.02-25.35-12.37-39.39
			c76.75-69.89,170.25-28.45,255.99-38.51c16.36,16.7,43.24,24.05,46.57,52.45c-3.15,6.92-7.94,12.3-14.37,16.34
			c-67.99,36.08-143.89,8.26-214.07,26.82C457.89,643.21,442.66,641.48,429.33,631.01z"/>
		<path class="st6" d="M698.05,585.47c-25.82-1.27-39.96-14.68-42.13-40.52c42.94,8.18,60.43-43.05,99.96-42.85
			c14.64,3.79,21.03,13.83,21.56,28.34C774.22,548,760.91,556.5,747,564.46c-13.25,6.67-27.05,12.26-40.43,18.81
			C703.75,584.04,700.9,584.76,698.05,585.47z"/>
		<path class="st18" d="M770.22,529.57c-4.78-9.16-9.56-18.33-14.34-27.48c-0.1-7.21-0.19-14.43-0.29-21.65
			c23.39-8.2,46.75-5.6,70.1,0.2c6.25-1.61,11.58-0.06,16,4.65c4.19,2.54,8.39,5.08,12.58,7.63
			C837.9,531.83,815.4,556.7,770.22,529.57z"/>
		<path class="st18" d="M287.22,556.09c-0.13-13.85-0.25-27.7-0.37-41.55c21.99,5.17,46.04,6.37,65.47,16.47
			c27.63,14.36,10.7,22.28-8.11,26.35c-7.41,9.82-17.52,14.05-29.57,14.22C303.03,570.78,292.81,567.53,287.22,556.09z"/>
		<path class="st16" d="M314.63,571.57c6.35-12.01,17.62-13.8,29.56-14.22c4.99,8.63,9.98,17.26,14.97,25.86
			C342.58,586.01,325.96,588.95,314.63,571.57z"/>
		<path class="st15" d="M439.26,474.54c12.07-4.53,23.21-4.33,32.33,6.29C459.53,485.36,448.76,483.23,439.26,474.54z"/>
		<path class="st15" d="M499.47,485.33c5.5-7.57,10.33-6.44,14.64,1.15C509.23,486.09,504.35,485.71,499.47,485.33z"/>
		<path class="st12" d="M570.75,491.19c5.11,0.07,10.23,0.14,15.34,0.21C580.88,498,575.77,498.22,570.75,491.19z"/>
		<path class="st15" d="M684.45,481.08c6.97-1.02,13.94-2.05,20.92-3.06C698.41,479.05,691.43,480.07,684.45,481.08z"/>
		<path class="st12" d="M655.75,487.89c-3.75,7.15-7.89,8.46-12.62,0.84c0,0-3.03-1.89-3.03-1.89l1.2-3.37
			c5.27-1.16,10.6-1.47,15.97-0.93l1.43,3.3L655.75,487.89z"/>
		<path class="st22" d="M337.14,1214.45l-5.61,0.54c-25.73-20.87-56.83-3.61-84.35-11.89c-31.63-8.99-68.62-1.57-93.69-30.69
			c-8.63-21.34-1.13-37.59,15.97-50.85c10.65-5.27,21.95-6.63,33.63-5.44c51.46,5.83,101.91,19.59,154.12,20.52
			c15.67,0.26,31.04,2.38,46.22,6.25c30.78,8.66,63.1,13.29,91.92,26.65c17.99,8.34,64.94,15.76,32.94,49.42
			C468.19,1216.96,396.99,1224.76,337.14,1214.45z"/>
		<path class="st23" d="M668.79,1211.29c-4.82-0.85-9.08,0.33-12.79,3.52c-4.7,0.72-9.4,1.43-14.1,2.15
			c-4.44,0.23-8.81,0.9-13.11,2.01c-14.53-0.6-29.07-1.19-43.6-1.79c-18.95-40.32-60.47-36.3-94.01-48.29
			c-26.55-9.49-62.58-5.88-68.24-46.49c1.55-4.6,3.15-9.85,6.92-11.85c69.23-36.59,211.86,10.64,245.21,80.88
			C676.95,1199.28,674.82,1205.91,668.79,1211.29z"/>
		<path class="st24" d="M428.24,1128.78c42.95,26.73,92.02,36.86,140.39,39.6c57.66,3.27,33.63,25.04,16.56,48.78
			c-12.35,10.34-26.78,5.89-40.61,5.75c-6.96-0.76-11.95-4.29-14.99-10.6c-29.57-49.49-94.63-21.22-129.5-59.1
			c-6.92-10.89-6.5-21,4.67-28.48C413.26,1119.05,421.33,1122,428.24,1128.78z"/>
		<path class="st24" d="M159.94,1168.85c27.72,9.63,55.44,19.27,83.16,28.9c0,0-2.11,6.74-2.09,6.76c-4.32,2.14-8.9,3.04-13.73,2.72
			c-60.09-5.22-118.95-14.65-170.25-49.87c1.47-15.41-4.42-32.18,8.39-45.51C124.28,1085.5,130.3,1146.77,159.94,1168.85z"/>
		<path class="st1" d="M529.59,1212.32c4.99,3.54,9.98,7.08,14.98,10.61c-69.4,4.13-139.05,14.41-207.39-8.47
			C401.29,1213.74,465.44,1213.03,529.59,1212.32z"/>
		<path class="st4" d="M243.1,1197.76c29.53,5.33,63.18-10.44,88.4,17.22c-29.05-1.23-58.14-2.47-87.22-3.72
			c-3.58-2.75-4.92-5.67-4.02-8.76c0.92-3.17,1.93-4.75,3.03-4.75L243.1,1197.76z"/>
		<path class="st22" d="M243.29,1197.75c0.11,4.52,0.43,9.02,0.99,13.51c-5.65-1.34-11.31-2.67-16.98-4.01
			C232.62,1204.07,237.95,1200.91,243.29,1197.75z"/>
		<path class="st16" d="M628.79,1218.97c3.96-3.33,8.33-4,13.11-2.01C637.53,1217.63,633.16,1218.3,628.79,1218.97z"/>
		<path class="st25" d="M201.69,1120.99c-8.72,3.06-17.44,6.12-26.16,9.18c-44.72-1.96-74.02-29.53-101.05-60.86
			c1.06-9.18,2.12-18.36,3.18-27.55c28.54-46.71,73.96-41.73,120.3-44.59c63.12-3.89,132.21,25.4,188.32-27.51
			c53.07,3.31,100.21,34.62,154.4,32.61c19.45-4.24,39.17-3.26,58.85-3c9.79,0.29,19.34,1.66,28.17,6.25
			c15.24,11.21,30.91,21.66,49.92,25.72c22.7,6.43,46.33,7.77,69.24,13.09c27.9,8.7,59.89,2.96,84.27,23.94
			c9.19,15.44,6.29,29.7-4.19,43.21c-6.28,8.88-12.56,17.77-18.84,26.65c3.29,2.44,6.58,4.88,9.87,7.33
			c-3.77,1.6-7.54,3.2-11.31,4.81c-1.31-3.1-3.64-4.53-7.03-4.36c-13.57,5.74-27.09,11.52-40.62,17.31
			c-64.62-34.38-138.07-41.14-205.99-65.76c-64.07-23.23-130.02,5.69-195.29,2.56C304.55,1098.44,253.23,1110.56,201.69,1120.99z"/>
		<path class="st13" d="M826.54,1075.67c-26.74-12.81-61.04,2.54-84.44-22.7c4.7-91.55,4.7-91.55,94.52-118.41
			c37.99,4.41,54.02-42.85,91.76-39.2c9.5,4.95,15.86,12.61,19.8,22.48c4.99,24.01-3.94,41.3-25.36,52.53
			c-9.89,1.11-23.43,7.59-19.54,15.04c22.68,43.38-4.03,70.25-29.13,98.34C857.77,1084.11,841.35,1084.65,826.54,1075.67z"/>
		<path class="st15" d="M922.83,970.38c7.37-17.37,14.75-34.74,22.12-52.11c-1.14-2.61-2.28-5.22-3.37-7.86
			c1.18-5.74,3.42-10.97,6.85-15.74c1.95-2.18,3.97-4.27,5.92-6.47c4.43-3.93,9.43-6.93,14.9-9.15c6.16-1.05,11.19,0.89,15.07,5.8
			c33.66,4.13,37.02,31.09,42.49,56.44c5.62,5.87,6.27,12.24,1.94,19.13c-19.16,23.67-40.32,41.42-73.08,24.53
			C944.72,980.1,933.77,975.24,922.83,970.38z"/>
		<path class="st13" d="M955.67,984.97c22.84-10.28,45.67-20.57,68.51-30.85c7.39-4.95,14.31-4.35,20.74,1.8
			c-8.95,39.95-38.33,52.34-74.66,55.34C965.4,1002.48,960.53,993.72,955.67,984.97z"/>
		<path class="st21" d="M826.54,1075.67c17.19-5.07,35.08-14.27,47.61,8.1c-15.74,9.24-31.48,18.48-47.22,27.72
			C826.81,1099.54,826.68,1087.61,826.54,1075.67z"/>
		<path class="st13" d="M806.65,1150.27c-3.74-4.55-3.26-8.59,1.45-12.12c2.93,3.68,5.87,7.37,8.81,11.06
			C813.49,1149.56,810.07,1149.91,806.65,1150.27z"/>
		<path class="st6" d="M1081.3,777.31c1.2,7.71,2.41,15.43,3.62,23.15c-40.57,13.47-66.36,47.95-100.42,70.67
			c-17.09,7.24-26.42-2.25-33.92-15.73c1.14-49.6,31.36-77.14,72.9-96.18c14.22-3.53,28.21-3.56,41.68,3.09
			c7.04,1.58,12.93,5.16,17.83,10.42L1081.3,777.31z"/>
		<path class="st12" d="M955.84,856.25c9.55,4.96,19.11,9.92,28.66,14.88c-0.22,4.58-0.28,9.16-0.18,13.74
			c-3.22,0.92-6.48,1.67-9.77,2.26c-8.5,1.52-15.15,5.11-16.41,14.7l-0.01,1.43c-6.37,1.1-12.65,0.69-18.83-1.24
			c-4.39-4.81-7.36-10.4-9.16-16.66C932.02,869.78,929.89,850.59,955.84,856.25z"/>
		<path class="st7" d="M1044.92,955.91c-6.9-0.59-13.81-1.18-20.73-1.78c0.73-4.3,1.6-8.56,2.61-12.81
			c9.34-4.67,18.67-9.32,28.01-13.98l0.49,0.48C1051.84,937.18,1048.38,946.54,1044.92,955.91z"/>
		<path class="st7" d="M1054.81,927.33c1.21-1.99,2.42-3.97,3.64-5.96c-1.05,2.15-2.1,4.29-3.15,6.44
			C1055.29,927.82,1054.81,927.33,1054.81,927.33z"/>
		<path class="st7" d="M72.87,914.85c42.76,5.01,87.69-15.06,128.61,11.16c-47.63,7.8-95.26,15.6-142.89,23.42
			c-0.3-5.89-0.6-11.79-0.91-17.68c0.65-4.8,1.31-9.6,1.98-14.38C64.04,916.41,68.44,915.57,72.87,914.85z"/>
		<path class="st21" d="M955.84,856.25c-9.65,12.06-19.31,24.12-28.96,36.18c1.62,3.64,3.25,7.27,4.87,10.91
			c-2.45-3.14-4.9-6.28-7.35-9.42c-29.64,11.31-29.85,75.06-82.1,46.09c-57.11-9.49-98.79-39.42-122.88-92.72
			c-1.24-14,4.28-25.44,13.59-35.4c9.08-8.43,20.1-13.87,30.93-19.56c7.55-4.3,15.2-8.52,22.49-13.35
			c4.47-3.77,9.07-7.32,13.56-11.09c4.22-4.3,8.62-8.3,12.97-12.42c22.52-20.9,42.52-44.04,61.99-67.68
			c4.51-4.19,9.8-6.79,15.91-7.71c8.02,1.09,15.87,4.38,24.07,1.94c13.86,0.59,0.03-9.55,4.68-12.57
			c4.3-9.98,8.35-20.45,22.58-12.67c44.76,10.17,21.14,46.46,27.26,71.38c-9.32,10.73-12.92,24.79-20.95,35.89
			c0.13-0.31-5.8-0.86-5.8-0.86s6.06-0.68,6.25-1.01c9.55-9.94,11.96-23.83,20.8-33.76c39.57,0.09,61.84-39.85,99.94-43.17
			c0.58,18.53,1.15,37.07,1.72,55.6c-11.24,15.36-32.93,15.01-44.6,29.72C990.25,788.44,970.06,819.87,955.84,856.25z"/>
		<path class="st5" d="M1040.93,585.81c-61.92-4.2-83.34-49.21-99.87-99.14c10.02-17.12,26.76-14.24,42.52-14.28
			C987.06,518.11,1055.96,530.73,1040.93,585.81z"/>
		<path class="st25" d="M1026.8,770.57c0.93-30.81,24.57-27.51,44.58-29.7c1.41,4.18,1.84,8.48,1.33,12.87
			c2.58,5.96,1.34,10.98-3.72,15.06C1054.93,769.38,1040.87,769.97,1026.8,770.57z"/>
		<path class="st21" d="M1069,768.79c1.22-5.01,2.43-10.01,3.68-15.04c3.46,6.31,6.88,12.64,10.3,18.97
			C1078.33,771.42,1073.66,770.1,1069,768.79z"/>
		<path class="st4" d="M322.09,615.41c-2.03,12.1-10.88,17.25-21.23,20.87c-11.58-10.05-10-23.03-8.01-36.09
			C305.55,599.57,316.44,602.45,322.09,615.41z"/>
		<path class="st8" d="M74.47,1069.31c37.36,14.17,72.53,31.97,101.05,60.85c-6.96,12.19-19.52,22.12-15.58,38.69
			c-45.31,3.91-45.87-66.4-94.51-57C68.44,1097.67,71.46,1083.49,74.47,1069.31z"/>
		<path class="st26" d="M357.85,1084.01c86.11-4.24,169.12-27.4,258.1,14.93c45.86,21.81,105.55,17.73,143.05,64.28
			c-6.2,6.82-12.4,13.63-18.6,20.44c-3.78-0.36-6.46,1.17-8.05,4.62c-6.45,2.66-12.9,5.33-19.35,7.99
			c-11.67,14.47-25.42,8.81-39.08,4.05c-63.04-69.63-172.98-101.66-245.67-71.55c-16.8-0.36-28.31,5.34-28.15,24.47
			c-13.47-1.55-26.94-3.08-40.42-4.62C336.57,1127.71,341.11,1106.03,357.85,1084.01z"/>
		<path class="st13" d="M673.92,1200.32c13.02-1.35,26.05-2.7,39.07-4.05c0.03,5.26,0.05,10.53,0.07,15.79
			c-14.76-0.26-29.51-0.51-44.26-0.77C670.78,1207.76,672.48,1204.1,673.92,1200.32z"/>
		<path class="st16" d="M884.12,685.71c-12.27,37.78-36.97,65.25-70.65,85.28c-4.79,4.66-9.58,9.31-15.45,12.65l-0.79,0.53
			c-6.18,9.71-20.84,6.79-26.25,17.64c-8.03,5.38-16.05,10.77-24.08,16.15c-15.93,1.66-29.04,6.07-25.84,26.43
			c40.42,31.87,80.83,63.74,121.25,95.61c-34.2,19.51-55.11,43.09-100.19,112.96c-24.91,3.11-48.14-2.42-70.27-13.64
			c-13.86-4.91-22.49-13.94-23.23-29.25c-5.74-65.9,11.12-131.02,7.15-196.92c3.43-0.57,6.88-0.83,10.36-0.77
			c15.4-13.15,26.9-29.92,41.02-44.29c4.11-4.2,8.62-7.92,13.34-11.38c17.43-11.19,30.05-26.85,40.84-44.2
			c10.25-14.55,23.73-25.7,37.79-36.21c6.41-5.7,12.33-11.87,17.54-18.79c1.66-2.47,3.45-4.75,5.14-7.21
			c1.81-2.42,3.73-4.67,5.54-7.07c16.92-17.84,32.48-37.16,54.43-49.45c9.25-3.48,18.51-3.6,27.75,0.02
			c5.39,3.54,9.16,8.39,11.36,14.43c1.17,6.1,1.14,12.25,0.08,18.37c-3.19,11.61-8.56,22.35-14.08,33.02
			C901.58,670.29,892.3,677.52,884.12,685.71z"/>
		<path class="st19" d="M559.33,754c-26.23-19.63-52.47-39.27-78.7-58.9c-8.5-24.77,1.97-43.42,19.25-59.91
			c62.41-26.48,122.45-10.14,182.34,10.18c23.24,13.38,42.13,31.03,54.05,55.47c4.7,14.55,4.45,28.67-3.99,41.95
			c-24.9,18.95-44.1-6.3-66.25-8.52c-32.11-7.54-59.55,3.39-85.17,21.58C573.69,755.24,566.51,754.62,559.33,754z"/>
		<path class="st6" d="M655.76,813.16c40.74,66.42,5.96,133.14,0.77,199.74c-10.38,9.64-22.9,12-36.49,10.71
			c-6.56-3.64-13.11-7.28-19.67-10.92c-10.23-16.34,6.05-20.34,13.28-28.56c-9.32-50.48,26.61-97.93,7.12-150.79
			C612.73,811.48,641.35,816.19,655.76,813.16z"/>
		<path class="st23" d="M580.87,755.85c2.11-76.27,56.61-33.14,89.5-39.28c23.86,40.63,25.74,71.54-33.36,75.48
			c-8.43,0.55-16.24-1.43-23.41-5.91C602.68,776.05,591.77,765.95,580.87,755.85z"/>
		<path class="st12" d="M627.59,790.45c52.4-2.57,55.03-33.93,42.76-73.89c22.62-3.2,30.78,22.31,50.26,25.29
			c7.04-3.95,11.37-1.96,12.99,5.9c-0.57,11.36-9.57,16.17-17.28,22c-4.63,28.38-18.99,45.34-50.13,42.66
			c-9.11-16.5-25.83-9.64-39.24-12.85C627.15,796.52,627.37,793.48,627.59,790.45z"/>
		<path class="st16" d="M613.66,984.13c-4.43,9.52-8.87,19.04-13.29,28.56c-21.83,7.6-40.9-0.67-59.7-10.42
			c0.93-6.14,1.86-12.28,2.79-18.43C566.87,983.93,590.27,984.03,613.66,984.13z"/>
		<path class="st6" d="M627.59,790.45c-0.29,3.03-0.5,6.07-0.64,9.11c-4.46-4.47-8.9-8.94-13.35-13.41
			C618.25,787.58,622.92,789.01,627.59,790.45z"/>
		<path class="st23" d="M501.2,644.36c-6.85,16.91-13.71,33.81-20.57,50.73c-12.52,6.3-25.01,10.27-37.31-0.45
			c-1.08-5.94-2.17-11.88-3.25-17.81c-3.59-15.29-7.19-30.58-10.76-45.85c13.57-1.08,27.13-2.2,40.69-3.31
			C482.62,629.08,495.04,630.87,501.2,644.36z"/>
		<path class="st12" d="M770.22,529.57c36.48,7.19,59.15-17.28,84.06-36.65c0.01,0-1.43,0.34-1.43,0.34
			c3.34,7.71,5.94,17.05,16.97,7.62c14.72,14.36,29.45,28.72,44.17,43.08c3.6,7.22,2.43,13.55-3.47,19.03
			c-53.85,14.65-106.92,33.01-163.38,36.07c-6.87-1.54-13.15-4.47-18.81-8.67c-10.62-17.15,2.81-24.62,13.42-33.24
			C751.24,547.96,760.73,538.76,770.22,529.57z"/>
		<path class="st21" d="M911.38,556.33c0.65-4.17,1.52-8.3,2.61-12.38c32.92,4.26,38.06,36.05,55.31,55.82
			c3.42,3.22,4.57,6.46,3.46,9.71c-1.11,3.26-2.23,4.89-3.36,4.89c-8.99,0.05-17.97,0.1-26.96,0.15c-7.49,8.24-15.26,7.59-23.21,0.7
			c-1.84-5.11-3.68-10.21-5.53-15.32C900.55,586.05,901.55,571.42,911.38,556.33z"/>
		<path class="st25" d="M919.23,615.23c7.73-0.24,15.45-0.47,23.19-0.71c-0.08,14.09-0.17,28.18-0.25,42.26
			c-12.07,5.9-15,16.69-15.36,28.84l0.11-0.13c-10.16,2.12-21.26,15.44-29.74-2.5c-3.75-5.1-3.97-10.24-0.17-15.41
			c12.52-10.59,5.66-27.77,13.52-39.95C913.44,623.5,916.33,619.37,919.23,615.23z"/>
		<path class="st15" d="M657.27,482.53c-5.33,0.31-10.65,0.62-15.98,0.93C646.25,476.85,651.55,476.07,657.27,482.53z"/>
		<path class="st5" d="M969.39,614.38c-0.03-4.86-0.06-9.73-0.1-14.6C978.9,604.58,979.61,609.44,969.39,614.38z"/>
		<path class="st7" d="M841.7,485.29c-5.34-1.55-10.68-3.11-16.01-4.66C831.04,482.19,836.37,483.74,841.7,485.29z"/>
		<path class="st6" d="M869.82,500.88c-12.62,13.08-13.54-0.03-16.96-7.59C858.51,495.8,864.16,498.34,869.82,500.88z"/>
		<path class="st7" d="M911.38,556.33c8.03,14.14,9.95,28.6,2.33,43.58c-9.7,0.12-19.4,0.24-29.11,0.35
			c-22.51,10.83-42.77,25.28-63.24,39.51c-47.09,13.75-94.41,25.56-144.12,17.31c-58.35-8.71-114.75-44.32-176.03-12.75
			c-10.4-5.54-20.79-11.1-31.2-16.67c73.5-32.01,154.61-0.84,228.76-27.53c10.72-1.7,18.89-10.1,29.8-11.3
			C791.01,586.47,846.84,546.91,911.38,556.33z"/>
		<path class="st13" d="M728.57,588.84c-4.37,18.42-10.49,32.24-29.79,11.3c-0.23-4.89-0.47-9.78-0.71-14.67
			c-0.01,0,0.68-0.58,0.68-0.58c9.75-7.37,19.51-7.99,29.28-0.04L728.57,588.84z"/>
		<path class="st16" d="M728.03,584.86c-9.76,0.02-19.52,0.04-29.28,0.05c2.17-28.11,22.83-27.55,43-27.76
			C737.18,566.39,732.6,575.62,728.03,584.86z"/>
		<path class="st23" d="M357.85,1084.01c0.6,21.55,1.21,43.1,1.82,64.63c-55.19,5.28-110.08,8.82-157.99-27.61
			C244.91,1071.35,303.69,1087.46,357.85,1084.01z"/>
		<path class="st1" d="M620.05,1023.61c12.16-3.57,24.32-7.14,36.48-10.71c5.1,8.81,10.2,17.62,15.31,26.44
			C650.92,1046.15,632.73,1043.95,620.05,1023.61z"/>
		<path class="st12" d="M924.4,893.91c0,0,2.55-1.49,2.52-1.49c5.09,2.61,10.22,5.22,15.35,7.82c3.16,4.88,4.11,10.2,3.15,15.9
			c0,0-0.49,2.08-0.48,2.1C938.1,910.15,931.25,902.03,924.4,893.91z"/>
		<path class="st13" d="M945.41,916.15c-1.06-5.31-2.12-10.62-3.16-15.92c5.29,1,10.57,1.99,15.87,3
			C953.89,907.56,949.65,911.86,945.41,916.15z"/>
		<path class="st13" d="M958.14,901.84c5.45-4.9,10.91-9.8,16.38-14.7C969.08,892.03,963.61,896.93,958.14,901.84z"/>
		<path class="st20" d="M941.11,770.98c-2.04,14.33-5.49,28.22-24.28,25.16c-4.4-0.72-11.79-10.11-10.76-12.77
			c6.47-16.65,22.4-10.53,35.05-12.38L941.11,770.98z"/>
		<path class="st20" d="M969.75,728.42c0.36,20.85,0.35,41.45-28.63,42.56c0,0,0.01,0.01,0.01,0.01
			c-0.06-20.56,9.17-34.98,28.33-42.82C969.45,728.16,969.75,728.42,969.75,728.42z"/>
		<path class="st7" d="M721.05,844.39c-9.78-2.4-16.17-8.38-9.18-17.54c8.56-11.21,21.44-13.32,35.01-8.89
			C738.28,826.78,729.67,835.59,721.05,844.39z"/>
		<path class="st13" d="M896.9,668.11c0.1,4.96,0.19,9.93,0.29,14.89c-4.24,1.46-8.6,2.37-13.07,2.71
			c2.95-10.25,5.9-20.5,8.85-30.75C903.26,656.66,904.57,661.05,896.9,668.11z"/>
		<path class="st25" d="M926.81,685.62c6.1,1.72,12.19,3.44,18.29,5.16c-10.36,13.01-13.17,0.08-18.17-5.29
			C926.93,685.49,926.81,685.62,926.81,685.62z"/>
		<path class="st13" d="M770.97,801.82c3.54-13.63,13.53-17.67,26.25-17.64C792.81,796.5,783.3,801.26,770.97,801.82z"/>
		<path class="st13" d="M798.02,783.65c5.15-4.22,10.29-8.43,15.44-12.65C812.1,779.84,806.8,783.87,798.02,783.65z"/>
		<path class="st26" d="M677.24,657.09c44.71-34.53,104.29-13.27,151-40.27c8.44,13.4,7.75,25.99-3.31,37.68l-0.76,0.77
			c-1.74,7.08-4.33,13.93-5.61,21.14c-3.54,3.57-7.86,5.43-12.84,5.82c-10.88,12.01-21.76,24.01-32.64,36.02
			c-20.68,4.3-35.86-10.94-54.12-15.24C705.05,687.69,691.15,672.39,677.24,657.09z"/>
		<path class="st21" d="M718.96,702.99c20.25-2.75,40.59-5.83,54.12,15.25c-13.86,23.67-25.08,50.31-58.47,52.05
			c0,0,2.51-2.13,2.51-2.13c1.16-8.77,2.32-17.54,3.49-26.31C720.06,728.89,719.51,715.94,718.96,702.99z"/>
		<path class="st4" d="M824.93,654.49c1.1-12.54,2.2-25.08,3.3-37.65c12.38-27.39,36.07-16.21,56.36-16.58
			C868.4,622.41,856.34,649.09,824.93,654.49z"/>
		<path class="st7" d="M896.9,668.11c-0.96-4.48-2.25-8.86-3.91-13.15c5.83-9.11,11.69-18.21,17.55-27.32
			C914.4,643.97,909.47,657.32,896.9,668.11z"/>
		<path class="st13" d="M805.72,682.21c1.82-4.29,3.63-8.57,5.45-12.86c4.78-2.26,9.56-2.15,14.33,0.01
			C818.91,673.64,812.31,677.93,805.72,682.21z"/>
		<path class="st4" d="M825.5,669.36c-4.78,0-9.55,0-14.33-0.01c4.34-4.7,8.67-9.4,13.01-14.09
			C824.61,659.96,825.06,664.66,825.5,669.36z"/>
		<path class="st19" d="M717.11,768.16c0,0-2.48,2.07-2.5,2.1c-0.02,0.03,1.71-0.59,1.7-0.55
			C716.31,769.74,717.11,768.16,717.11,768.16z"/>
		<path class="st25" d="M616.49,744.22c2.96-2.51,5.73-4.85,8.5-7.19c3.29,4.67,6.59,9.34,9.88,14.01c-3.93,1.12-8.49,4-11.6,2.87
			C620.23,752.79,618.68,747.6,616.49,744.22z"/>
	</g>
</g>
</svg>
