<?xml version="1.0" encoding="utf-8"?>
<!-- Generator: Adobe Illustrator 23.1.0, SVG Export Plug-In . SVG Version: 6.00 Build 0)  -->
<svg version="1.1" id="Calque_1" xmlns="http://www.w3.org/2000/svg" xmlns:xlink="http://www.w3.org/1999/xlink" x="0px" y="0px"
	 viewBox="0 0 890.69 1080" style="enable-background:new 0 0 890.69 1080;" xml:space="preserve">
<style type="text/css">
	.st0{fill:#FDFBE0;}
	.st1{fill:#FBE4C3;}
	.st2{fill:#FDFDE7;}
	.st3{fill:#CA9C6C;}
	.st4{fill:#D0AEA0;}
	.st5{fill:#CFA16C;}
	.st6{fill:#EECFA3;}
	.st7{fill:#FEF3D5;}
	.st8{fill:#DAB891;}
	.st9{fill:#F4EFEC;}
	.st10{fill:#B06F39;}
	.st11{fill:#C59C87;}
	.st12{fill:#F2D3C1;}
	.st13{fill:#DDB685;}
	.st14{fill:#FBF840;}
	.st15{fill:#E5BF8F;}
	.st16{fill:#C48A51;}
	.st17{fill:#FAE9DC;}
	.st18{fill:#F0D5B1;}
	.st19{fill:#E3C2B2;}
	.st20{fill:#B17F66;}
	.st21{fill:#E9CCBD;}
	.st22{fill:#FCE9CC;}
	.st23{fill:#D2AA82;}
	.st24{fill:#DCB9A6;}
	.st25{fill:#8B8B8B;}
	.st26{fill:#B88A75;}
	.st27{fill:#464544;}
	.st28{fill:#1BD8D3;}
</style>
<g>
	<g>
		<path class="st0" d="M47.77,361.11c11.22-32.71,36.68-74.71,58.4-96.32c46.47,71.73,63.99,75.98,145.34,34.16
			c19.63-10.09,41.23-16.91,58.43-31.09c40.97-33.79,37.57-71.96-8.28-97.55c-9.67-5.4-20.48-8.8-23.88-21.1
			c7.25-20.71,26.94-7.97,40.27-13.69c22.78-9.77,48.31-18.2,74.81-15.08c6.17-5.31,13.26-6.7,21.08-5.08
			c63.36,44.91,72.01,114.71,20.5,168.56c-13.14,13.74-25.07,28.53-38.08,42.39c-4.09,3.13-8.57,5.54-13.34,7.42
			c-14.25,2.85-27.14,9.19-38.53,17.86c-67.8,51.62-147.75,48.63-226.24,50.64C87.83,402.98,63.73,387.94,47.77,361.11z"/>
		<path class="st1" d="M9.99,505.88c3.06-25.69-6.76-53.16,10.41-76.91c40.8-9.86,82.4-0.38,124.56-8.96
			c41.55-8.46,83.18-16.99,124.37-27.4c26.15,6.29,50.36,1.41,72.16-14.2c45.15-32.32,110.05-40.28,128.43-105.6
			c1.92-3.9,4.43-7.41,7.35-10.61c8.17-6.6,17.91-11.07,25.37-18.75c3.1-2.98,6.43-5.64,9.86-8.2
			c28.93-18.47,45.79-40.91,27.68-76.99c-3.48-6.93,0.35-15.13,6.5-20.9c16.3-2.56,31.43,3.02,46.87,6.63
			c11.54,7.69,24.02,14.16,33.3,24.98c8.07,75.09-14.57,132.44-87.66,165.08c-33.2,14.83-67.46,26.84-100.27,42.32
			c-9.93,4.66-20.16,8.69-30.23,13.05c-10.1,3.9-17.82,11.12-25.3,18.71c-27.58,24.03-56,46.36-94.95,47.12
			c-27.06-6.03-53.28-6.76-76.44,12.26C168.91,500.7,126.2,534.22,68,535.26C42.91,535.71,19.6,535.24,9.99,505.88z"/>
		<path class="st2" d="M277.78,149.19c6.72,3.36,13.95,10.35,20.08,9.47c32.74-4.66,43.4,19.18,53.74,41.64
			c5.65,12.27,6.3,25.23-3.72,39.21c-24.58,34.3-24.09,33.96-66.98,57.95c-23.6,13.2-51.08,19.7-70.54,40.56
			c-4.49,4.81-83.75-6.64-86.87-12.7c-9.72-18.88-18.51-38.34-17.32-60.53C149.32,205.07,211,173.29,277.78,149.19z"/>
		<path class="st3" d="M890.32,603.79c-4.43,34.25-50.5,54.85-76.5,64.93c-9.1,3.53-18.34,9.22-28.53,10.8
			c-29.28,24.94-64.29,24.42-99.54,22.92c-10.23-0.19-20.49-0.29-30.67-1.54c-9.76-1.32-18.83-4.73-27.32-9.68
			c-25.88-14.23-57.47-14.54-81.51-33.47c-9.79-6.64-17.93-14.96-24.85-24.56c-6.24-14.29-24.4-25.76-10.74-44.91
			c11.06-6.93,23.34-7.47,35.83-7.05c7.43,0.32,14.73,1.54,21.92,3.37c66.28,7.51,127.79,46.59,197.61,30.14
			c11.01-3.75,20.09-11.17,30.36-16.42c4.65-1.27,9.36-1.66,14.15-1.5C831.23,601.18,873,586,890.32,603.79z"/>
		<path class="st4" d="M440.27,988.16c-0.53,27.95-0.6,27.17-21.51,28.9c-24.28,2.01-49.74-6.4-72.83,8.93
			c-3.68,2.44-12.28,2.64-17.56-2.67c-11.85-11.92-27.05-3.74-40.4-6.74c-3.35-3.69-5.66-7.96-6.97-12.79
			c5.32-60.85,22.74-113.79,87.57-135.64c18.29-8.39,39.43-9.21,56.3-21.49c5.6-3.8,11.45-7.14,17.5-10.14
			c23.7-6.76,41.22-29.8,68.71-26.66c10,3.93,13.39,11.89,13.2,22.02c-3.82,19.66-20.23,27.69-34.67,37.05
			C424.14,911.34,423.4,912.77,440.27,988.16z"/>
		<path class="st5" d="M632.48,1055.35c-33.93,5.48-61.95-9.27-88.73-27.13c-7.56-5.04-12.44-13.6-23.82-11.64
			c-10.74,1.85-10.41-6.26-12.42-14.43c-4.24-17.24-7.92-36-28.05-43.23c-3.19-4.51-2.98-8.85,0.6-13.04
			c11.28-9.45,24.87-13.97,38.77-17.09c21.61-4.85,24.07,8.07,21.47,24.91c-4.76,6.2-8.25,12.97-9.82,20.81
			c-0.92,4.59-3.59,8.6-5.68,12.77c2.71-2.43,3.44-5.98,4.92-9.08c2.66-5.59,2.3-12.26,5.99-17.52
			c10.25-11.39,3.99-25.01,4.97-37.67c3.86-12.81,12.07-22.92,20.19-33.1c15.73-13.37,33.17-25.01,43.79-43.64
			c10.6-17.99,29.8-29.96,35.13-51.57c1.62-6.14,3.84-12.03,7.29-17.4c2.89-3.2,6.42-5.38,10.5-6.67
			c13.15-0.02,27.91-17.73,39.29,3.45c8.15,29.65-17.21,46.6-25.98,69.84c-8.83,21.62-20.47,42.4-19.72,66.89
			c-9.45,11.92-0.94,27.06-6.96,39.59c-2.44,2.06-5.28,3.23-8.08,4.5c-15.82,7.19-42.55-14.84-48.2,11.28
			c-4.56,21.09,10.13,41.86,29.46,55.26c6.41,4.44,13.37,8.14,18.18,14.63C638.28,1043.12,637.81,1049.64,632.48,1055.35z"/>
		<path class="st6" d="M9.99,505.88c23.05,14.98,45.59,33.89,73.74,9.75c48.56,10.58,75.25-25.66,106.51-51.31
			c7.01-5.75,13.51-6.57,21.27-6.42c18.61-5.33,29.51,6.48,40.38,18.39c2.94,21.33-17.38,29.93-24.6,45.75
			c-8.86,11.33-21.8,15.71-34.42,20.66c-26.4,6.87-46.57,22.28-67.43,40.29c-31.92,27.56-69.05,49.28-114.18,48.3
			c3.18-36.28-16.05-70.4-10.11-107C2.31,517.11-1.74,507.77,9.99,505.88z"/>
		<path class="st7" d="M278.47,400.08c-18.12,1.72-36.43,6.69-49.71,17.86c-11.05,9.3-21.09,11.59-33.84,11.11
			c-35.3-1.34-69.86-0.73-102.66,16.98c-11.26,6.08-27.87,7.5-37.91-6.93c-8.93-12.85-21.8-9.7-33.97-10.13
			c5.85-23.96,8.52-49.22,27.38-67.86c7.56,0.77,15.82-1.32,21.47,6.45c25.5,35.04,60.8,25.61,93.43,17.8
			c17.23-4.12,32.61-7.67,48.64,0.26c15.18,7.51,27.48,5.74,43-2.89c33.96-18.88,71.56-31.06,102.21-56.21
			c8.37-6.87,18.14-2.15,27.16-3.54c4.05,25.91-14.49,37.49-32.6,45.35C326.87,378.83,306.54,398.69,278.47,400.08z"/>
		<path class="st8" d="M688.95,207.39c0.73,7.79,1.02,15.02,7.61,21.46c35.53,34.77,60.73,76.95,82.46,121.25
			c12.25,24.97,27.7,47.56,45.08,68.98c1.88,20.2,12.64,40.38,0.1,60.62c-28.15,4.97-56.44,0.11-85.3,12.63
			c-24.55,10.65-53.53,2.46-55.45-35.65c1.46-4.52,4.1-8.18,8.02-10.87c23.2,5.11,43.53,0.73,58.16-19.5
			c15.06-20.82-3.93-34.95-10.24-51.96c-13.56-36.53-19.94-76.45-63.89-93.18c-12.18-4.64-14.66-23.59-15.88-38.33
			c-0.47-12.61,0.64-24.79,8.96-35.1C675.28,202.3,682.07,201.82,688.95,207.39z"/>
		<path class="st9" d="M594.1,149.51c-16.64,0.34-33.51,1.84-47.8-9.65c-8.13,7.79-15.46,4.53-22.59-1.57
			c-7.29-8.62-11.33-21.15-25.51-21.64c-7.9-1.25-14.88-4.55-21.21-9.37c-4.59-3.47-8.89-7.3-13.2-11.05
			c-5.29-4.39-10.63-8.81-14.06-14.83c-4.81-7.94-2.32,2.24-4.14,2.05c-11.06,14.83-21.66,30.59-43.56,17.57
			c4.71-12.52-8.58-29.71,9.89-38.65c10.27-13.14,24.9-20.25,38.74-28.45c3.76-2.5,7.33-5.4,11.33-7.41
			c8.89-4.46,4.51-19.88,15.99-20.91c15.28-1.37,21.86,12.98,27.5,22.38c17.34,28.87,38.14,55.44,54.98,84.31
			c11.6,19.89,18.31,20.4,38.85,11.09c17.85-8.09,38.95-19.87,61.54-11.63C655.18,142.97,647.86,147.11,594.1,149.51z"/>
		<path class="st10" d="M479.39,949.39c-0.08,3.18-0.06,6.35,0.07,9.53c-17.33,3.95-21.49,25.81-39.19,29.24
			c-25.33-9.61-17.63-35.88-26.68-53.7c13.62-20.17,9.7-51.73,40.78-60.76c24.54-7.13,45.01-22.01,63.26-39.87
			c8.24-14.82,19.65-21.26,36.25-13.95c3.84,3.01,6.31,6.97,7.61,11.67c-0.09,26.93-16.94,47.22-27.37,70.09
			C520.38,922.75,500.68,937,479.39,949.39z"/>
		<path class="st11" d="M374.14,872.35c-8.55,25.75-37.97,21.91-53.72,37.95c-3.16,3.22-14.38,1.27-12.81,9.05
			c6.57,32.54-13.43,58.54-19.58,87.85c-12.18,10.83-21.04-1.52-31.25-4.52c-15.9,0.53-25.71-7.84-31.64-21.9
			c-3.44-8.41-4.32-17.23-3.83-26.21c1.87-11.97-3.98-19.51-14.07-24.58c-3.53-2.27-6.49-5.16-9.04-8.48
			c-1.03-4.06-3.03-7.6-5.87-10.68c0.07-3.14,0.03-6.29-0.12-9.43c17.57-18.25,42.32-10.48,62.92-17.76
			c9.26-2.27,18.69-3.59,28.1-4.88c27.56-1.79,47.18-32.09,78.03-22.25C368.21,859.61,372.61,864.8,374.14,872.35z"/>
		<path class="st12" d="M259.38,891.67c-0.73,7.38-4.75,9.99-12.06,9.85c-18.36-0.36-36.74-0.11-55.1-0.11l0.19-0.26
			c-2.87-3.57-6.68-6.15-9.8-9.46c-30.16-29.24-47.81-65.39-57.65-105.86c-8.95-10.92-11.68-23.18-7.87-36.86
			c2.67-7.5,7.29-13.18,14.94-15.92c28.57,5.23,53.37,16.08,65.63,45.31c-5.7,22.48,19.41,22.73,26.07,36.36
			c0.81,4.44-0.06,8.5-2.55,12.23c-5.46,5.52-17.68,5.61-17.8,13.52c-0.15,9.67,11.28,8.84,18.46,10.78
			c7.6,2.06,15.44,3.23,22.74,6.59C256.31,866.1,270.8,873.18,259.38,891.67z"/>
		<path class="st13" d="M632.42,1036.18c-20.23,5.62-34.56-5.45-43.25-20.56c-10.29-17.88-17.09-38.04-23.41-57.86
			c-2.85-8.95-0.75-17.18,13.4-18.49c22.19-2.06,42.02,5.69,62.7,10.24c8,19.93,30.57,28.02,38.46,48.05
			c9.92,2.81,16.51,9.08,19.52,19.08C679.95,1032.15,656.72,1036.05,632.42,1036.18z"/>
		<path class="st14" d="M172.6,1026.41l-3.69,0.37l-3.71-0.05c-23.07,13.88-47.85,18.25-72.61,7.41
			c-23.92-10.47-40-26.91-24.62-56.08l-0.23,0.28c8.86-11.2,5.94-32.74,27.95-32.41c21,13.81,41.75,15.87,62.08-1.57
			c33.3,0.39,35.21,23.62,34.91,48.51c-0.55,4.52-1.74,8.92-3.3,13.21C186.02,1014.68,179.16,1020.42,172.6,1026.41z"/>
		<path class="st15" d="M11.26,631.29c15.5-0.43,29.25-5.11,37.32-19.26c8.46-14.84,15.67-28.26,34.33-10.47
			c4.74,4.52,11.3-1.11,15.85-5.88c8.73-9.16,19.7-16.77,26.33-27.23c16.09-25.36,39.15-33.99,67.28-33.47
			c5.64,5.25,7.19,11.87,6.35,19.28c-1.77,7.02-5.94,12.21-12.03,15.88c-25.47,4.82-39.04,23.07-49.47,44.88
			c-3.27,3.04-6.88,5.55-10.76,7.72c-25.95,17.08-55.59,28.41-77.18,52.29c-7.46,8.26-17.29,14.29-28.52,4.46
			C21.68,662.63,5.19,649.22,11.26,631.29z"/>
		<path class="st13" d="M20.76,679.52c16.62,0.98,26.54-6.66,27.97-23.5c0.55-6.48,0.77-15.74,7.53-14.38
			c27,5.44,38.97-15.12,55.33-28.89c2.83-2.38,9.18-0.51,13.91-0.6c13.55,23.46-3.13,38.14-15.37,54.15
			c-21.46,12.7-21.04,36.61-28.36,56.52c-7.32,19.91-14.18,40.34-41.91,24.11C27.9,726.06,27,702.02,20.76,679.52z"/>
		<path class="st16" d="M689.78,766.32c-9.21,0.23-12.61,8.53-18.1,13.67c-7.13,6.67-9.66,4.21-10.6-4.03
			c-8.94-19.4,8-35.53,6.58-54c0.8-12.22,3.68-23.63,12.48-32.73c18.9-0.01,37.86-1,56.67,0.27c17.37,1.17,30.67-15.16,48.48-9.97
			c-8.43,22.12-22.32,40.62-37.94,57.95C730.84,752.53,710.07,758.94,689.78,766.32z"/>
		<path class="st17" d="M67.98,978.06c3.19,37.37,13.21,48.16,45.84,48.69c17.13,0.28,34.26,0.01,51.39-0.02
			c-2.27,9.24-9.02,16.44-13.61,24.04c-22.78,37.68-24.19,37.73-56.8,7.06c-18.56-17.45-39.82-22.64-64.05-22.31
			c-10.86,0.15-14.22-8.75-7.56-15.63C37.35,1005.24,49.03,987.58,67.98,978.06z"/>
		<path class="st5" d="M39.84,746.92c15.02,0.3,31.99,5.04,28.67-21.58c-2.01-16.1,12.37-29.35,10.25-47.84
			c-1.22-10.6,12.96-19.73,27.5-17.24c22.72,32.51-5.48,68.45,6.81,101.67c1.45,7.53,0.62,14.78-2.74,21.69
			c-10.31,14.65-22.3,25.96-42.22,21.2C54.9,787.4,40.21,770.71,39.84,746.92z"/>
		<path class="st16" d="M871.13,476.86c1.66,9.73-1.5,16.83-8.53,24.31c-13.34,14.21-30.84,24.74-39.27,43.45
			c-21.08,20.32-46.08,6.99-69.41,8.34c-7.42-0.21-14.52-1.74-21.1-5.32c-11.93-9-22.67-19.84-17.32-35.94
			c5.66-17.04,22.97-14.22,36.46-16.73c25.63-4.78,54.23,11.71,77.4-10.99C842.3,475.76,855.69,470.13,871.13,476.86z"/>
		<path class="st4" d="M688.95,207.39c-6.11-0.01-12.22-0.02-18.32-0.03c-1.89-0.39-3.78-0.77-5.69-1.12
			c-7.13-3.45-12.84-8.66-17.97-14.63c-4.73-6.4-8.38-13.15-6.17-21.58c2.81-5.09,6.99-8.88,11.59-12.23
			c2.81-2.24,5.75-4.36,8.58-6.54c3.78-3.83,6.68-8.27,8.68-13.34c2.66-11.93,9.58-20.55,20.01-26.45
			c17.26,3.62,23.24-12.94,34.82-19.47c2.14-1.21,5.99,0.1,8.87,0.9c4.54,1.26,2.44,3,1.26,6.77c-7.99,25.47-23.14,48.1-28.44,74.78
			c-1.16,5.83-8.3,11.65-17.1,13.92C669.29,193.48,696.4,200.91,688.95,207.39z"/>
		<path class="st6" d="M872.01,612.48c-18.46-0.07-36.92-0.39-55.37-0.08c-7.33,0.12-11.41-2.43-12.13-9.87
			c-11.56-10.72-19.93-22.78-16.47-39.81c1.36-5.1,4.28-9.05,8.7-11.87c12.19-0.5,24.82-5.01,36.05,3.82l0.13,0.09
			c3.71,2.64,6.5,6.23,9.54,9.55c6.95,17.27,25.98,8.4,38.23,17.62c9.82,7.39,10.74,13.28,9.63,21.86
			C888.87,614.95,879.05,611.45,872.01,612.48z"/>
		<path class="st9" d="M182.49,1006.93c0.13-10.6,0.49-21.2,0.34-31.8c-0.28-18.88-10.41-26.84-28.6-25.42
			c-5.27-6.59-5.86-13.24-0.24-19.96c8.64-18.05,25.05-6.06,37.39-9.82c3.58-3.01,6.94-2.94,10.05,0.73l0.47-0.12
			c7.01,6.31,8.58,14.54,8.3,23.43c-2.92,17.39,10.83,24.61,20.67,34.21c4.91,0.31,9.33,2.86,9.38,7.54
			c0.17,14.74,10.85,11.06,19.05,11.96c2.91,2.41,3.85,4.79,2.82,7.14c-1.01,2.32-2.02,3.49-3.01,3.49
			c-20.69-8.03-37.67,8.44-57.09,8.77C194.05,1016.53,186.71,1014.78,182.49,1006.93z"/>
		<path class="st6" d="M632.42,1036.18c17.04-19.1,17.04-19.09,43.9-19.28c7.84-0.05,15.68-0.18,23.52-0.27
			c6.17,0.22,12.34,0.44,18.51,0.66c5.85,12.08,31.56-6.68,28.77,18.81c-21.42,9.49-42.35,20.73-66.88,19.24
			c-3.21-3.56-6.43-3.38-9.64,0c-12.71,0-25.42,0.01-38.12,0.01C632.46,1048.96,632.44,1042.57,632.42,1036.18z"/>
		<path class="st18" d="M871.13,476.86c-11.07,9.31-24.08,11.14-37.87,9.96c-5.28-1.11-8.46-4.33-9.54-9.66
			c2.51-16.74-13.89-29.07-10.19-46.6c1.52-7.2,3.91-10.54,10.57-11.47c13.36-3.16,23.62,6.57,32.91,11.89
			C887.91,448.68,887.86,438.28,871.13,476.86z"/>
		<path class="st3" d="M689.78,766.32c1.08-5.67,1.82-16.18,3.28-16.28c18.84-1.3,34.43-16.78,54.29-12.57
			c4.08,17.68-11.78,24.71-19.61,35.51c-17.78,24.53-28.32,55.14-56.83,70.95c0.84-10.47-4.87-22.94,6.02-30.56
			C694.67,800.95,688.79,782.87,689.78,766.32z"/>
		<path class="st19" d="M689.65,111.49c-9,11.18-10.54,24.25-9.43,37.98c-5.27,5.5-14.09,3.84-19.2,9.66l0.07-0.07
			c-4.18,4.11-9.59,4.67-14.98,5.27c-5.39,1.5-9.47,5.28-14.06,8.21c-3.9,0.81-6.95-0.53-9.28-3.71
			c-12.89-1.42-32.37,7.07-28.67-19.33c15.21-14.69,33.85-19.97,54.3-19.21c14.81,0.55,12.51-9.53,12.45-18.56
			C670.45,111.66,680.05,111.58,689.65,111.49z"/>
		<path class="st2" d="M153.98,929.76c0.08,6.65,0.16,13.31,0.24,19.96c-7.98,25.9-27.16,34.08-43.76,18.18
			c-5.42-5.2-13.4-9.06-13.8-18.32c-1.97-8.67-0.35-13.67,9.91-9.9C124.16,945.02,137.27,928.65,153.98,929.76z"/>
		<path class="st16" d="M68.11,804.82c14.74-2.28,19.08-25.41,38.03-19.26c3.26-3.52,6.5-3.32,9.72,0.05
			c0.01,16.05,0.03,32.09,0.04,48.14c-9.58,8.64-19.17,6.74-28.77,0.04C71.32,830.45,77.18,812.66,68.11,804.82z"/>
		<path class="st20" d="M680.33,997.55c-7.46,0.62-9.93-8.35-15.47-9.22c-23.76-3.76-23.56-20.98-22.99-38.82
			c-0.03-8.95,0.27-17.91-0.18-26.84c-0.36-7.19,2.57-10.97,9.5-11.85c0.08,10.81,0.7,21.65,0.09,32.41
			c-0.65,11.6,3.89,14.31,15.31,16.66C683.73,963.42,687.8,978.36,680.33,997.55z"/>
		<path class="st17" d="M402.03,101.01c9.65,1.42,17.26-0.8,24.52-8.57c7.04-7.53,12.1-18.31,24.09-20.06l0,0
			c0.6,7.3,4.41,9.84,11.71,9.76c4.79-0.05,7.17,4.33,7.46,9.26c-7.27,13.71-20.11,20.29-33.27,26.49
			c-7.83,2.88-16.04,2.33-24.16,2.7c-6.51-0.06-13.01-0.12-19.52-0.17C394.61,113.32,389.76,103.06,402.03,101.01z"/>
		<path class="st17" d="M106.58,939.67c-6.48,0.06-9.86,3.29-9.91,9.9c-11.12,2.99-17.75,9.69-19.16,21.69
			c-0.58,4.92-4.9,6.94-9.76,7.07c0.06-7.68-0.78-15.5,0.39-23.01c1.76-11.34-6.46-28.81,6.68-32.38
			C83.65,920.54,100.84,924.66,106.58,939.67z"/>
		<path class="st10" d="M87.12,833.8c9.59-0.01,19.18-0.03,28.77-0.04c6.28,13.35,12.79,26.61,18.55,40.19
			c0.67,1.57-2.21,5.95-4.44,7.13c-2.45,1.3-8.66,0.93-8.77,0.38C117.01,860.27,94.28,852.64,87.12,833.8z"/>
		<path class="st4" d="M450.66,33.91c-8.84,15.12-17.19,30.9-38.74,28.45c0.12-6.2-1.24-12.93,0.7-18.49
			c3.35-9.6,6.61-22.09,13.96-26.49c5.93-3.55,1.51,17.76,14.86,16.29C444.47,33.34,447.58,33.81,450.66,33.91z"/>
		<path class="st10" d="M832.79,554.66c-12.55,0-25.1,0-37.65,0c-6.76,6.01-12.63,13.34-22.23,15.17
			c-7.22,0.87-13.72-0.6-18.99-6.01c-3.08-6.97-2.75-13.44,2.79-19.14c1.26-2.66,2.52-5.32,3.77-7.98
			c19.47,14.56,41.87,5.6,62.86,7.92C826.03,549.25,827.39,549.25,832.79,554.66z"/>
		<path class="st10" d="M115.86,785.62c-3.24-0.02-6.48-0.04-9.72-0.05c0.03-6.41,0.07-12.83,0.1-19.24
			c2.15-10.74,2.66-23.15,19.23-19.31c-0.17,12.94-0.34,25.88-0.51,38.81C121.93,785.63,118.89,785.56,115.86,785.62z"/>
		<path class="st11" d="M747.13,1036.1c-0.65-7.31-4.51-10.48-11.84-9.79c-7.49,0.71-15.5,1.98-16.93-9.02
			c9.24-0.08,18.5,0.18,27.72-0.36c5.65-0.33,8.86,2.62,10.04,7.08C758.03,1031.18,754.78,1035.58,747.13,1036.1z"/>
		<path class="st19" d="M259.1,1008.3c0.06-3.54,0.13-7.08,0.19-10.62c10.12,1.51,16.72,13.83,28.74,9.53
			c0.05,3.13,0.03,6.26-0.06,9.38C278.34,1013.84,264.77,1025.05,259.1,1008.3z"/>
		<path class="st17" d="M182.49,1006.93c7.44,1.55,18.48-3.93,19.52,10.14c-1.97,13.14-11.55,8.53-19.22,8.37
			c-5.81-6.07-4.85-12.25-0.29-18.49L182.49,1006.93z"/>
		<path class="st9" d="M182.49,1006.95c0.1,6.16,0.19,12.33,0.29,18.49c-3.39,0.32-6.79,0.65-10.18,0.97
			C174.02,1018.95,169.03,1008.19,182.49,1006.95z"/>
		<path class="st21" d="M182.61,891.69c6.4-0.14,9.75,2.92,9.8,9.46C186.05,901.25,182.96,897.91,182.61,891.69z"/>
		<path class="st12" d="M201.42,920.66c-3.35-0.24-6.7-0.48-10.05-0.73c0.51-3.01,0.82-6.05,0.96-9.1
			C198.72,910.96,202.05,913.95,201.42,920.66z"/>
		<path class="st13" d="M670.61,1055.34c0.46-4.03,0.71-8.87,6.42-7.4c1.6,0.41,2.17,4.82,3.22,7.39
			C677.03,1055.34,673.82,1055.34,670.61,1055.34z"/>
		<path class="st7" d="M412.38,120.59c1.17-13.81,11.69-8.64,19.19-9.6c14.32,6.59,29.46-5.44,43.78,1.89
			c8.49,3.01,16.18,7.56,23.79,12.35c3.51,3.03,6.46,6.52,9.01,10.38c16.17,36.75,48.42,73.58-0.12,110.25l0,0
			c-7.49,9.56-20.06,11.44-28.69,19.28l0,0c-25.98,23.39-39.49,65.62-86.09,57.82c-0.18-7.89-0.24-15.02,6.62-21.47
			c17.32-16.29,33.44-33.86,50.57-50.35c7.34-7.07,12.02-14.44,9.74-24.88c-7.05-32.31-14.23-64.67-31.71-93.25
			C425.15,127.57,412.21,132.33,412.38,120.59z"/>
		<path class="st22" d="M393.25,322.97c12.93,3.07,20.24-5.3,27.88-13.54c16.84-18.14,34.02-35.91,58.21-44.28
			c-4.27,44.45-25.34,68.5-68.09,87.17c-27.21,11.88-51.42,30.56-77.83,44.57c-14.41,7.65-29.35,16.83-47.16,13.08
			c-4.83-1.02-7.8-4.51-7.79-9.89c20.86-15.49,38.49-34.48,66.91-39.62c17.06-3.09,29.66-20.54,38.31-37.48
			C386.87,322.97,390.06,322.97,393.25,322.97z"/>
		<path class="st18" d="M622.77,168.83c3.18-0.05,6.36-0.07,9.55-0.05c1.61-1.33,3.21-2.66,4.82-4.01c1.59,1.34,3.19,2.69,4.78,4.05
			c3.18,6.4,6.36,12.79,9.53,19.19c2.49,10.36,12.07,13.59,19.15,19.32l0.02,0.02c0,12.83,0,25.67,0,38.5
			c-16.82,18.51-34.68,36.35-39.98,62.33c-3.5,9.25-10.02,16.35-16.59,23.34c-3.24,3.94-6,8.19-6.92,13.41
			c-0.01,5.48,0.23,10.97-2.05,16.18c-6.23,9.07-15.14,13.77-25.53,16.3c-4.52,0.87-9.03,1.22-13.61,1.3
			c-37.1,7.37-74.9,3.81-112.21,7.78c-9.92,1.06-23.45,2.37-22.22-15.33c8.94-13.71,23.69-14.7,37.49-19.94
			c48.14-18.28,95.49-38.43,132.15-77.81c12.79-13.74,17.96-29.42,9.47-42.18c-10.2-15.32-5.6-22.77,5.32-31.35
			C626.96,191.23,621.52,179.4,622.77,168.83z"/>
		<path class="st15" d="M431.51,371.18c0.12,5.16,4.24,11.17,7.36,9.33c25.75-15.16,53.73-7.65,80.73-9.27
			c14.97-0.9,30.26,3,43.59-9.23c4.32-3.96,11.3,1.3,11.82,9.13c3.52,4.03,4.23,8.51,2.17,13.45c-16.55,24.53-39.76,33.74-68.5,30.2
			c-21.02-11.59-38.4,0.69-57.65,7.28c-61.12,20.92-111.64,62.87-171.58,85.92c-20.09-2.34-36.64,23.02-58.38,7.72
			c0.83-8.3-2.94-17.9,11.62-19.87c7.95-1.07,15.61-8.48,17.09-18.66c7.96-16.08,19.12-27.86,38.25-28.94
			c30.73-9.61,62.12-17.85,81.87-47.25c1.59-2.36,9.04-0.72,13.77-0.94c6.32-6.49,12.91-12.7,19.18-19.23
			C412.89,379.08,419.49,366.96,431.51,371.18z"/>
		<path class="st22" d="M508.04,245.87c-7.39-22.31,35.42-32.9,16.17-52.92c-14.4-14.98-11.66-35.22-24.99-48.7
			c-2.44-2.46-0.62-9.2-0.76-13.97c9.58-8.51,19.15-7.68,28.73,0.01c1.2,13.68,11.69,8.51,19.12,9.56
			c3.68,9.84-9.47,25.01,11.87,29.77c14.77,3.29,9.9,22.59,6.46,27.64C550.42,218.11,538.21,243.28,508.04,245.87z"/>
		<path class="st18" d="M288.04,448.25c-15.02,6.6-16.87,30.87-38.25,28.94c-19.05,6.25-23.48-16.95-38.27-19.29
			c3.15-11.46,10.28-20.9,22.21-18.81C251.8,442.24,273.12,427.06,288.04,448.25z"/>
		<path class="st22" d="M479.34,265.15c4.05-14.76,13.9-20.75,28.69-19.28C511.77,272.39,492.25,263.77,479.34,265.15z"/>
		<path class="st18" d="M402.86,380.83c2.42,15.33-3.99,21.73-19.18,19.23C381.23,384.7,387.64,378.31,402.86,380.83z"/>
		<path class="st8" d="M594.12,342.24c0.01-6.4,3.18-9.61,9.53-9.64c17.96-8.33,34-24.73,56.58-13.78
			c19.59,22.97,13.06,57.48,34.66,79.63c4.42,9.43,6.08,19.33,5.15,29.7c-1.13,7.89-4.55,14.61-10.27,20.12l-0.02,0.02
			c-7.2,6.18-14.23,5.21-21.17-0.48c-7.66-6.28-7.79-16.45-12.4-24.3c4.03,10.26,5.89,21.13,10.54,31.35
			c8.68,19.06,21.6,35.13,32.66,52.53c9.29,14.61,12.88,37.24-5.84,40.38c-45.83,7.68-78.96,49.56-128.11,45.07
			c-6.37,0-12.75-0.01-19.12-0.01c-9.23-10.61-22.32-8.34-34.13-10.84c-14.29-3.02-26.8-8.77-23.01-27.63
			c44.89-15.71,65.68-56.48,91.14-91.51c20.54-28.25,10.8-60.68,4.24-91.69c0.59-7.39,4.52-9.8,11.8-9.79
			c4.83,0.01,7.11-4.48,7.31-9.43C600.02,349.16,598.03,344.75,594.12,342.24z"/>
		<path class="st23" d="M565.43,592.83c6.49-14.34,20.67-16.54,33.17-18.88c20.75-3.88,42.87-1.92,44.75-33.41
			c0.48-8.02,16.06-8.62,24.21-2.75c9.82,7.07,21.15,12.77,29.02,2.75c9.51-12.09,1.36-24.08-9.54-32.2
			c-22.75-16.96-31.75-41.44-34.94-67.87c-1.45-11.99-6.09-33.67,2.44-35.48c13.86-2.95,2.19,18.47,12.48,27.33
			c7.27,6.26,8.66,19.2,22.73,15.97c0.77,13.1-4.2,26.07,16.28,32.82c16.13,5.31,28.79,10.55,42.94-1.07
			c3.68-3.02,7.44-6.29,10.07-10.19c10.79-16.04,21.32-10.94,35.23-3.07c8.46,4.79,16.98,15.08,29.44,10.39
			c6.37,0.02,9.57,3.22,9.54,9.66c-9.2,30.33-14.17,35.71-35.53,24.92c-14.36-7.26-27.39-4.95-40.84-5.15
			c-12.06-0.18-28.49-7.26-35.75,3.72c-10.73,16.24,16.72,19.65,16.48,34.29c9.4,7.1,9.54,23.2,24.19,25.24
			c8.89,3.62,12.18,11.38,14.68,19.8c2.19,10.75,5.97,21.55-0.62,32.12c-1.25,2.68-2.24,7.55-3.78,7.73
			c-49.67,5.77-99.24,3.73-144.15-19.36c-15.97-8.21-30.06-5.79-45.08-7.49C575.33,601.79,566.51,604.75,565.43,592.83z"/>
		<path class="st20" d="M632.36,679.58c1.16,13.75,11.67,8.62,19.14,9.64c14.38,7.85,20.43,19.87,17.83,36.18
			c-1.01,4.62-3.01,8.8-5.94,12.51c-25-4.96-45.8-3.84-43.18,30.71c-1.88,4.12-4.71,7.42-8.55,9.8
			c-15.91-11.25-55.99,36.14-52.76-22.03c1.41-6.84,3.54-13.44,5.81-20.04C582.29,711.44,582.86,665.81,632.36,679.58z"/>
		<path class="st16" d="M632.36,679.58c-11.47,2.48-30.98-8.84-28.73,17.15c0.64,7.38-4.58,8.82-10.08,12.42
			c-12.78,8.36-18.59,22.17-18.57,37.93c-5.51,4.86-11.48,5.4-17.87,1.95c-11.12-11.08-6.45-23.94-3.02-35.97
			c4.29-15.03,4.06-28.21-9.09-38.75c-3.75-5.78-4.72-11.98-2.75-18.61c1.36-1.7,2.73-3.4,4.1-5.09c5.93,1.02,12.22-1.85,17.79,3.48
			c15.69,15.04,35.2,17.53,55.71,15.71C627.15,669.15,631.75,671.68,632.36,679.58z"/>
		<path class="st23" d="M488.91,554.29c5.96,22.65,24.02,20.58,40.59,19c16.14-1.53,17.86,7.24,16.81,19.53
			c-12.75,0-25.5,0-38.24-0.01c-3.62,3.16-7.72,4.01-12.3,2.6c-12.41-7.17-21.27-16.73-21.15-32.25c1.23-4.45,3.9-7.82,7.79-10.22
			C484.57,553.39,486.74,553.84,488.91,554.29z"/>
		<path class="st15" d="M766.3,592.83c-1.03-7.52,4.1-18.13-9.57-19.28c-2.4-2.24-3.18-4.46-2.35-6.66
			c0.83-2.19,1.65-3.29,2.47-3.29c6.23,0.04,12.47,0.08,18.7,0.12c6.54-5.13,13.03-5.71,19.45,0.2c-4.17,14.7,13.74,23.88,9.51,38.6
			l-4.73-0.02l-4.73,0.01C781.95,609.89,774.54,600.11,766.3,592.83z"/>
		<path class="st11" d="M661.12,727.79c1.36-14.01-1.09-27.06-9.62-38.57c9.55,0,19.09,0,28.64,0c-0.02,12.87-0.03,25.74-0.05,38.61
			C673.75,733.41,667.43,733.41,661.12,727.79z"/>
		<path class="st13" d="M766.3,592.83c12.06-4.24,18.67,7.94,28.75,9.69c2.41,15.32-4.03,21.69-19.18,19.24
			C774.17,611.62,762.09,604.96,766.3,592.83z"/>
		<path class="st16" d="M498.48,592.67c3.19,0.05,6.39,0.1,9.58,0.15c2.27,14.91,25.29,19.33,19.16,38.49
			c-2.22,0.73-4.44,1.46-6.67,2.2c-12.6-2.29-21.06-9.83-26.52-21.2C492.17,605,493.02,598.3,498.48,592.67z"/>
		<path class="st20" d="M527.22,631.3c10.3,2.49,16.73,8.86,19.11,19.3l-0.37,0.38c-6.54,5.44-13.34,5.26-20.34,0.96
			c-4.08-7.11-4.43-13.97,1.36-20.41L527.22,631.3z"/>
		<path class="st5" d="M546.46,669.87c28.14,8.86,24.65,8.38,21.19,34.04c-2.1,15.55-15.85,26.84-11.79,43.14
			c-0.07,2.07-0.13,4.14-0.19,6.23c-0.12,4.2-0.49,8.36-1.08,12.53c-7.79,23.73-23.8,39.49-46.56,48.68
			c-11.27,6.55-24.53,11.14-33.29,20.16c-10.48,10.79-21.85,8.35-33.61,8.82c-0.73-2.14-1.47-4.27-2.22-6.41
			C479.02,784.12,517.19,729.9,546.46,669.87z"/>
		<path class="st11" d="M508.03,814.48c5.42-14.95,18.69-23.23,29.19-33.62c7.27-7.2,10.32-14.43,9.1-24.1
			c2.78-2.54,6.03-4.05,9.76-4.53c3.89-0.17,6.97,1.4,9.34,4.46c0,4.68-0.43,9.41,0.13,14.02c0.53,4.3,1.05,11.21,3.44,12.15
			c5.17,2.02,5.8-3.12,6.22-7.62c0.26-2.73,1.99-5.63,3.79-7.86c11.25-13.93,14.04-13.23,26.53,5.03c1.4,2.04,5.13,2.47,7.78,3.64
			c10.82,24.39-7.65,28.57-23.4,34.61c-6.03,1.71-13.18-4.19-18.56,2.74c-1.74,2.86-3.88,5.28-6.31,7.51
			c-2.8,1.98-5.87,3.09-9.25,3.3c-13.91-1.62-26.72,1.22-38.15,9.61C516.58,826.29,521.72,815.64,508.03,814.48z"/>
		<path class="st5" d="M374.14,872.35c-6.35-0.03-9.58-3.2-9.57-9.64c8.91-11.86,22.47-14.27,35.49-17.87
			c9.22-1.57,18.23-1.3,26.7,3.29c1.6,1.64,3.2,3.3,4.79,4.96C417.67,875.41,395.34,872.19,374.14,872.35z"/>
		<path class="st5" d="M441.12,843.46c0,6.43-3.2,9.62-9.57,9.63l-0.13-0.13c-2.17-8.62,1.16-11.69,9.58-9.62L441.12,843.46z"/>
		<path class="st16" d="M651.47,795.02c1.21,9.65-1.54,16.99-8.9,24.25c-10.54,10.4-23.82,18.75-29.34,33.69
			c-15.33,7.78-29.07,22.07-48.74,12.06c-8.13-8.69-5.72-18.85-3.92-28.91c0.39-7.47-0.67-15.28,4.91-21.56l-0.02,0.02
			c3.62-3.4,7.91-4.98,12.85-4.73C604.93,816.1,622.65,777.71,651.47,795.02z"/>
		<path class="st6" d="M479.39,949.39c11.68-20.16,28.02-35.68,47.26-48.34c20.12-7.13,27.17-1.01,19.73,19.78
			c0.03,8.93-0.28,17.88,0.2,26.79c0.4,7.42-3.03,10.71-9.81,11.5l-0.08-0.08c0.01-4.74,0.58-9.58-0.13-14.21
			c-0.85-5.46,4.8-18.31-10.45-9.29C511.93,943.93,497.29,952.82,479.39,949.39z"/>
		<path class="st1" d="M546.38,920.82c2.55-15.84-4.53-21.92-19.73-19.78c1.8-25.93,21.27-44.03,29.32-67.2
			c3.12-4.34,6.25-4.56,9.39-0.03c0.08,9.57,0.15,19.15,0.23,28.72c7.61,9.73,7.62,19.45-0.01,29.17
			C566.94,906.61,560.64,916.38,546.38,920.82z"/>
		<path class="st24" d="M651.47,795.02c-7.63,0.05-14.29,0.66-21.14,6.27c-15.95,13.05-35.34,15.4-55.35,13.3
			c-2.73-2.16-3.64-4.31-2.72-6.46c0.91-2.15,1.83-3.22,2.75-3.22c15.8-5.52,39.75-0.06,38.31-28.84l0.05-0.05
			c7.41-7.31,16.22-9.85,26.38-7.87c4.79,1.31,8.72,3.93,11.82,7.83C651.52,782.32,651.49,788.67,651.47,795.02z"/>
		<path class="st15" d="M565.59,891.71c0-9.72,0.01-19.45,0.01-29.17c16.92,2.04,30.16-14.41,47.63-9.59
			C601.23,870.71,591.15,890.87,565.59,891.71z"/>
		<path class="st4" d="M651.55,775.97c-3.21-0.02-6.43-0.03-9.64-0.05c-6.92-19.56,3.72-30.25,19.16-38.53c0-3.2,0.02-6.4,0.05-9.6
			c6.32,0.01,12.65,0.03,18.97,0.04c1.74,19.28-14.26,31.44-19.01,48.12C657.9,775.96,654.73,775.96,651.55,775.97z"/>
		<path class="st6" d="M536.77,959.12c-1.31,10.35,4.68,22.97-6.5,30.22c-6.14,3.98,1.72,18.69-9.71,14.18
			c-6.96-2.74-5.65-17.03-1-20.26c9.24-6.43,1.81-23.58,17.13-24.22L536.77,959.12z"/>
		<path class="st5" d="M221.07,515.72c7.6,0.08,15.75,1.55,20.69-6.48c8.85-14.37,22.91-13.07,36.7-12.79
			c-12.55,43.7-45.29,56.87-86.1,57.82c0-6.42,0-12.84,0-19.27c1.04-11.22,8.99-10.26,16.67-9.47
			C216.39,526.27,220.39,523.13,221.07,515.72z"/>
		<path class="st6" d="M689.73,400.13c-6.92-0.88-17.06,2.88-18.73-7.31c-3.8-23.19-15.47-45.33-9.92-69.85
			c-8.04-22.16-27.06-0.33-38.28-9.71c0.94-42.46,10.19-55.49,47.83-67.41c3.24,21.96,7.23,40.38,37.5,39.65
			c14.22-0.34,31.03,14.57,28.64,31.32c-4.76,33.38,13.64,55.35,30.22,79.16c13.65,19.61,12.58,30.36-6.59,42.04
			c-4.63,2.82-10.9,3.77-15.85,7.88c-27.4,22.73-27.51,22.59-54.76,2.36c0-6.42,0-12.85,0-19.27c34.49-20.54,9.59-48.12,8.47-72.86
			c-0.18-3.93-3.26-7.18-3.58-6.63c-1.61,2.67-1.25,6.02-1.24,9.27C693.49,372.66,701.28,387.29,689.73,400.13z"/>
		<path class="st4" d="M478.93,120.89c-11.94-0.05-23.88-0.42-35.81-0.03c-7.31,0.24-10.86-2.82-11.55-9.87
			c14.72-2.61,19.17-25.59,38.24-19.59c6.07,0.29,9.48,3.32,9.74,9.6C484.58,107.8,485.41,114.46,478.93,120.89z"/>
		<path class="st21" d="M527.18,130.29c-9.58,0-19.15-0.01-28.73-0.01c0,0-0.02-0.17-0.02-0.17c-5.49-6.35-5.87-12.7,0.02-19.04
			c1.5-10.27,7.61-12.76,15.67-7.69C523.62,109.36,529.82,117.89,527.18,130.29z"/>
		<path class="st11" d="M498.46,111.08c-0.01,6.35-0.01,12.69-0.02,19.04c-7.6-0.72-17.64,3.78-19.51-9.23
			c0.21-6.63,0.42-13.26,0.63-19.89C485.86,104.36,492.16,107.72,498.46,111.08z"/>
		<path class="st17" d="M450.65,72.39c1.24-6.89-3.54-16.47,7.78-18.81c2.63-0.54,5.7,1.1,8.57,1.74c-0.56,2.33-0.4,5.39-1.83,6.86
			C461.01,66.42,458.05,72.74,450.65,72.39L450.65,72.39z"/>
		<path class="st15" d="M565.37,833.82l-4.7-0.02l-4.7,0.06c-0.07-3.21-0.13-6.42-0.2-9.64c0.1-6.42,3.25-9.72,9.7-9.67
			C565.44,820.96,565.41,827.39,565.37,833.82z"/>
		<path class="st24" d="M402.82,852.98c-11.4,8.63-24.34,11.11-38.25,9.73c-20.75-2.49-38.18,5.44-52.34,19.55
			c-7.31,7.28-14.43,10.66-24.2,9.35c-11.34-15.25-3.29-27.7,5.64-40.03c3.6-3.26,7.73-5.71,12.24-7.46
			c55.87-8.18,94.08-43.31,128.38-84.89c11.73-14.21,21.6-33.9,46.14-24.08c5.2,5.44,7.46,12.11,8.11,19.47
			C477.99,803.31,438.32,826.3,402.82,852.98z"/>
		<path class="st19" d="M297.61,853.06c4.12,14.69-13.7,23.85-9.57,38.55c-9.55,0.02-19.11,0.04-28.66,0.05
			c-0.94-8.28,3.29-19.41-11.9-19.37c-4.74,0.01-7.18-4.66-7.3-9.7c-6.15-7.33-5.48-14.69-0.09-22.09
			C262.73,828.58,281.93,832.62,297.61,853.06z"/>
		<path class="st12" d="M230.85,978.18c-13.64,0.33-27.97,2.46-36.28-12.58c-4.62-8.35-3.22-14.33,7.13-16.12
			c9.53-7.71,19.17-8.31,28.92-0.41C230.7,958.76,230.78,968.47,230.85,978.18z"/>
		<path class="st10" d="M230.62,949.06c-9.64,0.14-19.28,0.28-28.92,0.41c0.06-9.64,0.13-19.29,0.19-28.93
			c13.55-4.23,22.62,7.33,33.28,11.42C246.02,936.11,226.82,941.49,230.62,949.06z"/>
		<path class="st17" d="M192.41,785.51c-0.95-5.89,1.64-17.26-3.75-16.66c-26.4,2.94-33.95-24.33-53.52-31.43
			c-14.41-29.6,7.48-44.95,24.03-62.44c23.92-10.5,40.64-32.02,64.29-43.06c30.14-0.7,62.61-18.14,88.55,12.2
			c12.94,29.43,41.64,32.31,67.34,40.32c32.78,21.19,24.51,43.7,1.15,65.35c-21.67,20.09-47.75,29.22-77.48,29.61
			c-19.92,0.26-41.58-2.76-56.38,16.48c-4.16,3.04-8.8,4.91-13.86,5.76C217.09,802.02,202.97,798.26,192.41,785.51z"/>
		<path class="st16" d="M163.73,679.71c-9.7,19.15-29.43,33.26-28.58,57.71c-6.28,0.07-9.53,3.24-9.68,9.6
			c-4.92,0.2-9.45,2.48-9.45,7.37c-0.01,7.37-2.4,11.37-9.78,11.94c-18.88-18.72-12.3-43.83-6.5-62.12
			c4.84-15.22,4.65-29.32,6.51-43.95c4.7-16.73,20.83-28.83,19.23-48.12c3.17,0.02,6.33,0,9.5-0.04
			c10.57-21.48,26.63-37.42,47.81-48.21c6.36-0.01,9.54-3.23,9.56-9.63c1.55,0,3.1,0.03,4.65,0c18.08-0.26,20.68-29.07,42.1-23.17
			c9-15.19,30.15-14.44,38.78-30.03c0.7-1.26,0.41-3.06,0.58-4.62c16.49,0.98,30.06-7.69,40.63-17.75
			c27.31-26,60.54-38.22,95.06-50.25c23.83-8.3,45.06-23.91,68-35.14c16.2-7.93,20.79-4.43,26.01,16.48
			c4.42,18.78-9.53,23.15-22.02,28.7c-14.28,3.4-28.24,7.71-40.36,16.58c-10.26,6.9-20.89,13.16-31.79,18.96
			c-16.66,7.61-32.13,17.26-46.98,27.99c-14.27,8.08-29.16,15.1-42.03,25.56c-3.31,2.62-6.82,4.92-10.4,7.13
			c-20.11,11.82-39.29,24.92-56.57,40.73c-3.25,2.87-6.73,5.42-10.3,7.84C207.33,604.48,200.68,655.51,163.73,679.71z"/>
		<path class="st3" d="M240.11,843.48c0.02,6.37,0.05,12.75,0.07,19.12c-22.59-0.27-47.33,6.3-62.03-19.31
			c-2.14-3.72-4.83-8.45-4.2-12.18c1.34-7.88,8.34-7.03,14.54-6.91c10.87,0.22,21.75,0.04,32.62,0.03
			c2.82-3.39,6.23-4.37,10.34-2.56C238.11,827.41,240.84,834.75,240.11,843.48z"/>
		<path class="st16" d="M192.41,785.51c13.82-1.12,26.74,1.27,38.12,9.79c9.24,7.11,19.03,14.16,2.17,23.7
			c-4.52,0.35-8.42-1.06-11.69-4.22c-13.73,5.74-20.38-12.09-33.22-10.04c-8.67,1.38-15.77-1.62-13.88-11.9
			C175.91,782.03,185.77,786.92,192.41,785.51z"/>
		<path class="st19" d="M221.01,814.78c3.22-0.03,6.44-0.07,9.66-0.1c2.07,2.19,2.74,4.35,2,6.49c-0.74,2.12-1.46,3.19-2.17,3.19
			c-3.12-0.12-6.25-0.17-9.38-0.14C221.11,821.07,221.08,817.92,221.01,814.78z"/>
		<path class="st5" d="M182.8,563.89c-11.91,20.12-27.89,36.15-47.81,48.21c0.35-12.41-0.85-23.87,9.7-34.98
			C156.15,565.06,168.34,563.13,182.8,563.89z"/>
		<path class="st13" d="M756.86,563.61c-0.04,3.32-0.08,6.63-0.12,9.95c-26.38,3.76-17.74-15.95-19.12-28.95
			c6.36,0.03,12.73,0.06,19.09,0.08C756.75,550.99,756.8,557.3,756.86,563.61z"/>
		<path class="st8" d="M670.6,207.34c-12.06,2.71-20.61-3.6-26.4-12.68c-2.76-4.33,2.87-6.41,7.25-6.65
			C661.83,190.44,668.29,196.81,670.6,207.34z"/>
		<path class="st25" d="M641.99,159.17c6.37-0.04,12.73-0.07,19.1-0.11c-1.03,13.95-11.75,8.57-19.17,9.76l-0.03-0.03
			c-2.12-2.16-2.81-4.31-2.08-6.44C640.55,160.23,641.27,159.17,641.99,159.17z"/>
		<path class="st25" d="M661.02,159.13c1.22-13.68,11.69-8.68,19.2-9.66C679.07,163.29,668.51,158.13,661.02,159.13z"/>
		<path class="st13" d="M795.01,563.93c-6.48-0.07-12.97-0.14-19.45-0.2c1.74-13.53,11.91-8.55,19.58-9.06
			C795.04,557.75,794.99,560.84,795.01,563.93z"/>
		<path class="st4" d="M641.99,159.17c-0.02,3.21-0.05,6.42-0.1,9.63c-3.19,0-6.38-0.01-9.57-0.01
			C632.38,162.35,635.55,159.09,641.99,159.17z"/>
		<path class="st6" d="M584.55,371.16c7.04,1.01,18.14-3.27,18.71,7.96c1.29,25.27,0.15,50.65,0.66,75.97
			c0.19,9.54-6.42,13.84-11.92,18.96c-21.85,20.35-22.52,20.91-35.95,51.96c-8.33,19.27-26.08,23.89-43.64,27.98
			c-7.46,1.74-15.65,0.29-23.5,0.29l0.01-0.06c-11.9-15.63-1.5-27.89,7.74-38.11c35.78-39.58,59.84-85.76,78.34-135.34
			c-0.01-3.21,0-6.42,0.03-9.63C578.19,371.15,581.37,371.16,584.55,371.16z"/>
		<path class="st13" d="M622.8,313.27c9.03-4.33,18.57-7.86,26.92-13.26c6.58-4.26,13.93-10.92,18.55-1.74
			c3.95,7.85,9.41,20.8-7.18,24.7c-20.48-4.89-36.94,14.55-57.43,9.62C606.06,322.16,612.47,315.74,622.8,313.27z"/>
		<path class="st15" d="M594.12,342.24c6.42,0.01,9.59,3.25,9.54,9.71C597.28,351.9,594.08,348.68,594.12,342.24z"/>
		<path class="st18" d="M574.99,380.78c0,17.46-0.19,34.92,0.1,52.37c0.11,6.57-0.42,15.55-7.3,14.52
			c-22.27-3.33-23.13,9.64-21.36,25.3c1.32,11.68-7.94,16.38-14.1,22.92c-11.92,12.66-23.95,25.29-36.82,36.94
			c-6.98,6.32-6.82,13.53-6.6,21.4c-3.18,0.02-6.37,0.03-9.55,0.04c-1.88-0.54-3.77-1.09-5.68-1.61c-3.39-2.22-6.19-5.02-8.5-8.39
			c-1.92-3.7-3.26-7.58-4.21-11.64c-1.35-6.34-2-12.74-2.36-19.22c-0.65-16.07-1.35-32.1-0.56-48.2
			c1.01-15.92,7.52-28.43,21.96-35.99c14.84,1.54,23.6-5.86,28.16-19.44C533.49,407.25,554.82,395.38,574.99,380.78z"/>
		<path class="st18" d="M689.73,400.13c-10.6-25.05-10.56-51.43-9.4-77.9c0.22-5.16,3.19-8.86,8.77-8.51
			c2.83,0.18,6.26,1.09,8.23,2.94c5.54,5.23,12.29,9.56,11.78,19.18c-1.49,28.19,6.96,54.06,18.09,79.55
			c2.76,6.32,4.26,16.54-3.46,21.62c-8.64,5.68-13.49-3.65-19.95-7.29c-3.66-2.06-9.27-0.6-14.01-0.73
			C689.76,419.37,689.74,409.75,689.73,400.13z"/>
		<path class="st11" d="M661.07,737.39c-6.39,12.84-12.77,25.68-19.16,38.53c-9.52,0.03-19.04,0.06-28.56,0.09
			c0.01-9.51-0.48-19.05,0.17-28.51c0.69-9.98-20.78-18.15-4.95-27.12c9.61-5.44,24.42-2.89,36.69-1.76
			c7.17,0.66,4.6,10.38,7.98,15.04C654.74,735.72,658.39,736.2,661.07,737.39z"/>
		<path class="st5" d="M565.4,756.69l-4.76,0l-4.76,0.01c-2.17-2.14-2.89-4.29-2.18-6.43c0.71-2.15,1.43-3.23,2.15-3.23l-0.01,0.01
			c6.37,0.01,12.74,0.02,19.11,0.03C574.98,753.51,571.75,756.68,565.4,756.69z"/>
		<path class="st18" d="M402.82,852.98c17.36-28.46,44.65-47.59,66.82-71.53c7.03-7.59,11.17-14.6,9.7-24.75
			c11.19-14.22,10.71-33.29,19.66-48.33c2.95-6.47,5.63-13.12,5.87-20.48c0.45-5.17,2.72-9.52,5.98-13.41
			c2.86-3.85,5.48-7.89,7.55-12.28c1.95-4.54,4.32-8.76,8.76-11.33c6.26,0.04,12.53,0.08,18.79,0.12c0.17,6.29,0.33,12.59,0.5,18.88
			c-1.41,10.53-0.84,20.35-5.86,31.44c-20.52,45.32-43.39,88.18-82.42,120.52c-6.86,5.69-15.81,10.85-17.17,21.5
			c-6.32,0.05-9.57,3.2-9.58,9.62C421.89,852.97,412.36,852.98,402.82,852.98z"/>
		<path class="st11" d="M498.48,592.67c-0.01,6.49-0.02,12.98-0.03,19.46c-3.65,15.27-13.71,23.03-28.76,24.92
			c-4.48-0.43-8.52-2.1-12.16-4.77c-9.07-12.94-10.22-28.11-11.79-43.17c0.86-12.4,3.91-24.41,6.77-36.47
			c1.43-3.93,3.66-7.35,6.62-10.28c4.1-1.91,7.62-1.03,10.62,2.28l0.17-0.02c2.79,3.54,5.99,6.66,9.44,9.54l-0.01,0.1
			C473.15,573.42,495.99,577.9,498.48,592.67z"/>
		<path class="st4" d="M469.73,631.51c13.36-0.77,15.29-18.72,28.72-19.39c13.38,0.69,15.26,18.55,28.53,19.41
			c0.06,6.44,0.12,12.89,0.19,19.33c0,6.35-0.01,12.7-0.01,19.05c-3.41,3.02-6.62,6.23-9.58,9.68c-6.32,0-9.49,3.18-9.5,9.55
			c-2.29,0.77-4.58,1.54-6.88,2.32C474.93,679.9,452.95,666.03,469.73,631.51z"/>
		<path class="st16" d="M555.87,747.04c0.01,3.22,0.02,6.44,0.03,9.66c-3.2,0.02-6.39,0.04-9.59,0.06
			C546.27,750.3,549.43,747.03,555.87,747.04z"/>
		<path class="st15" d="M575,804.9c-0.01,3.23-0.02,6.46-0.02,9.69l-4.76,0.04l-4.76-0.06c0.01-3.02-0.28-6.09,0.13-9.05
			c0.39-2.84,1.13-7.75,2.39-7.98C572.92,796.63,575.12,800.01,575,804.9z"/>
		<path class="st21" d="M230.5,824.35c0.06-3.23,0.11-6.45,0.17-9.68c11-1.84,9.67-6.01,2.57-12.06c-1.72-1.47-1.85-4.82-2.71-7.31
			c3.21-0.04,6.42-0.08,9.62-0.11c13.33-13.1,29.17-9.27,44.74-6.55c51.67,9.03,81.19-26.78,112.43-57.57
			c10.76-10.6,3.06-27.8,6.96-41.52c2.61-7.25,7.21-12.84,13.59-17.03c13.6-6.79,27.32-12.79,42.67-5.33
			c5.25,5.85,6.72,12.86,6.22,20.48c-24.9,82.79-80.96,135.15-159.6,165.38c-3.19,0-6.37,0.01-9.56,0.01
			c-19.67-0.15-36.68-16.44-57.5-9.59C226.65,842.33,231.5,831.85,230.5,824.35z"/>
		<path class="st19" d="M307.17,853.06c-0.37-7.64,5.65-13.3,10.39-14.59c58.09-15.8,85.49-67.4,122.92-106.9
			c10.41-10.98,5.49-31.67,19.74-42.35c14.79-5.69,25.55,0.07,34.1,12.15c2.1,14.98,10.24,32.56-14.97,36.04
			c-10.41-1.97-19.97,0.89-24.25,10.43c-14.11,31.46-41.76,50.77-64.93,73.68C367.91,843.52,338.25,851.61,307.17,853.06z"/>
		<path class="st23" d="M479.35,737.41c6.88-0.75,10.23-4.15,9.83-11.58c-0.49-8.97-0.21-17.98-0.27-26.98
			c3.98-5.38,9.35-5.47,15.12-4c1.35,1.34,2.69,2.68,4.03,4.03c0.38,24.29-4.58,45.9-28.72,57.83
			C479.34,750.27,479.35,743.84,479.35,737.41z"/>
		<path class="st12" d="M412.28,688.91c10.3,41.85-16.76,65.06-44.65,86.23c-5.29,4.01-14.23,5.97-18.71,12.06
			c-18.67,25.31-44.93,22.4-67.73,13.37c-14.48-5.73-27.56-2.89-41.02-5.39c-1.6-16.95,6.47-26.94,22.73-28.65
			c12.44-1.31,25.56-2.35,37.61,0.2c30.74,6.51,52.79-10.4,74.8-26.42c9.41-6.85,18.82-14.76,18.65-30.46
			c-0.17-15.69-22.01-5.68-19.81-20.61c3.11-3.86,7.03-6.46,11.78-7.84C395.96,679.37,404.95,681.21,412.28,688.91z"/>
		<path class="st9" d="M384.05,689.08c-3.31,0.06-6.61,0.11-9.92,0.17c-23.82,0.22-49.35,4.98-63.89-21.65
			c-2.65-4.85-2.21-11.41-3.19-17.19c-4.26-12.59-0.49-24.49,3.02-36.44c1.71-3.86,3.88-7.45,6.4-10.82
			c1.32-1.62,2.73-3.18,4.06-4.81c5.77-6.13,11.94-11.83,18.72-16.88c3.58-2.45,7.47-4.17,11.61-5.41
			c8.81-1.79,17.33-1.04,25.49,2.96c9.61,6.02,17.43,13.55,20.48,25.01c-0.01,4.52-1.61,8.42-4.68,11.7
			C357.17,636.52,392.03,665.22,384.05,689.08z"/>
		<path class="st11" d="M317.45,613.15c0.24,13.47-1.92,26.26-10.4,37.26c-11.83,0.41-6.77-13.89-11.81-15.32
			c-5.26-1.49-12.31,5.36-18.71,5.65c-18.47,0.83-37.01,0.2-55.52,0.14c-12.89-28.41,8.8-36.77,26.89-47.3
			c27.18-0.27,50.24-28.9,80-12.07c4.51,7.49,3.52,14.64-1.35,21.53l0.32-0.31C323.31,605.82,316.2,605.64,317.45,613.15z"/>
		<path class="st20" d="M249.75,602.43c-15.36,8.43-29.92,17.47-28.73,38.45c-15.02,19.05-29.27,39.25-57.29,38.83
			c-0.01-1.6-0.68-3.69,0.07-4.74c22.17-31.07,34.69-68.7,64.48-94.73c6.95-6.07,13.58-6.92,21.49-6.68
			C258.13,583.19,257.32,592.82,249.75,602.43z"/>
		<path class="st11" d="M231.54,729.57c-0.05-0.35-1,5.61-8.46,7.69c-14.14,3.94-38.89-15.08-39.69-30.81
			c-0.12-2.37,3.81-7.28,4.66-7.02c14.02,4.28,27.92,9,41.58,14.33C230.94,714.27,230.43,719.52,231.54,729.57z"/>
		<path class="st26" d="M249.75,602.43c0.01-9.62,0.02-19.25,0.03-28.87l0,0c23.51-14.38,48.28-27,66.95-48.2l0,0
			c13.93-13.01,40.35-5.06,47.82-28.92c8.78-21.67,27.95-25.88,47.84-28.91c34.75,14.78,38.05,44.32,35.52,76.66
			c-3.32,9.97-8.48,18.67-17.23,24.82c-25.92,18.72-59.62-7.81-84.93,14.79l0.28-0.29c-6.57,5.13-13.09,5.47-19.52-0.25
			c-8.92,1.38-20.75-5-26.45,3.42C286.84,606.2,267.98,602.17,249.75,602.43z"/>
		<path class="st20" d="M441.11,544.52c0.65-29.54-12.28-53.93-28.74-76.98c2.9-16.47,21.32-9.5,28.65-19.27
			c11.83,9.35,12.04,24.08,16.9,36.69c2.15,13.47,3.35,27.11,6.78,40.38c-0.05,6.76,1.2,13.82-4.52,19.22l0.01,0.08
			C453.81,550.42,447.45,549.73,441.11,544.52z"/>
		<path class="st20" d="M316.73,525.36c-0.03,3.17,1.25,7.36-0.29,9.34c-16.97,21.91-36.45,39.86-66.66,38.86
			C264.42,546.67,289.13,533.98,316.73,525.36z"/>
		<path class="st10" d="M450.55,486.78c-6.93-0.71-10.15-4.2-9.75-11.58c0.48-8.96,0.19-17.96,0.23-26.94
			c9.88-12.8,22.3-20.34,38.97-19.05c-8.68,11.18-11.75,23.93-10.44,37.9c-1.93,2.37-3.96,4.65-6.06,6.86
			c-1.92,2.4-3.8,4.83-5.6,7.34C456.08,484.01,453.61,485.81,450.55,486.78z"/>
		<path class="st20" d="M364.54,496.44c7.69,0.52,12.13,5.86,9.19,12.07c-4.55,9.63-11.38,17.99-24.48,17.01
			c-10.79-0.81-21.68-0.17-32.53-0.17C325.48,503.67,344.67,499.48,364.54,496.44z"/>
		<path class="st6" d="M450.55,486.78c0.07-3.14,0.14-6.29,0.22-9.43c3.11-3.31,6.76-6.09,9.42-9.83c3.13-0.02,6.26-0.16,9.38-0.41
			c0.07,19.43,0.13,38.87,0.2,58.3c-3.24,4.48-6.39,4.2-9.47-0.17C451.54,513.84,449.45,500.72,450.55,486.78z"/>
		<path class="st26" d="M460.29,525.25c3.16,0.11,6.31,0.17,9.47,0.17c0,6.41,0,12.82,0,19.22c-3.19,0.02-6.38-0.01-9.56-0.09
			C460.23,538.12,460.26,531.68,460.29,525.25z"/>
		<path class="st6" d="M479.37,554.16c-6.41,0.1-9.6-3.04-9.44-9.54C476.19,544.67,479.32,547.87,479.37,554.16z"/>
		<path class="st23" d="M508.07,689.15c4.07,0.43,8.92,0.66,7.43,6.51c-0.41,1.61-4.85,2.17-7.44,3.21l-0.03-0.02
			c-3.25-2.14-4.34-4.27-3.26-6.42c1.07-2.14,2.15-3.22,3.24-3.22L508.07,689.15z"/>
		<path class="st23" d="M517.58,679.61c0.03-6.41,3.18-9.68,9.58-9.68C527.16,676.37,524,679.62,517.58,679.61z"/>
		<path class="st27" d="M345.74,583.8c0.38-8.59-3.71-19.86,11.31-19.88c24.8-0.04,49.61,0.06,74.41,0.1
			c10.64,2.06,17.13,8.37,19.26,19.12c11.92,14.33,9.26,31.78,10.2,48.46c2.35,2.65,3.05,5.21,2.09,7.68
			c-0.94,2.43-1.83,3.65-2.66,3.65c-17.24,0.33-19.04-16.13-27.47-25.42c-14.09-21.15-36.7-26.84-59.01-33.07
			C364.49,584.24,355.11,584.02,345.74,583.8z"/>
		<path class="st24" d="M460.24,641.14c-0.25-3.21-0.02-6.39,0.68-9.53c2.94-0.16,5.88-0.19,8.82-0.1
			c-4.03,30.54,17.46,43.9,38.29,57.7c0.01,3.21,0.01,6.43,0.02,9.64c-6.37,0-12.75,0-19.12,0c-12.03,4.24-18.64-7.92-28.7-9.64
			c-0.02-6.38-0.04-12.77-0.06-19.15C452.68,660.4,451.98,650.76,460.24,641.14z"/>
		<path class="st24" d="M450.72,583.15c-10.29-2.42-16.76-8.75-19.26-19.12c1.11-7.56-4.03-18.27,9.66-19.51
			c6.37,0.04,12.73,0.07,19.1,0.11c0.06,8.98-0.21,17.98,0.28,26.94C460.9,578.97,457.61,582.41,450.72,583.15z"/>
		<path class="st28" d="M384.05,689.08c-14.48-16.75-22.78-34.76-20.09-58.44c2.71-23.92,3.95-81.93,40.5-23.11
			c2.58,3.59-3.39,12.58-8.55,16.95c-3.02,34.74,34.02-16.68,44.65-12.42c19.86,16.36-8.62,54.95-18.39,67.61
			c-4.59,5.05-4.08,6.2-9.89,9.23C402.87,688.96,393.46,689.02,384.05,689.08z"/>
		<path class="st9" d="M422.17,679.68c5.09-5.4,3.32-11.39,7.7-18.78c5.93-10.02,8.72-15.4,9.03-25.35c0-6.76,1.66-8.97,1.66-11.67
			c0.76-4.09,0-9.19,0-11.8c11.07,0.87,10.76,8.68,10.02,16.72c-0.67,7.23,1.99,11.77,9.66,12.36c-0.03,9.64-0.05,19.28-0.08,28.92
			C445.64,665.81,436.62,683.65,422.17,679.68z"/>
		<path class="st28" d="M440.56,612.07c-6.09,3.37-12.17,6.73-18.26,10.1c-12.24,5.85-15.96-4.69-21.66-11.41
			c-2.28-2.92-4.72-5.72-7.33-8.36c-9.43-2.73-15.96-8.65-19.44-17.93c16.6-13.46,32.56-2.64,46.66,3.89
			C428.76,592.16,438.92,599.89,440.56,612.07z"/>
		<path class="st27" d="M326.49,583.26c6.51,0.08,13.01,0.17,19.52,0.25c-2.89,10.15-9.64,16.39-19.45,19.54
			C326.54,596.46,326.51,589.86,326.49,583.26z"/>
		<path class="st27" d="M317.45,613.15c-4.81-0.54-10.31-4.23-8.15-7.67c3.7-5.88,11.45-2.7,17.58-2.73
			C326.45,608.71,323.4,612.26,317.45,613.15z"/>
		<path class="st16" d="M460.18,467.53c0.1,6.43-3.15,9.59-9.42,9.83C450.6,470.86,453.71,467.56,460.18,467.53z"/>
		<path class="st27" d="M393.43,620.91c13.05-0.74,7.99-11.11,9.44-18.02c5.12-0.19,9.33,2.29,9.29,7.22
			c-0.06,7.62,3.18,11.08,10.13,12.05c0.02,6.14,0.03,12.28,0.05,18.42c-0.24,1.52,0.05,3.53-0.81,4.5
			c-25.51,28.81-30.7,28.08-45.04-7.35C369.13,619.53,384.08,622.77,393.43,620.91z"/>
	</g>
</g>
</svg>
