<?xml version="1.0" encoding="utf-8"?>
<!-- Generator: Adobe Illustrator 23.1.0, SVG Export Plug-In . SVG Version: 6.00 Build 0)  -->
<svg version="1.1" id="Calque_1" xmlns="http://www.w3.org/2000/svg" xmlns:xlink="http://www.w3.org/1999/xlink" x="0px" y="0px"
	 viewBox="0 0 1125 1220.79" style="enable-background:new 0 0 1125 1220.79;" xml:space="preserve">
<style type="text/css">
	.st0{fill:#D1A558;}
	.st1{fill:#5EA610;}
	.st2{fill:#6DB112;}
	.st3{fill:#A1D210;}
	.st4{fill:#428E0C;}
	.st5{fill:#BCE61B;}
	.st6{fill:#BE8C40;}
	.st7{fill:#E6C279;}
	.st8{fill:#F9F6BE;}
	.st9{fill:#1ACA07;}
	.st10{fill:#3A970A;}
	.st11{fill:#20382D;}
	.st12{fill:#1A8608;}
	.st13{fill:#FBE49F;}
	.st14{fill:#CAEA25;}
	.st15{fill:#455D4A;}
	.st16{fill:#1E8A08;}
	.st17{fill:#F9DF97;}
	.st18{fill:#BA883D;}
	.st19{fill:#067709;}
	.st20{fill:#037909;}
	.st21{fill:#F1DA96;}
	.st22{fill:#57A612;}
	.st23{fill:#F8F9F8;}
	.st24{fill:#DFB465;}
	.st25{fill:#047809;}
	.st26{fill:#238E0A;}
	.st27{fill:#52AC00;}
	.st28{fill:#D1F22F;}
	.st29{fill:#80BE0F;}
	.st30{fill:#0ABF03;}
	.st31{fill:#87D918;}
	.st32{fill:#D8AE62;}
	.st33{fill:#BC9F75;}
	.st34{fill:#35B20B;}
	.st35{fill:#3BBF07;}
	.st36{fill:#51D40B;}
	.st37{fill:#B2F520;}
	.st38{fill:#385042;}
	.st39{fill:#A98F66;}
	.st40{fill:#017102;}
	.st41{fill:#566655;}
	.st42{fill:#DABFA3;}
	.st43{fill:#8FDD0C;}
	.st44{fill:#5B241A;}
	.st45{fill:#4E412C;}
	.st46{fill:#6F2A1D;}
	.st47{fill:#D7AD62;}
	.st48{fill:#FDF7BA;}
	.st49{fill:#CDB59D;}
	.st50{fill:#C4A993;}
	.st51{fill:#7BBF16;}
	.st52{fill:#C0E317;}
	.st53{fill:#C89B4F;}
	.st54{fill:#342A1F;}
	.st55{fill:#A08969;}
	.st56{fill:#30E1FB;}
	.st57{fill:#F9FDFE;}
	.st58{fill:#8D8131;}
	.st59{fill:#474D42;}
	.st60{fill:#B49E49;}
	.st61{fill:#274237;}
	.st62{fill:#A8D413;}
	.st63{fill:#FBFBFB;}
	.st64{fill:#F1D187;}
	.st65{fill:#FBEDAE;}
	.st66{fill:#11CBEF;}
	.st67{fill:#DFE2DF;}
	.st68{fill:#2C2D2A;}
</style>
<g>
	<g>
		<path class="st0" d="M633.37,1121.01c-35.19,23.99-76.74,29.21-116.77,36.11c-86.64,14.94-171.99,34.48-255.94,60.39
			c-11.26-6.18-24.69-10.91-29.15-23.99c-9.86-28.94-30.56-31.6-57.04-29c-36.74,3.61-74.23,5.71-103.11-25.05
			c-1.21-7.45-2.42-14.91-3.63-22.36c63.41-7.59,129.32,3.39,190.07-22.96c27.67-12,6.22-14.64-5.45-17.76
			c-16.17-4.05-35.94-2.64-38.74-26.19c5.95-7.3,14-10.82,22.87-12.89c42.87-3.05,86.26-1.83,127.96-14.84
			c11.12-2.53,23.53,9.05,33.89-3.23c27.32-10.81,64.72-12,82.22-24.83c39.66-29.08,86.59-48.76,120.77-85.33
			c2.33-11.86,7.52-20.86,21.19-21.49c9.5,1.97,15.18,8.2,18.9,16.71c6.49,20.59,5.75,41.45,2.51,62.4
			c-1.28,5.8-3.6,11.21-6.75,16.24c-12.31,13.55-27.59,19.5-45.83,17.55c-34.69-7.04-38.66,18.09-33.2,39.3
			c5.43,21.11-2.46,61.01,43.24,49.98c15.4-3.48,26.54,2.39,34.57,15.3C637.85,1110.85,636.98,1116.15,633.37,1121.01z"/>
		<path class="st1" d="M994.92,319.85c-8.93,11.08-18.27,21.52-33.98,22.21c-156.4,15.22-210.95,134.63-262.73,256.88
			c-25.37,34.58-50.74,69.16-76.11,103.74c-29.49-1.7-31.41-22.42-31-44.79c51.04-82.6,69.23-176.22,90.86-268.93
			c13.82-59.22,41.04-112.31,83.67-156.58c13.47-18.61,31.54-33.43,44.06-52.91c2.7-4.34,5.83-8.35,9.14-12.26
			c3.46-3.9,7.41-7.21,11.68-10.2c4.63-2.6,9.59-4.22,14.81-5.14c10.89-0.12,21.38,0.63,26.24,12.83
			c0.01,9.75-5.09,17.34-9.71,25.51c-10.25,18.13-43.14,29.39-30.05,52.97c12.98,23.39,38.99,39.38,67.23,46.6
			c18.09,4.63,36.7,5.72,55.17,7.74C970.88,299.34,988.39,299.58,994.92,319.85z"/>
		<path class="st2" d="M698.21,598.95c-15.71-12.88-7.23-26.16-0.94-39.71c39.5-85.07,90.95-159.93,170.61-213.58
			c32.29-21.75,62.16-2.22,93.04-3.6c-10.63,25.47-53.6,27.99-46.75,65.87c-1.43,5.5-4.01,10.58-8.51,13.92
			c-15.1,11.2-31.65,19-50.88,19.72c15.47,2.77,32.15-2.74,46.64,6.99c11.53,7.74,20.19,18.01,17.4,32.22
			c-4.52,23.08-17.22,41.92-40.26,49.25c-33.6,10.69-68.45,16.19-103.69,18.65c-9.82,1.48-20.43-2.39-29.47,4.43
			C729.68,568.38,713.95,583.66,698.21,598.95z"/>
		<path class="st3" d="M599.53,146.61c13.72,11.49,18.58,27.48,22.31,44.03c16.06,19.77,14.19,42.06,6.24,63.5
			c-15.98,43.1-15.13,87.52-13.44,132.15c-6.52,53.5-56.38,44.83-88.57,61.64c-5.94-1.51-10.46-4.9-13.65-10.12
			c-8.74-17.31-9-36.23-7.65-54.57c4.6-62.41-27.25-110.34-61.08-157.4c-15.39-21.41-32.66-41.4-21.36-70.48
			c29.74-22.74,41.04,8.55,58.19,20.7c23.86,16.9,36.48,58.37,63.66,56.66c32.93-2.07,22.32-48.6,39.82-71.01
			C588.57,155.88,592.56,149.83,599.53,146.61z"/>
		<path class="st4" d="M474.84,419.59c-24.71-79.83-79.58-135.31-146.27-181.23c-0.28-48.51-6.1-95.73-32.26-138.23
			c19.88-10.76,38.37-2.01,57.13,3.83c5.46,2.13,10.46,5.05,15.13,8.56c55.31,65.65,101.49,136.48,123.59,220.72
			c7.14,27.19,12.72,54.49-1.71,81.3C486.3,419.44,481.09,421.12,474.84,419.59z"/>
		<path class="st5" d="M599.53,146.61c-8.17,28.72-16.84,57.31-24.27,86.22c-3.56,13.86-9.2,24.89-24.33,27.15
			c-15.39,2.3-23.03-8.14-31.08-19.37c-25.2-35.17-55.28-65.74-90.48-91.1c-17.96,5.64-24.78-7.34-32.31-19.23
			c-5.95-15.37-12.91-30.7-4.72-47.48c36.07-12.19,62.3,11.48,83.62,31.12c42.95,39.57,38,6.84,38.96-21.65
			c5.26-12.13,8.5-26.78,27.3-22.26C568.11,90.47,588.1,115.34,599.53,146.61z"/>
		<path class="st6" d="M38.99,914.99c-10.83-19.57-37.05-29.27-36.18-56.35c79.13-37.2,161.71-32.46,244.99-20.31
			c28.81,23.61,57.07,47.55,43.22,91.38c-28.8,17.16-58.21,10.31-87.63,2.24c-32.53-9.52-65.32-13.7-98.71-4.13
			c-14.4,1.44-28.77,1.54-43.14-0.48C52.67,925.7,44.68,922.42,38.99,914.99z"/>
		<path class="st7" d="M631.91,982.37c0.16-3.67,0.24-7.34,0.23-11.01c8.97-22.71,8.49-45.46,0.32-68.25
			c-3.76-3.83-7.52-7.66-11.28-11.49c-10.65-5.21-18.51-11.59-10.45-24.7c30.19-2.82,59.98-9.9,90.57-9.07
			c47.17,62.51,25.82,127.39,6.65,192.2c-2.33,4.33-4.99,8.44-8.02,12.3c0.17,3.84-1.23,6.98-4.21,9.41
			c-41.53-2.7-48.01-43.23-71.11-65.87C623.38,996.91,625.77,989.06,631.91,982.37z"/>
		<path class="st8" d="M69.39,747.5c23.24-37.16,67.72-45.14,98.63-71.77c9.79,4.03,14.36-3.91,20.2-8.99
			c8.26-7.93,16.11-16.4,28.09-18.59c9.93-0.72,18.47,1.75,24.04,10.74c3.58,7.35-6.81,13.04-3.24,19.04
			c1.95,3.27,4.29-6.93,9.76-4.27c4.94,1.8,9.1,4.46,12.9,8.01c12.43,12.95,22.3,26.64,15.07,45.99
			c-45.14,61.06-143.01,78.61-220.68,39.68c2.32-3.46,4.63-6.92,6.95-10.38C62.77,752.83,65.48,749.64,69.39,747.5z"/>
		<path class="st9" d="M1041.6,112.99c40.03,12.54,67.7,36.64,74.71,80.01c10.13,19.68,6.17,36.85-11.7,48.96
			c-18.74,12.7-35.7,3.1-51.42-8.15c-10.65-7.62-20.6-16.17-31.19-23.78c-8.3-5.66-16.63-11.37-25.68-15.86
			c-4.49-1.87-8.9-3.92-13.38-5.8c-14.1-5.35-29.61-5.71-43.46-12.17c-13.65-9.01-31.96-14.68-26.97-37.19
			C952.85,116.97,994.98,103.81,1041.6,112.99z"/>
		<path class="st10" d="M913.94,150.07c10.96,7.16,21.92,14.31,32.88,21.47c-62.91,40.22-61.19,37.99,1.93,86.77
			c24.24,18.73,64.39,9.89,76.04,46.89c-9.97,4.87-19.93,9.75-29.89,14.63c-25.17-14.58-53.99-12.44-80.44-11.73
			c-47.07,1.26-67.84-42.2-106-55.55c-12.27-4.29,0.83-20.8,6.23-28.06c16.5-22.15,35.58-42.38,53.66-63.35
			C881.07,147.26,895.44,140.13,913.94,150.07z"/>
		<path class="st11" d="M631.49,745.15c10.82,17.54,13.06,36.87,11.87,56.92c-19.91,14.91-37.06,3.93-54.32-5.68
			c-7.11-7.06-6.04-27.8-25.97-13.11c-15.56,11.47-34.91,10.99-53.54,8.03c-19.38-3.08-33.77-13.67-23.58-33.82
			c33.22-65.69,69.23-129.96,89.38-201.48c1.2-4.27,9.57-3.69,14.9-0.98c3.75,4.41,6.4,9.34,8.11,14.85
			c4.52,25.7,6.01,51.32-1.55,76.67c-10.12,34.34-3.84,64.25,24.17,88.22l-0.43-0.35C624,738.2,627.64,741.79,631.49,745.15z"/>
		<path class="st12" d="M294.4,105.42c67.63,29.86,50.73,81.44,34.16,132.94c-30.16-14.76-60.32-29.52-90.49-44.27
			c-13.01-27.42-9.25-59.61-24.56-86.44c11.83-17.37,29.93-17.03,47.91-17.26C274.21,91.5,286.25,94.21,294.4,105.42z"/>
		<path class="st13" d="M54.16,767.32c35.55,0.36,71.37-1.93,106.58,1.72c50.84,5.27,86.83-13.36,111.02-57.31
			c16.87-6.08,29.17,0.52,39.01,14.05c3.44,8.87,3.64,17.92,1.5,27.11c-13.3,44.62-48.66,51.35-88.45,53.42
			c-59.05,3.07-118.89,2.06-175.11,25.13c-12.96,11.9-23.84,30-45.72,15.61C1.4,808.51,30.6,789.72,54.16,767.32z"/>
		<path class="st14" d="M676.37,236.45c44.31-52.48,89.14-104.36,153.66-133.58c19.45-4.18,42.68-15.25,39.57,21.73
			c-4.52,19-20.72,26.5-35.23,35.69l-0.13,0.14c-3.57,3.9-7.11,7.83-11.6,10.73l-0.27-0.1c-7.05,9.49-16.1,16.54-26.55,21.95
			c-3.99,2.6-8.11,4.94-12.24,7.35c-4.06,2.83-8.21,5.39-12.38,8.02c-31.75,22.99-57.71,51.63-82.46,81.67
			c-12.3,14.93-21.75,36.26-47.95,28.57c-4.86-7.04-5.74-14.8-4.34-23.03C644.14,272.1,655,250.72,676.37,236.45z"/>
		<path class="st15" d="M474.84,419.59c3.69,0.05,7.39-0.02,11.08-0.22c2.02,0.05,4.05,0.1,6.08,0.11
			c3.99,0.85,7.77,2.28,11.43,4.09c7.64,3.79,10.13,12.35,16.26,17.56c2.43,1.68,5.13,2.4,8.07,2.16
			c23.46,5.58,39.53,18.18,41.88,43.9c-6.37,27.87-13.52,48.06-46.32,19.37c-64.63-56.53-87.72-54.74-150.34,5.27
			c-3.71,3.74-7.74,7.06-11.99,10.16c-4.33,3.05-9.03,5.39-13.95,7.32c-22.47,3.36-45.78,16.8-66.33-5.09
			c-2.33-4.71-3.39-9.72-3.31-14.97c1.78-12.68,5.84-24.63,12.2-35.76c16.32-14.57,7.03-36.79,15.88-53.6
			c9.32-0.15,17.72,1.66,22.61,10.79c18.05,10.07-13.92,44.79,22.55,45.77C387.48,447.52,422.71,415.08,474.84,419.59z"/>
		<path class="st16" d="M1024.79,305.2c-50.57-12.05-92.37-40.93-133.75-70.36c-11.3-8.03-31.93-10.72-28.05-29.77
			c3.33-16.35,21.44-18.47,35.45-22.31c15.95-4.38,32.24-7.53,48.38-11.22c15.53,1.63,33.09-4.86,45.01,11.25
			c-19.69,21.59-26.53,40.3,6.28,57.79c20.18,10.76,45.85,17.37,52.26,45.01C1041.85,292.13,1033.32,298.67,1024.79,305.2z"/>
		<path class="st17" d="M259.68,1063.22c18.86,1.03,41.82,2.47,42.36,25.45c0.58,24.75-24.93,14.84-39.24,18.99
			c-64.2,18.63-128.61,36.03-195.06,9.46c-7.35-18.23-14.7-36.45-22.05-54.68c-12.6-13.46-11.52-28.05-3.6-43.2
			c8.67-8.33,15.64-3.94,22.25,2.96c19.4,50.74,58.81,66.49,108.09,55.45C201.42,1071.16,232.78,1080.41,259.68,1063.22z"/>
		<path class="st18" d="M71.36,1139.46c36.96,15.57,76.91,17.74,113.99,9.48c36.64-8.16,55.77-7.8,55.55,36.22
			c-0.05,10.75,12.83,21.57,19.76,32.35C183.24,1226.25,110.83,1222.82,71.36,1139.46z"/>
		<path class="st19" d="M1050.37,285.6c-22.44-12.86-47.18-23-66.57-39.46c-14.73-12.51-40.77-21.33-39.06-42.14
			c0.68-8.3,30.52-14.2,47.09-21.19c0,0,0.82,0.57,0.82,0.57c5.51,7.14,15.69,4.23,21.78,10.12c18.34,0.41,28.74,13.83,41.27,24.38
			c39.08,32.87,48.31,28.91,60.6-24.85C1146.78,261.22,1090.44,267.61,1050.37,285.6z"/>
		<path class="st20" d="M215.34,115.32c61.2,10.78,15.38,52.45,22.73,78.77c-41.92-7.54-83.87-14.86-125.73-22.72
			c-22.74-4.27-39.53-11.42-11.55-33.55C137.3,121.78,168.7,79.78,215.34,115.32z"/>
		<path class="st21" d="M587.38,789.31c18.66,4.25,37.32,8.51,55.98,12.76c20.6,17.26,48.62,26.8,57.94,55.78
			c-27.62,27.13-59.13,24.42-91.91,11.99c-25.08,9.9-49.26,3.14-73.37-3.9c-4.68-2.72-7.75-6.77-9.17-12
			c12.89-22.59,32.63-41.25,39.57-67.44C573.98,783.19,581.05,783.49,587.38,789.31z"/>
		<path class="st22" d="M766.44,541.85c31.93-7.03,63.64-15.35,95.84-20.73c30.47-5.09,51.82-26.15,43.64-51.08
			c-8.86-26.98-39.08-19.91-62.16-8.15c-7.46,3.8-13.22,15.51-22.76,6.25c-1.04-1.01,8.68-14.33,14.51-20.99
			c20.79-23.73,52.78-25.42,78.66-39.23c18.47,27.52,24.04,57.93,20.16,90.43c-8.17,9.9-0.16,24.5-9.87,33.95l0.2-0.38
			C873.63,562.37,821.22,571.03,766.44,541.85z"/>
		<path class="st23" d="M283.77,509.41c0.36,3.93,0.72,7.86,1.08,11.79c11.58,22.22,14.8,44.01-3.28,64.66
			c-48.25,12.99-70.7,50.75-88.65,92.82c-8.79,3.14-17.99,9.71-24.89-2.97c12.55-65.86,42.7-123.7,80.94-177.87
			C268.91,476.59,280.46,480.57,283.77,509.41z"/>
		<path class="st24" d="M2.97,847.05c16.57,1.03,26.06-8.33,32.52-22.15c68.33-17.01,138.25-20.73,207.98-19.66
			c27.57,0.42,53.09,16.38,66.85,43.97c1.58,5.96,1.24,11.9-0.96,17.67c-27.75,17.08-40.54-11.65-60.09-19.69
			c-74.03-0.23-149.09-14.53-220.82,17.67c-6.34,2.85-17-3.93-25.65-6.23C2.86,854.77,2.92,850.91,2.97,847.05z"/>
		<path class="st25" d="M911.61,588.02c-16.9,32.35-27.99,81.09-64.51,82.91c-27.98,1.39-38.96-48.23-58.54-74.39
			c-4.38-5.85-6.9-13.1-10.27-19.71C825.09,552.52,868.51,568.39,911.61,588.02z"/>
		<path class="st26" d="M911.61,588.02c-45.39,7.67-88.37-13.54-133.32-11.18c-11.84-6.7-16.36-23.56-32.9-23.73
			c7.03-3.75,14.04-7.49,21.04-11.25c53.3,5.57,105.73-2.63,158.23-9.93C928.51,552.53,916.6,569.47,911.61,588.02z"/>
		<path class="st27" d="M645.31,296.2c-1.5,7.45-3,14.9-4.5,22.35c6.1,29.44-7.9,52.12-24.79,73.86c-2.32,1.37-4.67,2.71-7.03,4.04
			c-21.73-40.83-15.97-83.98-2.61-123.99c9.12-27.29,14.93-53.62,15.45-81.8c17.94-11.62,7.3-30.18,10.95-45.27
			c3.18-13.16,7.36-21.77,19.73-6.55C649.63,191.27,663.8,244.49,645.31,296.2z"/>
		<path class="st28" d="M518.73,94.51c28.49,18.53-12.51,55.42,19.31,73.07c-1.64,2.74-3.27,5.47-4.91,8.21
			c-4.55-3.16-9.86-5.62-13.54-9.58c-35.03-37.67-77.95-63.52-124.5-84.07c-5.46,2.91-9.83,1.75-13.14-3.49
			c5.21-20.51,19.76-23.56,37.73-20.21c6.9,0.22,13.8,0.44,20.7,0.66c22.46-9.76,39.88,2.95,57.98,12.86
			C506.81,77.96,515.02,84.22,518.73,94.51z"/>
		<path class="st29" d="M834.38,160.29c7.62-10.85,15.24-21.71,22.85-32.56c10-8.67,22.07-13.56,34.31-17.64
			c27.12-9.05,27.21-8.78,9.05-26.07c37-23.45,71.36-18.72,103.53,9.51c12.49,6.49,24.97,12.99,37.47,19.47
			c-42.54,12.35-85.1,24.7-127.65,37.07c-15.19,3.7-30.39,7.38-45.59,11.08C857.03,160.86,845.7,160.58,834.38,160.29z"/>
		<path class="st30" d="M215.34,115.32c-41.86-11.23-75.17,21.07-114.55,22.51c30.68-37.27,65.21-68.92,114.85-78.43
			c15.73,14.2,58.07,1.11,45.48,44.36C245.56,106.4,227.56,99.4,215.34,115.32z"/>
		<path class="st31" d="M384.59,81.58c3.5,0.2,7.01,0.38,10.51,0.55c3.77,14.93,7.54,29.86,11.31,44.79
			c-19.63,15.64-30.36-5.23-44.8-10.91c-3.59-0.1-7.17-0.37-10.73-0.78c-19.57-14.01-39.43-26.22-64.03-31.31
			c-15.79-3.27-40.95-6.15-25.79-35.06c38.09-5.64,75.94-22.43,114.56-2.37C355.73,64.04,375.84,71.36,384.59,81.58z"/>
		<path class="st32" d="M631.92,1004.9c31.69,12.34,40.77,46.27,63.81,66.87c-13.16,26.08-36.09,39.78-62.36,49.24
			c-0.48-4.94-0.97-9.89-1.46-14.84c-14.3-19.54-18.22-43.07-23.7-65.65C603.73,1022.05,603.36,1002.95,631.92,1004.9z"/>
		<path class="st33" d="M58.69,1026.36c-4.02-3.43-8.04-6.87-12.06-10.3c-11.02,2.54-22.89,8.66-29.64-7.01
			c-3.75-15.95,7.92-32.7-2.56-48.3C12.75,940.21,31.26,930.5,38.98,915c6.36,0.11,12.7,0.22,19.05,0.33
			c12.24,12.18,23.41,25.11,29.05,41.91c0.85,4.97,0.9,9.96,0.35,14.96c-7.45,18.8,4.07,40.3-8.17,58.44
			C71.43,1033.89,64.29,1033.8,58.69,1026.36z"/>
		<path class="st34" d="M1004.12,93.53c-34.4,1.23-67.98-25.26-103-3.08c-18.37,19.17-36.62,12.51-54.84-0.26
			c33.14-26.67,75.22-28.61,113.63-40.35C999.22,37.82,1022.32,45.64,1004.12,93.53z"/>
		<path class="st35" d="M496.42,82.29c-18.68-7.73-37.36-15.46-56.03-23.19c5.72-20.65-28.51-39.76-12.39-51.96
			C445.35-6,466.71,19.17,486.75,26.33c8.1,2.89,14.49,10.57,21.66,16.07C515.03,58.89,526.26,76.76,496.42,82.29z"/>
		<path class="st36" d="M261.05,48.86c2.4,28.87,26.42,18.23,42.06,23.22c22.3,7.12,35.69,24.49,47.76,43.15
			c-18.82-3.28-37.65-6.56-56.47-9.82c-11.09-0.54-22.19-1.09-33.28-1.65c1.52-31.9-47.63-11.81-45.47-44.36
			C229.5,50.36,244.47,46.13,261.05,48.86z"/>
		<path class="st3" d="M645.31,296.2c-0.1-52.56-13.99-105.76,7.21-157.35c22.68,28.94,6.33,67.42,23.85,97.61
			C666.02,256.37,655.67,276.28,645.31,296.2z"/>
		<path class="st37" d="M846.27,90.19c18.28,0.1,36.56,0.19,54.84,0.27c14.94,8.11,43.38-8.54,45.61,12.56
			c1.81,17.08-26.68,11.71-41.39,16.5c-15.31,4.98-32.01,5.64-48.1,8.2c12.32-31.66-14.04-21.03-27.19-24.85
			C835.44,98.65,840.86,94.42,846.27,90.19z"/>
		<path class="st38" d="M283.77,509.41c-7.64-15.78-19.01-20.31-34.8-11.56c-18.49-29.42,0.85-43.22,23.05-55.84
			c36.29-8.21,31.03,11.57,22.58,33.51C293.64,487.66,296.82,501.13,283.77,509.41z"/>
		<path class="st5" d="M384.59,81.58c-3.73,0-7.53,0.44-11.18-0.08c-16.31-2.32-38.95-4.7-36.76-23.8
			c1.91-16.69,25.82-5.95,38.96-11.21c15.1,2.48,32.22-2.54,44.07,11.94C407.99,66.15,396.29,73.87,384.59,81.58z"/>
		<path class="st39" d="M24.7,1016.45c7.28-1.57,14.39-12.8,21.92-0.39c-0.31,15.46-0.63,30.92-0.94,46.38
			c-13.64-16.42-31.52,62.64-43.02-1.91C13.06,1047.36,0.16,1022.54,24.7,1016.45z"/>
		<path class="st40" d="M620.97,734.78c-65.29-5.31-35.22-48.76-32.5-81.27c3.92-1.82,6.98-0.76,9.31,2.76
			c3.43,17.91,10.01,34.17,24.31,46.4C621.73,713.38,621.35,724.08,620.97,734.78z"/>
		<path class="st41" d="M294.59,475.51c-0.28-16.05,0.35-32.72-22.58-33.51c6.29-14.75,16.61-23.4,33.48-22.12
			C311.96,440.41,334.78,464.14,294.59,475.51z"/>
		<path class="st42" d="M24.7,1016.45c-10.92,12.9-5.91,33.78-22.04,44.08c-5.42-34.36,5.67-66.77,11.77-99.77
			C32.32,976.65,21.29,997.88,24.7,1016.45z"/>
		<path class="st43" d="M496.42,82.29c14.81-10.03,9.64-26.08,12-39.87c11.99,8.31,27.25,12.63,33.8,27.6
			c-7.83,8.15-15.66,16.31-23.49,24.48C511.29,90.43,503.86,86.36,496.42,82.29z"/>
		<path class="st38" d="M350.65,476.45c-47.47,4.44-11.1-32.45-22.56-45.77C346.36,440.64,331.99,466.69,350.65,476.45z"/>
		<path class="st26" d="M924.47,532.31c-0.18-12.33-1.73-25.06,9.87-33.95C935.52,510.98,936.79,523.62,924.47,532.31z"/>
		<path class="st13" d="M69.39,747.5c-2.76,3.15-5.52,6.3-8.28,9.45C63.87,753.79,66.63,750.65,69.39,747.5z"/>
		<path class="st32" d="M699.93,1062.36c2.67-4.1,5.35-8.2,8.02-12.3C705.28,1054.15,702.61,1058.25,699.93,1062.36z"/>
		<path class="st40" d="M631.49,745.15c-3.65-3.57-7.3-7.15-10.95-10.72C624.19,738,627.84,741.58,631.49,745.15z"/>
		<path class="st44" d="M203.85,916.44c29.01,11.41,59.43,10.84,89.81,10.64c2.44-0.33,4.89-0.66,7.34-1.01
			c12.74-1.61,24.99,0.15,36.78,5.35c4.45,2.72,8.21,6.2,11.41,10.31c14.51,27.42,32.08,53.82,29.52,87.04
			c-43.69,27.97-91.79,24.01-139.99,19.32c-7.5-23.81,39.86-27.87,22.11-48.46c-15.87-18.41-42.42-29.65-69.26-31.76
			c-14.5-1.14-29.77,4.77-43.19-5.4C145.36,921.2,185.6,932.07,203.85,916.44z"/>
		<path class="st45" d="M609.22,913c20.04,21.38,13.06,31.91-13.83,34.47c-18.1,1.72-44.84-6.93-52.15,10.45
			c-29.18,69.45-96.64,50.51-147.52,69.33c-16.06-31.65-5.2-61.24,6.89-90.75c22.64-20.13,53.1-9.93,78.28-20.28
			C523.29,901.18,566.08,899.75,609.22,913z"/>
		<path class="st46" d="M148.29,960.18c49-24.84,86.85,12.95,129.11,24.12c25.27,6.68,17.64,24.68,3.03,37.01
			c-12.52,10.56-27.7,17.97-41.7,26.77c-8,1.3-16.01,2.61-24.01,3.91c-24.85,17.79-48.96,13.87-72.71-2.37
			C103.27,995.99,104.05,984.96,148.29,960.18z"/>
		<path class="st47" d="M609.22,913c-38.04,24.79-82.78-6.99-121.23,14.35c-12.42,5.86-26.1,7.05-37.33,0.25
			c-37.16-22.51-76.92-33.43-120.28-34.5c-12.03-0.3-26.2-5.07-24.88-23.06l0.81-1.54c73.74-26.8,149.27-13.23,224.34-9.97
			c26.58,1.44,54.1-3.66,78.74,11.3c3.93,7.27,7.85,14.54,11.79,21.8C612.56,896.16,609.57,903.84,609.22,913z"/>
		<path class="st48" d="M147.24,1041.9c21.06,12.93,45.2,5.28,67.47,10.1c12.68,13.02,30.08,7.09,44.97,11.21
			c-46.46,33.27-98.96,38.66-152.22,26.62c-29.84-6.75-53.51-26.21-48.79-63.46c7.33-0.16,14.66-0.31,21.98-0.47
			c13.24-6.32,26.4-1.92,39.59,0.25C129.95,1030.18,141.42,1031.22,147.24,1041.9z"/>
		<path class="st49" d="M599.89,1095.47c-4.23,8.14,4.23,28.23-12.77,23.34c-39.38-11.33-61.03-99.89-33.4-130.45
			c12.77-14.13,26.85-24.43,34.02,5.05C614.23,1024.76,620.15,1058.56,599.89,1095.47z"/>
		<path class="st50" d="M409.74,938.14c-4.67,29.7-9.35,59.41-14.02,89.11c-4.86,9.84-11.06,4.31-17.02,1.51
			c-18.75-28-31.16-58.62-37.73-91.65C364.17,918.71,387.11,918.3,409.74,938.14z"/>
		<path class="st47" d="M599.89,1095.47c-4.58-33.96,5.34-69.64-12.16-102.06c14.73-3.68,29.45-7.36,44.18-11.04
			c0,7.51,0,15.02,0,22.52c-18.62,7.61-19.77,20.26-10.16,35.8c12.64,20.42,10.06,43.14,10.15,65.47
			C621.24,1102.6,610.56,1099.04,599.89,1095.47z"/>
		<path class="st47" d="M632.46,903.12c15.69,22.82,16.3,45.57-0.32,68.25C632.25,948.62,632.36,925.87,632.46,903.12z"/>
		<path class="st29" d="M597.79,656.27c-3.11-0.9-6.22-1.81-9.32-2.76c0.18-29.14,0.36-58.28,0.54-87.42
			c10.52,7.48,16.67,6.74,18.9-1.48c21.88-80.75,23.35-167.12,67.84-241.7c24.17-40.51,48.38-80.24,95.93-97.41
			c2.49,1.09,4.96,2.2,7.44,3.32c-50.3,63.61-86.69,136.43-98.05,214.8c-9.87,68.07-31.14,128.89-61.24,188.72
			C614.52,642.89,608.34,651.23,597.79,656.27z"/>
		<path class="st29" d="M789.64,183.39c10.92-4.1,21.84-8.2,32.75-12.31c-0.38,29.78-23.57,42.46-43.28,57.75
			c0.01,0.01-1.34-1.02-1.34-1.02c-9.51-11.28-8.34-22.42,0.44-33.46l0,0.02C782,190.67,786.02,187.23,789.64,183.39z"/>
		<path class="st29" d="M822.65,171.16c3.87-3.58,7.73-7.15,11.6-10.73C830.38,164.01,826.52,167.59,822.65,171.16z"/>
		<path class="st51" d="M361.6,116.01c14.94,3.64,29.87,7.27,44.8,10.91c7.65,7.53,15.31,15.06,22.96,22.59
			c0.01,18.48-1.51,36.81,13.19,52.15c64.44,67.21,87.62,147.99,77.12,239.48c-7.53-3.81-15.05-7.61-22.58-11.42
			c-4.1-3.18-7.93-6.66-11.43-10.49c0,0,0.24,0.14,0.24,0.14c3.99-98.43-34.83-181.12-93.64-256.73
			C380.89,148,371.77,131.6,361.6,116.01z"/>
		<path class="st52" d="M561.57,488.06c-11.27-14.93-22.54-29.86-33.81-44.78c20.76-26.56,59.58-21.8,81.24-46.83
			c0,0,0.1,0.06,0.1,0.06c23.29-0.82,22,17.31,19.57,30.35c-6.26,33.61-7.35,69.99-37.51,94.28c-5.09,2.46-10.48,2.98-16.02,1.88
			c-6.64-5.08-10.15-12.23-12.66-19.96C560.2,498.21,559.9,493.19,561.57,488.06z"/>
		<path class="st53" d="M409.74,938.14c-22.93-0.34-45.85-0.69-68.78-1.03c0,0-2.09-0.14-2.09-0.14
			c-13.25-11.66-31.81,0.28-45.32-10.21c0,0,0.12,0.32,0.12,0.32c-14.8-26.62-29.6-53.25-44.39-79.88
			c21.63,0.51,37.45,15.3,56.22,22.86c8.15,3.62,16.38,10.52,24.43,10.3c46.87-1.24,92.69-2.78,126.3,39.97
			c5.18,6.59,20.9,4.89,31.75,7.02C463.61,943.29,435.13,929.53,409.74,938.14z"/>
		<path class="st54" d="M147.24,1041.9c-10.85-1.31-21.69-2.62-32.54-3.94c-23.98-15.82-39-36.29-34.7-66.81
			c1.45-3,2.12-6.16,2.03-9.49c3.23-17.31,3.76-35.9,21.81-46.21c33.5-16.58,66.76-7.83,100.01,0.97
			c-10.3,25.03-42.54,22.18-55.57,43.75C108.56,986.92,133.87,1014.49,147.24,1041.9z"/>
		<path class="st55" d="M103.84,915.46c-3.37,17.25-8.99,33.43-21.81,46.21c-11.97-13.39-28.8-24.27-23.99-46.35
			C73.3,915.37,88.57,915.42,103.84,915.46z"/>
		<path class="st38" d="M269.33,589.68c13.21-21,13.76-44.88,15.51-68.48c21.94,11.51,43.68-5.76,65.58-0.48
			c8.31,26.14-12.1,50.25-5.27,76.33c-18.01,40.21-13.73,88.16-43.13,124.4c-10.09-3.24-20.18-6.48-30.27-9.72
			c-7.24-11.7-27.38-13.5-25.01-32.58c-5.6-13.01-2.18-26.27-1.21-39.5C249.66,621.19,252.33,602,269.33,589.68z"/>
		<path class="st56" d="M269.33,589.68c-4.24,18.03-8.48,36.05-12.71,54.08c-14.76,2.2-31.61-2.87-42.64,12.28
			c-7.02,7.55-14.05,15.1-21.07,22.65c0.42-30.96,15.58-56.24,32.06-80.67C236.42,581.04,250.37,570.1,269.33,589.68z"/>
		<path class="st57" d="M213.98,656.03c2.29-14.2,5.52-28.73,21.95-32.12c14.45-2.99,12.58,14.34,20.69,19.85
			c-3.29,11.79-6.58,23.58-9.87,35.38c0,0.01-3.09-0.26-3.09-0.26l-3.09,0.26c-7.45-2.4-8.55-6.51-3.31-12.32
			C232.9,655.89,223.28,656.3,213.98,656.03z"/>
		<path class="st58" d="M193.52,712.34c6.38-15.79,19.43-11.81,31.34-10.08c1.58,0.23,3.88,6.76,3.59,6.95
			c-11.39,7.52-23.69,3.81-35.82,2.44L193.52,712.34z"/>
		<path class="st59" d="M237.26,666.82c1.1,4.1,2.21,8.2,3.31,12.31c-4.21,7.67-10.74,11.9-15.05,2.02
			C222.36,673.9,228.2,667.5,237.26,666.82z"/>
		<path class="st60" d="M192.63,711.65c-1.09,2.67-2.18,5.33-3.26,8c-8-7.76,2.32-5.13,4.15-7.31
			C193.52,712.34,192.63,711.65,192.63,711.65z"/>
		<path class="st16" d="M1014.43,193.48c-9.14,0.66-17.18-1.04-21.79-10.12C1001.62,183.07,1009.6,184.89,1014.43,193.48z"/>
		<path class="st61" d="M336.74,588.16c-21.53-27.77,9.16-44.95,13.68-67.43c0,0,0.04,0,0.04,0c4.36-3.1,7.3-7.61,11.08-11.28
			c62.22-76.02,107.83-81.44,171.32-11.75c28.21,30.97,18.27-10.73,28.71-9.63c2.29,2.9,3.45,6.2,3.48,9.89
			c2.9,3.46,5.45,7.16,7.61,11.13c1.98,3.52,3.97,7.05,5.95,10.57c12.39,9.83,20.33,20.47,6.39,35.09
			c-9.04,63.89-39.97,119.1-69.12,175.05c-7.78,14.93-33.97,32.32-15.29,45.06c14.8,10.1,48.18,17.93,63.12-12.21
			c9.5-19.17,18.81-12.72,30.32-3.53c18.59,14.84-0.98,20.91-6.65,30.2c-7.66,0.94-15.32,1.88-22.97,2.82
			c-43.33,25.73-89.04,15.75-134.51,9.06c-26.3-14.15-10.9-29.51-1.35-44.76c18.86-18.73,35.91-38.99,49.04-62.3
			c16.09-21.18,16.27-47.23,21.64-71.68c3.49-12.76,4.61-25.31,1.66-38.63c-14.92-67.5-60.22-82.5-114.51-38.4
			C369.4,559.22,362.03,584.16,336.74,588.16z"/>
		<path class="st62" d="M585.01,554.74c-2.13-11.7-4.26-23.39-6.39-35.09c27.95-36.63,46-75.72,30.5-123.13
			c10.58-26,21.16-52,31.72-77.98c39.12-20.94,52.3-66.68,87.62-91.59c16.26-11.46,26.09-32.42,49.75-32.62
			c-0.14,11.16-0.28,22.31-0.43,33.47c-83.55,63.42-126.11,148.15-135.4,252.13c-2.6,29.11-14.57,57.49-23.22,85.91
			c-3.58,11.76-9.73,22.74-14.71,34.08c-5.15-11.28-10.3-22.56-15.45-33.84C587.67,562.31,586.34,558.53,585.01,554.74z"/>
		<path class="st63" d="M336.74,588.16c10.81-15.01,19.57-32.24,32.86-44.59c28.6-26.59,61.17-58.44,102.27-33.11
			c39.07,24.08,52.26,64.87,36.21,111.12c-72.51-10.1-103.51,18.13-109.91,92.8c-2.42,28.28,19.69,53.28,6.27,81.42
			c-18.94,11.43-38.8,10.14-59.02,4.53c-23.06-11.22-35.6-29.95-39.05-55.1c-1.44-7.94-2.89-15.87-4.34-23.79
			C301.8,673.95,320.28,631.31,336.74,588.16z"/>
		<path class="st64" d="M306.37,745.22c18.93,9.54,23.13,29.96,33.69,45.68c1.71,32.54,20.02,40.42,50.73,41.92
			c46.67,2.27,95.9-14.76,139.81,14.53c0.02,3.73,0.03,7.46,0.05,11.19c-73.93,22.54-149.57,6.7-224.34,9.98
			c-19.59-47.86-61.84-61.34-104.58-52.56c-55.76,11.45-110.89,6.12-166.23,8.93c1.62-15.65,10.67-21.75,26.01-22.7
			c53.41-3.32,106.77-10.36,160.14-10.28C260.82,791.98,290.08,782.62,306.37,745.22z"/>
		<path class="st62" d="M789.64,183.39c-3.81,3.66-7.62,7.31-11.43,10.97C782.02,190.7,785.83,187.04,789.64,183.39z"/>
		<path class="st38" d="M361.55,509.44c-3.69,3.76-7.39,7.52-11.08,11.28C354.16,516.96,357.85,513.2,361.55,509.44z"/>
		<path class="st4" d="M485.67,419.23c3.81,3.5,7.62,7,11.43,10.5C493.29,426.22,489.48,422.73,485.67,419.23z"/>
		<path class="st65" d="M530.6,847.35c-53.77,0.01-107.55,0.49-161.32-0.27c-15.93-0.23-35.92,7.56-46.8-8.43
			c-14.5-21.3,11.51-31.7,17.57-47.75c21.7-1.07,43.38-2.15,65.07-3.22c3.55-2.74,7.1-2.87,10.65,0
			c49.36,7.88,99.44-8.51,148.64,4.45C583.86,829.35,559.52,839.75,530.6,847.35z"/>
		<path class="st55" d="M80,971.16c11.57,22.27,23.13,44.54,34.7,66.81c-13.72,2.68-23.54-5.63-34.04-12.06
			C71.77,1007.76,59.82,989.65,80,971.16z"/>
		<path class="st6" d="M293.55,926.75c15.78,0.44,33.23-6.52,45.33,10.22C323.75,933.63,306.31,940.56,293.55,926.75z"/>
		<path class="st15" d="M572.66,509.08c-2.54-3.71-5.08-7.43-7.61-11.13C567.59,501.66,570.13,505.37,572.66,509.08z"/>
		<path class="st66" d="M415.77,787.68l-5.3,0.68c0,0-5.3-0.63-5.33-0.66c-36.81-55.16-26.28-137.61,24.68-177.17
			c28.04-21.77,55.64-17.29,78.25,11.04c2.61,29.69,0.19,57.96-22.77,80.41c-20.21-7.03-4.83-56.23-39.58-39.5
			c-27.86,13.41-29.45,45.6-18.73,74.51c3.12,8.43,12.24,14.12,14.34,23.72C432.81,769.71,424.29,778.7,415.77,787.68z"/>
		<path class="st67" d="M441.34,760.73c-37.37-0.94-39.43-27.04-36.38-54.03c3.45-30.47,15.89-65.11,46.04-68.62
			c48.46-5.63,28.24,39.05,34.31,63.9C474.38,724.36,464.12,747.23,441.34,760.73z"/>
		<path class="st68" d="M446.45,719.75c-14.07,1.18-18.36-6.35-17.83-16.55c0.53-10.12-1.64-21.56,16.94-20.49
			c10.54,0.61,16.81-1.69,17.18,11.47C463.13,707.65,453.15,713.08,446.45,719.75z"/>
	</g>
</g>
</svg>
