<?xml version="1.0" encoding="utf-8"?>
<!-- Generator: Adobe Illustrator 23.1.0, SVG Export Plug-In . SVG Version: 6.00 Build 0)  -->
<svg version="1.1" id="Calque_1" xmlns="http://www.w3.org/2000/svg" xmlns:xlink="http://www.w3.org/1999/xlink" x="0px" y="0px"
	 viewBox="0 0 1125 1160.04" style="enable-background:new 0 0 1125 1160.04;" xml:space="preserve">
<style type="text/css">
	.st0{fill:#010261;}
	.st1{fill:#F7C891;}
	.st2{fill:#00023E;}
	.st3{fill:#FEE6B3;}
	.st4{fill:#FCDBB7;}
	.st5{fill:#0106D5;}
	.st6{fill:#000183;}
	.st7{fill:#FCF6CC;}
	.st8{fill:#002BEC;}
	.st9{fill:#0607EF;}
	.st10{fill:#0A05FC;}
	.st11{fill:#010356;}
	.st12{fill:#0942F4;}
	.st13{fill:#0205FA;}
	.st14{fill:#FDDFB4;}
	.st15{fill:#01033D;}
	.st16{fill:#C45906;}
	.st17{fill:#F6F417;}
	.st18{fill:#DE9F65;}
	.st19{fill:#FED5AA;}
	.st20{fill:#BD8A55;}
	.st21{fill:#010659;}
	.st22{fill:#FAAF76;}
	.st23{fill:#FBB994;}
	.st24{fill:#F0B06B;}
	.st25{fill:#013CB6;}
	.st26{fill:#02042F;}
	.st27{fill:#000095;}
	.st28{fill:#FEF0C3;}
	.st29{fill:#0704F4;}
	.st30{fill:#FAC39A;}
	.st31{fill:#262EFA;}
	.st32{fill:#0001BB;}
	.st33{fill:#F9B475;}
	.st34{fill:#0503A5;}
	.st35{fill:#E0DF03;}
	.st36{fill:#007D2E;}
	.st37{fill:#583705;}
	.st38{fill:#DFF655;}
	.st39{fill:#D3DAF6;}
	.st40{fill:#050303;}
	.st41{fill:#F9D6A3;}
	.st42{fill:#D28A58;}
	.st43{fill:#EAEBEB;}
	.st44{fill:#985D37;}
	.st45{fill:#0150FA;}
	.st46{fill:#0076FE;}
	.st47{fill:#415EFE;}
	.st48{fill:#0C6BFE;}
	.st49{fill:#3C43FE;}
	.st50{fill:#305FFE;}
	.st51{fill:#00D17F;}
	.st52{fill:#0000C8;}
	.st53{fill:#D5915B;}
	.st54{fill:#04030D;}
	.st55{fill:#EBA668;}
	.st56{fill:#EBB679;}
	.st57{fill:#0301A4;}
	.st58{fill:#EED2AA;}
	.st59{fill:#B1814C;}
	.st60{fill:#000091;}
	.st61{fill:#000278;}
	.st62{fill:#162F2D;}
	.st63{fill:#FCD8A9;}
	.st64{fill:#FAC78E;}
	.st65{fill:#0505DA;}
	.st66{fill:#E8E8EF;}
	.st67{fill:#0A0DE8;}
	.st68{fill:#21B4FE;}
</style>
<g>
	<g>
		<path class="st0" d="M1065.99,455.41c-18.18,22.43-50.46-1.14-68.71,21.06c-15,12.23-26.03,4.47-36.28-7.15
			c-6.13-24.57,13.79-36.72,25.36-52.87c22.72-31.72,36.01-61.4-6.06-90.42c-13.62-9.39-29.42-25.72-14.56-47.52
			c11.13-2.64,21.9-2.97,31.57,4.47c35.54,1.15,54.18,32.29,82.42,46.44c1.95,3.62,3.89,7.22,5.83,10.82
			C1082.82,379.27,1092.12,420.35,1065.99,455.41z"/>
		<path class="st1" d="M183.43,1053.35c-14.63-1.14-16.69-30.57-37.96-16.9c-9.14-3.65-10.11-11.83-11.19-19.94
			c-9.47-37.22,12.63-48.25,43.27-52.28c23.75-1.39,37.73,12.88,49.37,30.89c4.13,7.18,6.99,14.83,7.66,23.13
			C232.27,1051.28,196.57,1035.91,183.43,1053.35z"/>
		<path class="st2" d="M1065.99,455.41c-2.37-39.9,3.97-78.32,19.57-115.17c4.91,8.21,9.82,16.42,14.73,24.63
			C1092.85,396.56,1123.16,442.56,1065.99,455.41z"/>
		<path class="st3" d="M184.35,970.14c-16.92,15.19-52.38,10.39-50.05,46.37c-10.26-15.78-20.51-31.55-30.75-47.32
			c0.09-3.82,0.92-7.46,2.49-10.94C151.11,925.68,160.45,927.1,184.35,970.14z"/>
		<path class="st4" d="M127.28,651.48c-10.97-59.51,40.87-92.4,59.13-139.51c8.34-20.64,25.83-24.76,45.38-25.25
			c46.43,3.44,85.89,30.9,131.3,38.08c36.37,10.63,73.63,3.88,110.42,5.83c20.34,1.08,40.96,0.22,58.03,14.29
			c50.62,57.16,25.79,110.85-7.59,164.19c-29.74,19.97-62.09,33.29-97.96,37.26c-29.92-7.03-38.81-30.23-37.55-56.25
			c3.12-64.76-38.76-83.76-106.53-64c-37.07,10.81-71.61,37.01-112.67,14.51C154.83,642.62,143.41,656.4,127.28,651.48z"/>
		<path class="st5" d="M355.19,363.03c86.71-36.65,175.82-25.82,265.01-13.43c9.03-7.08,19.25-8.55,30.24-6.5
			c12.7,2.99,24.97,7.45,37.38,11.47c12.23,4.36,24.73,8,36.86,12.77c9.85,4.45,19.04,9.77,24.9,19.34
			c2.3,7.45,3.33,15.65-1.88,21.54c-9.89,11.19-25.9,15.62,6.05,21.54c39.21,7.28,43.27,58.08,9.19,83.95
			c-20.94,15.9-46.78,24.42-67.45,41.22c-13.41,10.09-26.41,20.87-43.23,25.09c-11.33,2.72-22.86,3.46-34.47,3.46
			c-17.88-0.34-35.32-2.28-49.67-14.61c-13.24-18.36-37.26-28.6-41.18-54.09c21.78-26.6,52.59-14.83,79.71-18.48
			c20.91-2.82,44.62-3.23,49.92-28.79c5.28-25.46-15.97-36.4-34.27-46.48c-52.41-28.87-107.87-44.44-168.63-43.69
			C420.73,377.74,384.93,388.24,355.19,363.03z"/>
		<path class="st6" d="M836.68,19.84c77.15-37,138.99-10.4,193.51,46.59c24.15,80.58-10.79,138.52-71.83,186.05
			c-23.75,18.49-51.77,32.53-62.13,63.9c-9.75,20.45-22.85,38-43.24,49.1c-25.35,5.98-38.24-14.97-55.88-25.83
			c-4.19-3.5-7.41-7.77-9.9-12.6c-0.87-5.41-0.23-10.65,1.82-15.73c23.12-37.91,63.2-57.7,94.4-87.04
			c37.02-34.8,63.79-72.84,66.21-124.84c6.09-17.3-1.53-24.41-18.56-24.57C895.33,63.75,865.97,41.86,836.68,19.84z"/>
		<path class="st7" d="M184.35,970.14c-21.71-32.91-50.31-20.4-78.3-11.88c10.34-51.54-39.77-68.08-59.26-102.35
			c-11.78-14.38-6.48-29.43,1.39-42.04c12.19-19.56,5.97-35.53-5.08-51.88c22.63-30.78,71.54-33.22,82.55-76.54
			c36.62,11.09,64.96,34.2,90.19,61.95c5.58,13.04,11.3,26.16-7.64,33.62c-16.64,2.12-31.48-4.37-46.54-9.73
			c-48.92-16.79-26.24,28.58-37.94,43.93c-8.74,33.82-6.17,67.22,24.99,86.19c28.13,17.13,57.52,5.68,84.76-12.03
			c32.29-21,66.5-40.26,101.34-2.98c2.96,31.54-30.45,22.44-41.97,37.79c-9.48,15.11-29.77,23.89-26.41,46.2
			c5.43,8.06,13.29,13.43,20.53,19.56c8.2,9.82,23.96,18.34,5.82,32.79c-29.59,12.61-51.37-5.19-74.17-19
			C211.93,987.71,200.1,976.93,184.35,970.14z"/>
		<path class="st8" d="M355.19,363.03c94.29-1.05,188.47-6.48,275.94,43.02c27.2,15.4,50.67,33.18,47.49,61.26
			c-3.85,33.99-32.83,45.79-67.93,45.42c-27.36-0.29-56.76-9.87-82.41,8.88c-2.11,2.4-4.21,4.81-6.31,7.23
			c-40.46,11.87-81.97,2.94-122.87,6.15c-15.12-1.28-30.16,10.84-45.35,0.29c-40.97-12.36-81.94-24.71-122.9-37.07
			c-6.04-42.91,24.31-30.64,45.49-28.69c31.22,2.87,57.41,28.87,91.31,20.71c52.19-0.86,105.56,14.27,155.97-11.77
			c19.77-10.21,48.64-16.15,45.92-43.05c-2.13-21.02-26.09-30.29-47.18-35.15c-61.55-14.19-122.92-21.35-183.33,5.19
			c-24.01,9.05-46.68,23.93-74.32,17.35c-5.45-4.7-5.51-9.49-0.19-14.34C288.95,381.76,319.48,367.23,355.19,363.03z"/>
		<path class="st9" d="M836.68,19.84c41.74-3.04,64.54,38.79,103.01,43.51c8.59,10.42,12.85,23.68,22.11,33.66
			c5.7,75.66-47.18,117.01-95.14,160.66c-23.4,21.31-48.98,40.23-73.58,60.23c-10.35,5.37-14.61-1.2-18.14-9.23
			c6.7-33.84,37.74-50.86,53.88-78.2c14.32-15.7,21.37-36.67,36.97-51.46c24.96-22.7,33.73-51.8,19.23-81.11
			c-15.86-32.06-48.85-29.18-79.17-26.06c-11.11,1.14-21.97,4.54-33.36,4.05c-8.83-0.88-16.68-3.71-22.3-11
			C772.4,37.16,803.7,26.89,836.68,19.84z"/>
		<path class="st10" d="M208.64,748.48c-26.48-22.57-64.4-30.08-83.01-63.03c0.55-11.33,1.1-22.65,1.65-33.98
			c11.48-8.77,22.95-17.53,34.43-26.3c55.76,23.07,79.94,76.51,114.48,119.83c7.29,9.14,8.26,22.07-1.59,31.03
			c-9.48,8.62-21.49,6.35-32.06,1.34C228.79,770.86,217.15,761.38,208.64,748.48z"/>
		<path class="st11" d="M882.9,317.24c1.42-25.26,14.96-42.87,36.36-54.3c78.75-42.08,110.88-110.18,110.95-196.52
			c47.21,64.83,34.79,116.61-43.7,182.17C948.06,265.57,931.45,315.51,882.9,317.24z"/>
		<path class="st12" d="M750.19,64.89c9.88,0.45,19.76,0.9,29.63,1.36c11.82,13.14,3.47,25.27-1.71,37.61
			c-8.56,16.47-15.19,34.12-28.04,48.11c-31.5,36.63-51.96,77.26-46.32,127.44c-4.66,11.08-14.11,15.75-24.91,18.62
			c-5.83,0.33-9.99-2.18-12.45-7.5C679.38,209.76,680.64,124.64,750.19,64.89z"/>
		<path class="st13" d="M264.51,408.46c0.23,4.09,0.47,8.19,0.7,12.28c3.37,3.02,6.7,6.08,10.08,9.1
			c4.79,5.07,9.48,10.23,14.51,15.1c20.72,22.31,51.2,29.86,73.96,49.01c1.32,2.16,2.61,4.35,3.89,6.55
			c-32.8,27.61-54.06-13.55-82.66-14.29c-19.88-0.51-43.1-25.46-54.16,12c-14.8,4.59-29.61,9.17-44.43,13.76
			C190.61,460.98,231.83,437.94,264.51,408.46z"/>
		<path class="st14" d="M43.09,761.99c25.74,3.3,39.28,12.89,24.62,41.32c-8.61,16.69-14.06,35.01-20.92,52.59
			C-6.27,804.96-6.61,796.2,43.09,761.99z"/>
		<path class="st15" d="M882.9,317.24c36.11-20.51,55.58-66.12,103.6-68.65c-14.24,17.07,3.68,24.03,10.81,34.39
			c-11.59,0.1-23.18,0.2-34.77,0.3c-13.86,19.43-33.61,33.08-49.36,50.64c-19.79,15.42-32.37,41.18-61.49,43.39
			c-4.79-3.05-6.29-7.17-3.95-12.49C859.46,348.96,871.18,333.1,882.9,317.24z"/>
		<path class="st16" d="M666.39,290.53c2.69,1.3,5.49,2.28,8.41,2.93c25.82,2.37,42.66,16.75,53.15,39.7
			c0.26,31.99-23.89,28.41-44.25,30.35c-11.86-0.54-23.65-1.28-32.06-11.46c3.3-14.91-9.68-24.85-11.63-38.16
			C645.33,302.17,654.15,294.42,666.39,290.53z"/>
		<path class="st17" d="M640.01,313.88c-0.67,14.11,61.8,8.95,11.63,38.16c-10.48-0.81-20.96-1.62-31.44-2.43
			C616.51,331.99,629.54,323.64,640.01,313.88z"/>
		<path class="st18" d="M218.6,1003.75c27.41-5.3,51.14,17.86,78.86,10.21c39.3-5.52,78.38-8.95,114.97,11.67
			c2.08,47.02,31.61,57.94,72.36,56.21c61.47-2.61,117.12-38.68,134.67-88.89c5.02-17.31,18.21-31.54,18.76-50.5
			c8.08-49.42-6.44-85.57-58.39-99.88c-17.8-7.34-39.02-5.87-53.8-20.84c11.15-10.51,12.16-24.6,2.72-38.39
			c23.6-16.84,50.89-11,76.89-12.06c22.99-0.93,45.42-2.21,63.36-19.11c4.73-3.19,9.98-5.1,15.61-5.9
			c49.57,34.77,111.54,57.95,121.11,130.27c2.83,21.42,20.84,17.67,35.43,19.04c6.02,1.41,10.52,4.76,13.7,10.03
			c8.97,41.94,1.27,77.88-36.88,102.91c-9.07,1.41-20.27-3.25-27.1,4.33c-50.04,55.63-119.4,66.51-186.4,87.17
			c-69.57,21.46-138.14,38.63-211.01,33.91c-28.52-1.85-55.53,8.71-83.75,8.13c-13.9-2.56-25.92-8.36-34.57-20
			c-20.84-19.54-17.24-39.94-2.18-60.7c17.99-6.65,35.9,5.6,42.24,3.03c-7.72,2.25-27.05-13.47-46.48-2.77
			c-39.25,9.04-27.55-29.54-41.38-44.25C224.44,1012.84,221.52,1008.29,218.6,1003.75z"/>
		<path class="st19" d="M1053.36,1061.36c-86.29,25.56-172.92,47.27-263.55,22.95c-13.72,3.16-21.38-2.92-24.42-16.04
			c2.92-8.95,9.74-13.38,18.28-15.83c35.47,1.64,49.38-22.07,58.14-50.64c9.41-30.67,17.57-61.8,29.36-91.61
			c21.99-55.59,40.22-61.3,92.72-31.32c18.55,5.73,33.4,16.74,45.46,31.77C1024.58,960.71,1057.46,1005.64,1053.36,1061.36z"/>
		<path class="st20" d="M779.15,1061.4c-3.27,3.89-6.55,7.79-9.82,11.68c-7.84,24.33-25.17,34.33-49.95,33.11
			c-126.98,42.51-256.06,67.46-390.51,46.03c-6.75-1.08-12.78-6.66-19.14-10.15c22.87-19.98,49.48-26.8,79.33-23.12
			c111.73,13.74,210.43-40.53,315.54-61.33c33.18-6.56,51.81-37.29,75.43-59.11c13.75-12.7,28.24-25.94,34.47,6.03
			C823.44,1036.38,800.24,1048.23,779.15,1061.4z"/>
		<path class="st21" d="M846.51,898.22c-3.67,2.53-7.33,5.06-11,7.59c-9.27-1.23-15.09-6.68-18.47-15.11
			c-3.28-10.97-2.52-21.59,2.89-31.73c5.76-10.48,24.4-0.86,26.61-17.19c20.42-71.16,40.67-142.39,66.16-211.52
			c13.73-37.23-19.2-75.1,8.85-108.93c2.74,0.43,5.49,0.87,8.24,1.31c10.14,30.95,34.83,56.63,33.3,91.81
			c18.29,44.38,6.5,91.24,11.27,136.74c-0.04,4.57-0.09,9.14-0.13,13.71c-14.52,28.58-46.37,41.9-61.42,69.99
			C891.88,857.2,874.6,883.39,846.51,898.22z"/>
		<path class="st22" d="M846.51,898.22c15.24-28.11,30.63-56.06,64.42-66.07c16.13-1.13,29.83,1.22,30.84,21.65
			c7.36,8.36,14.73,16.71,22.11,25.07c-50.25-23.48-72.02,0.29-83.53,47.52c-8.47,34.72-21.8,68.27-33,102.32
			c-11.37,34.56-32.46,48.9-68.19,32.69c11.77-18.95,23.55-37.91,35.33-56.86C839.88,973.53,850.28,938.01,846.51,898.22z"/>
		<path class="st23" d="M1053.36,1061.36c-24.2-47.45-42.26-96.7-44.01-150.72c29.81,14.2,51.63,38.42,73.22,61.92
			c14.43,15.7,44.11,26.96,35.79,52.72C1109.45,1052.84,1081.92,1061.47,1053.36,1061.36z"/>
		<path class="st24" d="M227.36,1017.38c30.13-0.99,9.68,43.3,38.74,43.28c3.89-3.9,7.06-3.58,9.42,1.59
			c2.93,19.96-11.18,39.81-0.36,59.82c-36.67-14.77-67.15-37.81-91.73-68.72C181.12,1020.65,227.01,1046.83,227.36,1017.38z"/>
		<path class="st25" d="M941.78,853.79c-10.31-7.22-20.62-14.43-30.89-21.65c-3.16-45.3,43.02-44.12,63.34-67.25
			C972.38,797.8,986.01,836.36,941.78,853.79z"/>
		<path class="st26" d="M974.37,751.19c-24.64-43.86-5.49-91.32-11.27-136.74C993.99,657.8,989.85,704.03,974.37,751.19z"/>
		<path class="st27" d="M962.86,464.28c-14.97-3.62-29.93-7.24-44.9-10.86c-13.74-13.23-40.7,8.14-49.2-18.79
			c10.55-18.11,33.93-16.32,46.75-29.06c14.99-14.89,66.13-34.83-1.29-49.73c-15.26-3.37-9.92-17.7-9.69-28.44
			c16.65-18.24,30.04-40.79,58.02-44.13c7.66,10.64,13.92,22.76,23.23,31.68c50.5,48.35,50.54,70.07-1.08,123.72
			C976.94,446.74,970.11,455.72,962.86,464.28z"/>
		<path class="st28" d="M208.64,748.48c21.58,2.64,43.64,36.6,58.46,18.15c16.27-20.27-18.29-34.63-31.35-50.17
			c-25.23-30.02-40.41-68.22-74.05-91.29c49.84,20.69,92.11-8.96,137.71-19.35c68.1-15.51,100.09,10.29,101.67,80.09
			c0.51,22.71,5.47,40.36,23.46,53.96c-11.63,30.72-44.92,34.95-66.01,54.13c-9.67,5.74-19.86,10.47-30.99,12.28
			c-18.95,3.08-45.73,18.86-52.97,31.84c-32.92-9.8-64.32-21.32-70.19-61.81C218.69,769.01,208.04,757.89,208.64,748.48z"/>
		<path class="st29" d="M359.42,785.73c10.12-31.75,47.99-24.08,65.13-45.84c30.5-11.96,61.01-23.91,91.51-35.87
			c17.51-7.33,35.09-14.35,54.72-12.2c15.54,1.67,31.11,3.42,39.45,19.6c-18.67,44.04-62.03,58.96-97.79,82.89
			c-30.71,9.84-62.02,16.73-94.36,18.4c-11.86,0.19-23.64-0.5-35.23-3.34C370.92,805.6,361.02,799.76,359.42,785.73z"/>
		<path class="st30" d="M574.1,702.26c-19.34,0.58-38.68,1.17-58.03,1.75c20.33-48.61,49.48-96.55,11.37-149.61
			c16.46-10.72,31.36-7.27,45.28,5c11.38,20.62,32.21-0.37,45.82,10.42c4.99,27.34,2.97,54.95,2.41,82.41
			C620.36,682.19,606.28,701.1,574.1,702.26z"/>
		<path class="st31" d="M572.73,559.41c-15.08-1.66-30.16-3.33-45.26-5c-56.43-19.79-118.16,8.67-173.7-19.13
			c12.64-3.73,25.29-7.47,37.94-11.2c45.06,8.55,90.13,8.34,135.2,0.1c0,0,1.37-2.54,1.37-2.55
			C550.44,525.58,565.01,538.47,572.73,559.41z"/>
		<path class="st32" d="M688.01,546.2c18.69-19.45,42.6-29.61,66.64-40.83c21.66-10.11,27.55-28.68,13.21-51.8
			c-15.39-24.82-27.73-20.03-41.69,0.57c-4.43,6.53-12.67,10.37-19.5,5.28c-9.3-6.93-5.66-16.67-1.48-25.58
			c9-19.18,36.69-21.48,40.71-45.14c13.08-11.77,25.11-2.21,37.48,1.7c14.44,7.6,28.83,15.32,36.3,31.08
			c0.68,26.22,4.02,49.94,18.9,74.53c30.75,50.84,22.72,78.11-24.99,123.24C756.93,620.35,726.45,576.45,688.01,546.2z"/>
		<path class="st33" d="M574.1,702.26c32.32-13.25,35.04-39.84,34.5-70.2c-0.37-20.78-14.64-45.07,9.95-62.23
			c11.37-0.18,22.74-0.37,34.11-0.55c16.47,7.05,39.83-1.99,49.41,21.12c1.14,11.39-4.43,17.5-15.41,19.29
			c51.66,58.48-4.52,88.54-33.19,125.92c-17.23,0.13-32.86-3.44-43.37-18.79C601.4,703.83,585.38,708.93,574.1,702.26z"/>
		<path class="st34" d="M698.68,593.7c-15.33-8.14-30.66-16.28-46-24.42c11.77-7.69,23.55-15.39,35.33-23.08
			c51.99,4.84,74.87,62.94,126.2,69c16.28,20.58,7.61,38.37-6.14,55.61C760.4,661.06,731.13,625.12,698.68,593.7z"/>
		<path class="st35" d="M785.23,400.64c-13.12-3.98-26.24-7.95-39.35-11.93c-8.02-4.58-21.94,0.99-23.97-13.92
			c6.93-17.82,19.51-21.08,36.56-15.01c6.53,2.32,9.14-3.3,6.11-12.68c6.03-12.04,10.62-26.17,29.11-20.19
			c2.94,0.68,5.71,1.78,8.32,3.29C827.42,361.08,823.78,385.02,785.23,400.64z"/>
		<path class="st36" d="M765.88,351.04c3.62,6.35,7.24,12.71,10.86,19.06c-5.12,0.82-13.04,4.15-14.9,2.07
			c-14.97-16.74-27.04-3.24-39.91,2.62c-13.88,0.12-27.31-1.28-38.2-11.29c5.18-18.88,40.65-2.31,36.97-31.59
			c6.93-13.22,18.36-12.97,30.63-10.27C764.32,327.4,767.01,338.28,765.88,351.04z"/>
		<path class="st37" d="M785.23,400.64c24.65-18.94,21.28-44.55,16.77-70.43c21.19,3.68,29.03,25,45.74,34.6
			c-0.35,3.74,0.18,7.33,1.61,10.8c3.18,3.74,4.77,8.1,5.1,12.96c-0.01,18.19,10.91,40.29-17.01,48.77
			c-12.11,0.81-16.9-9.47-24.22-15.93C803.89,414.49,794.56,407.57,785.23,400.64z"/>
		<path class="st38" d="M765.88,351.04c-12.79-4.86-6.81-17.37-10.57-25.91c-18.32-4.06-36.19-8.42-21.79-33.67
			c20.04-9.53,33.5,0.06,44.94,15.49c4.87,3.64,9.73,7.28,14.61,10.94c0.9,2.97,1.1,5.98,0.63,9.04
			C784.42,334.96,775.15,343,765.88,351.04z"/>
		<path class="st39" d="M961.79,97c-36.09,7.71-38.63-6.7-22.13-33.64C978.11,54.16,976.76,71.11,961.79,97z"/>
		<path class="st40" d="M204.39,776.33c18.75,24,43.83,40.37,68.63,57.09c28.97,7.43,58.51,7.85,88.13,6.82
			c18.83-0.7,37.2-9.21,56.4-3.53c5.06,2.27,8.69,6,10.9,11.09c-11.95,76.97,0.39,94.13,76.64,106.29
			c83.56-17.92,91.75-27.14,81.91-92.48c-3.56-9.95-8.44-19.86-1.81-30.39c64.73,10.48,76.18,53.81,67.52,109.53
			c-46.87,79.71-178.52,96.84-251,31.71c-26.68-23.97-48.92-52.3-68.83-82.26c-39.42-23.06-70.29-7.84-102.4,18.29
			c-30.94,25.17-69.9,27.69-99.16,0.37c-26.81-25.02-41.58-59.78-15.93-97.18c24.82,22.1,26.27,66.72,69.03,71.43
			c9.13-1.9,18.16-3.89,27.61-9.67c-25.95,4.56-42.76-8.26-56.36-27.16c-16.88-23.46-16.29-48.27-5.65-73.88
			c2.31-4.88,5.58-9.01,9.73-12.44C174.63,765.41,189.51,770.87,204.39,776.33z"/>
		<path class="st41" d="M332.87,890.19c23.68,2.04,35.48,20.57,48.71,36.25c78.29,92.76,187.18,98.68,271.13,14.31
			c4.13,22.19-12.7,35.47-22.08,51.93c-49.27,75.34-142.32,94.96-218.27,46.03c-33.62-29.98-81.28,5.26-114.9-24.74
			c-7.43-6.49-14.85-12.98-22.27-19.46c8.66-13.32,22.95-14.26,36.51-16.75c26.3-4.4,34.74-16.32,12.74-36.33
			c-13.75-12.51-35.24-13.39-48.34-28.1C288.29,889.05,320.23,913.32,332.87,890.19z"/>
		<path class="st42" d="M276.12,913.32c17.55-4.35,32.27,5.05,48.07,9.61c17.48,5.05,30.8,13.63,30.72,33.74
			c-0.09,21.94-10.43,34.83-33.85,34.26c-19.8-17.06-43.91-7.83-66.01-10.81c-17.59-9.97-20.08-22.34-1.92-32.78
			C267.22,939.22,277.16,930.6,276.12,913.32z"/>
		<path class="st43" d="M186.24,899.95c-56.62-2.95-62.98-46.24-70.87-88.29c0.36-14.93-2.48-30.84,1.73-44.6
			c8.3-27.12,23.75-32.69,42.64-7.13c0,0-2.07,4.49-2.07,4.49c-20.9,38.42-15.72,72.92,16.62,102.36
			C184.68,876.25,194.76,884.35,186.24,899.95z"/>
		<path class="st44" d="M255.05,980.11c46.65-18.16,61.06-15.8,66.01,10.82c-15.28,1.19-30.57,2.38-45.86,3.58
			C268.48,989.71,261.76,984.91,255.05,980.11z"/>
		<path class="st45" d="M275.87,443.58c-3.39-4.15-6.78-8.31-10.18-12.46c31.07-20.35,56.4-4.65,84.27,10.24
			c55.47,29.64,111.25,37.87,163.99-13.57c-27.8-21.94-59.29-12.65-88.49-15.67c-31.18-3.23-65.06,9.66-92.74-15.1
			c59.81-37.27,194.35-28.57,245.82,14.29c28.84,24.01,17.39,44.41-5.78,58.85c-48.72,30.37-100.99,50.15-160.54,35.82
			c-14.46-3.48-29.7-3.74-44.58-5.48c0,0-0.36-0.27-0.36-0.27C337.68,479.95,303.35,467.3,275.87,443.58z"/>
		<path class="st46" d="M332.72,397.02c60.22,4.15,121.33-9.41,180.83,9.35c12.59,3.97,29.4,5.37,31.11,20.56
			c2.22,19.77-19.91,12.06-28.64,19.7c-65.04,56.88-128.23,39.35-190.11-4.63c-19.2-13.65-39.89-8.96-60.22-10.87
			c-0.9-3.43-1.07-6.9-0.48-10.39C287.72,412.83,310.22,404.92,332.72,397.02z"/>
		<path class="st47" d="M526.9,524.18c-45.09,16.55-90.17,17.78-135.21-0.1C436.77,524.12,481.84,524.15,526.9,524.18z"/>
		<path class="st48" d="M778.46,306.95c-14.31-3.76-28.61-7.53-42.92-11.29c-16.76,6.37-28.39-0.1-36.8-14.67
			c-29.62-60.66,11.52-97.11,46.41-135.71c30.89,30.08,55.4,66.54,91.49,91.42C822.47,264.44,802.09,287.04,778.46,306.95z"/>
		<path class="st49" d="M768.39,99.86c3.81-11.21,7.62-22.43,11.43-33.63c43.61-22.98,93.01-19.47,117.48,16.88
			c20.87,31,22.47,81.45-25.96,107.85C830.25,168.26,796.77,136.94,768.39,99.86z"/>
		<path class="st50" d="M768.39,99.86c43.99,19.44,77.6,50.61,102.95,91.11c-16.32,11.63-10.91,39.77-34.71,45.73
			c-52.8-8.16-75.67-46.26-91.49-91.42C752.89,130.14,760.64,115,768.39,99.86z"/>
		<path class="st51" d="M698.74,280.98c12.27,4.89,24.53,9.78,36.8,14.67c-7.14,19.04,13.17,19.7,19.78,29.51
			c-11.55,2.22-23.1,4.47-34.64,6.73c-21.21-5.73-30.5-25.69-45.87-38.43C682.78,289.3,690.76,285.14,698.74,280.98z"/>
		<path class="st8" d="M275.87,443.58c34.24,12.8,67.44,27.28,91.41,56.65C331.2,490.41,296.52,478.33,275.87,443.58z"/>
		<path class="st52" d="M849.95,383.96c-0.54-2.76-0.74-5.55-0.6-8.35c18.39-16.06,36.79-32.13,55.18-48.2
			c10.68,36.73,40.23,5.3,59.69,16.36c-2.3,58.69-29.96,90.01-91.11,86.99C854.78,420.4,854.73,401.01,849.95,383.96z"/>
		<path class="st53" d="M824.43,889.62c3.7,5.39,7.4,10.77,11.09,16.17c-19.06,9.83-41.34,13.62-42.69-13.63
			c-2.71-54.57-29.84-85.67-78.22-105.53c-11.51-4.73-17.67-22.52-26.28-34.31c15.96-60.02,46.38-77.09,124.44-69.81
			c25.44,22.91,27.17,52.24,22.74,83.3C833.17,807.22,816.21,847.28,824.43,889.62z"/>
		<path class="st54" d="M585.19,831.22c3.61,7.12,7.22,14.23,10.82,21.35c15.62,41.25,2.29,71.98-38.08,86.15
			c-38.94,13.67-64.66-9.13-83.68-41.09c-8.3-13.94-7.37-34.67-28.74-38.97c-8.5-3.1-15.3-8.55-21.24-15.22l0.85,1.04
			c-4.28-6.2-3.93-12.14,1.01-17.84c32.36-23.67,66.27-28.81,102.27-8.41C547.84,820.32,568.74,816.06,585.19,831.22z"/>
		<path class="st55" d="M802.68,683.06c-44.64,12.32-91.62,20.79-114.36,69.27c-4.35,0.21-8.71,0.43-13.07,0.64
			c-17.2,1.59-25.12-5.79-22.49-23.32c9.08-13.21,11.48-29.23,23.78-41.9c27.61-28.45,32.32-58.5-8.17-81.49
			c9.15-11.99,24.94,1.97,30.3-12.55c44.64,12.62,73.51,46.19,103.65,78.07c2.61,2.43,3.53,4.91,2.77,7.45
			C804.32,681.78,803.52,683.06,802.68,683.06z"/>
		<path class="st56" d="M412.36,1038.71c80.44,21.11,155.18,15.18,218.27-46.03c-12.03,72.4-144.42,134.48-205.75,94.31
			C412.53,1078.89,372.72,1065.59,412.36,1038.71z"/>
		<path class="st57" d="M652.76,729.65c7.5,7.77,14.99,15.55,22.49,23.32c7.17,30.8-11.8,33.53-34.95,33.69
			c-37.09,0.27-74.16,1.74-111.24,2.7c-5.27,1.86-9.77,0.82-13.36-3.59c35.05-18.09,51.75-61.31,94.42-68.96
			C624.33,721.1,638.55,725.37,652.76,729.65z"/>
		<path class="st58" d="M515.7,785.78c4.45,1.2,8.89,2.39,13.35,3.59c11.51,4.36,23.01,8.73,35.13,13.33
			c-8.9,12.68-28.87-0.44-35.78,15.53c-33.39,9.92-70.5-6.07-102.35,14.66c-29.27-1.39-20.19-17.66-12.9-33.24
			C447.34,795.02,481.52,790.4,515.7,785.78z"/>
		<path class="st59" d="M275.52,1062.24c-3.14-0.62-6.29-1.15-9.44-1.58c31.14-19.04,61.41-13.7,102.21,3.31
			C329.81,1077.9,302.58,1074.57,275.52,1062.24z"/>
		<path class="st60" d="M802.68,683.06c-0.27-3.76-0.38-7.52-0.35-11.29c3.96-18.86,7.91-37.72,11.88-56.58
			c34.3-48.03,43.1-95.05-6.91-138.59c-25.14-21.89,12.2-35.95,5.93-55.18c7.36,3.79,14.74,7.58,22.11,11.37
			c17.93,4.36,29.94,15.11,35.49,32.85l-0.5,2.36c0.23,77.85,49,154.19,0.35,234.51c-16.6,27.4,2.99,66.36-4.08,100.63
			c-3.89,18.85-6.92,36.65-18.04,52.44c-5.36,12.13-12.05,4.66-18.46,1.26c-19.3-30.52-11.36-62-3.28-93.48
			C828.75,733.59,821.26,706.66,802.68,683.06z"/>
		<path class="st61" d="M848.56,855.58c11.24-38.43,18.46-76.85,1.84-115.84c-2.11-4.95-3.85-12.84-1.43-16.53
			c47.25-71.91,10.46-148.38,13.07-222.63c0.38-10.95,5.42-21.73,8.29-32.59c24.66,12.74,43.25,31.7,56.93,55.67
			c25.01,110.52-45.54,203.27-57.29,306.99C868.6,842.7,859.3,850.34,848.56,855.58z"/>
		<path class="st18" d="M826.83,763.36c0.94,31.15-5.99,62.58,3.27,93.46c-1.88,10.95-3.77,21.88-5.66,32.81
			C808.62,847.22,805.12,805.05,826.83,763.36z"/>
		<path class="st62" d="M870.82,465.64c-11.82-10.95-23.64-21.9-35.47-32.85c26.53-9.78-1.5-35.9,14.61-48.82
			c15.29,11.84,18.53,29.65,23.14,46.79c8.35,20.62,35.3,4.45,44.87,22.67C902.03,456.67,882.75,446.96,870.82,465.64z"/>
		<path class="st63" d="M366.6,854.47c-34.47,7.57-67.34,8.02-93.57-21.05c19.92-19.97-17.99-24.81-9.26-44.89
			c30.74-0.09,64.18,13.82,95.65-2.8c6.52,4.52,13.04,9.04,19.56,13.55C375.58,817.84,353.13,832.13,366.6,854.47z"/>
		<path class="st64" d="M366.6,854.47c-6.46-13.95-32.82-7.33-31.26-27.74c2.05-26.71,34.2-9.85,43.63-27.45
			c11.4,0.12,22.79,0.24,34.19,0.36c0.33,12.62-1.45,26.06,12.89,33.25c-0.31,3.86-0.61,7.73-0.92,11.59
			C405.62,847.81,386.11,851.14,366.6,854.47z"/>
		<path class="st65" d="M447.07,849.28c13.77-0.16,36.31-18.59,33.66,15.74c-3.36,43.53,21.17,65.94,60.08,64.56
			c45.91-1.63,56.15-37.29,55.2-77.01c23.23,48.11,11.12,85.85-35.27,103.91c-16.91,6.59-35.71,8.34-53.64,12.3
			C435.47,927.54,425.11,906.91,447.07,849.28z"/>
		<path class="st66" d="M447.07,849.28c-9.54,45.08,5.95,78.56,47.82,97.85c11.17,5.15,13.64,11.32,12.19,21.65
			c-88.06-4.31-119.63-52.08-82.81-125.34C431.87,845.39,439.47,847.34,447.07,849.28z"/>
		<path class="st67" d="M186.24,899.95c-23.19-36-61.87-65.27-48.25-117c3.12-11.85,2.9-23.04,19.69-18.52
			c0.25,9.18,1.5,18.45,0.59,27.51c-6.07,60.5,21.92,80.7,80.08,55.51C243.08,888.06,209.13,888.62,186.24,899.95z"/>
		<path class="st68" d="M364.17,422.32c40.44-17.96,80.98-17.89,121.58-2.17C445.81,438.19,404.92,430.55,364.17,422.32z"/>
	</g>
</g>
</svg>
