<?xml version="1.0" encoding="utf-8"?>
<!-- Generator: Adobe Illustrator 23.1.0, SVG Export Plug-In . SVG Version: 6.00 Build 0)  -->
<svg version="1.1" id="Calque_1" xmlns="http://www.w3.org/2000/svg" xmlns:xlink="http://www.w3.org/1999/xlink" x="0px" y="0px"
	 viewBox="0 0 1125 1100.15" style="enable-background:new 0 0 1125 1100.15;" xml:space="preserve">
<style type="text/css">
	.st0{fill:#FD9A00;}
	.st1{fill:#985300;}
	.st2{fill:#9D5403;}
	.st3{fill:#FAAF02;}
	.st4{fill:#FED8A7;}
	.st5{fill:#CD7601;}
	.st6{fill:#864700;}
	.st7{fill:#FA9C08;}
	.st8{fill:#5E2200;}
	.st9{fill:#F7F4F1;}
	.st10{fill:#635C58;}
	.st11{fill:#8C8684;}
	.st12{fill:#7A1601;}
	.st13{fill:#B16200;}
	.st14{fill:#CDCBCA;}
	.st15{fill:#FBC38F;}
	.st16{fill:#FBC09A;}
	.st17{fill:#B33D00;}
	.st18{fill:#4F0E01;}
	.st19{fill:#908C8B;}
	.st20{fill:#2C0201;}
	.st21{fill:#F17E00;}
	.st22{fill:#F5F2EF;}
	.st23{fill:#B6B1AA;}
	.st24{fill:#D4CBC5;}
	.st25{fill:#AEAAA7;}
	.st26{fill:#FAAF00;}
	.st27{fill:#FEC400;}
	.st28{fill:#FEAE01;}
	.st29{fill:#F08400;}
	.st30{fill:#F8DCB6;}
	.st31{fill:#F78E01;}
	.st32{fill:#FED14F;}
	.st33{fill:#C5600A;}
	.st34{fill:#FEEBBD;}
	.st35{fill:#B86200;}
	.st36{fill:#FBD9B4;}
	.st37{fill:#F3DEBC;}
	.st38{fill:#DA7500;}
	.st39{fill:#E6A200;}
	.st40{fill:#DF8B01;}
	.st41{fill:#FCD16F;}
	.st42{fill:#F98F03;}
	.st43{fill:#847669;}
	.st44{fill:#F8F3DA;}
	.st45{fill:#FDDEB8;}
	.st46{fill:#B7A69D;}
	.st47{fill:#FEC067;}
	.st48{fill:#A9774E;}
	.st49{fill:#C59362;}
	.st50{fill:#9C4919;}
	.st51{fill:#DA7531;}
	.st52{fill:#FCF2DE;}
	.st53{fill:#F6D2AA;}
	.st54{fill:#FEF7C3;}
	.st55{fill:#42382F;}
	.st56{fill:#721D03;}
	.st57{fill:#B3AEAC;}
	.st58{fill:#918981;}
	.st59{fill:#A29D9B;}
	.st60{fill:#D06002;}
	.st61{fill:#C8420D;}
	.st62{fill:#FEFEEB;}
	.st63{fill:#FEF9C2;}
	.st64{fill:#FEDBAB;}
	.st65{fill:#F97606;}
	.st66{fill:#FEE577;}
	.st67{fill:#FEB30D;}
	.st68{fill:#FCB077;}
	.st69{fill:#E0A26A;}
	.st70{fill:#FAC091;}
	.st71{fill:#FEFCDE;}
	.st72{fill:#827468;}
	.st73{fill:#FCBE89;}
	.st74{fill:#7D5329;}
	.st75{fill:#050303;}
	.st76{fill:#FCEDC6;}
	.st77{fill:#E0925A;}
	.st78{fill:#C2602D;}
	.st79{fill:#874E2D;}
	.st80{fill:#E4A66E;}
	.st81{fill:#FE9F06;}
	.st82{fill:#F4E6C9;}
	.st83{fill:#954300;}
	.st84{fill:#0F0802;}
	.st85{fill:#F8D598;}
	.st86{fill:#EBBA7E;}
	.st87{fill:#FCDBB3;}
	.st88{fill:#FEA710;}
	.st89{fill:#E89008;}
	.st90{fill:#EDEAE6;}
	.st91{fill:#EB8207;}
	.st92{fill:#EAE6E1;}
	.st93{fill:#F27E1C;}
</style>
<g>
	<g>
		<path class="st0" d="M179.55,119.02c13.2-8.33,30.3-11.73,36.52-28.89c67.36-70.81,157.52-87.45,246.7-87.57
			c103.3-0.14,208.52,8.06,301.33,64.62c20.43,41.68,16.31,49.33-37.07,68.61c-55.06,19.89-55.06,19.89-33.54,69.88
			c-9.28,18.56-8.29,36.09,5.51,52.35c11.85,34.52,10.32,68.37-4.79,101.56c-26.9,9.46-25.27-14.11-27.83-27.07
			c-7.35-37.27-21.54-72.2-33.52-107.86c-4.38-13.03-6.16,4.86-10.56,2.26c-7.12,3.74-14.63,5.41-22.53,5.72
			c-50.65-3.77-62.85-42.91-71.79-81.97c-6.45-28.17-12.16-53.3-47.23-55.45c-19.13-1.34-38.42-0.67-57.23-5.12
			C356.5,57.72,300.52,73.84,250.7,126.64c-20.04,21.24-45.72,27.44-72.22,7.87C175.75,129.13,176.12,123.97,179.55,119.02z"/>
		<path class="st1" d="M972.76,402.59c-3.69,1.37-7.38,2.73-11.07,4.1c-11.23-6.36-13.71-19.38-21.72-28.08
			c-46.02,1.03-115.21,51.53-127.05,95.89c-12.88,48.25-36.85,93.7-36.21,145.61c0.13,10.55-1.44,27.14-21.25,22.99
			c-33.03-48.51-5.44-98.93-4.99-148.49c0.78-23.8-1.38-48.17,12.85-69.47c7.33-8.78,16.81-14.86,26.43-20.69
			c19.72-11.96,40.3-22.87,59.12-36.16c34.26-24.2,63.94-49.85,49.61-100.86c-8.6-30.62,6.23-48.6,41.45-37.59
			c15.4,3.75,11.41,21.16,20.61,29.28c20.59,41.32,20.79,84.61,12.42,128.73C972.87,392.77,972.82,397.68,972.76,402.59z"/>
		<path class="st2" d="M939.9,229.86c-13.11,9.17-44.62,3.92-30.97,34.6c27.46,61.71-17.81,88.15-55.63,117.59
			c-16.81,13.09-36.58,22.37-55.01,33.37c-15.52-42.41,23.06-50.91,44.95-65.87c37.72-25.79,54.88-54.59,32.85-98.54
			c-2.89-10.55-4.17-21.26-3.9-32.2c1.47-17.5,4.22-34.31,23.62-41.6c14.18,15.07,28.37,30.14,42.55,45.22
			C939.44,224.8,939.95,227.27,939.9,229.86z"/>
		<path class="st3" d="M75.81,307.64c-1.4-3.77-2.81-7.54-4.21-11.31c0.75-3.6,1.5-7.2,2.26-10.8
			c29.85-36.53,36.76-87.7,75.57-118.51c11.57,4.07,16.42,12.71,16.7,24.49c-23.15,45.68-38.86,95.01-66.9,138.39
			C77.84,336.79,80.97,317.86,75.81,307.64z"/>
		<path class="st2" d="M972.93,387.86c-4.14-42.89-8.27-85.78-12.41-128.7C1001.49,298.49,983.84,343.5,972.93,387.86z"/>
		<path class="st4" d="M981.83,654.26c-42.2,16.46-87.09,18.28-131.23,24.2c-40.33,10.45-54.13-8.71-56.35-46.64
			c-3.43-58.71,13.45-112.38,36.42-164.67c8.83-20.1,22.95-36.54,49.32-31c23.47,11.28,47.68,21.77,59.87,47.4
			c6.9,6.53,13.8,13.06,20.7,19.59c19.99,37.28,18.84,81.87,42.05,118.4C1016.23,642.97,993.63,646.31,981.83,654.26z"/>
		<path class="st5" d="M832.31,750.07c32.65,7.01,65.29,14.02,97.94,21.03c-3.98,7.99,3.52,17.66-3.71,25.22
			c-31.77,8.57-58.08,25.89-80.42,49.67c-10.95,11.65-21.03,25.81-40.32,14.59c-26.14-33.06-71.66-48.41-85.2-93.08
			c-13.45-21.39-20.54-44.81-22.71-69.85c2.98-29.69-18.91-52.91-21.26-81.24c-1.19-29.74-2.77-59.48,2.53-89.02
			c14.29-35.76-0.88-76.94,20.11-111.51c26.2-25.69,27.85-78.19,80.98-74.72c13.48,21.96,4.58,40.85-7.67,59.76
			c-23.71,36.59-30.41,79.7-43.69,120.14c-5.91,17.98-6.2,39.2,6.61,56.87c19.45,36.89,18.73,77.88,23.65,117.76
			C766.06,751.63,778.65,760.93,832.31,750.07z"/>
		<path class="st6" d="M884.41,448.2c-27.77-18-35.77,5.15-41.59,22.82c-17.99,54.61-35.36,108.94-36.43,168.16
			c-0.68,37.58,15.01,42.52,44.22,39.27c-28.85,6.1-47.82,18.25-31.83,51.86c-20.67,13.18-34.81,4.12-41.16-15.59
			c-7.44-23.08-20.45-45.95-11.58-71.9c-13.4-69.03,18.93-130.79,39.98-191.19c18.04-51.75,82.04-69.97,125.13-103.53
			c11.96-9.32,16.77,12.08,18.81,24.11C956.16,421.74,922.87,437.2,884.41,448.2z"/>
		<path class="st7" d="M75.81,307.64c6.07,7.1,12.15,14.19,18.22,21.29c13.35,10.89,12.77,25.55,11.1,40.53
			c-8.72,33.09-9.66,66.25-0.39,99.48c2.83,11.36,4.05,22.91,4.48,34.58c0.4,11.95,0.9,23.88,0.79,35.84
			c-0.7,51.7,2.81,103.68-10.26,154.52c-0.17,14.93,0.03,29.87-0.55,44.8c-0.87,14.75-1.32,29.58-5.13,43.98
			c-19,59.68-44.05,117.17-64.67,176.29C-7.5,905.97-4.6,855.12,29.89,800.45c29.22-46.33,28.41-102.19,33.76-155.32
			c18.31-59.08,13.27-117.79-2.98-176.3c-19.07-40.53-17.28-80.5,3.16-119.99C73.98,336.9,74.42,322.13,75.81,307.64z"/>
		<path class="st8" d="M702.23,851.72c-24.46,14.7-51.11,4.93-76.71,6.88c-23.11-12.99-31.38-46.56-64.2-46.15
			c-14.51-11.89-29.08-23.74-33.14-43.59c-5.12-30,9.47-47.65,36.08-57.82c29.78-10.64,58.8-23.94,90.64-28.2
			c10.73,4.46,15.93,13.78,20.73,23.47c2.17,4.83,3.79,9.87,5.13,14.99c5.46,25.46,11.86,50.71,19.21,75.74
			C702.89,815.18,712.05,833.08,702.23,851.72z"/>
		<path class="st9" d="M572.64,878.36c-94.85,25.04-189.15,44.93-273.5-29.02c-41.94-32.58-22.69-57.65,9.91-81.15
			c5.06-1.92,10.3-2.73,15.69-2.58c5.26,0.95,10.05,3.07,14.37,6.22c50.01,84.27,129.92,63.29,205.36,58.18
			C571.6,835.8,586.87,848.52,572.64,878.36z"/>
		<path class="st10" d="M313.96,776.15c-35.15,18.27-33.34,44.04-14.82,73.19c-17.5,25.66,33.87,49.37,2.13,75.43
			c-52.4-0.29-80.5,18.7-97.21,65.69c-36.42,20.94-72.7-2.69-109.07-0.34c-16.44-32.44,22.08-31.88,29.77-49.88
			c2.83-4.15,5.98-8.01,9.23-11.83c13.77-15,27.74-29.75,48.19-35.71c67.94-17.84,79.94-36.56,56-87.72
			c-8.02-49.19,34.69-28.87,54.61-39.97C301.65,765.28,309.64,767.26,313.96,776.15z"/>
		<path class="st11" d="M137.7,945.62c-3.83,24.83-44.16,14.6-42.71,44.5c-19.72-2.61-42.95,4.05-54.39-20.52
			c-10.35-31.92-6.82-62.23,9.98-91.26c17.87-30.88,26.15-65.04,33.15-99.58c0.42-13.17,0.84-26.35,1.27-39.52
			c31.91,24.91,44.2,69.73,85.95,84.69c6.58,30.79-22.36,36.68-36.81,52.79c-19.25,16.98-46.84,25.46-55.86,54.27
			C96.28,945.6,121.97,926.15,137.7,945.62z"/>
		<path class="st12" d="M982.95,1088.59c-7.6-4.77-15.2-9.53-22.8-14.3c-16.13-14.56-46.2-13.43-48.76-43.33
			c1.38-11.27,7.34-19.58,16.61-25.77c7.04-3.7,14.6-5.62,22.44-6.52c17.19-1.61,34.82-0.49,51.18-7.76
			c32.12-7.99,51.77-25.35,56.05-61.01c2.66-22.24,11.72-44.57,32.15-58.86c13.08,6.84,11.1,19.5,11.99,31.05
			c15.42,61.94-7.71,108.54-59.53,141.23C1020.94,1056.79,1003.54,1074.62,982.95,1088.59z"/>
		<path class="st13" d="M766.03,642.81c8.66,19.53,22.36,37.33,21.55,60.17c-0.79,22.16,13.02,27.12,31.21,27.32
			c4.5,6.6,9.01,13.19,13.52,19.77c-40.73,45.27-54.95,42.05-79.79-14.91c-13-29.8-6.37-60.26-7.98-90.45
			c-1.14-21.33,3.42-44.3-21.81-56.01c0.48-38.66,2.86-76.49,43.24-97.43C766.67,541.79,737.12,592.31,766.03,642.81z"/>
		<path class="st14" d="M840.97,1057.57c-31.65-14.29-63.38-28.47-84.42-58.17c3.36-28.1-19.5-54.36-5.85-83.2
			c24.46-14.74,35.28,7.87,49.1,19.19c16.64,13.62,30.55,30.51,48.69,42.51c20.87,17.66,49.82,26.36,61.12,54.69
			C896.12,1066.7,860.87,1041.04,840.97,1057.57z"/>
		<path class="st15" d="M572.64,878.36c-1.99-21.6-7.18-40.31-34.87-38.79c-69.66,1.84-124.24-28.48-145.52-80.81
			c1.52-5.37,4.72-9.38,9.77-11.81c2.59-0.29,5.24-0.56,7.84-0.91c56.06,14.14,109.18,36.1,160.7,62.16
			c28.57,5.62,44.13,25.42,54.95,50.4C607.89,865.18,590.26,871.77,572.64,878.36z"/>
		<path class="st16" d="M981.83,654.26c7.13-10.46,21.61-16.7,6.97-34.69c-27.25-33.47-31.57-74.49-28.24-116.44
			c41.88,33.4,88.38,62.44,109.24,115.7c-3.89,18.16-14.35,27.83-33.66,26.02C1018.03,647.99,999.93,651.12,981.83,654.26z"/>
		<path class="st17" d="M1089.82,871.05c-3.1,33.25-25.58,60.12-26.03,96.05c-0.37,29.21-37.93,24.36-58.97,34.67
			c-4.24-3.39-7.24-7.65-9.06-12.75c-3.65-41.71-4.73-83.03,20.03-119.97c20.11,3.48,32.03-15.97,50.19-18.12
			C1078.05,852.74,1085.29,860.29,1089.82,871.05z"/>
		<path class="st18" d="M982.95,1088.59c-1.16-20.88,10.99-35.57,27.71-42.08c66.67-25.96,85.23-80.86,91.14-144.41
			c24.38,38.16,30.49,77.84,9.89,119.72c-20.56,39.02-69.35,41.65-95.17,73.89C1004.67,1096.44,992.11,1100.52,982.95,1088.59z"/>
		<path class="st19" d="M204.06,990.46c-4.99-1.75-14.28-3.35-14.35-5.26c-1.53-45.51,42.41-49.32,67.2-70.11
			c13.78-11.56,36.31-23.77,44.35,9.68C279.8,962.86,247.6,985.06,204.06,990.46z"/>
		<path class="st2" d="M884.41,448.2c20.63-26.39,60.58-36.11,65.55-76.01c13.29,8.3,10.07,22.21,11.72,34.48
			c-0.18,27.64-8.06,53.07-21.84,76.85C920.27,473.49,898.53,466.83,884.41,448.2z"/>
		<path class="st20" d="M1016.51,1095.71c8.33-54.79,67.75-43.72,95.18-73.89C1089.1,1091.09,1064.78,1109.98,1016.51,1095.71z"/>
		<path class="st21" d="M1065.98,850.93c-17.98-2.74-7.72,52.77-40.44,19.62c-22.27-10.33-41.34-23.67-46.85-49.75
			c12.26-15.25-18.2-21.44-7.79-36.34C1010.58,795.17,1036.82,825.14,1065.98,850.93z"/>
		<path class="st22" d="M757.57,908.99c-10.24,30.03,26.06,60.57-1.01,90.41c-28.68-30.32-44.89-64.37-32.03-107.13
			c4.74-6.72,11.33-7.03,18.52-5.39C752.19,891.41,757.51,898.47,757.57,908.99z"/>
		<path class="st23" d="M840.97,1057.57c13.01-32.41,44.49-13.48,65.53-23.6c4.34-4.68,7.78-3.86,10.43,1.72
			c14.4,12.87,28.81,25.75,43.22,38.61C921.65,1059.96,879.03,1075,840.97,1057.57z"/>
		<path class="st24" d="M743.18,892.31c-6.22-0.01-12.44-0.03-18.66-0.04c-7.44-13.53-14.88-27.06-22.3-40.58
			c-4.45-17.05-15.35-32.53-12.59-51.37c-2.38-10.15-8.74-20.72,3.13-29.35c5.78-1.39,10.54,0.22,14.33,4.8
			C718.04,814.93,760.61,844.33,743.18,892.31z"/>
		<path class="st25" d="M83.73,778.75c3.14,33.45-6.84,64.46-22.38,92.7c-17.18,31.22-23.37,63.42-20.75,98.15
			c-3.73-3.56-7.47-7.11-11.2-10.67C23.39,891.6,63.79,838.26,83.73,778.75z"/>
		<path class="st26" d="M970.89,784.46c0.92,11.68,24.93,15.02,11.5,31.88c-9.79,5.85-17.6,0.01-25.71-4.25
			c-12-7.01-22.64-15.5-29.35-28.07c-9.41-6.65-2.07-9.51,2.92-12.9C943.8,775.55,957.34,780.01,970.89,784.46z"/>
		<path class="st27" d="M160.28,188.83c-3.62-7.27-7.24-14.53-10.86-21.8c6.92-14.35,17.89-24.87,31.29-33.08
			c32.44,3.78,53.21-8.5,77.47-33.52c44.46-45.85,101.21-64.09,161.76-21.94c7.34,23.92,35.66,4.43,46.01,22.22
			c10.32,23.1-4.83,41.18-11.77,60.92c-16.82,34.04-14.56,75.93-43.07,105.19c-4.94,2.88-10.26,4.49-15.95,4.98
			c-41.29-4.31-83.45-4.06-122.18-22.25c-4.47-2.94-7.25-7.12-8.33-12.14c-1.01-6.05,13.35-14.61-3.26-18.83
			c-22.22-5.64-43.33-15.6-66.65-17.03c-7.54-0.54-14.95-1.73-22.17-4.05C167.92,195.44,163.82,192.52,160.28,188.83z"/>
		<path class="st28" d="M441.64,156.45c7.13-18.01,14.26-36.03,21.39-54.04c3.51-10.84,29.19-0.58,21.22-22.33
			c39.83,3.18,55.49,21.18,56.99,64.44c1.17,33.83,11.14,76.71,63.02,76.32c18.42,32.69-0.83,55.15-20.93,77.41
			c-51.63,4.15-98.01-11.2-141.13-38.47C418.12,225.51,450.13,190.88,441.64,156.45z"/>
		<path class="st29" d="M765.93,81.25c17.91-0.55,29.23,12.41,42.74,20.87c7.36,10.97,18.36,19.81,19.91,34.18
			c-1.32,33.21-25.52,44.76-51.96,50.83c-26.4,6.06-50.34,15.29-70.57,33.44c-9.11,3.84-15.11,1.82-16.46-8.83
			c-47.13-47.1-40.21-68.01,26.6-88.3C737.52,116.95,776.77,127.28,765.93,81.25z"/>
		<path class="st30" d="M691.71,523.7c-0.86,31.62-1.72,63.24-2.58,94.87c-4.88,5.45-9.67,5.37-14.4-0.21
			c-14.45-23.85-6.52-52.62-17.18-77.33c-5.36-26.77-2.73-53.96-4.42-80.92c-0.54-23.42,0.71-46.83,0.58-70.23
			c0.51-50.83-17.78-97.17-34.67-143.86c-1.93-8.61-0.91-16.77,3.8-24.34c4.16-27.12,11.33-20.25,20.57-2.11
			c23.37,45.85,30.35,96.76,45.29,145.2c20.03,16.86,14.59,38.04,9.63,58.86C690.46,456.63,701.29,490.83,691.71,523.7z"/>
		<path class="st31" d="M691.71,523.7c-1-52.99-1.99-105.99-3-158.96c0.6-36.9,1.21-73.82,1.82-110.74
			c-2.61-14,6.26-15.8,16.82-15.83c31.89,13.09,29.78,41.64,30.22,68.33c0.65,38.36-12.86,73.68-25.67,109.03
			C688.73,448.52,714.11,490.57,691.71,523.7z"/>
		<path class="st32" d="M484.25,80.08c14.02,27.51-9.62,19.19-21.22,22.32c-15.52-0.25-31.06-0.16-46.56-0.89
			c-9.67-0.45-24.74,1.75-23.03-12.44c1.4-11.65,16.83-8.43,26.51-10.57C441.38,79.02,462.82,79.55,484.25,80.08z"/>
		<path class="st33" d="M622.85,221.66c0.19,6.64,0.39,13.28,0.58,19.92c0.88,22.28-5.35,41.88-21.72,57.67
			c-4.52,1.81-9.16,2.14-13.91,1.05c-1.75-1.61-3.5-3.23-5.25-4.85c-1.86-27.52,25.53-46.52,21.7-74.61
			C610.45,221.11,616.65,221.38,622.85,221.66z"/>
		<path class="st34" d="M700.71,241.7c-3.39,4.1-6.78,8.2-10.17,12.29c-14.6-0.09-23.84-6.59-24.44-21.89
			c-0.63-16.09,8.12-22.27,23.49-20.37c3.3,4.17,6.6,8.35,9.89,12.52C705.96,229.64,707.29,235.39,700.71,241.7z"/>
		<path class="st35" d="M820.55,133.69c-3.95-10.52-7.91-21.05-11.87-31.57c28.31,9.5,49.48,28.12,66.43,52.11
			c6.89,15.05,1.32,28.37-5.7,41.52c-3.17,4.03-7.35,5.94-12.48,5.79C832.25,185.67,830.24,157.62,820.55,133.69z"/>
		<path class="st13" d="M863.53,198.88c-1.99-16.4,3.93-30.74,11.57-44.65c6.91,7.66,13.81,15.32,20.72,22.97
			c-7.39,13.53-12.41,27.64-10.82,43.41C866.24,224.85,865.23,211.53,863.53,198.88z"/>
		<path class="st35" d="M863.53,198.88c7.16,7.25,14.31,14.49,21.47,21.74c0.05,10.78,0.11,21.55,0.16,32.33
			c16.6,34.39-7.13,54.7-28.21,73.48c-32.51,28.96-62.55,59.18-80.17,99.79c-19.41,19.06-7.13,43.39-10.83,65.07
			c-14.41,32.48-28.83,64.95-43.24,97.43c-18.44-35.85-11.01-69.35,1.08-106.64c15.68-48.38,50.25-89.52,53.13-142.31
			c0.96-7.22,3.58-14.55,9.41-18.23c45.38-28.59,71.22-69.15,76.97-122.51L863.53,198.88z"/>
		<path class="st13" d="M776.79,426.22c5.57-40.52,25.92-70.7,57.65-97.16c23.14-19.29,54.5-37.17,50.72-76.11
			c31.19,40.86,17.01,70.61-21.01,97.85c-24.94,17.86-61.29,25.53-65.86,64.63C791.13,419.02,783.96,422.62,776.79,426.22z"/>
		<path class="st36" d="M63.83,348.84c-1.05,40-2.09,80-3.15,119.99c-19.15-23.85-55.72-35.62-52.09-75.24
			C27,378.68,45.42,363.76,63.83,348.84z"/>
		<path class="st37" d="M160.28,188.83c2.4,0.95,4.84,1.09,7.34,0.43c11.53,7.92,27.62,11.68,27.6,30.18
			c-9.43,16.73-28.55,24.64-37.71,41.61c-18.57,24.57-11.71,54.41-16.88,81.76c-19.19,14.09-14.46,50.81-48.21,51.09
			c-3.09-7.68-2.75-15.32,0.15-22.94c0.49-14.01,0.99-28.02,1.48-42.03C113.9,281.18,126.65,230.06,160.28,188.83z"/>
		<path class="st38" d="M863.32,199.03c25.11,80.03-37.77,106-86.39,140.73c-32.93,15.59-39.19,54.09-65.03,75.78
			c3.62-39.85,7.78-79.67,10.65-119.57c1.52-21.11,2.23-42.97-21.85-54.25c-0.41-5.83-0.82-11.65-1.23-17.46
			c5.07-36.35,32.11-43.23,62.1-47.1c27.38-3.53,53.99-9.06,58.96-43.46C834.81,155.47,849.07,177.25,863.32,199.03z"/>
		<path class="st39" d="M927.33,784.01c11.22,6.88,22.44,13.76,33.66,20.64c0.6,7.42,4.14,13.45,8.23,19.54
			c28.25,42.12,27.61,43.57-23.64,57.37c-2.37,26.46,40.96,33.66,28.37,63.48c-9.11,21.59-29.88,23.66-50.09,25.4
			c-13.99,0.71-27.91,0.74-41.84-0.99c-42.4-8.8-73.71-35.3-102.3-65.41c-10.3-10.85-14.97-25.39-6.74-39.56
			c9.22-15.89,22.73-14.64,36.59-5.47c27.31-1.06,29.3-30.86,48.13-43.95C880.16,799.43,901.63,788.95,927.33,784.01z"/>
		<path class="st40" d="M809.56,859.01c-35.37,0.91-44.53,18.62-17.37,40.35c28.01,22.41,52.62,53.31,92.65,57.33
			c4.19,36.05-25.54,25.76-43.35,31.76c-36.4-17.58-52.8-56.29-83.93-79.45c-4.8-5.57-9.59-11.13-14.38-16.69
			c-4.81-42.71-40.74-74.7-40.98-118.99c8.22-8.44,32.07,24.22,29.96-11.4c18.14,23.04,23.56,57.46,63.26,60.88
			C809.79,824.04,809.25,844.88,809.56,859.01z"/>
		<path class="st41" d="M732.17,761.92c0.79,10.28,1.58,20.56,2.98,38.62c-14.29-11.82-23.62-19.53-32.94-27.23
			c0,0.01-3.48,1.12-3.48,1.12c-18.07-14.77-17.19-37.33-23.39-56.99c-1.54-10.45-5.71-21.02,1.52-31.05
			c15.97-8.69,25.38,1.3,34.48,12.13C711.5,721.89,720.79,742.25,732.17,761.92z"/>
		<path class="st42" d="M711.34,698.52c-10.07-4.58-20.14-9.15-30.21-13.73c-19.54-20.37-19.51-40.75-0.05-61.14
			c2.71-1.65,5.4-3.33,8.05-5.08C693.4,646.09,721.12,667.09,711.34,698.52z"/>
		<path class="st43" d="M171.83,827.96c-55.68-3.38-72.29-45.03-86.84-88.71c-0.03-13.76-0.06-27.5-0.09-41.24
			c26.65-39.1,10.57-83.98,16.99-125.79c2.77-4.82,7.02-7.37,12.5-7.93c20.48,12.79,33.22,31.44,40.75,54.02
			c9.71,48.49,47.79,77.2,77.9,111.41c3.95,2.87,7.67,6.01,11.37,9.17c13.52,13.92,36.05,16.37,45.44,35.54
			c-3.98,24.71-51.92-12.37-42.93,30.57c-16.7,17-40.75,16.7-60.79,25.91C181,831.73,176.23,830.73,171.83,827.96z"/>
		<path class="st44" d="M96.57,501.96c-1.21-10.5-2.41-21-3.62-31.5c-2.86-13.27-9.38-27.42,8.57-35.66
			c5.04,1.93,9.48,4.84,11.95,9.75c36.72,72.99,52.44,78.86,119.48,34.2c40.57-27.03,72.21-19.94,102.63,13.48
			c-3.44,21.87-21.6,20.21-36.85,23.28c-7.36,0.94-14.78,1.7-22.06,2.95c-13.46,9.19-35.85,10.55-30.69,35.65
			c5.66,7.02,13.21,11.33,21.01,15.4c10.33,6.21,22.87,10.11,25.41,24.38c-5.8,15.02-18.86,16.3-32.18,17.19
			c-16.13-0.33-30.74-5.76-44.67-13.42c-6.67-3.68-12.91-8.06-19.14-12.41C157.21,564.61,113.02,549.87,96.57,501.96z"/>
		<path class="st45" d="M96.57,501.96c30.17,32.9,67.68,55.12,107.52,73.95c3.94,26.5-8.15,36.24-32.99,29.72
			c-22.67-5.95-41.19-18.81-54.16-38.85l-1.27,0.39c-10.46-8.63-11.81-22.81-20.01-32.81C95.97,523.56,96.27,512.76,96.57,501.96z"
			/>
		<path class="st46" d="M95.67,534.36c13.72,6.64,20.85,17.3,20.01,32.82c-22.19,25.35-4.05,55.4-9.56,82.74
			c-3.57,17.7,8.16,41.84-21.21,48.07C95.64,643.93,94.47,589.07,95.67,534.36z"/>
		<path class="st47" d="M102.9,434.25c-3.31,12.07-6.63,24.14-9.95,36.22c-12.8-33.12-13.54-66.28-0.39-99.51
			c1.04,8.4,2.09,16.8,3.14,25.2c8.97,7.36,11.55,17.76,13.62,28.44C109.49,429.35,107.23,432.49,102.9,434.25z"/>
		<path class="st48" d="M406.79,751.17c-3.65,1.07-7.29,2.15-10.94,3.22c-7.92,4.79-16.51,5.3-25.4,4.03
			c-17.16-4.42-35.89-2.02-52.08-9.22c-14.21-6.32-38.19-8.14-25.72-35.09c61.68-21.75,129.62-1.5,190.47-28.52
			c73.96,7.52,117.2-41.67,162.07-88.06c6.18-1.22,11.46,0.39,15.96,4.79c9.4,29.23,15.41,58.24-4.68,85.82
			c-25.3,19.64-56.36,23.03-85.96,30.55C517.81,738.98,465.82,762.82,406.79,751.17z"/>
		<path class="st49" d="M656.47,688.14c-2.84-29.54,12.49-61.02-9.43-88.52c-25.06-60.96-16.05-118.58,22.08-141.31
			c0.41,29.47,0.82,58.94,1.23,88.42c4.24,54.44,8.74,108.89-2.6,163.08C663.98,702.58,660.23,695.36,656.47,688.14z"/>
		<path class="st50" d="M406.79,751.17c54.58-10.83,109.16-21.66,163.72-32.48c-22.26,11.75-38.66,27.07-33.73,55.38
			c-47.36,18.69-84.84-20.14-128.65-22.1L406.79,751.17z"/>
		<path class="st51" d="M408.13,751.97c44.57-2.41,85.62,15.65,128.66,22.1c11.24,11.37,22.5,22.74,33.76,34.12
			C512.19,801.69,460.78,775.05,408.13,751.97z"/>
		<path class="st52" d="M667.74,709.8c0.87-54.36,1.73-108.72,2.6-163.08c18.14,23.61,3.06,51.86,10.74,76.93
			c0.02,20.39,0.03,40.77,0.05,61.15c-1.03,11.14-2.06,22.28-3.09,33.43c-2.87,3.78-5.56,3.84-8.03-0.4
			C668.53,715.35,667.77,712.68,667.74,709.8z"/>
		<path class="st53" d="M670,717.83c2.67,0.39,5.35,0.52,8.04,0.4c18.72,14.36,11.69,38.23,20.7,56.19
			c-9.05,6.53-8.17,16.54-9.12,25.91C672.82,775.27,670.59,746.74,670,717.83z"/>
		<path class="st54" d="M377.14,752.21c6.25,0.73,12.49,1.45,18.73,2.18c36.15,47,84.08,74.36,141.92,85.16
			c-59.24,12.44-116.74,21.42-173.17-15.74c-21.12-13.9-25.33-30.85-31.6-50.16C340.15,750.9,358.55,751.36,377.14,752.21z"/>
		<path class="st55" d="M377.14,752.21c-14.71,7.15-29.41,14.3-44.12,21.44c-3.75-0.69-7.5-1.37-11.25-2.06
			c-27.54-13.93-56.12-24.93-86.44-31.12l-0.43,0.28c-16.38-19.21-42.86-33.05-34.73-65.33c6.19-6.05,13.69-7.51,21.97-6.37
			c24.45,13.81,53.99,20.88,66.97,50.08C310.23,752.08,353.82,725.14,377.14,752.21z"/>
		<path class="st56" d="M235.33,740.47c41.53-24.97,61.49,10,86.44,31.12c-1.86,2.78-4.46,4.29-7.8,4.55
			c-8.05-0.57-16.09-1.15-24.12-1.73C271.72,763.05,239.98,773.53,235.33,740.47z"/>
		<path class="st57" d="M171.83,827.96c3.26-0.35,6.53-0.7,9.79-1.05c22.78-6.84,49.67-22.15,61.05,12.5
			c9.72,29.57-12.51,44.09-36.79,54.08c-7.99,3.29-17.26,3.23-24.24,9.2c-13.63,11.32-27.26,22.63-40.89,33.95
			c-42.92,0.34-50.16-8.56-32.35-41.06c5.03-9.18,13.94-16,19-25.47C142.21,856.05,157.02,842.01,171.83,827.96z"/>
		<path class="st58" d="M181.64,902.68c5.25-4.35,10.06-9.41,15.82-12.92c17.49-10.64,42.48-16.85,36.61-44.26
			c-6.72-31.36-34.38-13.61-52.45-18.6c17.03-21.42,40.93-22.38,65.3-21.92c45.31,33.94,17.57,56.73-11.08,81.45
			C219.39,900.63,201.84,904.41,181.64,902.68z"/>
		<path class="st59" d="M127.4,870.1c12.09,20.64-57.02,57.55,13.34,66.52c-0.79,3.08-1.8,6.08-3.03,9
			c-26.42-12.24-69.1,35.3-78.48-8.8C52.55,905.41,96.21,884.86,127.4,870.1z"/>
		<path class="st60" d="M928.32,956.64c14.04-1.07,30.2,1.53,37.51-14.64c6.41-14.19-8.45-16.93-15.29-24.02
			c-13.06-13.55-38.07-23.47-29.48-46.18c11.07-29.29,38.25,1.22,55.38-8.35c10.49-24.56-41.3-30.82-15.46-58.79
			c7.14,3.89,14.27,7.78,21.41,11.68c14.38,18.07,28.77,36.14,43.15,54.21c-23.52,37.79-13.42,81.85-22.8,122.27
			c-14.05,11.44-39.7-9.72-48.25,17.18c-8.43,0.74-16.86,1.47-25.29,2.21C899.51,994.15,924.82,975.22,928.32,956.64z"/>
		<path class="st61" d="M928.32,956.64c17.2,18.25-18.46,37.33,0.87,55.56c-4.09,7.83-8.19,15.64-12.28,23.47
			c-3.35-1.29-6.82-1.87-10.42-1.71c-21.66-15.17-43.33-30.34-65-45.51c11.27-14.93,37.41-9.54,43.35-31.76
			C899.34,956.68,913.83,956.66,928.32,956.64z"/>
		<path class="st62" d="M954.49,1010c-9.33-9.9-25.7-20.69,2.55-26.74c16.46-3.53,31.26,2.53,45.7,9.55
			c-1.12,3.4-0.43,6.38,2.08,8.95C990.14,1017.38,971.21,1006.88,954.49,1010z"/>
		<path class="st63" d="M148.79,252.92c9.9-17.23,21.98-31.54,43.83-32.78c31.44-18.14,54.6-3.53,75.71,19.17
			c43.08,7.91,86.17,15.81,129.25,23.72c37.44,9.1,75.22,17.89,61.93,71.21c-14.39,9.14-30.84,10.61-46.61,8.31
			c-83.27-12.15-164.24-32.99-241.09-68.06C161.97,269.99,153.74,263.01,148.79,252.92z"/>
		<path class="st64" d="M463.27,328.45c-15.41-28.32-35.89-51.55-65.69-65.42c3.88-0.96,7.77-1.93,11.66-2.89
			c8.92-9.02,17.73-18.48,31.77-8.62c47.18,14.64,94.36,29.28,141.54,43.92c0,0-1.23,2.38-1.23,2.38
			c-12.01,35.96-29.02,70.73-26.36,110.27c-1.19,5.23-3.99,9.39-8.11,12.74c-12.42,6.49-24.84,6.59-37.24,0.06
			c-15.8-14.62,1.01-31.87-3.97-47.29c-28.92-20.8-66.39,1.46-95.17-19.16c3.75-38.74,33.76-12.05,50.11-19.68
			c6.09-2.84,11.22-1.99,4.04-1.42C464.3,333.37,463.73,330.16,463.27,328.45z"/>
		<path class="st65" d="M441.01,251.52c-10.59,2.88-21.18,5.75-31.77,8.62c10.8-34.58,21.6-69.15,32.4-103.71
			C461.97,188.28,440.68,219.83,441.01,251.52z"/>
		<path class="st66" d="M192.86,188.45c36.84,3.78,70.84,15.24,103.2,35.01c-9.64,10.68-18.97,5.39-27.44,5.99
			C241.72,218.83,201.99,231.93,192.86,188.45z"/>
		<path class="st67" d="M192.86,188.45c14.76,33.05,54.06,20.78,75.75,41.02c-0.15,3.27-0.25,6.56-0.29,9.84
			c-25.23-6.39-50.47-12.78-75.7-19.17c-9.21-9.59-27.77-11.6-25-30.89C176.03,188.98,184.45,188.71,192.86,188.45z"/>
		<path class="st68" d="M549.4,416.39c0.03-3.9,0.05-7.8,0.08-11.7c13.18-36.35,43.76-65.74,43.02-107.65
			c10.31-18.48,20.62-36.97,30.92-55.46c33.22,41.63,40.16,91.37,43.87,142.12c-19.07,38.34-58.98,40.13-92.65,52.98
			c-8.33,0.29-16.14-1.5-23.22-6.02C546.75,426.48,546.09,421.72,549.4,416.39z"/>
		<path class="st69" d="M571.25,426.35c32.02-14.22,64.04-28.44,96.05-42.65c0.6,24.88,1.2,49.75,1.81,74.61
			c-39.54,42.06-8.48,95.17-22.08,141.3c0,0-0.03,0.01-0.03,0.01c-4.9,4.19-9.68,4.04-14.33-0.4
			c-10.15-13.99-9.23-30.45-10.47-46.42c-0.43-10-2.52-19.76-5.16-29.39c-1.42-36.21-20.81-62.17-47.9-83.77
			C566.91,434.74,567.63,430.31,571.25,426.35z"/>
		<path class="st70" d="M592.5,297.04c24.78,51.53-8.81,79.71-43.02,107.65c-12.03-42.37-5.23-79.13,31.84-106.87
			C585.05,297.57,588.78,297.3,592.5,297.04z"/>
		<path class="st71" d="M463.27,328.45c5.21,0.46,11.67-0.88,15.39,1.72c13.16,9.16,0.9,8.07-4.32,8.85
			c-21.93,3.27-45.7-6.58-65.87,9.29c-13.74,19.17-36.25,28.42-51.64,45.8c-44.87,8.87-91-0.98-135.78,9.32
			c-21.52-1.86-38.83-14.56-58-22.57c-6.9-3.62-12.68-8.58-17.45-14.73c-6.18-8.62-7.76-18.35-6.66-28.7
			c-22.44-31.17-5.87-57.79,9.85-84.5C251.25,287.94,351.44,332.47,463.27,328.45z"/>
		<path class="st72" d="M138.94,337.43c10.76,3.3,13.05,11.83,13.34,21.6c-1.46,4.32-3.66,8.21-6.63,11.67
			c-15.82,11.62-16.37,31.17-24.19,46.97c-4.18,6.08-9.5,10.52-16.92,11.97c-10.53-9.17-7.38-21.95-8.85-33.49
			C111.51,377.62,103.28,341.35,138.94,337.43z"/>
		<path class="st73" d="M224.32,676.88c-6.7-0.81-13.4-1.63-20.09-2.44c-27.41-8.72-47.03-25.73-56.73-53.31
			c-6.88-19.97-30.81-30.35-30.55-54.34c17.12,8.67,35.43,15.6,51.08,26.41c24.21,16.72,27.03-5.49,36.07-17.27
			c3.6,3.83,7.2,7.68,10.8,11.52c7.59,9.18,19.24,13.98,26.03,24.06C257.53,638.92,270.56,665.46,224.32,676.88z"/>
		<path class="st74" d="M147.49,621.13c19.85,16.76,42.84,30.17,56.72,53.3c-4.45,28.91,26.68,41.34,30.69,66.32
			C192.63,710.48,153.12,678.19,147.49,621.13z"/>
		<path class="st75" d="M104.54,429.64c3.44-4.36,6.88-8.72,10.32-13.08c25.78,20.68,28.55,72.4,79.23,58.97
			c-30.54-28.53-68.86-54.43-32.95-103.71c22.75-4.98,36.73,12.53,54.18,21.14c7.13,9.96,21.37,3.74,28.53,11.54
			c48.32,52.67,104.73,42.6,162.74,21.9c8.21,0.04,15.85,2.02,22.65,6.67c3.53,4.06,4.99,8.82,4.42,14.17
			c-9.94,18.65-39.49,30.37-24.19,58.11c16.11,29.23,44.14,38.26,76.07,37.29c65.54-8.59,79.47-22.47,81.02-81.06
			c-0.77-10.19-2.97-20.71,6.14-28.76c45.79,13.98,57.67,47.54,52.5,90.96c4.7,27.73-16.63,38.92-33.52,53.01
			c-106.26,53.08-194.39,24.67-259.32-83.5c-40.45-24.3-73.78-20.97-113.67,10.26c-55.5,43.44-102.57,12.61-115.78-69.27
			C102.9,434.25,104.54,429.64,104.54,429.64z"/>
		<path class="st76" d="M332.35,493.29c17.35-0.91,24.45,13.27,33.41,23.71c65.16,75.88,130.73,90.23,224.52,48.55
			c30.07,19.49,3.75,31.59-8.43,35.84c-57.21,19.97-112.74,54.76-177.55,28.49c-6.61-2.68-13.7-3.58-20.82-4.02
			c-18.03-0.98-36.05-0.7-54.11-0.62c-26.12-4.19-58.62,10.89-74.41-24.52c12.45-2.06,27.08,1.39,34.44-13.59
			c3.43-9.83,11.42-15.32,19.48-20.74c17.86-12.13,16.02-24.13,0.4-36.92c-8.83-7.23-22.57-10.96-20.98-26.56
			C303.05,499.97,319.88,506.62,332.35,493.29z"/>
		<path class="st77" d="M288.31,502.91c63.64,33.06,67.29,44.94,23.28,75.78c-5.48-4.08-0.4-9.51-1.8-14.11
			c-13.83,17.05-34.98,7-51.54,13.93c-7.41-3.85-14.82-7.69-22.23-11.54c-14.15-35.36,32.36-37.75,34.8-64.09
			C276.65,502.89,282.48,502.9,288.31,502.91z"/>
		<path class="st78" d="M254.97,600.72c24.18,16.31,52.13,5.38,77.83,10.77c8.36,9.97,32.65-4.02,30.95,17.58
			c-1.1,13.96-18.05,15.17-29.93,16.16c-37.49,3.12-74.38,2.99-99.07-32.99c-8.98-6.38-19.07-11.86-19.89-24.79
			C228.24,591.87,241.61,596.3,254.97,600.72z"/>
		<path class="st76" d="M270.82,502.89c8.71,32.4-38.32,34.52-34.8,64.09C201.14,520.36,259.54,524.42,270.82,502.89z"/>
		<path class="st79" d="M258.25,578.52c34.36-21.03,49.38-20.98,53.34,0.17c-7.39,2.82-14.78,5.63-22.18,8.44
			C279.03,584.26,268.64,581.39,258.25,578.52z"/>
		<path class="st80" d="M234.75,612.24c36.66,23.55,76.98,23.72,118.8,18.3c0.76-14.67-17.57-8.98-20.76-19.06
			c17.73,0.02,35.46,0.03,53.19,0.04c13.3,5.24-4.9,33.02,21.08,29.23c40.72,36,83.76,11.86,125.63,4.15
			c20.21-3.72,39.04-18.53,60.4-4.21c3.97,32.29-26.43,27.49-41.89,38.82c-16.59,12.16-38.42,7.67-55.74,17.51
			c-66.38,29.85-137.02,19.8-206.35,22.11c-21.18-14.73-49.55-18.42-64.8-42.26C256.83,660.02,230.81,633.71,234.75,612.24z"/>
		<path class="st49" d="M495.47,697.03c28.14-25.8,74.02-19.73,97.33-54.2c8.32-20.58,14.9-42.9,43.28-43.51
			c3.64,0.1,7.28,0.2,10.92,0.3C616.07,662.58,568.53,699.68,495.47,697.03z"/>
		<path class="st81" d="M357.31,380.5c8.83-23.81,30.27-27.57,51.17-32.19c27.74,0.55,55.51,0.6,83.22,1.87
			c14.73,0.67,33.05-3.1,35.75,19.96c-14.25,13.04-30.24,21.88-50.3,20.95c-33.75-9.56-65.37,7.93-98.4,8.02
			C366.87,398.36,359.07,392.89,357.31,380.5z"/>
		<path class="st82" d="M473.94,382.55c17.84-4.14,35.67-8.28,53.5-12.42c-7.03,14.37-14.06,28.74-21.09,43.12
			c-21.33,21.87-49.43,21.61-76.87,23.53c-6.72-0.52-13.44-1.04-20.16-1.56c-8.92-12.59-41.04-4.95-30.27-34.73
			C410.36,392.8,440.75,380.27,473.94,382.55z"/>
		<path class="st83" d="M429.49,436.78c18.08-32.48,51.16-15.96,76.86-23.53c14.35,1.05,28.71,2.09,43.06,3.14
			c-0.33,2.22-0.81,4.41-1.45,6.57c-19.68,23.68-54.49,17.35-75.53,38.21c-20.03-6.28-22.63,30.76-45.24,18.32
			c-5.6-9.75-6-19.2,1.48-28.21C428.94,446.44,429.21,441.61,429.49,436.78z"/>
		<path class="st84" d="M463.21,459.11c16.56-39.55,52.39-33.84,84.78-36.14c7.73,1.12,15.49,2.25,23.26,3.38
			c0.79,2.09,1.27,4.25,1.44,6.47c2.57,9.89,5.15,19.78,7.72,29.68c-4.94,23.01-10.42,45.42-31.51,60.34
			c-23.95,16.95-48.08,14.76-70.62-0.28C454.86,506.93,442.73,486.29,463.21,459.11z"/>
		<path class="st85" d="M397.97,643.09c-27.42-1.65-5.1-22.14-11.97-31.57c64.1,31.51,123,1.96,182.11-17.29
			c9.01-2.93,38.6-1.34,22.18-28.68c11.64-13.92,23.27-27.85,34.9-41.77c9.66,4.04,10.24,12.43,10.15,21.15
			C615.3,639.5,504.73,685.22,397.97,643.09z"/>
		<path class="st86" d="M397.97,643.09c19.65-0.04,39.41-1.51,58.92,0.13c81.58,6.89,149.7-9.67,178.46-98.3
			c0.24,18.13,0.49,36.26,0.74,54.4c-15.57,13.36-22.29,35.54-43.28,43.51c-39.17,10.14-78.12,21.22-117.56,30.11
			C443.67,680.06,414.46,676.97,397.97,643.09z"/>
		<path class="st87" d="M377.65,401.32c3.39,18,32.79,11.68,31.67,33.9c-76.93,42.26-140.22,21.87-194-42.26
			c46.05-18.72,95.1-3.2,141.98-12.47c6.15,4.57,12.29,9.15,18.43,13.72C376.38,396.59,377.01,398.96,377.65,401.32z"/>
		<path class="st88" d="M152.19,283.71c39.31,10.03,67.59,23.27,90.07,46.93c8.21,8.65,17.98,19.15,7.32,32.58
			c-10.98,13.82-22.4,6.3-32.69-0.97C190.8,343.8,163.97,325.78,152.19,283.71z"/>
		<path class="st89" d="M161.14,371.83c-7.52,77.17,4.39,90.61,70.73,79.18c-2.79,19.43-12.51,32.67-31.77,38.02
			c-67.77-15.96-87.33-55.94-60.49-123.65c4.22-2.11,8.44-4.23,12.66-6.35C155.23,363.29,158.19,367.56,161.14,371.83z"/>
		<path class="st90" d="M139.62,365.38c-9.38,55.68,2.07,101.17,60.5,123.64c-59.38,12.3-76.91-24.67-85.25-72.45
			C121.41,398.68,105.98,370.16,139.62,365.38z"/>
		<path class="st91" d="M463.21,459.11c-6.26,34.79,11.14,54.94,42.61,62.6c31.68,7.71,49.94-10.72,60.75-38.38
			c3.14-8.03,3.52-17.67,13.85-20.83c2.54,68.41-18.61,88.08-99.46,92.5c-20.73-22.28-66.88-28.08-48.87-75.46
			C445.84,477.88,437.54,442.58,463.21,459.11z"/>
		<path class="st92" d="M432.08,479.53c-5.11,39.04,42.28,44.03,48.89,75.46c-40.54,6.93-67.34-13.43-87.34-45.31
			c-14.65-23.34-0.49-40.53,15.83-55.26c4.05-3.65,12.68-2.22,19.2-3.13C429.8,460.69,430.94,470.11,432.08,479.53z"/>
		<path class="st93" d="M377.65,401.32c-0.08-2.52-0.71-4.88-1.91-7.1c31.76-12.02,62.69-31.11,98.19-11.67
			C443.21,395.81,412.2,407.68,377.65,401.32z"/>
	</g>
</g>
</svg>
