<?xml version="1.0" encoding="utf-8"?>
<!-- Generator: Adobe Illustrator 23.1.0, SVG Export Plug-In . SVG Version: 6.00 Build 0)  -->
<svg version="1.1" id="Calque_1" xmlns="http://www.w3.org/2000/svg" xmlns:xlink="http://www.w3.org/1999/xlink" x="0px" y="0px"
	 viewBox="0 0 1125 1158.59" style="enable-background:new 0 0 1125 1158.59;" xml:space="preserve">
<style type="text/css">
	.st0{fill:#E5B300;}
	.st1{fill:#F6C300;}
	.st2{fill:#D3A100;}
	.st3{fill:#FDD600;}
	.st4{fill:#C68601;}
	.st5{fill:#F8F5F2;}
	.st6{fill:#CD9400;}
	.st7{fill:#EDBA02;}
	.st8{fill:#CB9901;}
	.st9{fill:#CD9600;}
	.st10{fill:#FAD60A;}
	.st11{fill:#DBAA00;}
	.st12{fill:#FAC601;}
	.st13{fill:#DDAB00;}
	.st14{fill:#D5A200;}
	.st15{fill:#3F2C2B;}
	.st16{fill:#E9E2DD;}
	.st17{fill:#D1C6BC;}
	.st18{fill:#FEE200;}
	.st19{fill:#DFAE03;}
	.st20{fill:#9A5901;}
	.st21{fill:#F9F8F6;}
	.st22{fill:#291A16;}
	.st23{fill:#7A585A;}
	.st24{fill:#FEE100;}
	.st25{fill:#D7A508;}
</style>
<g>
	<g>
		<path class="st0" d="M796.46,23.22c68.44-8.52,123.2,22.13,174.96,61.22c11.3,8.53,19.54,19.14,20.19,34.11
			c3.35,6.54,6.02,13.34,8,20.41c39.92,87.9,20.05,176.28,1.15,264.32c-6.31,29.4-16.35,57.97-1.87,87.49
			c8.38,21.73,11.42,44.75,15.67,67.41c27.95,148.71,2.99,204.06-123,284.63c-77.65,49.66-152.45,103.38-209.8,177.39
			c-4.4,6.05-9.98,10.67-16.6,14.09c-41.17,12.08-79.45,11.12-109.82-24.75c-9.1-22.92,3.89-38.93,17.15-54.89
			c6.15-7.2,12.73-14.08,18.92-21.28c7.69-9.86,14.72-20.37,24.85-28.15c5.3-3.63,10.96-6.58,16.84-9.13
			c104.8-36.74,186.25-102.24,242.19-198.34c43.29-74.37,39.65-150.03,2.86-225.81c-1.85-13.4-1.74-26.78,0.22-40.15
			c1.05-6.69,2.92-13.16,5.28-19.49c3.77-9.26,8.34-18.16,12.76-27.1c9.53-56.23,26.23-110.38,10.35-170.01
			c-19-71.33-43.59-135.45-111.81-173.49C791.21,35.18,791.73,29.02,796.46,23.22z"/>
		<path class="st1" d="M15.3,619.48c13.4-103.41,60.02-185.3,153.47-236.84c21.64,36.52-9.03,55.1-28.02,75.49
			c-45.17,48.48-64.34,106.62-62.94,170.63c1.79,81.57,62.91,128.73,141.01,106.17c114.35-33.03,189.45-111.48,228.06-222.48
			c13.22-37.99,5.01-77.65-28.64-106.68c-13.73-22-32.56-34.29-59.62-30.88c-44.56-6.28-84.31,18.51-127.7,19.62
			c-17.72-3.06-34.36-8.28-45.9-23.42c66.65-52.75,145.86-64.98,227.19-70.39c5.74-3.48,11.17-2.9,16.38,1.13
			c18.34,25.23,47.14,34.43,73.36,47.52c4.6,3.48,8.42,7.75,11.69,12.46c7.82,16.62,24.2,21.88,39.21,29.09
			c8.13,5.56,12.97,13.13,14.45,22.93c0.16,6.73-0.73,13.22-2.55,19.65c-11.1,258.58-159.54,350.08-373.22,431.22
			c-68.76,26.11-117.92-4.27-173.29-89.72c-4.35-5.21-8.74-10.4-13.19-15.55c0.26-32.13,0.52-64.27,0.78-96.4
			C13.11,649.41,5.73,632.6,15.3,619.48z"/>
		<path class="st2" d="M1116.07,718.47c0.08,27.81,0.15,55.62,0.23,83.43c-30.26,111.89-99.19,197.22-186.59,269.32
			c-17.43,14.38-37.92,25.62-62.37,24.23c-47.55-18.16-16.36-45.51-5.38-66.56c18.55-35.57,4.48-37.72-26.66-34.52
			c-37.04,3.82-74.07,28.64-111.91,2.48c13.23-61.23,61.49-87.96,112.48-108.36c41.35-16.54,77.57-39.6,111.13-67.55
			c51.97-43.29,80.73-97.31,81.18-167.09c0.26-39.96-12.14-83.23,18.28-119.08c54.31,16.16,48.48,64.15,54.87,105.09
			C1105.46,666.25,1094.18,695.4,1116.07,718.47z"/>
		<path class="st3" d="M185.02,371.1c13.98,2.66,32.97-9.69,40.15,13.38c19.13,33.85-8.05,50.76-27.02,68.78
			c-21.88,20.79-45.36,39.88-55.48,69.5c-15,43.9-19.79,89.4,20.79,120.65c37.36,28.77,81.09,19.52,116.05-7.29
			c76.21-58.43,129.11-130.92,121.27-233.91c4.55-5.86,10.3-7.48,17.23-4.9c21.98,1.75,49.36-4.32,44.04,33.96
			c-1.86,13.39-1.6,27.29,8.02,39.39c9.42,11.86,10.6,31.42,4.25,39.2c-31.54,38.66-35.41,91.51-75.16,127.4
			c-52.61,47.5-101.36,95.01-172.71,116.84C152.95,776.6,57.5,733.88,58.3,633.61c0.6-74.73,18.09-142.77,77.24-195.03
			c16.28-14.39,39.32-27.21,33.24-55.94C171.17,374.54,176.97,371.23,185.02,371.1z"/>
		<path class="st4" d="M769.23,1125.9c-12.03,19.97-30.83,23.7-52.37,23.49c-29.37-0.28-58.76,1.1-88.14,1.77
			c-14.09,9.98-27.99,10.09-41.68-0.79c-36.31-5.35-72.88,0.42-109.78-7.66c-47.58-10.42-85.46-38.95-124.53-62.4
			c-34.62-20.78-63.58-18.17-96.12-7.95c-12.36,3.88-20.25,24.91-34.24,19.19c-20.32-8.31-44.76-13.82-54.51-38.33
			c36.35-43.81,77.47-72.59,136.57-42.08c19.45,10.04,35.24-0.4,52.06-7.37c31.9-13.21,63.83-27.27,99.6-13.91
			c27.87,15.77,57.51,26.81,84.06,46.78c41.01,30.85,90.06,25.55,139.55,16.43C752.48,1039.65,778.4,1063.06,769.23,1125.9z"/>
		<path class="st5" d="M472.43,120.32c4.5-10.17,0.45-24.86,15.56-29.43c10.55-5.12,6.99-19.88,17.22-25.22l-0.36,0.65
			C572.24,26.48,607.58,32,652.32,91.25c13.9,18.41,26.7,37.78,39.46,57.12c8.87,39.18,4.65,73.2-36.79,92.32
			c-18.05,2.19-31.05-7.29-43.11-18.75c-10.4-9.68-22.07-14.36-36.2-8.39c-10.09,4.44-17.58,11.66-23.14,21.1
			c-11.63,28.65-11.6,61.85-34.42,85.98c-5.92,3.8-12.24,6.47-19.02,8.27c-31.09,6.82-56.48-5.58-80.21-23.58l-1.97-4.26l-4.7-0.34
			c4.37-54.8,35.1-101.01,49.66-152.49C470.12,140.71,467.96,129.26,472.43,120.32z"/>
		<path class="st6" d="M769.23,1125.9c-7.68-57.83-12.94-61.61-66.45-60.1c-17.04,0.48-29.88,9.48-44.8,13.33
			c-43.54,11.26-84.4-10.39-126.92-13.87c-6.8-0.56-12.9-5.78-12.68-13.36c0.77-26.5-15.78-28.08-36.08-27.57
			c-18.14,0.45-29.1-10.7-34.51-27.54c-1.61-31.2,26.55-30.41,44.02-41.24c31.74-8.34,63.51-27.76,95.42-0.47
			c-9.37,13.9-18.74,27.81-28.11,41.71c5.6,65.18,55.92,33.4,87.99,40.73c5.85-2.65,13.4,3.28,18.74-3.17
			c-2.14-4.95-0.58-8.21,4.57-9.74l0.01-0.01c16.43-13.52,27.14-38.49,55.66-27.82c36.95-6.86,74.63-11.22,110.52-21.72
			c15.9-4.65,30.85-6.14,46.3-5.72c22.22,0.6,32.13,18.38,19.61,36.31c-15.35,21.98-38.4,38.01-47.8,64.98
			c-5.12,14.69-0.06,20.87,12.63,24.83c-3.1,13.84-8.73,24.14-25.55,24.87C817.57,1121.36,793.42,1123.96,769.23,1125.9z"/>
		<path class="st7" d="M16.83,760.09c8.66,1.44,23.49-1.95,23.88,8.28c1.89,48.94,46.83,57.61,74.39,81.89
			c16.84,14.83,41.4,11.67,59.23,4.72c96.98-37.84,191.61-80.45,269.25-152.94c57.14-53.35,78.83-124.88,100.41-195.9
			c5.59-18.39,1.88-39.15-9.08-59.44c-9.97-18.46,10.42-19.7,24.13-20.48c61.5,62.54,58.52,153.91-8.76,233.83
			c-50.68,60.2-111.86,108.97-174.28,156.2c-5.3,4.64-11.24,8.3-17.63,11.22c-47.19,11.77-85.69,41.95-129.22,61.61
			c-45.38,20.49-90.59,30.72-138.68,10.93c-15.85-5.57-27.51-16.55-37.64-29.44c-9.3-15.48-22.11-28.06-34.68-40.85
			c-1.3-9.07-2.6-18.14-3.9-27.21C17.12,788.49,2.19,773.39,16.83,760.09z"/>
		<path class="st8" d="M1116.07,718.47c-19.11,1.07-29.08-5.21-28.61-27.12c0.91-42.56,4.54-85.73-13.57-126.41
			c-5.71-12.83-13.12-23.71-27.76-27.37c-26.88-2.76-41.86-21.45-55.72-41.64c-11.36-0.62-24.97,0.76-27.1-14.48
			c-2.22-15.92,3.28-30.58,8.23-46.31c21.12-67.2,33.35-136.23,33.34-207.31c-0.01-32.39-22.19-60.73-14.33-93.85
			c4.64-4.82,9.31-4.85,14-0.08c64.97,85.82,48.58,180.01,22.24,272c-9.84,34.36-6.79,55.8,19.33,76.41
			c3.95,13.34,12.57,22.5,25.16,28.12c37.23,54.29,45.75,116.44,49.23,179.96C1119.03,699.76,1117.55,709.12,1116.07,718.47z"/>
		<path class="st9" d="M489.54,968.94c-2.54,8.92-7.48,14.73-17.71,13.88c-11.23-0.93-21.07,0.63-24.04,13.97
			c-43.42,2.14-83.79,14.89-117.43,42.1c-15.85,12.82-25.04,8.51-30.96-5.1c-14.17-32.59-35.35-24.47-60.95-16.5
			c-26.04,8.11-39.3,39.7-70.6,35.94c-32.59-6.7-51.58-29.02-65.56-57.09c9.73-10.61,22.21-11.35,35.29-10.02
			c35.17,15.86,56.44-8.9,79.88-27.57c9.76-4.31,19.93-6.65,30.51-7.79c57.91-1.88,108.98-35.91,166.57-36.35
			C450.63,914.12,496.33,907.35,489.54,968.94z"/>
		<path class="st10" d="M793.02,35.16c55.72,11.61,93.43,41.72,107.73,99.31c9.14,36.83,22.44,72.61,33.22,109.05
			c1.89,6.4,0.46,13.75,0.78,20.65c0.65,14.02-21.31,120.92-27.74,134.58c-26.47-25.93-17.11-59.53-18.87-90.51
			c-2.19-38.41,3.54-77.72-14.68-113.91c-13.58-44.64-42.82-76.76-81.7-100.96c-17.41-13.43-33.96-7.55-50.4,2.38
			c-13.9,5.19-26.78,5.75-36.63-7.86c-7.76-18.28-7.93-35.45,7.2-50.41c4.57,0.96,9.14,1.92,13.71,2.88
			c14.48,3.59,29.02,7.8,42.17-3.72l-0.35-3.63C776.25,30.33,784.97,28.78,793.02,35.16z"/>
		<path class="st11" d="M141.68,996.76c-13.13-0.21-26.25-0.41-39.38-0.62c-34.06-40.81-67.77-81.81-74.69-137.38
			c9.84-9.88,20.09-8.78,30.57-1.12c18.32,0.22,9.5,27.6,27.83,27.82c6.58,6.82,12.95,13.81,17.35,22.33
			c18.29,33.21,46.27,31.35,76.71,21.55c23.25-7.49,46.19-22.29,71.07-4.3c12.07,19.06-0.82,31.25-12.07,43.9
			c-9.26,0.02-18.52,0.04-27.78,0.05C193.18,991,169.45,998.94,141.68,996.76z"/>
		<path class="st10" d="M684.28,147.78c-9.06,0.58-18.99,3.2-24.67-6.95c-8.94-15.98-15.51-33.62-26.31-48.15
			c-26.7-35.91-55.28-43.01-101.15-29.29c-8.62,2.58-18.18,2.02-27.3,2.92c9.53-24.83,23.7-44.03,53.58-44.15
			c17.13-12.98,39.33,0.01,56.82-11.11c8.77,0.2,17.54,0.39,26.31,0.59c4.94,3.95,9.45,8.33,13.53,13.18
			c16.52,30.69,30.01,62.59,37.97,96.69C693.94,131.53,692.04,140.65,684.28,147.78z"/>
		<path class="st7" d="M685.82,120.75c-20.8-29.76-34.53-62.65-43.43-97.7c14.03-10.34,28.23-9.41,42.56-0.67
			c4.59-0.4,8.93,0.45,13.04,2.55c5.14,3.48,10.08,7.22,14.79,11.26l-0.87,1.29c0.51,19.23,1.03,38.47,1.54,57.7
			C714.02,114.27,706.19,124.29,685.82,120.75z"/>
		<path class="st0" d="M58.18,857.64c-10.19,0.37-20.38,0.75-30.57,1.12c-14.35-6.04-10.68-17.94-9.44-29.04
			C38.72,828.69,52.1,837.95,58.18,857.64z"/>
		<path class="st8" d="M615.24,11.05c-15.12,23.22-37.87,7.44-56.82,11.11C573.67-0.43,595.46,10.47,615.24,11.05z"/>
		<path class="st8" d="M16.83,760.09c1.61,8.52,1.12,18.3,5.31,25.26c6.97,11.57,2.27,14.9-7.87,17.15
			c-18.95-10.96-10.68-27.74-9.21-43.07C8.98,759.75,12.9,759.97,16.83,760.09z"/>
		<path class="st8" d="M684.95,22.38c-14.19,0.22-28.38,0.45-42.56,0.67c0.01-3.83-0.27-7.63-0.85-11.42
			C657.2,10.44,674.75,1.56,684.95,22.38z"/>
		<path class="st8" d="M15.3,619.48c-0.75,15.04,9.61,32.5-9.46,43.56C4.08,647.45-3.46,630.61,15.3,619.48z"/>
		<path class="st8" d="M767.78,36.64c-12.31,21.05-26.66,18.87-42.17,3.72C739.67,39.12,753.73,37.88,767.78,36.64z"/>
		<path class="st10" d="M505.2,65.67c1.34,13.24,1.25,25.5-17.22,25.22C490.3,80.15,489.75,67.45,505.2,65.67z"/>
		<path class="st8" d="M712.78,36.19c-7.94,0.2-12.99-3.39-14.79-11.26C706.77,23.62,711.16,28.09,712.78,36.19z"/>
		<path class="st4" d="M1004.55,133.91c-4.67,0.03-9.33,0.05-14,0.08c0.35-5.15,0.71-10.3,1.06-15.45
			C999.68,120.51,1003.89,125.72,1004.55,133.91z"/>
		<path class="st12" d="M891.17,464.12c1.58,13.71,5.93,25.41,13.8,37.77c20.36,31.99,26.15,64.08,18.58,105.81
			c-19.34,106.69-80.86,177.89-163.23,240.69c-40.81,31.12-84.35,50.24-131.66,64.89c-13.48-14.99-18.26-32.9-17.77-52.59
			c-0.02-14.66,2.57-28.77,9.76-41.71c12.46-16.71,31.34-17.2,49.69-19.87c92.21-13.39,175.26-105.68,181.16-198.87
			c2.03-32.15-5.43-54.76-41.21-59.19c-9.99-2.23-19.27-5.96-27.44-12.23c-4.54-5.51-6.23-11.85-5.55-18.9
			c5.65-13.55,16.53-21.08,29.74-25.94C835.96,481.25,861.53,464,891.17,464.12z"/>
		<path class="st13" d="M990.42,495.94c19.02,13.29,47.66,13.69,55.72,41.64c0,39.42-2.26,79.01,0.5,118.24
			c4.33,61.45-18.91,113.82-59.65,154.11c-39.57,39.13-80.95,79.08-140.81,91.86c-53.83,11.49-90.37,50.23-120.11,94.98
			c-21.05,4.28-28.76,35.24-55.66,27.82c-0.17-18.22-2.79-36.81,15.65-49.62C762.05,922.19,827.8,856.18,907.65,808
			c114.34-68.99,104.15-108.65,90.11-238.31C995.12,545.38,993.33,520.47,990.42,495.94z"/>
		<path class="st14" d="M628.21,857.74c0.15,18.51,0.3,37.03,0.45,55.54l-6.91,0.02l-6.91-0.02c-8.63,7.38-5.7,20.5-13.94,28.07
			c-0.93,8.19-5.45,12.8-13.68,13.71c-34.32-7.72-63.91,17.8-97.69,13.87c-17.81-37.23-40.31-51.06-76.72-37.93
			c-37.28,13.44-78.59,10.76-113.88,34.65c-14.2,9.61-39.58,2.68-59.87,3.28c-4.27-16.88,10.28-27.49,13.93-41.73
			c2.41-3.07,4.81-6.14,7.17-9.27C375.14,850.87,498.75,836.38,628.21,857.74z"/>
		<path class="st15" d="M891.31,415l0.05,5.55c-20.42,69.43-69.47,57.67-119.9,42.32c-6.52-3.65-11.86-8.58-16.23-14.63
			c-6.47-9.27-11.13-19.37-14.16-30.26c-6.98-50.87-7.03-99.06,49.62-124.52c7.15-0.78,14.13,0.28,20.79,2.98
			c3.98,2.12,8.35,4.11,11.57,7.32c23.65,23.67,57.34-33.38,71.63,4C907.11,340.24,907,379.68,891.31,415z"/>
		<path class="st16" d="M891.31,415c0.16-33.9,0.55-67.81,0.11-101.7c-0.04-3.44-4.4-8.31-7.93-9.91
			c-7.33-3.33-15.16,1.75-15.48,7.62c-1.4,25.35-13.2,38.45-38.66,33.94c-24.89-4.41-17.33-28.23-23.23-43.94
			c9.74-22.44,27.88-27.81,50.13-24.75c7.4,0.79,14.93,8.76,22.31-0.28c-9.66,7.12-14.64-1.45-20.88-6.29
			c-3.28-6.18-5.32-12.62-6.38-19.48c0.59-29.06,4.31-56.92,29.16-76.69c21.77,20.11,26.11,46.48,26.24,74.17
			c0.25,50.36,0.22,100.71,0.3,151.07C904.78,407.08,898.99,411.95,891.31,415z"/>
		<path class="st17" d="M771.25,450.14c6.56,1.17,13.12,2.29,19.67,3.52c39.57,7.41,75.85,4.87,100.44-33.12
			c-0.06,14.52-0.13,29.05-0.19,43.57c-21.21,25.5-47.89,37.04-81.14,31.77C790.27,486.42,744.57,498.97,771.25,450.14z"/>
		<path class="st13" d="M670.44,1038.51c-30.37,21.9-65.26,13.62-98.35,12.78c-12-0.31-32.91-10.77-33.51-17.96
			c-1.04-12.33,2.93-30.51,20.54-36.55c29.79,38.5,72.47,25.46,111.29,27.81c0,4.64,0.01,9.29,0.01,13.93
			C670.42,1038.53,670.44,1038.51,670.44,1038.51z"/>
		<path class="st6" d="M600.91,941.36c0.43-11.45-3.23-24.93,13.94-28.07C614.37,924.72,617.61,937.99,600.91,941.36z"/>
		<path class="st18" d="M406.01,398.81c31.28,65.25,5.52,117.96-35.84,168.04c-27.28,33.03-47.74,70.8-89.78,91.24
			c-38.22,18.59-104.4,26.85-128.75,7.42c-34.09-27.2-52.34-93.76-31.69-138.18c13.62-29.29,21.2-63.16,58.88-79.79
			c21.93-9.68,48.44-29.31,46.34-63.05c46.17-12.87,89.69-39.33,140.69-27.33C369.91,380.03,393.9,383.7,406.01,398.81z"/>
		<path class="st19" d="M502.2,322.05c6.12-1.09,12.23-2.18,18.35-3.27c31.47-3.12,55.22,15.73,81.18,28.34
			c20.61,14.51,37.97,32.04,49.65,54.71c3.94,8.11,7.29,16.51,11.18,24.69c3.25,5.19,6.22,10.51,9.36,15.81
			c3.54,5.34,6.38,10.96,8.93,16.84c2.4,6.18,4,12.5,5.16,18.99c6.77,51.17-5.22,100.02-18.02,148.76
			c-12.02,18.78-20.62,38.33-12.98,61.44c0.05,32.18-5.05,62.83-25.56,89.1c-88.09,36.04-178.31,64.16-273.71,72.94
			c-18.75-16.86-2.89-25.14,8.57-34.51v0c30.69-24.43,63-46.88,98.79-62.64c65.48-28.82,102.14-80.22,130.83-143.9
			c34.38-76.32,34.26-141.41-34.86-196.96c-0.9-8.39-5.56-13.01-13.94-13.89c-12.37-11.56-30.83-14.02-41.64-27.91
			c-0.02-4.62-0.04-9.24-0.07-13.86C488.94,345.66,474.08,334.61,502.2,322.05z"/>
		<path class="st0" d="M559.07,412.38c69.2,26.35,90.58,68.71,71.77,133.7c-10.66,36.82-23.54,72.16-38.85,107.34
			c-18,41.36-41.78,74.67-83.01,94.28c-48.14,22.9-92.3,54.25-144.67,68.18c0.66-11.17,0.2-21.01,13.57-28.03
			c61.65-32.39,106.38-84.99,154.53-133.3c44.61-44.76,54.94-100.93,55.43-161.78c0.23-28.4-36.96-37.05-28.79-66.56
			C559.06,421.6,559.07,416.99,559.07,412.38z"/>
		<path class="st20" d="M406.01,398.81c-9.02-0.2-18.06,0.01-27.04-0.69c-13.07-1.02-31.5,5.49-37.65-7.37
			c-9.88-20.65,22.9-17.1,24.54-33.6c6.73,0.01,13.55,0.7,20.18-0.09c32.69-3.88,39.46,12.44,31.96,40.26
			C413.94,397.29,409.94,397.79,406.01,398.81z"/>
		<path class="st7" d="M502.2,322.05c-17.73,12.19-1.16,23.18,1.22,34.67c-37.65-1.57-73.19-6.6-84.54-51.41
			C448.21,303.19,475.22,312.52,502.2,322.05z"/>
		<path class="st7" d="M503.49,370.58c21.13-1.52,35.3,7.35,41.64,27.91C525.64,397.55,500.14,405.58,503.49,370.58z"/>
		<path class="st21" d="M643.13,411.05c-14.35-17.82-28.69-35.63-43.04-53.45c-12.19-31.18-3.38-61.39,4.12-91.69
			c6.88-17.14,22.76-24.6,36.83-34.03c8.59-1.54,22.09,2.47,24.43-7.08c6.29-25.65,24.22-48.61,18.82-77.03
			c0.51-9.01,1.03-18.02,1.54-27.03c13.15-4.26,21.96-13.23,27.63-25.57c10.06-2.91,22.18-1.97,27.04-14.54
			c17.68-15.11,36.33-10.7,55.16-2.72c35.48,25.46,79.81,43.08,84.81,95.59c2.95,31.23-20.14,57.69-16.3,89.08
			c-23.92,12.16-50.01,19.95-72.14,35.73c-37.56,33.89-38.74,78.04-34.89,123.61c0.22,8.26,4.98,13.63,11.42,17.92
			c1.54,3.26,2.43,6.69,2.69,10.28c-4.87,17.3-4.72,31.85,18.92,32.1c10,0.11,16.88,3.77,19.85,13.64
			c-9.44,5.39-18.89,10.78-28.33,16.17c-11,18.12-25.77,30.98-47.57,34.06c-58.48-5.7-40.33-63.14-62.86-93.16l0.39,0.44
			c-5.92-3.77-11.13-8.17-13.4-15.17l0.55,0.33C647.42,432.9,650.92,418.76,643.13,411.05z"/>
		<path class="st22" d="M624.91,261.17c-8.27,32.14-16.55,64.29-24.82,96.43c-29.31-7.21-54.49-22.88-79.53-38.82
			c4-34.69-0.08-71.43,25.54-100.64c4.33-5.19,9.52-6.27,15.55-3.29c14.31,15.05,30.11,27.94,50.69,33.73
			C617.78,251.54,622,255.7,624.91,261.17z"/>
		<path class="st23" d="M624.91,261.17c-8.21-0.78-16.42-1.57-24.64-2.35c-9.45-18.26-0.54-33.71,7.49-49.33
			c2.24-1.87,4.52-3.7,6.8-5.54c16.77,1.78,12.62,23.39,26.47,27.93C641.18,244.69,639.85,256.68,624.91,261.17z"/>
		<path class="st23" d="M567.98,197.37c17.7-13.16,34.23-18.03,46.58,6.59l0.73-0.85c-10.23,11.26-22.79,13.55-36.96,9.61
			C571.75,209.72,568.3,204.59,567.98,197.37z"/>
		<path class="st23" d="M560.57,217.66c-4.83,0.16-9.66,0.32-14.49,0.48c0.47-14.12,12.38-16.18,21.89-20.78
			c2.38,3.08,4.87,6.08,7.45,9C574.71,215.7,571.09,221.21,560.57,217.66z"/>
		<path class="st13" d="M670.42,1038.53c3.76,2.17,7.52,4.34,11.29,6.5c-10.77,9.96-8.98-1.82-11.27-6.52L670.42,1038.53z"/>
		<path class="st0" d="M364.31,815.88c-4.63,9.28-9.27,18.56-13.9,27.84c-15.4,48.81-66.29,45.32-99.67,67.72
			c-54.81,8.76-109.18,59-164.71,1.86c0-9.27-0.01-18.55-0.01-27.82c81.02,28.94,146.29-12.83,209.11-52.03
			C318.9,818.6,339.91,816.32,364.31,815.88z"/>
		<path class="st14" d="M141.68,996.76c19.11-19.53,44.73-22.72,69.61-27.77C197.04,1015.71,182.1,1021.66,141.68,996.76z"/>
		<path class="st7" d="M795.65,77.92c-18.39,0.91-36.77,1.82-55.16,2.72C758.23,59.52,772.95,58.79,795.65,77.92z"/>
		<path class="st19" d="M86.02,913.29c58.71,31.94,112.06-0.39,166.97-13.91c7.28,9.28,8.3,18.55,0.01,27.83
			c-26.64-4.34-47.18,10.99-69.92,20.53C137.04,967.07,106.34,955.34,86.02,913.29z"/>
		<path class="st24" d="M628.58,774.19c-7.01-34.16,17.75-63.71,14.16-97.38c-2.73-21.23,15.33-32.05,23.82-47.67
			c15.21-33.41,28.78-68.14,66.63-83.45c17.98-3.33,32.16-15.11,48.59-21.93c9.26-0.02,18.53-0.04,27.79-0.06
			c48.96,57.09,52.08,95.06,13.4,162.99c-47.73,83.79-101.81,111.53-186.29,95.56C633.96,779.58,631.27,776.88,628.58,774.19z"/>
		<path class="st11" d="M253,927.21c0-9.28,0-18.55-0.01-27.83c23.15-34.86,70.75-26.93,97.41-55.66
			c13.41-1.15,27.1,2.52,39.97-5.61c62.2-39.3,138.17-34.91,204-63.33c9.68-4.18,22.72-0.58,34.2-0.58l0.46-0.19
			c10.78,14.07,10.96,28.04-0.39,41.9c-0.14,13.95-0.29,27.9-0.43,41.84c-62.23,18.24-126.34,10.44-189.61,14.71
			c-44.67,3.02-86.4,21.98-127.23,40.41C292.66,921.31,274.56,930.93,253,927.21z"/>
		<path class="st3" d="M628.64,815.9c0.13-13.97,0.26-27.93,0.39-41.9c33.81-0.61,66.93,2.45,100.05-13.37
			c66.44-31.73,85.06-94.27,107.55-154.96c4.27-11.51-5.25-21.13-9.1-31.64c-6.11-16.68-21.86-30.18-17.97-50.35
			c56.99,7.65,62.79,23.73,59.63,77.37c-5.31,89.98-64.78,142.42-120.51,199.51c-12.6,12.91-26.49,16.27-43.6,15.59
			C679.64,815.14,654.13,815.9,628.64,815.9z"/>
		<path class="st3" d="M781.78,523.75c-6.53,20.35-20.59,29.4-41.74,27.76c-4.86-3.13-6.46-6.24-4.81-9.33
			c1.63-3.07,3.27-4.6,4.92-4.6c9.25-15.99,25.82-20.08,41.55-25.52C781.73,515.95,781.76,519.85,781.78,523.75z"/>
		<path class="st23" d="M792.03,298.32c13.79-32.62,38.17-43.85,72.14-35.73c-0.45,3.77,0.16,7.36,1.83,10.77
			c4.38,3.08,5.85,6.17,4.41,9.27c-1.44,3.11-2.89,4.66-4.35,4.66c-21.82-3.51-41.08,4.23-59.94,13.7
			C801.42,300.11,796.73,299.21,792.03,298.32z"/>
		<path class="st17" d="M768.57,439.86c-10.85-1.49-14.28-7.7-11.42-17.92C764.82,425.44,769.87,430.63,768.57,439.86z"/>
		<path class="st21" d="M866.06,287.3c-0.02-4.65-0.04-9.29-0.06-13.94c8.55,0.11,22.41-1.81,22.55,6.66
			C888.69,288.19,874.5,286.47,866.06,287.3z"/>
		<path class="st25" d="M740.14,537.57c-0.04,4.64-0.07,9.29-0.11,13.93c-37.28,16.11-38.16,62.46-69.43,83.56
			c-4.73,5.95-9.42,5.65-14.08-0.08c-1.91-61.23,22.64-120.32,14.75-182.03c29.14,12.25,28.29,43.35,39.22,66.19
			C717.9,534.63,725.85,538.45,740.14,537.57z"/>
		<path class="st11" d="M656.52,634.98c4.69,0.03,9.39,0.05,14.08,0.08c-10.4,13.17-9.34,34-27.86,41.75
			c-17.83-4.39-15.78-18.6-12.71-30.44C633.34,633.61,646.15,635.43,656.52,634.98z"/>
		<path class="st25" d="M643.13,411.05c13.28,4.57,15.65,15.38,15.69,27.51C638.02,438.27,643.6,422.93,643.13,411.05z"/>
		<path class="st25" d="M658.26,438.22c9.38,0.71,12.46,6.99,13.4,15.17C661.78,453.12,657.05,448.3,658.26,438.22z"/>
		<path class="st16" d="M560.57,217.66c8.39,0.75,12.47-4.15,14.85-11.3c13.29-1.09,26.57-2.17,39.86-3.26
			c-5.5,18.44-0.01,39.84-15.01,55.72C563.13,260.34,561.33,258.46,560.57,217.66z"/>
	</g>
</g>
</svg>
