<?xml version="1.0" encoding="utf-8"?>
<!-- Generator: Adobe Illustrator 23.1.0, SVG Export Plug-In . SVG Version: 6.00 Build 0)  -->
<svg version="1.1" id="Calque_1" xmlns="http://www.w3.org/2000/svg" xmlns:xlink="http://www.w3.org/1999/xlink" x="0px" y="0px"
	 viewBox="0 0 1125 1275.59" style="enable-background:new 0 0 1125 1275.59;" xml:space="preserve">
<style type="text/css">
	.st0{fill:#D99E00;}
	.st1{fill:#FCCA00;}
	.st2{fill:#D79700;}
	.st3{fill:#E5AB00;}
	.st4{fill:#F9F801;}
	.st5{fill:#6C645C;}
	.st6{fill:#FBEE00;}
	.st7{fill:#968D83;}
	.st8{fill:#504535;}
	.st9{fill:#292827;}
	.st10{fill:#5D4E38;}
	.st11{fill:#AFA69E;}
	.st12{fill:#E1A400;}
	.st13{fill:#6E6660;}
	.st14{fill:#D39300;}
	.st15{fill:#423A30;}
	.st16{fill:#5C5650;}
	.st17{fill:#42423F;}
	.st18{fill:#E4CFC0;}
	.st19{fill:#7A7A7A;}
	.st20{fill:#FBF348;}
	.st21{fill:#F1EBE5;}
	.st22{fill:#AC9970;}
	.st23{fill:#FCE443;}
	.st24{fill:#FEEE46;}
	.st25{fill:#E8C24A;}
	.st26{fill:#D3AF44;}
	.st27{fill:#FCD945;}
	.st28{fill:#F4CB42;}
</style>
<g>
	<g>
		<path class="st0" d="M914.09,1202.82c-9.28,0.89-18.57,1.77-27.85,2.66c-33.26-38.97,3.64-73.27,7.02-109.83
			c1.44-15.56,6.65-34.48-8.36-45c-14.97-10.5-22.83,9.24-34.51,14.43c-84.66,36.2-175.05,47.22-264.48,63.32
			c-70.48,12.69-139.06,43.29-212.27,15.76c-34.62-47.04,6.34-50.84,34.48-53.86c85.74-9.2,164.98-44.91,249.77-58.04
			c25.69-3.98,65.81-9.14,67.31-38.89c1.61-31.87-39.64-31.21-63.86-41.79c-10.53-4.6-22.02-7.18-33.75-8.03
			c-63.01-6.98-119.27-35.92-178.81-54.31c-19.9-15.77-29.03-34.79-17.94-59.82c33.05-23.01,59.77,5.12,88.52,12.33
			c28.45,7.14,56.06,17.54,85.6,19.91c13.8,1.23,27.66,1.15,41.48,1.26c41,1.03,80.45-6.13,118.09-22.66
			c31.11-13.49,56.01-42.15,94.03-38.96c23.99,4.76,49.08,5.4,70.99,18.34c33.5,57.2,59.02,118.68,93.12,175.66
			c6.73,29.52-2.18,56.18-15.02,82.11c-22.94,25.01-26.7,61.62-51.31,85.69c2.09,21.06-7.62,29.93-28.34,27.45
			C923.72,1195.04,919.07,1199.11,914.09,1202.82z"/>
		<path class="st1" d="M633.12,923.93c45.09,5.55,83.79,28.35,123.54,47.48c20.69,9.96,18.64,22-0.89,36.81
			c-47.86,36.29-102.95,48.88-161.35,57.43c-33.76,4.94-72.33,3.78-99.79,31.77c-15.57,15.88-35.01,7.4-52.71,8.56
			c-20.84,1.36-41.97-1.1-62.71,0.85c-16.28,1.53-11.6,16.76-12.92,27.44c-13.81,16.18-32.88,17.56-52.05,18.69
			c-29.54,1.34-59.05,1.18-88.27-4.49c-14.69-4.16-23.98-13.6-27.82-28.39c-4.75-4.28-8.99-9.03-12.79-14.17
			c-25.29-27.08-50.17-54.55-75.96-81.15C81.67,996.2,65.95,962.11,59.43,923.3c46.6-34.04,77.47-27.63,119.29,24.65
			c1.08,6.68,1.18,13.45,0.42,20.18c-7.18,54.77,13.21,80.88,70.93,68.17c62.51-8.85,129.98,1.52,181.89-47.74
			c5.97-3.7,12.35-6.45,19.04-8.52C514.43,970.22,582.76,976.31,633.12,923.93z"/>
		<path class="st2" d="M225.96,1148.47c1.58-10.07,6.86-14.94,17.65-14.65c22.22,0.59,44.46,0.37,66.69,0.48
			c53.2,45.54,118.99,46.46,179.02,33.07c81.67-18.23,161.2-14.25,242.53-8.33c87.68,6.39,115.97-19.88,125.99-108.91
			c0-4.63-0.32-9.29,0.07-13.88c0.73-8.78-3.38-19.33,6.02-25.4c9.33-6.03,16.61-0.59,23.89,6.02
			c29.19,26.46,37.85,64.14,17.15,104.61c-13.94,27.26,5.33,51.08,9.12,81.35c-2.23,3.71-31.57,12.51-34.64,13.45
			c-83.49,25.39-165.29,56.69-254.57,58.95c-96.31,2.43-190.37-6.57-280.3-42.74C298.65,1214.01,252.38,1194.95,225.96,1148.47z"/>
		<path class="st3" d="M998.23,1078.21c-7.06-30.04,21.12-54.19,14.05-84.23c-15.72-62.3-66.39-111.36-68-179.04
			c20.38-40.27,13.36-75.05-21.18-104.36c-3.75-10.32-2.88-20.05,3.36-29.23c5.68-4.57,12.04-7.6,19.11-9.25
			c62.57,5.27,117.22,28.83,163.75,71.09c-7.54,57.68,23.77,113.02,13.64,169.73c-15.01,84.01-32.21,168.81-110.33,222.31
			C985.78,1121.78,981.39,1102.68,998.23,1078.21z"/>
		<path class="st4" d="M366.06,250.97c61.11-66.49,141.05-83.68,226.38-85.46c55.7-1.16,111.44-0.56,167.17-0.74
			c14.36-6.6,21.83,1.77,28.05,12.89c40.95,6.51,72.77,35.24,111.97,46.01c8.04,43.84-19.64,61.5-54.24,74.13
			c-24.32,1.65-42.78-15.67-65.27-20.06c-92.33-29.93-183.79-33.58-273.77,8.67c-17.29,5.94-33.35,14.43-48.73,24.31
			c-10.37,6.26-21.15,11.68-32.62,15.71c-8.91,2.75-17.86,3.09-26.83,0.28c-5.42-2.83-9.76-6.87-13.11-11.97
			c-7.58-15.96-16.09-31.53-23.4-47.7C360.21,260.88,361.7,255.53,366.06,250.97z"/>
		<path class="st1" d="M970.54,276.99c52.65,33.19,80.18,83.61,97.02,141.38c-8.76,37.72-13.47,76.89-35.33,110.24
			c-15.14,23.09-30.28,48.14-65.15,32.29c-28.04-39.92-5.85-92.81-34.38-132.59c-9.45-25.5-26.57-48.77-23.51-78.04
			C929.5,325.78,948.82,300.38,970.54,276.99z"/>
		<path class="st5" d="M256,235.4c3.35-0.07,6.69-0.22,10.04-0.43c57.8,4,76.81,53.95,107.3,90.3
			c10.02,16.47,29.85,22.55,40.79,38.12c8.55,30.5-9.11,49.58-29.35,67.56c-55.59-1.32-57.18-61.4-92.48-84.89
			c-6.48-6.71-12.44-13.87-18.26-21.17c-4.23-4.59-8.14-9.43-12.06-14.25c-53.04-33.34-81.3,8.82-111.06,38.78
			c-15.82,15.92-22.36,65.36-51.2,64.57c-78.58,60.53-19.05-61.04-5.79-80.4c29.04-42.42,58.75-84.56,104.51-111.46
			C215.05,237.72,240.36,215.57,256,235.4z"/>
		<path class="st6" d="M169.91,965.9c3.39-18.05-4.54-34.41-19.9-38.14c-22.89-5.56-46.34-8.02-68.71-16.99
			c-4.84-1.94-14.45,8.04-21.87,12.53c-5.64-41.78-13.28-83.56-0.57-125.42c5.46-7.83,13.36-9.76,22.31-9.28
			c5.77,0.76,11.39,2.11,16.96,3.77c17.16,5.11,35.31,6.53,52,13.66c21.95,9.75,39.09,24.24,47.36,47.61
			c0.2,42.89,53.74,64.26,44.8,110.89C218.53,986.22,194.42,987.12,169.91,965.9z"/>
		<path class="st7" d="M43.65,740.86C3.07,708.29-8.59,664.83,8.13,618.22c7.44-20.74,4.13-39.79,7.57-59.31
			c7.77-10.56,14.43-23.64,31.2-13.72c8.76,11.74-0.47,26.48,6.36,38.58c-4.19-15.27-1.7-26.59,16.84-28.44
			c12.43,6.15,18.93,17.22,24.39,29.16c9.38,25.64,7.15,55.84,30.11,76.19c9.7,9.21,20.41,17.55,25.13,30.81
			c3.86,26.99-2.67,50.57-22.65,69.82C93.52,777.99,69.24,756.77,43.65,740.86z"/>
		<path class="st3" d="M972.04,558.33c18.91,3.91,33.11-6.88,38.27-21.33c11.58-32.46,37.79-60.39,30.49-99.26
			c-3.94-20.96,13.25-19.1,26.76-19.38c30.12,14.58,3.44,52.38,28.27,69.13c-0.65,40.78-1.12,81.57-2.42,122.33
			c-0.07,2.29-6.96,4.36-10.68,6.53c-36.93,10.42-62.01-18.95-93.31-27.62C978.64,581.48,963.72,576.48,972.04,558.33z"/>
		<path class="st6" d="M970.54,276.99c-3.22,48.17-11.47,58.59-56.26,71.01c-22.68,10.84-34.2-8.66-49.51-18.03
			c-10.09-10.83-27.65-17.6-21.11-37.73c23.9-18.58,48.37-36.7,55.98-68.59C923.94,240.54,956.24,246.79,970.54,276.99z"/>
		<path class="st8" d="M99.72,390.26c-0.31-20.93,29.81-14.88,31.6-44.67c2.13-35.38,77.4-70.26,113.55-67.99
			c21.19,1.33,32.97,10.95,36.29,31.58c-68.62,18.21-108.05,70.63-146.05,124.78c-5.93,3.07-12.21,3.94-18.79,3
			c-9.37-4.88-14.19-13.05-16.62-22.95c0-3.26,0.02-6.53,0.03-9.8C99.71,399.56,99.71,394.91,99.72,390.26z"/>
		<path class="st5" d="M43.35,544.54c-9.22,4.79-18.43,9.58-27.65,14.37c0.39-51.83,26.86-95.96,42.76-143.15
			c7.32-21.74,27.38-7.89,41.29-11.55l0.04,0.04c2.33,25.68,3.21,51.6,12.48,76.21c4.41,20.59,4.56,41.1-0.78,61.56
			c-5.46,16.83-10.58,33.9-26.71,44.29c-19.55-2.16-10.86-18.76-14.78-28.91c-5.42-4.43-8.65-10.24-10.68-16.45
			c-0.01,0.38-2.43-4.01-2.43-4.01s-4.84,1.29-4.82,1.55C49.74,541.54,46.83,543.46,43.35,544.54z"/>
		<path class="st9" d="M787.66,177.66c-9.35-4.3-56.44-8.56-65.79-12.86c-16.84-19.02,3.16-37.37-12.48-57.33
			C697.51,92.32,652.8-55.9,722.46,81.61c8.32,16.42,18.4-0.1,41.14-23.05c4.85-4.9,104.19-67.77,109.77-63.97
			c9.78,6.67-93.27,72.49-96,76.54c-7.34,10.88-3.18,22.42-3.46,33.49c-0.73,29.82-0.25,29.83,41.77,32.82l0.08,0.09
			C814.37,156.5,790.8,159.92,787.66,177.66z"/>
		<path class="st10" d="M1109.32,743.18c-38.94-14.86-79.5-26.66-116.13-45.92c-17.47-9.18-33.35-11.57-51.14-12.76
			c-3.72-18.71,9.98-21.98,22.88-25.98c36.13-7.75,77.22,35.67,109.68-10.69c2.6-1.69,5.24-3.29,7.89-4.89
			c9.35,4.69,18.7,9.38,28.05,14.06l0,0C1110.15,685.73,1109.73,714.45,1109.32,743.18z"/>
		<path class="st11" d="M366.49,334.06c-5.55-3.29-14.08-5.28-16.18-10.07c-17.47-39.99-52.51-62.87-84.28-89.01
			c17.7-24.12,39.09-17.4,58.49-4.5c13.23,8.79,22.85,23.23,41.54,20.5c0.3,4.11,0.42,8.22,0.36,12.34
			c15.19,15.96,9.52,42.49,28.6,56.49l-0.18-0.24C395.08,343.35,383.23,343.5,366.49,334.06z"/>
		<path class="st10" d="M998.14,573.26c28.2,14.37,67.07,22.2,95.27,36.57c-0.08,8.86,17.22,38.31,17.15,47.17l0,0
			c-32.65,21.24-84.43-20.94-111.8-29c-14.73-7.23-30.81-12.05-43.38-23.32c-3.31-5.93-4.1-12.16-1.99-18.69
			C965.45,571.79,985.83,586.69,998.14,573.26z"/>
		<path class="st9" d="M848.93,98.66c89.81-45.51,196.04,16.45,242.07,10.57c10.61-1.36,17.32,4.83,23.69,11.55
			c3.15,3.33,5.45,7.46,8.14,11.23c-3.92,1.96-7.82,5.54-11.77,5.59c-16.14,0.22-36.58,5.39-47.54-2.39
			c-21.83-15.5-44.1-11.27-66.43-11.3c-21.4-0.03-104.13-8.51-128.82-5.62L848.93,98.66z"/>
		<path class="st12" d="M998.23,1078.21c-2.67,20.89,2.63,39.76,14.4,57c-9.61,27.77-55.54,56.77-79.65,55.27
			c-6.87-28.7,37.96-78.7,40.6-105.72C974.55,1074.75,989.51,1079.62,998.23,1078.21z"/>
		<path class="st10" d="M43.65,740.86c29.54-6.65,53.08,20.98,82.59,14.46c5.24,4.28,8.36,9.77,9.39,16.47
			c-0.37,6.7-2.44,12.82-6.15,18.41c-13.31,10.34-26.79,19.84-43.94,7.37l-0.02-0.02c-6.99-9.11-20.49-5.14-27.7-13.81
			C63.23,766.11,46.32,755.84,43.65,740.86z"/>
		<path class="st7" d="M256,235.4c-13.31,0.25-26.65,0.02-39.92,0.89c-10.76,0.7-16.3-3.77-17.65-14.15
			c8.6-1.9,53.05-15.35,61.11-14.5C340.31,216.11,300.2,241.18,256,235.4z"/>
		<path class="st13" d="M956.11,95.36c-9.38,0.04-18.76,0.09-28.14,0.13c-9.2,8.15-18.46,8.16-27.79,0.23
			c-3.45-2.14-6.91-4.27-10.36-6.41C903.69,75.92,933.54,78.64,956.11,95.36L956.11,95.36z"/>
		<path class="st9" d="M900.18,95.73c9.26-0.08,18.53-0.16,27.79-0.23c-1.2,11.85,3.97,29.27-17.06,26.47
			C895.91,119.96,901.36,105.58,900.18,95.73z"/>
		<path class="st9" d="M843.76,123.41c1.26-8.45-3.21-18.33,5.17-24.75c1.3-1,7.39,2.47,9.85,5.17c4.01,4.4,10.81,12.32,9.49,14.47
			c-5.52,8.95-15.98,3.93-24.41,5.2L843.76,123.41z"/>
		<path class="st12" d="M57.83,783.75c11.5,0.05,25.79-5.49,27.7,13.81c-8.89,0.11-17.78,0.22-26.67,0.32
			C58.51,793.17,58.17,788.46,57.83,783.75z"/>
		<path class="st9" d="M843.85,123.5c-2.05,19.31-16.94,12.92-28.08,14.04l-35.38,1.95c2.06-19.26,57.42-39.67,68.53-40.83
			L843.85,123.5z"/>
		<path class="st0" d="M185.34,1105.91c8.43,0.96,12.64,5.73,12.79,14.17C189.1,1119.67,184.15,1115.57,185.34,1105.91z"/>
		<path class="st2" d="M914.09,1202.82c0.67-8.6,32.49-21.25,40.61-21.39C953.92,1189.89,923.48,1204.12,914.09,1202.82z"/>
		<path class="st14" d="M857.84,1050.13c19.96-2.37,33.86,4.88,27.72,26.41c-15.58,54.71-52,91.48-104.68,112.19
			c-6.4,2.52-13.15,2.98-18.86-3.12c-15.2-16.24-35.05-6.8-52.79-9.09c-28.88-3.74-57.23,3.87-87.16-12.31
			c-28.14-15.22-60.92,9.43-91.68,14.65c-73.34,12.46-103.03,16.81-172.99-1.86c-4.33-1.16-9.32-1.16-13.77-0.37
			c-37.8,6.77-34.67-18.44-33.34-42.33c18.66-0.01,37.32-0.02,55.98-0.04c37.04,0.04,74.07,0,111.11,0.15
			c20.64,0.08,41.59,2.3,55.57-18.6c5.33-7.96,14.18-9.95,24.22-9.73C661.26,1108.38,757.85,1070.12,857.84,1050.13z"/>
		<path class="st1" d="M169.91,965.9c17.61,0.1,35.24-0.13,52.84,0.43c10.69,0.34,15.86-4.69,17.47-14.6
			c8.25-8.49,18.38-15.83,29.87-15.34c73.64,3.14,115.77-32.39,131.03-103.21c1.37-6.37,9.21-9.75,15.52-12.7
			c7.68-1.09,14.14,1.21,19.39,6.89c-1.88,19.96,3.49,37.96,14.67,54.39c23.62,30.35,23.6,62.31,6.56,95.43
			c-6.02,6.19-13.36,9.82-21.93,10.91c-78.92,36.37-160.89,31.46-243.55,17.95c-16.86-8.15-25.68-20.73-21.87-40.16L169.91,965.9z"
			/>
		<path class="st6" d="M450.7,979.94c0-32.73,0-65.45,0-98.18c39.94-3.69,75.71,10.01,109.87,28.04
			c23.14,12.21,47.14,15.72,72.55,14.13c-0.37,11.42,3.75,27.01-2.12,33.34c-9.9,10.69-25.36,18.34-39.84,22.28
			c-45.84,12.48-92.76,18.15-140.45,14.43c-4.98-3.11-6.64-6.23-4.99-9.35C447.37,981.5,449.02,979.94,450.7,979.94z"/>
		<path class="st8" d="M436.03,827.38c-4.36-1.11-8.8-1.76-13.3-1.94c-27.97-11.75-51.31-27.19-49.9-62.44
			c3.13-10.21,10.66-14.93,20.7-16.49c6.26-0.05,12.29,1.21,18.08,3.6c5.31,3.03,10.16,6.75,14.67,10.88
			c4.45,3.98,8.6,8.33,12.7,12.67c19.14,19.2,43.17,30.4,67.54,41.03c43.3,7.19,86.44-17.38,129.66-0.6
			c16.3,15.06,33.96,17.1,53.08,5.16c6.18-0.96,12.23-0.59,18.27,0.89c20.98,12.87,48,13.9,65.64,33.32
			c-38.34,25.78-81.49,29.92-125.98,28.06c-13.84-10.55-27.83-9.81-41.94-0.57C544.39,877.13,490.95,849.91,436.03,827.38z"/>
		<path class="st15" d="M773.15,853.45c-26.86-1.59-59.37,10.09-69.97-29.76c3.91-4.83,8.66-8.63,14.05-11.64
			c19.52-7.88,37.45-18.01,49.95-35.76c13.89-16.08,30.22-28.59,50.84-34.68c13.95-3.6,23.99-12.02,30.17-25.18
			c8.85-15.9,20.5-29.32,34.61-40.71c15.73-8.01,26.61-30.97,49.75-16.44c4.17,9.85,3.63,19-3.99,27.11
			c-0.39,8.74-0.79,17.48-1.18,26.22c-0.28,2.94-0.57,5.87-0.78,8.83c-3.84,11.31-9.99,21.49-15.47,32.03
			c-14.13,22.66-21.74,51.74-54.55,56.26C822.75,812.8,806.29,849.03,773.15,853.45z"/>
		<path class="st1" d="M856.58,809.72c15.51-22.64,31.02-45.28,46.53-67.92c9.72-8.43,18.56-17.59,24.41-29.24l-0.14,0.04
			c27.91-3.6,40.21,18.09,53.83,35.35c6.62,8.4,5.81,21.13-1.11,31.66c-7.33,11.14-22.24,16.55-23.98,31.86
			c-7.65,8.1-15.74,15.32-28.09,13.97c-18,0.11-36.01,0.16-54.01,0.35C863.1,825.88,858.5,819.3,856.58,809.72z"/>
		<path class="st12" d="M928.03,825.43c2.11-19.25,16.99-12.8,28.09-13.97c10.33,57.6,38.85,107.61,66.29,158.02
			c7.11,13.07,4.99,21.19-10.14,24.5C967.58,946.1,936.29,891.52,928.03,825.43z"/>
		<path class="st16" d="M605.23,880.94c15.69-18.75,27.28-18.59,41.94,0.57C633.19,881.32,619.21,881.13,605.23,880.94z"/>
		<path class="st2" d="M184.08,994.13c18.53-0.06,37.07-0.16,55.6-0.18c34.75-0.03,69.53-0.86,104.25,0.22
			c31.97,1,59.98-21.76,92.72-14.22c4.05,3.11,5.4,6.23,4.06,9.35c-1.34,3.12-2.68,4.69-4.04,4.69
			c1.48,24.47-10.27,36.43-34.03,42.56c-44.34,11.45-88.91,16.42-134.5,13.6c-9.24-0.57-18.53-0.22-27.79-0.3
			C207.67,1045.34,179.82,1035.94,184.08,994.13z"/>
		<path class="st6" d="M184.08,994.13c7.06,30.39,40.42,34.22,56.27,55.74c-0.53,2.22-0.48,5.98-1.67,6.42
			c-31.14,11.6-39.97,8.35-70.17-28.91c-16.43-20.28-23.33-41.56,1.41-61.48C174.64,975.3,179.36,984.71,184.08,994.13z"/>
		<path class="st3" d="M436.68,993.99c0-4.69-0.01-9.37-0.02-14.05c4.68,0,9.36,0,14.04,0c0.02,4.68,0.02,9.36,0.01,14.04
			C446.03,993.98,441.36,993.99,436.68,993.99z"/>
		<path class="st17" d="M928.56,686.37c-0.18-9.79-0.35-19.58-0.53-29.36c-8.27-27.88,8.77-42.76,28.81-56.1
			c13.73,4.7,34.69-12.43,41.32,13.7c-4.63,21.13-12.14,40.82-28.14,56.27c-10.89,1.33-25.58-5.15-27.97,13.63
			C937.56,685.15,933.06,685.78,928.56,686.37z"/>
		<path class="st18" d="M492.75,277.7c70-41.97,146.88-46.36,225.45-40.94c3.98,0.27,10.51,3.48,11.14,6.35
			c7.08,32.44,21.49,19.73,38.69,8.37c7.71-5.09,17.54-0.01,19.46,11.68c-5.03,17.2-18.08,25.07-34.14,29.48
			c-76.72-7.36-153.44-6.42-230.14,2.12C511.15,292.49,500.36,287.92,492.75,277.7z"/>
		<path class="st11" d="M758.74,278.79c9.59-5.21,19.17-10.42,28.76-15.63c27.44-7.16,34.91,24.25,56.15,29.09
			c-1.31,20.7,28.45,6.48,28.64,25.49c5.41,20.49,39.58,38.11,6.24,62.5C821.05,367.19,781.94,332.38,758.74,278.79z"/>
		<path class="st19" d="M366.49,334.06c11.39-1.05,26.31,4.83,28.35-14.5c9.29,0.13,18.58,0.26,27.86,0.38
			c2.22,2.35,4.45,4.7,6.69,7.04c5.52,12.89,5.1,25.2-3.63,36.67c-5.98,3.71-11.67,3.45-17-1.35
			C389.67,360.38,361.56,371.94,366.49,334.06z"/>
		<path class="st19" d="M395.02,319.8c-16.5,0.81-31.63,0.65-28.7-23.31c1.33-10.9,0.15-22.11,0.1-33.17
			C395.01,272.49,396.07,295.62,395.02,319.8z"/>
		<path class="st11" d="M492.75,277.7c9.52,0.19,19.03,0.39,28.55,0.58c-5.61,40.27-32.35,41.5-63.6,34.45
			c-2.59-2.49-5.17-5.01-7.75-7.53C457.45,285.5,471.58,276.12,492.75,277.7z"/>
		<path class="st11" d="M422.7,319.95c2.2-17.64,16.2-13.47,27.24-14.75l1.01,1.08c-0.1,22.56-11.83,22.86-28.01,14.64L422.7,319.95
			z"/>
		<path class="st13" d="M871.94,376.03c14.25-2.53,19.04-12.11,10.43-22.39c-9.43-11.27-11.5-22.59-10.09-35.89
			c13.99,10.09,27.99,20.18,41.98,30.26c7.36,24.08,29.29,42,29.26,69.21c-0.39,46,13.4,92.67-6.52,137.79
			c-11.59,17.85-28.52,25.45-49.3,25.57c-37.13-14.29-22.56-39.04-12.81-62.86c22.84-24.17,17.42-49.66,5.7-77.2
			C872.04,420.39,853.59,400.26,871.94,376.03z"/>
		<path class="st8" d="M928.03,558.72c0.02-38.91,0.46-77.82-0.19-116.71c-0.21-12.61,0.98-22.5,15.7-24.79
			c22.73,18.87,27,44.45,26.92,72.02c-0.07,23.03,1.01,46.06,1.59,69.09c-0.34,20.78,16.38,11.73,26.09,14.93
			c-6.86,26.09-27.84,8.68-41.61,13.51C939.89,584.68,922.79,583.06,928.03,558.72z"/>
		<path class="st20" d="M141.77,685.36c-11.01-1.3-25.65,4.74-28.07-13.91c10.7-43.9,54.63-60.15,77.68-93.67
			c9.96-24.61,15.28-50.53,21.13-76.3c1.28-5.77,3.11-11.35,5.14-16.88c3.99-11.09,7.59-22.32,11.15-33.59
			c1.79-5.79,4.15-11.32,6.74-16.78c20.79-33.15,27.41-74.97,61.13-100.2c43,19.72,48.87,71.19,83.72,97.88
			c3.3,0.03,6.59,0.05,9.89,0.04c33.21,6.32,62.48-8.54,93.01-17.03c32.63-9.08,65.64-22.97,97.63,2.21
			c12.62,38.81-13.55,55.26-41.55,68.55c-23.04,10.94-48.91,13.89-73.62,20.1c-67.26,16.89-73.83,34.95-31.93,87.91
			c15.83,20.01,33.22,38.78,40.91,63.98c3.46,18.44,2.11,35.29-15.52,46.69c-21.51,7.36-40.95-0.55-60.44-8.19
			c-9.04-4.36-16.65-10.59-23.17-18.15c-13.34-21.09-29.55-39.64-50.03-54.32c-4.5-4.65-7.76-10.03-9.8-16.16
			c-6.55-22.13,7.18-46.13-6.29-67.64c-17.1,20.83-22.43,44.61-18.29,70.99c1.79,11.45,1.34,22.9-2.95,34.01
			c-5.16,9.47-12.57,16.56-22.1,21.52C224.81,673.52,185.24,692.36,141.77,685.36z"/>
		<path class="st18" d="M127.27,431.81c9.31-17.75,18.25-35.7,28-53.21c27.45-49.28,65-80.64,125.91-69.42
			c-0.04,3.72,0.08,7.44,0.36,11.15c-11.35,42.88-28.61,83.82-41.36,126.23l0.12-0.14c-13.36,11.02-1.91,30.31-13.93,41.78
			l-0.04,0.75C158.27,497.81,135.07,484.43,127.27,431.81z"/>
		<path class="st8" d="M408.76,362.31c4.61-0.08,9.22-0.16,13.83-0.22c36.85-37.39,75.64-69.69,133.89-51.27
			c6.83,3.79,10.74,9.59,11.81,17.33c-1.25,11.41-7.26,20.12-15.53,27.55c-37.52,23.61-77.74,42.69-114.66,67.61
			c-16.89,11.4-35.44,25-57.96,10.52l0.27-1.91c-1.81-14.27,1.81-26.3,14.24-34.75C407.08,388.7,410.41,376.5,408.76,362.31z"/>
		<path class="st21" d="M240.17,446.57c-8.98-41.81,13.94-79.23,17.02-119.53c0.78-10.26,15.71-5.39,24.34-6.71
			c9.25-0.07,14.07,4.75,15.15,13.71C285.4,375.34,268.1,413.62,240.17,446.57z"/>
		<path class="st12" d="M381,755.01c-2.43,14.2,1.48,25.2,12.47,35.65c10.86,10.33,26.45,17.46,29.27,34.78
			c-21.62,3.62-13.17,20.48-14.07,32.78c-4.71,65.03-33.28,92.4-98.81,93.55c-23.21,0.41-46.43,0-69.64-0.04
			c-32.7-24.74-61.33-51.81-56.11-98.22c39.43-14.47,101.31,3.15,99.69-69.91c17.52-35.15,51.31-52.31,81.41-73.63
			c12.23-1.21,19.36,5.22,23.68,15.85C391.09,736.86,388.4,746.58,381,755.01z"/>
		<path class="st14" d="M296.27,783.46c0,4.59,0.23,9.2-0.03,13.78c-4.18,73.66-20.28,83.58-91.58,57.36
			c-6.15-2.26-13.67-0.81-20.55-1.08c-1.31-26.9-35.95-20.24-42.32-42.04c2.47-2.73,4.93-5.46,7.36-8.25
			C196.7,785.7,243.63,763.31,296.27,783.46z"/>
		<path class="st12" d="M85.55,797.58c17.42,5.37,27.51-10.46,41.71-14.41c24.49-0.67,23.48,11.78,14.57,28.31l-0.05,0.01
			C123.35,805.56,98.4,826.03,85.55,797.58z"/>
		<path class="st4" d="M141.77,685.36c37.95-28.71,81.88-31.02,126.86-28.72c24.14-14.8,45.76-4.32,67.44,6.67
			c5.92,4.57,9.91,10.41,12.18,17.55c1.71,7.42,1.84,14.8,0.58,22.29c-45.64,68.69-142.39,97.63-220.16,65.97
			c-0.65-4.63-1.45-9.23-2.42-13.8C118.8,729.2,144.48,710.43,141.77,685.36z"/>
		<path class="st18" d="M211.28,586.48c-32.52,28.33-65.05,56.65-97.57,84.98c-22.25-7.14-29.78-23.05-28.33-45.39
			c0.85-13.18-0.33-26.5-0.6-39.76c5.29-13.99-10.27-35.05,14.4-42.46C144.83,536.25,183.57,546.85,211.28,586.48z"/>
		<path class="st18" d="M70.06,532.17c-0.02,8.41-0.04,16.82-0.07,25.22c-24.84,3.64-3.54,41.99-20.89,37.14
			c-14.41-4.03-2.39-32.63-5.75-49.99c0.34-4.46,0.55-8.93,0.62-13.4C53.02,522.55,61.73,522.41,70.06,532.17z"/>
		<path class="st22" d="M211.28,586.48c-37.37-14.21-74.74-28.42-112.11-42.63c0.21-23.1,0.41-46.2,0.62-69.3
			c0.1-2.54,0.19-5.08,0.27-7.62c0.14-5.13,0.64-10.22,1.41-15.3c2-7.7,5.4-14.46,12.55-18.69c4.42-0.38,8.84-0.75,13.26-1.12
			c1.79,8.54-2.27,23.99,6.27,24.43c34.63,1.79,58.28,32.55,92.79,32.72C235.59,523.66,207.18,552.56,211.28,586.48z"/>
		<path class="st17" d="M114.01,432.93c-0.25,9.08-0.49,18.16-0.74,27.24c-4.31,4.96-9.74,8.88-13.49,14.36l0,0.01
			c-33.98-23.43-7.83-46.87,0-70.3C119.32,406.47,112.34,421.85,114.01,432.93z"/>
		<path class="st7" d="M70.06,532.17c-8.7-0.35-17.4-0.69-26.09-1.04c-0.7-11.24-2.09-22.64,8.82-30.58
			c4.64-3.37,7.82-11.22,14.83-7.27c2.72,1.54,3.79,7.77,3.85,11.89C71.6,514.17,70.6,523.17,70.06,532.17z"/>
		<path class="st5" d="M970.02,670.87c0.02-10.89,1.18-21.92-0.16-32.63c-2.94-23.47,12.39-23.57,28.3-23.64
			c21.46-3.31,36.85,11.4,53.38,20.24c10.47,5.6,19.8,8.37,30.9,8.15c-1.89,15.1,5.91,31.97-9.44,44.63
			c-8.8,7.26-15.29,14.58-29.09,7.96C1020.48,684.36,996.69,672.94,970.02,670.87z"/>
		<path class="st19" d="M928.03,558.72c0.58,7.01,3.9,13.46,10.82,13.67c10.42,0.32,16.08,4.27,17.68,14.37
			c0.1,4.71,0.21,9.43,0.31,14.14c7.98,27.73-25.16,34.34-28.81,56.1c-6.96,0.8-13.56,4.03-13.89,11.05
			c-1,21.06-16.15,16.06-28.46,16.7c-4.29-4.41-6.99-9.64-8.17-15.65c-0.07-17.19,2.91-34.94-9.04-50.08
			c-2.25-5.63-3.15-11.44-2.72-17.48c2.13-12.8,10.8-21.03,20.15-28.79C900.56,569.95,910.5,552.94,928.03,558.72z"/>
		<path class="st1" d="M128.66,769.12c56.71,6.78,109.05-12.38,161.76-28.13c26.94-8.05,49.11-22.43,47.98-55.71
			c4.53-5.06,10.03-6.27,16.4-4.17c10.57,8.01,18.63,16.96,11.81,31.49c-1.53,10.08,3.34,22.66-10.48,28.01
			c-23.66,9.15-40.31,28.02-59.87,42.85c-51.77,7.76-100.99,29.54-154.44,28.02c-0.85-11.5,4.93-26.41-14.57-28.31
			C127.73,778.49,128.2,773.81,128.66,769.12z"/>
		<path class="st21" d="M366.61,712.6c-5.03-8.98-10.07-17.97-15.1-26.95c-4.76-4.54-8.82-9.78-13.86-14.05l0.22,0.18
			c-15.53-13.64-34.44-26.76-7.19-46.93c25.01,5.83,34.91,28.29,49.78,45.29c8.73,1.1,13.85,5.79,14.68,14.76
			c19.71,14.18,42.04,22.76,64.89,30.22c30.81,12.88,59.28,31.24,92.24,39c5.94,1.38,11.74,3.2,17.53,5.05
			c32.49,9.55,65,9.33,97.52,0.34c11.27-3.89,22.48-7.96,34.23-10.2c16.83,2.59,35.49-3.99,50.28,9.64
			c4.42,8.65,5.3,17.72,3.38,27.17c-7.55,19.62-25.43,27.42-41.97,36.74l-4.89,1.95l-5.16-1.11l-6.99,0.45l-7.01-0.05
			c-13.49,12.2-27.49,13.35-42.08,1.96c-49.87-9.79-97.53,9.75-146.58,10.84c-1.31,0.03-3.64-2.06-3.79-3.36
			c-0.24-2.13,0.91-4.42,1.48-6.64c-14.94-32.52-55.02-32.35-75.32-57.9l0.05,0.09c-4.95-4.4-9.5-9.23-14.41-13.66l-0.08-0.07
			c-11.41-7.35-20.66-16.81-27.85-28.31C380.21,718.09,375.25,713.55,366.61,712.6z"/>
		<path class="st13" d="M422.9,768.98c32.23,1.35,55.17,24.28,82.49,36.85c6.26,2.88,3.45,16.52-7.17,21.06
			c-21.48-9.99-42.72-20.52-64.52-29.76C419.46,791.08,423.78,779.36,422.9,768.98z"/>
		<path class="st16" d="M647.1,826.05c14.03-0.65,28.05-1.31,42.08-1.96c-2.71,17.1-13.48,27.03-29.79,29.13
			c-7.76,1-16.15-2.96-24.26-4.68C639.13,841.04,643.12,833.55,647.1,826.05z"/>
		<path class="st13" d="M380.62,727.03c13.99,4.8,24.28,13.25,27.85,28.31c-9.16-0.11-18.31-0.22-27.47-0.33
			C380.87,745.68,380.74,736.36,380.62,727.03z"/>
		<path class="st13" d="M408.54,755.41c9.03,0.09,13.86,4.62,14.41,13.66C413.66,769.25,408.87,764.68,408.54,755.41z"/>
		<path class="st18" d="M745.94,784.12c-0.13-9.52-0.26-19.04-0.39-28.56c-4.97-5.14-7.29-11.22-6.59-18.41
			c4.55-15.16,16.9-20.9,30.38-25.37c20-4.38,39.87-13.12,60.59-2.81c4.96,5.07,8.23,11.08,9.9,17.98
			c0.82,11.09-2.68,20.42-11.39,27.59c-26.17-4.04-34.29,23.9-54.35,30.69C764.43,791.69,755.01,792.24,745.94,784.12z"/>
		<path class="st11" d="M830.08,727.63c-0.14-4.93-0.27-9.87-0.41-14.8c-11.1-12.71-11.99-26.29-3.52-40.72
			c5.04-5.75,11.21-9.75,18.48-12.13c15.68-3.57,29.58-0.6,41.01,11.3c0.11,4.49,0.12,8.98,0.04,13.47
			c-9.31,14.1-18.62,28.19-27.93,42.29C848.7,735.48,839.47,735.52,830.08,727.63z"/>
		<path class="st16" d="M745.94,784.12c9.38,0.37,18.76,0.74,28.14,1.11c-7.04,26.73-24.48,37.51-60.85,37.62
			C706.97,795.44,744.31,804.87,745.94,784.12z"/>
		<path class="st16" d="M830.08,727.63c9.22-0.2,18.45-0.39,27.67-0.59c3.54,23.36-6.97,31.74-29.32,27.5
			C828.98,745.57,829.53,736.6,830.08,727.63z"/>
		<path class="st3" d="M927.52,712.56c2.97,19.02-2.26,31.2-24.41,29.24C902.69,724.9,913.36,717.27,927.52,712.56z"/>
		<path class="st5" d="M562.97,319.92c-15.72,0.04-31.44-0.16-47.15,0.18c-16.87,0.37-31.9-2.9-41.88,20.84
			c-4.9,11.65-29.39,25.27-51.35,21.15c0.12-13.72,0.24-27.45,0.36-41.17c10.81-2.06,25.92,4.11,28.01-14.64
			c27.42,0.65,53.43-2.25,70.34-27.99c24.73-3.51,49.32,1.84,74.76-9.19c27.19-11.78,60.9-11.24,87.95-0.04
			c25.46,10.54,50.02,6.04,74.73,9.74c37.73,32.41,75.47,64.82,113.2,97.23c-2.38,33.42,32.8,50.12,36.13,83.09
			c1.46,14.49,6.69,30.45,5.17,45.43c-1.57,15.5-16.72,10.94-27.26,12.05c-16.35-10.02-20.48-31.98-38.97-39.73
			c-6.88-4.09-13.31-8.89-18.19-15.34c-3.81-6.53-3.15-13.16-0.14-19.67c-3.03-3.16-5.85-6.38-8.9-9.48
			c-3.33-3.06-6.28-6.38-9.13-9.84c-3.2-3.3-6.13-6.77-9.11-10.25c-3.47-3.17-6.76-6.45-10.21-9.64c-3.86-2.98-7.42-6.2-11.02-9.47
			c-3.79-3.3-7.2-6.9-10.53-10.68c-3.54-3.83-6.8-7.81-10.12-11.78c-7.59-8.13-16.68-14.18-26.23-19.78
			c-33.58-24.51-71.34-29.16-111.51-25.95C602.29,326.55,581.15,337.85,562.97,319.92z"/>
		<path class="st16" d="M843.53,460.5c39.19,6.81,41.67,10.09,42.44,56.1c0.49,11.7-0.84,21.99-9.5,31.89
			c-9.85,11.26-5.73,20.8,9.42,24.27c-1.14,11.12,5.16,25.95-14,28.08c-7.19,4.79-13.73,4.02-19.64-2.29
			c-11.04-16.17-12.46-34.77-13.55-53.45C839.97,516.91,819.96,487.42,843.53,460.5z"/>
		<path class="st23" d="M548.95,768.67c-38.03-2.05-65.27-29.02-98.32-42.58c-7.55-8.88-8.69-17.82-0.23-26.85
			c27.15-6.48,9.43-28.2,14.34-42.24c-10.21-69.49,30.81-112.83,81.08-147.22c36.22-24.78,70.12-51.04,99.74-83.19
			c13.48-7.05,27.31-7.78,41.51-2.42c13.39,7.27,20.95,18.31,21.63,33.7c-20.06,45.26-50.2,81.92-92.96,107.72
			c-5.91,3.57-11.62,7.5-16.93,11.93c-22.76,19.01-39.27,46.47-30.59,72.24c6.1,18.1,36.3-12.44,54.88,2.96
			c14.85,11.32,21.9,25.49,16.23,44.29C614.8,727.88,572.58,736.55,548.95,768.67z"/>
		<path class="st24" d="M647.25,432.38c4.21,34.69-24.85,54.4-45.31,63.05C527.27,526.99,486.7,583,464.74,657
			c-24.01-26.38-48.57-52.28-71.88-79.26c-22.66-26.24-17.44-58.32,12.01-74.86c35.87-20.15,77.78-16.37,116.39-26.9
			c33.54-9.15,54.13-21.83,55.78-57.64C605.52,397.69,627.86,407.66,647.25,432.38z"/>
		<path class="st25" d="M647.25,432.38c-24.76,2.13-44.45-21.12-70.19-14.04c-54.38-9.39-102.34,15.91-149.55,34.05
			c-29.62,11.38-36.38-0.24-47.37-18.56c33.86-2.49,52.06-32.48,79.95-45.6c29.45-13.86,53.81-38.84,88.9-40.27
			c34.38-17.07,69.62-24.88,107-9.95c29.23,25,51.82,52.44,33.38,94.36C675.33,432.37,661.29,432.38,647.25,432.38z"/>
		<path class="st19" d="M282.31,642.85c-0.04-2.33,0.69-5.04-0.23-6.95c-22.06-46.03-19.34-85.7,27.67-115.51
			c3.2-2.03,1.08-12.72,9.07-13.22c1.47-0.09,3.65,7.45,5.13,11.59c15.36,43.04,15.34,43.04-0.65,96.31
			C314.55,631.57,308.18,651.59,282.31,642.85z"/>
		<path class="st11" d="M282.31,642.85c19.08-1.26,22.25-26.02,40.99-27.78c4.97,0.13,9.94,0.25,14.9,0.38
			c4.37,3.24,5.78,6.42,4.24,9.54c-1.52,3.08-3.03,4.63-4.54,4.63c-16.07,3.39-16.79,12.12-8.95,24.49
			c3.51,5.55,5.98,11.76,8.92,17.67c-25.41,5.6-44.71-16.76-69.25-15.14C268.29,647.18,273.48,643.21,282.31,642.85z"/>
		<path class="st22" d="M450.4,699.25c0.08,8.95,0.16,17.9,0.23,26.85c-19.33-12.61-48.59-11.84-55.48-41.2
			C415.59,681.87,433.72,687.76,450.4,699.25z"/>
		<path class="st22" d="M337.91,629.62c0.1-4.72,0.2-9.45,0.3-14.17c23.11,11.25,43.46,24.64,42.26,54.68
			C360.73,662.46,347.78,647.66,337.91,629.62z"/>
		<path class="st21" d="M226.36,488.21c4.48-13.98-12.94-35.27,13.93-41.78C235.23,460.21,252.29,481.38,226.36,488.21z"/>
		<path class="st15" d="M562.97,319.92c19.95,5.79,32.24-13.37,51.2-14.82c54.57-4.19,103.84,5.22,145.46,42.91
			c4.43,14.23-4.64,19.66-15.57,23.93c-23.79,4.16-44.33-4.5-64.15-16.11c-34.19-32.86-80.46-0.99-116.88-21.78
			C563,329.34,562.98,324.63,562.97,319.92z"/>
		<path class="st10" d="M563.02,334.06c35.95-0.08,71.9,0.18,107.84-0.47c10.83-0.19,16.52,3.92,18.62,14.06
			c-9.26,7.72-18.64,8.9-28.21,0.55c-37.43-0.08-74.86-0.16-112.29-0.24C549.25,338.88,553.98,334.29,563.02,334.06z"/>
		<path class="st11" d="M337.65,671.59c9.69-0.32,14.45,4.23,13.86,14.05l-6.55-0.47l-6.56,0.1
			C337.91,680.73,337.66,676.17,337.65,671.59z"/>
		<path class="st5" d="M99.78,474.54c0.05-8.97,4.53-13.78,13.49-14.36C113.64,469.53,109.06,474.24,99.78,474.54z"/>
		<path class="st7" d="M885.64,671.28c-13.92-0.06-27.84-0.12-41.77-0.19c-8.82-27.83,8.6-42.51,28.12-56.14
			c19.98-2.51,32.32,4.47,27.71,26.29C897.48,651.78,890.48,661.3,885.64,671.28z"/>
		<path class="st13" d="M871.99,614.95c8.5,27.67-24.6,34.49-28.12,56.14c-4.66,0.04-9.32,0.16-13.98,0.34
			c-2.11-2.73-4.22-5.46-6.36-8.19c-1.25-27.61-4.24-56.18,33.83-62.5c4.84,0.03,9.68,0.06,14.52,0.09
			C871.93,605.55,871.96,610.25,871.99,614.95z"/>
		<path class="st24" d="M548.95,768.67c0.78-19.35-5.57-40.33,24.62-46.74c20.97-4.45,36.73-25.68,61.17-23.56
			c27.26-16.47,51.08-39.35,84.16-45.08c9.97,4.26,17.24,11.31,22.14,20.95c9.47,21.05,4.83,41.37-3.14,61.51
			c-5.87,15.89-23.13,12.5-33.96,20.02c-2.76,18.69-17.76,12.35-28.81,14.1c-37.38,9.99-74.74,10.37-112.09-0.2
			C558.35,769.33,553.65,769,548.95,768.67z"/>
		<path class="st11" d="M563.06,769.67c37.36,0.07,74.72,0.14,112.09,0.2C639.95,788.83,597.93,788.75,563.06,769.67z"/>
		<path class="st22" d="M703.95,755.77c0.94-20.09,16.81-12.82,27.51-15.01c4.65-6.32,9.42-6.41,14.31-0.28
			c-0.07,5.02-0.14,10.05-0.22,15.07C731.74,766.59,717.88,768.38,703.95,755.77z"/>
		<path class="st23" d="M745.76,740.48c-4.77,0.09-9.54,0.18-14.31,0.28c0.01-23.24,0.02-46.48,0.04-69.72
			c29.37-16.74,48.08-3.44,62.45,22.14c2.88,17.7-9.13,25.98-21.56,34.01C761.96,728.51,748.29,723.35,745.76,740.48z"/>
		<path class="st22" d="M772.38,727.19c5.14-9.28,10.27-18.56,15.41-27.84c7.78-9.87,2.29-25.78,15.16-33.36
			c9.73-3.73,18.62-2.97,26.15,4.95l0.79,0.49c-0.07,13.8-0.15,27.6-0.22,41.39C808.11,707.76,794.27,733.54,772.38,727.19z"/>
		<path class="st26" d="M661.26,348.2c9.4-0.18,18.81-0.37,28.21-0.55c20.85-3.74,34.53,19.57,55.67,14.74
			c7.92,7.64,22.01,3.06,28.15,14.22l-0.09-0.14c5.06,4.37,9.69,9.19,14.37,13.95l-0.12-0.11c11.7,7.08,21.05,16.52,28.23,28.14
			l-0.1-0.11c4.72,4.75,9.5,9.43,14.08,14.32l-0.15-0.03c3.26,2.85,4.47,5.84,3.64,8.95c-0.85,3.17-1.77,4.76-2.78,4.76
			c-0.32,9.1,4.26,13.64,13.17,14.17c-6.36,29.85,22.09,54.18,13.38,84.4c-16.25,13.87-30.6,5.17-44.97-3.64
			c-20.41-18.82-43.43-33.88-68.37-46.07c-13.44-11.42-29.9-19.46-39.88-34.88c-4.78-9.31-9.55-18.62-14.33-27.93
			c3.95-21.59-11.36-36.73-19.99-53.3C663.92,368.6,661.07,359.29,661.26,348.2z"/>
		<path class="st8" d="M773.3,376.62c-11.22-1.1-25.29,3.43-28.15-14.22c9.16-0.43,14.23-4.98,14.48-14.38
			C779.03,350.45,772.85,365.12,773.3,376.62z"/>
		<path class="st8" d="M815.69,418.45c-14.73-4.04-24.04-13.52-28.23-28.14C809.74,386.78,819.03,396.27,815.69,418.45z"/>
		<path class="st8" d="M787.58,390.42c-8.84-0.48-13.78-4.97-14.37-13.95C782.86,376.12,787.58,380.84,787.58,390.42z"/>
		<path class="st8" d="M829.66,432.65c-9.03-0.51-13.58-5.42-14.08-14.32C825.06,418.41,829.67,423.26,829.66,432.65z"/>
		<path class="st16" d="M830.37,446.33c-0.7-4.54-0.99-9.11-0.86-13.71c5.8,0.37,12.49,0.67,11.07,8.71
			C840.19,443.54,833.93,444.7,830.37,446.33z"/>
		<path class="st25" d="M815.73,530.65c14.52,2.46,23.97,19.58,41.19,14.25c0.15,18.62,0.31,37.23,0.46,55.85
			c-19.23,19.45-22.45,45.35-28.27,70.2c-9.07,0.13-18.14,0.25-27.22,0.38C741.75,625.66,744.97,592.95,815.73,530.65z"/>
		<path class="st27" d="M703.7,460.31c19.31,1.4,46.53-8.99,41.9,28.11c25.48,36.33,0.14,63.71-16.18,92.68
			c-13.01,16.15-33.61,10.91-49.9,17.79c-10.07,5.04-17.95,12.64-24.82,21.43c-11.11,12.82-19.14,28.58-35.14,36.66
			c-29.01-5.36-38.65,20.91-55.92,34.55c-7.73,6.11-15.13,10.67-23.94,3.43c-6.12-5.02-6.01-12.84-1.84-18.26
			c7.25-9.43,12.6-18.38,11.32-31.16c-4.99-49.69,20.18-82.42,63.86-99.05c23.67-9.01,37.79-23.5,48.24-44.3
			C670.72,483.38,684.05,468.69,703.7,460.31z"/>
		<path class="st13" d="M619.56,656.97c-1.93-21.08,6.97-35.37,26.82-42.79c10.61-8.74,20.13-18.57,28.88-29.16
			c16.57-33.55,27.53,4.61,41.58,3.25c20.29,22.55,20.17,45.2,0.32,67.94c-32.68,42.99-32.68,42.99-82.42,42.17
			C637.35,681.76,622.96,671.38,619.56,656.97z"/>
		<path class="st28" d="M717.16,656.21c-0.11-22.65-0.22-45.29-0.32-67.94c-2.84-21.71,10.64-38.64,20.67-54.44
			c9.89-15.58,6.29-30.24,8.09-45.41c34.78-4.86,55.93,12.91,70.13,42.23c0.41,11.67-1.16,21.51-9.9,31.54
			c-44.97,51.68-44.58,53.09-3.94,109.14c-1.24,11.08,4.74,25.79-14.09,28.02c-13.43-20.05-33.05-27.79-56.3-28.31
			C721.88,670.76,717.45,665.49,717.16,656.21z"/>
		<path class="st18" d="M675.26,585.02c4.41,23.62-4.77,33.78-28.88,29.16C643.55,592.13,654.6,583.81,675.26,585.02z"/>
	</g>
</g>
</svg>
