<?xml version="1.0" encoding="utf-8"?>
<!-- Generator: Adobe Illustrator 23.1.0, SVG Export Plug-In . SVG Version: 6.00 Build 0)  -->
<svg version="1.1" id="Calque_1" xmlns="http://www.w3.org/2000/svg" xmlns:xlink="http://www.w3.org/1999/xlink" x="0px" y="0px"
	 viewBox="0 0 1125 1241.28" style="enable-background:new 0 0 1125 1241.28;" xml:space="preserve">
<style type="text/css">
	.st0{fill:#02E3FD;}
	.st1{fill:#F6F8F5;}
	.st2{fill:#0087A9;}
	.st3{fill:#20F4F6;}
	.st4{fill:#0076A3;}
	.st5{fill:#E5BC6D;}
	.st6{fill:#005190;}
	.st7{fill:#9A7131;}
	.st8{fill:#00689F;}
	.st9{fill:#C2954C;}
	.st10{fill:#008ABA;}
	.st11{fill:#B38844;}
	.st12{fill:#E3D5CF;}
	.st13{fill:#CDB39B;}
	.st14{fill:#00BBE7;}
	.st15{fill:#00D5F9;}
	.st16{fill:#FAF5B2;}
	.st17{fill:#05C606;}
	.st18{fill:#01A3E0;}
	.st19{fill:#009DD0;}
	.st20{fill:#F8DC90;}
	.st21{fill:#FBFBF9;}
	.st22{fill:#A27937;}
	.st23{fill:#026805;}
	.st24{fill:#444441;}
	.st25{fill:#797250;}
	.st26{fill:#343F42;}
	.st27{fill:#0C850C;}
</style>
<g>
	<g>
		<path class="st0" d="M472.83,402.83c11.38-42.09,22.75-84.17,34.13-126.26c5.4-5.04,9.89-11.1,16.51-14.8
			c36.62-30.48,45.78-77.42,69.24-115.7c2.01-4.35,4.43-8.53,6.9-12.63c3.43-6.11,6.98-12.19,10.45-18.33
			c2.18-4.16,4.78-8.06,7.54-11.88c2.63-4.01,5.47-7.84,8.27-11.75c1.29-2.11,2.7-4.07,4.01-6.21c2.56-4.51,5.43-8.72,8.42-12.94
			c29.41-28.68,57.87-59.95,105.64-39.81c5.42,8.42,7.65,18.94,1.41,25.97c-64.7,72.98-93.11,166.71-142.77,248.25
			c-30.57,18.93-47.71,50.13-69.88,76.74c-14.16,16.99-27.41,36.09-54.51,25.5C476.4,406.94,474.62,404.89,472.83,402.83z"/>
		<path class="st1" d="M150.1,730.85c1.21-2.46,3.56-17.55,6.06-18.63c3.05-10.13,0,0,5.26-16.22l5.36-18.63
			c8.49-11.98,9.86-21.04,14.11-35.33c4.94-16.62,7.79-15.77,9.86-21.94c6.74-20.08,6.74-20.08,11.34-29.66l-0.14,0.38
			c28.42-84.38,73.42-98.89,130.22-42.06c6.95,53.13-7.66,101.79-31.17,148.58c-6.18,5.69-13.6,9.05-21.66,10.91
			c-15.15,3.97-33.25-0.64-44.42,15.12c-8.82,12.82-2.3,26.88-3.3,40.38c-1.56,8.62-6.19,14.98-13.71,19.42
			c-18.04,7.2-35.38,7.04-51.77-4.45C151.66,762.73,150.46,749.27,150.1,730.85z"/>
		<path class="st2" d="M900.66,573.54c-10.15,8.03-20.29,16.06-30.44,24.09c-28.59,0.45-23.16-19.97-17.35-33.99
			c12.91-31.19,18.03-63.66,24.87-96.28c12.87-61.34,57.97-75.1,131.12-43.41c10.32,5.11,18.71,12.1,21.99,23.7
			c2.49,9,0.82,19.24,7.45,27.2c3.19,3.15,6.06,6.61,8.61,10.33c2.37,3.32,2.63,6.8,0.78,10.44c3.05,5.26,2.28,9.89-2.24,13.9
			c-6.86,3.1-14.53,5.5-21.51,3.12C962.21,491.54,934.23,538.07,900.66,573.54z"/>
		<path class="st3" d="M515.46,252.22c33.18-37.46,46.52-88.85,85.7-122.08c-3.31,59.72-43.97,127.22-82.94,137.57
			c-4.27-5.06-4.68-10.42-1.22-16.07L515.46,252.22z"/>
		<path class="st4" d="M461.85,448.81c-3.41-1.1-5.85-3.27-7.3-6.61c6.28-13.1,5.13-29.55,18.28-39.37c0-0.01,0.79,2.95,0.79,2.95
			C483.24,423.83,490.71,441.29,461.85,448.81z"/>
		<path class="st4" d="M933.99,370.42c34.54,13.04,68.51,26.74,79.77,67.35c-15.61-5.58-31.43-10.67-46.79-16.87
			c-19.09-7.7-35.67-5.95-51.64,8.1c-17.09,15.04-52.17,142.73-45.13,168.62c41.81,58.02,56.27,120.19,28.74,188.75
			c-28.41,1.38-37.31-35.5-65.97-33.63c-7.88-1.4-15.77-2.81-23.65-4.21c-46.08-14.88-29.07-52.17-23.64-79.69
			c8.56-43.42-0.33-71.41-45.62-82.34c-17.44-51.99,14.97-88.06,40.24-126.41c42.2,0.47,70.53-20.35,94.63-54.31
			C887.81,387.63,897.71,353.78,933.99,370.42z"/>
		<path class="st5" d="M740.93,922.2c5.9,19.34,26.26,32.73,22.97,55.86c-24.07,35.1-82.14,33.34-91.4,84.49
			c-7.19,10.22-15.12,25.02-29.02,16.3c-20.28-12.71-9.76-36.02-12.74-54.7c-1.35-9.72-2.7-19.46-7.31-28.26
			c-9.75-8.63-21.18-8.48-31.54-3.59c-52.47,24.8-112.24,27.1-164.12,53.86c-68.51,12.11-137.92-0.03-206.51,8.53
			c-21,2.91-37.56-4.97-50.83-20.88c-8.58-20.37-42.14-34.56-16.12-63.75c49.66-13.64,99.86-9.53,149.6-2.19
			c40.9,6.04,83.1,12.61,122.28,2.97c97.7-24.02,195.72-43.97,296.09-51.84C728.94,917.57,735.15,918.66,740.93,922.2z"/>
		<path class="st6" d="M740.93,922.2c-3.12-0.63-6.26-1.1-9.43-1.41c-23.33-1.95-39.25-16.23-54.12-32.35
			c-28.62-35.42-58.12-68.58-12.81-114.98c20.1-20.58-5.87-54.55,8.31-80.74c52.85-51.32,67.89-48.43,84.26,19.09
			c5.09,21,17.64,35.74,29.05,52.11c26.86,35.05,45.18,73.34,31.01,118.04c-7.34,23.16-4.89,88.01-50.8,19.46
			c-4.9-7.31-18.21-17.66-27.78-5.93C734.58,900.45,739.88,913.06,740.93,922.2z"/>
		<path class="st7" d="M565.28,1214.57c-129.3,38.28-257.92,34.92-385.69-7.02c-13.89-4.56-27.69-11.15-34.81-25.77
			c41-29.68,87.64-11.02,131.49-15.53c5.83,0.38,11.69,1.39,17.39,2.7c15.53,4.69,31.18,8.84,47.43,2.57
			c12.9-2.97,26.03-3.98,39.18-4.6c23.7,0.24,45.16-8.42,66.61-17.03c14.44-5.44,28.62-12.51,44.81-8.07
			c14.63,7.98,25.12,23.83,44.32,23.41C556.82,1175.14,569.44,1189.9,565.28,1214.57z"/>
		<path class="st8" d="M786.2,763.92c-35.46,3.33-44.57-16.81-43.6-47.52c0.51-16.11,4.54-35.68-12.89-45.07
			c-22.27-12.01-22.74,19.07-38.03,22.49c-5.34,1.2-10.74,2.15-16.12,3.21c-13.23-7.86-18.14-19.96-17.79-34.77
			c25.27-28.96,38.09-71.27,83.77-78.49c51.83-5.45,79.06,3.75,60.75,68.24c-7.77,27.36-28.28,67.34,7.06,96.54
			C801.62,753.66,793.91,758.79,786.2,763.92z"/>
		<path class="st9" d="M664.63,1057.73c3.45-63.49,62.85-57.26,99.27-79.67c0.35,15.42,0.71,30.83,1.06,46.25
			c-8.34,10.16-6.61,20.87-1.71,31.74c-16.07,59.88-50.16,104-109.9,125.69c-24.18-21.85-23.98-21.74-5.54-53.85
			C660.23,1106.24,684.81,1087.28,664.63,1057.73z"/>
		<path class="st10" d="M1046.05,504.9c1.32,22.71,2.64,45.41,3.97,68.11c-0.63,41.15-6.69,68.95-50.93,25.39
			c-27.11-26.69-62.36-29.35-98.42-24.86C933.76,490.37,951.95,481.78,1046.05,504.9z"/>
		<path class="st11" d="M664.63,1057.73c16.07,1.21,38.52-2.54,25.12,25.79c-8.58,18.14-19.23,35.57-30.94,51.9
			c-10.84,15.12-27.13,27.99-5.46,46.32c-16.44,17.29-38.74,23.38-60.03,31.4c-11.5-14.69-10.09-31.03-6.23-47.7
			c2.3-7.48,6.22-14.15,10.83-20.35c14.03-14.45,11.07-28.57-1.16-42.51c-9.22-13.84-13.15-29.06-12.45-45.58
			c0.56-8.7,2.82-16.89,7.17-24.49c9.59-12.53,21.88-19.14,38.01-17.28c5.55,1.88,10.76,4.49,15.63,7.79
			c-1.25,10.06-3.29,20.1-3.45,30.17c-0.11,6.55,1.13,17.97,4.17,18.85C656.04,1074.99,660.14,1065.13,664.63,1057.73z"/>
		<path class="st12" d="M595.94,1158.77c-0.87,18.11-1.74,36.23-2.62,54.35c-9.01,7.53-18.56,4.32-28.07,1.44
			c-11.78-15.73-23.58-31.46-35.38-47.2c-14.45-2.8-20.41-13.14-23.35-26.21c-4.65-30.85-1.28-57.88,33.51-69.84
			C595.4,1081.96,601.29,1091.18,595.94,1158.77z"/>
		<path class="st5" d="M97.12,1138.12c-17.33-15.4-23.35-36.53-29.25-57.73c20.45-15.62,38.64-2.62,57.35,4.38
			c30.37,26.41,68.64,23.71,105.01,28.25c19.48,6.25,35.18,15.59,32.46,39.88C203.91,1188.11,149.91,1169.81,97.12,1138.12z"/>
		<path class="st9" d="M125.6,1094.31c-19.25-4.64-38.49-9.28-57.74-13.92c-4.1-11.11-8.21-22.22-12.31-33.33
			c-7.04-8.59-6.37-17.33-0.56-26.2c14.14-10.34,29.37-9.77,45.09-4.58c15.42,9.7,32.65,13.81,50.24,18.12
			c22.52,5.52,40.5,16.93,33.34,45.48C167.7,1098.33,149.21,1106.66,125.6,1094.31z"/>
		<path class="st9" d="M97.12,1138.12c54.35,2.18,106.62,42.37,162.93,8.98c31.18-7.72,42.3,3.55,32.61,34.48
			c-49.29,0.07-98.58,0.13-147.87,0.2C122.29,1174.43,106.98,1159.24,97.12,1138.12z"/>
		<path class="st8" d="M832.98,752.74c42.35-28.72,44.97,20.49,65.97,33.64c-5.62,12.94-11.23,25.89-16.85,38.83
			c-7.34-10.31-14.88-20.47-21.96-30.95C850.9,780.55,842.02,766.59,832.98,752.74z"/>
		<path class="st11" d="M56,1022.88c-0.15,8.06-0.29,16.12-0.44,24.19c-13.74,7.7-27.49,15.4-41.23,23.09
			c-7.86-2.49-9.13-6.9-3.83-13.21l-0.26,0.36c6.34-4.87,6.5-12.29,7.92-19.21c4.39-11.33,4.93-25,18.69-30.62
			C47.9,1006.8,58.07,1007.24,56,1022.88z"/>
		<path class="st12" d="M39.55,1011.55c-5.72,11.58-11.44,23.17-17.16,34.75c-4.39,3.38-8.97,3.83-13.76,0.88
			c-0.47-7.79-0.94-15.58-1.41-23.37c2.17-11.25,4.34-22.49,6.51-33.74c10.24-3.82,17.2,1.46,23.58,8.45
			C39.61,1002.59,40.27,1006.95,39.55,1011.55z"/>
		<path class="st5" d="M763.25,1056.05c-12.72-11.3-12.1-21.88,1.71-31.75C764.39,1034.88,763.82,1045.47,763.25,1056.05z"/>
		<path class="st13" d="M10.5,1056.95c1.27,4.41,2.53,8.81,3.82,13.21c-3.24,3.64-7.71,9.21-11.26,2.53
			C-0.24,1066.53,0.81,1058.79,10.5,1056.95z"/>
		<path class="st13" d="M8.63,1047.18c4.59-0.29,9.17-0.59,13.76-0.88c-4.05,3.67-8.1,7.34-12.15,11.01
			c-0.91-2.16-2.07-4.27-2.62-6.52C7.35,1049.74,8.25,1048.4,8.63,1047.18z"/>
		<path class="st14" d="M754.12,22.2c24.55-10.29,49.25-19.81,76.75-14.58c-3.79,4.39-7.57,8.77-11.36,13.16
			c-2.29,4.52-5.39,8.4-9.29,11.64l-0.12,0.1C736.7,98.34,699.3,182.64,684.07,278.33c-8.09,21.71-21,39.93-39.26,54.3
			c-19.48,10.14-36.21,31.15-62.23,16.19c-10.75-19.84,1.92-32.76,13.58-45.98c40.13-85.6,68.34-177.8,138.25-246.94
			c5.32-5.26,4.12-17.13,5.96-25.93c0.02,0,0.82,1.8,0.82,1.8C746.83,30.36,749.95,25.58,754.12,22.2z"/>
		<path class="st15" d="M596.16,302.83c-3.63,15.08-7.25,30.16-10.88,45.24c-2.13,64.62-43.36,109.64-80.35,156.01
			c-10.44,13.09-28.96,15.51-43.86,0.72c0.26-18.66,0.52-37.31,0.78-55.98c15.2-11.27,10.23-28.05,11.76-43.04
			c44.22,1.59,51.61-40.7,73.91-64.21C562.35,325.94,570.65,304.4,596.16,302.83z"/>
		<path class="st3" d="M602.69,129.03c5.32-6.08,10.63-12.17,15.95-18.25C618.12,121.05,617.83,131.52,602.69,129.03z"/>
		<path class="st3" d="M628.73,99.82c4.04-4.43,8.09-8.87,12.13-13.3C636.82,90.95,632.77,95.39,628.73,99.82z"/>
		<path class="st3" d="M618.15,111.39c3.84-4.2,7.69-8.4,11.53-12.61C625.84,102.98,622,107.19,618.15,111.39z"/>
		<path class="st16" d="M12.18,921.63c8.48-95.77,42.61-127.14,158.28-145.48c19.88-0.05,40.15,3.52,59.01-6.2
			c4.07,1.53,8.05,3.29,12.05,5.07c9.06,2.93,18.4,4.95,26.85,9.68c12.62,7.27,21.14,17.8,25.84,31.53
			c14.94,88.68-26.54,136.79-111.47,120.86C125.88,926.42,68.36,933.32,12.18,921.63z"/>
		<path class="st17" d="M281.17,809.17c-7.57-7.38-15.14-14.75-22.71-22.13c-3.6-4.06-4.83-8.75-3.74-14.06
			c13.47-24.31,17.91-53.05,36.48-74.89c16.23-46.8,29.08-94.36,31.85-144.13c43.61-7.62,87.44-4.12,131.22-2.51
			c-82.75,62.42-106.02,154.69-124.86,249.2c-2.38,8.51-6.1,16.26-12.35,22.66C299.72,832.3,289.41,823.36,281.17,809.17z"/>
		<path class="st13" d="M291.21,698.09c-0.79,28.75-9.11,55-26.09,78.36c-4.8,2.4-9.88,3.65-15.26,3.74
			c-14.47-16.1,2.26-29.13,4.17-43.64c2.96-12.58,4.43-25.82,15.03-35.12C276.45,700.32,283.83,699.21,291.21,698.09z"/>
		<path class="st18" d="M267.61,743.12c0.37,15.33-13.89,20.16-21.41,29.83c-6.84,8.59-13.2,13.44-16.99-2.14
			c0,0,0.25-0.86,0.26-0.86c-3.69-6.42-7.39-12.84-11.09-19.27c4.47-5.85,9.5-11.06,16.26-14.33c7.01-2.77,14.23-3.49,21.65-2.04
			C260.97,736.07,264.7,739.07,267.61,743.12z"/>
		<path class="st14" d="M267.61,743.12c-3.52-0.73-7.07-1.28-10.65-1.65c-2.19-2.79-4.49-5.5-6.87-8.07
			c-2.12-2.77-4.82-4.84-8.14-6.03c-3.41-0.6-6.77-1.28-10.2-1.81c-3.77-0.34-6.7-2.08-8.83-5.16c5.21-31.01,25.13-26.3,46.14-18.98
			C268.58,715.33,268.1,729.23,267.61,743.12z"/>
		<path class="st3" d="M222.91,720.4c5.07-0.04,10.14-0.08,15.21-0.12c5.16,8.62,4.64,17.06-0.84,25.33
			c-6.27,1.73-12.54,3.46-18.85,5.14C211.87,739.39,210.69,728.89,222.91,720.4z"/>
		<path class="st2" d="M933.99,370.42c-39.45,8.48-53.52,45.9-72.3,72.69c-23.35,33.32-42.21,40.35-73.81,17.51
			c-11.77-14.65-2.31-27.52,2.62-41.44c41.28-116.49,118.9-208.66,199.15-299.15c5.7-1.9,11.04-1.14,16,2.25
			c64.54,43.33,94.4,109.68,119.05,179.45c-57.84,0.49-117.74-9.94-166.93,34.16C946.77,345.77,933.99,353.4,933.99,370.42z"/>
		<path class="st15" d="M889.1,89.85c18.47,0.45,36.94,0.91,55.42,1.36c0.58,25.77-30.98,28.93-35.73,51.06
			c-2.68,4.6-5.92,8.66-9.53,12.52c-61.83,62.27-95.49,142.05-136.96,217.13c-16.19,29.31-31.55,68.98-79.69,42.79
			c1.95-58.09,21.77-110.68,49.33-160.92c34.41-18.89,54.07-51.13,73.26-83.25C825.97,135.8,852.86,108.15,889.1,89.85z"/>
		<path class="st4" d="M739.08,256.89c-15.69,52.44-31.38,104.88-47.07,157.31c7.18,18.23,3.45,32.87-14.08,43.03
			c-20.69,6.71-39.59,5.97-54.01-13.16c-13.08-25.38-1.89-50.28,1.54-75.35c0.28-16.22,4.99-30.83,15.84-43.18
			c10.51-15.96,21.01-31.91,31.52-47.87c4.17-9.75,19.32,19.23,23.13-9.5c5-37.66,14.75-77.51,49.29-103.1
			c7.01,0.73,14.02,1.46,21.02,2.18C779.66,203.95,765.97,232.42,739.08,256.89z"/>
		<path class="st10" d="M745.25,165.07c-13.19,36.61-27.1,72.99-39.35,109.92c-9.62,29.01-21.05,13.93-33.05,2.72
			c5.73-90.02,44.06-165.3,103.16-231.71c9.97-11.2,20.87-13.71,34.09-13.48C788.48,76.7,766.86,120.89,745.25,165.07z"/>
		<path class="st0" d="M739.08,256.89c9.06-29.87,18.12-59.74,27.19-89.62c29.02-44.75,65.42-77.76,122.84-77.42
			c-42.66,43.23-76.55,93.35-110.66,143.13C768.18,247.95,758.38,259,739.08,256.89z"/>
		<path class="st14" d="M901.14,134.66c-0.74-29.67,31.76-26.14,43.38-43.46c5.51,2.04,11.02,4.07,16.52,6.11
			c0,0,2.34,2.32,2.34,2.32c5.32,1.63,10.64,3.25,15.97,4.88c4.43,0.95,7.66,3.44,9.71,7.48c5.52,3.44,11.04,6.87,16.57,10.3
			c-4.97,0.27-9.94,0.54-14.92,0.81C962.66,141.02,933.77,152.34,901.14,134.66z"/>
		<path class="st10" d="M810.21,32.41c3.1-3.88,6.2-7.75,9.3-11.63C816.41,24.66,813.31,28.53,810.21,32.41z"/>
		<path class="st15" d="M963.39,99.64c0,0-2.47-2.39-2.41-2.36C961.04,97.31,963.39,99.64,963.39,99.64z"/>
		<path class="st19" d="M989.06,111.99c-3.24-2.5-6.48-4.99-9.71-7.48C982.59,107,985.83,109.5,989.06,111.99z"/>
		<path class="st0" d="M754.12,22.2c-4.3,3.19-8.61,6.37-12.91,9.56C741.1,22.62,747.46,22.21,754.12,22.2z"/>
		<path class="st20" d="M281.17,809.17c11.68,5.09,23.36,10.17,35.04,15.26c5.12-0.06,9.94,1.05,14.48,3.46
			c14.44,10.55,26.88,23.16,37.95,37.22c5.78,9.28,9.23,18.93,4.5,29.8c-6.63,17.39-36.69,48.38,9.26,44.26
			c86.43-7.75,173.77-19.89,249.9-68.78c22.12-8.3,40.24-3.33,53.99,16.16c15.08,11.42,30.15,22.84,45.22,34.25
			c-9.16,24.62-29.99,25.25-51.02,24.08c-54.48-3.03-106.94,3.62-159.22,21.33c-80.58,27.29-162.8,30.55-247.38,14
			c-41.33-8.09-85.56-1.32-128.48-1.28c-4.58,3.06-9.27,3.1-14.07,0.58c-33.5-29.84-70.86-1.95-106.03-6.96
			c-5.37-0.31-9.53-2.74-12.51-7.2c-0.21-14.57-0.42-29.14-0.63-43.71c51.17-18.98,102.2-12.81,153.53-0.1
			C268.48,946.97,292.47,891.01,281.17,809.17z"/>
		<path class="st11" d="M12.81,965.35c3.01,1.06,6.08,1.87,9.22,2.42c10.41,2.43,15.35,9.68,17.24,19.6
			c-0.24,4.79-1.96,8.99-5.13,12.59c-6.81-3.28-13.63-6.57-20.43-9.87C13.42,981.83,13.11,973.59,12.81,965.35z"/>
		<path class="st21" d="M360.55,861.67c-16.2-4.23-25.73-16.34-34.58-29.25c-8.83-9.53-2.85-22.29-7.18-32.81
			c4.17-50.13,15.59-98.59,33.79-145.43c19-48.89,50.98-85.12,101.69-102.73c3.34,0.96,6.5,0.56,9.49-1.2
			c29.31-18.43,49.01-0.6,68.51,18.05c3.08,4.79,5.04,10.07,6,15.69c-1.87,57.13-50.35,93.84-63.96,145.87
			c-4.54,12.16-9.94,23.96-15.65,35.63c-4.51,9.33-9.36,18.49-15.08,27.17C420.84,821.58,399.18,851.87,360.55,861.67z"/>
		<path class="st18" d="M528.15,571.53c-20.25-10.8-40.88-20.44-64.4-21.27c-10.75-14.57-19.24-29.26-2.67-45.45
			c28.58,3.99,44.84-11.69,57.28-34.82c21.96-40.83,44.59-81.3,66.93-121.92c18.67-7.51,37.35-15.02,56.02-22.52
			c-0.34,14.62-0.68,29.23-1.02,43.85c-17.84,21.28-18.47,47.53-23.43,73.25c-9.67,50.16-34.34,94.1-65.48,134.4
			C542.46,580.13,534.35,579.85,528.15,571.53z"/>
		<path class="st4" d="M1026.45,459.63c8.56,5.58,9.21,14.37,9.47,23.32C1019.7,480.49,1006.83,476.66,1026.45,459.63z"/>
		<path class="st19" d="M901.14,134.66c30.19-1.23,58.39-17.99,89.57-11.56c3.87,34.76-26.05,56.95-43.38,72.79
			c-80.23,73.39-118.5,169.3-159.45,264.73c-13.83,41.66-44.46,77-46.33,123.15c-26.13,27.51-52.25,55.03-78.37,82.55
			c-24.28-0.93-30.8-18.21-34.93-37.77c-2.33-31.6-0.62-61.95,27.17-83.78c72.85-26.97,89.63-99.68,115.75-157.89
			c37.69-84.01,82.4-163.1,129.12-241.67C900.53,141.69,900.81,138.18,901.14,134.66z"/>
		<path class="st11" d="M292.66,1181.58c-1.15-20.7-11.63-32.57-32.63-34.48c-7.24-11.77-15.58-22.03-30.99-22.6
			c-19.12-13.4-41.64-23.39-48.72-48.81c-4.19-22.96-19.78-29.7-40.94-29.56c-16.67,0.11-35.35,2.76-38.8-21.48
			c27.23-24.29,54.09-17.15,80.82,0.95c7.46,9.19,15.73,17.07,28.51,17.67c84.29,51.27,180.21,37.62,271.77,48.6
			c13.29,5.18,21.27,14.55,22.82,28.97c0.36,10.34-2.05,19.51-11.08,25.83c-14.43,3.98-28.86,7.96-43.29,11.94
			c-23.97,3.41-47.82,7.2-67.85,22.51c-14.92,0.01-29.84,0.02-44.76,0.03c-11.33-2.14-22.41,6.89-33.82,0.73
			C300.02,1181.85,296.34,1181.74,292.66,1181.58z"/>
		<path class="st22" d="M483.27,1103.04c-68.12-1.6-136.14,0.24-204.16-10.54c-34.28-5.43-51.13-25.85-69.17-49.21
			c74.76-22.81,151.67-0.31,227.04-10.59c28.39-12.81,54.37-15.61,71.78,17.25C514.13,1074.26,498.5,1088.56,483.27,1103.04z"/>
		<path class="st9" d="M506.85,1057.38C490,1030.93,462,1036.12,437,1032.72c17.94-37.1,57.56-13.25,84.04-29.82
			c21.55-13.48,47.99-19.24,72.42-27.99c19.28-6.91,40-17.45,48.81,13.67c-12.29,8.36,0.52,27.89-15.4,34.64
			c-10.51,4.1-21.01,8.2-31.52,12.3c-8.1,7.39-17.31,12.67-28.11,14.97C547.22,1053.63,529.13,1074.15,506.85,1057.38z"/>
		<path class="st7" d="M181.4,1025.61c-26.94-0.32-53.87-0.65-80.81-0.96c-14.87-0.58-29.73-1.17-44.59-1.76
			c-5.49-3.78-10.99-7.56-16.47-11.33c-1.79-3.86-3.59-7.73-5.39-11.59c0.29-2.36,0.1-4.68-0.57-6.95
			c30.69-26.22,66.05-27.33,103.13-19.15c2.56,2.29,5.47,3.98,8.73,5.07C157.41,994.49,169.41,1010.05,181.4,1025.61z"/>
		<path class="st7" d="M626.86,1023.22c2.95-12.51,1.62-26.92,15.39-34.63c0.94,11.46,1.87,22.94,2.82,34.42
			C639.01,1023.08,632.94,1023.15,626.86,1023.22z"/>
		<path class="st23" d="M639.36,633.28c7.94,11.01,15.89,22.03,23.82,33.04c4.12,10.24,8.25,20.47,12.38,30.71
			c7.65,39.88,32.35,82.2-20.66,111.86c-18.48,10.34-1.34,22.1,4.41,31.56c9.25,15.22,28.66,24.39,26.98,46.08
			c-18.6-4.19-37.19-8.38-55.79-12.57c-1.78,5.84-5.72,8.7-11.84,8.64c-8.62-0.84-16.79-3.28-24.74-6.75
			c-8.5-3.97-14.72-10.14-18.42-18.84c-9.71-82.48,3.3-160.2,48.57-231.14C631.12,624.32,636.21,626.79,639.36,633.28z"/>
		<path class="st22" d="M382.28,1181.13c14.83-30.98,39.45-32.42,67.85-22.51C430.61,1175.46,407.19,1180.53,382.28,1181.13z"/>
		<path class="st24" d="M493.42,1146.68c0.85-7.03,1.7-14.05,2.54-21.08c21.79-6.34,11.74,17.94,21.9,22.78
			c4,6.33,8.01,12.67,12.01,18.99C498.86,1193.71,501.74,1160.32,493.42,1146.68z"/>
		<path class="st22" d="M303.7,1181.89c11.2-3.92,22.17-18.32,33.82-0.73C326.56,1195.72,315.28,1195.73,303.7,1181.89z"/>
		<path class="st13" d="M595.94,1158.77c-18.89-27.07-1.39-80.39-57.92-80.33c-1.2-18.54,11.81-24.82,25.97-30.11
			c12.22-2.03,23.13,0.27,31.83,9.76c-2,16.02,3.95,30.02,11.07,43.73c11.71,15.33,11.44,30.73,0.26,46.2
			C603.41,1151.6,599.67,1155.18,595.94,1158.77z"/>
		<path class="st22" d="M607.14,1148.02c-0.08-15.39-0.16-30.79-0.25-46.19C634.35,1117.07,635.62,1132.46,607.14,1148.02z"/>
		<path class="st24" d="M595.82,1058.09c-10.44-1.73-20.89-3.45-31.33-5.18c-9.17-5.06-7.95-11.12-1.71-17.67
			c10.86,0.09,21.72,0.19,32.57,0.28C595.5,1043.04,595.66,1050.56,595.82,1058.09z"/>
		<path class="st25" d="M562.77,1035.24c0.57,5.9,1.13,11.81,1.71,17.69c-8.81,8.5-17.62,17.01-26.45,25.52
			c-27.01,17.45-23.41,43.74-20.17,69.92c-7.3-7.59-14.61-15.19-21.91-22.78c-4.22-7.52-8.44-15.04-12.68-22.56
			c-4.67-21.68,10.63-33.05,23.57-45.65C525.49,1050,544.13,1042.62,562.77,1035.24z"/>
		<path class="st20" d="M180.32,1075.7c24.44,8.07,39.15,25.84,48.68,48.81c-36.77-2.17-77.98,10.74-103.42-30.22
			C143.84,1088.11,162.08,1081.9,180.32,1075.7z"/>
		<path class="st7" d="M189.07,832.9c5.61-4.21,10.69-9.71,16.97-12.33c9.44-3.95,24.24-10.4,27.43,2.85
			c3.94,16.39-14.6,9.03-22.69,13.15c-6.34,3.22-13.31,5.19-20,7.71c-2.91-2.15-4.13-4.55-3.67-7.2
			C187.59,834.29,188.25,832.9,189.07,832.9z"/>
		<path class="st12" d="M229.21,770.81c5.65,0.72,11.3,1.44,16.97,2.15c6.32,1.16,12.63,2.32,18.94,3.49
			c-2.22,3.53-4.44,7.06-6.66,10.59C246.79,785.1,230.23,791.96,229.21,770.81z"/>
		<path class="st5" d="M189.07,832.9c0.57,3.79,1.15,7.58,1.72,11.37c-2.63,1.52-7.48,4.46-7.56,4.34
			C178.33,840.98,181.58,836.1,189.07,832.9z"/>
		<path class="st13" d="M318.79,799.62c2.4,10.93,4.79,21.87,7.18,32.8c-3.26-2.67-6.52-5.34-9.77-8
			C317.07,816.16,317.93,807.89,318.79,799.62z"/>
		<path class="st26" d="M237.28,745.6c0.28-8.44,0.56-16.89,0.84-25.33c0,0,4.12-0.76,4.12-0.76c6.78-0.97,10.57,3,13.6,8.23
			c0.37,4.57,0.75,9.15,1.12,13.72C250.4,742.85,243.84,744.23,237.28,745.6z"/>
		<path class="st12" d="M255.84,727.75c-4.55-2.74-9.1-5.48-13.62-8.22c0.54-7.18,6.37-8.95,10.22-5.81
			C255.42,716.13,254.84,722.91,255.84,727.75z"/>
		<path class="st14" d="M900.29,145.21c10.4,41.88-26.83,63.02-41.61,93.75c-42.55,88.52-87.57,175.85-131.06,263.92
			c-14.04,28.44-30.4,52.11-67.18,47.99c-16.02-37.37-7.52-70.47,17.57-100.67c4.64-12,9.29-23.99,13.97-35.99
			c36.66,4.21,46.75-24.46,59.05-48.91c34.13-67.84,67.24-136.11,114.51-196.41C875.23,156.52,883.46,145.51,900.29,145.21z"/>
		<path class="st8" d="M678,450.21c-5.83,33.55-11.67,67.1-17.53,100.66c-21.42,23.8-17.2,54.14-21.11,82.41
			c-3.46-0.96-6.89-2.02-10.29-3.16c-24.24-9.8-49.49-18.65-49.2-51.82c6.27-41.37,24.03-79.83,30.62-121.2
			c1.54-9.64,3.57-22.77,19.75-19.12C642.81,455.1,661.81,447.18,678,450.21z"/>
		<path class="st10" d="M630.24,437.97c-24.73,46.94-9.51,107.1-49.3,149.06c-14.93,5.65-29.04,9.61-29.75-14.3
			c32.26-66.65,45.4-141.69,89.11-203.33C636.93,392.25,633.58,415.11,630.24,437.97z"/>
		<path class="st16" d="M624.87,870.25c2.97-0.42,4.85,0.82,5.63,3.72c-0.76,18.54-7.68,31.94-27.65,36.31
			c-68.58,15.03-136.76,32.25-205.8,44.68c-21.51,3.87-55.49,12.5-64.16-16.18c-7.91-26.18,20.89-39.32,41.97-51.03
			c10.31-17.76,28.07-21.5,46.16-24.7c30.24-3.37,59.6-13.27,90.45-12.47c25.6-0.25,51.76-3.59,74.09,13.67
			c7.53,1.13,15.06,2.25,22.58,3.38C613.3,871.18,618.06,877.23,624.87,870.25z"/>
		<path class="st1" d="M415.62,876.35c-13.61,3.81-27.21,7.62-40.79,11.42c-4.74-8.68-9.51-17.36-14.28-26.06
			c25.69-24.79,51.37-49.56,77.05-74.32c4.43-4.11,9.27-4.87,14.58-1.79c3.45,4.44,5.71,9.43,6.86,14.94
			C459.13,834.12,440.18,856.85,415.62,876.35z"/>
		<path class="st5" d="M136.7,973.86c-34.38,6.36-68.75,12.73-103.13,19.12c-3.85-8.38-7.69-16.8-11.54-25.21
			c27.84-22.83,63.9-6.44,94.72-19.98C131.71,941.22,134.64,961.17,136.7,973.86z"/>
		<path class="st27" d="M585.57,864.25c-26.48,0.39-52.95,0.78-79.43,1.17c-7.9-15.47-0.04-29.17,4.74-43.25
			c3.16-6.87,7.13-13.28,11.23-19.61c8.34-13,13.74-27.09,15.86-42.46c14.4-60.58,14.18-120.56-6.29-179.85
			c-0.01-3.36-1.18-6.25-3.52-8.69c7.66,0.39,15.34,0.79,23.02,1.19c9.92,4.76,19.85,9.53,29.76,14.3
			c13.16,17.58,40.21,19.63,48.12,43.08C600.95,705.63,581.55,782.76,585.57,864.25z"/>
		<path class="st12" d="M531.69,580.24c58.75,60.11,30.66,127.53,16.33,193.8c-15,3.21-20.42-10.63-30.22-16.77
			c-15.12-15.67-38.91-9.44-55.24-21.88C467.21,675.47,522.75,638.24,531.69,580.24z"/>
		<path class="st19" d="M462.56,735.39c26.4-7.04,51.53-8.9,69.8,17.16c1.44,16.35,9.38,33.44-5.47,47.91
			c-13.54,2.91-18.47-7.43-24.63-15.84c-2.58-4-5-8.21-7.37-12.18c-3.21-3.48-6.96-7.93-11.81-3.68c-4.04,3.54-2.27,9.12-0.58,13.97
			c3.19,9.22,7.18,18.28,2.99,28.17c-4.15,3.11-8.81,4.74-13.99,4.96c-11.88-1.48-16.38-10.89-21.32-19.83
			c0.41-2.62-0.18-4.99-1.79-7.11c-4.83-8.21-3.96-16.64-1-25.15C452.45,754.31,457.5,744.85,462.56,735.39z"/>
		<path class="st12" d="M447.4,763.77c0.33,8.37,0.66,16.75,0.99,25.14c-3.54-0.82-7.13-1.34-10.78-1.53
			C440.86,779.51,444.13,771.64,447.4,763.77z"/>
		<path class="st5" d="M624.87,870.25c-5.58-0.88-11.16-1.75-16.73-2.63C613.73,868.5,619.3,869.38,624.87,870.25z"/>
		<path class="st12" d="M450.18,796.03c7.36,4.65,14.72,9.29,22.08,13.94c13.87,10.48,30.23-5.93,44.18,4.04
			c4.92,2.67,7.37,6.82,7.39,12.42c-5.89,13-11.78,26-17.67,38.99c-30.18,3.65-60.34,7.3-90.52,10.94
			C420.02,846.51,451.04,828.13,450.18,796.03z"/>
		<path class="st13" d="M518.33,806.65c16.39-14.98,13.18-35.06,14.03-54.09c5.22,7.15,10.44,14.32,15.66,21.48
			c-5.57,12.48-3.86,28.99-19.77,35.75l-3.83,3.49c0,0-4.93-1.59-4.93-1.59C519.49,811.7,518.33,806.65,518.33,806.65z"/>
		<path class="st12" d="M519.95,810c2.79,0.9,5.55,0.83,8.29-0.21c-1.49,5.54-2.98,11.08-4.44,16.63c-2.79-2.55-5.6-5.12-8.42-7.68
			c-0.31-2.02-0.62-4.03-0.93-6.05C516.29,811.8,518.12,810.9,519.95,810z"/>
		<path class="st3" d="M472.75,787.14c-21.1-18.75-10.08-33.66,8.56-41.56c16.32-6.92,28.81,0.35,24.66,21.72
			c-8.51,6.7-17.24,13.06-27.05,17.81C476.88,785.81,474.81,786.48,472.75,787.14z"/>
		<path class="st3" d="M518.33,806.65c0,0,1.61,3.35,1.62,3.35s-2.56-0.91-2.56-0.91c-11.51,8.92-23.12,8.1-34.79,0.32
			c-3.28-7.43-6.56-14.85-9.84-22.28c0,0,0.38-0.4,0.38-0.4c9.6-10.41,22.78-10.74,35.42-12.59
			C519.16,782.78,516.22,795.48,518.33,806.65z"/>
		<path class="st26" d="M508.55,774.16c-4.85,23.77-21.21,15.15-35.42,12.59c-2.14-28.58,14.98-24.63,32.84-19.45
			C505.7,770.01,506.56,772.3,508.55,774.16z"/>
		<path class="st2" d="M482.59,809.42c11.6-0.11,23.19-0.21,34.79-0.32c-1.31,3.08-1.97,6.3-1.99,9.65
			c-15.06,0.44-31.43,7.32-43.13-8.78C475.73,810.19,479.17,810,482.59,809.42z"/>
	</g>
</g>
</svg>
