<?xml version="1.0" encoding="utf-8"?>
<!-- Generator: Adobe Illustrator 23.1.0, SVG Export Plug-In . SVG Version: 6.00 Build 0)  -->
<svg version="1.1" id="Calque_1" xmlns="http://www.w3.org/2000/svg" xmlns:xlink="http://www.w3.org/1999/xlink" x="0px" y="0px"
	 viewBox="0 0 1125 1820.46" style="enable-background:new 0 0 1125 1820.46;" xml:space="preserve">
<style type="text/css">
	.st0{fill:#FAFBF7;}
	.st1{fill:#0ABC08;}
	.st2{fill:#1A1C18;}
	.st3{fill:#F7D984;}
	.st4{fill:#F4DD04;}
	.st5{fill:#DCAE57;}
	.st6{fill:#02BCE2;}
	.st7{fill:#AF7F33;}
	.st8{fill:#996F2E;}
	.st9{fill:#FEFEBB;}
	.st10{fill:#DFD000;}
	.st11{fill:#BE8B37;}
	.st12{fill:#F8F5A8;}
	.st13{fill:#E15C4F;}
	.st14{fill:#EE7972;}
	.st15{fill:#C34E46;}
	.st16{fill:#008EAE;}
	.st17{fill:#B24832;}
	.st18{fill:#F9F650;}
	.st19{fill:#BB4F00;}
	.st20{fill:#095A08;}
	.st21{fill:#05A302;}
	.st22{fill:#EBDDD1;}
	.st23{fill:#E3CBB6;}
	.st24{fill:#037702;}
	.st25{fill:#0B4E60;}
	.st26{fill:#42423F;}
	.st27{fill:#F27169;}
	.st28{fill:#C5B599;}
</style>
<path class="st0" d="M232.47,1202.63c-3.51-10.73-20.72-33-24.23-43.73c-0.8-23.02,1.68-80.53,4.7-87.58
	c4.03-55.07,16.16-79.46,34.65-127.39c19.98-51.79,35.17-99.18,87.49-124.38c51.59-30.56,101.75-37.3,148.84,8.84
	c12.5,15.78,22.7,34.45,21.23,53.75c-10.72,140.6-42.07,275.03-129.61,389.92c-28.38,37.25-61.34,32.93-93.01,1.68
	C253.52,1239.61,217.82,1246.08,232.47,1202.63z"/>
<g>
	<g>
		<path class="st1" d="M456.17,809.41c22.12-36.51,57.99-15.68,87.59-21.01c43.45-8.71,87.19-19.24,122.85,19.96
			c2.39,13.96-4.17,24.27-13.6,33.35c-107.82,32.22-148.66,126.54-197.28,213.61c-16.35,4-18.44,11.38-5.18,22.41
			c3.55,11.49,2.56,22.45-3.86,32.76c-12.28,11.16-26.87,12.82-42.48,10.31c-11.11-2.86-20.35-8.69-27.44-17.79
			c-4.19-6.66-3.98-13.39-0.02-20.1C443.88,1003.56,459.88,909.35,456.17,809.41z"/>
		<path class="st0" d="M206.01,1209.56c0.74-16.89,1.49-33.77,2.23-50.66c42.53,30.29,74.65-7.84,111.18-16.94
			c19.41,7.23,28.05,22.66,31.92,41.8c-1.81,49.48-36.38,60.04-76.32,64.42c-23.61,0.75-46.82-0.69-67.31-14.5
			C199.8,1226.18,199.24,1218.12,206.01,1209.56z"/>
		<path class="st2" d="M341.19,1180.44c-18.09-6.7-16.8-24.36-21.77-38.48c6.73-24,8.56-51.14,21.38-71.25
			c17.87-28.03,30.6-12.37,35.95,12.19c0.01,0.02-1.47-0.14-1.47-0.14c5.21,21.67,18.46,41.02,18.65,64.17
			c-0.81,18.28-5.17,35.08-20.37,47.14C358.13,1200.66,349.94,1189.88,341.19,1180.44z"/>
		<path class="st3" d="M913.99,1419.9c17.81,20.62,35.61,41.24,53.42,61.86c0.75,45.12-36.52,55.14-66.71,62.75
			c-98.04,24.72-196.18,50.81-297.11,61.11c-65.37,6.67-129.17-0.43-186.51-38.02c-35.76-23.44-72.86-24.82-111.92-5.22
			c-96.09,48.2-185.01,23.3-270.57-29.31l0.16-0.02c-4.71-6.59-10.95-12.08-14.2-19.72c-27.82-37.88-22.64-78.02-8.12-118.8
			c18.15-12.48,35.44-29.1,53.72,1.18c43.95,72.79,117.16,61.3,184.9,60.4c52.68-0.71,25.26-32.89,17.97-56.03
			c9.91-19.13,29.78-23.94,46.74-32.94c50.76-12.8,48.2-72.45,85.23-97.35c7.73-1.87,15.45-1.94,23.24-0.38
			c33.56,15.13,54.55,45.12,81.28,68.4c21.24,23.67,48.09,43.99,49.02,80.1c-23.28,63.08,6.31,85.03,63.8,73.83
			c68.38-13.32,136.92-30.8,177.2-97.37c13.68-10.91,29.42-13.04,46.18-11.07c12.16,1.76,23.95,5.15,35.73,8.61
			C892.42,1397.51,909.78,1400.2,913.99,1419.9z"/>
		<path class="st4" d="M663.1,819.5c-33.87-33.06-83.71-4.86-119.34-31.11c-26.69-186.53-72.22-368.24-140.16-544.14
			c-8.01-20.73-17.39-40.95-7.99-63.71c15.54,11.29,32.83,20.82,46.33,34.18c66.15,65.5,129.02,133.82,173.36,216.85
			c41.46,13.6,47.56,51.73,59.69,85.72c4.06,13.31,7.81,26.76,12.76,39.82c2.72,6.4,4.7,13.03,6.43,19.75
			c3.62,16.95,6.86,34,12.78,50.46c2.55,6.87,4.37,13.86,5.87,21c3.56,26.19,7.78,52.19,16.09,77.44c4.09,16.47,5.9,33.1,5.21,50.08
			c-1.31,18.56-5.38,36-19.46,49.51C696.17,834.77,678.77,834.66,663.1,819.5z"/>
		<path class="st5" d="M34.59,1533.07c38.28,7.64,77.05,13.44,114.73,23.36c53.74,14.15,103.68,17.69,151.46-19.89
			c37.47-29.48,81.39-28.57,116.82,2.17c51.87,45,112.61,54.09,174.13,43.53c127.98-21.98,261.32-26.71,375.69-100.48
			c40.93,82.14,16.26,154.99-31.79,224.53c-65.34-103.4-82.8-106.44-229.64-39.78c-31.09,9.57-63.09,7.44-94.86,8.25
			c-74.04,3.1-147.31-1.09-218.69-22.79c-22.8-9.8-45.02-22.48-71.68-15.7c-100.12-1.32-201.29,1.41-282.2-73.41
			C37.22,1552.94,35.9,1543,34.59,1533.07z"/>
		<path class="st6" d="M830.81,402.81c12-65.95,23.84-131.93,36.17-197.82c1.9-10.18,0.38-24.01,15.82-25.62
			c15.37-1.61,16.23,11.86,19.79,21.55c19.19,52.37,42.41,103.53,48.71,159.83c17.38,44.77,5.74,95.67,29.35,139.13
			c0.58,27.22,1.15,54.44,1.73,81.66c-4.65,105.77-21.47,209.55-52.7,310.73c-7.31,23.67-16.22,48.43-46.68,52.85
			c-24.03-4.98-28.57-22.86-28.99-43.54c12.49-104.6,2.88-209.67,6.08-314.36c3.25-55.87-15.66-107.5-31.51-159.74
			C826.85,419.04,827.76,410.82,830.81,402.81z"/>
		<path class="st7" d="M611.4,1653.33c34.02-1.69,68.03-3.37,102.05-5.06c38.64,12.25,76.63,13.56,115.76-0.56
			c32.78-11.83,64.76-10.71,67.09,34.79c2.23,43.52-28.2,49.07-63,46.08c-11.21-0.96,2.91-0.82-8.4-0.93
			c-24.82-0.23-60.94-12.19-70.27,11.32c-11.13,28.05,38.05,24.33,46.2,48.94c-36.85,25.28-80.87,19.12-121.52,27.73
			c-63.07-27.2-131.13-21.59-197.05-28.42c-99.49-10.31-197.16-29.05-294.19-52.26c-11.35-5.34-22.7-10.69-34.05-16.03
			c-9.1-10.44-24.96-6.92-34.41-16.64c-36.39-25.46-62.55-58.18-72.65-102.32c27.16-15.87,48.47,2.59,70.82,12.62
			c122.12,54.81,248.7,89.66,383.56,93.37C549.04,1707.28,592.38,1708.07,611.4,1653.33z"/>
		<path class="st8" d="M611.4,1653.33c12.02,30.95,50.93,62.52-26.99,69.51c-154.54,13.87-298.86-13.76-438.63-75.86
			c-33.3-14.8-65.85-31.28-98.78-47c-12.16-10.25-11.43-23.41-8.46-37.1c98.17,32.15,197.47,57.88,302.11,53.35
			c13.91,0.61,25.05,7.97,36.36,14.92C455.05,1639.43,532.22,1657,611.4,1653.33z"/>
		<path class="st9" d="M209.14,1224.33c21.08,0.71,42.16,1.41,63.23,2.12c80.21,26.19,86.27,43.83,46.44,134.78
			c-23.95,20.83-56.54,27.5-80.25,48.86c-47.49,22.35-96.09,25.27-144.33,3.94c-29.06-12.85-49.31-30.85-14.54-60.22
			c6.32-2.69,13.24-3.98,20.12-4.05c8.77,1.84,15.88,7.07,22.06,13.22c2.68-5.96,1.08-10.12-5.3-12.46
			c-4.26-3.27-7.9-7.04-11.18-11.06c-7.72-6.29-16.23,0-24.41-1.43c-20.46-7.83-39.03-16.8-29.12-44.32
			c6.67-10.98,13.35-21.96,20.02-32.95c3.8-5.88,8.53-10.85,14.35-14.76c4.57-3.94,9.14-7.88,13.71-11.82
			C137.57,1244.52,172.21,1221.73,209.14,1224.33z"/>
		<path class="st10" d="M987.5,802.4c28.06-14.33,30.06-47.14,48.43-68.35c14.32,10.96,17.6,26.66,18.77,43.27
			c3.9,18.29-11.85,35.76-2.32,54.38c11.34-6.7,19.32-19.9,35.04-18.12c3.18,80.78-38.54,151-53.48,227.52
			c4.69,66.65-19.15,115.3-86.21,136.76c-14.89-11.59-23.54-27.17-29.1-44.83c-10.65-45.05-7.66-90.77-6.78-136.4
			C928.46,928.58,922.8,851.74,987.5,802.4z"/>
		<path class="st11" d="M800.83,1787.92c-38.1-7.17-100.59,0.23-94.37-50.48c5.65-46.1,67.27-34.03,108.03-34.93
			c5.52-0.12,11.08,0.96,16.6,1.69c17.13,2.26,38.04,22.32,48.45-7.83c3.13-9.06,1.97-24.53-3.9-30.85
			c-18.57-19.97-34.91,2.45-52.24,6.77c-40.73,10.16-85.45,40.01-109.94-23.99c38.48-45.76,91.42-50.1,145.07-48.16
			c69,2.5,79.11,50.55,77.08,106.14C902.74,1753.43,851.99,1771.01,800.83,1787.92z"/>
		<path class="st12" d="M51.86,1293.72c7.72,19.71,21.07,32.43,42.93,34.56c15.11-3.77,18.17,10.3,25.9,17.47l-0.5-0.6
			c3.91,3.49,5.33,7.08,4.24,10.79c-1.1,3.76-2.27,5.65-3.51,5.65c-15.03,3.18-37.75-4.48-41.37,16.53
			c-3.29,19.11,19.17,13.35,29.77,19.6c40.74,23.97,80.23,2.62,120.2-0.97c14.74-6.08,29.56-13.18,42.67,3.11
			c13.57,23.69,61.02,0.87,59.06,33.43c-2.16,35.94-43.09,48.94-70.73,45.44c-77.86-9.88-180.32,34.83-216.12-85.22
			c-0.78-2.61-20.89,0.56-31.99,1.02C14.16,1356.46,28.81,1323.45,51.86,1293.72z"/>
		<path class="st13" d="M634.92,375.83c-7.17-95.5-14.34-191-21.51-286.5c49.19,9.25,51.05,54.67,62.72,88.7
			c18.84,54.95,31.54,112.14,44.03,169.13c13.51,57.72,22.17,116.35,29.79,174.94c5.32,40.88,14.49,85.18-26.47,116.67
			c-9.99,2.8-19.14,1.08-27.44-5.14l0.6-0.34c-17.59-19.71,2.68-49.02-17.26-68.14l-0.61,0.22c-7.57-10.23-7.13-21.66-5.02-33.34
			C673.69,476.74,648.16,427.81,634.92,375.83z"/>
		<path class="st8" d="M188.07,1734.98c98.73-11.21,193.62,19.84,290.19,30.11c67.31,7.16,148.96-22.77,201.06,50.58
			C508.7,1830.59,343.55,1812.25,188.07,1734.98z"/>
		<path class="st14" d="M696.7,344.68c-23.5-86.51-35.06-176.91-83.3-255.35c-3.49-7.67-8.95-15.04-10.1-23.04
			c-2.99-20.87-17-41.95-0.65-63.06c13.49,13.68,27.96,26.54,40.31,41.18c58.35,69.15,102.99,146.51,135.75,230.79
			c-6.02,29.1,15.37,61.86-11.75,88.12c-62.98-17.58-31.42-81.03-56.37-117.23c-3.37-4.89-4.73-11.04-11.13-10.34
			c-11.22,1.22-7.58,9.72-0.62,0.8c0.13-0.17,2.38,1.46,6.75,4.89C726.32,257.67,721.08,318.57,696.7,344.68z"/>
		<path class="st15" d="M769.5,361.04c0.03-28.93-11.36-59.09,9.22-85.83c17.35,42.48,34.71,84.96,52.08,127.52
			c0.01,0.07,0.79,3.51,0.79,3.51c33.16,83.24,33.83,171.55,40.39,258.93c7.71,72.1,1.54,143.45-12.07,214.41
			c-22.58,26.91-42.57,9.98-62.76-3.63c-5.35-8.11-8.12-17.1-8.46-26.79C830.16,684.64,785.7,523.4,769.5,361.04z"/>
		<path class="st16" d="M987.5,802.4c-17.43,59.41-34.86,118.82-52.29,178.23c-31.5,32.76-44.04,6.28-57.25-18.29
			c-2.65-9.51-0.48-17.79,6.45-24.84c51.82-96.89,59.06-205.76,82.75-310.16c3.63-16.01,0.94-33.52,15.24-45.81
			C1013.29,654.48,966.07,729.24,987.5,802.4z"/>
		<path class="st17" d="M954.32,1171.54c26.54-43.47,53.08-86.95,79.62-130.43c26.56-12.75,53.13-25.49,79.7-38.23
			c3.42,36.28-21.3,61.59-37.28,89.32c-30.46,52.85-64.78,103.47-97.5,155.01c-7.54,13.01-58.19,82.8-73.81,73.7
			c-12.16-15.66,26.38-95.45,28.31-114.58C935.89,1192.07,941.4,1179.56,954.32,1171.54z"/>
		<path class="st18" d="M1087.41,813.59c-4.71,6.95-10.68,13.38-13.88,20.97c-8.29,19.69-9.6,53.19-39.25,43.15
			c-28.03-9.5-11.94-37.73-6.09-58.61c3.03-10.82,5.74-21.73,8.59-32.6c9.53-40.08,22.83-79.1,33.41-118.89
			c9.58-19.41,22.39-49.15,41.82-42.23c22.2,7.9,8.45,39.46,5.15,59.18C1109.9,728.01,1097.64,770.63,1087.41,813.59z"/>
		<path class="st19" d="M937.44,1340.76c-1.29,6.59-2.58,13.19-3.87,19.78c-25.73,24.36-53.74,25.91-83.71,8.41
			c-26.43-36.18-13.12-67.15,12.64-96.54c23.83-14.64,47.9-14.99,72.17-0.99C955.06,1293.72,950.1,1317.09,937.44,1340.76z"/>
		<path class="st17" d="M634.92,375.83c38.99,45.95,69.85,94.21,44.95,158.32c-6.41,5.73-12.16,4.83-17.32-1.75
			c-15.77-33.64-31.53-67.28-47.27-100.87C635.52,417.81,626.4,393.71,634.92,375.83z"/>
		<path class="st16" d="M937.44,1340.76c1.24-19.9,2.47-39.8,3.71-59.7c-0.62-7.69,2.93-11.4,10.63-11.13
			c9.08-7.6,18.15-15.2,27.15-22.76c19.21,0.53,53.18-3.83,55.22,2.35c8.51,25.78-19.61,35.01-35.27,48.35
			C979.96,1314,958.06,1326.62,937.44,1340.76z"/>
		<path class="st20" d="M854.38,1360.3c26.4,0.08,52.8,0.16,79.2,0.24c2.34,22.71,1.83,44.48-19.61,59.34
			c-16.23-3.7-32.48-7.43-48.73-11.15c-4.22-3.31-9.02-4.85-14.38-4.63c-17.71-1.28-35.42-2.56-53.13-3.84
			c-1.12-4.03-2.24-8.05-3.37-12.09C806.34,1361.6,824.87,1349.11,854.38,1360.3z"/>
		<path class="st12" d="M209.14,1224.33c-35.16,16.97-67.98,59.92-109.19,9.87c30.82-27.75,69.57-21.28,106.06-24.62
			C207.45,1214.4,208.5,1219.32,209.14,1224.33z"/>
		<path class="st16" d="M980.66,499.88c-52.84-37.28-17.53-93.17-29.35-139.12C972.87,404.64,986.17,450.27,980.66,499.88z"/>
		<path class="st4" d="M1070.2,667.61c21,48.66-20.92,79.63-33.41,118.88c-0.28-17.47-0.57-34.95-0.86-52.43
			C1038.83,707.51,1052.3,686.41,1070.2,667.61z"/>
		<path class="st8" d="M119.61,1702.3c14.27-0.25,27,2.69,34.41,16.65C139.92,1718.83,127.35,1715.56,119.61,1702.3z"/>
		<path class="st12" d="M86.23,1246.02c-4.78,4.92-9.57,9.84-14.35,14.76C71.52,1250.85,76.58,1246.2,86.23,1246.02z"/>
		<path class="st5" d="M20.55,1513.33c4.73,6.57,9.46,13.15,14.2,19.72C23.35,1531.27,19.79,1523.85,20.55,1513.33z"/>
		<path class="st0" d="M437.15,1107.88c1.22-11.22,2.44-22.45,3.66-33.67c-4.49-6.23-3.91-11.93,1.75-17.12
			c26.35-48.52,38.6-103.6,73.45-148.5c34.04-43.85,72.9-75.89,130.95-77.32c59.6-6.6,108.08,7.91,131.99,69.35
			c4.89,19.53,6.49,40.74-2.79,57.72c-67.67,123.71-151.6,233.3-278.69,301.94c-41.2,22.26-69.45,4.75-85.45-36.77
			C399.65,1180.48,405.91,1141.45,437.15,1107.88z"/>
		<path class="st21" d="M437.15,1107.88c-2.51,39.6-5.02,79.2-7.53,118.8c3.75,17.33,10.64,34.96-4.63,50.55
			c-5.79,0.04-11.58,0.08-17.37,0.12c-46.98-13.9-85.12-31.95-41.4-88.37c2.21-9.33,4.41-18.65,6.62-27.98
			c19.48-12.15-0.1-41.13,22.39-51.98C409.21,1108.64,423.18,1108.26,437.15,1107.88z"/>
		<path class="st21" d="M766.47,900.37c-22.97-52.23-71.23-60.67-119.51-69.09c5.38-3.93,10.76-7.85,16.13-11.78
			c15.76-1.14,31.52-2.28,47.27-3.42c6.97-3.78,14.4-5.67,22.37-5.5c26.28,7.38,54.94,11.33,64.34,43.63
			c1.47,4.05,2.62,8.2,3.44,12.43c14.25,20.84,19.09,42.53,6.05,65.87C765.92,955.91,778.85,912.34,766.47,900.37z"/>
		<path class="st8" d="M395.23,1109.02c-7.46,17.29-14.92,34.58-22.39,51.93c0.81-26.03,1.62-52.11,2.44-78.19
			C391.42,1084.31,391.53,1098.03,395.23,1109.02z"/>
		<path class="st21" d="M442.56,1057.09c-0.58,5.7-1.17,11.41-1.75,17.12c-1.72-4.22-3.92-8.35-4.8-12.74
			C435.82,1060.49,440.26,1058.58,442.56,1057.09z"/>
		<path class="st12" d="M366.22,1188.98c-40.39,54.87,19.75,62.6,41.41,88.37c-25.57,36.08-17.22,99.82-83.61,102.61
			c-17.96,6-21.57-1.96-17.19-17.68c16.18-52.29,38.35-106.1-34.45-135.83c33.09-0.13,64.21-3.23,68.8-46.01
			C349.54,1183.29,357.88,1186.14,366.22,1188.98z"/>
		<path class="st22" d="M766.47,900.37c10.57,12.36,21.14,24.72,31.71,37.09c11.19,9.13,15.67,21.51,17.24,35.33
			c-6.87,56.69-14.09,113.33-57.45,156.65c-45.93,18.12-54.52,63.09-72.35,101.5c-32.68,29.52-63.4,61.32-97.53,88.95
			c-26.84,21.73-54.44,50.27-94.95,25.81c-28.62-16.94-50.98-40.11-68.15-68.46c1.54-16.85,3.08-33.69,4.63-50.54
			c15.05,12.45,21.06,42.21,52.06,20.75C609.82,1158.75,728.65,1062.98,766.47,900.37z"/>
		<path class="st12" d="M797.73,1400.26c-18.23,78.03-208.15,153.38-267.65,104.66c-45.14-36.97,3.15-62.7,15.17-92.54
			c12.15-14.42,29.11-17,46.33-19.06c12.6-1.28,25.26-1.46,37.91-1.46c12.43-0.48,24.88-0.31,37.31-0.14
			c32.86,0.79,65.6,0.03,97.89-7.48c13-0.88,25.25,0.85,35.19,10.32L797.73,1400.26z"/>
		<path class="st23" d="M594.67,1412.32c-16.48,0.03-32.97,0.06-49.44,0.07c-17.35-22.24-34.72-44.47-52.09-66.7
			c83.98-4.59,109.72-98.98,183.6-119.15c11.63,6.99,13.96,18.01,13.25,30.38c-13.85,53.51-50.58,94.02-79.29,139.11
			C605.65,1401.73,600.29,1407.15,594.67,1412.32z"/>
		<path class="st8" d="M306.82,1362.28c5.73,5.89,11.46,11.78,17.19,17.68c-8.94,28.32-35.14,11.71-51.81,19.91
			c-14.22-1.04-28.45-2.07-42.67-3.11C250.25,1373.94,275.15,1360.53,306.82,1362.28z"/>
		<path class="st7" d="M850.86,1404.1c4.82,1.55,9.65,3.1,14.42,4.64C860.44,1407.19,855.65,1405.65,850.86,1404.1z"/>
		<path class="st17" d="M713.79,767.45c-0.71-15.21-1.42-30.42-2.13-45.63c-6.42-13.04-6.84-26.16-0.5-39.4
			c9.25-4.24,17.73-3.06,25.51,3.52c16.62,26.27,16.43,52.77,1.12,79.48C730.44,773.58,722.43,774.25,713.79,767.45z"/>
		<path class="st19" d="M715.24,682.8c-1.19,12.99-2.37,25.98-3.56,38.99c-19.58-26.83-18.17-57.41-15.65-88.18
			c6.82-0.31,13.64-0.62,20.45-0.93c9.23,8.36,10.88,19.11,9.74,30.76C723.86,670.62,720.26,677.11,715.24,682.8z"/>
		<path class="st17" d="M679.36,565.13c27.67,17.16,16.66,44.12,17.26,68.14C675.01,614.58,677.91,589.67,679.36,565.13z"/>
		<path class="st19" d="M713.79,767.45c5.89,0.46,11.78,0.92,17.67,1.37c14.71,18.22,14.74,36.27-0.66,54.12
			c-6.8-2.29-13.6-4.58-20.41-6.86C711.51,799.87,712.65,783.66,713.79,767.45z"/>
		<path class="st7" d="M662.54,532.39c5.77,0.56,11.55,1.12,17.32,1.72c-0.37,10.44-0.74,20.84-1.12,31.25
			C664.2,558.86,661.9,546.35,662.54,532.39z"/>
		<path class="st11" d="M377,1631.16c-15.21,2.58-28.57,0.64-36.35-14.91C365.08,1591.18,370.69,1612.04,377,1631.16z"/>
		<path class="st24" d="M799.87,1394.57c-11.85,1.66-23.71,3.32-35.56,4.98c-19.56,8.91-40.06,4.51-60.29,4.26
			c-8.44-3.11-12.62-9.28-13.19-18.11c2.09-8.06-25.25-38.79-19.68-44.94c107.83-89.37,152.58-183.8,133.06-311.86
			c-4.65-18.5,12.13-39.09-5.65-56.31c-0.12-11.7-0.25-23.4-0.38-35.11c0.77-23.62,1.55-47.23,2.33-70.83
			c15.94,6.94,31.87,13.88,47.8,20.82c11.61,2.28,18.57,8.92,19.68,21.03c5.47,9.68,10.94,19.36,16.41,29.03
			c-0.2,5.89-0.4,11.79-0.6,17.69c27.31,56.32,26.86,116.32,23.64,176.68c0.07,28.96,0.02,57.96-7.07,86.36
			c-4.9,23.69-17.69,43.14-33.29,61.04c-3.7,27.09-22.25,51.85-12.72,81.01C836.21,1371.73,818.04,1383.15,799.87,1394.57z"/>
		<path class="st25" d="M868,908.48c-6.56-7.01-13.11-14.02-19.68-21.03c5.08-72.13,10.16-144.26,15.24-216.4
			c-0.14-36.96-24.41-77.47,15.94-108.47C885.64,678.22,897.96,794.06,868,908.48z"/>
		<path class="st26" d="M879.51,562.59c-26.34,33.05-4.82,73.13-15.93,108.45c-10.66-88.21-21.31-176.44-31.97-264.73
			C872.19,450.81,873.35,507.47,879.51,562.59z"/>
		<path class="st5" d="M120.69,1345.76c-8.63-5.82-17.25-11.65-25.89-17.47c6.43-7.4,11.79-18.99,24.22-10.19
			C130.11,1325.94,124.91,1336.21,120.69,1345.76z"/>
		<path class="st5" d="M120.93,1361.6c0.02-5.49-0.23-10.97-0.73-16.44c5.17,4.77,10.34,9.55,15.52,14.32
			c-3.93,7.01-8.88,7.82-14.85,2.44L120.93,1361.6z"/>
		<path class="st12" d="M120.87,1361.92c5.03-0.33,9.99-1.13,14.86-2.42C132.74,1372.31,128.34,1376.48,120.87,1361.92z"/>
		<path class="st20" d="M883.56,1141.88c0.08-62.22,0.17-124.45,0.25-186.67c17.89,6.95,22.33,41.07,51.39,25.45
			c0.4,52.26,0.79,104.54,1.19,156.82C920.37,1158.06,902.41,1155.35,883.56,1141.88z"/>
		<path class="st19" d="M883.56,1141.88c17.6-1.44,35.2-2.89,52.81-4.37c5.98,11.33,11.94,22.7,17.93,34.05
			c-1.54,13.47-3.1,26.96-4.66,40.44c-19.51,18.32-39.2,35.84-67.51,15.3C882.6,1198.83,883.08,1170.35,883.56,1141.88z"/>
		<path class="st27" d="M730.8,822.94c0.22-18.04,0.43-36.08,0.66-54.12c-0.19-28.3-0.38-56.59-0.57-84.89
			c-6.18-4.37-10.32-10.19-12.44-17.45c-0.67-11.26-1.33-22.52-1.98-33.79c40.45-99.24-16.21-191.8-19.75-288.01
			c27.68-23.15,15.17-49,5.99-75.39c-5.15-14.8-11.3-30.99,3.08-45.05c7.91,13.85,18.86,26.83,23.11,41.73
			c9.57,33.58,7.97,71.39,40.57,95.07c52.42,122.56,73.44,250.91,54.82,382.26c-5.11,36.07,8.59,81.01-27.19,110.92
			C774.99,843.79,752.89,833.36,730.8,822.94z"/>
		<path class="st20" d="M882.13,1227.31c22.51-5.1,45.02-10.2,67.52-15.3c0.7,19.29,1.41,38.58,2.13,57.9
			c-1.2,6.07-4.75,9.76-10.63,11.12c-24.68-0.56-49.37-1.15-74.05-1.73C867.28,1260.57,863.09,1240.58,882.13,1227.31z"/>
		<path class="st28" d="M798.56,972.58c5.76,16.76,11.52,33.52,17.28,50.28c13.87,136.44-9.61,259.44-125.63,349.1l-1.86,0.97
			c2.46,11.37-5.78,18.01-11.39,25.82c-4.37,4.95-8.87,9.78-13.5,14.5c-11.14-0.39-22.28-0.77-33.42-1.16
			c-9.74-9.18-26.42-4.23-34.43-16.93c21.25-52.12,54.17-96.39,92.15-137.27c36.69-36.33,32.08-91.43,59.86-131.8
			C778.15,1079.42,785,1024.89,798.56,972.58z"/>
		<path class="st2" d="M747.63,1126.08c-0.48,52.78,17.55,113.98-59.86,131.8c-3.67-10.45-7.35-20.89-11.02-31.34
			C690.17,1185.85,674.74,1124.79,747.63,1126.08z"/>
		<path class="st3" d="M663.47,1413.24c0.14-4.39-0.32-8.71-1.39-12.97c9.57-12.97,20.99-13.37,33.71-4.99
			c22.84,1.42,45.68,2.84,68.52,4.26C733.45,1424.41,697.2,1409.54,663.47,1413.24z"/>
		<path class="st3" d="M595.61,1395.16c11.47,5.65,22.94,11.3,34.42,16.94c-11.78,0.08-23.57,0.16-35.36,0.24
			C594.99,1406.6,595.3,1400.88,595.61,1395.16z"/>
		<path class="st13" d="M718.44,666.47c4.15,5.82,8.29,11.64,12.44,17.45c-5.24-0.04-10.47-0.41-15.65-1.11
			C715.01,677.11,716.08,671.66,718.44,666.47z"/>
		<path class="st20" d="M690.21,1371.96c72.78-105.24,119.21-219.96,125.63-349.1c40.81,115.85,14.79,220.68-55.17,316.65
			C744.87,1361.19,725.13,1386.27,690.21,1371.96z"/>
		<path class="st20" d="M695.79,1395.29c-11.24,1.66-22.47,3.32-33.71,4.98c0.69-16.93,13.57-22.07,26.32-27.31
			C690.83,1380.38,693.31,1387.84,695.79,1395.29z"/>
	</g>
</g>
</svg>
