<?xml version="1.0" encoding="utf-8"?>
<!-- Generator: Adobe Illustrator 23.1.0, SVG Export Plug-In . SVG Version: 6.00 Build 0)  -->
<svg version="1.1" id="Calque_1" xmlns="http://www.w3.org/2000/svg" xmlns:xlink="http://www.w3.org/1999/xlink" x="0px" y="0px"
	 viewBox="0 0 1125 1087.74" style="enable-background:new 0 0 1125 1087.74;" xml:space="preserve">
<style type="text/css">
	.st0{fill:#385222;}
	.st1{fill:#C08157;}
	.st2{fill:#F7D500;}
	.st3{fill:#6A963D;}
	.st4{fill:#81A542;}
	.st5{fill:#F5C600;}
	.st6{fill:#37451C;}
	.st7{fill:#303012;}
	.st8{fill:#FEEBC1;}
	.st9{fill:#CA8900;}
	.st10{fill:#815B3D;}
	.st11{fill:#CC8F67;}
	.st12{fill:#703C0B;}
	.st13{fill:#547F34;}
	.st14{fill:#F6CA9D;}
	.st15{fill:#D49870;}
	.st16{fill:#916004;}
	.st17{fill:#416529;}
	.st18{fill:#E9B58B;}
	.st19{fill:#AC7325;}
	.st20{fill:#764B25;}
	.st21{fill:#90580C;}
	.st22{fill:#E29F00;}
	.st23{fill:#E5AB00;}
	.st24{fill:#835404;}
	.st25{fill:#AC714F;}
	.st26{fill:#5597A4;}
	.st27{fill:#424240;}
	.st28{fill:#FAD2A7;}
</style>
<g>
	<g>
		<path class="st0" d="M944.2,188.33c32.35-3.55,50.05,19.85,64.94,40.84c143.96,202.9,137.5,384.73,36.99,595.3
			c-2.78,5.82-10.53,9.26-15.96,13.81c-23.84-20.74-61.86-31.36-53.65-75.07c2.04-9.85,6.62-18.54,11.98-26.89
			c24.34-38.93,51.5-75.65,84.95-107.15c5.17-6.89,6.65-13.04-3.77-16.82c-18.49-5.05-37.44-7.65-55.21-14.85
			c-4.79-2.47-8.69-5.92-11.98-10.14c-9.59-30.64-5.28-63.47-14.98-94.07c-11.96-12.29-0.9-30.34-10.73-43.16
			c-1.76-6.97-1.89,2.76-3.19-4.33c-1.18-6.42-7.5-13.2,1.65-18.68c-7.39,3.68-4.97,9.96-3.26,15.21c1.64,5.03,5.62,9.07,8.32,13.78
			c-0.39,16.57,1.67,32.49,11.34,46.62c0.44,10.68,0.78,21.24,1.83,31.86c5.2,52.63-8.83,61.39-60.37,38.45
			c-12.59-13.96-14.49-30.77-12.83-48.46c4.38-17.86,12.95-36.32-6.76-51.2c-11.55-18.71-32.88-33.47-24.47-60.23
			c46.81-1.68,18.99-58.84,59.28-75.16c41.02-16.62,10.6-59.92,4.69-91.73C946.28,227.54,926.28,210.76,944.2,188.33z"/>
		<path class="st1" d="M584.59,1019.73c-28.26,4.34-56.52,8.69-84.77,13.03c-26.97-33.77-65.07-17.86-98.68-22.36
			c-19.2-2.57-38.24-6.36-57.72-7.25c-33.81-10.8-78.82,0.45-93.77-47.46c14.61-13.63,32.6-13.1,49.8-9.18
			c42.84,9.78,83.94,3.48,124.59-10.15c33.81-4.98,64.15-17.7,89.69-40.9c47.37-45.57,84.38-99.98,127.59-149.09
			c10.41-11.83,17.62-26.89,33.52-33.23c8.18-1.8,15.69-0.57,22.26,4.92c11.7,25.88-3.68,47.41-11.7,69.91
			c-11.12,31.19-26.28,61.22-25.14,95.62c-0.29,8.14-2.19,15.78-6.8,22.59c-36.23,25.6-73.71,48.93-117.04,60.97
			c-4.88,1.35-10.19,1.64-12.85,6.97c4.41-0.93,8.13-4.13,12.97-3.77C579.89,973.65,590.12,984.15,584.59,1019.73z"/>
		<path class="st2" d="M101.38,394.06C96.99,219.09,178,88.63,340.74,30.77c40.08-14.25,88.81-43.85,137.48-12.93
			c3.93,3.06,8.24,5.41,12.95,7.03l-0.02-0.91c10.61,29.4-11.92,33.93-30.79,38.75c-34.99,8.93-70.05,17.17-102.1,34.47
			c-63.43,31.94-123.97,67.59-164.49,128.8c-19.46,30.28-38.4,60.75-42.17,97.81c-5.84,38.11-15.85,75.53-17.7,114.26
			c-1.72,8.75-5.18,16.58-11.89,22.7C86.43,447.4,115.97,413.91,101.38,394.06z"/>
		<path class="st3" d="M879.21,123.52c26.72,14.32,54.5,27.74,54.48,64.6c-8.92,25.67-16.34,52.48-46.67,62.03
			c-4.68-0.92-9.34-2.04-13.96-3.3c-4.05-2.82-7.67-6.02-8.57-10.53c0.49,0.52-2.04,0.35-2.06,0.79c2.35,1.02,3.89,2.46,4.82,5.02
			c2.29,2.33,4.6,4.16,7.28,5.81c3.43,1.3,6.19,3.23,8.56,5.89c3.22,4.55,5.9,9.34,8.89,14.01c2.51,3.08,4.78,6.25,7.16,9.46
			c2.62,3.37,4.65,6.98,6.34,10.9c1.16,4.4,1.38,8.78,0.77,13.27c-2.07,7.29-6.94,12.13-13.32,15.77
			c-20.91,9.23-42.12,16.2-65.31,9.25c-23.78-11.09-37.95-31.31-50.51-53.07c-2.45-4.12-4.58-8.44-6.6-12.77
			c-3.26-6.22-6.42-12.52-10.1-18.52c-8.58-14.23-22.08-23.36-34.71-33.37c-8.77-7.57-16.68-16.01-24.89-24.18
			c-5.07-4.83-9.77-9.99-14.09-15.51c-5.57-7.8-9.74-16.04-7.92-26.07c10.84-20.22,39.13-9.43,50.61-28.58
			c3.47-3.09,7.38-5.4,11.73-6.99c21.31-2.89,33.46,9.63,43.42,25.79c2.76,5.51,1.74,11.7,2.83,17.47c8.22,0.07-1.53-8.32,4.41-9.45
			c3.68-2.56,7.57-4.37,11.78-5.76C829.22,133.89,852.12,115.33,879.21,123.52z"/>
		<path class="st4" d="M737.38,113.41c-0.23,39.55-33.13,26.09-53.5,32.95c-4.26,3.07-8.91,3.89-13.97,2.5
			c-31.71-18.4-51.23-52.74-86.69-66.26c-4.42-2.09-8.61-4.58-12.7-7.23c-15.44-17.08-46.74-17.65-49.93-47.58
			C634.96-4.09,738.1,24.82,835.56,85.55c16.71,10.41,33.86,19.83,43.64,37.97c-27,15.88-55.32,26.53-87.46,22.12
			c-4.03,4.15-7.63,3.81-10.81-1.03c-9.69-16.86-21.55-30.79-42.97-31.78c-2.12-1.77-4.16-3.64-6.14-5.56
			C733.72,109.27,735.59,111.31,737.38,113.41z"/>
		<path class="st5" d="M669.8,1041.17c-0.41-2.44-0.02-4.74,1.15-6.92c-2.24-5.17-3.48-10.57-3.72-16.2
			c-1.77-8.25-5.28-16-7.14-24.25c-0.66-48.37,13-94.77,19.65-142.14c0.81-8.27,2.44-16.4,4.57-24.4
			c7.73-20.35,6.43-42.39,11.48-63.25c4.46-15.23,11.54-29.95,8.87-46.56c-2.64-13.39-3.09-26.85-1.7-40.41
			c2-19.09,9.25-37.14,11.01-56.32c1.81-8.48,5.17-16.17,11.45-22.37c44.57,3.51,63.08,34.61,76.03,71.7
			c-18.58,117.22-47.99,231.62-90.44,342.56c-5.79,15.14-11.05,31.28-25.9,39.77C675.42,1057.94,668.27,1054.03,669.8,1041.17z"/>
		<path class="st6" d="M251.77,955.86c26.99,26.05,63.35,25.01,96.46,33.4c10.69,16.46,3.75,26.15-12.42,32.29
			c-87.38-5.65-169.3,13.36-246.64,53.92c-24.57,12.88-50.1,18.14-76.16,3.22c2.71-8.03,9.33-11.57,16.47-14.55
			c49.1-14.56,52.9-68.19,84.3-98.01c6.44-8.01,14.37-14.16,23.45-18.89c9.18-4.08,18.47-7.47,28.5-2.85
			c5.12,5.47,4.58,12.36,4.6,19.12c4.46-4.38,2.49-10.48,3.94-15.68c1.84-6.62,3.01-13.43,5.82-19.84
			c12.62-18,10.86-47.46,40.98-51.49C251.62,895.09,244.09,928.41,251.77,955.86z"/>
		<path class="st7" d="M965.1,913.65c-66.81,52.9-142.56,86.97-225.09,106.75c-1.43-7.98,0.1-15.37,4.4-22.2
			c45.29-25.57,90.3-51.55,111.81-102.88c2.3-5.49,9.82-11.92,2.73-17.32c-2.82-2.15-8.02,5.38-12.03,8.67
			c-16.68,13.69-33.56,21.56-51.05,1.01c-7.97-36.67-0.13-70.82,16.3-103.61c17.7-9.06,29.39,5.12,43.23,11.12
			c10.32,5.39,18.38,14.25,28.9,18.74c8.47-3.15,10.47-12.11,16.15-17.78c14-12.71,29.12-21.87,49.12-16.83
			C993.91,819.58,967.7,867.97,965.1,913.65z"/>
		<path class="st8" d="M185.26,716.39c-2.55-36.07-5.38-72.18,12-106c12.71-12.23,28.76-13.53,45.07-13.92
			c22.75,2.82,37.84-8.44,49.03-26.91c13.4-11.92,27.89-27.74,46.1-12.59c17.54,14.6,14.1,36.25,4.93,54.4
			c-17.87,35.37-44.94,64.26-70.7,93.89c-3.6,9.61-22.98,3.16-19.6,19.79c11.44,23.84,34.79,38.93,44.84,63.42
			c-10.82,23.58-35.02,17.24-53.4,24.03c-5.15,0.85-10.32,0.88-15.5,0.28c-34.43-9.07-30.76-44.42-46.09-66.74
			c-1.8-4.92-2.16-9.99-1.36-15.14C181.23,725.79,182.8,720.95,185.26,716.39z"/>
		<path class="st9" d="M745.94,999.69c-1.94,6.9-3.89,13.79-5.88,20.7c-13.27,14.41-25.78,29.56-39.95,42.94
			c-9.8,9.26-21.23,29.47-32.23,21.67c-11.42-8.1-7.91-29.26,1.93-43.83c25.87,1.97,20.68-20.55,26.57-34.04
			c48.18-110.3,66.19-229.14,97.31-344.27c9.05-4.82,17.25-3.96,24.46,3.65c11.85,19.02,9.58,39.82,7.68,60.57
			c-20.5,74.01-36.95,149.23-62.61,221.79C761.02,966.99,754.45,983.67,745.94,999.69z"/>
		<path class="st10" d="M671.02,999.43c0.62,7.49,1.25,14.98,1.87,22.47c-1.91,0.86-3.82,1.72-5.72,2.58
			c-26-28.02-55.61,6.8-82.56-4.74c5.3-45.91-37.93-25.44-55.6-40.08c-4.78-3.96-13.32-3.37-20.14-4.87
			c4.9-4.58,9.08-10.63,14.83-13.5c41.04-20.41,82.4-40.18,123.65-60.15c29.46-2.47,24.75,19.11,23.17,35.52
			C668.48,957.76,664,978.53,671.02,999.43z"/>
		<path class="st5" d="M520.59,27.79c18.9,13.79,37.8,27.58,56.71,41.37c-38.44,34.37-88.2,38.71-135.04,50.96
			c-30.7-11.69-73.98,17.5-94.05-28.8c29.66-30.04,69.99-33.93,107.94-42c17-3.62,31.83-4.93,35-25.35
			C500.97,25.23,510.78,26.51,520.59,27.79z"/>
		<path class="st11" d="M335.81,1021.55c4.14-10.76,8.28-21.53,12.42-32.29c38.12-1.36,74.38,17.13,114.89,2.66
			c26.32-9.4,32.32,19.63,36.7,40.84c-42.55,14.03-86.23,20.95-131.02,20.75C347.7,1053.41,327.16,1052.46,335.81,1021.55z"/>
		<path class="st12" d="M210.01,559.23c-22.42-28.09-40.58-61.28-81.02-67.88c-4.43-6.98-5.06-14.47-3.04-22.32
			c25.73-36.84,47.01-80.2,104.08-71.7c10.4,7.72,16.24,18.56,20.69,30.35c1.94,4.44,3.48,9.04,4.93,13.66
			c1.52,4.58,2.27,9.33,2.56,14.14c-0.52,7.36-2.71,13.84-9.69,17.65c-11.37,1.72-28.29-2.93-21.79,19.2
			c1.74,6.74,2.83,13.51,3.35,20.4c0.65,12.11,0.47,24.12-3.4,35.79c-2.04,4.58-5.17,8.26-9.3,11.08
			C214.92,559.48,212.47,559.36,210.01,559.23z"/>
		<path class="st13" d="M141.81,956.35c-6.86,3.85-13.73,7.7-20.59,11.55c-46.27,21.95-58.95,71-86.92,107.71
			c-7.1,1.01-14.2,2.02-21.29,3.06c0,0.03-0.15-3.29-0.15-3.29c-10.64-55.39,12.94-98.35,50.95-134.94
			c12.57-12.1,27.98-21.17,35.33-38.01l0.08-0.03c9.89-5.04,16.94-13.07,23.16-21.98c13.43-14.07,26.87-28.15,40.3-42.22
			c14.12,10.39,13.31,25.05,11.6,40.01C167.85,906.04,161.26,933.88,141.81,956.35z"/>
		<path class="st6" d="M965.1,913.65c-12.21-21.29-14.02-42.92-5.44-66.43c8.77-24.04-2.94-44.25-16.24-63.39
			c-2.59-2.47-3.79-5.19-3.6-8.16c0.2-3.09,0.64-4.63,1.3-4.65c6.46-7.72,14.94-12.21,24.36-15.24c7.42-1.52,14.46-1.11,20.42,4.3
			c-11.82,41.08,46.23,42.66,44.24,78.2C1021.28,874.45,991.24,892.37,965.1,913.65z"/>
		<path class="st13" d="M879,242.44c33.41-2.83,25.74-46.97,54.68-54.32c3.51-0.04,7.01,0.04,10.51,0.22
			c-0.23,20.97,13.88,36.45,20.96,54.62c-5.75,28.39,16.42,70.83-37.65,74.97c-5.25-0.65-10.24-2.27-14.88-4.85
			c-9.12-6.55-4.56-19.81-13.01-26.75l0.2,0.15c-3.29-4.06-6.97-7.72-11.02-11.02l0.18,0.27c-5.93-6.18-3.88-16.37-11.03-21.94
			l0.17,0.34c-2.82-2.83-3.62-5.5-2.42-8.02C876.85,243.67,877.96,242.44,879,242.44z"/>
		<path class="st4" d="M99.14,902.42c2.65,15.05,0.52,29.55-13.07,37.83c-50.91,30.99-63.6,82.1-73.21,135.13
			C-13.83,1008.58,15.63,949.53,99.14,902.42z"/>
		<path class="st5" d="M162.67,882.02c0-14.62,0.01-29.23,0.01-43.83c5.64-37.81-5.77-78.11,16.52-113.5
			c2.32,1.74,4.9,2.93,7.73,3.57c0.48,3.94,0.95,7.89,1.43,11.83c8.48,24.81,13.93,50.44,20.47,75.81
			c-4.07,28.98-6.59,58.31-18.33,85.68c-7.17,6.95-15.48,7.96-24.61,4.71C158.17,899.08,158.65,890.78,162.67,882.02z"/>
		<path class="st9" d="M129.69,470.4c-0.22,6.98-0.44,13.96-0.68,20.95c-5.09,9.35-10.71,21.85-21.59,20.56
			c-10.33-1.23-6.75-14.46-6.78-22.63c-0.14-31.74,0.43-63.47,0.74-95.21c16.79,18.31-1.04,46.6,18.49,64.12
			C126.38,459.66,129.68,463.71,129.69,470.4z"/>
		<path class="st11" d="M210.01,559.23c2.33-1.66,4.77-3.15,7.32-4.47c15.05,16.22,32.06,31.19,35.04,55.09
			c-18.37,0.18-36.74,0.37-55.1,0.55C201.51,593.34,205.76,576.28,210.01,559.23z"/>
		<path class="st4" d="M122.38,880.41c-1,14.4-6.92,23.62-23.16,21.98C103.32,891.25,111.55,884.46,122.38,880.41z"/>
		<path class="st14" d="M186.93,728.25c-2.98-0.27-5.56-1.43-7.74-3.53c2.03-2.8,4.04-5.56,6.06-8.32
			C185.82,720.34,186.38,724.3,186.93,728.25z"/>
		<path class="st9" d="M667.16,1024.48c1.77-1.17,3.67-2.04,5.72-2.58c-0.64,4.12-1.28,8.24-1.93,12.36
			C669.69,1031,668.43,1027.74,667.16,1024.48z"/>
		<path class="st5" d="M491.17,24.87c-4.32-2.34-8.63-4.69-12.95-7.03C482.54,20.18,486.85,22.53,491.17,24.87z"/>
		<path class="st9" d="M781.53,262.74c13.88,18.32,27.76,36.64,41.64,54.95c16.94,13.24,29.04,30.48,40.32,48.43
			c9.37,16.05,23.28,29.97,23.95,50.16c12.52,17.96,25.04,35.92,37.55,53.88c-14.7,15.14-34.64,15.29-49.53,6.99
			c-67.28-37.51-134.85-31.5-203.56-6.63c-5.54-0.28-10.88-1.55-16.03-3.61c-10.25-4.91-16.29-14.01-22.62-22.84
			c-4.85-6.49-9.14-13.35-12.79-20.61c-4.59-12.78-11.65-25.9,4.01-36.46c34.95-12.41,70.94-5.96,106.62-5.71
			c47.38,0.33,54.63-8.12,44.64-53.09C770.71,305.58,761.12,282.94,781.53,262.74z"/>
		<path class="st15" d="M966,764.06c-6.82,3.38-13.63,6.76-20.45,10.14c-10.37,5.51-21.03,8.31-32.5,3.48
			c-7.25-5.05-10.19-12.37-10.89-20.82c12.5-44.98,48.53-72.13,79.16-103.28c20.23-20.57-8.88-6.98-9.11-13.23
			c-17.75-5.34-37.4-4.39-52.68-17.02c-4.83-7.93-5.29-16.25-2.34-24.93c4.6-8.15,11.16-13.91,20.14-16.77
			c23.27,4.13,47.61-4.08,70.37,6.01c4.07,1.63,8.14,3.26,12.21,4.89c18.18,18.99,46.55,13.45,66.73,27.7
			c2.12,4.91,1.6,9.53-1.51,13.87c-29.73,35.26-59.45,70.51-89.18,105.77C987.34,749.63,971.68,750.67,966,764.06z"/>
		<path class="st16" d="M662.62,458.43c78.34-34.04,154.79-30.38,230.26,9.78c8.6,4.58,21.28,1.49,32.09,1.95
			c26.73,10.08,34.81,23.3,7.21,42.54c-7.18,7.49-13.55,16.01-23.99,19.48c-37.36,6.95-73.13-7.9-110.04-8.44
			c-10.68-0.16-23.71-5.6-26.41-15.29c-14.32-51.39-46.6-25.16-74.51-18.63c-8.3,0.84-16.22-0.4-23.77-4.04
			C664.54,478.77,655.19,471.89,662.62,458.43z"/>
		<path class="st17" d="M887.44,416.28c-17.52-9.61-24.86-26.81-32.57-43.72c27.97-13.54,48.81-33.22,55.86-64.78
			c59.92,13.45,32.01-46.79,54.42-64.82c14.24,30.72,20.17,62.56,12.44,96.08c-4.17,18.08-2.03,46.73-32.7,16.84
			c-14.47-14.1-11.7,2.85-9.81,8.79C949.63,410.39,922.66,416.96,887.44,416.28z"/>
		<path class="st7" d="M1007.7,587.65c-24.92,0.77-49.84,1.53-74.76,2.3c-5.94-4.92-6.83-11.14-4.73-18.15
			c1.57-1.63,3.14-3.26,4.71-4.89c53.48,13.63,53.48,13.63,53.44-75.12l0.31-0.26C1004.35,521.23,1009.69,553.64,1007.7,587.65z"/>
		<path class="st8" d="M1082.07,619.14c-25.52,2.35-54.46,12.7-62.15-26.6c21.29,2.38,42.58,4.77,63.87,7.15
			C1090.23,606.79,1089.92,613.3,1082.07,619.14z"/>
		<path class="st7" d="M908.5,523.71c5.64-8.52,14.3-10.54,23.68-11c0.24,18.07,0.49,36.13,0.74,54.2c0.01-0.01-0.91,0.76-0.91,0.76
			C904.75,563.4,905.82,543.98,908.5,523.71z"/>
		<path class="st1" d="M966,764.06c-1.56-22.36,13.86-23.7,29.96-24.19c-3.35,6.74-6.69,13.48-10.04,20.22
			C979.28,761.41,972.64,762.74,966,764.06z"/>
		<path class="st1" d="M1082.07,619.14c0.58-6.48,1.15-12.97,1.73-19.45c6.07,1.88,16.67,2.68,17.42,5.82
			c3.13,13.19-5.46,21.93-16.09,28.59C1084.11,629.12,1083.09,624.13,1082.07,619.14z"/>
		<path class="st7" d="M975.77,448.35c15.77,11.33,9.43,28.24,10.91,43.17c0,0-0.31,0.26-0.31,0.26
			c-15.65-11.44-9.26-28.35-10.75-43.31L975.77,448.35z"/>
		<path class="st7" d="M975.63,448.47c-7.9-4.87-11.42-11.63-8.44-20.8c0.4-1.23,2.67-1.84,4.07-2.74
			c1.5,7.81,3.01,15.61,4.51,23.42C975.77,448.35,975.63,448.47,975.63,448.47z"/>
		<path class="st14" d="M197.16,812.66c-2.94-24.19-5.87-48.38-8.8-72.57c28.96,13.21,9.67,58,44.24,67.55
			c5.57,5.73,11.62,10.96,17.42,16.49c8.59,6.83,15.88,14.67,20.21,24.93c15.12,24.1,40.69,28.49,64.41,27.02
			c17.39-1.08-2.27-10.59-1.59-16.78c-2.83-7.39-2.53-14.51,1.08-21.47c5.51-5.7,12.42-7.61,20.06-7.47
			c19.47,1.58,39.08,17.11,58.4-0.65c42.03-46.28,85.94-90.47,141.32-120.74c26.44-14.45,17.19-35.24,13.15-55.82
			c-0.14-8.51,2.18-16.14,7.8-22.7c4.47-3.76,9.52-6.24,15.17-7.61c63.38,11.06,78.51,35.2,59.65,94.91
			c-9.03,14.4-21.69,24.79-36.58,32.62c-42.22,22.46-75.16,53.42-89.47,100.52c-14.11,46.41-52.12,69.97-88.88,94.91
			c-59.12,37.37-121.5,15.49-182.97,10.05c-33.23-16.13-16.3-53.8-33.09-76.99C196.41,861.71,207.98,833.55,197.16,812.66z"/>
		<path class="st18" d="M434.75,945.82c60.54-46.57,75.04-126.62,129.28-177.76c12.85-12.12,23.34-28.3,44.35-27.19
			c14.23,21.79-3.16,36.66-12.54,52.38c-22.63,37.92-51.1,71.95-74.72,109.26C498.89,930.04,470.05,944.37,434.75,945.82z"/>
		<path class="st18" d="M640.18,718.58c14.89-57.58,4.42-74.24-54.47-86.63c-2.52-4.13-3.3-8.57-2.42-13.34
			c2.44-9.4,6.78-17.81,13.11-25.21c7.03-7.4,15.41-12.07,25.79-12.65c35.47,7.68,51.44,43.85,83.26,56.92
			c7.88,7.77,5.76,17.45,5.09,26.81c-0.08,4.46-0.99,8.81-2.68,12.94c-4.64,7.46-5.98,15.84-6.23,24.51
			c-1.06,6.49-2.56,12.72-10.32,14.4c-6.17,0.82-12.35,1.65-18.52,2.47C661.87,726.46,650.98,728.72,640.18,718.58z"/>
		<path class="st15" d="M640.18,718.58c10.87,0.08,21.74,0.15,32.62,0.23c-42.19,68.14-93.37,128.86-151.68,183.71
			c3.17-43.85,41.14-68.98,57.12-105.98c8.38-19.41,28.26-32.67,30.14-55.67C618.98,733.44,629.58,726.01,640.18,718.58z"/>
		<path class="st19" d="M691.32,716.34c0.72-6.46,1.44-12.91,2.16-19.37c3.45-2.71,7.29-3.71,11.61-2.74
			c7.31,5.9,3.59,15.99,8.63,22.76c1.61,15.76,5.02,31.82-7.73,45.12c-10.06,17.67-7.78,38.32-13.76,56.98
			c-4.39,9.35-2.4,19.86-5.32,29.48c-10.03,12.97-11.5,35.45-35.96,32.4c-15.61-34.06,11.27-59.59,18.93-88.7
			C676.54,766.92,693.29,744.33,691.32,716.34z"/>
		<path class="st20" d="M650.95,880.97c15-6.09,7.34-31.94,28.49-32.66c4.12-4.24,8.5-4.51,13.12-0.82
			c-7.18,50.65-14.36,101.29-21.54,151.94c-25.27-28.58,9.33-71.53-23.64-98.27C648.55,894.42,649.75,887.7,650.95,880.97z"/>
		<path class="st21" d="M129.69,470.4c-3.27-4.07-6.54-8.14-9.81-12.21c0.92-6.54,1.84-13.07,2.77-19.6
			c30.71-104.81,123.62-145.01,205.28-196.59c8.86-5.6,20.88-4.87,27.79,7c11.01,27.95,7.73,56.68,4.84,85.37
			c-1.19,5.53-3.37,10.71-6.32,15.53c-37.79,26.24-82.65,36.48-124.22,54.23C179.24,399.98,163.45,448.79,129.69,470.4z"/>
		<path class="st9" d="M351.99,242.31c-90.7,48.78-174.92,105.13-229.35,196.27c-3.91-41.89,5.91-81.65,18.8-120.93
			c66.09-33.12,107.09-101.77,179.73-126.18c17.13-5.76,32.09-17.06,50.34-4.79C381.2,210.91,378.92,230.94,351.99,242.31z"/>
		<path class="st22" d="M371.28,188.23c-53.75,17.55-104.77,39.27-143.78,82.98c-22.68,25.42-46.64,50.86-86.04,46.45
			c-1.66-39.71,19.72-68.84,44.33-96.47c49.61-23.59,98.04-48.93,143.48-80.34c23.41-16.19,51.15-26.03,80.6-11.4
			C422.64,165.83,401.81,180.21,371.28,188.23z"/>
		<path class="st23" d="M413.38,134.81c-41.74-4.51-76.42,11.37-107.68,37.2c-34.86,28.82-72.06,51.99-119.91,49.17
			c34.37-68,97.08-100.58,162.42-129.86c27.93,27.42,69.33-5.2,97.34,21.84C446.16,137.22,431.79,139.02,413.38,134.81z"/>
		<path class="st16" d="M674.94,145.5c2.99,0.16,5.97,0.44,8.94,0.85c3.85,6.79,7.69,13.57,11.53,20.35
			c2.82,4.33,4.11,9.1,4.08,14.26c-2.06,7.83-7.23,13.07-14.03,16.97c-28.1,10.95-51.46,28-68.21,53.48
			c-3.09,3.86-6.69,7.19-10.6,10.18c-25.21,13.93-50.74,27.36-75.31,42.53c-13.42,5.29-27.96,6.94-41.18,12.92
			c-18.22,7.44-35.43,17.13-53.92,23.96c-27.22,3.88-46.15,35.66-78.19,23.35c-6.12-6.84-4.21-14.7-2.9-22.49
			c2.5-4.73,5.62-9.01,9.28-12.9c75.89-81.52,171.3-133.82,270.37-180.75C648.14,141.87,660.79,135.33,674.94,145.5z"/>
		<path class="st5" d="M689.53,189.44c3.76-0.92,5.62-3.34,5.57-7.23c1.38-6,5.09-7.85,10.84-6.1c7.38,6.88,14.76,13.76,22.14,20.65
			c24.29,48.3,12.83,101.06,18.33,151.67c1.98,18.18-9.1,31.85-29.49,27.71c-36.23-7.36-74.61-3.5-108.99-20.61
			c-15.19-15.96-15.51-35.86-14.94-56.03c-0.29-17,3.1-32.75,15.85-45.19l-0.37,0.5C635.28,232.77,659.99,208.12,689.53,189.44z"/>
		<path class="st23" d="M609.31,350.67c17.88,0.14,37.72-4.76,53.31,1.29c72.67,28.17,75.12-7.6,65.2-64.2
			c-5.15-29.41-0.16-60.59,0.25-90.99c17.39,11.98,39.37,19.64,42.44,45.1c2.99,4.12,6.36,7.96,8.9,12.4
			c1.09,2.74,1.8,5.57,2.13,8.48c-2,25.34,1.96,48.88,12.46,72.87c16.66,38.07-6.19,70.1-45.93,63.1
			c-42.97-7.57-85.75-0.71-128.39-4.99c-8.86-1.07-14.82-5.95-18.43-13.96C598.32,368.53,598.75,358.19,609.31,350.67z"/>
		<path class="st13" d="M910.73,307.78c11.04,53.51,4.31,61.32-55.85,64.79c-13.69-16.49-27.81-32.71-31.7-54.86
			c26.88,6.72,50.54-11.65,76.79-9.88c3.66-5.41,7.28-5.12,10.88,0.07L910.73,307.78z"/>
		<path class="st17" d="M857.12,220.79c8.6,4.36,11.15,12.04,11.5,20.93l-1.85,2.11c-8.43-4.95-10.78-12.86-10.74-21.96
			L857.12,220.79z"/>
		<path class="st17" d="M877.94,253.79c9.41,4.43,11.1,12.74,11.03,21.94C880.11,271.02,878.02,262.91,877.94,253.79z"/>
		<path class="st17" d="M910.84,307.89c-3.63-0.02-7.25-0.05-10.88-0.07c-0.12-7.16-0.24-14.32-0.36-21.49
			C909.06,290.55,910.76,298.8,910.84,307.89z"/>
		<path class="st13" d="M791.85,156.36c1.47,1.51,2.94,3.02,4.41,4.53c-0.95-0.24-2.25-0.18-2.77-0.79
			c-0.85-0.98-1.19-2.41-1.75-3.64C791.74,156.46,791.85,156.36,791.85,156.36z"/>
		<path class="st12" d="M705.93,176.11c-3.61,2.02-7.22,4.05-10.84,6.09c0.1-5.15,0.2-10.32,0.3-15.49
			C698.92,169.84,702.42,172.97,705.93,176.11z"/>
		<path class="st17" d="M856.04,221.87c-1.52-1.82-3.04-3.64-4.55-5.46c1.88,1.46,3.75,2.93,5.64,4.38
			C857.12,220.79,856.04,221.87,856.04,221.87z"/>
		<path class="st9" d="M779.4,254.27c-2.97-4.13-5.93-8.26-8.9-12.39C773.47,246,776.43,250.13,779.4,254.27z"/>
		<path class="st17" d="M879,242.44c-0.29,3.9-0.59,7.79-0.89,11.69c-3.77-3.44-7.55-6.88-11.33-10.31
			c-0.01,0.01,1.8-2.06,1.82-2.08C872.1,241.73,875.56,241.97,879,242.44z"/>
		<path class="st13" d="M780.93,144.61c3.6,0.34,7.21,0.69,10.81,1.03c0.08,3.58,0.12,7.15,0.1,10.73c0,0-0.11,0.1-0.11,0.1
			C788.13,152.51,784.53,148.56,780.93,144.61z"/>
		<path class="st17" d="M888.79,275.46c3.67,3.67,7.35,7.35,11.02,11.02C896.13,282.81,892.46,279.14,888.79,275.46z"/>
		<path class="st9" d="M674.94,145.5c-95.61,48.68-198.76,85-273.44,167.92c-9.31,10.34-18.23,22.58-34.14,24.24
			c-16.75-32.83,7.72-54.52,22.61-77.5c50.63-78.14,119.7-137.71,196.01-189.56C624.78,84.72,649.61,115.41,674.94,145.5z"/>
		<path class="st2" d="M585.98,70.61c1.13,29.99-25.34,35.91-43.09,49.5c-76.14,58.3-142.55,124.46-175.51,217.58
			c-2.03,1.49-4.19,2.77-6.47,3.82c-4.6,4.68-8.45,3.89-11.66-1.6c0.9-32.53,1.8-65.06,2.72-97.59
			c6.44-18.03,12.86-36.05,19.29-54.08c14.05-17.81,28.08-35.62,42.12-53.42c10.73-7.22,21.45-14.43,32.17-21.65
			c40.79-24,86.87-32.15,131.73-44.01C580.27,69.18,583.16,69.67,585.98,70.61z"/>
		<path class="st3" d="M737.38,113.41c-3.56-3.64-7.12-7.28-10.69-10.92c0,0,0.33-0.33,0.33-0.33c3.64,3.56,7.28,7.12,10.93,10.67
			C737.96,112.83,737.38,113.41,737.38,113.41z"/>
		<path class="st3" d="M726.7,102.49c-1.53-0.9-3.05-1.79-4.58-2.69c1.64,0.79,3.27,1.57,4.91,2.36
			C727.03,102.16,726.7,102.49,726.7,102.49z"/>
		<path class="st3" d="M694.41,80.73c1.53,0.83,3.07,1.67,4.6,2.5c-1.52-0.84-3.04-1.69-4.56-2.53
			C694.45,80.7,694.41,80.73,694.41,80.73z"/>
		<path class="st3" d="M694.45,80.7c-1.54-0.81-3.08-1.61-4.62-2.42c1.53,0.82,3.06,1.64,4.58,2.45
			C694.41,80.73,694.45,80.7,694.45,80.7z"/>
		<path class="st24" d="M908.5,523.71c7.84,14.65,15.68,29.3,23.51,43.95c0.3,7.43,0.61,14.86,0.93,22.29
			c-3.63,3.67-7.27,7.35-10.9,11.02c-10.89,10.09-22.55,18.9-37.25,22.7c-11.26,3.81-22.72,7.1-33.69,11.73
			c-17.21,3.3-14.22,32.27-36.59,28.94c-6.95-0.49-13.89-0.97-20.82-1.47c-19.66-22.35-37.97-46.15-65.05-60.53
			c-6.83-0.73-11.43-4.76-15.08-10.16c-0.64-1.95-1.25-3.94-1.89-5.87c0-4.04,1.23-7.75,3.58-11.05c4.13-3.78,8.92-6.87,12.78-10.97
			c2.83-5.06,3.93-10.69,5.49-16.28c1.96-4,4.85-6.99,8.59-9.31c10.76-4.27,22.28-4.88,33.38-7.54
			c15.33,2.62,29.33,9.91,44.67,12.39c-18.34-3.66-34.95-15.47-54.93-11.58c-15.96,3.3-31.97,4.6-48.2,2.39
			c-14.78-4.5-25.34-13.4-29.85-28.6c-1.39-9.12,0.99-17.21,6.72-24.38c16.22-7.32,32.04-15.78,48.76-21.66
			c20.65-7.26,45.69-18.87,32.87,23.64c-6.64,22.01,9.98,27.66,27.31,29.57C838.02,516.8,873.28,520.15,908.5,523.71z"/>
		<path class="st25" d="M705.26,675.54c-0.36-10.59-0.72-21.17-1.08-31.76c-7.42-10.92-4.47-19.37,6.2-25.98
			c5.4-0.98,10.12,0.31,14.06,4.21c4.37,19.23-6.39,35.78-9.55,53.67C711.63,679.03,708.42,678.98,705.26,675.54z"/>
		<path class="st20" d="M684.78,817.81c2.45-20.32,4.89-40.65,21.2-55.7c-1.83,22.18,4.61,45.75-11.03,65.61
			C690.56,825.45,687.17,822.14,684.78,817.81z"/>
		<path class="st20" d="M705.26,675.54c3.21,0.32,6.42,0.37,9.64,0.15c-0.39,13.77-0.79,27.54-1.18,41.31
			c-3.27-7.04-6.53-14.07-9.79-21.1c-5.34-6.92-5.19-14.02-0.74-21.28L705.26,675.54z"/>
		<path class="st7" d="M684.78,817.81c3.39,3.3,6.78,6.6,10.18,9.9c-0.8,6.6-1.6,13.19-2.4,19.79c-4.34,0.27-8.69,0.54-13.07,0.81
			C681.22,838.14,683,827.98,684.78,817.81z"/>
		<path class="st20" d="M724.44,622.01l-4.86-0.49l-4.88,0.02c-8.9-10.36-7.95-20.83-0.35-31.38c4.76,4.05,9.52,8.11,14.28,12.17
			C727.24,608.9,725.84,615.46,724.44,622.01z"/>
		<path class="st0" d="M34.3,1075.6c12.29-49.36,19.11-103.13,86.92-107.71C94.3,1005.45,91.02,1062.08,34.3,1075.6z"/>
		<path class="st9" d="M197.16,812.66c14.19,19.8,21.88,41.72,21.53,66.23c-11.17,18.23-22.33,36.48-33.5,54.73
			c-8.8-10.5-7.51-20.97,0.09-31.43C183.87,871.64,189.1,841.96,197.16,812.66z"/>
		<path class="st23" d="M185.28,902.19c-0.03,10.48-0.05,20.96-0.08,31.43c-2.16,13.18-4.89,26.13-15.04,35.98
			c-2.68-7.68-5.35-15.35-8.03-23.03c-7.66-15.47-6.94-30.18,3.96-43.98C172.49,902.47,178.88,902.33,185.28,902.19z"/>
		<path class="st0" d="M166.09,902.61c-1.32,14.66-2.64,29.31-3.96,43.97c-6.77,3.26-13.54,6.52-20.31,9.77
			c3.36-25.79,8.42-51.1,20.85-74.34C163.81,888.88,164.95,895.74,166.09,902.61z"/>
		<path class="st24" d="M745.94,999.69c-16.41-15.5,5.48-28.32,3-42.84c23.66-16.57,10.55-62.93,52.45-64.72
			c21.49,0.34,38.14-5.84,44.73-29.24c4.59-16.3,20.27-15.88,30.96-11.83c19.98,7.57,4.62,21.06,0.51,30.26
			C851.33,940.03,817.77,991.34,745.94,999.69z"/>
		<path class="st16" d="M801.39,892.13c-30.54,11-13.85,60.26-52.46,64.72c22.04-76.09,44.07-152.18,66.1-228.28
			c6.45-5.42,12.93-4.36,19.44-0.12c3.02,3.85,4.73,8.2,5.02,13.1c-0.84,11.87-2.71,23.6-5.69,35.16c-1.66,4.55-4.3,8.44-7.86,11.72
			C807.79,820.64,810.97,857.89,801.39,892.13z"/>
		<path class="st26" d="M885.49,828.29c-9.53-8.18-19.06-16.36-28.59-24.54c-8.96-9.14-11.23-19.92-7.86-32.09
			c5.07-12.29,14.47-17.57,27.52-16.9c9.03,1.75,15.56,6.83,19.85,14.9c4.33,10.88,4.48,21.78-0.2,32.6
			C891.28,810.35,900.94,824.5,885.49,828.29z"/>
		<path class="st1" d="M889.97,800.19c0.16-9.84,0.32-19.69,0.48-29.53c7.22-4.62,13.94-4.06,20.1,1.99
			c11.66,0.51,23.32,1.03,34.99,1.55c-0.41,3.28-1.12,6.49-2.11,9.64c-14.87,6.85-29.73,13.69-44.6,20.54
			C892.91,809.26,889.95,807.87,889.97,800.19z"/>
		<path class="st27" d="M855.26,765.91c0.55,12.62,1.09,25.25,1.64,37.86c-13.8,1.81-24.14-3.32-30.98-15.38
			c0-5.16-0.03-10.37-0.06-15.57c2.83-3.37,6.24-5.99,10.21-7.91C842.58,763.04,849,763.15,855.26,765.91z"/>
		<path class="st10" d="M889.97,800.19c2.86,1.62,5.82,3.02,8.87,4.19c-3.48,8.59,9.95,26.49-13.34,24.05
			C886.98,818.92,888.48,809.55,889.97,800.19z"/>
		<path class="st28" d="M261.55,706.15c12.27-35.99,44-57.97,64.1-88.45c11.79-17.88,20.1-38.24,5.87-52.83
			c-14.68-15.05-25.07,12.38-39.88,14.58c-5.19,1.49-9.62,0.37-13.2-3.78c-4.1-6.62-5.93-13.92-6.5-21.61
			c-0.62-10.21,0.76-20.2,3.33-30.07c3.61-12.13,5.99-24.65,10.78-36.48c2.41-4.7,5.84-8.48,10.2-11.45
			c40.95-1.36,79.95-20.73,121.87-13.37c4.67,2.46,7.86,6.25,9.79,11.13c-0.21,19.89-16.65,29.39-27.21,42.65
			c-4.43,5.44-8.9,10.88-12.32,17.01c-3.79,16.21-1.91,26.46,17.67,15.78c10.78-5.88,18.87-16.71,32.46-17.5
			c11.95,3.65,14.34,12.95,14.2,23.8c-2.73,17.74-9.42,34.73-10,52.93c-0.23,7.22-3.29,20.08-5.87,19.44
			c-68.57-17.04-42.69,54.79-71.14,74.84c-1.47,1.03-3.07,1.88-4.59,2.91c-22.36,8.35-45.27,14.95-68.16,21.77
			c-11.47,1.93-22.44,1.22-32.14-6.1C256.94,716.07,257.2,711.01,261.55,706.15z"/>
		<path class="st1" d="M262.92,715.97c10.44,0.76,20.88,1.52,31.31,2.28c21.69,3.28,44.98-6.95,65.38,7.65
			c6.11,6.67,8.27,14.67,7.92,23.52c-2.37,15.32-11.58,25.16-25.23,31.45c-15.74,5.77-31.8,6.18-48.06,2.45
			c-32.22-10.77-47.35-36.83-59.04-65.97C244.24,712.85,253.51,712.97,262.92,715.97z"/>
		<path class="st25" d="M239.88,826.35c-8.76-3.77-8.95-10.89-7.3-18.72c2.49-0.65,4.79-1.7,6.91-3.15
			c18.97-9.85,40.6,0.25,59.79-8.01c25.88-3.88,46,5.65,61.36,26.3c2.41,5.82,1.81,11.34-1.79,16.52
			c-7.35-0.01-14.71-0.02-22.06-0.03C302.2,852.11,271.19,838.12,239.88,826.35z"/>
		<path class="st26" d="M283.57,575.61c2.58,1.52,5.27,2.79,8.08,3.83c2.44,30.23-19.72,28.67-39.3,30.41
			c-24.38-10.27-35.74-28.83-35.03-55.08c0-0.01,0.82,1.4,0.82,1.4c11.91-10.07-1-32.48,19.1-38.48c10.2-2.15,19.35-0.86,25.98,8.21
			c3.97,11.73-6.85,19.47-8,29.72c-0.2,5.61,1.41,10.45,6.33,13.78C268.7,572.45,276.68,572.16,283.57,575.61z"/>
		<path class="st18" d="M305.06,805.33c-21.85-0.28-43.71-0.56-65.57-0.85c13.12-20.32,42.03,0.2,54.75-21.16
			c11.95-14.99,28.42-8.87,43.49-9.3C343.08,801.4,316.65,795.63,305.06,805.33z"/>
		<path class="st18" d="M262.92,715.97c-9.22,0.48-18.45,0.95-27.7,1.41c2.36-18.84,18.1-6.16,26.33-11.21
			C261.91,709.44,262.37,712.71,262.92,715.97z"/>
		<path class="st12" d="M833.55,729.33c-6.18-0.25-12.36-0.49-18.53-0.75c-0.17-21.42-0.35-42.82-0.53-64.24
			c16.19-10.19,1.28-43.39,31.81-42.95c3.4,3.9,5.5,8.43,6.53,13.49c-0.6,20.14-5.5,39.94-4.9,60.21
			c-0.56,10.45-2.15,20.62-8.08,29.6C837.77,726.25,835.66,727.79,833.55,729.33z"/>
		<path class="st11" d="M293.44,481.12c-1.75,4.98-3.5,9.96-5.25,14.94c-0.24,8.5,1.42,17.81-9.35,21.84
			c-4.59-0.54-8.42-2.49-11.42-6.04c-3.59-5.82-5.56-12.22-6.88-18.86c-4.45-14.58,0.93-31.27-9.66-44.55l0,0
			c-3.88-3.93-7.74-7.87-9.12-13.49c-3.91-10.27-7.83-20.54-11.74-30.82c30.2-36.95,75.48-41.19,116.85-53.91
			c7.15,0.87,8.22,7.45,11.37,12.09c25.45-10.59,50.89-21.18,76.34-31.78c6.52,5.67,8.29,12.97,7.34,21.22
			C398.34,401.63,337.55,431.81,293.44,481.12z"/>
		<path class="st27" d="M273.52,509.72c2.59,3.19,5.19,6.39,7.78,9.58c0,0,2.36,4.29,2.36,4.29c-0.54,11.38-1.09,22.77-1.63,34.15
			c-6.91,12.04-16.13,20.54-31.07,20.27c-9.81-6.21-8.05-15.18-5.8-24.28c4.82-6.37,10.03-12.39,16.08-17.64
			c-2.34-13.56-13.9-13.22-23.61-15.66c-6.72-0.79-13.63-1.06-18.38-7.01c0.06-7.4,0.12-14.8,0.19-22.2
			c6.77-7.96,15.63-8.63,25.1-7.26c4.41,1.17,8.46,3.16,12.16,5.84C263.57,495.34,264.81,505.67,273.52,509.72z"/>
		<path class="st1" d="M250.83,492.06c-10.47-0.27-20.95-0.55-31.41-0.83c-13.03-11.16-16.77-28.86-4.64-37.05
			c13.54-9.14,22.79,12.99,36,17.37C257,478.37,256.44,485.21,250.83,492.06z"/>
		<path class="st21" d="M250.83,492.06c-0.02-6.84-0.03-13.69-0.04-20.52c0.03-7.69,0.06-15.39,0.09-23.09
			c14.44,12.69,22.59,28.37,22.82,47.84c-8.4,1.9-16.33,1.36-23.19-4.56L250.83,492.06z"/>
		<path class="st14" d="M219.24,513.43c6.12,2.36,12.23,4.72,18.36,7.04c-6.48,11.88-12.97,23.8-19.46,35.71
			C218.51,541.92,218.88,527.68,219.24,513.43z"/>
		<path class="st21" d="M241.75,434.95c3.04,4.5,6.08,8.99,9.12,13.49C247.83,443.95,244.79,439.45,241.75,434.95z"/>
		<path class="st19" d="M644.49,437.16c2.29,5.46,4.59,10.93,6.88,16.39c9.61,20.82-7.47,26.4-19.74,34.76
			c-22.81,8.33-45.96,8.6-69.28,2.44c-26.15-24.41-58.91-5.81-87.75-13.22c-4.86-2.4-8.2-6.19-10.29-11.15
			c5.69-29.73,32.97-30.19,53.62-39.7c14.68-4.67,29.27-9.84,44.76-11.45c10.09-0.9,20.02,0.09,29.75,2.85
			c13.27,4.23,24.89,12.92,39.09,14.83C635.93,434.09,640.25,435.51,644.49,437.16z"/>
		<path class="st21" d="M608.71,382.69c3.64,3.69,7.29,7.37,10.94,11.05c3.99,10.39,7.98,20.79,11.97,31.19
			c-2.1,1.62-4.19,3.24-6.29,4.86c-11.49-1.35-20.19-6.54-24.56-17.76C598.09,400.82,598.73,390.48,608.71,382.69z"/>
		<path class="st12" d="M629.94,479.32c7.14-8.59,14.29-17.17,21.43-25.76c3.75,1.63,7.49,3.26,11.24,4.88
			c3.68,7.18,7.35,14.37,11.03,21.55c-1.55,1.87-3.1,3.75-4.65,5.64c-8.98,5.29-18.49,5.75-28.35,3.1
			C636.03,486.8,632.42,483.7,629.94,479.32z"/>
		<path class="st21" d="M644.49,437.16c-4.69,0.14-9.37,0.27-14.06,0.41c-2.98-1.72-4.26-3.76-3.84-6.14
			c0.44-2.54,1.08-3.82,1.9-3.82c0,0,3.09-2.64,3.11-2.66C635.91,429.01,640.2,433.08,644.49,437.16z"/>
		<path class="st1" d="M837.96,696.38c-4.61-21.82-4.54-42.83,10.74-61.16c9.19-13.52,23.18-9.98,36.09-10.24
			c29.08,18.09,59.66,17.8,91.08,7.18c11.67,1.7,28.04-5.67,33.79,6.4c4.69,9.84-9.46,16.88-17.75,23.11
			c-32.56,24.47-54.04,59.07-81.15,88.51c-12.48,9.37-22.17,1.17-32.22-5.06c-3.27-3.59-5.66-7.71-7.47-12.16
			C865.39,715.92,847.24,710.14,837.96,696.38z"/>
		<path class="st25" d="M975.86,632.17c-28.73,35.15-57.62,34.8-86.69,0.42c-4.12-5.18-3.74-10.01,1.14-14.48
			c10.98-3.94,21.78-6.05,31.43,3.19C940.05,623.62,960.5,615.21,975.86,632.17z"/>
		<path class="st18" d="M878.67,741.66c10.7,2.85,21.39,5.69,32.09,8.53c-0.07,7.48-0.13,14.97-0.2,22.46
			c-6.7-0.66-13.4-1.31-20.1-1.98c-3.69-3.71-7.39-7.4-11.08-11.09C871.94,753.89,873.47,747.85,878.67,741.66z"/>
		<path class="st1" d="M921.75,621.3c-11.18,0.32-22.35,0.64-33.53,0.96c-10.07,1.99-13.25-1.55-8.95-11.12
			c14.25-3.39,28.51-6.78,42.77-10.17C921.94,607.75,921.84,614.52,921.75,621.3z"/>
		<path class="st12" d="M693.89,481.38c-0.06,8.43-0.12,16.85-0.17,25.28c-6.71,3.65-13.4,3.18-20.09-0.1
			c-5.8-4.95-7.92-11.37-7.47-18.81c2.49-2.58,4.98-5.16,7.48-7.75C680.39,480.45,687.14,480.91,693.89,481.38z"/>
		<path class="st28" d="M305.06,805.33c10.89-10.44,21.78-20.89,32.67-31.32c7.19-7.63,14.38-15.27,21.57-22.92
			c39.55-28.6,87.67-37.11,132.21-52.67c27.64-9.66,46.44-22.85,60.31-46.58c8.14-4.26,15.99-4.31,23.44,1.55
			c11.97,19.04,33.12,39.33,1.05,57.54c-56.39,32-107.61,69.45-146.56,122.27c-3.39,4.6-13.17,4.5-19.98,6.59
			c-20.17,9.45-37.11,5.22-50.98-12.03C340.88,820.29,322.97,812.81,305.06,805.33z"/>
		<path class="st1" d="M336.21,856.43c13.27,7.4,40.47,7.7,36.51,23.65c-5,20.13-32.81,13.55-46.79,8.73
			c-23.7-8.18-65.95,6.55-63.8-41.89c5.83-5,12.67-6.12,20.04-5.32c11.52,2.24,23.01,4.77,34.59,6.86
			C323.86,849.6,330.28,852.43,336.21,856.43z"/>
		<path class="st8" d="M282.03,849.57c-6.64-0.88-13.28-1.77-19.92-2.66c-7.41-6.86-14.82-13.71-22.23-20.56
			c33.31-3.24,65.43,2.44,96.9,12.91c-0.19,5.73-0.38,11.46-0.57,17.17c-6.77-0.23-13.54-0.44-20.31-0.66
			C304.93,852,292.42,856.54,282.03,849.57z"/>
		<path class="st1" d="M358.79,827.76c17.01,4,34.02,8,51,12.01c-17.4,40.61-33.96-1.72-50.94-0.48
			C358.83,835.46,358.81,831.61,358.79,827.76z"/>
		<path class="st15" d="M575.26,653.4c-7.33,0.5-14.67,1.01-22,1.51c-5.79,5.13-12.27,5.7-19.24,2.91
			c-3.62-3.15-5.46-7.1-5.28-11.94c1.92-4.23,4.92-7.5,8.94-9.85c8.12-3.83,16.73-6.12,25.61-7.46c2.19,0.01,4.4,0.1,6.61,0.15
			c1.95,1.01,3.89,2.06,5.84,3.1C575.57,639.01,575.42,646.21,575.26,653.4z"/>
		<path class="st25" d="M585.29,620.61c0.14,3.78,0.29,7.56,0.43,11.34c0,0-5,0.23-5,0.23s-4.99-0.35-4.99-0.36
			c0,0,0.29,0.2,0.29,0.2c-2.73-1.88-4.02-4.1-3.89-6.67c0.14-2.74,0.57-4.11,1.27-4.12c1.93-0.93,3.88-1.86,5.81-2.8
			C581.23,619.17,583.26,619.89,585.29,620.61z"/>
		<path class="st15" d="M714.35,590.17c0.12,10.46,0.24,20.92,0.36,31.38c-3.51,7.41-7.01,14.81-10.52,22.23
			c-39.74-0.91-53.39-42.54-85.78-54.92c-3.77-3.86-6.24-8.45-7.63-13.66c-0.84-21.2,10.05-34.73,28.4-43.34
			c32.3,9.8,49.16,38.89,73.32,58.9L714.35,590.17z"/>
		<path class="st15" d="M703.19,674.62c0.25,7.1,0.5,14.2,0.75,21.29c-3.44,0.85-6.92,1.2-10.45,1.07
			C678.28,681.51,690.26,677.86,703.19,674.62z"/>
		<path class="st25" d="M615.55,574.57c0.96,4.76,1.91,9.52,2.87,14.28c-6.44,4.25-12.88,8.5-19.32,12.75
			c-1.86-1.09-3.71-2.17-5.58-3.26c-3.27-6.08-3.41-12.3-0.83-18.66c2.61-3.62,6.07-6.08,10.32-7.42
			C607.42,571.73,611.6,572.51,615.55,574.57z"/>
		<path class="st25" d="M599.09,601.6c-1.11,8.86-2.93,17.22-13.79,19.02c-1.45-1.39-2.89-2.75-4.34-4.11
			c-1.92-6.58-0.85-12.63,3.25-18.13c3.93-2.43,7.81-2.32,11.62,0.32L599.09,601.6z"/>
		<path class="st22" d="M358.23,362.31c-3.78-4.03-7.56-8.05-11.36-12.08c0.29-3.56,1.08-6.99,2.37-10.32
			c3.88,0.53,7.76,1.06,11.66,1.59C360.02,348.44,359.12,355.37,358.23,362.31z"/>
		<path class="st1" d="M596.97,426.92c-11.03-0.62-22.07-1.24-33.1-1.86c-28.98-38.9-59.47-75.19-115.78-66.63
			c-5.02-0.96-9.45-3.14-13.19-6.67c-0.11-7.08-0.23-14.16-0.34-21.23c16.73-10.64,33.58-21,54.01-22.94
			c60.38-3.45,80.8,45.81,110.1,83.38c3.9,7.05,3.61,14.79,3.71,22.47C602.77,418.8,600.96,423.3,596.97,426.92z"/>
		<path class="st25" d="M595.91,394.9c-38.64-25.58-57.44-75.54-107.32-87.32c11.66-14.64,28.97-9.9,44.04-12.84
			c7.96-3.39,15.95-5.01,24.11-0.57C584.15,322.15,609.29,351.04,595.91,394.9z"/>
		<path class="st12" d="M689.53,189.44c-21.97,28.04-34.1,68.3-81.06,65.37C618.05,211.42,648.96,194.45,689.53,189.44z"/>
		<path class="st12" d="M552.7,298.46c-6.69-1.23-13.38-2.46-20.07-3.7c19.54-24.54,46.57-34.95,76.21-40.45
			c10.87,16.28-4.62,29.09-5.77,43.79C586.38,312.78,569.57,309.41,552.7,298.46z"/>
		<path class="st10" d="M552.7,298.46c16.8-0.13,33.59-0.27,50.38-0.38c2.07,17.55,4.15,35.07,6.23,52.59
			c-0.2,10.67-0.4,21.35-0.6,32.02c0.07,10.14,0.13,20.29,0.19,30.44c-3.09,5.5-7.01,5.9-11.63,1.87c-0.44-6.7-0.89-13.4-1.34-20.1
			C597.28,355.69,565.23,331.45,552.7,298.46z"/>
		<path class="st25" d="M712.5,590.76c-37.87-0.07-49.79-33.75-71.28-55.03c-3.86-4.9-3.89-9.82-0.1-14.77
			c9.52-7.05,20.13-8.02,31.35-5.65c20.94,14.62,49.06,23.97,43.6,58.35C714.89,579.35,713.7,585.05,712.5,590.76z"/>
		<path class="st23" d="M716.08,573.65c-14.36-17.28-28.72-34.55-43.07-51.83c-6.47-6.06-5.36-12.24-0.33-18.5
			c7.01,1.1,14.02,2.21,21.04,3.33c6.5,6.07,13,12.12,19.5,18.16c9.76,5.04,22.17,7.39,22.4,22.09c0.42,3.28,1.11,6.51,2.07,9.67
			c6.17,7.12,6.38,14.11-0.47,20.94C730.18,576.22,723.13,574.93,716.08,573.65z"/>
		<path class="st16" d="M768.85,524.48c31.75,3.85,63.82,6.74,91.04,26.05c1.58,1.12,0.64,8.96,0.46,8.98
			c-33.09,2.98-60.61-14.79-90.34-24.51c-2.52-2.09-3.53-4.34-3.03-6.76C767.49,525.73,768.11,524.48,768.85,524.48z"/>
		<path class="st12" d="M768.85,524.48c0.47,3.5,0.85,7,1.15,10.52c-8.21,13.36-22.23,9.9-34.38,11.89
			c-7.47-7.36-14.93-14.73-22.4-22.09C731.76,524.7,750.31,524.59,768.85,524.48z"/>
		<path class="st10" d="M879.27,611.14c2.99,3.7,5.98,7.4,8.96,11.11c0.48,3.43,0.8,6.87,0.95,10.33
			c-13.5,0.87-27.01,1.73-40.49,2.62c-0.78-4.59-1.58-9.19-2.38-13.8C857.29,617.98,868.28,614.56,879.27,611.14z"/>
		<path class="st9" d="M737.22,577.51c0.16-6.98,0.31-13.96,0.47-20.94C747.8,563.78,753.75,570.89,737.22,577.51z"/>
		<path class="st11" d="M878.67,741.66c0.23,5.98,0.47,11.95,0.7,17.92c-8.03,2.12-16.06,4.25-24.1,6.35
			c-6.49,1.98-12.97,4-19.46,6.01c-8.99-10.43-7.45-21.25-1.18-32.24c0.09-3.51-0.26-6.97-1.07-10.38c-0.01,0,2.15,0.72,2.15,0.72
			c14.09-11.72,28.24-12.76,42.47-0.25C878.34,733.75,878.5,737.71,878.67,741.66z"/>
		<path class="st25" d="M834.63,739.71c0.39,10.75,0.78,21.5,1.18,32.24c0.01-0.01-4.95,0.86-4.95,0.86s-5.03,0-5.01,0
			C824.77,760.72,823.53,748.58,834.63,739.71z"/>
		<path class="st8" d="M533.09,653.18c6.72,0.57,13.45,1.15,20.17,1.73c4.36,35.25-7.87,50.44-46.58,54.67
			c-50.53,5.52-93.85,42.44-147.38,41.52c-0.73-6.57-1.46-13.14-2.19-19.71c-7.08-11.8-7.03-23.22,1.81-34.18
			c18.12-15.62,5.32-37.93,11.88-55.3c7.41-19.64,8.59-58.63,46.71-23.92c16.64,15.15,11.95,2.65,12.24-9.72
			c0.4-17.19,6.53-34.24,10.2-51.35c7.98-2.84,11.39-10.66,17.22-15.85c13.36-5.98,25.34-4.7,35.32,6.79
			c8.95,25.29,2.06,52.98,11.67,78.2c-0.59,4.99-3.21,8.54-7.76,10.62c-4.57,2.98-10.74-3-14.93,2.55
			c4.75-2.41,9.88-1.13,15.05-1.55c4.69-0.72,9.18-0.86,13.77-0.4C520.05,639.54,525.66,647.67,533.09,653.18z"/>
		<path class="st8" d="M434.91,351.76c3.13,0.2,6.27,0.27,9.4,0.21c10.28,8.23,12.42,19.38,11.54,31.67
			c-11.52,28.58-9.54,62.78-35.25,85.55c-42.9-1.49-82.65,30.49-127.16,11.93c15.71-57.82,70.66-76.01,110.71-109.16
			C413.55,364.18,424.62,358.43,434.91,351.76z"/>
		<path class="st15" d="M420.6,469.19c1.74-30.61,7.64-59.98,25.6-85.75c57.55-14.97,82.71,2.78,74.87,52.83
			c-17.8,12.54-43.26,11.08-56.94,31.14c-9.69,15.85-22.77,20.63-39.89,12.23C423.02,476.15,421.81,472.67,420.6,469.19z"/>
		<path class="st18" d="M435.48,536.67c-4.47,5.52-8.32,11.72-13.52,16.43c-12.61,11.43-24.62,33.29-43.71,20.27
			c-15.79-10.77-10.52-31.95-3.55-49.13c4.67,0.04,9.31-0.32,13.92-1.11c11.28-4.44,22.56-8.67,34.86-3.85
			C430.36,523.09,434.81,528.59,435.48,536.67z"/>
		<path class="st1" d="M435.48,536.67c-3.91-4.28-7.82-8.55-11.73-12.83c-2.59-2.25-3.81-4.76-3.64-7.55
			c0.17-2.93,0.6-4.39,1.25-4.41c4.4-5.48,10.07-9.32,16.19-12.62c4.08-2.23,8.35-3.99,12.75-5.47c11.33-3.1,22.43-7.54,34.59-6.39
			c4.8,1.81,8.31,5,10.65,9.55c3.39,10.15,2.71,19.85-3.11,29.01c-9.61,11.92-29.61,8.75-36.26,24.99
			c-5.41,1.99-10.81,3.99-16.22,5.98C443.62,549.03,445.96,541.44,435.48,536.67z"/>
		<path class="st18" d="M358.92,697.21c-0.6,11.39-1.19,22.77-1.8,34.17c-20.71-5.64-45.07,6.27-62.89-13.12
			C313.24,703.39,335.33,697.99,358.92,697.21z"/>
		<path class="st22" d="M424.23,479.63c13.32-4.06,26.63-8.12,39.92-12.21c1.63,1.63,3.59,2.75,5.86,3.33
			c1.96,4.86,1.63,9.61-0.64,14.28c-6.23,8.29-16.45,10.96-24.2,17.11l0.36-0.11c-7.67,9-21.8,2.64-29.2,12.31
			c-5.63,4.15-12.19,4.94-18.89,5.34c-4.53-1.42-7.5-4.34-8.68-8.99C400.59,500.34,412.41,489.99,424.23,479.63z"/>
		<path class="st7" d="M250.95,578.01c10.36-6.76,20.71-13.52,31.07-20.27c0.51,5.98,1.03,11.96,1.54,17.91
			C272.82,578.06,263.44,599.26,250.95,578.01z"/>
		<path class="st23" d="M283.66,523.59c0,0-2.36-4.41-2.36-4.35c2.31-7.69,4.62-15.45,6.91-23.19
			C295.2,506.64,297.3,516.41,283.66,523.59z"/>
		<path class="st22" d="M374.7,524.24c4.7-4.51,9.39-9.02,14.08-13.53c-0.01-0.01,2.96,2.89,2.96,2.89
			c2.47,10.3-1.02,14.64-11.75,11.75C378.27,524.77,376.5,524.4,374.7,524.24z"/>
		<path class="st8" d="M261.23,536.09c1.12,11.84-0.46,21.19-16.12,17.64C246.05,543.78,247.01,533.9,261.23,536.09z"/>
		<path class="st25" d="M878.18,729.8c-14.16,0.08-28.31,0.16-42.47,0.25c0.74-11.22,1.48-22.43,2.23-33.66
			C857.04,700.69,883.31,696.36,878.18,729.8z"/>
		<path class="st1" d="M250.5,491.73c7.72,1.48,15.45,2.96,23.18,4.5c-0.05,4.55-0.12,9.04-0.17,13.51
			C265.85,503.72,258.18,497.72,250.5,491.73z"/>
		<path class="st11" d="M521.07,436.27c0.17-53.21-43.31-44.58-74.87-52.83c-0.62-10.49-1.25-20.99-1.88-31.48
			c58.21-18.65,106.01,10.58,119.56,73.11C549.61,428.79,535.34,432.53,521.07,436.27z"/>
		<path class="st18" d="M629.94,479.32c3.37,0.97,6.6,2.27,9.69,3.92c14.62,16.38,1.15,28.41-6.37,41.34
			c-5.68,5.55-12.68,7.25-20.34,7c-13.82-2.73-27.69-3.4-41.62-0.03c-7.64,0.48-14.66-1.15-20.81-5.93
			c-9.59-13-14.17-27.18-10.19-43.36c3.87-4.09,8.3-5.02,13.35-2.31C579.08,479.74,604.51,479.53,629.94,479.32z"/>
		<path class="st24" d="M553.64,479.95c-3.2,0.94-6.4,1.91-9.58,2.9c-3.23,2.94-6.83,5.35-10.7,7.38
			c-8.11,3.31-16.41,6.07-24.95,8.12c-6.85,1-13.13-0.39-18.74-4.53c-3.96-0.74-7.93-1.49-11.89-2.23
			c-10.99,3.86-13.42-0.67-10.38-10.58c0.78-3.44,1.64-6.87,2.59-10.27C496.82,483.53,530.6,432.92,553.64,479.95z"/>
		<path class="st11" d="M597.26,414.99c3.87-0.61,7.75-1.22,11.63-1.85c6.54,4.81,13.08,9.63,19.61,14.46
			c0.23,3.4,0.87,6.72,1.93,9.96c-16.03,11.77-24.18-1.19-33.45-10.65C597.07,422.94,597.16,418.97,597.26,414.99z"/>
		<path class="st15" d="M628.98,523.29c3.55-13.35,7.1-26.71,10.65-40.06c8.86,1.49,17.71,2.97,26.55,4.48
			c2.15,5.21,4.33,10.4,6.5,15.59c0.11,6.19,0.22,12.37,0.33,18.53c-11.75,1.58-23.51,3.19-35.26,4.79
			C633.9,527.95,631.02,526.72,628.98,523.29z"/>
		<path class="st14" d="M282.03,849.57c11.98-1.63,23.92-3.08,33.87,6.23C303.58,859.37,291.88,859.48,282.03,849.57z"/>
		<path class="st10" d="M510.35,644.77c-2.92-1.32-5.95-2.32-9.09-2.99c-4.83-1.55-6.79-4.82-5.89-9.81l2.22-0.76
			c13.15-11.75,27.36-11.63,42.26-3.79c5.71,4.51,6.23,9.58,1.56,15.18c-3.3,0.01-6.48,0.66-9.52,1.95
			C524.76,649.29,517.57,648.74,510.35,644.77z"/>
		<path class="st18" d="M541.41,642.61l1.57-4.94c-0.75-12.55,7.99-10.19,15.46-9.85c2.12,1.53,4.23,3.06,6.35,4.59
			C559.95,642.59,550.88,643.05,541.41,642.61z"/>
		<path class="st14" d="M510.35,644.77c7.18-0.07,14.36-0.14,21.54-0.2c0.11,2.92,0.5,5.79,1.19,8.62
			C524.08,654.24,515.97,652.89,510.35,644.77z"/>
		<path class="st18" d="M579.38,617.52c-1.13,4.84-2.25,9.68-3.37,14.51c-3.74,0.12-7.49,0.25-11.23,0.38c0,0-1.47-1.68-1.47-1.68
			C563.96,620.62,570.16,617.24,579.38,617.52z"/>
		<path class="st26" d="M579.38,617.52c-5.35,4.41-10.71,8.82-16.06,13.22c-6.78,2.3-13.56,4.61-20.33,6.92
			c-15.13-2.14-30.25-4.29-45.38-6.45c-19.45-27.03-20.19-54.35-1.28-81.98c3.59,2.52,7.05,5.2,10.45,7.95
			c8.83,6.17,18.9,10.57,26.47,18.44c5,3.45-2.43,14.28,8.47,14.14c2.34-4.66,4.58-9.15,7.21-13.48c6.71-7.36-0.35-14.47-0.29-21.88
			c1.54-5.01,4.22-9.01,8.19-12.36c14.78-6.29,27.61-5.77,36.44,9.74c3.98,18.79-0.78,36.34-7.45,53.62
			c-1.6,3.71-3.21,7.43-4.83,11.12C580.96,616.51,579.38,617.52,579.38,617.52z"/>
		<path class="st27" d="M588.58,549.69c-12.8,0.8-28.91-12.78-36.99,8.52c-4.2,13.16-4.7,26.38-0.7,39.69
			c-9.07,16.69-24.54,17.99-34.38,5.78c-11.29-13.99,14.42-16.41,15.06-28.72c-7.99-6.73-16.07-13.36-21.55-22.49
			c-4.56-1.06-9.11-2.11-13.68-3.2c-13.7-6.72-27-4.25-40.16,1.66c2.48-19.52,17.08-25.05,33.26-28.74
			c20.91-16.16,43.22-14,66.05-5.05c6.34,0.82,12.69,1.65,19.03,2.47c11.42,0.06,23.21-3.33,33.87,3.71
			c6.87-0.01,13.74-0.02,20.61-0.02c2.68,1.74,5.62,2.85,8.78,3.33c0.65,3.22,1.8,6.25,3.46,9.09
			c-8.55,12.97-17.11,25.93-25.67,38.87c-0.01-0.02-4.06,2.19-4.06,2.19c-8.99-2.53-12.09-10.18-15.38-17.65
			C594.05,555.63,591.53,552.49,588.58,549.69z"/>
		<path class="st14" d="M588.58,549.69c2.57-1.49,5.14-1.51,7.73-0.06c8.71,9.03,6.86,18.97,2.52,29.12c-1,6.65-2,13.3-3,19.95
			c-3.34,2.22-6.68,4.44-10.02,6.69C586.74,586.83,587.66,568.26,588.58,549.69z"/>
		<path class="st11" d="M598.83,578.76c-0.85-9.71-1.7-19.42-2.54-29.13c17.65,2.05,11.9,17.12,15.18,27.16
			C607.27,577.44,603.05,578.1,598.83,578.76z"/>
		<path class="st15" d="M495.37,631.97c1.96,3.27,3.92,6.54,5.88,9.81c-11.71,1.05-30.69,6.5-32.59-3.49
			C466.84,628.69,485.67,633.64,495.37,631.97z"/>
		<path class="st19" d="M379.99,525.35c3.92-3.92,7.83-7.84,11.75-11.76c6.14-0.32,12.28-0.65,18.42-0.97
			c4.71-3.5,9.21-3.09,13.54,0.71c-0.29,3.51-0.28,7.01,0.05,10.51C409.01,519.89,395.34,546.9,379.99,525.35z"/>
		<path class="st15" d="M555.48,517.14c-21.41,9.58-43.89,5.26-66.05,5.06c0.08-9.46,0.16-18.92,0.24-28.37
			c6.8-1.24,13.6-2.48,20.4-3.73c8.97,1.73,16.04-2.27,22.68-7.53c3.77,0.1,7.54,0.19,11.32,0.29
			C547.87,494.28,551.67,505.71,555.48,517.14z"/>
		<path class="st21" d="M467.39,481.02c3.46,3.53,6.93,7.05,10.39,10.58c-8.42,11.1-20.55,10.7-32.61,10.55
			C446.97,489.21,456.76,484.67,467.39,481.02z"/>
		<path class="st21" d="M423.7,513.33c-4.49-0.24-8.99-0.47-13.51-0.71c9.45-11.25,21.69-13.27,35.34-10.59
			C440.71,510.53,432.49,512.48,423.7,513.33z"/>
		<path class="st1" d="M608.37,523.32c-11.29-1.22-22.57-2.45-33.86-3.69C587.03,509.55,598.39,510.13,608.37,523.32z"/>
		<path class="st1" d="M532.75,482.56c-3.68,14.17-8.23,25.72-22.68,7.54C515.84,482.22,523.91,481.23,532.75,482.56z"/>
		<path class="st8" d="M510.01,552.47c23.84-8.41,20.64,9.02,21.54,22.51C510.63,580.62,501.2,575.28,510.01,552.47z"/>
		<path class="st7" d="M550.89,597.9c-10.55-13.42-10.84-26.66,0.7-39.69c2.53,1.89,3.85,4.41,3.97,7.55
			c2,4.86,2.27,9.78,0.54,14.78C554.36,586.32,552.62,592.11,550.89,597.9z"/>
		<path class="st27" d="M556.1,580.53c-0.19-4.92-0.37-9.85-0.55-14.77C562.31,570.44,563.05,575.35,556.1,580.53z"/>
	</g>
</g>
</svg>
