<?xml version="1.0" encoding="utf-8"?>
<!-- Generator: Adobe Illustrator 23.1.0, SVG Export Plug-In . SVG Version: 6.00 Build 0)  -->
<svg version="1.1" id="Calque_1" xmlns="http://www.w3.org/2000/svg" xmlns:xlink="http://www.w3.org/1999/xlink" x="0px" y="0px"
	 viewBox="0 0 1125 900.57" style="enable-background:new 0 0 1125 900.57;" xml:space="preserve">
<style type="text/css">
	.st0{fill:#0F356E;}
	.st1{fill:#1754AF;}
	.st2{fill:#F9F7B6;}
	.st3{fill:#112F56;}
	.st4{fill:#103161;}
	.st5{fill:#1550AA;}
	.st6{fill:#103B7A;}
	.st7{fill:#1D64CB;}
	.st8{fill:#AF884A;}
	.st9{fill:#BD9C60;}
	.st10{fill:#B89457;}
	.st11{fill:#A98146;}
	.st12{fill:#195BBC;}
	.st13{fill:#E8C784;}
	.st14{fill:#D7B779;}
	.st15{fill:#134CA0;}
	.st16{fill:#F9E3A0;}
	.st17{fill:#114188;}
	.st18{fill:#0A272E;}
	.st19{fill:#00C702;}
	.st20{fill:#124694;}
	.st21{fill:#02BC02;}
	.st22{fill:#07AE06;}
	.st23{fill:#F5D896;}
	.st24{fill:#9D9D9D;}
	.st25{fill:#3C3D3D;}
	.st26{fill:#166257;}
	.st27{fill:#2978DC;}
	.st28{fill:#AF8C52;}
</style>
<g>
	<g>
		<path class="st0" d="M1007.95,317.5c6.32-0.22,12.64-0.43,18.96-0.65c3.86-3.59,8-3.77,12.38-1.03
			c12.12,63.9,9.38,69.8-43.34,93.25c-36.82,16.38-46.2,40.44-23.89,71.36c19.72,27.32,17.28,53.96,6.6,82.45
			c-8.41,14.31-12.77,29.15-6.34,45.57c20.42,52.2-7.18,76.84-52.5,91.25c-30.32-1.9-28.63-25.75-30.3-45.95
			c-1.5-18.17,6.51-35.12,10.61-52.57c14.58-62,4.34-78.98-52.53-107.45c-42.62-21.33-82.37-49.45-131.76-19.3
			c-39.06,17.22-79.82,4.43-119.76,6.97c-8.19,0.39-15.79-1.25-22.36-6.47c-4.6-7.26-5.45-15.03-3.29-23.25
			c6.32-14.25,19.15-17.47,32.73-19.42c44.98,2.86,87.45-5.85,127.62-26.76c47.37-24.67,82.86-57.75,87.84-114.92
			c1.39-16.01,2.55-33.66,23.79-37.86c39.43,15.12,73.19,40.23,106.08,65.5C971.01,335.53,988.32,335.15,1007.95,317.5z"/>
		<path class="st1" d="M488.02,53.24c65.29-27.83,131.27-4.13,195.77,1.68c75.26,6.78,150.13,17.75,225.93,18.51
			c3.4,7.7-3.7,16.85,3.33,24.14c-1.07,4.21-3.44,7.42-6.93,9.91c-9.64,5.43-20.04,8.81-30.46,12.27
			c-13.63,3.56-27.23,7.12-40.83,10.83c-19.78,4-39.54,3.86-59.27-0.08c-24.2-8.32-47.86-6-71.66,2.57
			c-57.66,20.76-64.75,35.29-43.52,92.36c3.99,10.73,5.33,22.32,9.69,32.78c15.02,36.02,18.04,57.3-31.24,75.71
			c-36.8,13.75-72.42,33.55-111.94,42.69c-15.01,2.35-29.92,1.88-44.76-1.16c-21.76-9.85-44.39,2.04-66.41-2.49
			c-23.96-12.1-37.8-29.07-27.56-57.53c33.34-16.16,64.25,3.04,96.2,6.63c9.37,1.12,18.92,2.69,28.31,1.56
			c10.16-1.23,26.18,2.41,26.21-12.66c0.03-12.56-16.65-11.67-25.79-17.03c-5.9-2.51-11.69-5.18-16.83-8.91
			c-8.78-6.37-22.32-12.78-16.97-25.01c5.85-13.38,21.07-11.76,33.85-9.38c14.13,2.64,26.82,9.64,40.23,14.22
			c7.27,1.46,15.99,7.64,21.52,0.43c3.81-4.96-3.07-11.13-7.3-15.62c-5.33-5.66-10.76-11.21-14.36-18.27
			c-1.57-4.25-2.3-8.62-2.38-13.12c4.33-25.64-10.09-42.65-26.46-59.24c-25.74-26.06-43.45-56.11-43.51-94.19
			C482.34,60.41,484.74,56.55,488.02,53.24z"/>
		<path class="st2" d="M24.96,575.76c-3.97-24.25,11.16-44.56,13.92-67.43c8.8-45.14,46.38-53.2,82.03-63.79
			c6.95-0.45,13.76,0.54,20.33,2.66c19.04,9.67,30.25-10.57,46.33-12.42c11.49-2.42,23.1-2.69,34.76-2.75
			c7.24-0.15,14.44,0.23,21.62,1.12c18.82,4.01,38.22,6.87,51.1,23.67c1.62,4.42,2.07,8.98,1.19,13.64
			c-2.55,5.5-6.6,9.23-12.15,10.45c4.12,7.29,13.49,5.39,18.31,11.06c20.04,30.12,24.93,60.89-2.13,88.57
			c-24.02,24.57-56.35,31.01-84.94,13.62c-45.89-27.92-82.63-7.68-120.87,13.77c-6.91,7.88-13.44,16.15-23.42,20.5
			c-16.41,6.72-32.18,3.7-47.69-3.09l-0.31-2.58c3.69-4.75-3.28-8.03-1.72-12.49c-0.56-6.2-1.11-12.39-1.67-18.59
			C21.88,586.55,26.49,582.18,24.96,575.76z"/>
		<path class="st3" d="M595.66,472.85c38.48-13.48,79.67,9.79,117.79-8.69c4.24,2.46,8.8,4.16,13.36,5.96
			c110.68,43.62,110.48,43.64,112.22,162.59c0.52,35.54,13.66,70.8,2.4,106.63c-20.33,22.02-50.05,18.49-75.12,27.62
			c-7.94-15.04-8.35-31.95-4.25-46.91c10.89-39.8-1.43-72.26-26.48-101.97c-2.86-2.97-5.6-6.1-8.39-9.11
			c-3.1-2.55-6.11-5.25-9.22-7.81c-9.59-7.07-18.67-14.79-27.91-22.29c-4.86-3.36-9.8-6.58-14.96-9.46
			c-10.67-5.75-21.78-10.63-32.42-16.47c-3.65-2.16-6.85-4.85-9.74-7.97c-2.25-3.68-3.96-7.59-5.3-11.66
			C622.95,509.98,590.7,501.2,595.66,472.85z"/>
		<path class="st4" d="M841.42,739.34c-11.44-44.77-18.4-89.3-13.14-136.4c6.12-54.72,15.27-74.64-53.63-99.84
			c-21.75-7.96-54.51-5-61.21-38.94c39.45-24,77.59-31.48,113.57,6.96c5.15,5.5,14.08,7.73,21.56,10.74
			c75.36,30.29,86.61,53.76,60.99,133.29c-9.79,30.38-18.16,59.35,10.23,84.55C896.89,719.26,870.05,731.06,841.42,739.34z"/>
		<path class="st5" d="M488.02,53.24c-0.06,2.89-0.09,5.78-0.08,8.67c-18.92,20.25-45.02,32.29-62.16,54.56
			c-12.17,12.48-21,26.99-26.66,43.47c-8.46,19.08-3.78,41.8-16.57,59.68c-4.09,3.02-8.66,4.58-13.71,4.82
			c-81.62-8.24-152.4,21.7-219.6,63.09c-30.31,18.67-59.72,38.9-91.15,55.61c-17.94,9.54-37.46,22.68-56.71,1.08
			c3.74-32.38,2.01-65.72,16.78-96.17c17.64-15.91,39.77-11.22,60.52-13.69c38.34-4.56,79.02-1.25,110.73-30.24
			c17.87-12.52,38.12-17.14,59.48-17.88c77.85-15.3,117.25-56.11,128.84-133.86c1.67-11.19,2.36-22.61,12.33-30.35
			C425.81,22.68,453.16,49.72,488.02,53.24z"/>
		<path class="st6" d="M978.66,562.88c-4.86-34.62-6.19-68.71-32.51-98.3c-15.95-17.94,25.07-76.94,55.02-73.13
			c34.86,4.43,33.29-5.51,28.24-31.75c-2.5-13.02,5.02-27.97,8-42.04c10.47-11.66,28.62-9,38.96-20.89
			c6.57-3.2,13.14-6.4,19.71-9.59c11.44,12.73,4.97,27.31,3.47,40.94c-2.06,18.73,7.2,26.01,23.9,27.72
			c-1.76,52.98-23.4,95.83-63.55,130.58C1031.8,510.73,1005.67,537.31,978.66,562.88z"/>
		<path class="st7" d="M252.57,199.33c-20.65-3.17-39.03,6.56-58.47,10.27c-30.72,23.92-61.49,29.33-90.15-2.4
			c-25.79-28.56-27.8-78.69-5.17-107.78c10.89-14,25.76-24.64,34.86-40.24c34.2-28.74,74.44-42.63,118.14-48.01
			c79,19.83,110.33,61.08,91.16,118.99c-7.68,23.2-19.37,33.09-42.26,17.31c-7.08-6.96-11.89-15.59-14.91-24.88
			c-7.82-23.98-15.6-48.96-47.45-46.7c-34.6,2.46-62.75,20.19-79.78,49.55c-13.04,22.49-0.67,37.67,24.46,40.03
			c18.6,1.75,34.72-7.05,50.93-15.03c15.48-7.62,29.66-22.26,49.54-11.35C295.74,170.76,268.75,182.27,252.57,199.33z"/>
		<path class="st8" d="M645.12,864.52c-82.42,29.93-168.86,29.57-254.69,33.77c-23.27-18.14-25.42-44.08-26.14-70.53
			c19.65-34.36,42.63-17.34,64.75-3.57c21.8,13.56,42.53,29.67,54.91-10.24c5.08-16.39,22.07-17.29,36.35-19.77
			c24.06-4.18,47.76-9.11,67.83-24.44c58.67-18.18,68.35-11.06,64.45,48.82C651.58,833.99,656.17,850.62,645.12,864.52z"/>
		<path class="st6" d="M1.37,344.22c47.66,7.34,77.04-28.74,111.32-49.89c60.91-37.57,122.34-71.64,194.23-81.86
			c21.78-3.1,44.6-10.86,64.28,7.11c2.36,5.29,1.32,9.78-3.09,13.52c-43.1,12.82-87.86,19.87-129.76,36.97
			c-53.58,13.06-81.89,54.39-107.01,97.98c-15.33,26.6-29.86,53.49-50.82,76.1c-18.16,19.59-38.33,29.99-62.79,9.35
			C8.49,417.64,0.23,381.63,1.37,344.22z"/>
		<path class="st9" d="M732.01,604.63c65.43,42.7,45.05,103.54,34.3,162.33c-20.1,39.86-46.62,72.87-91.77,86.03
			c-16.21-14.67-12.86-34.54-13.29-52.97c-0.49-20.81-1.73-40.9-16.93-57.14c-7.56-21.37,6.45-35.88,20.54-44.4
			C701.4,676.38,722.34,645,732.01,604.63z"/>
		<path class="st10" d="M645.14,738.77c24.13-2.14,30.07,11.13,29.35,32.43c-0.92,27.23-0.05,54.52,0.06,81.78
			c-9.81,3.84-19.62,7.69-29.43,11.54c-3.12-14.06-12.6-30.52-8.32-41.76c24.24-63.69-13.09-53.64-50.77-44.88
			c-24.04,14.96-44.86,15.49-57.21-14.37c-5.53-13.37-15.88-13.49-27.34-12.95c-12.96-0.07-25.47-1.41-35.75-10.44
			c-6.4-9.86-6.82-20.21-2.61-30.95c22.98-27.29,53.41-31.09,86.19-27.29c23.15,31.26,50.27-2.27,75.01,4.41
			c11.63,10.81,5.53,24.14,5.37,36.4c0.09,3.33,1.51,6.15,4.48,8.03c0.09-0.21,4.25,2.03,4.3,1.93
			C641.92,733.37,644.13,735.43,645.14,738.77z"/>
		<path class="st4" d="M1007.95,317.5c-10.93,39.1-28.76,48.08-58.85,14.97c-28.06-30.88-75.44-36.67-98.58-74.42
			c-9.98-15.88,0.87-22.64,12.62-29.06c21.13-5.34,40.82-14.08,59.16-25.94c9.63-2.8,18.93-2.55,27.61,3.02
			c8.09,46.68,55.78,20.91,77.69,42.35C1033.25,274.92,990.41,287.62,1007.95,317.5z"/>
		<path class="st11" d="M370.3,826.85c6.71,23.8,13.42,47.61,20.13,71.43c-96.75,8.82-186.02-5.57-255.24-82.19
			c12.74-11.96,27.54-10.95,42.83-6.89c12.73,5.24,23.58,15.56,38.74,14.48c9.46,0.24,18.89,0.15,28.35,0.09
			c14.71-0.21,29.4-0.12,44.1-0.25c7.5-0.3,15-0.48,22.5-0.99C331.52,820.12,351.93,809.84,370.3,826.85z"/>
		<path class="st12" d="M252.57,199.33c-1.39-25.19,30.51-33.37,29.75-58.23c6.45-5.64,12.98-6.49,19.64-0.36
			c9.8,2.85,24.09,14.78,27.21-3.42c4.93-28.78,18.2-59.89-12.58-84.94c-20.15-16.39-48.66-19-64.81-41.21
			c47.67-16.52,93.31-7.15,138.28,10.85C403.74,136.96,335.31,168.75,252.57,199.33z"/>
		<path class="st12" d="M133.64,59.17c1.75,12.25-2.53,22.45-11.64,30.24c-36.04,30.85-33.68,67.24-13.54,104.53
			c21.33,39.51,54.95,21.83,85.64,15.65c-19.76,45.03-64.79,27.51-97.97,37.36c-23.99,7.12-51.85,1.21-77.98,1.1
			C40.43,175.18,60.72,101.09,133.64,59.17z"/>
		<path class="st0" d="M1027.6,248.43c-11.2,0.19-23.75-2.88-33.37,1.11c-44.99,18.66-48.18-7.05-45.39-40.53
			c-4.08-26.07,17.81-26.64,33.04-32.45c27.57-10.51,48.4-25.54,47.44-58.57c0.13-2.02,0.38-4.12,0.52-6.12
			c0.46-1.87,1.02-3.83,1.45-5.68c1.02-4.38,5.62-9.71-3.14-11.94c-2.8-3.12-3.84-6.6-2.98-10.69
			c17.49-20.48,29.72-46.83,59.89-52.83C1085.13,108.38,1074.96,183.31,1027.6,248.43z"/>
		<path class="st3" d="M17.74,453.5c62.18,7.54,74.37-45.01,97.13-82.8c29.36-48.76,58.26-96.58,118.57-111.96
			c5.92,7.39,6.05,16.55-0.43,21.72c-56.69,45.23-76.1,113.42-108.25,173.74c-34.98,7.98-63.45,26.29-85.89,54.14
			C32.33,489.86,17.52,474.58,17.74,453.5z"/>
		<path class="st13" d="M23.33,625.36c17.19-1.84,34.39-3.68,51.58-5.52c33.36-16.63,67.16-31.6,105.85-28.62
			c10.51,2.03,19.83,6.79,28.71,12.53c24.12,20.04,55.95,13.61,82.95,23.99c19.21,7.39,42.9,8.83,42.98,37.66
			c-11.27,18.86-27.72,8.76-42.48,7.31c-15.22-1.5-30.42-11.13-45.51,0.41c-6.26,2.84-12.78,3.66-19.54,2.46
			c-6.41-1.73-12.07-4.97-17.33-8.91c-3.47-2.4-6.78-5.06-10.04-7.74c-1.7-1.19-3.33-2.52-5.04-3.71
			c-3.53-2.14-6.96-4.47-10.48-6.69c-3.82-1.89-7.53-3.89-11.35-5.75c-47.31,1.48-90.59,27.17-138.77,22.58
			C31.03,652.03,27.18,638.69,23.33,625.36z"/>
		<path class="st10" d="M124.03,799.81c-22.45-30.26-44.9-60.52-67.36-90.78c0.61-11.87,4.13-22.03,15.97-27.37
			c30.56-7.95,60.94-10.46,90.75,3.24c17.21,20.19,19.41,43.92,16.15,68.9C164.31,773.01,140.51,782,124.03,799.81z"/>
		<path class="st8" d="M164.71,690.1c-32.62-0.31-65.24-0.61-97.86-0.92c-14.55-0.04-21.37-12.35-31.3-19.71
			c0,0-0.66-4.12-0.66-4.11c42.06-25.3,93.71-19.49,136.94-41.99c6.95-3.62,12.34,7.43,13.18,15.97c5.18,8.56,0.32,15.3-3.86,22.15
			c-4.98,6.22-5.61,13.35-4.1,20.96C175.17,688.64,172.01,692.75,164.71,690.1z"/>
		<path class="st7" d="M1085.04,30.74c-18.14,20.26-36.29,40.52-54.43,60.77c-2.9,8.61-4.79,17.79-13.37,23.11
			c-4.35,1.56-8.83,1.95-13.4,1.25c-19.98-19.01-44.32-15.49-68.47-13.07c-10.01-0.32-18.35-4.44-25.64-11.03
			c-10.63-6.11-1.97-12.23-0.02-18.35c50.18-5.82,97.93-19.27,143.31-42.08C1061.51,27.09,1074.3,6.03,1085.04,30.74z"/>
		<path class="st14" d="M124.03,799.81c-0.48-34.24,22.06-41.03,49.73-41.72c18.37-2.82,22.28,11.37,27.9,23.63
			c0.91,16,6.35,34.32-18.6,37.52c-15.95-1.05-31.91-2.09-47.87-3.15c0-0.01,0.08-0.96,0.08-0.96c-3.74-1.66-6.23-4.4-7.26-8.39
			C126.16,804.72,124.84,802.42,124.03,799.81z"/>
		<path class="st15" d="M1123.45,355.82c-8.57,6.2-11.71,22.2-26.14,17.46c-14.08-4.63-9.46-18.44-11.09-29.19
			c-3.07-20.2,7.12-37.86,9.86-56.92c16.39-15.35,26.77-10.26,28.35,10.42C1125.9,316.86,1123.91,336.4,1123.45,355.82z"/>
		<path class="st9" d="M35.54,669.47c15.07-0.79,24.78,6.93,31.3,19.72c-0.7,7.99-2.07,15.64-10.17,19.84
			C46.33,697.6,37.6,685.32,35.54,669.47z"/>
		<path class="st4" d="M1076.37,296.76c-6.96,18.21-22.2,20.96-38.96,20.89c-3.5-0.26-7-0.53-10.5-0.8
			C1039.97,301.72,1057.09,296.58,1076.37,296.76z"/>
		<path class="st13" d="M21.3,610.29c4.34,3.63,5.71,7.68,1.75,12.49c-1.22-2.71-2.74-5.33-3.44-8.16
			C19.3,613.39,20.68,611.75,21.3,610.29z"/>
		<path class="st16" d="M24.96,575.76c-1.78,5.31-3.55,10.62-5.33,15.94C17.96,585.24,19.15,579.73,24.96,575.76z"/>
		<path class="st9" d="M128,806.74c2.42,2.8,4.84,5.61,7.26,8.4C129.85,814.92,127.3,812.23,128,806.74z"/>
		<path class="st17" d="M605.49,444.35c-10.67,0.39-22.13-1.7-29.34,9.44c-5.27,5.87-11.93,7.1-19.35,5.89
			c-19.38-8.66-39.56-13.9-60.98-14.04c-7.66-1.03-14.78-3.42-21.22-7.78c-8.29-7.59-12.86-16.49-9.89-28.03
			c26.52-30.65,64.36-10.67,95.34-21.39c7.2-1.49,14.48-1.7,21.75-0.89c36.66,11.34,64.01-9.15,92.1-27.21
			c4.16-2.31,8.51-4.09,13.01-5.59c55.54-19.83,59.39-27.4,43.22-85.15c-13.99-49.95-2.26-75.6,45.2-96.43
			c42.69-18.74,90.41-24.86,129.95-51.67c11.93-4.68,23.96-8.99,36.61-11.37c21.11-3.64,41.77-2.25,61.79,5.64
			c5.22,0.04,10.1,1.39,14.61,4.02c-2.44,27.26-26.25,33.08-44.89,37.15c-34.31,7.49-63.68,24.54-94.56,38.98
			c-45.59,21.31-79.14,49.42-76.09,107.12c1.76,33.32-19.8,57.39-46.75,75.99C710.08,410.7,659.87,432.28,605.49,444.35z"/>
		<path class="st6" d="M605.49,444.35c1.48-17.79,14.72-16.98,27.94-20.1c49.98-11.8,93.16-38.4,133.47-68.84
			c22.44-16.95,28.03-43.63,24.8-70.86c-4.19-35.35,12.65-56.36,40.21-76.74c56.49-41.76,126.95-51.76,185.83-87.13
			c1.64-3.77,3.83-7.2,6.48-10.34c1.78-1.01,3.57-2.01,5.35-3.01c1.99,0.45,3.99,0.91,5.99,1.37
			c21.09,47.67-13.01,64.24-46.49,78.48c-14.39,6.12-32.78,3.19-40.24,21.83c-9.79,0.08-19.59,0.15-29.38,0.23
			c-14.69,12.64-38.06,10.56-49.27,29.08c-12.63,0.52-19.15,7.13-19.67,19.73c-21.09,2.57-18.84,18.54-19.42,33.25
			c-1.8,45.63-22.25,79.91-60.52,105.44C720.29,430.3,666.95,450.72,605.49,444.35z"/>
		<path class="st18" d="M595.66,472.85c12.21,21.42,45.58,29.71,38.95,62.81c-3.95,2.78-8.27,4.76-12.95,5.99
			c-9.85,1.4-19.26,0.11-28.12-4.59c-16.89-19.14-41.46-33.99-36.94-65.27c6.82-4.06,13.61-3.85,20.38,0.13
			C583.21,472.24,589.44,472.54,595.66,472.85z"/>
		<path class="st3" d="M576.99,471.93c-6.18,0.29-12.36,0.58-18.54,0.87c-7.05-3.62-8.99-9.84-8.78-17.17
			c8.83-0.6,17.65-1.21,26.48-1.82C576.43,459.84,576.71,465.88,576.99,471.93z"/>
		<path class="st19" d="M390.02,317.06c1.06,20.58,12.41,35.96,25.53,50.43c5.91,1.27,8.54,4.9,7.9,10.91
			c-28.44,38.43-69.2,48.52-113.7,47.31c-20.64-0.56-41.17-5.17-62.04-3.21c-19.84-1.1-32.02-13.64-42.68-28.52
			c-6.76-10.51-14.91-20.33-17.34-33.14c21.98-65.32,118.35-125.53,184.67-115.45C389.98,266.38,398.92,289.53,390.02,317.06z"/>
		<path class="st7" d="M390.02,317.06c-14.19-21.1-11.62-47.08-20.31-69.78c-5.32-6.34-5.23-12.52,0.59-18.5
			c0.56-3.04,0.85-6.11,0.89-9.2c2.91-0.41,5.82-0.62,8.75-0.63c20.11-17.34,39.73-0.84,59.57,0.85c9.81,0.83,20.63,1.61,25.03-9.19
			c4.51-11.07-4.66-17.22-12.14-23.4c-18.75-15.47-44.83-18.42-62.04-36.47c7.11-15.08,11.49-32.13,28.82-39.81
			c45.79-2.29,77.92,21.05,99.28,58.19c10.76,18.71,22.38,35.5,38.03,49.89c0,3.26,0.03,6.52,0.1,9.78
			c9.47,16.32,15.37,32.63-0.13,48.88c-9.12-2.95-18.4-5.51-27.33-8.96c-13.32-5.15-33.34-18.5-39.21-7.14
			c-6.6,12.77,22.12,12.11,27.56,25.96c15.41,31.71-16.52,34.59-29.76,48.85C455.17,329.94,422.59,323.5,390.02,317.06z"/>
		<path class="st15" d="M684,365.99c-3.25,0.01-6.51,0.02-9.76,0.05c-28.55,12.38-55.42,29.82-88.24,29.4
			c-6.54,0-13.07,0.01-19.61,0.01c-17.35-4.06-47.55,9.14-39.3-29.27c29.51-20.85,81.92-0.71,94.09-52.57
			c108.93,12.86,6.49-57.74,30.79-78.41c0.42-0.36-1.14-2.88-1.59-4.44c-7.17-25.12-48.01-48.95-10.59-75.94
			c38.31-27.64,78.68-61.06,132.5-33.79c-1.57,30.98-30.6,28.44-48.47,38.33c-45.66,25.28-48.91,34.59-16.19,73.54
			c14.08,16.76,18.63,37.25,27.28,56.11c12.29,26.78,4.93,46.82-22.89,58.5C701.57,351.89,691.8,357.49,684,365.99z"/>
		<path class="st20" d="M684,365.99c1.92-6.09,2.29-13.45,6.04-18.05c14.05-17.21,62.54-13.66,32.43-57.1
			c-14.07-20.3-11.28-48.92-39.09-63.82c-28.84-15.45-24.34-36.23,0.32-57.52c26.49-22.87,63.61-24.25,88.59-48.49
			c22.89,0.04,45.78,0.07,68.67,0.11c13.7-0.86,28.58,2.94,39.26-9.92c7.1-11.45,18.56-9.38,29.32-9.45
			c8.58,9.64,7.75,19.29,0.07,28.97c-37.6,34.55-88.99,36.46-133.26,55.23c-40.23,17.06-50.26,40.5-34.72,79.76
			C766.6,328.76,751.33,354.47,684,365.99z"/>
		<path class="st12" d="M556.51,219.01c-13.45-1.96-34.47,6-36.84-13.59c-7.36-60.78-59.02-71.63-100.47-94.49
			c16.12-25.87,37.61-44.2,68.74-49.02c7.17,39.63,24.03,73.47,55.4,100.15C560.77,176.9,578.5,193.99,556.51,219.01z"/>
		<path class="st20" d="M527.09,366.17c-0.05,27.4,31.19,12.82,39.3,29.28c-29.1,25.79-70.56-6.73-99.25,21.03
			c-4.06,2.79-8.54,4.02-13.46,3.73c-16.58-6.35-30.17-14.89-26.11-36.15c14.71-11.95,33.05-13.82,50.56-18.01
			C494.46,366.08,510.78,366.13,527.09,366.17z"/>
		<path class="st12" d="M487.74,336.38c0.19-22.2,33.03-24.53,29.76-48.84c19.36,1.37,45.68,1.17,45.39,24.85
			c-0.29,23.35-26.58,23.25-45.99,24.13C507.2,336.96,497.46,336.46,487.74,336.38z"/>
		<path class="st12" d="M556.48,277.67c0.04-16.29,0.08-32.59,0.13-48.88c7.78,5.5,15.23,11.56,23.43,16.36
			c12.69,7.43,20.07,18.39,13.19,31.62C582.93,296.55,568.96,281.67,556.48,277.67z"/>
		<path class="st15" d="M478.14,366.04c-9.55,22.54-29.45,19.62-48.18,19.57c-5.75,0.46-7.61-5.59-12.11-7.22
			c-0.76-3.63-1.53-7.26-2.29-10.89C436.44,367.79,456.73,343.06,478.14,366.04z"/>
		<path class="st15" d="M909.62,130.72c-0.02-9.66-0.05-19.32-0.07-28.97c0.06-3.32,0.12-6.65,0.19-9.97
			c9.7,0.02,19.4,0.04,29.1,0.06c8.19,9.62,8.07,19.31,0.21,29.05C929.24,124.17,919.43,127.44,909.62,130.72z"/>
		<path class="st15" d="M880.23,111.21c-6.97,27.53-21.98,23.2-39.26,9.91C851.22,106.58,866.63,112.51,880.23,111.21z"/>
		<path class="st16" d="M596.76,531.21c9.73,2.11,19.46,4.22,29.19,6.34c4.02-0.14,7.31,1.35,9.86,4.46
			c3.44-0.98,6.32-0.11,8.64,2.61c30.58,51.28,25.32,60-35.48,62.59c-49.39,2.11-92.13,29.11-140.06,38.61
			c-52.67,10.44-103.23,11.04-152.81-8.79c-36.41-14.56-76.73-10.01-112.55-25.82c-6.46-3.43-12.92-6.85-19.37-10.28
			c-16.59-16.14-32.97-3.55-49.58,0.1c-16.28,3.57-32.78,17.58-49.13,0.01c28.7-29.63,88.52-43.4,118.03-24.92
			c29.29,18.34,58.44,22.53,85.78,0.44c30.6-24.73,16.79-54.36,3.77-82.63c-3.19-1.99-5.34-4.78-6.49-8.36
			c0.09-3.79,1.53-6.97,4.31-9.54c0.34-4.2,0.67-8.41,1.01-12.61c12.05-9.51,22.71-2.8,33.52,2.74
			c37.39,22.96,64.56,54.64,80.99,95.44c-3.07,36.09,14.43,44.25,47.73,39.74c50.55-6.85,86.05-34.32,114.86-73.67
			C578.9,523.75,587.86,527.26,596.76,531.21z"/>
		<path class="st18" d="M370.3,228.77c-0.2,6.17-0.39,12.34-0.59,18.51c-75.54,13.8-136.35,49.7-176.09,117.25
			c3.25,3.68,4.55,7.95,3.94,12.82c-16.09,27.07-14.76,64.57-48.45,81.14c-8.11-1.43-16.23-2.86-24.35-4.29
			c4.62-61.87,34.72-111.55,73.94-157.34c11.22-13.1,32.69-16.85,34.72-38.12C277.76,242.82,321.48,224.13,370.3,228.77z"/>
		<path class="st21" d="M321.23,473.8c-9.78-3.46-19.56-6.92-29.35-10.38c-13.93-14.44-35.08-9.4-50.86-18.84
			c-2.3-3.34-3.43-7.04-3.47-11.1c0.15-6.01,0.68-11.96,3.42-17.47c10.65-3.37,23.39-12.31,31.61-9.22
			c54.96,20.67,100.2-2.23,145.29-28.4c4.03,2.41,8.07,4.82,12.1,7.22c6.68,13.79,17.76,22.95,31.15,29.69
			c-10.35,31.04-40.61,27.12-63.42,36.23c-4.4,0.68-8.88,0.8-13.31,0.6C358.6,445.45,343.22,469.34,321.23,473.8z"/>
		<path class="st22" d="M149.11,458.49c21.13-24.75,18.08-61.56,42.3-84.76c9.35,3.75,11.82,12.92,16.25,20.56
			c3.04,6.39,3.37,12.96,1.47,19.72c-5.14,13.22-15.11,21.8-27.32,28.22C169.36,444.52,170.46,474.06,149.11,458.49z"/>
		<path class="st23" d="M85.47,601.03c23.69,3.54,44.86-6.04,66.22-13.46c15.69-5.45,28.95-8.96,32.49,13.35
			c-38.28-4.45-70.49,26.12-109.25,18.92C78.43,613.57,81.95,607.3,85.47,601.03z"/>
		<path class="st24" d="M181.82,442.22c0.94-15.59,8.45-26.43,23.17-32.05c10.1-0.1,16.96,5.16,22.11,13.3
			c2.46,6.78,2.15,13.2-2.55,19.04C210.28,447.12,196.02,450.12,181.82,442.22z"/>
		<path class="st11" d="M289.89,482.01c1.05,3.97,2.1,7.94,3.15,11.92c-9.91-6.79-29.22,14-32.87-11.19
			C269.97,477.87,279.88,477.73,289.89,482.01z"/>
		<path class="st25" d="M289.89,482.01c-9.91,0.25-19.82,0.5-29.73,0.74c8.27-11.24,19.74-7.84,30.7-6.72
			C290.42,478,290.1,480,289.89,482.01z"/>
		<path class="st26" d="M224.56,442.5c-1.09-5.77-2.17-11.53-3.26-17.3c10.88-6.72,16.11,0.92,21.39,8.43
			c-0.55,3.65-1.1,7.3-1.66,10.95C235.53,443.88,230.05,443.19,224.56,442.5z"/>
		<path class="st23" d="M203.55,611.21c36.28-3.42,71.34,3.5,105.64,13.98c79.63,24.33,156.59,17.15,232.47-15.65
			c19.13-8.27,42.78-20.43,60.19-15.65c55.35,15.2,54.92-10.06,42.6-49.27c15.46,1.87,27.04,10.82,37.97,20.93
			c3.22,3.15,4.74,6.97,4.61,11.47c-3.24,28.47-10.39,55.73-25.11,80.68c-2.9,3.62-6.45,6.39-10.6,8.45
			c-6.73,2.33-13.53,2.52-20.37,0.67c-4.25-1.73-7.83-4.41-10.64-8.05c-4.42-7.68-6.45-16.33-9.62-24.49
			c-44.62-20.67-74.24,14.67-109.36,29.14c-6.09,3.06-12.58,4.12-19.31,3.77c-13.36-3.77-24.66,1.64-35.71,8.28
			c-6.58,2.08-13.24,2.33-20.01,1.31c-22.83-5.8-45.52-4.51-68.17,1.29c-10.06,0.8-19.63,0.05-26.66-8.52
			c-15-39.4-53.9-28.63-82.62-37.61C232.38,626.78,212.62,631.93,203.55,611.21z"/>
		<path class="st14" d="M645.14,738.77c-3.34-0.01-6.67-0.02-10.01-0.02c-16.38-31.87-1.06-55.76,19.69-78.29l0.06-0.07
			c29.39-20.16,25.81-53.91,34.13-82.77c1.42-1.72,2.84-3.43,4.27-5.14c9.84,7.76,19.68,15.52,29.52,23.29
			c4.21,0.08,6.43,2.22,6.66,6.43c0,0,2.55,2.44,2.55,2.44c5.26,39.43,2.72,73.05-43.72,89.56
			C669.79,700.76,655.07,719.49,645.14,738.77z"/>
		<path class="st9" d="M729.47,602.18c-3.16-1.17-5.37-3.32-6.65-6.43C728.05,594.77,730.11,597.08,729.47,602.18z"/>
		<path class="st23" d="M635.81,542c-3.29-1.49-6.58-2.97-9.86-4.46c2.75-1.18,5.62-1.82,8.64-1.89
			C634.58,537.86,634.98,539.97,635.81,542z"/>
		<path class="st14" d="M681.91,572.16c-0.3-2.24-0.13-4.44,0.51-6.61c3.62,2.31,7.24,4.62,10.87,6.93c0,0-2.06,1.94-2.06,1.94
			C687.66,575.6,684.53,574.95,681.91,572.16z"/>
		<path class="st27" d="M390.37,150.73c31.2-0.62,54.6,16.98,78.58,33.4c10.89,7.45,23.68,14.44,14.99,30.33
			c-8.07,14.76-19.64,26.76-38.89,21.4c-21.62-6.01-41.76-17.56-65.11-16.93C380.75,195.8,376.61,171.9,390.37,150.73z"/>
		<path class="st27" d="M301.96,140.74c-6.55,0.12-13.1,0.23-19.64,0.35c-24.5,11.8-48.21,25.91-73.74,34.74
			c-25.33,8.76-55.04,10.45-67.87-18.77c-11.9-27.12,5.9-49.12,27.94-64.77c15.54-11.03,31.7-23.38,49.51-28.59
			C265.28,49.9,281.06,65.53,301.96,140.74z"/>
		<path class="st28" d="M370.3,826.85c-19.67,3.23-39.35,6.46-59.02,9.69c-19.47-29.44-4.82-57.21,4.12-85.27
			c21.21-23.9,49.07-0.4,72.3-10.17c7.2-0.91,14.28-0.32,21.16,1.92c33.78,19.48,66.28,8.85,98.67-4.36
			c15.82-0.43,40.66-22.95,33.3,22.24c-4.59,28.2,29.29,11.59,45.2,17c-14.11,31.05-45.03,22.6-69.41,29.18
			c-10.03,2.71-21.53-1.86-24.98,15.16c-8.02,39.51-28.82,46.17-60.97,20.37C412.5,828.03,398.04,803.19,370.3,826.85z"/>
		<path class="st14" d="M624.77,631.15c0.04,9.78,0.09,19.55,0.13,29.33c-18.71,19.12-38.69,35.24-68.2,28.74
			c-30.69-0.15-59.55,8.13-87.82,19.1c-17.1,16.6-38.83,16.59-59.73,13.88c-56.26-7.31-113.23-12.45-164.86-39.46
			c-4.38-4.9-4.84-10.16-1.38-15.75c7.21-26.43,23.51-12.04,37.69-8.62c16.87,4.07,33.89,7.48,50.86,11.16
			c9.67,0.15,19.34,0.31,29.01,0.47c22.88,0.07,45.76,0.12,68.64-0.05c6.48-0.05,12.96-0.11,19.44-0.16
			c7.97-9.03,18.67-9.67,29.59-9.63c6.47-0.07,12.94-0.14,19.42-0.21c28.16-14.03,60.12-18.01,87.72-34.05
			C598.24,618.38,612.82,620.15,624.77,631.15z"/>
		<path class="st8" d="M244.91,677.93c74.26,13.01,147.18,35.93,223.97,30.41c-0.18,10.1-0.37,20.21-0.56,30.32
			c-15.23,29.87-37.02,20.23-58.95,9.8c-6.43,0.01-12.86,0.02-19.29,0.03c-54.65-10.36-113.92-10-149.53-64.49
			C242,681.98,243.46,679.95,244.91,677.93z"/>
		<path class="st9" d="M556.7,689.23c22.91-9.17,42.47-26.28,68.2-28.75c0,0,0.58-0.46,0.58-0.46c7.37,10.3,8.45,20.3-1.38,29.8
			c-14.74-0.38-22.82,10.69-33.05,18.58C565.56,728.04,556.53,716.47,556.7,689.23z"/>
		<path class="st11" d="M409.37,748.46c19.66-3.22,41.7,7.94,58.95-9.8c13.07,0,26.13,0,39.2,0
			C477.83,770.4,434.25,774.75,409.37,748.46z"/>
		<path class="st13" d="M624.1,689.83c0.46-9.93,0.92-19.87,1.38-29.8c9.78,0.14,19.56,0.28,29.35,0.43
			c-3.81,26.79-25.96,48.97-19.69,78.29c0,0-0.02-0.01-0.02-0.01c-6.6,5.4-13.19,5.41-19.77-0.03
			C618.26,722.41,621.18,706.12,624.1,689.83z"/>
		<path class="st14" d="M615.35,738.7c6.59,0.01,13.18,0.02,19.76,0.03C628.51,748.94,621.92,750.05,615.35,738.7z"/>
		<path class="st0" d="M870.19,238.32c3.14-32.19,27.12-29.09,49.27-29.08C913.31,236.34,888.61,232.01,870.19,238.32z"/>
		<path class="st9" d="M320.98,748.68c5.65,30.27-12.26,57.93-9.7,87.86c-6.81-0.36-13.61-0.73-20.42-1.09
			c-12.72-15.57-16.91-37.41-35.52-48.23c-9.07-2.99-3.55,4.37-4.53,7.16c1.06,8.37-0.1,16.11-4.4,23.29
			c-8.5,10.84-24.91,7.61-33.22,18.77c-13.49,0.26-27.11,0.77-30.14-17.22c14.8-11.6,9.99-27.64,9.63-42.69
			c2.31-27.97,16.89-51.56,27.39-76.62c22.13-8.56,32.47,8.62,45.2,20.65c5.52,15.45,18.88,16.12,32.17,16.87
			C306.48,738.68,315.23,740.59,320.98,748.68z"/>
		<path class="st14" d="M252.47,777.65c34.79,4.67,41.81,27.79,38.4,57.81c-15.75,0.22-31.49,0.46-47.23,0.7
			c-6.6-5.55-6.71-11.79-1.96-18.54c0.53-9.79,1.06-19.58,1.59-29.37C243.73,782.45,247.04,779.13,252.47,777.65z"/>
		<path class="st28" d="M241.68,817.62c0.65,6.18,1.3,12.36,1.95,18.54c-10.14,0.09-20.29,0.18-30.44,0.28
			C214.35,817.53,227.38,816.61,241.68,817.62z"/>
		<path class="st6" d="M1017.59,111.19c-0.3-9.59,2.82-16.93,12.98-19.67c0.04,0,4.52-0.47,4.52-0.47c2.84,1.87,4.07,4.05,3.69,6.51
			c-0.4,2.62-0.99,3.92-1.77,3.92l-0.57,0.49c-2.4,2.78-4.95,5.42-7.64,7.91l-2.16,1.71
			C1023.47,114.91,1020.46,114.6,1017.59,111.19z"/>
		<path class="st1" d="M1037.02,101.49c-0.62-3.48-1.25-6.95-1.9-10.43C1042.28,93.33,1044.28,96.56,1037.02,101.49z"/>
		<path class="st7" d="M1028.8,109.89c2.55-2.65,5.11-5.29,7.65-7.92c-0.47,2.25-0.75,4.51-0.87,6.76
			C1033.33,109.22,1031.08,109.62,1028.8,109.89z"/>
		<path class="st25" d="M172.03,660.2c4.32-6.95,8.63-13.9,12.96-20.86c2.69,0.53,5.38,1.04,8.07,1.52
			c3.56,2.94,6.8,6.27,10.83,8.62l0.63,0.6c2.58,4.03,3.97,8.46,4.33,13.23c-0.84,4.84-3.26,8.69-7.26,11.56
			c-9.38,4.24-18.43,3.9-27.11-1.88c-2.45-2.47-3.62-5.19-3.53-8.16C171.04,661.74,171.4,660.2,172.03,660.2z"/>
		<path class="st8" d="M242.91,667c0.65,3.65,1.3,7.31,1.98,10.95c0.02-0.02-2.09,1.86-2.09,1.86c-3.77,5.34-9.09,6.38-15.13,5.46
			c-3.75-1.31-6.78-3.59-9.13-6.8c-0.46-1.88-0.89-3.78-1.34-5.67c0.03-4,1.37-7.51,4-10.53C228.44,663.84,235.67,665.42,242.91,667
			z"/>
		<path class="st14" d="M218.04,659.91c0,0,3.25,2.48,3.2,2.42c0.46,2.27,0.85,4.63,1.11,7.01c-2.23,1.29-4.45,2.58-6.69,3.86
			c-1.92-1.73-3.83-3.46-5.74-5.19c0.12-2.59,0.24-5.17,0.35-7.76C212.87,660.13,215.45,660.02,218.04,659.91z"/>
		<path class="st9" d="M203.88,649.48c-3.61-2.87-7.21-5.74-10.82-8.62C196.67,643.73,200.28,646.61,203.88,649.48z"/>
		<path class="st9" d="M206.75,659.28c-1.9-2.79-2.65-5.86-2.24-9.2c4.51,3.28,9.01,6.55,13.52,9.83c0.01,0-4.28,0.72-4.28,0.72
			C210.48,665.01,208.11,664.8,206.75,659.28z"/>
		<path class="st23" d="M174.46,674.3c12.31-6.23,24.84-3.42,37.36-0.89c-1.61-1.51-2.42-2.27-2.42-2.27
			c-0.66-1.07,0.58-1.24,3.73-0.51l0.08,0.02c3.79,2.48,6.72,5.75,8.9,9.71l-0.09,0.98c6.87,5.76,7.21,11.91,1.09,18.43
			c3.92,31.15-11.38,54.7-30.41,76.76c-6.32-6.16-12.63-12.3-18.94-18.44c-4.72-22.44-14-44.28-9.06-68
			c3.04-3.39,6.08-6.78,9.12-10.17C174.04,678.05,174.25,676.18,174.46,674.3z"/>
		<path class="st11" d="M174.46,674.3c1.47,2.07,1.25,3.94-0.64,5.63c-6.31-0.98-14.1-1.27-14.89-9.16
			c-0.84-8.4,6.7-9.52,13.11-10.57C172.84,664.9,173.65,669.6,174.46,674.3z"/>
		<path class="st1" d="M939.05,120.89c-0.07-9.69-0.14-19.37-0.21-29.06c24.21,0.14,55.25-24.37,67.56,18.72
			c3.71,1.84,5.16,3.99,4.35,6.46c-0.86,2.62-1.83,3.93-2.92,3.93C984.91,120.93,961.98,120.91,939.05,120.89z"/>
		<path class="st0" d="M1007.84,120.94c-0.47-3.46-0.94-6.92-1.42-10.38c3.71,0.21,7.44,0.42,11.18,0.63
			c3.02,0.1,6.04,0.24,9.05,0.41c-2.97,3.03-5.94,6.06-8.9,9.09C1014.44,120.77,1011.14,120.86,1007.84,120.94z"/>
		<path class="st22" d="M321.23,473.8c15.99-17.81,26.38-48.06,59.89-26.94c13.7,10.23,32.38,12.7,43.12,27.62
			c11.83,24.55,18.26,57.94,58.41,35.3c1.51-1.17,3.17-2.29,4.66-3.44c1.49-1,3.14-1.98,4.59-2.94c8.37-3.84-0.4-7.73-0.3-11.63
			c-2.45-5.41-4.26-10.98-5.89-16.66c-2.42-8.11-4.58-16.23-2.92-24.81c3.48-9.4,10.45-13.32,20.21-12.86
			c14.56,8.76,37.57-4.29,46.76,18.16c2.84,5.75,5.76,11.48,8.69,17.2c12.77,19.46,25.53,38.93,38.31,58.41
			c-10.25,1.12-20.51,2.24-30.77,3.36c-3.98,3.02-8.19,5.69-12.6,8.08c-4.57,2.19-9.32,3.82-14.21,5.12
			c-31.1,7.97-63.39,10.1-94.13,20.2c-15.3,5.03-31.55,7.79-45.29-5.31C375.09,531.71,352.9,498.56,321.23,473.8z"/>
		<path class="st3" d="M418.56,476.3c-12.9-9.28-34-8.15-37.45-29.44c2.6-0.54,5.19-0.51,7.77,0.09
			c30.68,3.47,57.38-20.93,88.74-12.66c8.44,1.04,16.89,2.08,25.35,3.14c-4.17,5.5-8.35,10.98-12.54,16.47
			c-8.34,8.93-18.78,14.29-30.28,17.87C446.55,475.63,433.15,481.58,418.56,476.3z"/>
		<path class="st20" d="M586,395.44c27.49-15.56,54.73-31.89,88.24-29.4C650.32,392.32,625.11,414.73,586,395.44z"/>
		<path class="st12" d="M477.62,434.29c-29.19,6.85-56.02,30.26-88.72,12.65c22.28-14.58,51.64-13.09,72.21-31.65
			c2.02,0.4,4.04,0.78,6.05,1.17C470.64,422.41,474.13,428.35,477.62,434.29z"/>
		<path class="st7" d="M242.69,433.63c-7.12-2.81-14.24-5.61-21.38-8.43c-5.46-5.01-10.91-10.02-16.34-15.04
			c-0.58-4.5-1.18-9.01-1.78-13.51c-6.22-9.91,0.21-11.2,7.92-11.63c9.95,10.32,19.89,20.64,29.84,30.97
			C241.54,421.88,242.11,427.75,242.69,433.63z"/>
		<path class="st1" d="M211.12,385.03c-2.64,3.87-5.28,7.75-7.92,11.62c-3.92-7.62-7.84-15.25-11.77-22.9
			c0.9-3.04,1.64-6.1,2.2-9.21C203.79,367.66,207.49,376.32,211.12,385.03z"/>
		<path class="st2" d="M399.76,562.66c50.54-1.1,96.05-29.21,147.14-27.38c3.47,1.67,6.74,1.27,9.85-0.94
			c3.12-1.35,6.2-1.27,9.24,0.23c-5.48,56.6-56.02,58.65-93.32,76.15c-8.29,3.89-19.14,1.98-28.64,3.68
			C399.3,622.4,386.6,607.67,399.76,562.66z"/>
		<path class="st13" d="M624.77,631.15c-45.37-3.46-79.12,44.3-127.21,28.82c28.16-35.33,69.03-42.19,109.91-47.9
			C619.16,610.43,623.97,620.22,624.77,631.15z"/>
		<path class="st13" d="M681.91,572.16c3.25,0.2,6.37,0.94,9.34,2.24c2.18,34.72,15.47,74.12-36.36,85.98
			C663.9,630.98,672.9,601.57,681.91,572.16z"/>
		<path class="st13" d="M429.11,669.97c-22.87,15.48-45.75,15.38-68.64,0.05C383.34,654.66,406.22,654.67,429.11,669.97z"/>
		<path class="st13" d="M478.14,660.18c-7.12,11.64-18.68,9.64-29.59,9.63C452.77,649.26,462.04,644.22,478.14,660.18z"/>
		<path class="st11" d="M223.1,699.78c-0.35-6.15-0.71-12.31-1.08-18.45c6.92-0.5,13.85-1.01,20.78-1.53
			c32.32,36.9,80.33,40.99,122.17,57.8c8.49,3.41,19.06,1.69,25.11,10.88c-22.96,24.34-46.08-6.18-69.1,0.19
			c-9.67-0.16-19.34-0.32-29.01-0.48c-7.16-10.48-22.97-7.94-29.38-19.54C249.43,719.03,236.27,709.4,223.1,699.78z"/>
		<path class="st28" d="M262.6,728.66c14.08,0.08,28.26-0.01,29.38,19.54C281.1,743.31,254.53,762.02,262.6,728.66z"/>
		<path class="st28" d="M252.47,777.65c-3.07,3.53-6.13,7.05-9.2,10.59c-9.13-7.52-15.7-17.67-2.51-24.63
			C250.07,758.7,250.82,770.78,252.47,777.65z"/>
		<path class="st11" d="M213.13,670.62c0,0-1.57,2.86-1.44,2.82c-1.58-4.74-3.28-9.45-4.96-14.16c2.41,0.15,4.74,0.6,7.02,1.34
			C213.54,663.96,213.33,667.29,213.13,670.62z"/>
		<path class="st11" d="M222.1,680.36c-8.45,1.79-11.28-1.57-8.9-9.71c2.79-2.3,5.84-2.74,9.15-1.31
			C222.27,673.01,222.19,676.69,222.1,680.36z"/>
		<path class="st2" d="M418.56,476.3c9.49-11.76,23.68-12.62,36.84-15.88c7.38-1.65,12.53,1.28,15.99,7.7
			c1.66,14.13,1.55,29.11,17.2,36.76c2.95,2.98,5.42,6.31,7.45,9.96C444.8,545.5,421.87,534.09,418.56,476.3z"/>
		<path class="st18" d="M488.92,509.29c-30.68-1.2-35.15-8.51-20.7-33.85c10.37-1.84,21.44-9.76,30.05,3.49
			c0.34,3.83,0.67,7.67,1.01,11.5c1.96,4.33,1.44,8.41-1.22,12.28l-0.78,1C495.33,506.82,492.54,508.68,488.92,509.29z"/>
		<path class="st23" d="M498.27,478.92c-8.21-16.76-21.57,10.84-30.06-3.49c-4.28-5-8.56-9.99-12.83-15
			c10.58-8.04,22.67-7.92,35.02-6.55C493.04,462.24,495.66,470.58,498.27,478.92z"/>
		<path class="st13" d="M556.75,534.34c-2.93,4.05-6.12,5.34-9.85,0.94C550.19,534.97,553.47,534.65,556.75,534.34z"/>
		<path class="st26" d="M488.92,509.29c2.79-1.86,5.57-3.72,8.36-5.59c-0.41,3.72-0.82,7.44-1.23,11.15
			C492.65,514.29,490.28,512.44,488.92,509.29z"/>
		<path class="st26" d="M498.06,502.71c0.41-4.08,0.82-8.16,1.22-12.26C504.92,495.12,507.31,499.49,498.06,502.71z"/>
	</g>
</g>
</svg>
