<?xml version="1.0" encoding="utf-8"?>
<!-- Generator: Adobe Illustrator 23.1.0, SVG Export Plug-In . SVG Version: 6.00 Build 0)  -->
<svg version="1.1" id="Calque_1" xmlns="http://www.w3.org/2000/svg" xmlns:xlink="http://www.w3.org/1999/xlink" x="0px" y="0px"
	 viewBox="0 0 1125 1258.33" style="enable-background:new 0 0 1125 1258.33;" xml:space="preserve">
<style type="text/css">
	.st0{fill:#196A10;}
	.st1{fill:#299617;}
	.st2{fill:#E19A76;}
	.st3{fill:#218414;}
	.st4{fill:#3BAB27;}
	.st5{fill:#DF9977;}
	.st6{fill:#F2AD88;}
	.st7{fill:#180404;}
	.st8{fill:#F1AA85;}
	.st9{fill:#FCC89F;}
	.st10{fill:#FEE7BC;}
	.st11{fill:#1E630F;}
	.st12{fill:#641C01;}
	.st13{fill:#D48E69;}
	.st14{fill:#C17F5F;}
	.st15{fill:#F4B88F;}
	.st16{fill:#651D01;}
	.st17{fill:#9A6042;}
	.st18{fill:#FAFCFA;}
	.st19{fill:#BE7C5A;}
	.st20{fill:#24140C;}
	.st21{fill:#D08D6C;}
	.st22{fill:#FABF9A;}
	.st23{fill:#732E31;}
	.st24{fill:#311F14;}
	.st25{fill:#2A1D11;}
	.st26{fill:#380F0B;}
	.st27{fill:#FDD7B2;}
	.st28{fill:#FACFA6;}
	.st29{fill:#FAF4EB;}
	.st30{fill:#C47B5D;}
	.st31{fill:#BE7D5E;}
	.st32{fill:#212546;}
	.st33{fill:#B9A296;}
	.st34{fill:#602A26;}
	.st35{fill:#AEA49C;}
	.st36{fill:#8B9B9F;}
	.st37{fill:#2EC251;}
	.st38{fill:#126499;}
	.st39{fill:#091123;}
	.st40{fill:#01017C;}
</style>
<g>
	<g>
		<path class="st0" d="M882.38,186.04c72.6,85.57,116.31,183.24,132.55,295c7.36,50.64,18.25,101.47,65.4,137.85
			c42.45,32.74,40.01,98.36,2.78,135.83c-26.22,26.4-49.12,56.66-81.81,76.21c-23.83,4.53-29.58-20.17-45.76-28.04
			c-24.6-20.88-57.61-13.19-84.91-24.87C826,734.36,805.15,671.34,752.92,633.88c-25.54-29.66-64.33-33.31-96.57-49.76
			c-20.7-10.56-51.81-10.41-53.12-44.64c52.34-34.49,112.46-24.08,167.82-20.21c44.22,3.08,67.89-7.81,82.77-45.75
			c26.39-67.32,37.82-136.31,24.71-208.64C873.8,238.82,859.61,211.19,882.38,186.04z"/>
		<path class="st1" d="M548.02,7.62c41.16-6.38,79.2,9.04,118.5,16.31c30.04,5.55,77.75,35.68,101.61,50.48
			c69.32,72.62,57.49,204.6,7.97,291.83c-34.84,61.37-137.34,91.3-224.53,59.41c-47.81-17.49-88.53-16.95-127.96,15.35
			c-33.49,12.01-60.8-9.83-90.94-16.55c-8.8-3.38-16.81-8.18-24.44-13.63c-50.78-31.19-107.86-42.62-165.39-52.24
			c-20.83-3.48-43.22-0.55-60.2-17.19c11.65-17.54,29.26-23.13,48.97-23.76c15.77-0.51,31.62,0.67,47.33-0.45
			c19.24-1.36,39.3,5.44,57.68-5.41c19.49-11.5,16.05-23.45,18.89-40.14c13.57-79.59,68.3-140.87,122.21-195.25
			c7.64-7.71,35.07-24.8,48.06-29.73c12.19,5.28-3.45,33.28-6.93,46.88c-18.18,30.36-47.71,52.24-64.01,83.95
			c-17.51,34.07-30.75,69.91-4.11,104.62c13.16,17.14,108.82,25.75,127.97,14.69c11.82-6.83,21.5-17.16,34.77-21.82
			c3.85-1.02,7.84-2.07,11.66-1.41c90.5,15.56,107.17,11.01,124.7-34.32c29.06-75.16,6.64-146.76-57.2-185.25
			C573.9,42.66,544.92,40.29,548.02,7.62z"/>
		<path class="st2" d="M870.07,768.18c32.5,7.16,71.12-7.69,96.03,26.73c-17.66,70.78-74.24,107.52-127.65,147.56
			c-10.94,8.2-11.9,24.59-16.43,37.66c-4.01,11.59-11.88,27.18-23.04,23.65c-80.83-25.56-25.33,36.85-36.75,55.55
			c-7.72-0.26-15.43-0.52-23.15-0.77c-23.03,1.07-40.2-23.39-65.01-14.86c-50.11-67.82-88.79-67.99-138.39-0.48
			c-20.11,27.37-34.08,58.24-50.4,87.82c-18.19,32.97-19.68,63.75,4.12,94.16c-98.5,69.22-199.49,17.79-243.68-43.59
			c-6.64-9.22-17.63-15.85-18.45-28.84c16.53-9.48,15.21-30.48,27.56-42.76c53.02-4.22,95.99-30.98,137.48-61.1
			c105.41-14.31,129.01-90.85,136.52-179.59c8.14-13.98,21.8-22.45,33.54-32.74c34.82-30.51,34.15-62.49,7.95-98.59
			c-13.98-19.26-43.26-31.29-33.9-63.39c71.12-28.15,111.02-6.66,121.98,66.11c3.24,21.49,3.65,43.33,6.17,64.84
			c2.6,22.45-10.07,41.79-13.28,63.1c-2.46,16.36-0.58,32.29,14.74,41.98c16.23,10.27,30.42,1.47,43.22-8.24
			c35-26.57,54.17-67.83,87.65-95.71C818.36,788.83,832.77,756.38,870.07,768.18z"/>
		<path class="st3" d="M416.41,437.52c43.77-53.58,58.37-59.8,118.58-35.41c34.49,13.97,65.43,34.54,103.81,11.57
			c7.31-4.37,19.64-1.83,29.37-0.46c56.73,8.01,88.9-27.93,107.23-90.44c18.19-62.02,15.36-122.69-0.57-184.19
			c-6.91-26.69-30.87-49.99-31.56-79.41c24.86,15.23,40.69,29.54,58.77,43.61c30.06,23.39,59.36,49.95,80.34,83.26
			c-2.11,21.78,6.15,41.46,10.7,62.18c16.33,74.46,8.99,147.76-20.68,218.48c-4.38,10.44-2.99,21.75-10.09,32.71
			c-33.21,51.22-32.4,51.58-92.61,33.11c-19.18-5.88-37.64-20.16-56.39,5.51c-9.13,12.5-28.37,7.99-43.76,1.94
			c-21.18-8.33-43.05-18.66-61.98,4.82c-3.72,3.97-8.33,6.01-13.71,6.45c-18.56-2.34-32.75-15.17-49.99-20.73
			c-14.46-6.21-26.26-16.38-38.61-25.74c-20.74-15.8-45.36-24.44-68.05-36.7C426.92,460.18,412.22,455.23,416.41,437.52z"/>
		<path class="st4" d="M548.02,7.62c3.54,12.49,12.61,23.07,24.16,22.54c15.59-0.71,27.15,7.6,37.92,13.8
			c54.98,31.65,77.58,94.19,64.98,161.63c-2.02,10.84-5.68,22.07-8.13,33.43c-12.32,57.05-59.22,78.79-114.33,56.34
			c-12.16-4.95-22.43-17.45-37.93-13.37c-12.62-24.33,7.96-40.92,15.05-60.1c30.82-83.49,3.58-124.53-85.75-126.52
			c-9.87-0.22-19.92,1.2-27.57-7.17c-4.06-7.39-8.13-23.07-12.19-30.47C443.46,16.83,492.28,7.86,548.02,7.62z"/>
		<path class="st5" d="M213.54,628.93c3.5-1.55,7.15-2.1,10.95-1.67c11.23-7.14,21.77-2.24,32.42,1.69
			c15.73,7.19,30.21,15.94,38.72,31.91c10.91,23.07,16.75,47.99,25.8,71.75c11.32,29.72,26.25,22.74,42.06,3.64
			c4.51-3.54,9.58-5.15,15.31-4.66c15.55,7.9,23.52,23.08,34.36,35.55c8.14,11.85,14.23,24.11,6.86,38.69
			c-54.12,28.62-88.03,78.82-129.21,121.36c-22.88,22.84-54.06,25.42-82.75,34.27c-42.68,3.57-84.12,3.04-113.72-35.36
			c-12.24-19.31-41.25-22.24-46.89-48c21.75-20.11,51.37-18.28,77.11-27.13c113-38.83,139.8-99.24,89.23-204.86
			C211.18,640.7,211.51,634.69,213.54,628.93z"/>
		<path class="st6" d="M762.23,1059.35c-1.58-18.03-18.85-24.12-27.9-36.48c-10.39-14.2-9.92-29.14-3.8-44.28
			c6.31-15.6,20.05-16.13,32.64-1.82c5.14,5.84,9.48,12.8,15.63,17.23c14.45,10.39,31.85,2.34,31.24-16.43
			c-1.39-42.38,20.98-62.1,58.01-76.27c27.52-10.53,41.55-42.84,71.14-53.63c4.13-1.51,1.23-10.43-2.59-15.33
			c-6.22-7.97-14.42-12.6-23.73-16.21c-2.6-1.01-4.77-6.12-5.04-9.53c-0.58-7.08,5.26-10.78,10.83-11.1
			c15.77-0.9,31.62-0.48,47.43-0.58c20.49,3.44,19.65,27.74,35.2,36c-0.72,29.53,6.2,60.08-3.41,88.4
			c-25.74,75.88-117.71,164.34-222.24,149.57C770.83,1068.21,766.69,1062.64,762.23,1059.35z"/>
		<path class="st7" d="M94.32,926.11c37.86,15.43,76.91,24.85,118.12,23.38c32.7-13.67,60.54,0.25,89.35,14.02
			c42.44,20.28,86.35,27.94,130.05,3.09c16.69-9.49,41.58-20.98,32.52-42c-7.89-18.3-31.08-3.2-47.47,0.01
			c-8.67,2.71-17.44,4.81-26.38,6.46c-31.49,4.18-67.1,17.67-74.81-32.6c24.93-41.77,66.55-34.94,105.37-36.31
			c31.74,1.63,60.11-14.9,91.16-17.25c13.03,1.66,25.72,3.81,25.44,21.33c-1.38,29.3,2.03,59.82-5.1,87.65
			c-16.61,64.85-63.91,98.43-138.35,105.27c-10.88,5.51-23.6,4.34-34.58,9.52c-31.94,5.68-57.64-10.22-83.93-24.12
			c-22.27-16.98-43.86-34.76-60.87-57.39c-52.21,3.3-99.19-5.75-129.04-54.86c-0.39-0.65,1.63-3.34,3.05-4.35
			C90.34,926.88,92.47,926.69,94.32,926.11z"/>
		<path class="st8" d="M489.4,1225.22c-36.2-13.26-48.66-27.27-35.72-58.21c25.19-60.22,50.87-121.7,99.71-167.83
			c36.69-34.65,71.84-32.9,108.52-1.31c15.35,13.22,19.38,28.44,17.14,47c-5.23,61.16-47.7,92.67-95.49,119.96
			C551.29,1183.59,528.91,1217.75,489.4,1225.22z"/>
		<path class="st9" d="M213.54,628.93c5.98,7.53,10.83,16.46,18.15,22.33c23.16,18.58,32.49,40.47,30.94,71.34
			c-1.77,35.27-14.13,67.71-37.48,88.14c-49.61,43.42-108.24,72.01-177.7,67.37c-34.41-34.49-45.6-77.69-47.02-124.66
			c-0.26-8.48,2.28-14.92,10.09-18.81c41.7,26.03,83.78,43.2,133.22,17.71c48.1-24.8,52.73-54.65,11.2-90.01
			c-13.36-11.38-30.87-18.23-38.77-35.57C149.16,603.09,181.2,622.67,213.54,628.93z"/>
		<path class="st10" d="M116.17,626.78c31.25,3.17,52.27,24.82,73.57,43.79c20.09,17.89,16.95,53.82-2.6,73.45
			c-45.24,45.41-126.17,49.41-174.16,7.87c-3.31-2.87-1.75-11.36-2.46-17.23C19.38,668.07,47.86,638.99,116.17,626.78z"/>
		<path class="st11" d="M82.64,341.37c78.51-6.05,150.86,16.94,222.03,46.32c7.38,3.05,14.73,4.01,16.62,13.12
			c-18.94,19.79-59.16,20.61-54.59,61.32c-2.89,8.17-6.83,14.7-17.25,10.43c-37.88-18.79-80.78-24.49-117.56-46.83
			C99.44,406.02,74.87,383.66,82.64,341.37z"/>
		<path class="st12" d="M583.55,1164.82c29.42-41.9,74.35-71.47,95.49-119.96c12.4-10.53,23.77-26.11,40.11-3.91
			c5.07,6.88,17.94,6.29,19.93,17.62c0.47,19.14,3.87,36.83,9.84,55.85c15.76,50.26-17.49,81.45-69.11,68.02
			c-10.14-2.64-16.44-3.48-26.11,1.06C625.91,1196.54,602.65,1187.21,583.55,1164.82z"/>
		<path class="st13" d="M249.45,472.56c6.51-1.26,11.07-4.19,10.12-11.83c30.14-31.32,30.14-31.32,81.06,5.32
			c34.26,21.54,80.14,29.03,93.27,76.41c-0.53,33.59-17.12,60.32-36.82,85.72c-32.72,5.56-56.29-15.52-82.72-28.5
			c-7.92-15.41-7.51-32.21-8.27-48.81c-2.2-12.89,2.52-31.8-13.44-35.19c-16.69-3.54-18.97,15.75-24.47,27.39
			c-4.16,8.79-5.33,18.74-8.73,27.97c-6.58,13.49-14.5,25.01-32.29,21.79C225.33,551.02,236.42,511.61,249.45,472.56z"/>
		<path class="st14" d="M214.84,987.17c31.17,0.66,43.1,26.87,60.63,45.64c-7.28,10.29-18.01,12.18-29.44,12.23
			c-9.31,0.98-22.49-10.97-26.55,8.09c-8.04,14-19.99,5.19-30.4,5.36c-3.74-4.01-9.38-7.41-10.91-12.13
			c-13.21-40.95-12.96-40.89,29.19-51.02C210.34,994.62,212.37,989.98,214.84,987.17z"/>
		<path class="st15" d="M189.07,1058.48c7.66-22.91,15.92,2.6,23.84-0.29c20.18,14.87,42.22,28.6,36.54,59.38
			c1.88,3.19,3,7.62,5.78,9.33c7.65,4.68,20.87,5.42,15.95,18.81c-2.88,7.84-12.44,7.73-20.41,7.41c-7.82-0.31-15.66-0.23-23.5-0.33
			C211.92,1122.41,189.17,1095.03,189.07,1058.48z"/>
		<path class="st13" d="M227.17,592.83c10.52-5.85,19.41-13.16,22.72-25.46c32.54,7.48,23.96,31.29,21.09,52.9
			c-3.75,9.48-11.12,15.3-19.95,19.65c-8.85-4.22-17.69-8.44-26.54-12.66C225.38,615.79,226.27,604.31,227.17,592.83z"/>
		<path class="st16" d="M870.07,768.18c-49.02,17.81-76.05,60.06-106.09,98c-20.84,26.31-40.85,52.45-72.14,66.64
			c-22.99,10.43-35.69,5.3-48.66-16.11c-21.86-36.08-5.72-67.01,12.27-97.88c5.88-15.74,16.4-27.6,30.32-36.67
			c33.27-21.35,49.66-53.28,56.92-90.96c7.92-21,0.45-46.91,20.4-64.01C815.64,661.37,841.5,715.8,870.07,768.18z"/>
		<path class="st17" d="M763.08,627.2c-0.07,18.71-0.25,37.42-0.15,56.13c0.04,8.52-3.89,13.8-11.78,16.44
			c-21.33-55.29-69.14-76.18-120.05-94.34c-21.46-7.65-47.94-6.45-61.9-30.05c-0.44-18.34,16.3-21.91,26.65-30.98
			c3.92-0.22,7.83-0.09,11.72,0.39c32.37,23.23,70.66,34,107.51,45.56C737.78,597.47,752.34,608,763.08,627.2z"/>
		<path class="st18" d="M416.42,88.2c14.96-3.51,28.5-10.54,44.87-11.06c66.85-2.11,110.19,49.44,94.79,114.84
			c-7.72,32.78-25.24,61.09-41.39,90.01c-11.17,11.03-21.42,23.24-33.75,32.77c-14.14,10.93-28.04,15.67-48.26,6.34
			c-20.48-9.45-43.93-18.03-67.89-15.63c-29.63,2.97-37.18-17.84-41.7-38.84c-8.7-40.42,0.69-79.46,25.42-111.1
			C367.9,130.74,382.28,98.84,416.42,88.2z"/>
		<path class="st19" d="M572.74,567.01c0.42,6.28,3.42,13.04,9.33,12.72c46.52-2.54,83.88,25.59,125.01,39.43
			c31.71,10.67,51.61,41.53,44.07,80.62c-0.41,43.96-23.49,73.52-60.04,94.53c-14.72-17.48-2.17-33.32,3.07-49.54
			c17.87-55.37,7.6-79.18-46.72-101.34c-41.91-17.09-84.41-32.7-125.05-52.76c-24.49-28.93-55.66-44.42-93.59-46.27
			c-23.45-35.1-58.24-52.05-97.9-61.22c-4.62-23.69-20.13-47.43,0.26-71.03c32.81-6.3,54.56,24.52,85.23,25.38
			c1.38,15.17,23.63,7.65,24.91,22.92c7.26,43.94,51.01,16.07,70.54,35.84c11.91,8.02,23.83,16.04,35.74,24.06
			C560.33,533.56,588.02,538.72,572.74,567.01z"/>
		<path class="st20" d="M331.18,412.14c-0.09,23.68-0.18,47.35-0.26,71.03c-31.49-42.44-32.84-42.86-71.34-22.45
			c-15.13-6.43-13.04-20.31-7.44-29.11c9.06-14.23,18.97-30.4,39.78-30.64c9.8-0.11,19.59-0.12,29.39-0.17
			C322.13,406.73,323.83,411.9,331.18,412.14z"/>
		<path class="st21" d="M524.37,580.12c42.74,15.96,85.25,32.58,128.3,47.69c35.13,12.33,60.22,31.27,69.38,70.74
			c3.27,14.09-1.71,20.79-4.9,31.5c-6.67,22.39-27.06,39.03-26.04,64.24c-11.89,8.18-23.77,16.36-35.66,24.53
			c-12.4-16.54-13.24-35.5-12.06-55.11c0.7-11.67,1.48-23.61-0.14-35.1c-5.3-37.61-22.98-53.96-61.22-52.21
			c-15.1,0.69-35.95-13.08-45.89,11.26c-5.13,2.82-10.14,2.75-15.02-0.64c-4.67-7.19-5.65-15.11-4.66-23.41
			c7.69-23.18,1.79-46.51,0.44-69.82C517.9,588.44,520.41,583.88,524.37,580.12z"/>
		<path class="st22" d="M526.29,688.29c3.27-0.43,6.55-0.64,9.85-0.61c24.73,12.98,42.9,33.76,58.26,55.7
			c22.92,32.75,18.66,64.44-10.22,92.51c-13.23,12.86-22.33,33.69-46.51,30.35c-4.54-11.83-15.14-12.48-25.4-13.76
			c-0.68-39.98,16.46-81.1-7.81-119.6C502.86,713.66,507.46,697.47,526.29,688.29z"/>
		<path class="st23" d="M249.45,1117.57c-7.16-22.88-38.03-31.17-36.54-59.38c0.16-3.83,0.11-7.69,0.52-11.49
			c1.24-11.51-19.38-22.09-7.77-29.84c11.79-7.87,17.64,15.45,30.72,17.15c38.57,13.66,75.31,36,119.06,25.09
			c12.93,0.02,25.85,0.05,38.78,0.07c-4.23,3.62-9.17,6.68-12.6,10.95C347.2,1112.97,301.84,1124.97,249.45,1117.57z"/>
		<path class="st24" d="M511.87,496.28c-17.69-0.12-35.66,1.62-53-0.92c-14.68-2.16-32.26,17.43-39.69,3.31
			c-7.32-13.91,18.67-22.51,22.15-38.23C469.68,462.87,491.15,478.82,511.87,496.28z"/>
		<path class="st25" d="M572.74,567.01c2.01-21.15-20.18-29.26-25.13-46.67c23.2-6.26,30.41,19.54,48.23,24.06
			C596.57,560.56,591.75,571.03,572.74,567.01z"/>
		<path class="st26" d="M321.36,902.79c10.75,23.28,25.92,31.45,49.82,16.31c5.87-3.72,14.42-3.21,21.74-4.65
			c6.55,5.38-0.65,21.49,13.44,19.77c10.18-1.25,15.9-8.89,10.16-20.23c11.94-23.75,42.1-1.6,56.12-22.1
			c1.98-2.89,13.02,0.58,13.67,6.66c2.24,20.85,8.65,42.93-11.89,59.6c-39.47,32.03-83.66,49.2-134.48,37.24
			c-22.01-5.18-47.26-11.93-62.5-26.74c-20.32-19.75-42.08-17.51-64.99-19.16c5.24-10.05,14.64-10.13,24.28-10.87
			c19.15-1.48,36.14-8.24,49.38-22.81C296.58,908,305.2,895.19,321.36,902.79z"/>
		<path class="st27" d="M508.99,733.82c31.42,24.34,35.05,54.39,18.21,88.63c-4.93,10.03-9.96,20.02-14.94,30.03
			c-25.16,15.79-51.31,28.12-82.29,23.74c-20.06-19.9-32.72-41.29-13.95-69.04c5.05-14.78-6.36-35.62-8.93-48.01
			c8.54-11.74,19.18-2.76,32.18-5.73c16.84-1.77,35.5,4.34,49.14-11.46C494.39,736.99,500.76,733.03,508.99,733.82z"/>
		<path class="st28" d="M321.43,604.16c11.3-5.17,21.63-11.54,34.31-0.57c11.04,9.55,24.58,16.2,37.02,24.13
			c14.03-9.1,22.84-5.18,26.88,10.73c-23.75,28.01-9.36,68.44-31.67,97.07c-3.56-0.31-14.48-0.68-18.02-1.11
			c-26.77-21.21-55.65-40.43-69.87-73.63C299.36,638.94,303.82,619.06,321.43,604.16z"/>
		<path class="st29" d="M382.95,723.55c0.09-19.87,0.63-39.76,0.17-59.62c-0.58-24.91,11.65-36.35,35.91-36.27
			c12.12-2.43,17.66,5.2,22.2,14.43c5.94,35.1,20.03,69.66,10.03,105.06c-6.71,20.35-26.84,12.72-44.17,12.02
			C390.84,752.86,382.43,741.23,382.95,723.55z"/>
		<path class="st30" d="M416.03,807.19c-3.21,24.6,15.81,44.71,13.95,69.04c-17.69,0.87-35.43,2.9-53.07,2.3
			c-22.85-0.77-42.18,4.33-55.54,24.26c-12.75,1.64-21.06,15.29-35.25,13.02c27.49-45.13,71.35-75.05,105.8-113.72
			C402.07,790.68,407.31,808.48,416.03,807.19z"/>
		<path class="st31" d="M308.28,663.29c18.66,25.34,59.5,31.45,61.67,71.1c-0.16,1.93-0.58,3.88-0.45,5.79
			c1.25,18.61-2.08,36.21-22.42,41.19c-7.18,1.76-16.57-7.84-25.49-10.38c-16.34-4.66-10.84-17.69-12.38-28.28
			c-4.03-27.87-23.51-51.39-22.87-80.61C293.99,656.39,301.3,656.73,308.28,663.29z"/>
		<path class="st32" d="M308.28,663.29c-7.31-0.4-14.63-0.79-21.94-1.19c-8.3-12.93-16.47-11.18-28.29-18.49
			c1.95-8.76,1.95-12,2.25-17.6c14.32-14.56,3.32-33.34,8.21-49.31c7.88-25.79,18.44-48.41,52.26-30.83
			c0.22,19.43,0.45,38.86,0.67,58.29C323.62,625.33,310.44,643.09,308.28,663.29z"/>
		<path class="st33" d="M355.43,1059.1c-49.22,21-77.77,14.98-119.06-25.09c13.03-0.4,26.06-0.8,39.09-1.2
			C303.22,1038.23,325.23,1061.12,355.43,1059.1z"/>
		<path class="st34" d="M416.52,913.99c5.89,0.11,11.79,0.04,17.67,0.4c3.78,0.23,8.13,0.08,11.18,1.88
			c9.37,5.54,0.44,9.95-2.35,12.79c-10.84,11.05-27.58,13.11-38.13,25.88c-8.04,9.73-22.02,12.21-31.05,2.5
			c-12.09-13.01,4.42-19.57,10.17-28.37c3.12-4.77,5.95-9.73,8.91-14.6C400.79,914.3,408.66,914.15,416.52,913.99z"/>
		<path class="st35" d="M429.8,652.8c-1.95-6.8-5.19-12.32-13.11-13.18c-15.11-2.91-23.28-2.62-33.55,20.9
			c2.62-31.84,38.16-113.52,45.68-116.12c50.42-20.71,50.42-20.71,95.56,35.73c-0.26,4.16-0.52,8.32-0.78,12.48
			C486.32,603.31,460.63,632.05,429.8,652.8z"/>
		<path class="st36" d="M320.76,545.87c-32.6-1.06-43.09,18.93-47.41,47.22c-1.73,11.28,8.53,29.03-13.06,32.93
			c-3.81-19.48-12.35-28.45-10.41-58.64c-3.62-20.13,5.16-37.29,14.77-53.37c6.54-10.94,16.07-26.99,28.01-24.48
			c10.74,2.25,20.8,16.69,27.1,28.01C323.86,524.88,320.68,536.28,320.76,545.87z"/>
		<path class="st37" d="M431.72,294.47c-75.32-7.7-82.64-17.63-59.83-89.49c8.87-27.94,21.62-54.76,34.13-81.37
			c3.92-8.35,12.02-15.53,19.81-20.92c3.98-2.75,12.29-2.12,17.29,0.07c11.31,4.93,3.25,11.62,0.43,18.15
			c-13.22,30.59-32.95,58.1-40.68,91.46c-2.83,12.22-11.26,21.35,9.38,23.15c9.53,0.83,18.8,8.14,28.06,7.88
			c28.78-0.79,25.8,17.23,23.33,35.72C460.79,300.37,445.04,294.92,431.72,294.47z"/>
		<path class="st38" d="M429.8,652.8c0.75-3.18,3.39-10.68,4.1-12.03c18.08-34.14,62.25-85.97,89.69-48.17
			c13.49,23.31,13.54,65.47,2.7,95.69c-16.24-1.96-26.61-54.26-45.98-35.89c-15.64,14.83-13.32,36.15-11.32,56.2
			c1.81,18.19,19.36,24.23,27.76,37.26c-18.42,31-20.91,31.61-56.08,13.82C420.96,725.69,429.27,688.85,429.8,652.8z"/>
		<path class="st39" d="M496.74,745.87c-40.08-4.84-43.08-6.36-43.72-36.98c-0.4-18.97-3.98-38.19,4.96-57.19
			c17.11-36.37,38.66-40.4,62.1-9.2c4.31,5.74,6.23,13.79,6.87,21.76c-0.22,8.01-0.44,16.02-0.66,24.03
			c-5.77,15.18-10.18,26.79-15.95,41.97C506.33,737.13,500.83,741.86,496.74,745.87z"/>
		<path class="st40" d="M480.79,687.62c10.95-0.83,18.82,2.33,19.21,14.79c0.3,9.79-0.1,19.28-13.23,20.54
			c-13.05,1.25-22.39-1.99-22.27-17.54C464.59,694.36,468.99,687.52,480.79,687.62z"/>
	</g>
</g>
</svg>
