<?xml version="1.0" encoding="utf-8"?>
<!-- Generator: Adobe Illustrator 23.1.0, SVG Export Plug-In . SVG Version: 6.00 Build 0)  -->
<svg version="1.1" id="Calque_1" xmlns="http://www.w3.org/2000/svg" xmlns:xlink="http://www.w3.org/1999/xlink" x="0px" y="0px"
	 viewBox="0 0 1125 1208.42" style="enable-background:new 0 0 1125 1208.42;" xml:space="preserve">
<style type="text/css">
	.st0{fill:#FDE93C;}
	.st1{fill:#A78131;}
	.st2{fill:#FBE139;}
	.st3{fill:#AE9864;}
	.st4{fill:#A29161;}
	.st5{fill:#EBD4C0;}
	.st6{fill:#FBD033;}
	.st7{fill:#AA8229;}
	.st8{fill:#F8CC2F;}
	.st9{fill:#E9B72F;}
	.st10{fill:#AE8423;}
	.st11{fill:#D3BAA6;}
	.st12{fill:#F1C830;}
	.st13{fill:#F8E456;}
	.st14{fill:#D5A62A;}
	.st15{fill:#FAEBD7;}
	.st16{fill:#E3B12C;}
	.st17{fill:#FEFDBC;}
	.st18{fill:#F8ECA0;}
	.st19{fill:#F1DE93;}
	.st20{fill:#CBA22D;}
	.st21{fill:#CC9D27;}
	.st22{fill:#705D28;}
	.st23{fill:#C9B26F;}
	.st24{fill:#C3AE73;}
	.st25{fill:#8A8050;}
	.st26{fill:#782940;}
	.st27{fill:#F9E9D6;}
	.st28{fill:#DDC986;}
	.st29{fill:#EDD993;}
	.st30{fill:#C3AF9F;}
	.st31{fill:#FEE739;}
	.st32{fill:#DC1564;}
	.st33{fill:#D7BF7D;}
	.st34{fill:#E7B529;}
	.st35{fill:#FEFEBE;}
	.st36{fill:#FBEEA6;}
	.st37{fill:#EBD58F;}
	.st38{fill:#FEFBEA;}
	.st39{fill:#695A44;}
	.st40{fill:#B2A366;}
	.st41{fill:#DFC984;}
	.st42{fill:#E8B652;}
	.st43{fill:#A3945C;}
	.st44{fill:#DBC583;}
	.st45{fill:#EED993;}
	.st46{fill:#DCC882;}
	.st47{fill:#B21851;}
	.st48{fill:#FBEDA2;}
	.st49{fill:#584B39;}
	.st50{fill:#736A82;}
	.st51{fill:#E9E3E0;}
	.st52{fill:#EFDC94;}
	.st53{fill:#F0E9E6;}
	.st54{fill:#8E7FA1;}
</style>
<g>
	<g>
		<path class="st0" d="M82.33,705.88c21.52-34.77,38.28-72.66,67.29-102.52c18.84-8.51,28.37,6.31,40.05,15.86
			c6.94,7.51,12.4,15.92,15.02,25.9c0.81,4.7,0.86,9.48,0.22,14.21c-1.88,8.78-5.06,17.25-7.82,25.78c-1.21,4-2.84,7.89-4.65,11.66
			c-2.63,5.41-5.51,10.75-8.22,16.15c-1.6,3.6-3.52,7.04-5.5,10.43c-2.73,5.27-5.32,10.61-7.77,16.08
			c-1.58,3.91-3.41,7.63-5.29,11.38c-2.62,6.16-5.14,12.3-7.76,18.52c-1.78,4.66-3.84,9.06-6.03,13.51
			c-18.36,37.06-32.36,75.55-45.64,114.68c-14.92,43.97-31.61,89.07-80.31,109.29C11.19,994.08,6.31,976.62,2.8,958.5
			c-6.77-14.82-6.51-29.5,0.84-44.05c-0.96-33.34,18.58-61.34,24.23-92.96c6.25-6.79,3.94-17.23,10.25-24
			c0.1-3.09,0.29-6.17,0.56-9.25c6.35-6.8,4.44-17.48,11.29-24.04l0.31,0.49c6.19-6.72,4.63-16.97,10.77-23.72l-0.12,0.9
			C69.61,730.8,67.56,713.34,82.33,705.88z"/>
		<path class="st1" d="M869.41,490.56c8.88-16.05,20.76-10.19,33.84-5.88c53.73,17.71,87.27,58.57,113.19,104.49
			c49.55,87.78,84.14,182.75,102,281.28c10.83,59.78,11.09,124.27-21.3,181.51c-13.18,23.3-13.31,49.84-21.91,74.25
			c-16.74,47.54-52.59,85.86-125.3,81.94c-4.33-0.23-8.33-6.54-12.48-10.02c11.36-16.25,32.4-21.36,43.42-38.02
			c38.31-49.33,52.07-105.74,56.9-167.47c11.53-147.42-30.08-282.56-87.39-414.79c-2.3-4.83-4.35-9.87-6.39-14.78
			c-1.31-2.2-2.49-4.56-3.84-6.74C924.45,525.97,887.11,518.77,869.41,490.56z"/>
		<path class="st2" d="M883.81,1151.88c-13.85-15.79-13.77-35.62-15.93-54.81c-30.22-52.58-3.87-106.12-2.8-159.2
			c1.17-38.51,0.79-77.05,0.51-115.55c0.36-12.37-2.83-24.24-5.69-36.15c-3.76-18.37-4.27-36.67,1.43-54.83
			c6.9-18.04,16.05-34.46,32.99-45.2c26.91-11.36,40.36,5.87,47.13,26.35c40.83,123.59,62.82,249.24,26.62,377.91
			c-10.23,36.36-27.56,71.59-74.92,72.57l-0.21-0.2C889.32,1159.63,886.27,1156,883.81,1151.88z"/>
		<path class="st3" d="M880.31,935.12c0.9,54.37-15.8,107.39-12.43,161.95c-7.61-1.69-14.64-1.64-20.59,4.73
			c-44.42,47.54-100.26,65.86-163.96,75.38c-45.22,6.76-89.86,9.75-134.41,7.01c-41.62-2.56-84.63-2.7-124.25-20.18
			c29.79-23.54,65.75-24,99.98-21.09c34.23,2.91,66.16,0.29,97.54-12.61c129.6-42.78,206.65-128.13,216.97-267.64
			c2.7-5.07,6.75-8.64,12.05-10.77c5.75,0.19,10.25,2.77,13.65,7.35C877.3,883.03,860.28,912.84,880.31,935.12z"/>
		<path class="st4" d="M891.22,399.64c-0.03,12.86-9.85,20.9-18.31,25.84c-29.52,17.22-24.23,40.05-13.74,64.78
			c-4.97,66.05,29.94,130.38,8.63,197.15c-2.34,5.42-6.1,9.64-11.14,12.69c-5.29,12.56-20.5-17.45-29.02,10.02
			c-8.6,27.69-35.3,27.18-53.45-0.27c2-115.8,3.94-231.58-78.63-327.09c2.5-13.39,13.02-17.76,24.1-21.52
			c27.32-1.27,42.56,21.99,64.49,31.7c19.56,12.89,39.72,15.67,61.87,6.01C860.71,392.54,876.4,384.82,891.22,399.64z"/>
		<path class="st5" d="M286.42,1118.99c-36.88-13.52-74.51-25.74-100.33-58.3c31.47-26.43,69.9-11.26,104.68-17.62
			c44.09,17.11,88.32,28.92,133.13,1.84c37.45,15.76,72.43-1.34,108.32-7.89c26.99-4.93,51.82-20.91,80.82-15.89
			c17.59,8.89,22.29,25.81,26.92,42.84c1.88,12.53,0.63,24.38-7.61,34.69C519.91,1153.85,403.91,1149.26,286.42,1118.99z"/>
		<path class="st6" d="M516.79,3.07c7.57-0.32,15.15-0.65,22.72-0.97c80.29,73.42,136.36,157.87,124.48,273.35
			c-4.03,12.15-11.06,21.95-22.21,28.55c-34.93,12.26-71.18,9.14-107.16,9.03c-30.03-13.63-18.36-29.85-4.49-48.78
			c40.64-55.47,37.59-100.18-9.9-151.13c-18.01-19.33-39.2-35.99-44.63-63.98c-1.38-16.07,8.75-26.46,18.28-37.16l-0.44-0.33
			C500.33,6.36,509.64,7.67,516.79,3.07z"/>
		<path class="st7" d="M778.2,400.1c-27.37,3-33.91-27.18-54.84-34.44c-17.12-11.29-20.54-29.76-25.17-47.64
			c-3.41-20.94-3.1-42.08-2.96-63.19c-3.37-61.22-21.91-118.35-46.42-173.97c-8.1-18.37-25.54-34.07-17.75-57.41
			c59.78,23.7,93.61,71.54,112.6,129.31c18.22,55.42,15.99,68.91,3.14,115.45c18.25,13.28,39.32,3.84,58.75,5.43
			c23.91,1.95,48.67-0.55,63.83,23.91C827.95,321.91,806.8,364.31,778.2,400.1z"/>
		<path class="st8" d="M893.15,1162.98c81.5-55.42,84.74-138.71,74.38-223.39c-2.69-22.01-6.89-44.39-5.67-66.19
			c3.42-61.25-22.44-115.51-37.85-172.2c-5.14-18.91-19.04-10.96-30.57-5.09c-12.4-17.82-2.82-30.82,9.42-43.28
			c29.43-19.02,46.51-1.88,58.03,22.29c18.63,39.11,34.25,79.17,41.74,122.66c14.89,86.46,11.41,173.4,3.94,259.46
			c-4.34,49.99-23.74,99.57-72.18,128.78c-6.16,3.65-12.28,3.56-18.34-0.26C904.32,1182.28,896.61,1174.75,893.15,1162.98z"/>
		<path class="st9" d="M631.06,23.44c25.41,43.96,53.97,84.64,60.22,139.26c3.3,28.8,23.6,56.98,18.47,89.64
			c-16.48,12.79-31.89,28.19-55.8,22.73c7.47-93.79-36.75-167.22-93.15-235.71c-9.33-11.33-23.72-19.38-21.3-37.27
			c27.98-6.24,53.66,2.5,79.2,12.14c4.48,2.61,8.62,5.66,12.38,9.23L631.06,23.44z"/>
		<path class="st10" d="M904.46,661.83c-3.28,11.55-15.04,20.38-11.03,34.28c-8.4,11.06-9.17,27.07-22.62,34.85
			c-12.58-8.66-13.53-21.29-11.9-34.81c-2.47-56.33,8.44-113.85-21.21-167.51c-9.14-16.55,3.17-31.67,21.47-38.38
			c3.42-0.22,6.84-0.11,10.24,0.3c32.09,11.66,63.11,24.82,80.42,57.24c-8.27,24-15.72,48.24-21.18,73.09
			C925.36,637.37,912.12,647.95,904.46,661.83z"/>
		<path class="st11" d="M286.42,1118.99c35.37,0.13,69.83-2.79,105.84,7.49c30.43,8.69,65.86,0.38,98.22-2.47
			c41.48-3.65,83.89-11.8,123.25-28.95c4.81-2.1,11.26-0.44,16.95-0.53c7.19,5.86,9.92,13.75,10.37,22.7
			c-0.37,9.01-4.2,16.49-10.26,22.97c-34.36,19.76-69.04,34.51-108.92,13.81c-10.28-5.33-20.78-0.1-31.37,4.97
			c-20.83,9.97-44.02,0.7-65.84,5.02C375.37,1158.89,327.07,1150.68,286.42,1118.99z"/>
		<path class="st12" d="M25.92,1006.83c15.1-30.97,48.3-49.4,56.95-85.91c2.61-11.02,10.06-21.86,13.29-34.69
			c11.03-43.8,25.23-86.86,56.23-121.74c7.22,6.32,10.13,14.6,10.91,23.85c-22.59,68.69-45.24,137.4-17.25,210.32
			c0.32,6.16-1.54,11.6-5.49,16.32C101.03,1030.78,61.04,1052.97,25.92,1006.83z"/>
		<path class="st13" d="M493.88,11.97c3.78,13.97-8.07,22.87-11.23,34.58c-63.6,52.22-81.72,123.31-83.36,201.18
			c-9.36,26.24,10.39,48.32,10.63,73.23c-1.04,5.35-3.5,9.92-7.34,13.78c-8.17,3.35-15.65,2.67-22.15-3.74
			c2.09-25.77-19.36-42.81-24.11-66.88c-7.65-38.78-8-76.68-0.83-115.11c22.95-58.43,54.94-109.01,116.88-133.06
			C479.06,13.37,486.69,13.24,493.88,11.97z"/>
		<path class="st14" d="M778.2,400.1c9.29-57.57,43.51-96.06,91.19-102.57c26.36,29.96,48.65,60.78,21.83,102.11
			c-15.58-1.17-27.81,3.86-41.36,13.1C822.86,431.13,806.64,426.52,778.2,400.1z"/>
		<path class="st15" d="M140.56,1014.98c-0.01-3.75-0.04-7.5-0.09-11.25c-5.78-6.98-5.35-14.69-2.71-22.66
			c29.61-9.29,61.71-1.8,91.01-13.44c28.05,23.6,57.85,45.71,71.35,82c-3.35,11.12-12.04,11.13-21.46,11.05
			c-30.85-0.26-61.71-0.03-92.57,0c-15.79-7.99-26.66-20.79-35.14-35.94c-3.24-3.25-6.58-6.38-10.01-9.42L140.56,1014.98z"/>
		<path class="st16" d="M916.04,1185.76c3.6-0.13,7.19-0.17,10.79-0.13c21.96-6.31,29.08-39.32,58.39-32.43
			c5.73,7.45,5.37,14.55-1.23,21.28c-7.17,24.31-27.37,22.99-46.55,23.66C928.59,1196.97,919.05,1197.02,916.04,1185.76z"/>
		<path class="st9" d="M516.79,3.07c-4.47,11.89-14.32,9.1-23.35,8.57C498.21,0.58,507.21,1.05,516.79,3.07z"/>
		<path class="st12" d="M140.94,1015.33c5.88,0.44,9.86,2.89,10.01,9.42C145.11,1024.27,141.47,1021.45,140.94,1015.33z"/>
		<path class="st7" d="M631.08,23.47c-6.56,0.18-10.48-3.17-12.38-9.23C626.16,12.85,629.78,16.6,631.08,23.47z"/>
		<path class="st8" d="M883.81,1151.88c6.06,1.11,8.81,4.99,9.13,10.9C886.78,1161.76,882.27,1159.35,883.81,1151.88z"/>
		<path class="st17" d="M153.68,570.25c-11.95-59.83,15.58-107.3,53.8-146.84c37.52-38.81,81.82-71.13,137.76-81.05
			c73.72,26.16,98.12,85.32,60.41,147.79c-49.09,81.32-109.8,143.98-216.1,131.15c-13.7-9.71-17.02-24.31-15.22-39.34
			C177.04,559.25,159.01,576.66,153.68,570.25z"/>
		<path class="st18" d="M186.9,615.83c38.91-2.3,75.25-15.56,111.66-27.63c11.78-3.91,25.18-8.45,32.89-20.24
			c23.24-35.51,52.76-66.39,73.28-104.14c13.79-25.36,15.77-47.41-8.41-64.09c-22.22-15.33-23.47-47.9-51.08-57.36
			c8.36-14.23,23.06-8.83,35.2-11.36c7.38,0.03,14.76,0.06,22.14,0.09c36.11-3.23,49.14,23.83,63.94,48.63
			c-2.83,52.71-32.33,101.13-25.23,155.53c-39.25,62.23-92.24,106.27-164.88,124.39c-5.71,2.05-11.54,3.33-17.53,4.16
			c-21.7,1.43-43.57,3.49-60.53-14.59c-3.92-7.28-7.83-14.56-11.75-21.84c-3.69-2.67-4.87-5.27-3.55-7.8
			C184.34,617.08,185.62,615.83,186.9,615.83z"/>
		<path class="st19" d="M186.9,615.83c-0.1,3.85-0.21,7.7-0.31,11.55c-12.32-8.01-24.64-16.01-36.96-24.02
			c1.35-11.04,2.71-22.08,4.06-33.11c9.06-6.01,18.12-12.01,33.22-22.02C186.9,573.41,186.9,594.62,186.9,615.83z"/>
		<path class="st20" d="M198.34,649.22c22.69,0.81,45.37,1.62,68.06,2.43c1.88,9.63-3.96,14.88-10.96,19.5
			c-26.33,9.02-30.82,34.08-41.75,55.08c-13.78,26.49-20.41,61.27-60.7,62.51c-0.2-8.08-0.41-16.16-0.61-24.25l0.07-0.11
			c6.97-5.97,4.54-16.64,11.33-22.7l0.05-0.07c6.73-6.11,4.67-16.59,11.31-22.75l0.05-0.07c6.78-6.12,4.77-16.54,11.18-22.83
			l0.07-0.08c10.91-9,1.12-24.93,11.42-34.14C198.02,657.56,198.18,653.39,198.34,649.22z"/>
		<path class="st12" d="M197.86,661.73c-2.64,11.77,7.49,27.81-11.42,34.14C189.02,684.08,178.85,668.03,197.86,661.73z"/>
		<path class="st12" d="M163.79,741.67c-0.33,9.29,2.18,19.99-11.33,22.7C152.6,755,149.84,744.16,163.79,741.67z"/>
		<path class="st12" d="M175.14,718.86c-0.35,9.28,2.16,19.99-11.31,22.75C163.97,732.22,161.23,721.4,175.14,718.86z"/>
		<path class="st12" d="M186.38,695.96c-0.23,9.32,2.38,20.04-11.18,22.83C175.34,709.42,172.75,698.72,186.38,695.96z"/>
		<path class="st21" d="M983.99,1174.47c0.01-7.59,0.02-15.17,0.03-22.76c-0.31-2.61-0.62-5.22-0.97-7.84
			c-0.76-13.55,1.71-26.67,5.42-39.65c32.56-138.48,30.81-275.49-20.03-409.57c-11.18-29.49-23.84-59.86-52.66-78.37
			c-1.6-20.32,14.8-36.33,12.63-57.64c-1.1-10.78,12.48-10.3,21.42-10.85l0.06,0.06c3.49,4.07,7.28,7.83,11.3,11.38
			c4.62,39.08,26.99,72.38,40,108.3c18.9,52.19,29.82,106.21,47.64,158.34c3.51,10.26,3.32,22.08,3.38,33.18
			c0.31,54.79,5.24,110.2-1.29,164.2C1044.2,1078.75,1033.31,1136.13,983.99,1174.47z"/>
		<path class="st10" d="M961.19,559.24c-6.77-0.81-10.56-4.58-11.3-11.38C956.68,548.65,960.45,552.43,961.19,559.24z"/>
		<path class="st22" d="M858.91,696.15c19.17,6.41,7.85,23.24,11.9,34.81c0.29,18.74,0.59,37.49,0.88,56.23
			c4.58,8.33,3.84,17.45,3.91,26.45c-5.98,13.85,14.61,38.25-16.69,42.04l-0.45-0.44c-23.35-33.76-21.42-74.67-31.86-112.12
			c-3.47-25.32,9.15-39.68,32.11-46.95L858.91,696.15z"/>
		<path class="st4" d="M858.91,855.68c22.11-10.51,6.13-31.27,12.39-46.05c3.21-5.09,6.14-4.69,8.83,0.45
			c0.06,41.68,0.13,83.36,0.19,125.04c-12.24,0.06-21.97-2.38-21.63-18C859.14,896.65,858.87,876.16,858.91,855.68z"/>
		<path class="st23" d="M880.12,810.08c-2.94-0.17-5.88-0.32-8.83-0.45c0.13-7.48,0.27-14.96,0.4-22.44
			C883.67,791.44,881.01,801.09,880.12,810.08z"/>
		<path class="st23" d="M630.79,1140.21c0.07-7.56,0.15-15.12,0.22-22.68c6.62-25.04,25-40.93,43.36-57.29
			c35.8-31.9,66.99-67.1,75.16-116.92c3.5-15.61,13.74-27.88,20.5-41.88c5.59-58.14,25.7-120.36-45.3-156.38
			c-4.22-4.63-5.6-9.94-4.2-16.05c4.31-4.41,9.36-7.48,15.18-9.41c18.89-6.46,36.18,0.57,53.62,6.27
			c56.18,26.67,62.5,75.73,58.12,129.58c-2.27,38.79,1.87,76.55-16.21,115.38c-28.09,60.3-71.88,101.7-125.33,137.21
			C682.38,1123.66,661.96,1143.63,630.79,1140.21z"/>
		<path class="st4" d="M847.43,855.45c-0.18-50.37-23.14-90.33-57.21-125.22c18.89-11.1,33.98-6.8,45.69,11.25
			c17.67,35.9,24.49,73.96,22.54,113.75C854.78,855.43,851.11,855.5,847.43,855.45z"/>
		<path class="st24" d="M699.28,376.72c14.81,28.21,42.36,45.92,58.14,74.29c21.61,38.86,30.14,70.21,22.38,118.26
			c-2.06,12.74,2.36,25.24,4.99,38.02c6.82,33.19,15.68,68.03-5.88,100.15c-25.23,15.7-40.8,6.79-49.59-19.41
			c38.73-93.73,3.45-178.58-32.93-262.75c-8.66-20.03-29.61-35.24-21.03-61.13C687.89,359.66,699.3,357.32,699.28,376.72z"/>
		<path class="st25" d="M733.01,684.86c7.8,22.77,26.41,23.57,45.9,22.58c39.85,18.97,39.85,18.97,50.18-30.39
			c8.77,8.24,13.4,22.79,29.62,19.12c-12.97,12.4-30.45,22.54-22.78,45.32c-13.91-9.11-28.95-13.63-45.69-11.25
			c-18.92-0.09-37.85-0.19-56.77-0.28c-31.38-12.81-50.33-38.26-67.2-65.9c-8.95-17.44-18.51-34.99,3.17-50.5
			c12.53-1.34,19.18,7.28,26.16,15.34c3.3,3.89,6.36,8.02,9.37,12.14c1.63,1.92,3.12,3.98,4.75,5.9
			C718.56,658.88,731.29,668.52,733.01,684.86z"/>
		<path class="st26" d="M699.28,376.72c-3.85-11.51-13.44-11.19-22.91-11.11c-8.35-2.06-13.71-7.18-15.94-15.54
			c-0.29-16.39,2.98-31.57,14.99-43.77c15.21-5.27,25.15,3.82,35.08,12.93c9.28,14.09,13.63,29.56,12.87,46.43
			C719.63,378.7,709.04,376.81,699.28,376.72z"/>
		<path class="st27" d="M608.04,1026.37c-52.59,23.37-108.66,33.38-164.81,43.33c-18.56,3.29-16.43-8.96-17.15-19.86
			c4.03-22.14,19.13-37.01,34.08-52.03c32.03-13.35,61.88-31.14,93.05-46.39c35.98-1.75,49.56,23.41,61.27,50.91
			C616.1,1011.34,614.86,1019.61,608.04,1026.37z"/>
		<path class="st28" d="M756.15,946.62c8.57,2.2,13.48,8.28,9.78,16.16c-23.92,50.9-60.1,92.68-103.99,126.56
			c-11.38,8.79-17.4,22.6-30.93,28.19c-0.11-7.66-0.22-15.33-0.33-22.99c-0.02-11.28-0.05-22.56-0.07-33.84
			c10.16-52.85,50.51-84.77,84.15-121.41C729.94,933.94,744.03,934.79,756.15,946.62z"/>
		<path class="st29" d="M710.74,946.39c-8.35,35.12-34.98,58.11-56.18,84.7c-7.91,9.92-20.65,15.94-23.95,29.6
			c-7.16-2.28-11.76-6.46-11.14-14.69c0.69-9.14-0.73-17.1-11.43-19.64c-0.09-7.53-0.17-15.05-0.26-22.58
			c8.21-43.21,28.44-78.85,65.38-104.04C690.28,911.57,711.22,920.36,710.74,946.39z"/>
		<path class="st30" d="M460.16,1003.46c1.54,24.93-16.67,35.36-34.08,46.38c-10.21,0.82-14.79,10-22.25,14.88
			c-41.17,26.92-51.64,25.91-89.84-7.22c-3.94-3.41-9.22-5.28-13.88-7.86c-26.69-23.47-60.23-41.11-68.41-80.34
			c2.6-0.91,5.21-1.82,7.81-2.75c8.4,0.79,15.69,4.26,22.36,9.21c51.23,57.52,108.25,78.11,176.92,28.39
			C444.8,999.79,452.9,999.77,460.16,1003.46z"/>
		<path class="st31" d="M391.84,250.57c-15.76-76.13,15.52-161.83,74.45-202.23c3.99-2.73,10.84-1.28,16.36-1.78
			c12.92,20.03,28.02,37.43,46.29,53.54c35.83,31.61,51.44,73.95,44.27,121.62c-3.58,23.79-12.13,46.76-40.17,55.85
			c-19,6.17-10.35,19.48-3.61,30.75c-2.24,1.76-4.47,3.52-6.7,5.3C470.26,310.97,421.96,299.63,391.84,250.57z"/>
		<path class="st32" d="M529.42,308.32c35.95-19.15,74.55-7.92,112.01-9.74c3.48,4.71,4.64,9.94,3.54,15.72
			c-5.71,17.3-15.36,31.18-33.1,38.1c-15.05,4.91-30.52,5.64-46.2,5.18c-26.84-5.28-56.92-8.25-36.76-48.85L529.42,308.32z"/>
		<path class="st33" d="M642.86,308.09c-0.57-3.15-1.04-6.32-1.42-9.51c4.17-7.83,8.34-15.67,12.52-23.5
			c18.15-8.68,30.33-32.02,55.8-22.73c0.25,22.29,0.49,44.58,0.74,66.87c-12.85,3.68-21.93-8.33-33.93-8.14
			C664.59,318.42,653.26,318.48,642.86,308.09z"/>
		<path class="st34" d="M915.78,616.29c12.43-1.11,23.07-26.36,36.2,7.88c23.07,60.15,46.81,119.36,59.24,182.9
			c6.23,31.83,13.34,62.89,7.48,95.76c-2.6,14.61-0.78,30.07-0.41,45.13c1.26,50.33,2.59,100.51-21.87,147.2
			c-3.14,5.99-0.82,14.84-1.03,22.37c-10.8,9.06-1.29,24.88-11.37,34.18l0,0c-22.5,5.51-28.51,38.83-57.19,33.91
			c50.96-57.06,75.14-122.7,69.15-200.11c-3.2-41.43-0.2-83.31-0.65-124.98c-0.76-70.28-25.95-133.42-55.54-195.87
			c-12.87-27.16-23.62-3.44-35.34-2.83C900.37,644.69,919.18,633.25,915.78,616.29z"/>
		<path class="st35" d="M153,788.74c34.19-23.12,46.35-59.19,58.09-96.15c6.09-19.18,15.19-38.51,42.3-30.86
			c4.97,32.38,13.55,64.03,16.49,98.97c37.16-27.34,21.76-67.54,32.67-99.6c7.93-23.91,32.88-20.95,49.56-30.94
			c37.71-22.57,63.95-54.89,84.45-92.77c-23.46-41.96-3.01-80.29,9.24-119.59c4.3-13.79,17.4-24.48,14.22-40.77
			c3.82-12.21,12.91-17.9,24.78-20.14c76.21,30.02,126.12,87.07,153.12,161.78c15.81,43.75-30.96,103.78-82.85,118.57
			c-15.86,4.52-33.17-0.99-49.11,7.93c14.41,20.97,34.31,36.01,48.52,55.96c51.32,28.66,37.94,73.71,29.96,117.49
			c-14.34,33.53-45.02,28.48-72.44,30.09c-22.46,1.32-45.02,0.72-67.44,2.37c-53.72-14.07-104.93-17.74-160.22,4.14
			c-64.69,25.6-118.02,57.86-143.31,125.53c-0.19,7.66-0.37,15.33-0.56,22.99c-31.94-57.37-33.24-115.06-3.69-174.07
			C143.25,816.73,154.26,804.96,153,788.74z"/>
		<path class="st36" d="M541.55,710.21c-16.16-34.2-55.24-50.16-73.47-90.35c20.48,4.72,35.92,8.23,52.01,8.07
			c50.1-0.49,97.94-33.62,110.02-79.27c2.29-8.64,2.49-20.05-1.3-27.74C595.95,454.35,550,399.63,482.55,365.37
			c-11.86-40.78-57.73-22.11-79.55-45.51c-6.61-12.64-13.98-24.95-19.6-38.01c-5.13-11.93-8.37-24.67,8.44-31.29
			c42.18,27.68,87.19,48.67,137.08,58.17c1.79,32.13,1.79,32.13,44.89,33.78c55.61,41.46,94.84,95.79,120.17,159.55
			c15.41,38.79,20.16,77.75-28.11,100.1c-5.68,5.09-11.21,11.17-11.03,18.82c1.26,52.82-28.74,68.64-75.69,65.08
			c-9.9-0.75-18.69,0.7-21.99,12.15C554.18,705.17,549.64,710.04,541.55,710.21z"/>
		<path class="st37" d="M403,319.87c27.63-2.54,54.23,2.43,80.07,11.72c20.05,7.2,19.81,14.11-0.52,33.79
			c-7.51,3.89-15.02,7.78-22.53,11.66c-24.17-9.03-33.17-37.03-57.44-45.94C402.76,327.35,402.9,323.61,403,319.87z"/>
		<path class="st38" d="M141.03,980.74c-4.45-51.25,20.32-85.94,65.02-105.46c51.62-22.54,100.96-51.59,159.97-54.71
			c28.23-1.49,50.19,7.06,70.91,23.69c43.66,32.24,98,53.7,114.37,113.45c-22.32,31.31-54.23,43.51-91.14,45.75
			c-3.38,1.34-7.28,2.01-10.06,4.13c-65.55,50.12-113.56,74.3-195.75-26.02c-5.8-7.18-8.36-20.16-22.43-12.53l-0.22,0.24
			C205.18,1002.44,173.86,997.58,141.03,980.74z"/>
		<path class="st39" d="M311.1,662.1c0.31,16.9,2.25,33.96,0.59,50.66c-3.33,33.53-15.3,61.75-52.7,70.21
			c-9.25-12.19-24.07-5.78-24.63-18.59c-0.65-14.72-0.01-40.22,5.11-61.49c4.53-18.82,13.5-25.14,13.93-41.16
			c6.6-0.44,11.52-3.05,13.01-10.09c3.55-0.98,7.16-1.55,10.83-1.7C293.46,640.21,303.94,646.53,311.1,662.1z"/>
		<path class="st40" d="M311.1,662.1c-10.8-5.4-20.58-13.67-33.87-12.15c2.77-11.25,13.55-13.53,21.53-14.73
			c54.6-8.24,86.03-46.68,114.83-87.69c6.93-9.86,13.65-10.55,22.97-10.13c3.55,44.33-25.8,67.62-56.97,90.24
			C358.53,642.91,330.33,643.52,311.1,662.1z"/>
		<path class="st16" d="M984.03,1151.71c2.74-11.74-7.79-27.9,11.37-34.18C992.71,1129.29,1003.15,1145.42,984.03,1151.71z"/>
		<path class="st41" d="M722.02,741.48c51.52,0.63,54.44,0.1,63.44,48.89c7.42,40.21,15.25,82.39-6.42,121.94
			c-21.31-2.49-40.6-8.89-53.56-27.66c-9.7-44.9-13.25-90.24-9.48-136.1C718,746.19,720.01,743.83,722.02,741.48z"/>
		<path class="st42" d="M733.22,889.33c19.4-0.57,38.48-0.49,45.83,22.98c-7.63,11.44-15.27,22.87-22.9,34.31
			c-15.14-0.08-30.28-0.15-45.41-0.23c-9.16-16.91-40.13-17.24-34.51-45.39c1.11-2.64,2.21-5.29,3.3-7.95
			C696.32,875.87,714.23,874.69,733.22,889.33z"/>
		<path class="st43" d="M676.05,661.96c19.13,22.67,38.27,45.33,57.4,68c-3.95,0.26-7.89,0.52-11.84,0.78
			c-3.68,3.43-7.86,6.08-12.46,8.11c-17.71,4.17-34.42-2.87-51.65-4.59c-12.23-5.69-21.45-13.18-16.8-28.73
			C655.49,693.48,662.99,675.45,676.05,661.96z"/>
		<path class="st41" d="M710.38,731.16c3.72-0.66,7.47-0.8,11.23-0.42c0.25,3.58,0.39,7.16,0.41,10.74l-0.21,0.19
			C712.17,744.51,708.96,740.34,710.38,731.16z"/>
		<path class="st44" d="M664.82,353.86c3.85,3.91,7.7,7.83,11.55,11.74c38.62,56.81,76.66,113.3,71.68,187.54
			c-1,14.96,13.41,30.33,16.72,46.34c7.11,34.32,8.08,67.86-31.76,85.37c-14.87-8.02-27.3-18.37-33.29-34.86
			c28.98-73.7,3.04-139.3-27.45-205.62c-13.41-29.17-45.89-53.14-31.38-92.18C649.24,347.56,657.28,347.12,664.82,353.86z"/>
		<path class="st45" d="M642.55,353.21c9.63,37.87,33.42,69.02,51.64,102.37c25.64,46.94,25.78,98.89,38.36,148.22
			c5.99,23.48-14.11,36.18-32.83,46.19l-0.29-0.14c-3.92-3.24-7.37-6.93-10.35-11.06c-4.26-7.45-8.51-14.89-12.77-22.34
			c-9.74-5.64-21.37-9.42-22.83-23.2c2.5-8.23,8.29-10.4,16.56-11.56c18.74-2.63,23.44-7.7,20.37-32.1
			c-7.3-58.1-36.17-102.59-71.94-144.2c-17.02-19.8-35.34-37.92-44.66-62.88c15.25-0.41,30.51-0.82,45.76-1.24
			C632.16,335.75,642.23,335.09,642.55,353.21z"/>
		<path class="st46" d="M653.48,593.26c11.92,3.49,19.82,10.94,22.83,23.2c-27.81,15.01-2.45,30.32-0.25,45.5
			c0.12,42.78,0.12,42.78-34.31,45.89c-32.25,18.1-61.18,6.64-89.51-10.08c-6.82-10.58-13.63-21.17-26.07-40.49
			c31.01,15.58,56.24,16.9,81.89,16.11c23.36-0.72,32.74-11.84,34.85-34.79C644.29,623.45,631.58,603.85,653.48,593.26z"/>
		<path class="st44" d="M689.08,638.79c6.38,0.95,9.73,4.73,10.35,11.06C692.76,649.17,688.91,645.86,689.08,638.79z"/>
		<path class="st47" d="M642.55,353.21c-3.92-11.18-14.95-8.68-22.99-11.93c8.96-10.22,7.4-27.83,23.3-33.19
			c11.23,1,22.47,2,33.7,2.99c2.33,15.97-3.48,29.71-11.74,42.78C657.4,353.64,649.98,353.43,642.55,353.21z"/>
		<path class="st48" d="M551.3,957.71c-11.87-19.45-28.01-33.78-47.39-46.25c-26.85-17.28-49.27-40.2-66.99-67.2
			c4.47-15.05,16.93-11.45,27.53-11.52c29.83-0.2,59.68-0.75,89.49,0.13c19.38,0.58,19.48-12.75,21.37-25.61
			c28.54,11.13,58.51,32.54,79.37-11.17c6.6-8.88,12.91-18,23.31-23.04c6.2,0.33,11.2,2.9,15.11,7.71
			c18.42,43.41,6.52,82.56-16.8,120.1l-0.07,0.13c-27.14,31.38-37.03,74.25-68.44,102.79C588.24,989.31,584.32,955.67,551.3,957.71z
			"/>
		<path class="st15" d="M231.92,969.05c2.37-7.1,6.53-12.47,14.65-9.28c10.29,4.03,7.53,13.67,7.78,21.81
			C246.88,977.4,239.4,973.22,231.92,969.05z"/>
		<path class="st49" d="M666.75,798.42c-3.65,6.32-6.84,12.95-11.02,18.9c-25.36,36.07-43.19,36.57-70.32,2.31
			c-3.3-4.17-6.73-8.25-10.1-12.37c-0.16-5.55-0.6-11.12-0.43-16.66c0.85-26.78-15.33-66-33.33-80.39
			c3.56-4.15,7.12-8.29,10.68-12.44c31.51-11.49,59.28,10.25,89.51,10.08c4.36,10.83,11.51,18.82,22.84,22.61
			c20.79,10.7,26.43,25.39,11.94,45.37l-0.05,0.03C669.45,781.74,671.5,791.54,666.75,798.42z"/>
		<path class="st50" d="M357.97,901.97c-10.2-0.72-15.99-0.38-21.41-1.64c-20.26-4.71-40.3-26.1-34.44-37.99
			c8.91-18.04,26.19-19.38,43.79-16.61c5.42,0.85,10.47,3.86,15.76,5.71c14.54,5.09,39.82,1.2,36.13,24.36
			C394.69,895.26,374.77,904.01,357.97,901.97z"/>
		<path class="st51" d="M282.34,728.7c-1.55-3.17-4.71-6.55-4.32-9.47c0.94-7.08,3.24-14.05,5.88-20.71
			c0.28-0.7,6.49,0.95,9.94,1.52c-2.32,8.42-4.49,16.88-7.11,25.2C286.26,726.71,283.85,727.56,282.34,728.7z"/>
		<path class="st52" d="M676.53,775.82c3.78-17.17-1.89-31.85-11.94-45.37c1.43-5.52,6.25-10.65,10.32-7.05
			c10.85,9.59,23.71,5.25,35.47,7.76c1.21,6.33,5.08,9.77,11.43,10.52c14.38,48.4,11.8,98.12,11.41,147.66
			c-19.74,0.07-39.73-1.12-56.92,11.54c-4.52-35.29,18.83-67.31,11.88-103.17C686.4,788.55,687.92,779.23,676.53,775.82z"/>
		<path class="st52" d="M666.75,798.42c-1.13-9.41-2.9-19.09,9.73-22.57C676.09,784.6,678.66,794.63,666.75,798.42z"/>
		<path class="st53" d="M626.67,744.99c1.53,3.28,4.18,6.45,4.32,9.73c0.51,11.99,5.07,25.7-11.25,31.98
			c-4.36,1.68-7.05,0.83-8.99-3.41c-5.93-12.99-3.62-24.57,6.34-34.38C619.35,746.68,623.39,746.26,626.67,744.99z"/>
		<path class="st54" d="M365.8,872.63c-9.5,8.14-18.76,8.16-28.26,0.01C347.03,864.57,356.29,864.5,365.8,872.63z"/>
	</g>
</g>
</svg>
