<?xml version="1.0" encoding="utf-8"?>
<!-- Generator: Adobe Illustrator 23.1.0, SVG Export Plug-In . SVG Version: 6.00 Build 0)  -->
<svg version="1.1" id="Calque_1" xmlns="http://www.w3.org/2000/svg" xmlns:xlink="http://www.w3.org/1999/xlink" x="0px" y="0px"
	 viewBox="0 0 1125 1157.25" style="enable-background:new 0 0 1125 1157.25;" xml:space="preserve">
<style type="text/css">
	.st0{fill:#383838;}
	.st1{fill:#BEBEBE;}
	.st2{fill:#D0D0D0;}
	.st3{fill:#BCBCBC;}
	.st4{fill:#8A8A8A;}
	.st5{fill:#929292;}
	.st6{fill:#464646;}
	.st7{fill:#737373;}
	.st8{fill:#545454;}
	.st9{fill:#E6E6E6;}
	.st10{fill:#616161;}
	.st11{fill:#6E6E6E;}
	.st12{fill:#555555;}
	.st13{fill:#AFAFAF;}
	.st14{fill:#4E4E4E;}
	.st15{fill:#5B5B5B;}
	.st16{fill:#797979;}
	.st17{fill:#7E7E7E;}
	.st18{fill:#767676;}
	.st19{fill:#6C6C6C;}
	.st20{fill:#DADADA;}
	.st21{fill:#9E9E9E;}
	.st22{fill:#FDFDFD;}
</style>
<path class="st0" d="M317.69,816.61c6.07,4.64,60.15,23.65,56.55,31.56c-14.77,32.45-75.64,74.36-55.13,78.35
	c-0.44,2.19,184.38-30.95,184.14-28.73c-4.82,4.28-6.28,63.37-10.58,68.13l-242.81,35.84c-6.92,6.29-34.19-10.62-40.23-2.57
	l3.74-6.04c-17.62,10.08-33.64,5.58-48.97-5.37c-6.48-6.2-10.01-14.05-12.53-22.46c-2.82-11.02-5.94-22.11,1.05-32.84
	c4.04-3.91-1.37-19.76,2.67-23.67C168.3,896.07,297.18,806.96,317.69,816.61z"/>
<g>
	<g>
		<path class="st1" d="M353.3,65.95c83.02-81.61,227.46-80.56,325.53,2.36c8.27,9.95,10.65,20.66,4.25,32.47
			c-3.51,5.04-8.37,6.81-14.34,5.77c-20.71-14.55-46.68-19.19-66.27-36.72c-12.8-11.45-30.88-25.85-47.07-14.5
			c-17.92,12.56-2.3,32.05,1.47,48.26c5.01,10.93,11.91,19.95,24.12,23.46c4.3,0.69,8.61,1.13,12.89,0.78
			c14.76-4.97,14.84-23.78,28.27-29.91c13.75-6.39,26.57-2.48,39.15,3.31c9.14,15.21,18.94,4.83,28.72,0.6
			c69.19,25.27,65.16,88.73,70.16,143.69c2.95,32.4-6.94,66.64-8.57,100.07c-2.53,51.72-40.63,72.83-76.39,96.94
			c-14.66,11.42-31.3,19.31-48.19,26.77c-48.11-5.01-93.31,8.45-138.5,22.3c-19.3,0.28-37.1-4.1-52.19-16.83
			c-9.13-8.62-15.04-18.83-15.18-31.73c10.35-43.25,43.07-31.09,72.17-29.76c12.91,0.59,32.53,8.47,37.1-6.88
			c4.37-14.65-16.34-19.38-26.87-27.33c-12.7-9.59-27.72-15.65-40.92-24.66c-9.35-6.95-16.12-15.75-19.44-27.02
			c-1.02-5.57-0.93-11.17-0.04-16.75c2.83-10.68,8.06-20.29,13.64-29.72c17.24-23.65,30.7-48.13,17.42-78.66
			c-4.17-59.68-26.32-102.7-93.92-108.16C366.94,93.03,346.75,90.07,353.3,65.95z"/>
		<path class="st1" d="M328.78,823.99c-34.91-6.09-38.77,39.52-68.88,41.43c-43.62-15.47-17.79-44.44-13.61-69.23
			c50.25-67,50.24-66.98-18.34-120.26c-10.43-8.1-24.37-13.86-21.55-31.17c5.72-27.2,11.44-54.4,17.16-81.59
			c39.66-7.39,79.28-17,119.4-2.38c16.42,6.62,29.58,17.64,41.3,30.58c14.16,20.36,40.99,28.48,51.37,52.57
			c9,30.11,5.45,71.65,57.17,62.43c15.51-5.86,20.71-23.93,35.82-30.23c69.4,5.32,119.6,35.77,139.29,106.28
			c3.56,17.17,9.14,33.98,10.55,51.63c0.48,8.75-0.54,17.37-2.56,25.87c-2.77,11.16-5.76,22.29-6.22,33.93
			c-1.23,15.16-2.6,30.28-9.8,44.12c-8.28,13.53-20.02,23.49-33,32.18c-45.77,30.64-62.41,24.67-83.31-29.73
			c-1.6-22.39-7.38-44.18-11.24-66.2c-1.43-12.75-6.66-23.66-16.27-32.37c-9.74-9.52-14.14-24.95-30.52-26.89
			c-4.76,0.4-9.42,0.72-14.1,1.43c-9.79,2.13-19.19,5.43-28.82,7.98c-15.47,3.62-31.16,4.01-46.87,3.64
			c-16.95,0.41-32.59-6.52-48.97-8.75c-4.01,0.96-8.03,2-11.93,3.46C332.85,823.17,330.81,823.58,328.78,823.99z"/>
		<path class="st2" d="M462.27,345.24c5.82,0.91,13.07-0.08,17.23,3.04c29.84,22.42,74.74,27.29,85.32,72.36
			c-33.71,16.27-68.69,11.71-102.03,1.74c-22.75-6.81-24.49,15.77-38.25,20.01c-48.28,14.9-84.69-30.85-131.12-25.52
			c-6.08-1.63-11.73-4.21-17.08-7.48c-51.89-36.76-117.35-32.36-173.31-57.03c-14.14-6.23-31.5-4.75-43.35-17.21
			c25.98-28.45,61.73-22.12,94.2-25.2c78.92-7.49,79.04-6.71,94.38-81.54c1.99-9.72,3.28-19.57,10.91-26.93
			c14.98-7.58,26.7-0.32,38.15,8.3c9.77,13.07,18.22,27.08,27.37,40.66c4.33,10.82,4.77,21.74,0.97,32.8
			c-3.3,7.83-8.47,14.33-14.32,20.28c-14.57,15.36-10.51,27.08,6.63,37.09c18.79,10.97,40.43,13.38,60.35,20.84
			C412.77,389.67,435.06,354.59,462.27,345.24z"/>
		<path class="st3" d="M1042.63,770.83c0.74,6.57,1.47,13.15,2.21,19.72c16.53,17.95,0.29,37.85,3.48,56.61
			c-12.61,28.6-15.3,61.31-35.52,86.8c-12.75,14.35-25.74,28.49-42.01,39.07c-16.61,13.34-34.21,24.92-55.25,30.19
			c-6.87,1.51-13.73,3.03-20.6,4.54c-11.83,4.85-23.21,11.21-36.61,10.76c-9.8-0.65-18.74-3.64-26.38-9.99
			c-20.03-29.63,12.49-52.22,10.55-79.49c1.91-12.55,5.01-24.64,13.54-34.58c18.91-13.35,39.68-12.99,60.96-8.27
			c6.87,2.53,13.46,5.58,14.82,14.12c12.49-10.59-0.7-21.42,0.16-32.15c-1.16-5.96-3.81-13.51-0.93-17.71
			c37.03-53.96,4.16-68.06-42.05-75.03c-5.79-12.17-5.05-23.9,2.06-35.31c4.75-4.58,10.24-7.85,16.44-10.01
			c22.15-5.87,44.77-4.62,67.31-4.53c15.79,0.09,31.44,1.16,46.27,7.37C1036.88,740.65,1041.26,754.89,1042.63,770.83z"/>
		<path class="st4" d="M895.9,247.64c8.48,2.22,15.97,5.94,20.74,13.76c15.71,18.31,19.5,43.69,36.37,61.31l-0.18-0.05
			c17.57,17.02,24.46,38.88,28.39,62.1c1.28,34.84,26.49,58.75,40.48,87.79c5.16,9.99,9.84,20.17,12.75,31.1
			c1.82,8.65,1.62,17.29,0,25.95c-4.5,17.03-6.18,35.26-19.97,48.47c-11.08,6.34-22.41,6.41-33.9,1.25
			c-6.61-4.71-10.47-11.43-14.08-18.6c-36.55-72.76-47.77-78.82-129.28-70.37c-18.9-1.75-34.74-8.15-41.84-27.67
			c-0.49-6.1,1.51-11.2,6.28-15.13c12.41-7.37,26.65-8.25,40.27-11.21c46.34-27.69,39.22-69.1,28.5-111.46
			c-3.79-21.7-5.4-43.25,2.51-64.44C877.97,251.45,884.17,244.54,895.9,247.64z"/>
		<path class="st1" d="M3.02,752.07c12.54-76.55,50.01-109.02,123.96-108.15c22.23,0.26,43.58,4.52,64.67,10.92
			c40.59,15.68,60.08,42.65,46.64,87.25c-4.29,4.71-9.45,8.2-15.36,10.57c-41.75,6.78-80.71,26.18-123.59,28.12
			c-14.11,0.39-28.24,1.32-42.31,2.97c-11.51,0.57-21.52-3.6-30.9-9.79C17.24,767.96,12.17,757.87,3.02,752.07z"/>
		<path class="st5" d="M678.87,104.6c-0.01-12.1-0.03-24.2-0.04-36.3c21.54-2.71,30.31,19.11,47.49,24.75
			c22.48,12.18,41.08,29.12,58.47,47.62c12.03,14.87,14.14,31.89,11.07,50.07c4.99,82.01-20.15,164.82,6.84,246.24
			c1.02,6.11-0.46,11.57-4.33,16.38l0.02-0.05c-27.82,25.99-57.32,44.07-95.72,20.41c-12.52-11.05-28.39-18.45-37.46-33.44
			c1.25-15.22,8.05-31.31,22.71-31.41c36.71-0.24,40.06-26.41,43.95-51.26c9.11-58.25,20.69-117,5.26-175.66
			c-8.64-32.85-20.49-65.56-58.34-77.45L678.87,104.6z"/>
		<path class="st6" d="M691.97,1100.92c-59.45-0.53-111.8,31.76-170.04,36.82c-19.6-6.72-37.73-15.8-35.5-40.46
			c2.23-24.69-13.86-35.18-31.1-45.74c-10-10.3-18.74-21.48-24.77-34.62c-4.1-11.24-5.06-22.69-2.19-34.39
			c9.19-28.09,38.33-32.74,57.64-48.99l-0.04,0.02c7.03-8.71,13.03-19.01,26.77-17.4c8.6,2.11,14.36,7.58,18.14,15.36
			c5.94,24.78,8.85,51.09,32.74,67.23c5.75,5.77,10.46,12.23,13.82,19.65c3.99,10.41,4.08,21.12,2.49,31.93
			c-0.88,9.86-2.28,19.91,10.66,23.5c12.21,2.44,24.41,1.87,36.65,0.88c10.6-1.05,20.79-4.04,31.23-6.02
			c11.82-1.48,22.98-0.32,32.39,7.94C696.48,1084.48,697.77,1092.55,691.97,1100.92z"/>
		<path class="st7" d="M59.67,335.15c77-2.29,145.08,34.13,217.71,50.83c3.8,0.87,5.78,9.64,8.6,14.73
			c-13.37,21.19-39.7,32.28-45.94,59.05c-2.05,1.68-4.13,3.32-6.21,4.96c-51.43-3.24-95.77-26.8-137.61-53.2
			C70.75,395.45,41.08,375.17,59.67,335.15z"/>
		<path class="st8" d="M438.49,982.43c-0.11,11.54-0.21,23.07-0.32,34.61c5.65,10.41,13.36,18.82,23.82,24.56
			c4.22,8.01,11.06,12.03,19.43,8.57c22.24-9.2,31.37-5.93,21.23,19.68c-10.82,27.34-4.48,50.19,19.27,67.89
			c-42.9,15.29-87.42,12.93-131.8,12.17c-21.19-32.55,36.97-45.24,23.51-54.91c-15.08-10.82-46.87,15.47-72.34-0.58
			c-12.93-12.51-22.46-27.39-30.64-43.3c-4.13-12.64-3.54-24.87,3-36.64C352.7,993.88,390.46,968.07,438.49,982.43z"/>
		<path class="st9" d="M292.25,212.78c-12.76,1.31-22.21-7.12-33.09-11.31c13.83-57.38,48.67-100.15,94.15-135.53
			c4.91,13.63,16.24,14.02,28.36,15.2c77.28,7.49,102.48,34.23,105.06,110.28c0.26,7.81,0.73,15.61,1.11,23.41
			c7.32,26.67-9.27,43.75-24.56,61.34c-5.78,1.71-11.19,0.87-16.21-2.48c-15.51-22.6-12.51-49.86-18.02-74.91
			c-11.23-51.02-32.22-61.41-88.76-40.61C324.31,176.47,321,205.89,292.25,212.78z"/>
		<path class="st7" d="M798.32,441.4c-40.66-16.39-13.73-59.09-32.64-83.94c36.01-37.16,6.13-79.14,8.92-118.74
			c1.19-16.97-7.23-36.72,11.82-49.59c20.27,4.13,33.57-2.08,36.07-24.33c36.47,16.97,55.23,49.64,73.41,82.83
			c-5.62,5.55-11.24,11.09-16.87,16.64c-25.5,1.91-45.52,7.03-42.73,41.09c2.42,29.5-11.3,58.74-5.36,89
			C830.76,417.47,819.19,432.68,798.32,441.4z"/>
		<path class="st10" d="M979.93,574.68c10.97-0.75,21.95-1.51,32.92-2.26c23.49-4.35,46.58-4.64,68.64,6.52
			c34.62,34.48,19.46,76.43,17.38,116.42c-4.89,35.49-39.6,48.74-56.24,75.47c-6.53-7.95-13.06-15.91-19.6-23.86
			c5.38-24.9-26.93-31.75-26.1-54.5c25.72-23.83,35.14-44.12-5.09-65.26c-19.11-10.04-42.08-26.26-25.9-56.32
			C971.69,568.24,976.34,569.51,979.93,574.68z"/>
		<path class="st11" d="M342.1,1089.64c17.74-0.16,34.95,0.11,52.28-7.58c16.24-7.2,37.6-29.64,51.8-4.92
			c16.21,28.22-11.31,35.22-31.67,43.1c-13.28,5.14-25.2,12.45-24.39,29.67c-52.45,19.19-98.01-2.96-143.74-24.03
			C267.99,1086.57,302.77,1082.08,342.1,1089.64z"/>
		<path class="st12" d="M377.33,598.18c-11.66-8.34-23.32-16.68-34.98-25.03c-22.49-34.63-62.91-28.52-94.88-41.69
			c-10.72-7.2-12.91-18.31-13.75-30.03c0.04-12.23,0.08-24.47,0.12-36.7l-0.29,0.41c21.97-25.76,31.87-10.6,40.09,11.62
			c1.29,3.49-1.93,7.45,1.76,10.3c1.68-5.54,3.63-10.93,8.36-14.81c47.89-15.31,73.3,22.18,105.12,44.65
			c4.91,11.99,8.77,25.57,26.88,17.59c9.86,6.93,15.6,15.48,11.02,28.09C411.99,576.75,405.2,602.14,377.33,598.18z"/>
		<path class="st13" d="M450.4,811.76c5.11-9.81,14.24-10.29,23.62-10.18c15.68,18.94,9.36,37.61-0.56,56.3
			c-46.91,48.25-103.5,65.44-169.42,52.43c0.94-27.14,19.67-46.47,30.36-69.34c11.6-20.6,31.79-13.45,49.18-15.23
			C406.38,823.68,429.74,824.19,450.4,811.76z"/>
		<path class="st13" d="M59.02,872.06c-42.16-15.61-56.29-48.77-56.66-90.55c5.9-7.01,12.93-11.35,22.54-9.55
			c12.49,6.88,25.29,13.13,38.72,17.98c29.48,18.05,65.22,15.92,96.08,29.64c4.62,3.74,7.39,8.6,8.63,14.39
			c0.09,9.22-3.77,16.49-10.88,22.15c-9.26,6.22-19.61,10.1-30.1,13.64c-17.72,5.05-36.04,6.17-54.31,7.62
			C67.72,877.34,63.05,875.55,59.02,872.06z"/>
		<path class="st11" d="M801.41,1103.88c-8.33,0-16.66,0.01-24.99,0.01c-18.74-12.25-31.19-28.51-32.92-51.64
			c3.3-37.71,4.39-77.79,61.58-61.54c5.51,1.76,10.72,4.28,15.58,7.42c7.23,8.95,16.3,14.84,27.98,16.21
			c12.74,4.17,26.89,4.1,38.22,12.61c9.38,7.2,8.66,17.26,7.76,27.38c-13.85,14.75-30.36,25.46-51.02,21.02
			C818.19,1069.87,809.65,1085.82,801.41,1103.88z"/>
		<path class="st14" d="M342.1,1089.64c-31.91,12.08-63.81,24.16-95.72,36.24c-10.89-3.77-12.58-12.51-12.1-22.42
			c-7.62-8.74-15.47-17.25-24.24-24.87l0-0.06c-6.47-8.52-7.54-17.47-2.18-26.96c4.89-4.46,10.53-7.62,16.84-9.6
			c22.45-4.98,45.07-4.41,67.77-1.84c9.84,1.96,17.89,7.31,25.42,13.62C343.49,1053.88,342.39,1072.03,342.1,1089.64z"/>
		<path class="st15" d="M240.89,741.71c-5.95-34.89-27.66-60.85-49.24-86.88c4.92-3.36,9.84-6.73,14.76-10.09
			c24.28,16.79,50.06,31.8,72.51,50.76c38.82,32.77,38.19,44.59,2.06,80.46c-7.06,7.01-14.17,13.97-21.26,20.95
			C241.28,782.67,241.75,761.96,240.89,741.71z"/>
		<path class="st16" d="M438.49,982.43c-39.8,12.18-79.59,24.36-119.39,36.55c-26.65-3.55-22.65-18.01-12.36-34.72
			c33.64,7.01,60.59-12.37,89.54-23.22c29.39-11.01,56.46-29.22,89.72-27.51C480.9,960.28,451.38,963.27,438.49,982.43z"/>
		<path class="st17" d="M1098.88,695.36c-11.33-19.13-12.69-40-12.79-61.73c-0.08-16.5,6.74-35.67-11.58-48.14
			c-9.4-10.29-10.96-21.83-5.52-34.52c10.63-13.96,24.06-19.14,41.05-13C1129.79,592.1,1133.66,645.1,1098.88,695.36z"/>
		<path class="st6" d="M1025.73,501.75c-10.07-5.33-10.72-14.7-10.46-24.45c-6.18-33.55-27.48-58.8-46.72-85.18
			c0.59-24.48-19.34-44.29-15.74-69.45c31.16-2.48,30.57,26.62,42,43.14c26,37.61,52.11,75.47,55.74,123.33
			C1050.87,510.26,1039.82,509,1025.73,501.75z"/>
		<path class="st17" d="M240.89,741.71c30.18,10.23,11.66,37.11,18.84,55.2c5.47,22.82-32.22,45.75,0.18,68.5
			c-3.95,3.99-7.91,7.99-11.86,11.98c-49.67,17.34-45.26-19.46-48.75-48.51c-1.17-11.35-1.12-22.69,1.22-33.92
			c2.48-10.65,5.77-21.11,9.08-31.57c2.73-7.91,7.13-14.49,15.04-18.12C230.05,744.09,235.47,742.9,240.89,741.71z"/>
		<path class="st15" d="M304.05,910.31c53.16-19.28,117.15-9.96,158.61-60.14c13.76-6.46,15.57,4.07,18.55,13.01
			c0.05,4.83-0.8,9.52-2.39,14.07c-2.62,6.65-5.93,12.96-9.97,18.87c-3.19,3.55-7.1,5.96-11.75,7.11
			c-6.97,0.42-13.84,1.16-18.7,7.16l0.25-0.24c-23.99,13.21-51.33-1.27-75.64,9.16c-6.43,5.57-14.49,8.93-20.5,15.09l0.25-0.12
			c-14.71,12.29-30.36,22.66-50.11,24.72C272.61,937.16,283.82,922.67,304.05,910.31z"/>
		<path class="st18" d="M246.06,525.29c39.03,1.99,85.89-11.78,96.29,47.86c-38.36-18-80.84,12.98-118.78-10
			c0.17-11.64,0.34-23.29,0.51-34.93C230.19,518.12,237.71,518.58,246.06,525.29z"/>
		<path class="st12" d="M208.07,821.84c6.07,4.64,14.3,10.18,10.7,18.09c-14.77,32.45,8.77,33.47,29.28,37.46
			c-0.44,2.19-0.78,4.39-1.01,6.61c-4.82,4.28-8.56,9.54-12.86,14.29l0.41-0.13c-6.92,6.29-18.11,4.11-24.15,12.16l0.05-0.1
			c-17.62,10.08-33.64,5.58-48.97-5.37c-6.48-6.2-10.01-14.05-12.53-22.46c-2.82-11.02-5.94-22.11,1.05-32.84
			c4.04-3.91,8.09-7.83,12.13-11.74C174.88,825.08,187.55,812.19,208.07,821.84z"/>
		<path class="st6" d="M801.41,1103.88c-13.82-49.81-13.39-51.82,36.35-40.97c21.82,4.76,37.47-9.72,56.86-8.59
			C870.43,1107.09,852.24,1116.77,801.41,1103.88z"/>
		<path class="st19" d="M306.74,984.26c-0.4,13.18-2.87,27.1,12.36,34.72c-0.4,11.59-0.81,23.19-1.21,34.78
			c-7.94,0.02-15.87,0.04-23.81,0.07c-7.58-6.95-17.18-10.7-25.71-16.16c-25.02-11.7-60.42-4.03-72.93-39.05
			c1.44-2.26,2.89-4.53,4.34-6.79C235.71,993.18,270,971.31,306.74,984.26z"/>
		<path class="st16" d="M161.94,874.05c0.09,7.91,0.19,15.83,0.28,23.74c-0.87,7.68-5.22,12.67-12.1,15.72
			c-34.03-5.76-75.17,4.13-91.1-41.45l0.55,1.51c20.11-9.05,41.52-4.35,62.34-5.93C136.21,863.78,149.78,864.53,161.94,874.05z"/>
		<path class="st6" d="M822.49,164.81c-6.61,18.93,25.2,39.4,4.64,52.11c-13.15,8.13-22.94-23.25-40.71-27.78
			c1.04-16.88-5.26-31.57-13.66-45.63c-4.89-9.53-6.21-18.74,2.46-27.04c14.85,6.93,24.87,19.27,35.07,31.4
			c2.22,7.11,6.65,12.63,12.37,17.23L822.49,164.81z"/>
		<path class="st6" d="M486.92,802.39c11.53-8.78,20.22-10.52,24.71,7.31c2.34,9.29,7.94,17.75,12.08,26.58
			c8.96,35.76,3.79,64.17-38.14,73.47c-8.22-0.28-16.44-0.57-24.66-0.85c-3.02-3.01-3.75-5.64-2.21-7.89
			c1.41-2.06,2.75-3.09,4.03-3.09l-0.34,0.29c7.07-6.58,4.81-17.85,12.19-24.27l0,0.04C491.45,852.33,481.12,825.96,486.92,802.39z"
			/>
		<path class="st17" d="M750.11,1053.31c17.62,12.25,12.89,36.14,26.32,50.58c-28.15-0.99-56.3-1.98-84.46-2.97
			c-0.5-7.87-1.01-15.74-1.51-23.61c1.63-1.92,3.26-3.83,4.85-5.79C713.05,1063.93,727.57,1046.52,750.11,1053.31z"/>
		<path class="st6" d="M1002.75,933.86c11.81-28.1,23.63-56.19,35.44-84.29c22.5-1.12,19.69,10.5,12.28,24.43
			c0.93,23.51-4.54,44.45-23.94,59.81C1018.62,940.53,1010.7,941.49,1002.75,933.86z"/>
		<path class="st16" d="M485.56,909.75c22.92-19.19,30.15-46.53,38.14-73.47c17.54,0.04,24.04,9.39,21.95,26.01
			c-11.98,19.78-6.72,49.58-34.85,59.97c-8.28,3.77-16.56,7.53-24.84,11.3C485.83,925.62,485.69,917.69,485.56,909.75z"/>
		<path class="st11" d="M388.39,835.56c-17.99,1.8-35.99,3.6-53.98,5.4c-1.88-5.66-3.76-11.32-5.63-16.98l0.34,1.4
			c8.84-4.97,3.99-9.36-0.58-13.77c4.81-12.66,9.97-29.96,25.41-10.88c9.84,12.15,20.81,15.09,34.1,16.65
			C397.29,823.28,397.29,829.34,388.39,835.56z"/>
		<path class="st10" d="M1110.04,537.97c-11.75,4.46-22.19,13.05-35.87,11.49c-6.75,3.82-12.45,2.63-17.11-3.58
			c-5.9-19.25-13.51-39.18,17.22-44.11C1083.58,516.42,1106.83,517.29,1110.04,537.97z"/>
		<path class="st8" d="M1050.48,873.99c-0.12-10.14-1.37-19.71-12.28-24.43c-1.84-20.13-2.75-40.16,6.65-59.02
			C1073.09,816.58,1068.57,844.83,1050.48,873.99z"/>
		<path class="st8" d="M1002.75,933.86c7.93-0.02,15.86-0.04,23.79-0.05c-14.91,22.29-29.82,44.59-59.56,48.74
			c-6.23-4.29-6.79-9.22-1.67-14.79C975.5,953.92,986.72,941.23,1002.75,933.86z"/>
		<path class="st14" d="M1074.28,501.77c-18.94,12.15-9.08,31.57-12.05,47.75c-20.37,4.31-28.25-10.08-36.26-24.26
			c-0.08-7.84-0.16-15.67-0.24-23.51c10.13-0.56,20.03-1.54,24.82-12.61C1060.45,489.61,1069.9,490.93,1074.28,501.77z"/>
		<path class="st13" d="M210.04,1053.93c0,8.2,0,16.41,0,24.61c-35.44-16.53-36.68-54.92-53.33-83.47c1.1-4.44,3.93-6.73,8.5-6.87
			c3.33,1.15,6.45,2.73,9.36,4.73c2.53,1.08,5.05,2.15,7.59,3.22C196.73,1012.86,211.59,1029.43,210.04,1053.93z"/>
		<path class="st6" d="M953,322.71c-31.44-8.97-32.22-36.14-36.37-61.31C943.3,273.2,951.74,295.82,953,322.71z"/>
		<path class="st8" d="M775.22,116.47c-0.82,9.01-1.64,18.03-2.46,27.04c-18.63-13.92-36.33-28.68-46.44-50.45
			C747.4,90.87,765.15,95.64,775.22,116.47z"/>
		<path class="st7" d="M292.63,958.97c12.25-17.29,30.03-23.33,50.11-24.72C335.73,962.17,321.22,974.85,292.63,958.97z"/>
		<path class="st10" d="M965.31,967.75c0.56,4.93,1.11,9.86,1.67,14.79c-11.07,22-28.89,27.22-51.43,20.67
			C927.38,984.72,948.37,979.08,965.31,967.75z"/>
		<path class="st18" d="M354.2,921.8c25.47-23.31,56.37-7.19,84.44-11.67c-20.57,22.79-47.19,10.1-71.29,12.18
			C362.79,926.52,358.41,926.35,354.2,921.8z"/>
		<path class="st10" d="M150.12,913.51c1.07-7.52,4.89-12.93,12.1-15.72c14.99,8.39,30.75,13.81,48.26,12.44
			C191.28,928.32,170.94,925.21,150.12,913.51z"/>
		<path class="st10" d="M886.86,1026.95c-14.61,2.19-29.82,7.35-40.89-8.17c1.21-7.48,8.94-8.88,12.88-13.81
			c12.03,0.93,24.07,1.86,36.1,2.79C892.26,1014.16,889.56,1020.55,886.86,1026.95z"/>
		<path class="st6" d="M246.06,525.29c-7.33,0.98-14.65,1.96-21.98,2.94c-2-10.81-2.01-20.9,9.64-26.79
			C244.6,505.88,245.82,515.33,246.06,525.29z"/>
		<path class="st17" d="M210.04,1078.6c19.97-3.31,22.97,9.93,24.24,24.87C220.15,1101.09,207.09,1097.66,210.04,1078.6z"/>
		<path class="st9" d="M30.12,779c-9.25,0.84-18.51,1.67-27.76,2.51c-3.83-9.9-2.55-19.69,0.66-29.44
			c11.06,0.61,22.03,1.41,27.7,13.28c3.36,3.19,4.39,6.27,3.09,9.26C32.54,777.54,31.31,779,30.12,779z"/>
		<path class="st5" d="M156.71,995.07c-7.1-7.24-11.95-17.25-1.17-22.17c6.72-3.07,9.61,7.83,9.68,15.3
			C163.75,992.18,160.91,994.47,156.71,995.07z"/>
		<path class="st19" d="M174.58,992.93c7.7-16.57,16.36-10.92,25.21-1.1l-1.77,2.19c-8.15,7.27-16.35,6.45-24.59,0.15L174.58,992.93
			z"/>
		<path class="st7" d="M354.2,921.8c4.38,0.17,8.76,0.34,13.15,0.51c-5.77,9.21-13.92,13.49-24.85,12.06
			C344.01,927.96,347.85,923.71,354.2,921.8z"/>
		<path class="st18" d="M462.71,897.92c-0.38,3.7-0.99,7.36-1.82,10.98c-7.5,0.49-15,0.98-22.5,1.47
			C442.24,897.89,452.31,897.59,462.71,897.92z"/>
		<path class="st10" d="M210.43,910.33c4.22-11.66,13.93-12.42,24.15-12.16C229.99,909.1,220.53,910.36,210.43,910.33z"/>
		<path class="st19" d="M234.17,898.29c4.29-4.76,8.57-9.53,12.86-14.29C245.98,891.68,241.31,896.11,234.17,898.29z"/>
		<path class="st7" d="M822.66,165.09c-8.86-2.34-11.95-8.82-12.37-17.23C814.42,153.61,818.54,159.35,822.66,165.09z"/>
		<path class="st0" d="M413.8,536.95c-14.25,8.43-24.89,9.61-24.08-12.06c-7.26-15.12,0.38-27.54,7.17-40.16
			c11.17-13.33,22.26-26.98,42.87-21.44c14.62,5.86,29.24,11.72,43.86,17.59c21.14,10.14,43.12,18.48,63.71,29.71
			c2.25,1.13,4.47,2.41,6.72,3.54c2.14,1.25,4.25,2.65,6.4,3.91c8,5.41,15.71,11.35,24.47,15.61c6.65,2.63,13.31,5.21,19.9,7.99
			c4.42,1.88,8.6,4.21,12.68,6.72c11.93,8.18,25.47,12.81,39,17.45c11.49,4.25,23.25,7.7,34.72,11.98
			c18.01,9.37,36.92,13.92,57.36,10.8c5.43,0.19,10.65,1.21,15.82,2.83c13.07,5.96,24.81,13.18,27.54,28.97
			c-0.47,5.88-2.6,11.07-6.36,15.62c-7.2,5.59-15.48,7.7-24.41,7.82c-5.78-0.1-11.5-0.89-17.16-2.01
			c-84.52-15.63-169.16-30.21-238.11-88.85c-18.1-15.39-40.99-25.7-66.93-17.33C430.67,537.76,422.23,537.29,413.8,536.95z"/>
		<path class="st13" d="M592.87,139.71l-4.77,1.21c-13.72-9.08-29.73-14.41-42.1-25.72c-4.8-10.83-13.98-20.78-11.48-33.33
			c3.06-15.42-19.39-31.82-2.61-43.62c17.16-12.07,38.83-6.97,56.36,4.45c27.96,18.23,56.89,35.5,78.22,62.18l-0.36,0.37
			c-15.95-0.04-31.89-0.08-47.84-0.12C601.68,110.67,608.89,133.73,592.87,139.71z"/>
		<path class="st17" d="M546.28,525.52c-21.44-14.11-52.39-14.85-62.67-44.64c47.69-18.46,94.52-45.25,147.22-15.2
			c2.72,0.98,5.44,1.96,8.17,2.92c4.62,3.68,7.79,8.36,9.55,13.97c0.46,5.74-0.45,11.28-2.87,16.53
			c-24.79,25.27-57.04,14.09-86.28,17.6C554.31,518.56,549.96,521.54,546.28,525.52z"/>
		<path class="st11" d="M439.76,463.29c-11.98,9.31-23.95,18.62-35.93,27.93c-41.69-15.59-83.21-31.51-115.1-64.62
			c-2.41-9.59-0.99-17.98,7.64-24.07c48.97-6.8,84.26,30.39,128.17,39.86C429.61,449.36,434.69,456.33,439.76,463.29z"/>
		<path class="st20" d="M462.27,345.24c-42.9,60.37-42.9,60.37-84.07,24.04c-18-25.6-3.26-40.51,17.38-53.58
			c5.69-2.87,11.74-4.67,18.04-5.6c13.14-1.12,25,1.44,33.91,12.19C452.44,329.93,457.35,337.59,462.27,345.24z"/>
		<path class="st7" d="M642.45,489.65c0.01-3.87,0.05-7.75,0.12-11.62c-4.22-3.93-7.48-8.77-11.88-12.54l0.14,0.19
			c0.19-23.73,17.69-24.02,34.38-25.39c16.35,1.9,36.31-2.18,38.38,23.28C687.13,481.44,667.6,492.14,642.45,489.65z"/>
		<path class="st2" d="M447.52,322.28c-11.13-0.36-22.26-0.72-33.39-1.08c-4.33-3.46-8.98-6.43-14.02-8.83
			c-1.28-2.51-2.52-5.01-3.8-7.54c-0.75-5.79-0.08-11.35,2.18-16.75c5.42-7.63,12.99-11.6,22.02-13.24
			c12.83-1.4,23.76,2.26,32.35,12.15c3.77,9.11,2.83,17.6-3.29,25.43C449.38,315.8,448.69,319.09,447.52,322.28z"/>
		<path class="st3" d="M592.87,139.71c0.7-9.81,0.24-19.88,2.36-29.36c3.65-16.3,11.87-18.94,23.05-5.22
			c-0.39,11.29,1.7,23.41-1.73,33.68C611.04,155.3,601.3,151.22,592.87,139.71z"/>
		<path class="st21" d="M459.96,272.25c14.81-16.46,23.52-35.88,27.87-57.42c21.02,34.24-2.03,52.38-25.66,70.32
			c-1.76-1.91-3.52-3.82-5.28-5.73C457.91,277.03,458.93,274.64,459.96,272.25z"/>
		<path class="st3" d="M661.65,198.34c1.33,6.67-2.45,10.57-7.89,12.48c-7.81,2.74-15.2,0.68-18.56-7
			c-2.62-6.01,2.18-10.44,7.64-12.35C650.66,188.73,657.19,191.18,661.65,198.34z"/>
		<path class="st9" d="M546,115.2c19.8-0.88,36.74,2.92,42.1,25.72C567.47,143.15,552.45,136.2,546,115.2z"/>
		<path class="st21" d="M449.58,312.41c-0.6-10.18-1.2-20.35-1.81-30.53c0,0,5.23-1.76,5.23-1.78c3.76,0.72,6.92,2.52,9.48,5.36
			l-0.32-0.31C462.52,296.34,459.94,306.17,449.58,312.41z"/>
		<path class="st13" d="M678.78,104.51c-1.99,5.73,2.56,15.43-8.19,15.35c-1.53-0.01-2.98-9.51-4.47-14.61l0.36-0.37
			c4.13-0.09,8.25-0.19,12.38-0.28L678.78,104.51z"/>
		<path class="st12" d="M656.58,787.91c-19.68-66.31-69.92-93.15-133.15-103.2c-2.4-2.14-4.8-4.28-7.24-6.39
			c-11.28-21.08-17.76-58.19-8.49-79.73c64.6-21.67,184.83,47.13,209.09,110.12c2.36,6.14-7.94,16.36,4.7,17.92
			c4.79,0.59,8.94-7.02,12.7-11.61c18.09-22.08,16.5-59.97,53.62-66.88c9.23-0.72,17.68,1.28,25.18,6.87
			c10.1,12.78,10.5,27.4,8.18,42.53c-2.05,10.91-5.74,21.46-8.18,32.29c-1.64,7.63-4.09,15.03-7.63,22.01
			c-8.42,11.87-17.91,23.11-23.42,36.95c-2.34,4.42-5.26,8.39-8.58,12.1c-3.49,3.6-7.4,6.7-11.55,9.49
			c-12.97,7.33-24.47,17.25-38.77,22.28c-7.76,1.52-15.12,0.53-21.91-3.86c-7.37-8.58-6.11-19.53-8.54-29.19
			c-3.09-3.3-6.71-5.73-11.1-6.84C673.04,791.83,663.81,794.73,656.58,787.91z"/>
		<path class="st15" d="M894.41,777.62c20.97-0.53,40.66-15.89,62.95-3.92c12.02,6.46,28.44,8.94,31.37,23.9
			c4.53,23.1-17.6,14.66-27.9,19.57c-27.93,13.31-13.25,37.4-15.71,57.15c-3.66,3.14-7.93,4.64-12.71,4.8
			c-8.98-1.15-17.25-5.05-26-6.85c-9.29-0.54-16.68,3.88-23.82,9.15c-8.29,4.86-17.44,8.43-22.88,17.02
			c-4.24,11.63-3.92,23.44-1.36,35.33c-22.06,34.24-62.55,3.54-88.31,25.21c-43.16,2.9-84.83-1.02-122.2-25.46
			c4.15-15.23,8.3-30.47,12.44-45.7c6.35-11.51,9.38-25.4,22.81-31.85c12.08-2.23,20.64,2.98,27.09,12.7
			c7.41,17.38,17.25,29.81,38.55,18.7c32.98-13.46,49.07-45.38,74.01-67.55C850.89,813,874.07,797.73,894.41,777.62z"/>
		<path class="st16" d="M647.84,933.52c46.69-5.53,90.78,19.59,137.68,11.71c3.8,4.38,5.51,9.43,4.86,15.25
			c-4.46,14.23-11.67,25.49-28.55,26.14c-31.63-7.34-63.13-12.12-93.27,5.72c-19.08,10.92-73.72-2.66-33.24,48.89
			c2.96,5.15,4.96,10.6,6.08,16.42c1.71,12.77-2.55,23.48-11.15,32.7c-16.16-0.05-32.32-0.1-48.49-0.14
			c-10.65-9.98-11.64-22.95-11.21-36.35c-0.03-11.98-0.05-23.96-0.08-35.95c-0.12-8.04-8.56-7.5-12.23-11.88
			c-38.46-10.37-40.17-38.73-34.57-70.67c8.32-11.73,18.23-10.57,28.85-3.54c19.33,57.34,20.88,57.92,68.04,23.43
			C629.93,948.39,638.76,940.78,647.84,933.52z"/>
		<path class="st21" d="M498.26,717.39c-39.17,11.41-64.79,1-71.1-30.83c-2.66-13.44-0.33-27.87-0.27-41.85
			c3.07-3.61,6.85-6.19,11.26-7.92c4.55-1.14,9.19-1.62,13.88-1.59c4.66,0.23,9.22,1.15,13.67,2.56c6.54,2.71,11.79,7.1,16.13,12.64
			c2.93,3.49,5.6,7.19,8.29,10.9c1.47,1.77,2.8,3.63,4.27,5.42c3.07,3.57,5.7,7.41,8.19,11.4c2.3,4.23,3.85,8.71,4.85,13.42
			C508.69,701.67,506.45,710.6,498.26,717.39z"/>
		<path class="st19" d="M438.21,645.43c-3.76-0.45-7.53-0.69-11.32-0.72c-11.7-20.65-48.54-14.5-49.56-46.53
			c17.29-10.86,20.79-40.19,48.9-36.58c1.91,1.69,3.82,3.37,5.77,5.03c7.54,12.99,11.4,28.25,23.81,38.27
			c7.42,8.03,13.22,16.83,13.86,28.17c-0.68,5.51-2.84,10.37-6.44,14.59c-4.51-0.24-9.02-0.48-13.53-0.72
			C446.49,641.72,442.63,641.43,438.21,645.43z"/>
		<path class="st3" d="M702.38,873.67c-6.2-7.48-14.16-11.34-23.87-11.56c-6.12,3.47-10.24,1.85-12.36-4.87
			c-0.14-5.25-0.28-10.5-0.42-15.74c8.68-12.26,17.78-23.41,34.96-13.33c8.5-1.16,17-2.31,25.5-3.47c7.16-5.35,14.9-6.65,23.31-3.3
			c9.92,7.91,11.31,18.66,10.12,30.29c-1.18,5.55-3.46,10.63-6.56,15.37c-7.61,8.77-16.94,14.44-28.66,15.76
			C715.7,883.09,708.3,880.16,702.38,873.67z"/>
		<path class="st17" d="M700.7,828.16c-11.65,4.44-23.31,8.89-34.96,13.33c-3.05-17.86-6.11-35.72-9.16-53.58
			c6.85-3.64,13.7-7.29,20.54-10.93c9.65,11.65,26.12,2.49,36.47,11.98C709.89,802.22,698.93,813.1,700.7,828.16z"/>
		<path class="st8" d="M552.51,931.82c-9.62,1.18-19.24,2.36-28.85,3.54c-4.29-4.37-8.57-8.73-12.86-13.1
			c11-20.35,16.23-44.05,34.85-59.97C546.24,885.63,558.73,907.8,552.51,931.82z"/>
		<path class="st18" d="M486.92,802.39c12.53,26.74,22.95,53.12-12.36,71.6c-0.92-9.47-0.69-19.5-11.91-23.82
			c7.36-15.36,13.93-30.9,11.37-48.59C478.32,801.85,482.62,802.12,486.92,802.39z"/>
		<path class="st5" d="M388.39,835.56c-0.11-6.06-0.22-12.11-0.34-18.17c20.78-1.88,41.56-3.76,62.35-5.63
			C434,830.83,411.61,834.28,388.39,835.56z"/>
		<path class="st19" d="M498.26,717.39c-0.28-11.37-0.56-22.73-0.85-34.1c2.46-4.4,6.13-7.18,11.03-8.36
			c4.94,0.05,9.42,1.53,13.43,4.44l1.56,5.35C521.71,700.75,522.93,719.05,498.26,717.39z"/>
		<path class="st17" d="M666.15,857.23c4.12,1.62,8.24,3.25,12.36,4.87c0.22,13.03-5.03,22.19-18.22,25.72
			C653.41,875.93,658.43,866.32,666.15,857.23z"/>
		<path class="st0" d="M328.54,811.62c6.75,4.32,15.59,8.54,0.58,13.77c-1.1-3.02-2.63-5.97-3.12-9.09
			C325.78,814.91,327.63,813.19,328.54,811.62z"/>
		<path class="st20" d="M416.29,284.48c-4.69,4.19-9.38,8.37-14.07,12.56c-5.61,6.48-12.76,7.76-20.75,6.25
			c-11.29-4.76-22.52-9.95-35.43-8.05c-10.61,0.09-20.76-1.01-27.59-10.6c-0.22-12.13-0.45-24.26-0.67-36.39
			c-15.65-32.63-0.25-58.29,18.61-83.15c32.27-8.01,29.49,29.27,49.05,37.75c9.69,6.79,20.7,11.55,29.49,19.72
			C430.24,242.9,431.2,263.53,416.29,284.48z"/>
		<path class="st9" d="M402.07,321.5c-12.42,13.7-29.53,25.04-23.87,47.78c-30.85,4.24-56.66-9.41-82.51-23.13
			c-12.17-6.46-26.27-12.73-21.82-29.54c4.02-15.22,18.08-18.87,32.48-19.54c12.67-9.8,27.4-4.17,41.2-5.5
			c11.89-0.36,21.43,6.05,31.47,10.98c7.98,1.29,16.92-0.46,22.95,7.12l-0.22-0.27c3.36,2.6,4.53,5.26,3.51,7.98
			C404.21,320.13,403.16,321.5,402.07,321.5z"/>
		<path class="st6" d="M296.37,402.53c-0.39,9.09-0.78,18.17-1.17,27.26c12.93,18.45,2.42,31.71-9.86,44.58
			c-5.57,3.56,2.66,30.61-16.14,10.53c-10.34-11.05-10.89-35.84-35.66-19.77c-5.1-39.87,5.49-66.96,52.44-64.42
			C289.55,400.69,293.02,401.3,296.37,402.53z"/>
		<path class="st14" d="M344.95,167.06c-16.07,24.72-22.62,52.62-27.18,81.2c-31.42,4.68-25.3-17.68-25.52-35.47
			c12.5-20.21,25-40.41,37.49-60.62C337.97,153.9,343.17,158.73,344.95,167.06z"/>
		<path class="st1" d="M354.27,298.43c-15.98-0.45-31.96-0.91-47.93-1.36c4.04-4.14,8.07-8.28,12.11-12.42
			c11.93,0.12,23.86,0.24,35.8,0.36C357.1,289.47,357.25,293.95,354.27,298.43z"/>
		<path class="st11" d="M894.41,777.62c-1.57,48.51-35.59,50.06-71.23,49.29c-4.66-3.92-7.79-8.82-9.43-14.7
			c-2-31.54,19.89-47.98,40.97-65c13.21-6.7,26.32-14.79,41.54-5.07C895.65,753.97,895.03,765.8,894.41,777.62z"/>
		<path class="st21" d="M786.52,957.65c-0.33-4.14-0.67-8.28-1-12.43c9.99-13.19,17.92-35.13,37.65-9.76
			c12.84,16.5,23.67,3.08,35.18-1.7c11.85,28.99-30.97,38.47-23.48,65.91c-2.89,10.84-8.38,12.37-16.46,4.59l-2.31,0.48
			C797.75,994.38,780.34,983.44,786.52,957.65z"/>
		<path class="st0" d="M1002.16,694.58c13.12,15,62.32,15.62,20.88,52.39c-13.85-4.21-27.71-8.43-41.56-12.64
			c-15.49-6.47-22.97-16.72-16.03-33.85C976.25,689.58,987.27,679.95,1002.16,694.58z"/>
		<path class="st21" d="M906.9,858.28c10.09,1.67,19.42,4.52,23.59,15.32c6.99,8.14,7.18,16.24-0.15,24.29
			c-23.54,0.18-47.09,0.36-70.63,0.53c-1.9-15.35,4.99-24.15,20.01-26.91C888.68,866.9,896.99,860.94,906.9,858.28z"/>
		<path class="st11" d="M966.66,705.71c4.94,9.54,9.88,19.08,14.82,28.62c-24.53,10.35-49.98,4.96-75.15,4.44
			c-3.01-4.67-3.52-9.53-1.16-14.64c4.25-6.96,10.05-12.3,17.02-16.47C936.73,701.15,951.22,692.01,966.66,705.71z"/>
		<path class="st5" d="M930.34,897.9c0.05-8.1,0.1-16.19,0.15-24.29c4.88,0.24,9.76,0.48,14.63,0.72
			c15.77,12.46,4.66,26.14-2.92,33.39C926.91,922.36,933.95,902.07,930.34,897.9z"/>
		<path class="st19" d="M906.38,729.34c0,3.15-0.02,6.29-0.05,9.44c-3.07,2-6.42,3.12-10.07,3.37c-12.62,3.83-25.23,7.67-37.85,11.5
			C854.83,706.88,879.76,716.45,906.38,729.34z"/>
		<path class="st14" d="M818.41,1004.26c5.49-1.53,10.97-3.06,16.46-4.59c7.99,1.77,15.99,3.54,23.98,5.3
			c-4.29,4.6-8.59,9.2-12.88,13.81C834.58,1018.11,824.83,1014.35,818.41,1004.26z"/>
		<path class="st12" d="M642.45,489.65c14.52-22.45,36.96-26.31,61.15-26.09c34.96,27.74,62.31-15.05,94.79-10.24
			c5.51,14.37,14.84,23.85,31.15,24.45c15.38,7.12,23.82,18.85,24.05,36.04c-9.96,37.13-37.91,37.63-66.57,29.62
			c-35.38-9.89-66.9-14.31-101.28,8.44c-22.87,15.14-53.56,15.04-79.75-2.09l0.15,0.09c-6.46-8.18-16.99-5.43-25.06-9.29
			c-7.27-5.66-15.58-9.69-23.2-14.79l0.19,0.14c-4.31-3.65-7.35-8.61-12.13-11.77c9.29-18.78,26.81-11.36,41.53-13.26
			C606.03,498.49,627.24,508.59,642.45,489.65z"/>
		<path class="st13" d="M848.09,512.44c-6.19-11.55-12.37-23.11-18.56-34.66c7.83-0.26,15.92,0.68,23.45-0.96
			c72.83-15.9,119.48,19.9,126.95,97.86c-3.8,1.17-7.47,2.67-10.99,4.53C910.21,588.17,878.76,570.79,848.09,512.44z"/>
		<path class="st6" d="M821.97,393.58c-21.47-47.14,9.8-93.86,1.45-141.28c-1.82-10.31,10.68-15.76,21.05-9
			c11.32,7.38,20.39,18.3,34.56,20.98c0.98,22.99,1.95,45.97,2.93,68.96c0.27,25.3,2.84,51.45-24.44,66.69
			C844.44,404.79,832.59,402.6,821.97,393.58z"/>
		<path class="st19" d="M857.79,392.98c17.29-16.17,3.87-44.78,24.16-59.74c23.03,54.68,12.84,88.89-35.73,119.93
			C830.2,429.28,843.81,411.1,857.79,392.98z"/>
		<path class="st6" d="M1025.97,525.26c19.52-3.03,23.41,17.31,36.26,24.26c3.98,0.09,7.96,0.07,11.94-0.05
			c0.11,12.01,0.22,24.02,0.33,36.03c-20.69-3.71-44.79,8.71-61.65-13.07C1017.05,556.65,1009.03,537.48,1025.97,525.26z"/>
		<path class="st8" d="M857.79,392.98c5.59,21.88-11.08,39.48-11.57,60.19c-15.95,0.07-31.9,0.13-47.86,0.2
			c-0.02-3.99-0.03-7.98-0.05-11.97c-3.33-21.5,26.71-26.47,23.66-47.83C833.91,393.38,845.85,393.18,857.79,392.98z"/>
		<path class="st10" d="M968.56,392.11c39.66,15.17,55.16,43.6,46.72,85.18C992.99,452.59,969.41,428.59,968.56,392.11z"/>
		<path class="st21" d="M208.07,821.84c-15.3,5.33-30.6,10.65-45.9,15.98c-0.01-4.09-0.02-8.18-0.04-12.27
			c-16.22-21.72-45.7-4.38-63.53-21.58c-9.79-11.28-16.43-23.24-8.66-38.42c25.93,3.8,49.65-5.58,72.97-14.05
			c20.48-7.44,40.2-13.34,61.73-6.22c-0.65,4.82-1.31,9.64-1.96,14.46c-6.3,10.1-14.17,19.65-11.43,32.89
			C210.18,802.37,209.12,812.11,208.07,821.84z"/>
		<path class="st2" d="M30.12,779c0.2-4.55,0.4-9.1,0.6-13.66c7.89,4.02,15.77,8.05,23.66,12.07c25.18-10.15,31.36,0.96,26.87,24.04
			c-9.55,6.8-18.83,8.64-27.42-1.56C45.92,792.93,38.02,785.97,30.12,779z"/>
		<path class="st13" d="M77.01,800.09c0.88-15.98-7.93-22.27-22.64-22.68c7.87-15.9,22.7-10.94,35.56-11.87
			c4.51,11.86,13.73,22.13,12.08,36.06C93.24,808.39,84.85,808.87,77.01,800.09z"/>
		<path class="st9" d="M158.08,716.71c1.73,7.73-3.73,10.43-9.33,11.77c-8.09,1.94-15.54,0.03-18.23-8.89
			c-2.22-7.37,3.58-10.47,9.28-11.91C148.07,705.59,154.82,708,158.08,716.71z"/>
		<path class="st5" d="M666.31,981.84c31.63-30.77,63.47-25.11,95.42-0.56c-18.66,35.99-27.45,79.32-71.61,96.33l0.34-0.3
			c-12.01,0.79-24.02,1.58-36.03,2.37c-12.05-4.9-14.6-18.61-24.02-25.94c0.02-3.96-0.01-7.91-0.08-11.87
			C611.81,1003.55,646.98,997.45,666.31,981.84z"/>
		<path class="st17" d="M630.39,1053.74c17.19,0.14,24.57,9.36,24.02,25.94c-5.06,10.35-14.51,10.77-24.18,10.67
			C630.29,1078.15,630.34,1065.94,630.39,1053.74z"/>
		<path class="st8" d="M570.54,1053.85c15.49,8.49,11.15,23.1,11.21,36.35C555.84,1084.94,549.48,1073.63,570.54,1053.85z"/>
		<path class="st11" d="M461.99,1041.6c-16.89,0.5-24.28-8.22-23.82-24.56C450.21,1021.24,458.21,1029.38,461.99,1041.6z"/>
		<path class="st8" d="M558.23,1006.03c5.56,0.95,12.02,0.52,16.39,3.32c3.14,2.02,0.41,6.96-4.15,8.55
			C564.14,1016.26,560.07,1012.3,558.23,1006.03z"/>
		<path class="st6" d="M344.95,167.06c-5.07-4.96-10.14-9.93-15.21-14.89c5.56-10.36,10.31-21.27,16.9-30.91
			c6.7-9.8,17.17-21.96,21.1,1c6.05,35.37,19.17,31.9,40.32,11.02c15.4-15.2,32.54-22.84,29.22,11.01
			c-4.33,44.17,21.43,84.56,14.26,128.73c3.73,4.73,2.92,8.47-2.43,11.24l-1.33-2.37c-10.5,0.87-21,1.73-31.49,2.6
			c-5.4-19.71,0.37-41.32-10.22-60.15c-9.39-4.71-17.12-13.22-28.83-12.66C343.71,213.29,363.79,176.08,344.95,167.06z"/>
		<path class="st2" d="M449.11,284.25c-3.14-4.6-2.14-8.3,2.43-11.24c2.79-0.46,5.59-0.71,8.42-0.76c0.85,4.41,1.69,8.81,2.54,13.22
			C458.03,285.06,453.57,284.66,449.11,284.25z"/>
		<path class="st17" d="M848.09,512.44c36.43,29.23,70.12,63.45,120.85,66.77c9.78,36.19,45.36,44.97,70.3,64.65
			c8.63,6.81,23.7,6.42,21.07,22.48c-2.58,15.76-16.05,14.68-27.66,15.15c-11.95,0.49-23.94,0.29-30.5,13.1
			c-11.83,3.71-23.67,7.42-35.5,11.13c-15.99,3.92-31.97,7.84-47.96,11.75c-17.4,12.03-26.78,1.48-35.06-12.32
			c-9.17-44.65-43.57-57.03-82.19-64.04c-7.84-4.08-11.22-11.89-15.74-18.75c-8.88-8.16-17.75-16.31-26.63-24.47
			c2.67-53.78-28.58-4.02-40.48-13.19c-7.89,0.4-15.54-0.71-22.8-3.89c-13.33-10.36-29.45-0.76-43.52-5.99
			c-19.05-1.66-38.46-2.65-46.32-25.04c25.66-1.24,51.7,0.52,75.95-11.03c3.35-1.59,8.24,0.21,11.76-1.2
			c49.09-19.72,49.77-22.14,100.01-6.93C819.47,538.44,835.71,535.96,848.09,512.44z"/>
		<path class="st17" d="M285.34,474.37c3.29-14.86,6.57-29.72,9.86-44.58c40.43,13.01,81.17,25.47,108.63,61.43
			c-4.7,11.22-9.4,22.44-14.11,33.66C350.23,517.77,328.17,474.58,285.34,474.37z"/>
		<path class="st10" d="M413.8,536.95c2.39-6,6.55-9.82,13.11-10.69c16.27,4.93,34.29,8.37,27.78,32.7
			c-3.35,4.78-7.88,7.75-13.59,8.94c-5.79-0.27-10.82-2.32-14.95-6.44l0.08,0.14C422.09,553.38,417.94,545.17,413.8,536.95z"/>
		<path class="st4" d="M77.01,800.09c8.34,0.5,16.67,1.01,25.01,1.51c17.24-0.02,34.5-0.55,51.71,0.05
			c22,0.78,10.03,14.33,8.39,23.89c-38.1-0.13-76.1-0.62-108.3-25.66C61.55,799.96,69.28,800.03,77.01,800.09z"/>
		<path class="st6" d="M124.79,872.17c-21.74,0.47-43.48,0.94-65.21,1.4c18.22-22.33,44.5-9.22,66.45-15.13
			C129.86,863.4,129.45,867.98,124.79,872.17z"/>
		<path class="st10" d="M124.79,872.17c0.41-4.58,0.83-9.15,1.24-13.73c5.6-9.45,14.78-9.24,24.01-8.88
			c3.97,8.16,7.94,16.32,11.91,24.49C149.55,873.42,137.17,872.8,124.79,872.17z"/>
		<path class="st10" d="M690.12,1077.61c30.24-27.37,34.38-74.16,71.61-96.33c8.27-7.88,16.53-15.76,24.8-23.63
			c9.86,15.7,19.72,31.39,29.58,47.09c-52.47-25.26-52.88,20.31-66,48.57C731.19,1064.07,716.04,1084.15,690.12,1077.61z"/>
		<path class="st15" d="M173.43,994.17c8.2-0.05,16.39-0.1,24.59-0.15c18.93,33.38,61.21,11.76,84.13,35.74
			c-14.52,20.78-44.33,2.65-58.94,23.2c-4.39,0.32-8.77,0.65-13.16,0.97C193.35,1036.76,185.22,1014.34,173.43,994.17z"/>
		<path class="st17" d="M223.2,1052.96c-2.46-9.26-15.35-22.17,7.52-22.81c17.13-0.48,34.28-0.29,51.42-0.4
			c3.98,8.02,7.96,16.05,11.94,24.07C270.46,1053.54,246.83,1053.25,223.2,1052.96z"/>
		<path class="st2" d="M211.23,792.64c-27.33-21.8-1.2-25,11.43-32.89C227.47,773.71,221.61,783.96,211.23,792.64z"/>
		<path class="st18" d="M474.56,873.94c1.28,10.78-1.25,19.64-12.19,24.27C461.75,887.77,463.12,878.32,474.56,873.94z"/>
		<path class="st18" d="M451.04,560.04c1.93-18.39-18.41-20.86-24.13-33.78c41.97-31.21,75.76-0.3,101.22,22.36
			c55.38,49.28,123.77,56.51,189.84,73.04c11.39,2.85,24.21,0.55,32.33,11.92c3.63,6.18,7.71,9.16,13.22,1.85
			c7.49-1.66,14.99-3.31,22.48-4.97c1.76,1.97,3.51,3.93,5.28,5.9c3.28,8.15,1.59,15.27-4.5,21.46c-16.38,7-23.03,19.93-24.39,37.21
			c-2.1,26.7-21.69,41.19-41.69,53.92c-9.96,6.34-25.6,9.09-33.02-0.04c-6.6-8.11,5.74-16.84,12.55-23.23
			c11.49-10.79,8.18-18.71-1.16-29.63c-22.48-26.26-49.43-47.82-82.06-55.56c-32.75-7.77-61.81-24.67-94.43-31.49
			C489.38,606.36,471.35,581.52,451.04,560.04z"/>
		<path class="st12" d="M715.38,574.15c13.17-0.74,19.8-11.05,29.05-18.31c17.01-13.34,31.24-2.92,38.3,12.61
			c9.99,21.96-5.93,27.41-23.64,29.44l-3.32,0.73l-3.39-0.09C743.31,585.44,711.36,607.12,715.38,574.15z"/>
		<path class="st11" d="M715.38,574.15c7.02,16.2,30.29,7.71,37,24.38c-23.59,13-44,6.13-62.91-10.09c-3.11-3.5-4.01-6.85-2.7-10.08
			c1.28-3.15,2.48-4.73,3.62-4.73C698.71,573.81,707.05,573.98,715.38,574.15z"/>
		<path class="st16" d="M690.38,573.64c-0.31,4.93-0.61,9.87-0.92,14.8c-12.86-3.27-28-0.27-37.17-13.61
			C664.93,572.47,676.98,551.48,690.38,573.64z"/>
		<path class="st7" d="M557.86,525.8c9.89-0.78,19.17,0,24.99,9.7c3.91,3.01,5.15,5.94,3.74,8.79c-1.39,2.81-2.76,4.22-4.12,4.22
			C570.16,545.4,560.7,539.19,557.86,525.8z"/>
		<path class="st17" d="M582.47,548.51c0.13-4.34,0.25-8.67,0.38-13.01c9.64,1.75,20.03,2.27,23.27,14.38
			C598.24,549.42,590.35,548.96,582.47,548.51z"/>
		<path class="st15" d="M763.53,635.43c-1.93,4.82-4.14,13.89-5.76,13.78c-10.06-0.66-5.95-9.75-7.46-15.63
			C754.71,634.19,759.12,634.81,763.53,635.43z"/>
		<path class="st8" d="M785.71,622.35c6.68,0.94,11.05,4.54,12.77,11.16c-3.99,4.08-7.88,3.99-11.67-0.28l-0.8-2.79
			C785.79,627.76,785.69,625.06,785.71,622.35z"/>
		<path class="st7" d="M545.92,514.16c6.56,1.33,10.65,5.2,12.13,11.77l-5.92,0.71l-5.85-1.12
			C546.24,521.73,546.12,517.94,545.92,514.16z"/>
		<path class="st5" d="M630.69,465.49c7.01,1.29,10.5,5.91,11.88,12.54C638.61,473.85,634.65,469.67,630.69,465.49z"/>
		<path class="st1" d="M402.07,321.5c-0.11-4.04-0.22-8.07-0.33-12.11c4.13,3.94,8.26,7.87,12.39,11.81
			C410.11,321.3,406.09,321.4,402.07,321.5z"/>
		<path class="st1" d="M401.96,309.67c-7.92-0.14-15.84-0.29-23.76-0.43c-2.94-2.83-3.92-5.66-2.94-8.49
			c0.98-2.83,1.96-4.24,2.95-4.24c8,0.18,16.01,0.36,24.01,0.54C402.13,301.25,402.05,305.46,401.96,309.67z"/>
		<path class="st14" d="M894.87,693.02c0.23,15.68,7.91,24.08,23.83,24.44c-4.11,3.96-8.22,7.92-12.33,11.88
			c-18.31,3.52-45.21-9.93-47.96,24.31c-8.51,21.98-36.55,31.81-36.69,59c-18.39,25.06-27.07,64.93-73.04,47.96
			c2.78-11.66,5.93-23.31,2.01-35.35c-7.95-13.89,5.43-17.01,11.9-23.62l-0.35,0.28c4.1-3.36,8.66-5.86,13.74-7.39
			c14.43-9.77,8.11-30.86,22.24-40.79c0.04-8.01,0.09-16.01,0.13-24.02c10.24-8.62,16.48-20.66,25.71-30.17
			c12.08-7.04,25.67-7.88,39.06-9.66C873.94,688.58,884.85,686.55,894.87,693.02z"/>
		<path class="st6" d="M451.04,560.04c32.58,3.54,52.3,25.9,71.54,48.95c-0.24,23.46-0.47,46.92-0.71,70.38
			c-4,0.76-8,1.52-12.01,2.29c-8.3-9.02-15.93-18.51-20.84-29.79c-2.72-8.11-6.13-15.45-17.04-13.61c-4.45-0.57-7.46-2.94-9.06-7.08
			c-4.24-7.19-8.49-14.38-12.73-21.57c-10.03-14.42-25.05-27.6-11.79-47.77C442.61,561.23,446.83,560.63,451.04,560.04z"/>
		<path class="st10" d="M894.87,693.02c-8.22,4.15-16.43,8.29-24.65,12.44c-18.21-19.01-42.62-30.02-61.7-47.91
			c-7.25,0.08-14.49,0.17-21.74,0.25c0.01-8.19,0.01-16.38,0.02-24.57c3.89,0.02,7.78,0.11,11.67,0.28
			C845.38,629.41,882.71,640.8,894.87,693.02z"/>
		<path class="st17" d="M808.52,657.56c34.73-2.29,56.76,11.79,61.7,47.91c-15.78,0.32-31.57,0.64-47.35,0.97
			c-4.39,3.73-8.49,3.43-12.3-0.9C809.89,689.54,809.21,673.55,808.52,657.56z"/>
		<path class="st15" d="M798.23,753.74c-3.19,18.35,10.84,45.61-24.47,47.35c-2.69-2.49-3.53-4.92-2.51-7.27
			c1-2.32,1.97-3.48,2.92-3.48C774.65,773.18,771.86,753.86,798.23,753.74z"/>
		<path class="st10" d="M810.58,705.53c4.1,0.3,8.2,0.6,12.3,0.9c-0.35,16.01-8.84,23.44-24.52,23.29
			C798.53,719.68,799.74,710.17,810.58,705.53z"/>
		<path class="st11" d="M762.6,801.63c-3.97,7.87-7.94,15.75-11.9,23.62c-8.17-0.19-16.33-0.38-24.5-0.57
			C733.26,809,745.12,800.87,762.6,801.63z"/>
		<path class="st13" d="M713.59,788.96c-13.57,0.32-29.02,6.34-36.47-11.98C691.03,775.63,705.5,772.58,713.59,788.96z"/>
		<path class="st11" d="M774.17,790.34c-0.01,3.59-0.14,7.17-0.41,10.75c-3.84,0.28-7.67,0.55-11.51,0.83
			C763.83,795.59,767.78,791.71,774.17,790.34z"/>
		<path class="st19" d="M748.69,860.61c31.84-4.57,47.34-34.04,73.04-47.96c0.49,4.76,0.97,9.51,1.46,14.27
			c-12.01,36.3-34.76,61.55-72.96,70.85c-1.83-2.03-3.66-4.06-5.5-6.09c-4.48-11.27-1-21.36,4.65-31.12L748.69,860.61z"/>
		<path class="st18" d="M702.38,873.67c7.97-0.01,15.94-0.03,23.91-0.04c9.11,7.01,15.72,16.48,24.01,24.3l-0.08-0.16
			C712.84,917.06,708.79,915.02,702.38,873.67z"/>
		<path class="st4" d="M906.9,858.28c-4.27,14.25-14.85,15.53-27.18,13.24C884.27,857.83,888.05,842.59,906.9,858.28z"/>
		<path class="st4" d="M666.31,981.84c-7.72,22.58-38.1,31.55-35.99,60.03c-12.85-1.7-29.61,4.64-34.04-15.09
			c-3.04-13.53,6.51-21.84,14.41-30.85C626.13,978.33,646.75,982.46,666.31,981.84z"/>
		<path class="st18" d="M462.91,631.17c3.67,0.62,7.36,0.75,11.07,0.38c13.67-5.07,17.49,7.03,24.29,13.94
			c5.01,11.69,13.46,22.27,11.59,36.16c-4.15,0.55-8.3,1.09-12.45,1.64l0.12-1.33c-3.26-4.55-7.16-8.45-11.71-11.7l0.05-0.19
			c-4.13-5.15-8.43-10.15-12.9-15.01c-3.25-2.47-6.5-4.93-9.74-7.4C463.13,642.16,463.02,636.66,462.91,631.17z"/>
		<path class="st18" d="M438.21,645.43c5.19-9.84,8.84-7.93,11.49,1.51C445.81,646.9,441.98,646.4,438.21,645.43z"/>
		<path class="st10" d="M472.98,655.06c4.3,5,8.6,10.01,12.9,15.01C477.31,668.74,473.3,663.49,472.98,655.06z"/>
		<path class="st19" d="M485.83,670.25c6.72,1.08,10.65,4.96,11.71,11.7C490.01,681.68,486.43,677.46,485.83,670.25z"/>
		<path class="st14" d="M438.39,561.83c3.93,15.92,7.86,31.85,11.79,47.77c-34.28-2.93-20.99-29.61-24.03-48.14
			C430.23,561.58,434.31,561.71,438.39,561.83z"/>
		<path class="st10" d="M750.3,897.93c-16.23,0.04-24.45-7.85-24.01-24.3c7.69-4.36,15.38-8.71,23.07-13.07
			C749.67,873.02,749.98,885.47,750.3,897.93z"/>
		<path class="st2" d="M378.2,296.5c0,4.24,0,8.49,0,12.73c-9.6-0.01-18.89-0.71-23.93-10.81c-0.01-4.47-0.02-8.95-0.03-13.42
			C373.5,265.32,375.71,281.21,378.2,296.5z"/>
		<path class="st22" d="M377.24,211.67c4.46-10.16,10.05-25.03,21.41-21.22c14.94,5.01,7.88,21.66,7.43,33.88
			C394.23,225.2,383.24,224.11,377.24,211.67z"/>
		<path class="st14" d="M498.28,645.49c-8.1-4.65-16.2-9.29-24.29-13.94c2.3-8.62,2.69-22.06,15.92-16.41
			C502.14,620.36,497.16,634.75,498.28,645.49z"/>
	</g>
</g>
</svg>
