<?xml version="1.0" encoding="utf-8"?>
<!-- Generator: Adobe Illustrator 23.1.0, SVG Export Plug-In . SVG Version: 6.00 Build 0)  -->
<svg version="1.1" id="Calque_1" xmlns="http://www.w3.org/2000/svg" xmlns:xlink="http://www.w3.org/1999/xlink" x="0px" y="0px"
	 viewBox="0 0 1125 1097.06" style="enable-background:new 0 0 1125 1097.06;" xml:space="preserve">
<style type="text/css">
	.st0{fill:#FAF8F7;}
	.st1{fill:#F80100;}
	.st2{fill:#D00201;}
	.st3{fill:#F90303;}
	.st4{fill:#AA4011;}
	.st5{fill:#E5C8BF;}
	.st6{fill:#DD0000;}
	.st7{fill:#F30000;}
	.st8{fill:#EA0000;}
	.st9{fill:#B94A12;}
	.st10{fill:#C40200;}
	.st11{fill:#FAEFE8;}
	.st12{fill:#F3E3DC;}
	.st13{fill:#EEE1DF;}
	.st14{fill:#83230D;}
	.st15{fill:#070606;}
	.st16{fill:#C2AFAC;}
	.st17{fill:#191716;}
	.st18{fill:#C6857E;}
	.st19{fill:#B60C0B;}
	.st20{fill:#D6BBB9;}
	.st21{fill:#D3B6B4;}
	.st22{fill:#E0CDCB;}
	.st23{fill:#C45515;}
	.st24{fill:#D56317;}
	.st25{fill:#DBBAB1;}
	.st26{fill:#CEA9A3;}
</style>
<g>
	<g>
		<path class="st0" d="M5.22,702.15C-6.77,585.77,0.58,471.54,41.06,360.5c11.77-32.3,24.56-63.73,44.57-91.86
			c5.75,2.12,10.02,5.85,12.64,11.42c10.86,30.99-12.73,62.82,2.38,93.72c7.18,32.32,3.05,65.3,5.72,97.89
			c1.01,12.42,2.7,26.07,15.22,31.5c15.38,6.67,28.98-1.89,37.63-13.64c68.49-93.05,113.09-193.62,94.87-312.85
			c-10.44-26.37-35.72-14.89-54.12-21.05c-6.24-2.53-7.62-6.88-4.92-12.76C247.67,83.97,316.87,52.99,389.14,26.5
			c51.11-18.73,104.21-9.03,156.23-14.12c109.55-5.17,230.5,64.93,255.12,147.77c6.8,149.6-15.87,292.12-97.22,421.8
			C608.3,733.35,469.17,815.27,296.13,845.57c-23.47-5.5-27.44-32.79-47.32-42.2c-16.57-5.43-29.08,7.65-44.03,9.7
			C115.56,816.79,55.37,768.46,5.22,702.15z"/>
		<path class="st1" d="M1050.44,814.42c-42.13,117.75-124.18,197.61-238.66,243.39c-65.8,26.31-135.25,36.77-206.97,39.25
			c-102.35,3.54-203.33-12.03-305.1-13.92c-59.4-1.1-119.13-2.8-178.16,2.27c-25.86,2.22-49.4,9.06-75.62-0.94
			c-20.1-7.66-31.3-18.18-30.73-39.3c0.61-22.33-3.63-47.26,4.83-66.4c18.76-42.46,20.78-86.11,21.71-130.67
			c42.98,13.69,52.35,57.78,78.62,86.53c4.56,8.14,8.48,16.73,14.38,24.07c3.05,3.03,5.96,6.25,8.96,9.33
			c3.16,2.79,6.12,5.82,9.06,8.83c1.51,1.42,2.93,2.97,4.44,4.39c3.1,2.74,6.07,5.64,9.13,8.46c1.71,1.22,3.29,2.57,4.99,3.77
			c5.57,3.33,11.35,6.16,17.34,8.83c4.47,1.69,8.73,3.59,13.09,5.47c9.75,3.76,19.82,6.04,29.96,8.4
			c52.46,0.39,103.29,12.99,154.99,18.83c67.87,15.9,133.21-11.15,200-11.85c99-31.21,186.8-79.54,253.35-161.72
			c24.37-30.1,50.92-58.81,82.38-81.48C969.08,746.32,1024.18,762.13,1050.44,814.42z"/>
		<path class="st2" d="M1050.44,814.42c-13.4-22.06-38.44-27.88-59.15-35.91c-21.68-8.41-47.04-6.91-65.68,16.09
			c-29.01,35.79-65.85,63.8-92.74,102.81c-29.55,42.87-79.02,66.09-124.49,90.21c-36.18,19.19-69.36,48.04-114.28,46.63
			c-15.6-32.15,14.43-35.5,30.31-47.23c51.54-38.06,105.81-73.41,129.59-137.5c6.89-19.34,19-35.94,28.04-54.17
			c21.93-41.21,34.48-87.85,69.95-121.27c53.78-3.37,103.52,17.45,155.29,25.9c5.42,1.23,10.69,3.07,15.84,5.15
			c14.43,6.81,28.62,14.23,42.73,21.83c4.52,2.81,8.4,6.34,11.64,10.56c1.61,5.31,0.7,10.17-2.71,14.57
			C1074.49,775.91,1070.03,798.12,1050.44,814.42z"/>
		<path class="st3" d="M794.8,159.96c-34.87-62.34-95.62-92.08-156.13-120.78c-29.09-13.79-60.77-22.83-93.3-26.79
			c39.59-22.33,83.34-13.21,123.15-8.18c65.02,8.21,131.81,15.34,191.66,46.89c24.68,13.01,52.42,21.86,68.29,47.58
			c-3.13,48.44-11.8,96.4-10.76,145.27c0.49,22.83-5.58,44.67-28.78,56.58c-18.92,5.91-30.44-4.2-40.06-18.47
			c-4.66-7.67-7.72-16.06-10.35-24.58c-2.9-7.87-5.72-15.83-9.18-23.53C821.14,207.77,795.92,189.44,794.8,159.96z"/>
		<path class="st4" d="M1098.67,505.4c18.9,14.01,22.67,33.88,25.06,56.04c5.62,52.2-8.9,102.32-13.53,153.41
			c-1.03,11.4-10.72,21.1-23.77,24.17c-4.07,4.38-8.23,4.48-12.5,0.29l-0.13-0.13c-12-16.97-33.37-15.21-49.18-24.55l0.08,0.06
			c-52.39-25.53-114.32-19.61-165.26-50.03c-12.35-73.45,19.33-143.47,16.69-216.16c1.74-6.4,4.76-12.19,8.87-17.36
			c5.17-4.09,11.12-6.14,17.71-6.18c2.99,0.86,6.04,1.74,9.03,2.57c4.93,4.07,7.65,9.35,8.16,15.73
			c-0.32,17.38-3.78,34.71-2.08,52.23c1.3,22.73,9.52,44.35,11.03,67.03c14.46,45.99,30.98,51.28,71.98,23.22
			C1035.81,561.82,1055.28,519.08,1098.67,505.4z"/>
		<path class="st5" d="M114.35,947.22c-24.2-33.04-48.41-66.09-72.61-99.13c-0.32-7.7-0.65-15.39-0.97-23.09
			c22.33-16.27,37.47,4.8,55.81,10.34c52.52,15.86,104.17,36.94,160.99,30.07c9.37-1.52,18.64-1.17,27.85,1.09
			c9.07,2.63,17.66,6.42,26.12,10.53c39.76,12.79,76.46-6.63,114.41-11.5c24.48-3.14,48.2-10.44,70.76,5.56
			c14.23,29.47-8,40.02-27.51,50.45c-50.16,26.82-102.48,47.08-159.95,52.65c-21.68,2.1-44.89,0-64.03,14.19
			c-4.7,7.63-9.29,15.3-15.41,21.9c-4.86,3.79-10.4,5.59-16.55,5.49c-8.74-0.51-18.12,0.98-24.37-7.57l0.2,0.27
			c-7.29-5.86-19.04-3.36-24.35-12.94l0.11,0.32c-5.93-2.3-9.96-6.58-12.73-12.18l0.26,0.28c-5.64-2.72-9.71-7.11-13.02-12.28
			l0.4,0.34C128.06,967.04,120.56,957.8,114.35,947.22z"/>
		<path class="st6" d="M975.64,136.49c23.68,7.93,25.69,32.04,36.89,49.29c3.87,3.94,7.43,8.13,10.63,12.64
			c1.37,3.84,2.02,7.81,1.95,11.89c0.36,63.06,27.65,120.41,39.36,181.2c12.29,63.74,10.77,72.11-54.97,80.46
			c-20.57-1.27-39.71-6.58-55.87-20.1c-5.04-4.9-7.16-10.88-6.44-17.85c2.72-6.04,6.74-11.1,11.95-15.18
			c26.09-18.72,20.61-45.29,17.61-71.21c-5.53-47.83-13.43-95.42-16.99-143.41C958.02,180.72,955.44,155.53,975.64,136.49z"/>
		<path class="st7" d="M874.4,297.5c20.76-5.64,28.27-19.49,27.54-40.48c-0.99-28.27-0.02-56.61-0.31-84.91
			c-0.29-27.95,6.53-53.1,26.86-73.43c3.51,0.06,6.86,0.84,10.03,2.33c11.11,17.36,18.77,35.95,18.07,56.9
			c-2.15,64.87,5.1,129.06,12.22,193.38c3.1,28.04,2.95,56.97-17.92,80.44l-0.01,0.17c-12.3,9.88-24.53,9.99-36.7-0.24l-0.02-0.02
			c-27.43-34.02-25.02-78.81-42.3-116.53C870.82,308.97,871.79,303.11,874.4,297.5z"/>
		<path class="st8" d="M950.89,431.73c1.23-110.44-20.69-220.01-12.38-330.72c17.29,6.7,28.99,19.23,37.13,35.48
			c-1.57,75.41,5.93,149.82,24.03,223.16c1.88,7.61,0.45,16.06,0.45,24.12C1000.09,423.89,997.65,426.25,950.89,431.73z"/>
		<path class="st9" d="M1098.67,505.4c-25.71,39.05-63.41,66.84-94.76,100.59c-17.8,19.16-45.97,6.45-66.67,20.62
			c-6.4,4.38-18.68-8.59-20.82-17.79c-3.12-13.39-1.82-27.81-2.41-41.78c47.4-37.35,107.3-49.95,158.43-79.99
			c9.49-2.01,18.12-0.66,25.17,6.59C1098.38,497.53,1098.73,501.44,1098.67,505.4z"/>
		<path class="st10" d="M1097.6,493.65c-7.81-0.26-15.63-0.52-23.44-0.78c-20.03,1.23-37.88-7.56-56.69-12.19
			c-10.12-4.99-22.15-8.68-17.34-24.28c73.38-0.45,76.07-3.16,45.68-68.5c-7.43-15.99-8.4-30.56-8.72-46.46
			c-0.4-19.99-0.76-37.67-15.19-56.24c-17.23-22.17-17.35-50.72,3.2-74.89c25.04,36.33,32.27,78.88,41.09,120.59
			C1077.62,384.95,1087.22,439.38,1097.6,493.65z"/>
		<path class="st11" d="M5.22,702.15c24.88-2.4,35.12,18.45,48.29,32.43c43.73,46.46,97.12,67.65,160.21,66.57
			c10.65,12.37,9.66,25.27,1.75,38.48c-80.3,30.12-136.52-14.77-192.11-61.63C14.32,753.44-1.12,730.39,5.22,702.15z"/>
		<path class="st12" d="M23.36,778.01c9.83-1.64,20.08-4.19,28.33,3.75C97,825.33,152.85,838,213.36,837.25
			c7.15-6.92,15.38-7.39,24.27-4.07c14.73,11.4,23.89,25.77,23.78,45.01c-38.14,25.86-71.63-9.03-107.79-8.21
			c-44.16,1.01-75.07-30.44-112.85-44.98C28.03,811.9,27.96,794.12,23.36,778.01z"/>
		<path class="st13" d="M135.55,195.03c6.5-16.89,15.46-31.32,35.12-35.05c5.6-2.34,11.34-2.76,17.22-1.25
			c6.47,31.73-12.62,42.12-38.89,46.55C142.89,204.01,138.4,200.59,135.55,195.03z"/>
		<path class="st13" d="M100.08,245.18c0.51-17.17,10.96-27.93,23.95-37.06c2.38,1.66,4.76,3.31,7.15,4.96
			c7.6,19,6.35,34.31-16.93,40.4C108.22,252.96,103.55,250.09,100.08,245.18z"/>
		<path class="st0" d="M188.59,161.89c-5.97-0.64-11.95-1.28-17.92-1.92c4.34-11.08,15.83-12.01,24.37-17.11
			c1.75,2.09,3.51,4.18,5.27,6.26C203.43,159.83,198.85,163.47,188.59,161.89z"/>
		<path class="st0" d="M85.63,268.64c3.14-8.85,2.71-19.89,14.45-23.47l1.46,2.24c8.65,14.27,8.36,24.27-11.86,24.72L85.63,268.64z"
			/>
		<path class="st13" d="M124.02,208.12c3.84-4.36,7.68-8.73,11.52-13.09l3.43,3.49c2.44,10.8-1.46,15.08-12.45,12.12
			C126.53,210.63,124.02,208.12,124.02,208.12z"/>
		<path class="st10" d="M1023.16,198.42c-7.06-1.26-10.44-5.61-10.63-12.64C1019.61,187.02,1024.01,190.52,1023.16,198.42z"/>
		<path class="st14" d="M1073.93,739.31c4.17-0.1,8.33-0.2,12.5-0.29c-0.51,7.35-4.41,11.69-11.64,13.07
			C1074.5,747.83,1074.21,743.57,1073.93,739.31z"/>
		<path class="st15" d="M358.6,385.5c4.78-70.09,26.36-145.18,100.36-197.63c31.75-22.5,66.9-26.94,102.5-33.78
			c9.01-1.73,13.34,3.52,20.22,7.98c55.64,36.05,76.44,88.2,71.26,151.63c-5.79,70.96-34.6,133.18-78.39,188.66
			c-16.79,21.27-38.61,35.51-64.58,44.37c-63.97,21.81-117.01-4.83-139.51-68.94C361.45,452.05,359.39,426.13,358.6,385.5z"/>
		<path class="st13" d="M298.76,886.78c-8.32-0.91-12.16-6.01-13.07-13.88c-8.94-12.74-9.98-24.79,3.05-35.65
			c48.35-2.88,91.82-25.89,135.89-41.02c33.31-11.43,66.77-35.11,99.6-54.2c127.53-74.16,190.89-194.91,236.51-326.61
			c11.9-34.35,22.31-72.92,17.98-111.83c-0.67-6.07-1.69-12.82,0.18-18.33c11.13-32.78,15.16-64.79,0.4-98.19
			c-4.73-10.71-1.48-24.79,15.49-27.09c23.71,19.65,39.51,44.13,45.6,74.53c3.65,3.9,6.7,8.22,9.16,12.96
			c2.14,7.75,4.29,15.5,6.43,23.25c-18.47,91.44-19.84,185.56-62.52,272.94C691.92,751.54,532.84,871.9,298.76,886.78z"/>
		<path class="st15" d="M262.64,158.07c30.76,33.78,17.62,73.31,10.61,109.59c-14.64,75.83-39.85,148.41-83.84,213.15
			c-3.4,5.01-6.57,10.24-10.52,14.79c-17.61,20.29-37.03,43.9-66.08,35.27c-28.83-8.56-24.29-39.38-25.1-62.82
			c-1.12-32.5,1.1-65.11,1.89-97.67C97.97,260.68,171.56,170.39,262.64,158.07z"/>
		<path class="st16" d="M262.64,158.07c-90.9,39.3-144.07,108.76-164.48,204.68c-0.64,3.02-5.6,5.12-8.55,7.64
			c-22.58-8.73-14.87-30.31-9.57-40.5c10.05-19.3,10.31-37.9,9.63-57.75c16.5-2.24,11.84-14.6,11.86-24.72
			c31.21,3.25,25.53-18.51,25-36.79c8.26,0.17,12.19-4.09,12.45-12.12c26.46,1.2,37.98-17.79,49.61-36.62
			c7.3-1.14,10.85-5.72,11.73-12.76C221.3,150.63,246.92,119.92,262.64,158.07z"/>
		<path class="st17" d="M288.75,837.25c-1.02,11.88-2.04,23.77-3.05,35.65c-8.09,1.76-16.19,3.53-24.28,5.29
			c-11.56-11.6-23.17-23.17-27.68-39.68c-10.82-22.14-5.79-39.53,15.61-52.03C280.44,789.49,280.73,816.36,288.75,837.25z"/>
		<path class="st16" d="M249.34,786.49c-10.65,15.71-11.78,34.27-15.61,52.03c-6.79-0.42-13.58-0.85-20.38-1.27
			c0.12-12.03,0.24-24.06,0.36-36.09c8.19-2.39,8.86-9.77,12.34-16.07C233.11,772.3,242.37,772.25,249.34,786.49z"/>
		<path class="st18" d="M213.5,1009.03c3.53-0.32,7.06-0.63,10.59-0.94c7.73-5.45,15.7-10.42,25.17-12.27
			c18.18-2.9,36.24-1.53,54.18,1.92c36.89,11.71,69.11-1.81,100.62-18.94c4.85-2.63,9.93-4.73,15.1-6.6
			c41.27-10.82,74.37-33.82,100.64-67.23c5.06-3.24,10.38-5.8,16-7.89c5.84-1.93,12.13-2.64,17.6-5.12
			c81.08-36.85,81.29-36.81,107.35,48.19c-19.04,57.64-74.91,67.29-120.4,83.54c-48.79,17.43-101.68,29.5-155.61,22.15
			c-55.31-4.79-110.64-9.47-165.91-14.75c-2.51-0.24-4.51-5.87-6.75-9C205.68,1016.99,206.15,1012.63,213.5,1009.03z"/>
		<path class="st19" d="M384.74,1045.83c37.02-17.31,79.01-10.89,116.81-24.34c56.31-20.04,115.7-34.47,155.96-84.2
			c17.99-43.77,61.34-61.63,93.29-91.19c5.79-1.57,10.97-0.38,15.52,3.52c0.25,15.94,1.7,31.28-12.74,44.03
			C705,936.49,668.34,994.27,600.51,1012.8c-9.33,2.55-5.22,13.9-6.41,21.44c-0.75,1.89-1.1,5.1-2.32,5.48
			c-16.69,5.19-188.34,19.19-201.28,15.83C387.91,1054.88,386.62,1049.2,384.74,1045.83z"/>
		<path class="st19" d="M114.35,947.22c12.07,4.57,21.42,11.93,25.41,24.78C119.83,975.47,112.11,966.44,114.35,947.22z"/>
		<path class="st19" d="M164.73,995.53c10.84-0.79,21.91-2.03,24.35,12.94C178.38,1009.02,165.13,1014.33,164.73,995.53z"/>
		<path class="st19" d="M213.5,1009.03c-0.47,4.35-0.94,8.7-1.41,13.05c-9.93-0.96-23.05,3.4-23.2-13.88
			C197.09,1008.48,205.29,1008.75,213.5,1009.03z"/>
		<path class="st19" d="M152.12,983.67c8.08,0.06,12.6,3.83,12.73,12.18C155.61,996.99,151.4,992.9,152.12,983.67z"/>
		<path class="st19" d="M139.36,971.66c7.87,0.36,12.77,3.86,13.02,12.28C143.41,984.75,139.27,980.44,139.36,971.66z"/>
		<path class="st20" d="M886.67,431c9.33,69.38-2,136.72-19.56,203.56c-2.55,9.71-2.2,20.18-3.18,30.29
			c-1.13,5.64-4.05,10.17-8.51,13.74c-19.15,42.41-35.71,86.14-63.43,124.17c-27.26-11.06-25.48-34.21-21.92-56.5
			c3.36-21.08,0.86-40.17-10.49-58.19c-6.72-18.95-1.77-36.38,7.95-52.61c33.66-56.23,62.11-114.69,81.53-177.53
			C854.2,441.22,860.07,420.23,886.67,431z"/>
		<path class="st21" d="M766.31,689.95c9.87,0.33,23-0.83,23.85,11.7c1.05,15.44,6.84,33.3-3.99,46.63
			c-17.27,21.26-1.24,36.95,5.8,54.49c1.15,20.92-21.21,28.99-25.66,46.85c-3.51,0.37-7.01,0.77-10.51,1.19
			c-41.79,3.14-42.77-34.01-57.34-57.81c-7.4-49.58,37.39-67.68,60.06-99.21C761.09,692.48,763.7,691.22,766.31,689.95z"/>
		<path class="st14" d="M855.41,678.6c-1.71-7.39,1.72-11.6,8.51-13.74c54.13,14.89,114.01,11.26,160.78,49.83
			C966.61,710.43,910.25,698.08,855.41,678.6z"/>
		<path class="st14" d="M1024.62,714.63c9.42-0.02,18.89,0.53,28.26-0.18c18.86-1.44,22.13,9.6,20.91,24.74
			C1053.99,737.82,1036.18,732.46,1024.62,714.63z"/>
		<path class="st22" d="M886.67,431c-9.85,1.53-20.07,1.55-21.96,15.43c-10.07,74.18-46.36,137.61-85.93,198.81
			c-9.83,15.2-12.51,28.64-12.47,44.71l0,0c-55.91,54.83-105.87,116.89-182.75,145.83c-17.27,6.5-28.69,22.02-40.53,35.98
			c-4.17,4.32-9.02,7.62-14.46,10.11c-12.35,3.58-23.54,1.99-32.92-7.48c-43.8-2.91-84.64,12.19-126.72,20.12
			c-23.43,4.42-49.36,17.28-70.17-7.73c28.07-20.82,62.59-20.08,94.28-23.53c47.31-5.14,90.81-22.09,127.32-47.33
			c44.28-30.61,87.88-62.67,131.88-94.03c46.79-33.35,71.75-85.56,101.86-132.98c24.4-38.42,32.61-83.52,54.41-123.7
			c16.96-31.27,14.36-73.42,19.01-110.92c2-16.13,0.43-32.71,0.31-49.09c-0.13-19.33,10.65-29.62,28.16-34.5
			c13.3,4.02,4.5,23.2,18.41,26.8c0.49,3.9,1.44,7.69,2.85,11.36c6.94,40.85,35.95,79.24,13.74,123.33L886.67,431z"/>
		<path class="st22" d="M849.56,247.46c-6.97-1.56-9.66-6.14-9.16-12.96C846.77,236.48,852.15,239.16,849.56,247.46z"/>
		<path class="st23" d="M1024.68,468.92c19.94,0.88,37.42,6.85,49.49,23.96c-1.54,3.58-2.06,8.98-4.76,10.48
			c-49.24,27.39-98.48,54.95-155.4,63.69c5.94-26.25-18.38-47.54-12.15-73.84C937.92,460.49,986.24,489.66,1024.68,468.92z"/>
		<path class="st24" d="M1024.68,468.92c0.06,12.85-0.62,24.65-18.52,24.46c-34.76-0.37-69.53-0.15-104.3-0.17
			c4.55-16.35-12.11-38.03,12.43-49.36c12.2-8.03,24.4-8.17,36.58,0.04c18.39-3.56,30.69,16.81,49.27,12.51
			C1002.7,471.57,1014.9,467.86,1024.68,468.92z"/>
		<path class="st19" d="M890.99,432.19c2.44-41.89-18.22-81.21-13.74-123.33c31.21,35.25,33.32,79.24,36.93,122.78
			C906.44,431.82,898.71,432.01,890.99,432.19z"/>
		<path class="st19" d="M950.87,443.89c-12.19-0.01-24.39-0.03-36.58-0.04c-0.23-4.06-0.26-8.13-0.09-12.19
			c12.23,0.08,24.46,0.16,36.7,0.24C950.86,435.89,950.85,439.89,950.87,443.89z"/>
		<path class="st25" d="M495.65,874.39c12.31,0.01,24.62,0.03,36.93,0.04c10.77,12.3,9.63,24.6-0.02,36.89c-4,0.1-8,0.16-12,0.17
			c-26.83,32.68-68.65,45.26-98.76,73.54c-4.02,0.09-8.04,0.16-12.07,0.19c-31.34,14.41-64.29,22.3-98.69,24.34
			c-20.48-0.09-40.96-0.18-61.43-0.27c-8.33-8.04-16.45-16.3-24.76-24.36c0.27-12.33,0.44-26.66,17.88-24.16
			c44.46,6.36,85.97-13.7,129.72-12.91c7.58,0.14,18.03-0.47,22.36-5.16c21.4-23.2,51.11-28.48,78.34-39.12
			C486.7,898.29,498.96,892.44,495.65,874.39z"/>
		<path class="st26" d="M224.86,984.93c18.17-1.94,26.77,5.83,24.76,24.36c-8.51-0.4-17.02-0.81-25.52-1.21
			C224.34,1000.37,224.6,992.65,224.86,984.93z"/>
		<path class="st26" d="M532.56,911.32c0.01-12.3,0.01-24.59,0.02-36.89l-0.01-0.03c39.17-25.67,78.08-51.75,117.51-77.04
			c16.87-10.82,33.06-26.51,54.7-9.11c17.73,2.48,14.99,20.67,21.39,30.91c8.19,13.1,13.06,27.09,29.63,31.65
			c-22.59,40.36-65.71,57.45-98.3,86.48c-24.94-22.4-24.94-22.4-31.28-61.95c-18.88,3.51-37.01,8.08-49.87,23.38
			C564.07,913.34,548.4,911.53,532.56,911.32z"/>
		<path class="st26" d="M421.8,985.03c0.22-4.06-1.21-10.12,0.91-11.88c29.91-24.76,57.79-52.94,97.84-61.66
			c3.11,19.49-9.66,32.08-23.13,39.77C473.54,964.9,451.35,983.64,421.8,985.03z"/>
		<path class="st26" d="M311.05,1009.56c30.07-19.55,63.46-25.67,98.69-24.34c-15.62,37.81-56.14,20.02-81.81,36.08
			C320.69,1025.83,313.28,1018.55,311.05,1009.56z"/>
		<path class="st20" d="M704.78,788.25c-11.56,1.56-25.73-4.89-34.11,6.62c-22.66,31.14-64.33,37.96-86.67,70.03
			c-12.36,17.73-34.02,7.06-51.43,9.5c-1.26-26.95,17.61-38.75,37.64-49.35c31.36-16.6,62.15-34.67,94.79-48.28
			c11.84-4.94,11.8-14.77,18.59-20.46c27.07-22.71,40.95-62.02,82.72-66.35c3.73,25.1-18.62,33.93-30.72,49.16
			C723.5,754.35,701.18,763.19,704.78,788.25z"/>
	</g>
</g>
</svg>
