<?xml version="1.0" encoding="utf-8"?>
<!-- Generator: Adobe Illustrator 23.1.0, SVG Export Plug-In . SVG Version: 6.00 Build 0)  -->
<svg version="1.1" id="Calque_1" xmlns="http://www.w3.org/2000/svg" xmlns:xlink="http://www.w3.org/1999/xlink" x="0px" y="0px"
	 viewBox="0 0 1125 1148.34" style="enable-background:new 0 0 1125 1148.34;" xml:space="preserve">
<style type="text/css">
	.st0{fill:#CE990F;}
	.st1{fill:#BA8613;}
	.st2{fill:#D7A60F;}
	.st3{fill:#CC9C17;}
	.st4{fill:#EDC1AD;}
	.st5{fill:#F4EA0F;}
	.st6{fill:#F2DC15;}
	.st7{fill:#E3BA13;}
	.st8{fill:#C78C7F;}
	.st9{fill:#F2E373;}
	.st10{fill:#CE5678;}
	.st11{fill:#DFA94B;}
	.st12{fill:#C99F1F;}
	.st13{fill:#966714;}
	.st14{fill:#18B5DF;}
	.st15{fill:#BA8E2E;}
	.st16{fill:#1873A2;}
	.st17{fill:#CD9522;}
	.st18{fill:#4FAECA;}
	.st19{fill:#E9D625;}
	.st20{fill:#128BBA;}
	.st21{fill:#F5ED3F;}
	.st22{fill:#A45E65;}
	.st23{fill:#EC7AA6;}
	.st24{fill:#14749E;}
	.st25{fill:#D4B723;}
	.st26{fill:#39BFD8;}
	.st27{fill:#EBCF23;}
	.st28{fill:#DCA78B;}
	.st29{fill:#E3BA0A;}
	.st30{fill:#D4997F;}
	.st31{fill:#ECD315;}
	.st32{fill:#EBCB30;}
	.st33{fill:#F1D90F;}
	.st34{fill:#B17F16;}
	.st35{fill:#F0DFD0;}
	.st36{fill:#45AAD7;}
	.st37{fill:#7E7571;}
	.st38{fill:#E89C98;}
	.st39{fill:#F1D60B;}
	.st40{fill:#F4EC70;}
	.st41{fill:#F2E158;}
	.st42{fill:#F4E957;}
	.st43{fill:#F59262;}
	.st44{fill:#EBD03E;}
	.st45{fill:#CE960D;}
	.st46{fill:#F1D1BC;}
	.st47{fill:#D9B63C;}
	.st48{fill:#E3B5A0;}
	.st49{fill:#CC9579;}
	.st50{fill:#F34E2B;}
	.st51{fill:#CB9380;}
	.st52{fill:#0B0F4A;}
	.st53{fill:#1F2936;}
	.st54{fill:#DCD9DA;}
	.st55{fill:#0000A7;}
	.st56{fill:#F4EA7C;}
	.st57{fill:#F3EBA7;}
	.st58{fill:#F2E5D7;}
</style>
<g>
	<g>
		<path class="st0" d="M802,1083.58c-6.09-0.65-9.66-4.27-11.57-9.84c11.47-24.98,7.29-49.6,2.92-75.95
			c-6.71-40.45,13.55-57.43,51.95-44.54c24.88,8.35,36.04-4.41,47.01-20.63c16.09-23.79,27.05-50.14,17.3-78.81
			c-14.61-42.95-21.49-87.94-36.58-130.65c-3.3-9.34-3.21-24.36-15.85-23.87c-11.8,0.47-11.84,15.31-15.26,24.68
			c-15.76,43.19-37.98,82.32-72.93,112.86c-33.8,29.53-39.52,63.1-19.37,102.82c14.92,29.42,24.58,59.23-10.94,82.45
			c-31.3-23.22-43.89-58.89-57.88-92.45c-7.91-18.98-15.34-28.37-35.84-21.95c-0.82-2.29-1.64-4.58-2.47-6.87
			c29.91-39.49,72.12-70.64,83.32-122.84c19.08-16.31,25.71-30.09-7.5-35.1c-14.67-2.21-26.41,5.15-37.7,13.16
			c-25.05,12.05-31.21,43.67-56.89,55.12c-25.78,9.64-40.09,0.73-43.08-26.54c2.11-31.03-8.67-56.27-34-74.97
			c-7.14-28.22-46.62-43.09-33.09-79.88c31.68-12.3,66.29-17.13,93.96-39.67c10.88-8.86,26.01-10.84,39.5-7.28
			c47.94,12.64,95.17,7.01,142.45-3.22c28.99,4.86,59.01-0.73,87.63,8.36c37.72,25.19,53.89,60.59,54.24,105.81
			c0.3,38.19,9.21,75.61,20.52,112.07c10.49,33.82,11.73,68.04,8,102.78c-1.3,12.1-4.4,23.85-8.49,35.28
			c-13.53,37.8-33.74,69.4-78.14,73.57C831.81,1021.39,854.58,1092.83,802,1083.58z"/>
		<path class="st1" d="M802,1083.58c25.97-15.32,41.03-34.75,32.31-67.78c-3.81-14.44,0.16-30.22,21.83-17.94
			c39.45,22.38,57.3-6.08,72.1-33c24.31-44.2,27.67-93,14.58-140.82c-13.68-50-29.74-99.44-25.59-151.8
			c2.89-36.53-32.17-50.37-41.8-78.8c1.64-3.94,4.09-7.3,7.27-10.15c4.72-4.36,9.53-8.61,14.16-13.09
			c9.23-12.95,31.14-19.5,20.72-42.21c-6.18-35.06,1.98-66.6,22.69-95.19c14.26-12.58,28.21-26.16,49.95-18.26
			c12.95,30.19,19.26,61.79,20.33,94.54c2.6,79.2,18,151.31,98.68,190.67c22.44,10.95,21.12,28.34-1.71,36.52
			c-25.81,9.26-51.38,20.3-79.42,23.3c-39.52,4.23-47.33,14.4-35.61,52.85c14.65,48.02,32.56,95.07,64.75,134.99
			c6.16,7.64,18.49,14.05,11.93,25.81c-4.55,8.15-15.51,4.49-23.87,4.94c-50.11,2.75-50.46,3.42-26.87,48
			c2.42,4.58,3.84,10.03,7.22,13.7c31.97,34.7,5.67,33.66-20.03,32.84c-5.17-0.16-10.3-1.42-15.45-2.17
			c-15.09-3.35-30.2-6.02-44.81-11.92c-29.72-12.01-58.05-20.84-78.69,17.83c-7.29,13.66-24.98,23.88-44.68,18.45
			C814,1093.5,806.29,1091.57,802,1083.58z"/>
		<path class="st2" d="M738.67,1022.12c18.74-29.3,11.3-55.31-3.61-85.09c-25.16-50.28-21.37-64.18,20.44-104.31
			c39.77-38.17,69.47-80.83,79.6-136.13c1.95-10.63,5.39-26.23,20.35-26.68c14.54-0.44,19.6,13.65,22.95,24.81
			c16.77,55.85,35.87,111.32,47.48,168.28c8.59,42.14-15.8,76.35-45.48,105.17c-13.27,12.89-28.53,15.55-40.53,0.14
			c-28.22-36.28-30.1-1.76-36.65,13.8c-4.87,11.57,0.27,24.11,7.22,34.45c19.01,28.27,4.71,44.46-20.03,57.19
			C769.56,1060.16,753.42,1041.84,738.67,1022.12z"/>
		<path class="st3" d="M948.21,435.7c-16.35,32.66-24.4,66.96-20.59,103.62c-33.42,24.82-63.98,13.42-93.77-7.31
			c-2.73-4.21-4.56-8.84-5.11-13.96c-6.31-58.2-6.76-58.55-59.79-41.47c-8.05,2.59-15.93,5.57-24.62,5.27
			c-22.71-10.89-44.33-22.23-20.34-51.5c39.25-0.76,78.62-1.08,115.12-18.99c4.12-2.02,8.94-2.21,13.2-4.04
			c-3.84-4.02-9.21-3.46-13.98-4.61c-18.43-4.46-36.25-10.57-53.29-18.93c-6.57-3.1-12.94-6.6-19.3-10.14
			c-4.4-2.19-8.54-4.78-12.63-7.48c-21.36-18.1-57.65-30.87-25.06-68.66c17.27-5.13,25.48,11.86,38.96,16.01
			c-6.21-15.9-13.98-30.94-23.1-45.42c-11.67-18.54-33.34-29.82-38.34-53.11c72.05-35.07,131.75-3.8,189.99,35.35
			C933.98,306.2,939.72,371.34,948.21,435.7z"/>
		<path class="st4" d="M215.67,1042.51c-36.26-19.54-46.39-60-71.08-88.81c-17.2-17.5-27.56-36.51-13.56-60.95
			c27.4-13.61,61.85-19.86,92.35-0.08c-27.13,25.33,12.14,42.43-6.43,68.24c-1.57,2.19,3.49,4.5,7.48,1.67
			c2.96-2.11,5.3-4.51,6.44-7.95c5.67-17.11-3.89-34.43,0.65-51.59c10.08-24.28,34.62-27,54.59-36.42
			c43.98-20.76,91.15-37.37,111.37-88.09c20.73-20.67,34.07-46.18,46.89-71.99c31.2-5.45,12.89,35.67,35.97,38.06
			c34.35,27.42,19.24,58.52,5.06,87.87c-21.93,45.4-64.9,70.58-102.23,100.94c-40.17,32.67-78.56,67.15-112,106.93
			C253.15,1053.15,234.48,1049.63,215.67,1042.51z"/>
		<path class="st5" d="M131.98,205.35c45.94-46.81,103.32-33.4,158.36-28.69c14.92,1.28,29.13,9.97,43.3-1.61
			c5.52-6.32,12.47-10.03,20.71-11.45c10.71-1.45,21.25-0.24,31.69,2.14c21.96,7.19,44.75,4.99,67.28,5.65
			c32.11,0.95,63.78,4.23,81.38,36.19c18.05,32.79-15.43,49.33-25.06,73.43c-3.65,34.55-11.01,66.1-55.57,66.45
			c-13.01-1.44-24.6-5.82-33.14-16.34c-7.52-12.37-7.15-26.51-8.86-40.2c-1.31-10.51-6.08-27.98-12.49-26.09
			c-40.44,11.9-72.4-33.1-112.85-14.84c-17.47,7.89-32.77-10.24-50.37-5.55c-5.09,0.11-10.09-0.35-15.11-1.05
			C188.66,237.36,152.3,240.12,131.98,205.35z"/>
		<path class="st6" d="M18.88,529.29c-17.71-19-14.77-43.01-11.11-64.43C20.26,391.89,37.84,304.3,89.5,246.89
			c1.76,1.68,5.19,5.13,6.96,6.8c9.73,24-14.73,55.93-13.63,79.77c1.25,27.18-5.4,52.61,33.56,66.05
			c25.07,8.65,37.44,25.18,52.55-10.54c11.41-26.96,30.85-22.96,45.2,1.64c5.3,18.95,12.97,25.87,30.75,9.61
			c16.22-14.84,33.18-18,43.72,7.73c3.15,13.23,2.21,25.87-4.87,37.73c-28.8,19.03-62,30.35-89.97,50.94
			c-4.16,3.06-9.18,6.32-14.04,6.47c-49.75,1.49-99.71,0.88-142.45,33.4C32.7,539.98,24.31,533.86,18.88,529.29z"/>
		<path class="st7" d="M18.88,529.29c38.22,5.98,48.93-33.78,74.96-44.86c24.5-10.42,50.34,28.3,80.55,8.67
			c15.76-10.24,33.48-17.93,47.81-29.79c17.23-14.26,35.69-19.34,57.08-17.37c40.99-32.69,91.88-47.81,135.33-76.31
			c5.02-1.84,10.1-2.27,15.36-1.41c32.39,24.88,25.57,49.58-0.24,74.24c-80.89,13.24-134.83,80.19-209.76,105.6
			c-17.68,6-33.19,18.07-52.59,19.78c-19.81-0.78-31.54-13.87-42.55-27.86c-14.93-17.73-17.24-1.63-22.59,8.23
			c-9.88,18.22-13.64,42.51-41.52,43.71C46.77,571.05,32.82,550.17,18.88,529.29z"/>
		<path class="st8" d="M215.67,1042.51c18.49,0.16,36.9-0.11,53.08-11.05C321,983.68,387.96,955.4,437.59,904.05
			c7.19-7.44,16.56-12.47,27.82-11.17c18.54,24.72-3.62,36.8-16.06,51.97c-0.43,0.52,0.43,3.03,1.25,3.42
			c1.41,0.66,3.27,0.38,5.32,0.44c29.92,4.51,34.08,21.33,18.25,43.02c-27.85,38.14,21.98,1.18,16.08,17.21
			c8.78,15,3.46,29.51-1.32,44.08c-1.86,4.78-4.43,9.17-7.53,13.25c-29.61,18.7-68.5,10.24-97.16,36.45
			c-14.13,12.92-29.96-6.97-42.97-17.07c-12.7-17.87-31.6-19.19-51.04-19.33c-19.18-0.14-38.3-0.78-55.02-12.18
			C227.29,1052.62,219.54,1050.83,215.67,1042.51z"/>
		<path class="st9" d="M352.86,172.83c-6.41,0.74-12.81,1.48-19.22,2.22c0.21-37.53-6.6-74.25,5.47-112.68
			c9.18-29.21,34.7-37.4,50.37-57.2c11.12-14.06,16.22,4.33,21.96,10.45c30.7,32.72,56.59,69.35,91.6,98.85
			c22.98,19.36,37.09,15.82,57.55,0.7c24.57-18.16,45.9-41.02,74.67-53.31c25.83,19.47,4.69,32.68-7.92,43.31
			c-26.15,22.05-56.69,37.86-86.88,53.84c-46.78,7.63-81.46-22.79-120.85-38.41C371.86,105.48,370.3,149.33,352.86,172.83z"/>
		<path class="st10" d="M476.16,1061.65c3.12-13.55,8.06-35.65,11.18-49.2c1.94-3.97,4.86-4.7,8.65-2.64
			c22.97,31.76,14.92,94.68-17.26,108.19c-61.09,25.66-124.44,41.46-191.13,20.91c-9.11-20.82-31.83-31.95-38.7-54.36
			c-1.12-3.73-2.24-7.46-3.35-11.19c36.74-6.53,72.65-4.47,107.36,10.27c8.64,4.8,24.69,14.09,24.88,13.78
			c24.33-40.23,66.15-30.18,102.09-36.34"/>
		<path class="st11" d="M540.34,154.42c17.4-28.25,51.79-32.74,74.67-53.41c11.79-10.65,33.91-15.49,20.26-39.14
			c6.23-4.51,37.44-32.59,53.22-17.05c17.97,17.69,9.72,48.81,6.98,73.89c-1.59,14.58-10.23,28.4-15.69,42.56
			c-33.44-11.24-47.38,4.97-51.73,36.01c-2.06,14.67,6.54,30.88-6.19,44.07c-40.39,0.35-89.11-31.05-100.83-64.12
			C514.06,157.56,532.52,160.81,540.34,154.42z"/>
		<path class="st12" d="M495.98,1009.81c-3.07,0.26-5.95,1.14-8.65,2.64c-3.2,1.02-6.41,1.99-9.59,3.08
			c-12.21,4.16-29.83,15.99-36.1,7.5c-9.56-12.94,9.68-21.86,18.01-30.81c20.41-21.95,21.76-34.49-13.28-33.69
			c15.35-39.72,52.1-60.34,79.5-89.3c28.53-15.86,42.94-40.77,46.45-72.7c3.88-9.02,6.75-19.39,20.36-15.87
			c-6.12,33.41,16.87,22.24,33.01,21.55c8.64,13.4,1.59,23.7-6.59,33.78c-23.47,15.77-32.67,37.85-28.77,65.71
			c-2.04,22.09-3.71,44.31-20.71,61.35c-12.51,7.99-25.23,15.51-40.76,15.71C514.97,985.99,505.21,997.62,495.98,1009.81z"/>
		<path class="st13" d="M822.02,1094.9c16.29-18.9,53.22-17.79,50.69-56.13c-0.78-11.87,17-8.35,25.51-6.54
			c32.88,7.01,66.52,13.13,91.97,38.3c-17.09,2.75-22.71,14.08-20.69,29.62c4.81,37.16-18.85,38.33-44.81,35.44
			C886.89,1131.39,851.67,1120,822.02,1094.9z"/>
		<path class="st14" d="M555.34,966.79c21.57-18.31,13.85-49.33,30.32-69.85c2.78-4.05,6.52-6.75,11.23-8.15
			c17.45-1.05,33.1,3.08,45.67,15.99l2.39,2.93c6.24,13.68,22.39,21.87,21.76,39.34c1.17,55.93-52.18,85.3-116.47,64.13l-0.86,0.42
			C543.8,995.66,533.87,979.14,555.34,966.79z"/>
		<path class="st15" d="M948.21,435.7c-31.86-57.73-33.34-124.08-52.65-185.37c53.37,42.16,85.76,96.42,94.67,164.22
			C976.22,421.6,962.22,428.65,948.21,435.7z"/>
		<path class="st16" d="M705.57,214.98c43.8,27.16,67.99,67.89,80.21,116.68c1.14,4.53,1.43,12.1-1.16,14.21
			c-7.05,5.71-11.71-0.82-15.9-6.17c-11.69-14.94-22.39-30.89-40.2-39.63c-35.36-11.87-75.77-17.75-79.66-67.08
			c8.09-17.38,18.86-28.7,39.56-17.41C694.13,215.38,699.85,215.18,705.57,214.98z"/>
		<path class="st17" d="M60.71,591.92c16.82-17.47,28.88-37.51,35.16-61.19c11.67-44.01,24.08-22.57,36.22-0.08
			c-19.48,34.25,20.04,56.73,17.57,87.63c-10.98,8.48-17.02,21.61-27.97,30.21c-7.18,2.5-13.75,2.13-19.09-4.03
			C80.26,633.62,68.36,614.47,60.71,591.92z"/>
		<path class="st18" d="M688.41,215.58c-16.95-1.1-27.78,7.38-34.59,22.12c-10.03,7.77-19.91,8.18-29.6-0.62
			c-16.4-28.55-14.67-56.19,4.78-82.52c19.92-26.98,28.33-25.75,50.79,6.69C674.73,180.62,672.44,199.55,688.41,215.58z"/>
		<path class="st19" d="M102.6,644.46c5.62,0.69,11.24,1.37,16.85,2.06c24.36,33.48,18.19,72.56,15.2,108.86
			c-3.4,41.24-4.09,81.98-1.22,123.04c-0.96,5.47-3.09,10.47-6.27,15.02c-4.23,7.63-10.08,12.59-19.46,11.64
			c-13.27-36.31-11.65-73.4-9.01-111.34C102.15,744.13,101.49,694.23,102.6,644.46z"/>
		<path class="st20" d="M550.24,1011.19c33.95,4.43,62.41-10.37,91.6-24.55c17.71-8.6,25.64-20.68,24.87-39.58
			c11.49,40.55,1.85,68.2-32.03,84.75C601.62,1047.96,571.19,1047.46,550.24,1011.19z"/>
		<path class="st21" d="M131.98,205.35c31.61,10.75,63.23,21.49,94.84,32.24c3.94,9.97-2.15,21.77-8.59,20.74
			c-41.59-6.63-84.33,15.59-125.05-5.28c-1.25-2.04-2.47-4.1-3.69-6.16C99.44,228.73,113.82,215.11,131.98,205.35z"/>
		<path class="st22" d="M352.9,1083.63c-36.08-0.33-73.26,10.8-107.36-10.27c-8.35-3.77-8.26-12.07-10.34-19.21
			c22.21-0.54,44.54,0.2,66.59-1.96C327.7,1049.64,344.38,1059.3,352.9,1083.63z"/>
		<path class="st23" d="M248.89,1084.55c13.75,17.52,48.18,20.32,38.7,54.36C256.66,1133.64,236.3,1120.82,248.89,1084.55z"/>
		<path class="st24" d="M555.34,966.79c-1.99,14.94-3.97,29.88-5.96,44.82c-13.21-6.97-19.07-18.53-20.51-32.85
			C535.49,969.9,540.46,957.4,555.34,966.79z"/>
		<path class="st25" d="M130.86,896.92c-0.54,20.16,8.03,38.13,13.73,56.79c-18.62,2.4-22.07-9.95-23.55-24.22
			c-4.44-11.48-6.32-22.85,1.39-33.83l-0.26-0.32C125.81,891.85,128.7,892.38,130.86,896.92z"/>
		<path class="st26" d="M122.44,895.66c-0.46,11.28-0.93,22.55-1.39,33.83c-9.87-5.18-10.68-15.3-13.34-24.41
			C112.61,901.94,117.53,898.8,122.44,895.66z"/>
		<path class="st27" d="M832.84,519.78c28.39,22.06,61.47,21.4,94.79,19.54c7.22,27.37-20.27,29.23-31.59,42.99
			c-3.53,3.46-7.58,6.33-10.98,9.93c-3.26-0.01-6.46,0.4-9.62,1.21c-28.16,4.44-56.27,5.86-84.28-1.13
			c-34.29-13.85-71.94-4.56-106.85-15.82c-16.24-5.24-34.76-3.71-47.75-17.59c11.79-37.33-14.26-68.13-18.06-102.87
			c18.83-29.59-9.46-76.66,35.7-96.53c34.35,15.65,59.71,40.14,74.03,75.46c-20.84,28.04,10.66,30.16,21.14,42.69
			C778.76,488.61,810.91,494.06,832.84,519.78z"/>
		<path class="st28" d="M468.02,895.65c-47.07,43.37-98.84,80.45-152.51,115.1c-14.64,9.45-28.53,19.73-46.76,20.71
			c38.62-68.82,108.98-104.13,164.33-155.27c31.24-28.86,57.42-59.34,55.15-105.44c-0.6-12.2-5.2-19.75-18.06-20.68
			c1.1-37.1-21.28-68.16-26.77-103.57c-0.47-23.17-13.63-54.15-3.96-77.85c39.26-19.3,42.6,30.23,61.51,45
			c2.96,4.08,5.3,8.52,7.11,13.24c0.29,2.49,5.23,0.39,5.47,2.89c11.75,26.07,42.59,43.01,38,78.51
			C570.24,769.55,522.24,877.23,468.02,895.65z"/>
		<path class="st29" d="M497.97,623.64c-22.66-12.39-26.67-42.69-51.21-53.28c-17.44-5.12-23.9-18.23-25.42-34.94
			c1.33-5.31,4.66-8.86,9.66-10.94c10.81-2.42,20.98,0.66,29.32,6.65c35.58,25.52,71.53,27.24,111.38,8.71
			c20.93-9.73,46.53-19.31,62.89,10.68c33.57,15.56,70.63,13.61,105.94,20.29c19.13,3.62,37.57,5.15,50.62,21.51
			c-49.95,12.92-99.72,20.42-150.23,1.3c-11.56-4.38-24.15,0.29-32.83,10.1c-26.94,30.47-62.36,32.8-99.25,30.67l0.23,0.13
			C506.11,630.15,501.65,627.29,497.97,623.64z"/>
		<path class="st30" d="M642.56,904.78c-17.49,2.25-32.9-6.82-49.56-9.08c-13.9-27.48,6.21-44.42,19.65-63.43
			c5.33-9.59,12.81-18.25,13.05-30.05c18.83-15.95,17.34-51.33,50.89-53.21c4.57-4.7,10.4-5.79,16.61-5.9
			c6.04,1.16,11.57,3.67,17.04,6.37c3.72,1.67,7.21,3.75,10.59,6.03c4.96,3.75,9.03,8.27,11.79,13.89c1.07,4.15,0.3,7.9-2.58,11.14
			C730.99,843.16,687.13,874.22,642.56,904.78z"/>
		<path class="st31" d="M468.02,895.65c54.91-50.38,72.11-117.57,83.51-187.35c46.91,5.24,40.71,40.69,41.15,72.36
			c-9.13,4.28-10.18,12.55-10.47,21.19c-21.06,21.72-40.23,44.76-51.46,73.37c-22.73,33.23-54.66,57.16-84.39,83.31
			c-6.22,2.28-14.05,8.14-18.37,6.2c-14.71-6.63-0.6-12.51,2.78-17.15C443.31,930.35,464.64,919.5,468.02,895.65z"/>
		<path class="st2" d="M730.04,780.55c-0.45-3.45-0.9-6.91-1.36-10.36c-3.59-3.52-7.12-7.1-10.86-10.47
			c-3.56-0.75-7.11-1.49-10.67-2.24c-3.71-2.48-7.25-5.17-10.66-8.05c-6.64-0.14-13.27-0.28-19.91-0.42
			c12.05-27.15,36.05-20.99,57.48-19.66c15.59,0.97,23.93,11.31,25.33,26.97C761.4,778.73,746.89,781.04,730.04,780.55z"/>
		<path class="st0" d="M885.06,592.24c3.66-3.31,7.32-6.62,10.98-9.93C892.38,585.62,888.72,588.93,885.06,592.24z"/>
		<path class="st32" d="M624.22,237.08c9.87,0.21,19.73,0.41,29.6,0.62c12.6,35.52,57.27,32.63,74.7,62.36
			c-21.19,37.43,23.83,39.69,32.53,61.24c-0.42,23.49-16.29,18.04-27.87,12.71c-41.11-18.91-88.03-29-114.51-71.38
			c-22.14-19.14-47.71-24.74-76.03-18.94c-15.43,3.16-30.31,2.78-44.36-5.22c-2.95-3.97-7.56-7.6-8.48-11.99
			c-1.44-6.95-0.18-14.48,10.34-12.38c21.57,4.31,27.95-8.61,29.35-26.24c1.47-18.58-10.57-27.12-25.39-35.19
			c-18.13-9.87-37.16-6.31-55.93-8.26c-21.68-2.25-45.38,8.69-64.83-9.18c2.46-3.85,5.76-6.74,9.83-8.71
			c11.14-4.96,25.64-3.42,32.32-16.88c6.14-13.18-9.71-26.31-0.06-39.31c37.66,16.35,73.3,37.99,114.9,44.08
			c-4.38,4.82-8.76,9.63-13.13,14.45C557.35,194.72,574.3,239.34,624.22,237.08z"/>
		<path class="st33" d="M623.76,289.56c25.41,49.2,84.1,48.09,121.26,79.78c5.59,4.77,12.27-1.95,16.04-8.04
			c2.93,0.61,5.89,1.05,8.88,1.31c3.6,3.69,7.76,6.73,11.65,10.09c28.46,5.45,53.99,22.31,84.18,21.46c4.05-0.11,8.2,3.6,12.31,5.55
			c-2.73,4.02-4.59,10.21-8.33,11.71c-45.36,18.27-89.37,45.8-141.5,23.56c-27.7-20.68-52.09-44.62-72.09-72.91
			C633.14,343.35,610.27,324.57,623.76,289.56z"/>
		<path class="st34" d="M832.84,519.78c-30.17-9.37-63.61-12.28-83.46-42.11c7.58-12.99,21.07-18.09,34-20.03
			c15.35-2.3,34.84-23.07,45.59-2.48C838.5,473.46,857.68,497.02,832.84,519.78z"/>
		<path class="st32" d="M781.58,372.7c-3.88-3.36-7.77-6.73-11.65-10.09C773.81,365.97,777.7,369.33,781.58,372.7z"/>
		<path class="st35" d="M130.86,896.92c-2.89-0.53-5.79-1.06-8.69-1.58c-12.58-82.81,6.48-165.97-2.73-248.82
			c3.77-14.03-1.09-34.45,24.16-32.54c20.3,24.04,47.38,44.99,36.42,83.01c-1.06,3.68-3.14,9.09,0.82,13.22
			c-0.11-5.06-0.75-10.09-0.92-15.17c-0.61-18.4,8.36-29.3,25.66-33.5c19.5-4.74,28,8.12,35.17,22.86
			c8.18,16.83,13.45,38.78,36.01,39.73c25.99,1.09,22.18-26.56,32.46-40.84c7.58-13.77,17.26-25.58,31.02-33.64
			c9.64-4.65,19.89-6.07,30.47-5.75c7.86,0.45,15.25,2.49,21.88,6.83c3.63,3.74,5.51,8.25,5.66,13.46
			c-0.97,4.88-2.7,9.53-5.01,13.96c-1.16,2.14-2.46,4.25-3.6,6.42c-24.41,36.69-12.72,67.99,14.4,97.03
			c-4.03,33.79-25.19,52.58-53.63,68.82c-36.68,20.94-79.8,28.34-113.06,55.73c-11.5,4.7-17.05-1.36-20.45-11.31
			C187.59,869.09,159.76,904.95,130.86,896.92z"/>
		<path class="st36" d="M381.88,678.26c4.13-3.33,12.31-10.68,16.44-14c40.72-10.05,57.52,5.22,49.48,46.76
			c4.26,35.21-16.21,55.1-43.76,70.59C353.34,758.24,347.93,733.04,381.88,678.26c6.37,3.42,9.67,9.05,11.43,15.77
			c1.32,5.96,1.75,12.06,1.94,18.05c0.6,4.74,0.63,9.78,4.97,12.94c9.6-7.05,6.43-16.14,4.56-24.87
			C400.39,690.09,387.07,687.66,381.88,678.26z"/>
		<path class="st37" d="M447.81,711.02c-4.54-28.24-16.61-48.51-49.48-46.76c-1.72-3.07-3.43-6.14-5.15-9.22
			c-6.46-3.84-9.14-1.48-21.38-1.8c-10.04,1.07-20.08,2.15-30.12,3.22c-17.63-21.49-10.64-33.57,10.07-35.45
			c27.61-2.51,57.9-12.05,82.48,11.35c13.98,0.45,9,1.42,13.44,7.99c4.44-0.41,7.35,1.52,8.73,5.74
			c2.7,34.91,37.65,65.55,13.78,103.98c-9.42,9.36-13.3,5.32-15.44-5.82C452.59,733.15,459.04,720.2,447.81,711.02z"/>
		<path class="st38" d="M216.91,894.86c6.82,3.77,13.63,7.54,20.45,11.31c14.8,16.13,4.15,35.98,6.85,53.9
			c1.77,11.69-11.12,21.3-22.73,25.33c-14.29,4.96-21.97-6.89-29.21-16.14c-6.14-7.85-6.52-17.88,5.35-19.62
			c31.02-4.54,23.05-8.42,1.04-16.53c-10.53-3.88-28.61-6.91-26.52-20.41c2.06-13.33,21.33-3.59,31.02-10.7
			C207.26,898.98,212.29,897.2,216.91,894.86z"/>
		<path class="st39" d="M639.66,552.72c-24.75-10.43-50.23-10.64-67.72,0.14c-46.19,28.47-84.33,15.24-122.48-14.14
			c-6.43-4.95-15.41-6.61-23.22-9.78c-12.42-3.13-17.89-12.27-20.68-23.77c-1.7-25.61,2.89-49.44,20.23-69.54
			c16.52-21.31,24-42.51-0.77-63.32c-10.38-14.15-11.94-28,1.45-41.32c10.2,3.56,20.41,7.12,30.61,10.68
			c3.46,2.58,6.54,5.56,9.35,8.86c2.72,3.46,5.01,7.17,7.13,11.05c2.28,3.97,4.21,8.05,6.14,12.19
			c23.52,42.89,59.28,49.83,102.49,35.2c23.51,7.67,35.5,25.38,41.79,48.04c-0.76,17.61,12.4,27.06,22.62,38.09
			C669.14,519.46,670.2,539.99,639.66,552.72z"/>
		<path class="st40" d="M81.95,259c3.39-3.62,6.79-7.23,10.18-10.85c15.86-1.33,29.18,11.39,48.79,0.04
			c14.26-8.25,38.93-16.22,59.3,2.92c12.82,12.04,20.44-3.22,26.6-13.52c3.45-0.42,6.92-0.64,10.4-0.66
			c34.68-11.85,29.46,18.67,32.64,34.2c4.11,20.05,6.08,39.34,24.95,51.59c6.15,12.5,6.37,24.94-0.43,37.27
			c-14.51,11.81-34.2,14.73-47.33,30.03c-10.86,12.65-26.04,16.87-41.02,3.78c-7.9-14.07-17.13-25.88-28.41-3.63
			c-5.3,10.46-5.15,23.55-9.15,34.84c-6.79,19.15-17.45,25.43-33.48,7.61c-9.74-10.83-15.69-25.9-32.63-29.05
			c-4.12-0.77,2.23-15.88-10.05-8.39c-11.2,6.82-16.98,4.81-19.54-8C64.06,343.66,69.63,301.06,81.95,259z"/>
		<path class="st41" d="M457.07,351.31c0.21-3.21,0.21-6.42,0.01-9.64c31.31-9.62,43.26-31.85,41.19-63.21
			c42.73-6.52,86.52-25.02,125.48,11.1c0.33,28.84,28.85,45.1,32.39,72.51c-10.51,18.05-29.77,32.52-14.46,58.74
			c9.29,15.9-2.42,28.61-17.71,36.21c-20.19-7.87-25.86-30.29-42.15-42.07c-7.88-3.58-16.46-12.49-23.44-10.06
			c-44.89,15.61-66.71-15.66-91.08-42.46l0.06,0.06C463.77,358.92,460.44,355.09,457.07,351.31z"/>
		<path class="st42" d="M289.54,320.54c-31.84,14.22-28.22-9.3-31.74-28.24c-3.6-19.34,15.03-47.81-20.57-55.38
			c9.43-13.07,20.03-12.22,30.24-1.56c7.11,7.43,15.87,11.76,19.59,0.26c17.25-53.33,28.18-13.47,40.98,2.15
			c10.34,12.61,19.69,20.2,39.47,13.31c44-15.32,56.13-4.86,58.19,43.48c0.52,12.13,0.53,24.28,0.77,36.43
			c-0.48,13.77-0.97,27.54-1.45,41.32c-3.19,0.32-6.37,0.64-9.55,0.96c-22.84,13.14-46.88,0.74-70.24,3.34
			c-4.59-2.07-8.07-5.33-10.53-9.72c-5.72-12.8-4.95-26.94-8.23-40.22c-3.24-13.11-2.81-33.61-15.35-35.76
			C296.24,288.36,302.9,314.38,289.54,320.54z"/>
		<path class="st43" d="M392.81,173.59c-3.22,0.2-6.37,0.75-9.47,1.65c-10.16-0.8-20.32-1.61-30.48-2.41
			c-0.02-6.73-1.07-13.63,0.1-20.15c8.56-47.74,21.01-54.89,72.48-42.35c-0.82,15.48,33.61,22.57,10.32,43.39
			C411.12,138.02,408.02,168.89,392.81,173.59z"/>
		<path class="st44" d="M342.1,373.14c24.49-19.6,48.92-5.45,73.37,0.14c-1.44,11.37,1.15,30.23-13.74,28.64
			c-41.35-4.42-66.01,23.41-94.51,43.46c-11,7.74-18.59,4.44-27.95,0.57c-0.03-13.88-0.05-27.76-0.08-41.64
			C297.54,388.62,323.52,388.36,342.1,373.14z"/>
		<path class="st42" d="M342.1,373.14c-5.06,42.51-38.26,28.18-62.9,31.16c-15.44-17.61-23.08-2.9-30.13,8.11
			c-7.49,11.7-14.36,26.03-30.46,20.87c-19.91-6.39-10.48-25.5-12.56-39.47c17.82,0.65,35.2-0.73,40.69-21.76
			c8.38-32.06,26.42-16.12,42.84-9.52c15.64,12.1,34.84,6.07,52.04,10.2L342.1,373.14z"/>
		<path class="st45" d="M425.79,435.63c3.84,26.32-12.38,49.82-10.64,75.84c-44.24,22.65-84.85,51.55-128.66,74.83
			c-25.34,13.46-50.05,31.03-81.67,25.33c-22.86-9.36-42.69-21.39-43.54-49.92c70.32-30.69,136.87-68.25,201.14-110.04
			C381.5,439.26,402.59,432.82,425.79,435.63z"/>
		<path class="st46" d="M161.26,561.72c11.95,16.99,26.07,31.81,43.45,43.37c15.09,8.7,31.96,7.05,48.39,8.24
			c36.83,11.24,59.72,35.37,67.63,73.29c-2.8,6.34-6.37,12.46-8.23,19.07c-4.4,15.66,0.41,41-23.51,39.29
			c-22.33-1.6-50.24-5.45-53.18-38.55c-0.29-3.3-1.74-7.07-3.9-9.52c-7.8-8.85,0.2-32.45-23.07-26.52
			c-17.15,4.37-25.33,16.32-24.01,34.91c0.58,8.07,3.38,22.09-5.15,22.71c-7.12,0.52-6.55-14.65-4.52-21.64
			c11.21-38.6-24.91-60.37-31.54-92.37c-37-34.23-37.97-41.25-11.52-83.34C139.08,543.57,148.42,554.29,161.26,561.72z"/>
		<path class="st47" d="M530.76,875.22c-9.36-43.05,11.12-65.17,51.46-73.37C580.33,837.01,569.24,865.72,530.76,875.22z"/>
		<path class="st47" d="M612.65,832.27c1.93,23.77-21.34,39.74-19.65,63.43l-3.52,1.53l-3.83-0.29
			C569.71,864.97,576.97,842.69,612.65,832.27z"/>
		<path class="st48" d="M320.72,686.62c-23.93-21.6-35.17-57.89-73.18-63.18c-1.64-17.18,12.14-19.49,23.3-22.41
			c42.73-11.16,78.99-35.69,117.48-55.59c12.11-6.26,23.22-16.98,37.65-5.14c10.61,7.48,15.35,19.01,20.79,30.06
			c-6.23,26.45,12.91,49.66,9.64,75.74c-2.99-0.72-4.65-5.21-8.73-5.74c-6.24-0.76-8.62-0.44-15.59-2.51
			c-33.88-11.8-55.03-3.63-84.84-5.14c-3.11-0.16-18.13,12.21-5.56,23.75C334.7,666.51,327.71,676.57,320.72,686.62z"/>
		<path class="st0" d="M509.08,634.52c-3.71-3.62-7.41-7.25-11.12-10.88"/>
		<path class="st49" d="M425.97,540.3c-28.86-3.56-38.77,26.6-63.04,36.04c-38.27,14.89-75.66,34.16-115.39,47.1
			c-17.64,1.73-32.88-2.15-42.84-18.35c61.74-10.94,108.43-51.62,161.16-80.55c14.46-7.93,27.05-31.52,49.28-13.07
			c3.7,5.82,7.4,11.65,11.1,17.47C426.15,532.72,426.06,536.51,425.97,540.3z"/>
		<path class="st0" d="M696.49,749.42c3.55,2.68,7.11,5.36,10.66,8.05C703.6,754.79,700.05,752.11,696.49,749.42z"/>
		<path class="st0" d="M717.83,759.71c3.62,3.49,7.24,6.98,10.86,10.47C725.06,766.69,721.44,763.2,717.83,759.71z"/>
		<path class="st50" d="M392.81,173.59c10.04-15.86,13.11-46.81,42.95-19.87C433.33,186.04,409.89,172.94,392.81,173.59z"/>
		<path class="st51" d="M223.39,843.78c-4.13,11.26-13.57,10.16-21.57,9.37c-12.74-1.26-24.64-6.75-23.3-21.63
			c0.64-7.16,10.17-8.22,16.61-4.03C204.28,833.44,220.49,827.76,223.39,843.78z"/>
		<path class="st52" d="M166.85,694.2c-2.2,10.05,3.52,26.07-11.01,29.28c-14.05,3.11-13.26-11.12-14.1-20.72
			c-1.34-15.26,6.82-26.76,19.64-31.17C165.28,670.25,166.64,685.34,166.85,694.2z"/>
		<path class="st53" d="M414.52,693.19c12.02,14.45,6.28,29.9-0.63,42.98c-6.95,13.17-18.41,21.1-28.21,0.59
			c4.51-5.93,4.07-11.37-1.64-16.27c0.15-6.29,0.3-12.59,0.44-18.88C391.52,688.19,403.82,693.54,414.52,693.19z"/>
		<path class="st54" d="M414.52,693.19c-10.01,2.81-20.02,5.62-30.03,8.43c-0.87-7.78-1.09-9.8-1.96-17.58
			c1.04-1.65,4.02-4.01,5.68-5.04C402.07,678.77,411.96,676.36,414.52,693.19z"/>
		<path class="st55" d="M384.04,720.49c7.44-0.86,17.27-4.46,18.25,7.13c1.03,12.12-9.06,9.58-16.61,9.14
			C385.13,731.34,384.59,725.92,384.04,720.49z"/>
		<path class="st5" d="M467.3,362.43c20.24-1.51,29.18,15.2,41.94,25.86c7.36,6.15,17.3,20.08,24.94,10.23
			c34.63-44.66,35.31,1.35,47.64,16.43C531.55,447.56,479.17,423.54,467.3,362.43z"/>
		<path class="st5" d="M457.07,351.31c3.43,3.73,6.86,7.46,10.29,11.19C463.93,358.77,460.5,355.04,457.07,351.31z"/>
		<path class="st56" d="M341.61,372.72c-20.46,12.47-43.81,39.72-52.04-10.2c-0.01-13.99-0.02-27.99-0.04-41.98
			c4.9-20.16-12.79-54.36,13.9-58.27c29.83-4.37,27.34,33.77,34.62,54.34C344.06,333.61,340.78,353.89,341.61,372.72z"/>
		<path class="st57" d="M174.22,319.87c0.92,14.92-1.96,26.38-7.71,37.57c-6.55,12.74-12.56,25.18-29.87,24.59
			c-15.54-0.53-13.79-28.2-33.87-21.43c-3.75-17.85,3.29-23.65,21.49-24.05c9.48-0.21,7.09-13.91,9.1-21.96
			c3.72-14.93,11.64-26.69,28.82-22.76C178.66,295.6,172.85,311.06,174.22,319.87z"/>
		<path class="st58" d="M382.63,143.21c-1.74,1.92-3.41,3.78-5.09,5.64c-0.99-2.76-2.34-5.47-2.76-8.31
			c-0.14-0.92,2.14-2.2,3.31-3.32C379.71,139.36,381.33,141.49,382.63,143.21z"/>
	</g>
</g>
</svg>
