<?xml version="1.0" encoding="utf-8"?>
<!-- Generator: Adobe Illustrator 23.1.0, SVG Export Plug-In . SVG Version: 6.00 Build 0)  -->
<svg version="1.1" id="Calque_1" xmlns="http://www.w3.org/2000/svg" xmlns:xlink="http://www.w3.org/1999/xlink" x="0px" y="0px"
	 viewBox="0 0 1125 1148.96" style="enable-background:new 0 0 1125 1148.96;" xml:space="preserve">
<style type="text/css">
	.st0{fill:#FCEDE1;}
	.st1{fill:#FEF1E5;}
	.st2{fill:#AE6247;}
	.st3{fill:#A95B40;}
	.st4{fill:#F1AD8F;}
	.st5{fill:#FCCDB5;}
	.st6{fill:#B26B50;}
	.st7{fill:#EB9D7C;}
	.st8{fill:#FEFAF6;}
	.st9{fill:#D58665;}
	.st10{fill:#B59C93;}
	.st11{fill:#C57A5C;}
	.st12{fill:#D98A69;}
	.st13{fill:#F0D5C7;}
	.st14{fill:#FBB395;}
	.st15{fill:#D3C1BA;}
	.st16{fill:#E39473;}
	.st17{fill:#CE8060;}
	.st18{fill:#FDE6D8;}
	.st19{fill:#D58563;}
	.st20{fill:#FDC6AB;}
	.st21{fill:#FED0B9;}
	.st22{fill:#FBBA9E;}
	.st23{fill:#F5A988;}
	.st24{fill:#C47658;}
	.st25{fill:#F2A483;}
	.st26{fill:#F8AB8B;}
</style>
<g>
	<g>
		<path class="st0" d="M2.18,500.54c3.29-90.81,23.31-176.39,78.41-251c7.47-1.31,11.89-5.66,13.19-13.16
			c47.43-63.76,112.08-74.57,184.58-58.98c47.74,10.27,47.21,10.99,47.79-39c0.34-29.51,7.53-57.85,14.08-86.64
			c6.66-29.27,42.4-20.25,50.83-45.93c1.76-5.36,12.57,6.81,17.44,12.82c29.39,36.32,57.58,73.66,94.84,102.77
			c11.14,8.7,21.35,18.51,36.84,9.79c5.18,0.6,8.18,3.48,9.02,8.6c0.33,13.97-3.83,26.68-10.95,38.42
			c-5.51,5.77-7.91,11.79-0.71,18.37c5.79,6.51,10.94,13.35,16.11,20.34c3.1,3.93,5.74,8.02,8.24,12.36
			c2.62,4.67,4.63,9.47,6.33,14.49c17.51,58.07,31.28,117.05,52.53,174.08c17.63,47.31-2.04,68.74-53.16,63.6
			c-44.65-4.48-85.22-17.09-109.67-59.25c-5.84-9.21-8.35-19.41-8.79-30.16c-5.54-30.17,32.85-59.54,1.6-90.15
			c-7.63-4.46-15.25-8.91-22.91-13.16c-27.98-6.95-36.91,16.87-51.27,31.83c-5.71,7.83-11.99,15.02-20.56,19.85
			c-6.59,3.23-13.59,5.07-20.76,6.33c-35.24,7.68-65.78,25.25-95.19,45.33c-7.41,2.68-14.98,3.11-22.72,2.05
			c-42.25-3.59-83.45-11.56-122.35-29.14c-9.72-4.9-16.36-12.25-18.24-23.27c-0.38-3.19-0.33-6.44-0.19-9.68
			c0.39-9.42,5.44-17.88,5.56-27.34c-6.61,7.41-10.8,16.17-14.14,25.39c-11.07,29.04-14.88,57.02,11.44,80.93
			c1.27,5.26,1.51,10.45,0.91,15.79c-1.34,17.38-1.3,34.76-3.03,52.02c-2.14,21.38-6.48,42.14-30.57,49.46
			C22.07,535.78,14.27,514.27,2.18,500.54z"/>
		<path class="st1" d="M94.93,720.87c-0.3-16.93-0.6-33.86-0.91-50.78c-5.32-9.07-3.58-19.06-3.8-28.78
			c6.09-15.37,13.71-30.05,20.92-44.92c11.85-13.35,30.49-7.74,44.24-15.93c4.17-1.84,8.53-2.98,13.03-3.62
			c9.39-0.45,17.71,2.12,24.5,8.86c4.43,4.65,8.13,9.91,11.85,15.12c2.83,3,5.67,6.03,8.73,8.78c11.23,6.97,25.15,5.6,36.62,11.81
			c3.88,2.66,6.78,6.12,8.98,10.24c6.56,10.96,0.99,29.96,17.85,33.19c11.45,2.19,14.5-12.21,21.1-19.43
			c11.33-13.62,27.04-19.38,43.22-24.34c4.6-1.22,9.31-1.69,14.07-1.6c9.68,1.01,17.49,5.44,23.44,13.11
			c2.31,2.99,0.89,7.14,3.06,10.23c1.38-3.21,3.39-6,6.1-8.4c4.5-1.38,8.92-1.27,13.38,0.25c4.12,2.41,7.59,5.5,10.63,9.16
			c2.59,4.08,4.41,8.46,5.64,13.11c4.33,28.63-9.32,53.27-17.39,79.21c-3.03,9.73-15.98,22.06,5.23,27.63
			c7.41,1.86,13.79,5.07,17.95,11.75c6.65,27.4-9.91,45.77-26.02,63.27c-41.55,45.15-90.21,78.01-153.47,83.49
			c-15.54,0.72-31.04-0.68-46-2.9c0.49,0.03-3.27-0.2-3.27-0.2s-0.58,3.71-0.06,3.73c3.64,0.22,6.52,1.14,9.44,2.84
			c7.18,3.76,13.51,8.17,18.08,14.84c1.68,4.25,1.85,8.51,0.62,12.89c-3.41,6.25-8.35,10.81-14.76,13.84
			c-9.07,3.42-18.34,3.22-27.71,1.72c-11.23-2.6-23.38-1.02-33.88-7.12l-2.54,1.39c-5.8-12.26-19.77-18.51-23.73-32.13
			c-4.42-10.33-7.45-21.17-11.05-31.86c-3.46-11.01-4.63-22.6-9.45-33.07c-3.78-7.09-7.92-14.04-13.16-20.28
			c-0.56-22.2-7.58-45.05,6.52-65.8c15.86-0.42,28.88,9.3,43.75,12.29c13.56,2.73,23.95-2.39,27.64-15.81
			c4.68-17.01-8.2-21.01-20.4-21.46C119.65,754.29,101.72,745.98,94.93,720.87z"/>
		<path class="st2" d="M1045.13,762.96c-7.47,2.5-14.94,5-22.41,7.5c-19.88-6.01-39.99-1.7-60.05-1.25
			c-10.76-1.75-20.56-5.73-29.41-12.12c-16.36-18.15-13.31-34.33,5.01-48.91c42.5,1.23,81.37,30.25,126.01,16.56
			c5.71-1.75,12.18-0.47,17.05,4.21c-3.06-4.72-7.51-6.77-12.99-6.44c-51.71,3.15-86.76-27.55-121.28-59.48
			c-7.76-12.97-11.63-27.37-15.28-41.83c-2.24-11.16-3-22.4-0.35-33.54c0.73-3.49,5.86-5.22,5.08-8.51
			c-0.36-1.53-5.13-0.04-7.19,2.92c-7.31,4.62-14.59,7.05-22.1,0.51c-2.41-3.79-3.98-7.85-4.9-12.21
			c-1.43-13.9-9.17-26.08-10.86-39.95c2.6-48.33,8.75-96.61-0.16-144.82c-3.64-9.53-6.15-19.64-11.88-28.24
			c-16.83-25.27-32.83-29.84-46.88,2.43c-6.08,13.97-10.42,29.47-27.93,34.25c-28.56,2.48-48.28-12.58-65.41-32.81
			c-14.11-33.22-39.31-59.18-58.8-88.86c-3.28-3.22-6.21-6.77-8.93-10.46c-11.64-14.75-6.17-28.78,1.83-42.72
			c1.18-4.08,3.41-7.54,6.42-10.52c7.26,0.38,14.51,0.76,21.77,1.14c6.74,2.36,14.82,12.19,18.33-3.31
			c68.82-17.2,162.52,19.92,207.87,79.84c21.49,28.4,30.25,64.23,55.61,89.94l-0.56-0.93c1.82,39.75,11.56,78.25,18.43,117.21
			c-3.57,20.29-6.42,40.57,1.68,60.54c10.32,65.04,35.03,120.19,96.17,154.63c33.43,18.83,32.1,22.45-1.63,39.66
			c-5.85,2.98-12.98,3.45-19.52,5.08C1068.64,761.24,1053.78,752.42,1045.13,762.96z"/>
		<path class="st3" d="M941.12,710.08c-4.29,13.98-21.78,27.87-0.3,42.03c37.46,68.86,27.42,142.73,20.87,215.59
			c-2.44,27.15-24.58,43.98-47.01,57.79c-9.21,5.55-19.1,9.8-29.14,13.58c-8.98,3.33-18.29,4.67-27.81,3.53
			c-4.03-0.66-8.03-1.88-11.81-3.36c-7.99-2.94-14.74-0.23-20.93,5.15c-5.29,4.3-11.13,7.38-17.63,9.37
			c-14.91,3.51-29.44,3.16-43.4-3.7c-19.06-19.49-43.21-31.86-65.65-46.63c-17.27-13.5-26.87-31.17-28.78-53.01
			c-1.63-21,14.26-18.24,26.91-19.94c18.59,2.34,32.62,13.97,47.71,23.48c17.1,14.42,34.06,27.92,48.17-3.26
			c3.9-3.13,8.32-5.04,13.25-5.83c16.2,0.55,26.51,11.54,37.67,21.04c29.49,22.21,43.52-2.57,57.66-20.55
			c18.05-22.95,17.2-51.22,16.37-78.83c-0.2-9.67-0.27-19.33-0.85-28.98c0.95-16.37-11.65-27.46-16.35-41.68
			c-6.83-25.11-5.39-50.69-4.93-76.26c4.01-22.05-6.01-52.05,31.21-55.34C944.68,675.21,952.75,689.47,941.12,710.08z"/>
		<path class="st2" d="M234.94,1081.57c-3.57-12.12-7.03-24.3-16.94-33.19c-0.43-10.73,8.88-12.62,15.33-17.1
			c3.44-1.89,7.1-3.4,10.81-4.68c7.01-2.28,14.26-4.06,20.88-7.49c2.92-2.03,5.94-3.92,8.89-5.93c2.86-2.16,5.94-3.97,9.08-5.67
			c4.75-2.53,9.55-4.98,14.12-7.92c2.95-2.43,5.98-4.65,9.03-6.99c3.15-2.63,6.47-4.84,9.99-6.95c3.76-2.19,7.6-4.01,11.55-5.73
			c14.76-6.03,27.04-15.52,38.23-26.53c3.05-3.18,6.43-6.02,9.92-8.68c6.91-4.97,14.17-9.5,20.85-14.85
			c3.13-2.89,6.47-5.52,9.84-8.14c5.13-4.07,10.69-7.3,17.14-8.8c6.49-0.66,12.49,0.51,17.54,4.87c3.22,7.34,0.95,14.1-2.18,20.56
			c0.29-0.17,1.82,3.49,1.82,3.49s3.21-2.32,3.53-2.67c8.73-6.83,16.44-14.7,28.22-14.53c7.46,1.49,12.43,6,15.46,12.86
			c2.13,6.88,2.05,13.78,0.1,20.68c-3.98,10.64-11.23,19.37-17,28.95c-2.06,3.51-4.48,6.8-6.95,9.83c-8.06,9.41,2.1,11.05,6.8,15.18
			c12.1,18.34,4.61,34.43-10.21,43.98c-14.57,9.39-11.35,23.14-15.77,35.14c-17.18,22.7-36.43,13.35-55.72,3.82
			c-13.23-10.88-28.88-17.4-44.59-23.76c-30.69-14.49-60.71-3.87-90.76,2.47C248.16,1077.65,241.99,1080.7,234.94,1081.57z"/>
		<path class="st4" d="M95.18,636.91c-0.39,11.06-0.77,22.11-1.16,33.17C71.21,628.2,53.3,583.48,21.37,546.9
			C9.95,533.82,2.45,518.53,2.18,500.54c6,2.77,12.5,4.8,17.93,8.43c26.19,17.51,39.71,13.16,43.58-15.95
			c2-15.02,0.71-30.51,0.61-45.78c-0.08-11.82-2.07-24.09,10.14-31.95c10.08-3.06,18.03,2.14,26.18,6.57
			c26,19.38,43.94-20.19,68.73-9.56c25.39,7.53,27.69,41.35,54.26,47.65c-4.06,47.58-39.69,61.23-77.56,72.4
			c-4.1-0.14-8.25-0.88-12.14-2.06c-4.73-1.49-9.63-3.78-14.27,0.64c-3,4.41-5.37,9.07-7.73,13.79c-2.35,5.16-4.96,10.12-7.88,14.93
			c-2.04,3.23-4.56,6.02-7.51,8.39c-7.34,5.13,4.81,4.81,2.47,8.54c0.76,3.72,1.02,7.48,1.02,11.23c1.26,8.1,7.41,13.91,9.97,21.45
			C112.19,622.35,105.69,630.71,95.18,636.91z"/>
		<path class="st5" d="M146.36,961.91c10.88-2.07,20.24-20.31,32.93-3.08c2.12,14.6,15.82,8.88,23.63,13.4
			c18.99,1.66,20.65-9,16.8-23.6c0.45-2.86,0.73-5.73,0.84-8.62c0,0,1.94-4.82,1.88-4.85c2.66-4.43,5.58-8.72,8.13-13.23
			c2.36-4.74,6.02-8.47,9.46-12.37c82.84-12.08,144.85-52.39,178.2-131.54c0.81-13.41,10.95-17.43,21.3-21.25
			c28.02-1.57,32.3,15.45,26.13,36.75c-6.22,21.46-14.38,44.37-31.83,58.19c-69.49,55.05-138.43,110.39-193.44,180.82l-0.19,0.22
			c-13.58,10.47-27.79,7.56-42.12,1.98C173.39,1015.76,152.66,993.96,146.36,961.91z"/>
		<path class="st6" d="M899.19,1023.73c42.66-25.72,55.58-62.22,53.94-112.43c-1.75-53.45-9.95-106.03-12.3-159.19
			c8.65,0.02,17.14,0.37,20.99,10.24c10.97,7.66-0.85,24.86,13.09,31.29c10.04,34.75,20.09,69.5,30.14,104.25
			c-2.74,18.44,3.39,37.26-2.29,55.56c-3.06,12.87-7.42,25.43-10.39,38.36c-2.34,27.87,13.16,49.83,27.18,70.66
			c13.9,20.65,11.37,25.04-12.62,24.16c-15.8-0.58-30.64-2.2-44.4-10.21c-14.51-7.27-32.99-4.21-45.3-17.29
			C909.01,1048.47,893.61,1041.41,899.19,1023.73z"/>
		<path class="st7" d="M921.13,1053.69c16.09,3.4,31.79,7.51,41.39,22.72c-11.62,7.05-8.26,20.18-12.31,30.31
			c-9.79,10.8-7.19,21.38,0.59,31.86c-41.6,23.8-79.59,1.09-116.35-12.54c-21.46-7.96-43.3-21.19-59.26-40.16
			c22.1-35.1,49.37-19.68,76.71-8.35c9.95,4.12,18.21,16.36,31.48,8.27c-6.25-8.97-16.94-11.39-25.38-17.13
			c-5.76-3.91-11.15-8.08-15-14.03c-2.53-7.74-1.72-14.82,4.04-20.94c10.34-0.46,20.67-0.92,31.01-1.39
			C894.52,1035.17,907.79,1044.51,921.13,1053.69z"/>
		<path class="st7" d="M636.93,68.22c19.36-1.02,29.95-33.98,48.04-20.9c14.19,10.27,4.32,35.66,4.61,54.31
			c0.35,22.52-2.09,44.73-12.26,65.37c-12.73,6.74-26.03,6.65-39.63,3.41c-9.68-6.18-17.63-14.1-23.69-23.91
			c-3.33-13.24-3.03-26.82-3.72-40.34C611.87,88.4,622.92,77.27,636.93,68.22z"/>
		<path class="st8" d="M94.93,720.87c15.07,25.63,40.15,20.62,63.55,20.78c15.86,0.11,33.12-1.11,28.77,23.42
			c-4.81,27.09-28.23,53.72-43.19,47.01c-18.14-8.15-39.81-12.26-51.09-31.93C93.62,760.39,94.27,740.63,94.93,720.87z"/>
		<path class="st9" d="M847.27,1054.92c23.33,1.8,41.15,16.46,60.79,26.64c5.52,2.86,10.98,8.89,8.06,17.11
			c-2.89,8.15-10.23,7.53-16.92,8.35c-20.26,2.48-38.12-5.1-52.6-17.26c-23.69-19.89-46.82-17.36-71.42-3.88
			c-15.24-5.8-25.45-16.85-32.45-31.22c-0.2-17.49,9.16-16.71,21.08-11.03c17.25,0.55,34.51,1.1,51.76,1.64
			C827.52,1043.96,838.79,1044.86,847.27,1054.92z"/>
		<path class="st10" d="M657.45,991.45c-6.32,22.96-18.12,41.63-40.68,51.85c-12.83-10.52-27.2-6.67-41.45-4.44
			c-47.62-20.62-48.39-25.35-10.41-63.63c13.01-5.71,26.57-6.29,40.4-4.41C623.8,974.82,642.71,977.91,657.45,991.45z"/>
		<path class="st11" d="M460.6,988.66c-0.56-2.04-0.7-4.1-0.42-6.19c14.52-7.5,29.04-14.95,32.2,10.96
			c1.77,38.25,13.12,77.45-11.23,113.11c-11.15-12.73-31.42-7.7-41.98-21.57c1.99-11.61-15.08-28.15,12.61-33.69
			c9.45-1.89,28.51-20.51,8.34-38.44C453.73,1004.64,455.5,996.62,460.6,988.66z"/>
		<path class="st3" d="M993.13,960.99c4.96-20.85-11.15-45.68,11.9-63.11c19.54,28.29,39.09,56.59,58.63,84.88
			C1036.98,985.82,1006.72,1000.43,993.13,960.99z"/>
		<path class="st12" d="M453.11,1120.12c-51.37,21.08-103.79,34.91-159.92,23.26c-3.17-3.92-4.34-8.32-3.22-13.27
			c3.03-3.91,7.05-6.17,11.87-7.08c26.84,2.66,50.01-7.42,72.2-21.12c4.71-2.03,9.57-3.23,14.64-3.8
			C410.01,1105.95,435.6,1101.25,453.11,1120.12z"/>
		<path class="st13" d="M566.36,983.16c-26.82,36.18-26.82,36.18,19.49,49.76c2.72,2.65,3.65,5.33,2.79,8.03
			c-0.86,2.71-1.74,4.07-2.64,4.07c-34.5,6.77-54.35-9.22-63.92-41.16c-4.01-6.35-3.82-13.57-4.28-20.68
			c-1.45-4.73-1.89-9.53-1.37-14.47c0.89-2.34,1.81-4.63,2.71-6.98c1.75-1.83,3.5-3.61,5.26-5.44c4.53-2.49,9.34-4.06,14.45-4.86
			c10.77-0.53,20.64,1.53,28.21,10.01C571.25,968.82,571.31,976.08,566.36,983.16z"/>
		<path class="st14" d="M453.11,1120.12c-25.45-4.32-50.89-8.64-76.34-12.96c-3.77-9.75-8.88-20.19,9.57-18.35
			c17.29-5.7,36.86,19.86,52.84-3.86c5.16-0.12,11.32,1.56,15.32-0.66c28.87-15.99,27.23,3.55,26.65,22.23
			C474.04,1115.67,464.15,1119.08,453.11,1120.12z"/>
		<path class="st13" d="M657.45,991.45c-18.13,3.31-35.08,0.53-50.58-9.78c-5.65-5.43-7.98-12.1-7.37-19.87
			c4.75-18.8,19.75-27.26,35.4-35.1c10.86-2.82,19.12,1.44,25.93,9.6c2.23,4.64,1.97,9.17-0.76,13.56
			C659.2,963.72,658.33,977.58,657.45,991.45z"/>
		<path class="st13" d="M636.93,68.22c3.08,17.31-15.65,21.8-20.31,34.56c-9.94,24.95-29.17,32.98-54.49,29.93
			c-4.91-1.85-8.31-5.25-10.21-10.14C580.81,105.32,598.85,71.09,636.93,68.22z"/>
		<path class="st15" d="M642.41,165.54c12.21-13.08,23.64-7.64,34.92,1.47c0.79,13.88,1.58,27.77,2.37,41.65
			c-1.02,3.17-1.94,6.38-2.76,9.61c-2.62,3.75-6.12,4.98-10.53,3.74c-5.93-2.47-11.45-5.74-17.14-8.73
			c-9.51-5.44-22.25-6.88-25.42-20.27C625.31,180.66,626.85,168.35,642.41,165.54z"/>
		<path class="st6" d="M763.82,1043.63c-8.42,1-17.29,1.17-21.08,11.03c-19.69-12.85-37.25-27.54-44.43-51.23
			C728.13,1003.82,756.2,1007.05,763.82,1043.63z"/>
		<path class="st0" d="M234.94,1081.57c3.79-3.59,7.58-7.19,11.37-10.78c2.58-12.61,6.71-2.45,10.27-0.76
			c1.95,3.44,3.4,7.15,4.38,10.98c1.37,5.38,2.57,10.87,4.66,16.06c1.89,3.05,3.72,6.13,5.82,9.06c2.46,2.72,4.72,5.56,7.06,8.39
			c3.71,4.28,6.87,8.87,8.46,14.38c0.45,3.87-0.34,7.46-2.36,10.78C232.64,1128.78,230.33,1126.08,234.94,1081.57z"/>
		<path class="st6" d="M660.08,949.86c-1.63-3.26-1.97-6.66-1.02-10.18c-5.28-4.73-6.15-11.11-6.7-17.65
			c0.73-8.72,1.35-17.45,1.93-26.25c0.52-2.23,1.11-4.4,1.7-6.63c1.54-1.74,3.09-3.41,4.67-5.13c4.39-1.97,8.95-2.72,13.75-2.49
			c4.79,1.08,9.08,3.14,12.98,6.11c12.11,15.26,27.42,29.67,14.16,51.84c-11.32,1.75-25.02-3.45-32.03,10.93
			C666.4,949.92,663.25,949.73,660.08,949.86z"/>
		<path class="st5" d="M108.35,896.25c18.28,3.6,19.55,16.86,18.04,31.72c6.59,10.93,8.59,21.67-1.37,31.89
			c-14.56-19.15-28.04-38.92-35.86-61.98c2.25-3.11,5.32-4.84,9.09-5.4C102.01,892.67,105.37,893.93,108.35,896.25z"/>
		<path class="st12" d="M993.13,960.99c18.6,23.17,45.12,20.67,70.54,21.77c-21.67,19.56-47.83,3.72-71.31,9.04
			C979.01,981.19,978.79,970.91,993.13,960.99z"/>
		<path class="st16" d="M520.92,971.7c0.06,3.18,0.15,6.35,0.25,9.53c-2.51,5.57-5.88,6.45-10.24,1.87
			c-6.18,3.44-12.37,6.89-18.55,10.33c-6.64-15.68-20.6-9.86-32.2-10.96c3.29-10.65,9.91-18.24,20.46-22.2
			c8.17-6.95,17.31-9.31,27.7-5.86C516.03,957.61,519.02,964.26,520.92,971.7z"/>
		<path class="st17" d="M974.9,793.63c-17.73-4.84-11.71-19.61-13.09-31.29c20.19,3.53,42.3-7.33,60.9,8.12
			C1008.51,781.76,977.72,758.82,974.9,793.63z"/>
		<path class="st18" d="M91.06,898.36l-1.9-0.47c-6.11-17.04-5.07-34.45-2.71-51.93c7.61,0.08,15.07,0.52,19.37,8.32
			C103.42,869.81,111.01,888.69,91.06,898.36z"/>
		<path class="st11" d="M1002.83,553.08c-16.3-19.74-13.95-40-1.68-60.54C1001.71,512.72,1002.27,532.9,1002.83,553.08z"/>
		<path class="st9" d="M950.8,1138.57c-9.03-3.97-17.36-9.48-17.68-20.07c-0.34-10.99,9.49-10.52,17.09-11.79
			C950.41,1117.33,950.6,1127.95,950.8,1138.57z"/>
		<path class="st15" d="M586.01,1045.03c-0.05-4.03-0.1-8.07-0.15-12.1c17.81-18.93,22.9,0.09,30.92,10.37
			C606.52,1043.87,596.26,1044.45,586.01,1045.03z"/>
		<path class="st12" d="M198.08,1034.74c14.04-0.66,28.08-1.32,42.12-1.98c-1.72,13.28-13.99,11.56-22.2,15.62
			C209.7,1046.27,201.34,1044.23,198.08,1034.74z"/>
		<path class="st11" d="M125.02,959.86c0.46-10.63,0.91-21.26,1.37-31.89c11.36,9.04,15.85,21.47,17.45,35.33
			C137.56,962.15,131.29,961.01,125.02,959.86z"/>
		<path class="st19" d="M719.8,206.49c3.42,2.64,8.86,7.25,4.76,9.98c-8.87,5.91-17.82,4.01-23.08-6.67
			C707.58,208.7,713.69,207.59,719.8,206.49z"/>
		<path class="st6" d="M1045.13,762.96c7.15-15.23,20.95-9.72,32.73-10.51C1069.66,764.42,1056.99,762.43,1045.13,762.96z"/>
		<path class="st10" d="M510.93,983.09c3.38-0.8,6.79-1.42,10.24-1.87c0.31,7.55,0.61,15.09,0.92,22.64
			C518.37,996.94,514.65,990.02,510.93,983.09z"/>
		<path class="st13" d="M540.17,131.2c3.91-2.88,7.83-5.75,11.74-8.63c2.47,2.87,4.94,5.74,7.41,8.61
			c-2.66,3.67-6.25,5.9-10.64,6.91C545.85,135.79,543.01,133.5,540.17,131.2z"/>
		<path class="st18" d="M93.78,236.37c-0.43,8.36-4.86,12.71-13.19,13.16C84.99,245.15,89.38,240.76,93.78,236.37z"/>
		<path class="st14" d="M284.61,1139.68c0.16-4.78,0.32-9.55,0.49-14.33c4.31-1.36,8.52-1.1,12.62,0.8
			c-1.51,5.74-3.02,11.49-4.53,17.23C289.83,1143.32,286.97,1142.09,284.61,1139.68z"/>
		<path class="st20" d="M461.62,416.99c3.33,0.8,8.69,0.56,9.69,2.54c21.14,41.59,63.13,42.35,100.39,49.47
			c44.01,8.41,53.82-5.47,36.52-47.13c-25.63-61.73-42.29-125.92-53.93-191.56c14.99-6.78,26.25-0.39,36.35,10.21
			c8.52,14.1,8.29,30.03,9.48,45.65c1.74,32.21,16.24,59.59,32.96,86.09c10.01,26.4,23,50.35,51.13,61.91
			c15.09,10.72,27.93,23.42,36.57,40.02c10.84,26.27,17.44,53.18,12.31,81.85c-7.57,27.57-27.6,32.15-52.11,28.29
			c-4.71-1.32-9.15-3.52-13.17-6.32c-7.36-7.74-14-16.89-26.69-16.34c-7.04-0.36-13.76-1.85-20.38-4.18
			c-59.37,1.38-112.45-11.42-148.32-64.29c-14.71-21.68-29.34-43.09-16.72-71.08C457.67,420.4,459.65,418.7,461.62,416.99z"/>
		<path class="st17" d="M584.11,242.43c-9.94-4.04-19.88-8.08-29.81-12.12l-0.05-0.11c-2.98-3.84-6.62-6.88-10.93-9.13
			c-8.54-4.66-10.76-13.22-13.31-21.59c-3.76-8.11-2.25-15.28,3.84-21.63c-2.16-15.9,4.65-28.46,14.84-39.75
			c3.55-2.3,7.09-4.61,10.64-6.91c19.1-9.47,38.2-18.93,57.29-28.4c8.55,14.26,12.37,28.55,0.3,42.95
			c9.47,17.64-6.52,29.36-10.08,43.98c-1.97,4.02-4.63,7.58-7.83,10.69c-7.13,6.43,3.08,1.24,2.31,3.39
			c6.82,1.38-1.95-0.16,4.92,1.25c14.01,7.65,20.51,19.12,18.02,35.21c-2.33,7.38-6.91,12.43-14.67,14.21
			C599.05,254.8,592.45,246.78,584.11,242.43z"/>
		<path class="st21" d="M222.08,461.53c-6.69,0.79-13.87,0.3-19.97,2.63c-14.12,5.39-27.45,6.41-18.19-13.22
			c9.89-20.95-12.05-21.1-15.87-32.32c2.23-35.52,30.21-29.1,52.37-32.15c6.99-0.08,13.98-0.17,20.96-0.26
			c16.62,5.91,34.38,8.71,49.69,18.25c7.53,8.91,3.69,16.87-2.02,24.68c-3.17,3.21-6.75,5.94-10.61,8.27
			c-10.5,4.78-16.75,14.2-24.11,22.47C243.98,468.11,233.28,469.91,222.08,461.53z"/>
		<path class="st18" d="M220.43,386.47c-12.99,18-42.06,9.8-52.37,32.15c-15.93-1.66-24.96,9.32-34.49,19.08
			c-18.01,18.45-29.73,9-39.8-8.61c24.97-24.09-16.32-49.53,1.52-73.77C137,365.7,178.71,376.09,220.43,386.47z"/>
		<path class="st22" d="M357.29,333.78c3.21-6.51,6.43-13.01,9.64-19.52c15.09-11.45,31.76-15.53,50.33-10.91
			c5.74,1.72,10.81,4.66,15.24,8.67c10.3,15.72,10.45,32.24,3.68,49.24c-29.57,20.64-63.23,32.49-96.97,44.14
			c-5.04-0.53-9.71-2.23-14.03-4.84c-3.13-3.87-4.8-8.35-5.04-13.33c1.26-11.81,4.73-22.95,10.9-33.19
			C338.07,345.09,349.92,342.34,357.29,333.78z"/>
		<path class="st18" d="M335.61,356.92c-0.71,10.8,2.79,23.15-10.8,29.19c-11.79,1.41-17.91,10.9-25.64,18.1
			c-1.87,1.1-3.78,2.15-5.69,3.19c-17.78-6.03-46.84,15.7-52.09-21.18c15.82-24.53,52.18-44.6,93.91-51.84
			C341.54,341.81,341.56,349.32,335.61,356.92z"/>
		<path class="st21" d="M429.3,365.81c-0.19-16.93-0.38-33.87-0.58-50.8c3.35-11.25,11.37-17.87,21.86-22.02
			c24.69-3.23,35.64,7.55,29.55,31.74c-5.28,20.96-13.02,41.3-19.67,61.91c-12.19,4.26-24.22,6.7-35.26-2.98
			C422.94,376.86,423.62,370.76,429.3,365.81z"/>
		<path class="st1" d="M95.28,355.32c-2.35,17.49,12.69,26.24,19.75,38.95c13.68,24.63,2.13,33.18-21.27,34.81
			c-6.44-4.6-12.88-9.2-19.32-13.8c-0.02-2.13-0.01-4.27,0.01-6.4c-21.14-21.65-21.6-47.02-13.32-73.97
			c7.72-6.49,15.56-7.47,23.59-0.53C84.78,343.11,85.37,351.57,95.28,355.32z"/>
		<path class="st18" d="M84.72,334.39c-6.89,0.03-13.78,0.05-20.67,0.08c-6.49-0.43-6.59-7.38-10.58-10.37
			c1.54-3.08,2.27-7.61,4.75-9c17-9.49,15.89-48.44,40.25-35.67C110.55,285.77,91.62,315.67,84.72,334.39z"/>
		<path class="st21" d="M53.47,324.1c5.54,1.4,8.93,5,10.58,10.37c-5.67,26.08,12.52,48.83,10.4,74.42
			c-29.45-3-35.66-22.21-28.93-46.26C49.11,349.81,54.14,337.67,53.47,324.1z"/>
		<path class="st18" d="M418.98,313.13c-17.35,0.38-34.7,0.75-52.05,1.13c8.31-24.53,32.63-33.31,50.17-48.06
			c8.21-6.91,10.75,8.06,12.19,15.93C429.63,293.72,425.07,303.68,418.98,313.13z"/>
		<path class="st20" d="M430.12,386.41c10.17-7.31,20.27-6,30.34,0.22c0.39,10.12,0.78,20.24,1.17,30.37l-1.12,1.05
			c-9.15,8.04-19.18,9.38-30.12,3.97c-6.81-5.77-9.04-13.32-8.51-21.94C422.91,394.5,425.67,389.94,430.12,386.41z"/>
		<path class="st8" d="M418.98,313.13c-8.78-14.4-7.46-25.43,10.31-31c8.9,0.07,17.3,1.12,21.29,10.85
			c1.02,15.58-8.24,20.97-21.86,22.02C425.53,314.1,422.28,313.48,418.98,313.13z"/>
		<path class="st13" d="M533.85,177.85c1.92,7.78,0.35,14.94-3.84,21.63c-8.96-1.64-24.01,2.27-23.54-10.54
			C507.1,171.86,523.67,179.59,533.85,177.85z"/>
		<path class="st15" d="M403.38,187.58c-6.16-1.78-13.87-2.43-12.37-11.48c1.32-7.99,7.98-8.72,14.74-8.28
			c5.55,0.36,9.13,3.66,9.92,8.64C417.17,185.85,409.34,185.88,403.38,187.58z"/>
		<path class="st8" d="M335.61,356.92c-0.11-7.51-0.21-15.03-0.32-22.54c7.33-0.2,14.66-0.4,21.99-0.6
			C358.09,349.01,350.1,356.01,335.61,356.92z"/>
		<path class="st13" d="M439.57,157.02c-6.86-3.48-13.72-6.96-20.58-10.44l-0.31-0.31c18.1-18.91,19.2-3.28,21.24,10.45
			L439.57,157.02z"/>
		<path class="st13" d="M439.92,156.72c12.34,7.12,12.71,14.06-0.31,20.81c-2.3-2.27-3.04-4.52-2.23-6.75
			c0.8-2.21,1.59-3.32,2.38-3.32c-0.06-3.48-0.13-6.95-0.19-10.43L439.92,156.72z"/>
		<path class="st13" d="M419,146.58c-1.85,1.74-3.7,3.49-5.56,5.23c0.25-1.2,0.09-2.85,0.83-3.5c1.16-1.03,2.92-1.4,4.42-2.04
			C418.69,146.27,419,146.58,419,146.58z"/>
		<path class="st15" d="M439.76,167.46c-0.12,3.36-0.17,6.71-0.15,10.07C430.67,174.04,432.22,170.7,439.76,167.46z"/>
		<path class="st20" d="M543.32,221.06c6.24-0.07,10.01,2.83,10.93,9.13C548.57,229.59,545.13,226.3,543.32,221.06z"/>
		<path class="st9" d="M199.61,616.55c-1.39-3.38-2.77-6.76-4.16-10.14c3.02-5.63,7.98-9.07,13.37-12.01
			c3.4-1.98,7.01-3.63,10.63-5.17c5.25-2.37,10.57-4.65,15.75-7.27c3.35-2.01,6.82-3.75,10.32-5.49c5.31-2.92,10.58-5.87,15.78-9.11
			c3.59-2.61,7.27-4.91,11.03-7.25c26.06-16.27,51.3-34.19,82.94-38.2c21.55-0.5,42.6,4.34,64,6.02
			c12.31,4.18,22.39,10.86,26.75,23.94c1.08,4.92,1.33,9.91,1.05,14.93c-2.93,11.76,1.15,24.06-1.41,35.51
			c-4.64,20.75-15.86,25.02-32.08,9.44c-10.19-10.58-0.07-32.83-21.31-36.83c-8.05,2.22-14.79,6.76-21.45,11.48
			c-15.13,9.87-14.21,27.4-20.09,41.63c-11.97,14.16-33.65,7.75-45.76,21.61c-26.06,10.84-37.55-9.79-51.98-24.08l-0.48,0.13
			C236.14,615.3,215.82,627.84,199.61,616.55z"/>
		<path class="st23" d="M428.38,396.01c0.4,7.21,0.8,14.41,1.2,21.62c12.83,19.3,13.15,36.2-9.28,48.72
			c-61.91-3.52-100.72,40.41-145.84,71.43c-34.26,18.29-67.07,39.88-106.25,47.04c-3.53-0.83-7.06-1.67-10.59-2.5
			c-8.48-0.87-13.73-5.43-15.76-13.72c-0.5-8.16,2.45-14.86,8.49-20.29c78.27-36.08,149.06-84.25,218.48-134.78
			C386.06,400.97,402.84,382.28,428.38,396.01z"/>
		<path class="st24" d="M418.92,607.17c13.54,12.11,21.23,9.95,16.55-8.76c-3.17-12.69-12.33-24.35,4.1-34.04
			c13.45,7.4,23.45,18.94,34.87,28.82c2.57,3.61,4.5,7.54,6.06,11.67c3.27,12.95,9.57,24.32,18.18,34.54
			c2.83,3.75,5.22,7.71,7.46,11.86c2.26,4.36,3.82,8.9,5.03,13.64c1.96,10.1,1.69,20.07-1.36,29.95
			c-6.25,15.27-16.18,26.99-31.94,33.09c-27.97,5.59-42.01-9.65-49.5-33.79c-5.06-16.3-5.14-34.58-19.64-46.89l0.06,0.13
			c-3.53-3.3-7.26-6.36-11.17-9.2c-3.09-1.54-6.37-2.31-9.83-2.31c-6.37-1.23-10.96-5.04-14.68-10.14
			c-0.81-4.22-0.03-8.14,2.07-11.86c2.95-3.03,6.28-5.55,9.93-7.68c5.57-3.18,11.42-5.63,17.77-6.77
			C409.65,599.06,415.42,600.78,418.92,607.17z"/>
		<path class="st5" d="M408.73,647.26c22.25,0.24,30.96,14.05,29.54,33.54c-2.39,32.79,13.6,43.13,43.31,39.7
			c4.82,11.6-1.35,19.15-9.51,26.01c-6.59,3.82-13.79,5.27-21.3,5.31c-7.08,0.22-14.15,0.77-21.03,2.66
			c-14.76,0.94-24.66,10.62-34.95,19.59c-7.38,3.67-15.12,11.59-23.1,4.29c-6.95-6.36-5.54-15.03,0.5-22.84
			C396.83,723.69,408.63,687.43,408.73,647.26z"/>
		<path class="st24" d="M168.21,584.82c32.59-22.06,65.26-43.96,104-54.23c6.23,5.37,7.69,12.35,6.82,20.14
			c-2.32,10.31-10.18,16.66-17.06,23.71l0.13-0.07c-5.61,6.27-15.28,4.42-20.97,10.51l0.16-0.11c-5.66,6.3-15.4,4.49-21.13,10.65
			l0.36-0.25c-10.4,8.5-21.92,4.95-33.29,3.13C180.89,593.79,174.55,589.31,168.21,584.82z"/>
		<path class="st20" d="M418.92,607.17c-6.95,0.16-13.91,0.33-20.86,0.49c-4.41,2.26-7.97,6.17-13.21,6.84l-4.41-0.67l-4.42,0.58
			c-4.83,10.98-17.34,7.15-24.87,12.91l-0.43,0.71c-10.27-22.49-14.02-43.02,16.03-53.4c12.89,6.99,17.64-0.1,19.88-11.51
			c14.81-13.76,27.66-17.56,31.53,8.18C419.93,583.02,418.76,595.2,418.92,607.17z"/>
		<path class="st8" d="M333.43,723.8c-9.43,12.86-8.93,37.44-31.43,35.12c-19.67-2.04-18.76-21.03-18.82-36.87
			c-0.06-14.95,6.55-22.3,21.7-21.85C320.42,700.65,331.33,706.49,333.43,723.8z"/>
		<path class="st21" d="M252.98,625.57c24.18-6.78,31.11,23.71,51.98,24.08c-3.07,7.86-5.95,15.8-9.26,23.55
			c-4.34,10.18-10.83,17.66-23.34,14.5c-10.92-2.76-18.43-10.25-19.43-21.16C251.69,653,252.85,639.24,252.98,625.57z"/>
		<path class="st24" d="M240.04,909.58c0.38,6.15,0.77,12.31,1.15,18.46c-4.92,7.22-12.5,6.48-19.78,6.63
			c-7.36,0.01-14.74,0.22-21.85-2.2c-6.77-1.05-13.53-2.1-20.3-3.15c-6.33-6.86-7.62-13.2,1.87-18.46
			C200.76,910.43,220.4,910,240.04,909.58z"/>
		<path class="st17" d="M95.18,636.91c3.43-10.11,12.66-18.35,9.8-30.48c-5.65-6.11-10.22-12.73-10.18-21.53
			c0.4-3.37,0.44-6.74,0.13-10.12c-2.15-2.34-2.94-4.75-2.36-7.21c0.58-2.49,1.21-3.74,1.89-3.74l0.26-0.44
			c3.62-3.11,7.77-4.94,12.56-5.32c4.75,0.73,8.9,2.73,12.48,5.94c2.57,4.02,4.25,8.39,5.11,13.09c0.71,7.29-1.71,13.92-4.49,20.45
			C108.97,608.76,128.06,639.47,95.18,636.91z"/>
		<path class="st12" d="M219.72,948.64c9.45,2.74,24.35,3.64,17.48,17.99c-6.99,14.59-16.73,33.25-38.93,16.35
			c0.27-9.87,6.42-17.25,10.79-25.38C212.61,954.61,216.17,951.63,219.72,948.64z"/>
		<path class="st24" d="M394.79,774.08c1.4-22.88,9.98-38.27,36.49-34.92c3.5,8.72,12.45,14.78,12.39,25.25
			c-8.48,4.54-16.95,9.09-25.43,13.63C410.42,776.72,402.6,775.4,394.79,774.08z"/>
		<path class="st20" d="M120.37,597.56c-1.43-7.69-2.86-15.38-4.28-23.08c11.45-8.95,22.89-8.37,34.34,0.01
			c2.4,2.61,4.79,5.22,7.19,7.82C158.41,619.68,129.69,584.9,120.37,597.56z"/>
		<path class="st12" d="M91.06,898.36c8.32-13.56-3.01-33.7,14.76-44.09c12.53,13.29,12.71,27.32,2.53,41.98
			C102.58,896.95,96.82,897.66,91.06,898.36z"/>
		<path class="st4" d="M178.7,846.21c-7.13-1.79-12.69-6.26-14.42-13.01c-1.62-6.34,4.49-9.14,9.28-8.33
			c15.43,2.61,34.95-9.02,45.25,12.32C207.24,848.18,191.19,839.28,178.7,846.21z"/>
		<path class="st24" d="M209.06,957.6c1.37,10.57,1.07,20.43-10.79,25.38c-7.08-7.46-27.83-4.17-18.98-24.15
			C189.21,958.42,199.14,958.01,209.06,957.6z"/>
		<path class="st2" d="M178.7,846.21c9.56-19.97,26.57-6.79,40.12-9.02C210.47,862.56,195.47,858.32,178.7,846.21z"/>
		<path class="st21" d="M199.61,616.55c17.46,4,37.71-8.09,52.88,9.14C234.6,624.18,214.51,635.38,199.61,616.55z"/>
		<path class="st5" d="M377.66,628.64c5.16-0.08,8.75,2.05,10.14,7.25c-1.83,5.29,2.91,13.69-6.58,14.8
			c-0.84,0.1-2.72-8.69-4.12-13.36c-3.2-2.15-4.18-4.15-2.95-6.01C375.32,629.54,376.49,628.64,377.66,628.64z"/>
		<path class="st9" d="M377.66,628.64c0.01,2.91-0.17,5.81-0.56,8.69c-8.65-3.34-17.3-6.68-25.95-10.01
			c4.75-11.13,13.92-13.74,24.87-12.91C376.57,619.15,377.12,623.9,377.66,628.64z"/>
		<path class="st25" d="M187.23,598.28c11.1-1.04,22.19-2.08,33.29-3.13c-4.67,11.97-15.35,10.54-25.07,11.26
			C192.72,603.7,189.97,600.99,187.23,598.28z"/>
		<path class="st20" d="M181.12,910.85c-0.62,6.15-1.25,12.31-1.87,18.46c-7.73-2.17-17.41-5.47-16.42-13.91
			C164.25,903.43,174.49,910.96,181.12,910.85z"/>
		<path class="st13" d="M199.55,932.46c7.14-0.09,14.28-0.18,21.41-0.27c2.91,1.98,3.8,3.82,2.68,5.53
			c-1.08,1.64-2.14,2.46-3.21,2.46l0.13-0.15C212.62,940.1,204.67,940.23,199.55,932.46z"/>
		<path class="st5" d="M397.62,638.19c6.07,0.21,9.75,3.34,11.17,9.2C402.81,647.07,399.41,643.62,397.62,638.19z"/>
		<path class="st0" d="M743.88,352.51c16.35,18.55,37.89,28.14,60.86,35.28c22.47,4.4,47.26,1.19,65.38,19.93
			c1.22,20.81-13.05,27.18-29.38,31.7c-10.19,1.97-20.56,2.17-30.86,2.83c-10.17,0.36-19.83,3.5-29.64,5.9
			c-18.07,3.87-36.11,4.35-54.13-0.47c-7.85-2.29-15.13-5.8-22.09-10.09c-9.62-6.2-17.67-13.79-21.94-24.75
			c-8.44-33.61,1.29-57.1,36.9-66.18C728,345.48,736.19,347.91,743.88,352.51z"/>
		<path class="st11" d="M941.12,710.08c-3.66-13.67-7.32-27.34-10.98-41.01c-0.18-17.89,8.93-17.77,21.44-11.06
			c40.35,19.3,70.76,61.3,123.22,53.4c6.23-0.94,14.42,3.89,15.52,11.36c1.51,10.22-8.54,7.39-13.95,9.57
			C1026.79,752.36,982.39,740.71,941.12,710.08z"/>
		<path class="st9" d="M743.88,352.51c-6.9,0.38-13.81,0.75-20.71,1.13c-17.52-3.42-31.2-15.46-47.75-21.15
			c-8.59-3.6-16.54-8.29-24.31-13.39c-23-17.36-51.37-31.25-44.63-68.07c6.26-2.17,10.09-6.6,11.98-12.84
			c7.69-6.43,16.96-10.14,25.6-14.98c6.89-4.48,14.32-7.27,22.63-7.3c3.42,0.79,6.83,1.58,10.25,2.38c2.35,2.06,4.7,4.13,7.05,6.19
			c-17.59,10.02-10.63,24.09-6.22,37.74l-1.47,2.7l2.71-1.49C700.05,274.5,737.43,325.84,743.88,352.51z"/>
		<path class="st25" d="M899.51,375.96c20.29,55.68,11.36,111.37,0.11,167.07c-19.49,16.54-38.28,14.81-56.51-2.1
			c-4.55-7.49-6.27-15.69-5.71-24.35c6.25-27.09,32.11-46.93,28.87-77.67c1.36-13.09,10.93-23.72,11-37.21
			C880.01,389.08,879.43,373.57,899.51,375.96z"/>
		<path class="st23" d="M899.51,375.96c-15.03,7.16-9.35,21.6-11.65,33.23c-6.21,3.49-12.24,4.71-17.71-1.37
			c-23.56-0.93-47.29-1.32-65.41-20.03c15.01-11.56,13.63-30.47,20.11-45.8c12.67-29.97,23.48-33.92,48.68-14.22
			C888.97,339.84,898.3,355.88,899.51,375.96z"/>
		<path class="st18" d="M846.8,532.15c14.12,20.54,34.98,8.38,52.82,10.89c25.51,3.08,20.23,15.23,8.6,29.24
			c-3.15,8.8-9.61,14.33-17.8,18.24c-4.05,1.83-8.27,3.1-12.61,4.04c-4.37,0.9-8.8,1.32-13.25,1.55
			c-11.24,0.35-22.47,0.34-33.7-1.08c-4.63-0.76-9.03-2.15-13.3-4.11c-4.09-2.52-7.48-5.75-10.31-9.62
			c-8.74-15.05-14.65-30.5-6.25-47.83c3.18-3.83,7.13-6.58,11.7-8.5c4.73-1.41,9.58-1.98,14.52-1.93
			C834.83,523.71,841.13,527.26,846.8,532.15z"/>
		<path class="st24" d="M951.58,658.01c-8.98,0.14-17.81,0.55-21.44,11.06c-13.84-0.32-20.69,5.9-20.79,20.28
			c-0.08,11.27-1.72,22.53-2.67,33.8c-50.89-11.33-28.55-54.7-37.1-84.63c4.89-20.03,18.38-30.21,38.11-33.25
			c12.65-1.26,23.56,2.81,33.07,11.03C948.11,629.23,953.53,642.67,951.58,658.01z"/>
		<path class="st11" d="M940.76,616.3c-10.38,0.01-20.77,0.02-31.15,0.03c-7.99-7.48-8.99-16.3-5.03-26.09
			c1.63-1.75,3.27-3.49,4.91-5.23c7.16-3.44,14.31-6.88,21.47-10.33c3.11-3.46,6.22-3.3,9.33-0.01
			C940.44,588.55,940.6,602.42,940.76,616.3z"/>
		<path class="st17" d="M887.23,584.16c3.44-10.24,13.21-9.32,20.99-11.9c0.42,4.25,0.85,8.49,1.27,12.74l0.15-0.15
			C901.96,591.25,894.51,590.46,887.23,584.16z"/>
		<path class="st24" d="M940.29,574.67l-4.67-0.04l-4.67,0.05C934.05,566,937.16,565.22,940.29,574.67z"/>
		<path class="st25" d="M878.79,635.17c1.49,22.29,13,42.93,10.12,66.06c-1.54,12.41,6.74,18.72,17.76,21.91
			c1.58,26.77,3.17,53.54,4.75,80.31c8.01,10.18,9.55,23.66,17.36,33.94c-0.01,9.26-0.02,18.51-0.03,27.77
			c-12.76,26.1-15.72,56.06-31.36,80.96c-14.34,22.83-30.39,42.97-62.03,28.14c-9.73-8.11-19.45-16.22-29.18-24.33
			c-6.72-5.44-9.96-12.63-10.67-21.1c-0.02-8.12,2.08-15.62,6.72-22.31c61.22-50.32,65.27-93.2,17.32-186.03
			c-7.02-17.42-8.71-35.98-11.96-54.26c-0.41-8.84,1.45-17.05,6.5-24.45C834.01,623.43,855.32,618.61,878.79,635.17z"/>
		<path class="st24" d="M835.36,974.27c30.79-1.84,46.14-17.65,57.11-47.47c7.8-21.19,6.5-51.94,36.28-61.63
			c7.58,49.6-3.74,91.82-48.91,119.41C862.86,994.95,844.55,1001.84,835.36,974.27z"/>
		<path class="st12" d="M701.56,939.49c-1.32-19.68-14.86-34.22-21.69-51.59c-5.02-12.74,2.14-20.62,11.05-27.83
			c14.79-7.21,32.61-12.62,37.7,7.96c7.18,29.04,26.7,55.83,18.78,88.09c-1.88,1.94-3.79,3.86-5.69,5.79
			C723.57,962.96,715.77,945.48,701.56,939.49z"/>
		<path class="st12" d="M796.24,950.53c-4.18,13.34,6.13,33.79-12.57,39.32c-21.77,6.44-31.37-13.27-41.95-27.94l1.95-2.06
			c13.59-11.56,28.43-18.89,46.93-13.99C792.48,947.39,794.36,948.96,796.24,950.53z"/>
		<path class="st9" d="M921.13,1053.69c-18.01,0.23-33.24-5.14-43.08-21.37c4.65-8.76,12.97-8.49,21.14-8.59
			C904.03,1035.53,923.22,1036.81,921.13,1053.69z"/>
		<path class="st6" d="M847.27,1054.92c-11.16-1.25-24.34,4.13-31.69-9.65c1.28-5.75,4.63-9.59,10.37-11.21
			c6.92-6.17,13.94-6.13,21.06-0.34l0.03-0.02C847.11,1040.78,847.19,1047.85,847.27,1054.92z"/>
		<path class="st24" d="M928.79,837.4c-21.75-3.14-19.74-18.45-17.36-33.94C934.12,806.12,930.95,822.01,928.79,837.4z"/>
		<path class="st9" d="M847.01,1033.72c-7.02,0.11-14.04,0.23-21.06,0.34c1.37-7.2-0.6-17.47,10.52-17.52
			C847.34,1016.49,846.73,1025.94,847.01,1033.72z"/>
		<path class="st6" d="M804.27,930.43c0.64,6.5,1.28,13.01,1.91,19.51c-3.3,0.43-6.62,0.62-9.94,0.59l-2.95-0.24
			c-4.74-6.48-4.98-13.24-1.27-20.25C796.21,926.62,800.3,926.75,804.27,930.43z"/>
		<path class="st26" d="M794.36,929.57c-0.36,6.91-0.71,13.81-1.07,20.72c-16.95,1.07-31.29,15.68-49.62,9.55
			c-1.14-31.92-28.44-55.9-24.71-91.09c1.51-14.23-18.86,2.6-29.08-0.79c-20.88-9.67-22.09,10.56-30.4,20.01
			c-0.01,3.46-0.28,6.89-0.79,10.31c-1.84,1.87-3.69,3.74-5.52,5.64c-17.63,8.69-35.45,7.97-53.4,1.11
			c-7.45-3.49-9.15-11.64-13.93-17.29c-0.34-1.67-1.04-3.37-0.99-5.06c0.35-11.64,9.67-18.62,14.62-27.88
			c-6.67,9.63-17.38,17.44-14.19,31.48c2.9,3.69,4.18,7.89,3.6,12.58c-2.17,4.71-5.46,8.51-10.05,11.02
			c-4.05,2.21-8.34,3.42-12.97,1.8c3.25,3.73,9.16,3.31,12.03,7.72c2.48,9.97-2.31,17.22-8.75,23.89
			c-10.36,8.89-25.81,7.54-35.58,17.67c-3.67-0.3-7.35-0.61-11.02-0.91c-8.77-9.13-10.28-19.45-5.09-30.85
			c3.58-5.94-1.68,1.75,2.02-4.14c1.63-2.6,3.44-5.08,5.31-7.51c-1.91,1.61-2.79,4.03-4.56,5.78
			c-9.28,13.33-19.34,24.72-37.86,15.68c-3.99-3.45-7.99-6.9-11.98-10.35c-3.52-26.77,18.72-35.6,34.1-49.26
			c3.6-2.9,7.38-5.6,11.11-8.33c1.75-1.51,3.62-2.87,5.37-4.38c3.43-3.15,7.07-6.02,10.73-8.88c32.64-18.63,47.78-50.28,61.59-82.98
			c5.71-8.81,11.75-17.33,18.02-25.67c48.37-64.24,95.58-67.93,156.37-12.37c5.41,9.3,7.43,19.52,8.09,30.08
			c0.59,9.67,0.1,19.34-1.45,28.89c-0.9,4.37-2.63,8.47-5.05,12.22c-2.37,4.41-8.85,6.65-7.44,12.66c0-1,0.32-2.31,1.03-5.05
			c2.82-3.15,5.82-5.14,9.55-6.5c7.38-0.43,13.38,2.07,18.5,7.09c15.18,19.43,17.76,41.42,13.58,64.82
			C799.99,896.94,792.39,912.24,794.36,929.57z"/>
		<path class="st12" d="M443.66,764.41c-12.74-4.2-15.22-13.42-12.39-25.25c5.75,0.29,11.5,0.58,17.26,0.87
			c6.29,7.4,14.72,7.25,23.33,6.57c4.46-0.78,8.72-0.21,12.89,1.46c11.76,6.94,23.27,14.25,34.19,22.54
			c5.54,5.17,9.44,11.29,11.08,18.77c-10.96,56.32-29.42,107.49-89.46,130.03c-6.05,0.06-12.1,0.11-18.16,0.17
			c-5.81,1.94-10.23,5.7-13.81,10.56l0.34-0.2c-10.53,6.95-22.13,12.29-31.48,21l0.07,0.04c-19.64,15.89-42.46,27.01-62.82,41.83
			l0.19-0.25c-4.12,2.99-7.68,6.55-10.66,10.68l0.24-0.17c-6.13,5.45-15.91,3.64-21.23,10.69l0.4-0.42
			c-4.35,3.15-7.71,7.23-10.94,11.44c-7.96,14.27-20.58,9.19-32.31,7.77c25.44-77.3,90.12-119.29,152.02-160.87
			c34.47-23.15,48.2-56.44,66.59-88.4C465.65,771.73,456.89,764.24,443.66,764.41z"/>
		<path class="st18" d="M440.56,919.41c43.5-35.81,69.75-81.98,82.06-136.54c-1.18-1.7-2.35-3.39-3.54-5.09
			c0.16-2.07,0.32-4.13,0.46-6.21c1.78-8.26,5.42-15.85,8.37-23.72c2.85-8.41,4.61-17.09,7.04-25.65
			c2.5-7.12,6.01-13.28,14.08-15.23c5.3,0.76,9.28,3.5,12.22,7.9c9.99,22.07,6.14,45.43,6.61,68.38c-0.23,9.82-1.11,19.6-2.97,29.24
			c-0.96,4.59-2.55,9.02-4.54,13.27c-3.29,5.92-7.53,11.2-12.09,16.19c-5.87,6.09-12.32,11.72-16.7,19.16
			c-3.23,5.21-3.93,11.86-8.98,16.06l0.48-0.39c-3.51,4.57-7.79,8.21-12.97,10.78c-15.03,11.97-29.72,24.26-39.71,41.09
			c-10.37,6.86-14.19,22.45-29.78,22.36c-11.37,4.09-13.7-1.22-11.58-11.15C432.87,933.05,436.72,926.23,440.56,919.41z"/>
		<path class="st17" d="M248.85,1072.58l-2.53-1.79c-0.6-4.97-1.36-11.36,4.31-12.65c25.82-5.87,52.87-1.93,78.65-11.94
			c11.86-4.61,15.93,8.32,16.47,19.22c6.2,7.05,6.14,14.64,2,22.61c-21.8,16.13-46.35,11.39-70.56,9.39
			c-5.24-1.06-10.07-3.15-14.51-6.12C257.27,1085.67,254.91,1077.76,248.85,1072.58z"/>
		<path class="st11" d="M345.61,1085.48c0.04-6.69,0.09-13.37,0.13-20.06c16.14,3.26,42.16-10.61,40.59,23.39
			c-7.87,3.68-8.5,11.13-9.57,18.35l0.47-0.38c-5.75,5.96-12.61,6.73-20.16,4.34C347.89,1104.98,345.11,1095.96,345.61,1085.48z"/>
		<path class="st25" d="M314.7,992.81c12.64-26.41,35.08-38.09,62.82-41.83C368.01,982.09,343.05,989.99,314.7,992.81z"/>
		<path class="st19" d="M523.68,919.52c-0.38,13.51-0.75,27.03-1.13,40.54c0,0-0.04,0.24-0.04,0.24c-3.13,4.33-6.46,4.3-9.97,0.47
			c-10.63-0.17-21.26-0.34-31.9-0.51c0.58-7.08,1.15-14.17,1.73-21.25c13.55-6.71,27.11-13.43,40.66-20.14
			C523.02,918.87,523.68,919.52,523.68,919.52z"/>
		<path class="st4" d="M460.6,988.66c-0.16,8.05-0.32,16.11-0.47,24.16c-8.92,2.05-18.05,16.93-25.97,5.84
			c-8.98-12.57,8.33-14.45,14.56-20.61C452.29,994.53,456.61,991.77,460.6,988.66z"/>
		<path class="st22" d="M429.03,939.87c1.46,6.21,5.65,9.59,11.58,11.15c-7.52,11.38-18.78,16.33-27.36,5
			C409.39,950.92,421.82,943.88,429.03,939.87z"/>
		<path class="st25" d="M377.45,950.94c4.64-15.78,15.47-22.27,31.48-21C402.72,943.36,394.02,953.05,377.45,950.94z"/>
		<path class="st17" d="M403.87,1028.67c-2.96,1.29-5.56,2.77-8.35,3.43c-0.78,0.18-2.13-2.07-3.22-3.21
			c2.66-1.17,5.24-2.68,8.02-3.31C401.2,1025.38,402.61,1027.51,403.87,1028.67z"/>
		<path class="st25" d="M283.24,1013.75c3.47-10.72,12.06-11.28,21.23-10.69C300.7,1013.2,292.56,1014.63,283.24,1013.75z"/>
		<path class="st25" d="M408.59,930.14c1.63-7.42,6.72-10.3,13.81-10.56C417.8,923.1,413.2,926.62,408.59,930.14z"/>
		<path class="st25" d="M304.23,1003.24c0.87-6.24,4.52-9.7,10.66-10.68C314.14,998.91,310.29,1002.18,304.23,1003.24z"/>
		<path class="st25" d="M272.71,1024.77c1.29-6.06,4.85-9.96,10.94-11.44C283.04,1020.05,278.53,1023.04,272.71,1024.77z"/>
		<path class="st17" d="M428.38,396.01c-47.79,12.93-80.64,49.9-119.98,76.11c-41.32,27.53-83.54,52.82-127.67,75.33
			c-11.3,5.76-23.08,5.73-34.75,7.87c-1.96-0.35-3.93-0.71-5.92-1.01c-3.81-1.41-7.34-3.34-10.66-5.68
			c-4.88-4.06-7.93-9.16-8.69-15.53c0.43-4.18,2.22-7.68,5.33-10.51c47.03,3.28,70.7-30.2,96.05-61.05
			c10.47-2.69,23.34,0.38,29.64-12.33c7.69-6.55,13.67-15.27,23.79-18.74c2.7,0.17,5.34-0.16,7.92-0.96
			c15.52-8.74,26-24.68,43.54-30.54c11.89-1.26,24.71-1.29,32.76-11.74c18.33-23.78,43.28-24.38,69.57-21.4
			c0.28,6.87,0.55,13.73,0.83,20.6C429.04,389.52,428.46,392.72,428.38,396.01z"/>
		<path class="st16" d="M94.8,584.9c10.56,3.79,10.67,12.52,10.18,21.53c-10.44-0.64-22.04-2.45-24.5-13.57
			C78.63,584.48,88.8,585.74,94.8,584.9z"/>
		<path class="st5" d="M126.03,522.58c-0.74,4.01-1.48,8.03-2.22,12.04c-1.2,11.14,4.44,24.39-9.7,31.56
			c-2.63-0.74-5.23-1.57-7.81-2.49c-7.33-7.25-6.41-14.52-0.02-21.78c-0.08-8.16-0.37-16.42,9.66-19.6
			c3.6-3.27,7.06-3.13,10.39,0.41L126.03,522.58z"/>
		<path class="st16" d="M106.29,541.91c0.01,7.26,0.01,14.52,0.02,21.78c-3.86-0.1-7.73-0.2-11.59-0.3
			C94.86,554.23,96.11,545.66,106.29,541.91z"/>
		<path class="st16" d="M94.45,563.83c0.16,3.65,0.32,7.3,0.47,10.95C86.66,571.48,85.48,567.88,94.45,563.83z"/>
		<path class="st17" d="M126.34,522.72c-3.46-0.14-6.93-0.27-10.39-0.41C119.77,513.39,123.3,511.73,126.34,522.72z"/>
		<path class="st0" d="M220.43,940.18c0.03-2.67,0.21-5.34,0.53-7.99c6.74-1.38,13.48-2.77,20.22-4.15
			C239.03,940.23,229.51,939.82,220.43,940.18z"/>
		<path class="st0" d="M596.3,198.57c-4.95-22.23,11.05-36.28,20.62-52.84c14.24-0.79,22.93,5.56,25.49,19.81
			c-5.33,11.01-10.66,22.02-16,33.03C616.37,207.68,606.34,206.17,596.3,198.57z"/>
		<path class="st15" d="M606.75,960.97c0.04,6.9,0.08,13.8,0.12,20.7c-13.51,0.5-27.01,1-40.52,1.5c-0.47-7.37-0.94-14.75-1.4-22.12
			c1.88-1.83,3.77-3.66,5.64-5.51C583.81,949.57,596.05,950.18,606.75,960.97z"/>
		<path class="st2" d="M345.61,1085.48c9.21,3.87,10.64,11.6,10.08,20.31c-14.87,17.43-36.87,15.75-56.28,21.02l-1.69-0.66
			c-4.21-0.27-8.41-0.53-12.62-0.8c-5.83,0-9.47-2.82-10.94-8.46c-5.17-1.98-8.33-6.08-11.11-10.57l0.81-1.32
			c-8.55-5.27-6.99-11.7-2.11-18.51C289.7,1086.15,317.66,1085.82,345.61,1085.48z"/>
		<path class="st14" d="M299.41,1126.82c9.01-33.11,37.86-13.1,56.28-21.02c7.18,0.33,14.36,0.66,21.54,0.98
			C355.85,1131.17,332.82,1149.17,299.41,1126.82z"/>
		<path class="st15" d="M533.57,960.97c5.51-13.71,15.73-20.9,30.4-21.91c6.44,6.89,7.33,14.1,1.26,21.71l-0.27,0.27
			C554.49,961.02,544.03,960.99,533.57,960.97z"/>
		<path class="st26" d="M512.53,960.77c3.31-0.43,6.64-0.58,9.97-0.47c-0.53,3.8-1.06,7.6-1.59,11.39
			C518.12,968.05,515.33,964.41,512.53,960.77z"/>
		<path class="st1" d="M565.22,960.77c-0.42-7.24-0.84-14.47-1.26-21.71c4.61-5.57,9.22-11.15,13.83-16.72
			c15.45-21,35.78-13,55.4-9.34c5.76,3.23,7.82,8.06,6.18,14.46c-3.27,18.57-24.72,19.44-32.62,33.51
			C592.91,960.91,579.07,960.84,565.22,960.77z"/>
		<path class="st20" d="M596.3,198.57c10.04,0,20.08,0,30.11,0c11.42,1.7,25.47-4.47,32.37,10.8c-4.85,6.37-11.92,11.73-9.6,21.33
			c-7.92,12-19.6,8.61-30.72,7.49c-1.92-14.17-10.04-23.35-23.04-28.61c-1.76-3.65-2.14-7.43-1.13-11.35L596.3,198.57z"/>
		<path class="st0" d="M649.18,230.69c-7.4-2.51-20.85-0.56-17.27-13.12c3.61-12.7,17.16-7.4,26.87-8.2
			c2.64,2.18,5.27,4.36,7.91,6.53C660.85,220.83,655.02,225.76,649.18,230.69z"/>
		<path class="st7" d="M261.75,1086.49c0.7,6.17,1.41,12.34,2.11,18.51c-10.26,0.58-12.7-6.43-14.05-14.49
			c2.58-6.23,6.69-7.48,12.31-3.76L261.75,1086.49z"/>
		<path class="st6" d="M262.12,1086.74c-4.1,1.25-8.21,2.51-12.31,3.76c-3.61-5.8-3.88-11.77-0.97-17.92
			C254.79,1075.88,260.23,1079.65,262.12,1086.74z"/>
		<path class="st14" d="M263.05,1106.31c6.4,0.69,10.43,3.87,11.11,10.57C267.42,1116.55,263.19,1113.58,263.05,1106.31z"/>
		<path class="st19" d="M659.48,887.98c-5.9-2.49-21.23,2.29-13.19-11.46c5.43-9.28,17.79-14.64,27.34-21.35
			c9.39-6.6,1.93-33.89,21.39-23.48c12.67,6.77-9.12,22.79-5.15,36.29c-3.33,6.64-6.67,13.29-10,19.93L674.7,888l-5.17-0.1
			c-3.61-3.71-7.09-3.78-10.4,0.4L659.48,887.98z"/>
		<path class="st7" d="M659.62,918.53c-1.18-2.62-1.75-5.37-1.73-8.24c-4.92-4.6-4.54-8.71,1.14-12.33l-0.34,0.32
			C671.17,904.48,673.01,911.16,659.62,918.53z"/>
		<path class="st7" d="M659.13,888.3c3.12-9.08,6.57-9.9,10.4-0.4C666.07,888.13,662.6,888.27,659.13,888.3z"/>
		<path class="st14" d="M407.2,459.89c31.56-1.32,19.07-25.98,22.38-42.26c10.31,0.14,20.62,0.28,30.92,0.42
			c5.09,83.83,63.33,130.51,148.79,118.2c15.4-2.22,17.45,5.79,18.69,16.92c-44.91,30.76-91.03,57.07-148.8,40.1
			c-19.48-7.03-30.09-22.8-39.23-40.02c-7.13-6.88-14.27-13.76-21.4-20.64c-12.3-4.89-17.94-14.31-18.58-27.16
			C402.12,490.25,400.76,474.44,407.2,459.89z"/>
		<path class="st9" d="M471.61,583.35c35.37,2.02,69.99,7.2,102.86-16.43c13.48-9.69,33.94-15.84,53.51-13.76
			c6.84,0.16,13.68,0.31,20.53,0.46c8.47,0,15.15,4.21,21.51,9.17c0.7,3.3,1.42,6.6,2.17,9.89c-4.58,13.13-13.85,22.18-25.33,29.36
			c-25.96,8.19-50.6,18.57-72.66,35.41c-17.04,13-37.6,14.44-58.44,9.85c-20.33-8.57-33.28-24.9-44.66-42.85
			c-0.61-2.6-0.88-5.23-0.8-7.89C467.1,591.81,467.54,587.4,471.61,583.35z"/>
		<path class="st17" d="M648.53,595.65c-1.02-16.83,9.97-21.28,23.66-22.96c17.6-4.01,43.18,13.77,50.41-18.5
			c10.29-10.84,23.13-12.83,37.16-10.87c25.77,4.14,38.33,26.31,56.21,41.28l0.03,0.06c3.27,3.81,7.16,4.6,11.66,2.38
			c12.78,0.04,25.55,0.08,38.33,0.12c4.87,3.43,7.59,8.11,8.19,14.05c-2.65,23.7-19.41,24.81-37.65,23.62
			c-19.4-5.41-39.3-4.78-59.2-4.58C734.01,614.02,685.11,636.91,648.53,595.65z"/>
		<path class="st26" d="M659.04,313.47c7.24,3.84,14.47,7.69,21.71,11.53c11.85,18.26,2.11,33.9-5.98,49.73
			c-15.25,15.25-31.78,0.54-47.65,1.94c-30.29-20.13-32.28-53.74-40.26-84.5C616.68,279.75,630.45,321.72,659.04,313.47z"/>
		<path class="st12" d="M722.37,436.22c20.54,4.11,41.11,3.96,61.71,0.52c7.13-3.6,15.69-2.71,22.54-7.18
			c10.13,0.24,20.27,0.48,30.4,0.72c3.22,17.39-10.2,23.53-21.1,31.43c-3.78,2.44-7.79,4.46-11.88,6.33
			c-10.26,4.39-20.71,8.06-32.17,7c-15.03-3.27-29.76-0.7-44.48,2.53c-6.97,0.49-12.95-2.34-18.8-5.59
			c-11.9-8.51-22.36-18.42-30.16-30.93c-4.65-7.35-5.43-14.95-1.46-22.85c4.25-4.27,9.1-5.14,14.57-2.61
			c6.44,4.31,12.89,8.62,19.33,12.94C714.12,431.98,717.95,434.54,722.37,436.22z"/>
		<path class="st16" d="M680.6,415.93c-0.72,8.37-1.45,16.75-2.17,25.12c-38-4.79-48.36-31.63-51.32-64.37
			c2.66-11.28,2.99-28.47,20.31-11.66c6.52,6.33,12.43,10.86,21.23,11.7C681.45,387.11,688.51,399.24,680.6,415.93z"/>
		<path class="st16" d="M708.59,471.98c7.81-0.63,15.63-1.26,23.44-1.89c3.52,2.26,6.33,5.2,8.51,8.74
			c4.69,8.9,10.07,17.19,19.96,21.33c5.92,2.62,11.44,5.77,15.86,10.61c1.87,4.15,2.62,8.47,2.39,13
			c-1.9,11.4-5.71,21.85-14.86,29.61c-13.76,0.27-27.53,0.54-41.29,0.82C726.97,525.25,713.46,499.35,708.59,471.98z"/>
		<path class="st7" d="M659.04,313.47c-19.63,11.44-38.57,17.42-51.57-8.7c-4.48-8.99-11.73-11.7-20.61-12.6
			c-0.91-16.58-1.83-33.17-2.74-49.75c9.22-1.72,17.94-2.13,22.37,8.6C615.09,279.34,637.65,295.92,659.04,313.47z"/>
		<path class="st14" d="M670.02,562.8c-9.05,1.35-17.29,0.8-21.51-9.17C664.81,535.27,667.26,549.4,670.02,562.8z"/>
		<path class="st7" d="M594.3,198.22c0.38,3.78,0.75,7.57,1.13,11.35C587.51,206.54,586.87,202.78,594.3,198.22z"/>
		<path class="st22" d="M326.97,398.95c-4.73,24.13-21.41,31.21-43.54,30.54c3.35-7.37,6.7-14.73,10.05-22.1l-0.01,0.02
			c7.91-10.95,15.71-22.26,31.26-10.53L326.97,398.95z"/>
		<path class="st22" d="M275.51,430.46c-2.7,12.89-10.01,19.92-23.79,18.74C251.74,432.91,259.86,426.9,275.51,430.46z"/>
		<path class="st21" d="M324.72,396.88c-12.1-1.49-20.81,7.11-31.26,10.53c3.38-34.08,5.36-35.43,31.35-21.3
			C324.79,389.7,324.75,393.29,324.72,396.88z"/>
		<path class="st23" d="M261.98,574.43c-0.89-9.2,1.18-16.99,10.2-21.48c12.55-26.21,33.78-43.71,59.25-55.68
			c18.12-8.52,36.92-11.27,49.56,10.44c2.87,20.24-16.53,17.42-25.91,24.99C319.03,535.42,296.95,569.31,261.98,574.43z"/>
		<path class="st6" d="M355.08,532.7c7.26-6.97,14.51-13.94,21.77-20.91c7.31-12.25,15.5-21.75,30.52-9.68
			c3.73,10.17,7.45,20.34,11.18,30.5C397.42,550.98,376.23,527.67,355.08,532.7z"/>
		<path class="st12" d="M471.61,583.35c-0.44,4.41-0.88,8.82-1.31,13.22c-19.96-1.46-30.29-12.11-30.72-32.21
			c0.13-3.71,0.25-7.41,0.38-11.12C453.62,560.01,463.94,570.29,471.61,583.35z"/>
		<path class="st18" d="M386.64,563.12c7.79,4.69,14.94,11.08,4.7,18.53c-9.13,6.64-18.95,4.38-24.58-7.02
			C373.38,570.79,380.01,566.95,386.64,563.12z"/>
		<path class="st25" d="M220.16,595.4c3.47-10.65,12.01-11.22,21.13-10.65C237.99,595.74,228.9,595.23,220.16,595.4z"/>
		<path class="st25" d="M241.13,584.87c3.17-11.13,11.86-11.23,20.97-10.51C258.7,585.02,249.92,584.96,241.13,584.87z"/>
		<path class="st12" d="M407.37,502.1c-12.13-2.96-20.25,6.77-30.52,9.68c-26.17-24.87-45.85-2.07-65.93,10.07
			c-14.05,8.5-21.66,25.8-38.74,31.09c0.01-7.45,0.03-14.91,0.04-22.36c30.3-36.33,69.56-60.09,112.07-78.96
			c8.79-3.9,14.95,6.2,22.91,8.26C419.09,473.91,417.43,487.99,407.37,502.1z"/>
		<path class="st1" d="M114.11,566.18c4.38-10.17-2.43-23.77,9.7-31.56c3.92,3.26,7.84,6.52,11.76,9.79
			c4.76,2.18,8.24,5.7,10.72,10.26l-0.31,0.65c1.48,6.39,2.97,12.79,4.45,19.18c-11.45,0-22.89-0.01-34.34-0.01
			C114.91,571.84,114.25,569.07,114.11,566.18z"/>
		<path class="st9" d="M481.28,752.02c-3.52-0.06-7.03-0.12-10.55-0.18c-5.44-3.99-5.51-8.07-0.21-12.24
			c3.68-6.37,7.37-12.73,11.05-19.1c6.86-10.22,13.72-20.44,20.58-30.66c29.14-2.4,30.5,17.12,30.08,38.08
			c-0.94,5.64-3.1,10.78-6.38,15.46C512.78,755.34,499.02,764.05,481.28,752.02z"/>
		<path class="st16" d="M471.1,604.47c16.23,7.53,29.22,19.16,40.92,32.42c6.73,5.52,16.12,9.32,13.46,20.9
			c-3.16,3.42-7.05,5.48-11.64,6.22c-4.62-0.48-8.63-2.27-11.93-5.59l0.32,0.09c-3.56-4.25-7.19-8.43-10.99-12.48
			C476.92,635.86,465.58,624.25,471.1,604.47z"/>
		<path class="st26" d="M501.91,658.42c2.92-0.08,5.85-0.11,8.77-0.11c3.38,2.17,7.01,3.81,10.9,4.91c3.66,1.99,6.61,4.71,8.97,8.14
			c3.41,5.3,6.19,10.91,8.56,16.76c0.65,2.06,1.19,4.12,1.81,6.2c0.7,4.38,0.44,8.69-0.58,12.97c-2.7,8.43,0.01,17.93-5.11,25.89
			c-4.44,2-8.51,1.52-12.13-1.83c1.06-17.9-0.65-34.39-20.95-41.5C502.07,679.37,501.99,668.89,501.91,658.42z"/>
		<path class="st9" d="M384.86,614.5c3.23-4.55,7.3-7.47,13.21-6.84C395.34,613.18,390.92,615.42,384.86,614.5z"/>
		<path class="st26" d="M491.24,646.03c3.66,4.16,7.33,8.32,10.99,12.48C495,657.49,491.94,652.8,491.24,646.03z"/>
		<path class="st24" d="M470.52,739.6c0.07,4.08,0.14,8.16,0.21,12.24c-9.74,0.45-18.12-1.63-22.2-11.81
			C455.86,739.88,463.19,739.74,470.52,739.6z"/>
		<path class="st5" d="M680.6,415.93c-3.98-13.07-7.97-26.14-11.95-39.21c-2.68-18.81,10.05-34.01,12.1-51.71
			c20.02,0.83,31.47,14.34,42.41,28.63c-31.39,10.01-37.89,32.73-31.61,61.96C687.9,415.71,684.25,415.82,680.6,415.93z"/>
		<path class="st6" d="M804.95,459.52c7.04-13.75,27.5-12.77,32.07-29.23c12.94-4.69,25.9-9.35,33.12-22.47
			c5.9,0.46,11.81,0.91,17.71,1.37c-3.46,8.34-6.93,16.69-10.39,25.03c-5.98,21.25-21.21,31.48-41.92,35.26
			C823.95,470.48,813.1,469.12,804.95,459.52z"/>
		<path class="st21" d="M806.62,429.56c-5.62,8.35-13.65,9.11-22.54,7.18C789.63,428.19,797.9,428.16,806.62,429.56z"/>
		<path class="st5" d="M722.37,436.22c-6.13,0.87-9.68-2.11-11.49-7.69C714.71,431.09,718.54,433.65,722.37,436.22z"/>
		<path class="st7" d="M679.01,263.42c-1.76,10.16,6.47,26.36-13.38,25.71c-4.88-0.16-13.36-8.4-13.54-13.18
			c-0.76-19.71,15.65-11.54,25.68-13.74L679.01,263.42z"/>
		<path class="st24" d="M804.95,459.52c10.39,0,20.78,0,31.17-0.01c19.13,14.4,5.07,35.56,10.74,52.7
			c-0.02,6.64-0.04,13.29-0.06,19.93c-7.41,0.62-14.82,1.23-22.23,1.85c-2.49-4.76-5.46-4.84-8.85-0.92l-5.13-0.01l-5.13,0.18
			c-12.29,1.2-23.57-0.26-31.05-11.76c-0.17-3.58-0.35-7.15-0.52-10.73c-13.06-31.47,19.26-35.22,31.34-51.32L804.95,459.52z"/>
		<path class="st22" d="M846.86,512.21c-18.24-14.58-8.44-34.87-10.74-52.7c13.78-8.43,27.55-16.86,41.33-25.29
			C885.33,467.31,871.14,491.74,846.86,512.21z"/>
		<path class="st2" d="M836.35,616.21c13.91-0.54,30.7,3.72,31.46-18.81c2.74-4.91,6.31-9.07,11.06-12.15
			c2.79-0.35,5.57-0.71,8.36-1.08c7.47,0.23,14.93,0.46,22.4,0.69c-0.01,10.49-0.02,20.98-0.02,31.47
			c-14.37-0.42-24.99,5.3-30.82,18.84c-21.3,3.94-44.34-0.11-63.47,13.81c-29.36,19.31-59.72,17.08-90.59,4.27
			c-8.48-6.59-9.75-15.2-6.9-24.92c18.32-21.15,43.32-16.23,66.85-17.06C801.86,613.28,819.89,606.58,836.35,616.21z"/>
		<path class="st22" d="M774.41,521.49c11.31,1.39,24.28-1.62,31.05,11.76c-4.47,18.76,9.73,33.69,10.51,51.37
			c-25.48,3.14-32.82-23.99-52.08-31.23C764.3,541.73,760.53,528.7,774.41,521.49z"/>
		<path class="st22" d="M878.87,585.24c-3.69,4.05-7.37,8.1-11.06,12.15c-0.05-3.5-0.66-6.91-1.82-10.22
			C870.28,586.54,874.58,585.89,878.87,585.24z"/>
		<path class="st22" d="M827.66,587.06c-5.46,6.9-9.49,6.78-11.66-2.38C819.89,585.47,823.77,586.26,827.66,587.06z"/>
		<path class="st22" d="M815.71,533.07c1.69-2.14,3.38-4.28,5.07-6.42c1.26,2.45,2.52,4.89,3.78,7.34
			C821.58,534.05,818.63,533.75,815.71,533.07z"/>
		<path class="st17" d="M796.44,888.17c-0.48-25.13-4.78-49.66-11.73-73.76c-1.64-7.8-2.4-16.22-12.67-18.07
			c-4.58-7.1-1.52-16.56-7.4-23.18c-0.49-10.37-0.97-20.75-1.46-31.12c-3.76-9.86,2.41-13.09,10.16-15.24
			c22.63,40.29,33.84-18.71,53.29-6.16c34.39,14.39,31.14,51.2,38.27,77.09c8.82,32.03-4.5,67.85-22.44,98.23
			c-8.46,14.33-22.68,13.92-36.99,10.63C798.85,902.21,795.96,896.01,796.44,888.17z"/>
		<path class="st14" d="M722.81,645.96c30.84,1.01,61.68,2.01,92.51,3.02c0.07,6.32,0.14,12.64,0.21,18.95
			c-7.37,22.23-27.12,30.26-45.57,39.9c-35.61,6.16-64.4-4.26-84.76-35.06c-1.11-5.63-0.58-11.1,1.52-16.44
			C696.05,643.52,707.4,637.67,722.81,645.96z"/>
		<path class="st2" d="M772.65,698.64c8.86-17.83,28.09-21.17,42.87-30.71c22.37,13.63,5.23,35.59,11.1,52.7
			c-3.6,3.23-8.04,5.89-10.64,9.79c-8.07,12.13-9.07,34.69-24.19,34.83c-15.72,0.15,1.06-28.55-17.62-34.17
			C764.62,720.7,765.8,709.81,772.65,698.64z"/>
		<path class="st12" d="M796.44,888.17c8.29,3.55,8.92,10.85,9.02,18.41c-0.4,7.95-0.79,15.9-1.19,23.85
			c-3.27-0.66-6.57-0.95-9.91-0.86C779.87,915.01,777.79,901.07,796.44,888.17z"/>
		<path class="st19" d="M772.65,698.64c0.51,10.82,1.02,21.63,1.53,32.45c-5.75,1.56-9.34,5.29-11.01,10.95
			c-15.53-10.06-30.19-20.57-49.1-25.54c-43.8-11.51-49.9-8.28-79.96,27.64c-11.48,13.72-18.54,33.3-37.83,40.15
			c-15.47-13.98-3.2-34.1-11.1-49.62c-1.86-3.2-3.69-6.53-5.66-9.61c-2.27-2.51-4.84-4.79-7.87-6.42c-3.24-0.9-6.49-1.69-9.86-2.1
			c-3.43-0.72-6.32-2.4-8.69-4.96c-2.69-0.1-5.36,0.09-8.01,0.58c-4.02-3.68-5.95-8.24-5.8-13.68c0.22-5.22,0.97-10.37,2.1-15.48
			c17.96-32.2,49.41-32.91,80.46-34.52c21.89,6.45,38.18,32.03,65.8,19.47C712.4,688.12,738.87,703.51,772.65,698.64z"/>
		<path class="st25" d="M585.76,720.7c15.96,6.72,24.24,15.75,15.01,34.53c-4.12,8.39-3.15,19.29-4.49,29.06
			c-2.55,41.3-26.19,66.71-62.28,82.75c-4.38-1.93-7.34-5.21-9.05-9.64c1.37-9.79,7.46-16.39,14.91-22.08
			c6.22-1.68,10.82-5.55,14.5-10.68l-0.41,0.37C574.29,793.21,562.07,751.48,585.76,720.7z"/>
		<path class="st11" d="M659.03,897.96c-0.38,4.11-0.76,8.22-1.14,12.33c-9.38-2.48-17.55-2.28-20.57,9.3
			c-20.03-3.25-39.85-1.76-59.53,2.75c-5.71-2.62-11.42-5.23-17.13-7.85c7.93-5.69,15.86-11.37,23.8-17.06
			c4.36-3.71,8.59-3.57,12.68,0.44C617.77,897.9,638.4,897.93,659.03,897.96z"/>
		<path class="st17" d="M586.13,887.65c-4.96-25.07,6.73-56.92,23.38-61.28c3.99-1.05,11.06,1.35,13.36,4.57
			c2.17,3.03,1.73,10.64-0.71,13.78c-11.55,14.88-24.17,28.93-36.41,43.27L586.13,887.65z"/>
		<path class="st11" d="M703.23,762.79c9.9-0.74,16.04,4.02,18.06,13.46c1.02,4.76-0.04,11.61-5.09,11.83
			c-9.6,0.42-13.75-8.9-18.65-15.33C693.56,767.52,697.99,764.29,703.23,762.79z"/>
		<path class="st16" d="M774.04,794.46c20.51-2.42,15.94,8.58,10.66,19.95c-7.02,0.18-14.04,0.36-21.06,0.54l-0.42-0.38
			c-0.23-3.23-0.29-6.47-0.19-9.71C766.99,801.69,767.7,795.1,774.04,794.46z"/>
		<path class="st7" d="M666.24,760.36c-1.15,2.77-1.58,6.97-3.64,8.05c-4.63,2.42-9.48,0.62-10.81-4.66
			c-0.59-2.33,1.3-6.87,3.36-7.98C659.8,753.28,663.96,755.32,666.24,760.36z"/>
		<path class="st19" d="M774.04,794.46c-3.67,3.46-7.34,6.93-11.01,10.39c0.53-10.56,1.07-21.13,1.6-31.69
			C773.93,777.54,773.69,786.13,774.04,794.46z"/>
		<path class="st7" d="M763.5,825.18c8.65,4.13,11.43,11.19,9.08,20.05c-0.44,1.66-3.96,2.51-6.06,3.73
			c-1.03-7.9-2.07-15.81-3.1-23.71L763.5,825.18z"/>
		<path class="st12" d="M524.95,857.39c5.26,1.11,7.96,4.62,9.05,9.64c-1.94,5.48-5.69,8.92-11.42,10.14
			C523.37,870.58,524.16,863.99,524.95,857.39z"/>
		<path class="st19" d="M523.02,918.87c1.98-1.66,3.97-3.33,5.95-4.99c-1.76,1.88-3.53,3.76-5.29,5.64L523.02,918.87z"/>
		<path class="st17" d="M597.15,897.87c-4.23-0.15-8.46-0.29-12.68-0.44c1.2-3.15,1.76-6.4,1.66-9.77l-0.38,0.34
			C589.55,891.28,593.35,894.57,597.15,897.87z"/>
		<path class="st12" d="M510.1,887.57c2.75-5.48,5.47-11,12.97-10.78C521.46,883.64,516.94,887,510.1,887.57z"/>
		<path class="st16" d="M763.43,825.25c-9.01-3.39-9.65-6.94-0.2-10.68l0.42,0.38c-0.09,3.41-0.13,6.82-0.14,10.23L763.43,825.25z"
			/>
		<path class="st7" d="M481.28,752.02c14.04-3.42,28.07-6.83,42.11-10.25c1.58,1.69,3.17,3.38,4.76,5.06
			c0.08,9.16,1.74,18.6-4.51,26.69l0.28-0.17c-3.61,3.42-7.17,3.21-10.69-0.14C497.55,773.73,487.16,766.28,481.28,752.02z"/>
		<path class="st2" d="M513.23,773.22c3.56,0.05,7.13,0.09,10.69,0.14c1.56,3.44,1.13,6.61-1.3,9.51
			C517.22,781.86,513.98,778.75,513.23,773.22z"/>
		<path class="st17" d="M585.76,720.7c3.01,38.92-1.1,75.67-31.82,104.3c-4.26-10.43-0.45-20.6,1.02-30.85
			c13.75-26.71-3.81-57.24,10.23-83.91l-0.25,0.19c12.39-7.2,15.04,5.05,21.08,10.55L585.76,720.7z"/>
		<path class="st25" d="M565.18,710.24c-4.68,27.81,10.77,58.08-10.23,83.91c-0.62-27.52-1.23-55.05-1.85-82.57
			C557.13,711.14,561.16,710.69,565.18,710.24z"/>
		<path class="st11" d="M544.01,699.67c0.36,4.16,0.72,8.33,1.08,12.49c-0.79,6.23-1.58,12.46-2.37,18.69
			c-3.05,3.55-6.26,3.68-9.6,0.41c0.39-10.56,0.78-21.12,1.17-31.67C537.57,695.08,540.81,695.1,544.01,699.67z"/>
		<path class="st7" d="M533.12,731.27c3.22,0.23,6.42,0.09,9.6-0.41c1.4,8.73,1.27,16.92-7.66,22.05c-6.57-0.4-7.25-7.07-11.05-10.4
			l-0.61-0.73c-0.2-3.47-0.3-6.95-0.29-10.42C526.44,731.22,529.78,731.19,533.12,731.27z"/>
		<path class="st2" d="M524,742.5c6.22,0.77,9.05,5.15,11.05,10.4c-2.57,7.56,1.06,18.55-11.41,20.63
			C523.76,763.18,523.88,752.84,524,742.5z"/>
		<path class="st17" d="M554.35,824.63c-1.95,7.48-7.28,10.36-14.5,10.68C543.42,830.03,546.15,823.62,554.35,824.63z"/>
		<path class="st23" d="M146.29,554.67c-3.57-3.42-7.15-6.84-10.72-10.26C142.14,544.69,145.76,548.07,146.29,554.67z"/>
		<path class="st26" d="M625.79,657.59c-29.92,3.32-58.71,9.51-81.34,31.59c-3.61,4.46-7.25,4.29-10.93,0.08l0.36,0.43
			c-6.07-5.89-4.34-15.7-10.78-21.4l0.05,0.09c-2.73-2.68-3.54-5.24-2.43-7.69c1.09-2.38,2.13-3.58,3.12-3.58
			c-3.94-6.75-7.88-13.49-11.83-20.24c28.66,2.83,55.17,0.91,73.99-25.9c15.87-22.62,40.63-14.34,62.52-15.33
			c44.16,17.53,90.47,6.9,135.7,10.41c3.5,2.25,4.68,4.52,3.54,6.81c-1.14,2.29-2.29,3.45-3.46,3.45
			c-21.75-2.23-41.42,6.9-61.96,11.3c-17.41,13.66-38.37,12.39-58.58,14.11C648.95,641.77,637.71,650.5,625.79,657.59z"/>
		<path class="st7" d="M784.31,616.32c0.04-3.42,0.02-6.84-0.08-10.26c17.38,3.33,37.71-8.43,52.12,10.15
			C819.01,616.25,801.66,616.28,784.31,616.32z"/>
		<path class="st2" d="M805.23,459.44c-3.96,21.07-29.57,28.92-31.34,51.32c-6.67-0.08-13.34-0.17-20.02-0.25
			c-9.51-9.7-12.06-22.29-14.5-34.93c8.75-14.82,20.88-11.85,33.5-6.39C783.66,465.93,794.44,462.69,805.23,459.44z"/>
		<path class="st26" d="M772.87,469.18c-10.81,2.5-24.35-2.66-31.14,11.11c-3.94,4.28-7.11,3.77-9.52-1.52
			c0.23-2.9,0.17-5.79-0.19-8.68C745.31,454.81,758.91,453.88,772.87,469.18z"/>
		<path class="st24" d="M732.21,478.77c3.07,1.17,6.24,1.68,9.52,1.52c14.56,5.85,10.45,19.2,12.14,30.21
			C736.95,506.55,731.59,494.71,732.21,478.77z"/>
		<path class="st24" d="M523.85,657.12c-0.23,3.76-0.46,7.51-0.69,11.26c-6.9,0.03-9.75-4.95-12.47-10.08
			C515.07,657.91,519.46,657.52,523.85,657.12z"/>
		<path class="st2" d="M523.1,668.3c11.62,3.09,12.81,11.43,10.78,21.4C522.44,686.52,522.25,677.67,523.1,668.3z"/>
		<path class="st2" d="M533.52,689.26c3.64-0.03,7.29-0.06,10.93-0.08c-0.14,3.5-0.29,6.99-0.43,10.49l-4.86,0.1l-4.86-0.18
			C533.31,696.2,533.05,692.76,533.52,689.26z"/>
		<path class="st19" d="M649.06,626.27c24.43,0.45,48.86,0.9,73.3,1.35c0.15,6.12,0.3,12.23,0.45,18.35
			c-12.32,4.19-24.64,8.38-36.96,12.57C645.69,669.82,640.17,664.97,649.06,626.27z"/>
		<path class="st6" d="M649.06,626.27c-5.05,30.5,13.4,34.2,36.79,32.27c2,2.87,2.6,6.01,1.8,9.42
			c-35.28,28.01-35.28,28.01-61.86-10.37C626.74,642.09,632.73,630.33,649.06,626.27z"/>
		<path class="st25" d="M586.01,720.98c-7.03-3.52-14.05-7.03-21.08-10.55C583.85,690.19,583.54,708.35,586.01,720.98z"/>
	</g>
</g>
</svg>
