<?xml version="1.0" encoding="utf-8"?>
<!-- Generator: Adobe Illustrator 23.1.0, SVG Export Plug-In . SVG Version: 6.00 Build 0)  -->
<svg version="1.1" id="Calque_1" xmlns="http://www.w3.org/2000/svg" xmlns:xlink="http://www.w3.org/1999/xlink" x="0px" y="0px"
	 viewBox="0 0 1125 1198.08" style="enable-background:new 0 0 1125 1198.08;" xml:space="preserve">
<style type="text/css">
	.st0{fill:#F9FBFB;}
	.st1{fill:#A0AFB7;}
	.st2{fill:#C1CDD2;}
	.st3{fill:#BAD8E8;}
	.st4{fill:#FA72AE;}
	.st5{fill:#CBD8DD;}
	.st6{fill:#AE3966;}
	.st7{fill:#ABC1CC;}
	.st8{fill:#F1F8F9;}
	.st9{fill:#E0EEF3;}
	.st10{fill:#D9E6EB;}
	.st11{fill:#B0CAD8;}
	.st12{fill:#E8F5F7;}
	.st13{fill:#CAA32F;}
	.st14{fill:#F1CB45;}
	.st15{fill:#E0598D;}
	.st16{fill:#81244A;}
	.st17{fill:#CFDCE1;}
	.st18{fill:#A3B8C3;}
	.st19{fill:#F0FBFD;}
	.st20{fill:#212121;}
	.st21{fill:#474646;}
	.st22{fill:#787C8B;}
	.st23{fill:#B3BFC5;}
	.st24{fill:#8F9BA6;}
	.st25{fill:#FE60A2;}
	.st26{fill:#F74C8D;}
	.st27{fill:#5B0101;}
	.st28{fill:#410708;}
	.st29{fill:#FDFDFD;}
</style>
<g>
	<g>
		<path class="st0" d="M220.99,294.37c24.98-37.93,60.05-61.47,103.78-72.63c50.38-7.04,98.35-22.49,145.3-41.5
			c6.92,0,13.84,0,20.76,0c18.75,15.15,42,13.72,63.87,17.18c41.36,6.55,81.13,17.87,115.97,41.83
			c76.99,52.96,71.73,161.74-11.74,201.88c-46.95,22.58-77.32,70.51-130.93,81.45c-75.43,4.77-151.31,15.83-223.92-17.18
			c-22.33-10.15-43.66-20.92-54.24-44.88c-2.08-5.14-2.73-10.57-2.05-16.08c6.79-16.66,25.21-15.39,37.17-24.09
			c25.49-15.52,28-47.57,48.09-66.97c11.97-7.89,26.91-10.55,37.29-21.26c15.24-4.23,22.2,4.94,26.45,17.11
			c8.78,25.16,31.31,28.95,52.68,34.76c15.8,5.44,36.53,4.64,37.14,29.3c0.85,16.76-25.07,34.03-2.21,49.35
			c14.05,9.42,23.73-6.18,32.7-15.77c16.07-14.9,11.03-36.98,18.47-54.74c3.19-6.96,10.1-10.37,14.84-15.32
			c-0.38,0.23,3.09-0.04,3.09-0.04s-2.47-2.44-2.63-2.29c-4.85,4.89-10.74,7.83-16.61,11.12c-6.39,2.64-12.93,3.88-19.68,4.51
			c-19.69,2.05-38.87-1.57-58.05-4.72c-26.87-6.66-52.2-14.38-62.83-45.08c-5.04-14.54-16.81-15.28-28.02-4.06
			c-10.96,8.55-25.36,9.71-36.85,17.14c-7.96,4.77-16.59,7.86-25.4,10.61c-19.09,5.34-37.15,2.07-54.6-6.54
			c-4.28-2.07-8.24-4.65-12.01-7.55c-5.53-4.62-10.1-10.05-13.76-16.25C217.47,320.84,208.48,308.14,220.99,294.37z"/>
		<path class="st1" d="M1061.65,730.13c1.67,16.1-4.37,27.06-20.76,31.13c-46.46,40.19-115.76,53.03-141.44,118.16
			c-6.99,8.38-15.8,14.06-25.88,17.99c-74.47,47.18-155.31,81.65-236.78,113.6c-99.16,38.88-199.52,80.75-309.01,35.74
			c-4.42-3.26-6.63-7.73-6.62-13.22c10.45-26.24,34.21-24.2,55.98-25.71c22.15-1.53,44.18,3.91,66.3,2.35
			c16.7-1.18,33.72-2.27,48.53-11.79c-12.45-11.05-28.09-4.72-42.08-7.49c-20.74-4.12-38.93-11.96-52.99-28.25
			c-6.12-10.42-2.96-20.18,1.98-29.83c2.82-4.62,6.73-8.05,11.61-10.36c58.48,14.32,110.79-14.38,163.59-28.76
			c64.05-17.44,126.02-44.44,183.79-80.03c54.28-33.44,121.81-34.44,177.48-66.9c23.71-13.82,50.24-22.73,66.1-47.16
			c22.4-20.37,50.15-35.84,61.26-66.67c11.59-19.76,27.31-34,50.82-37.68c9.79-0.75,11.1,5.99,10.25,12.93
			c-3.6,29.35-8.2,58.44-31,80.44C1078.85,699.8,1070.46,715.12,1061.65,730.13z"/>
		<path class="st2" d="M1072.02,636.75c4.68,19.25-11.3,27.04-21.83,36.79c-11.66,10.8-18.87,30.01-40.44,25.46
			c-25.77,29.41-57.54,47.48-96.07,56.11c-18.43,4.13-34.39,5.29-47.78-8.25c-20.14-20.36-37.52-15.89-58.55,0.01
			c-67.56,51.06-143.6,88.24-218.68,126.29c-40.93,20.74-88.34,26.48-130.04,47.42c-11.8,5.93-27.54,7.15-34.42-10.88
			c2.67-27.37,31.36-31.36,44.41-49.46c8.99-5.31,18.89-7.92,29-9.86c92.4-88.47,214.26-130.75,317.78-202.13
			c53.52-36.91,90.13-76.8,88.44-145.15c-0.47-19.14-10.19-46.58,22.87-53.1c16.85,10.53,15.88,28.77,21.88,44.83
			c12.27,32.85,21.23,65.32,19.63,100.42c0.44,30.84-33.61,30.57-45.6,50.42c-6.29,10.42-15.67,20.87-9.48,32.88
			c7.99,15.5,21.55,5.45,31.93,2.1c29.53-9.53,58.22-21.22,85.28-36.8C1043.03,636.56,1055.47,623.2,1072.02,636.75z"/>
		<path class="st3" d="M978.62,958.39c-1.39,6.36,4,17-3.75,18.58c-20.56,4.19-31.19,20.36-42.63,33.93
			c-17.77,21.07-40.71,36.6-62.85,49.41c-43.92,25.4-90.94,47.23-139.17,62.83c-40,12.94-81.92,24.08-125.5,22.23
			c-27.54-1.17-55.17-0.22-82.76-0.22c-14.93-34.06,14.57-42.16,33.73-51.22c53.85-25.46,106.68-53.28,162.35-74.81
			c31.89-12.34,62.93-26.25,89.76-48.08c11.33-7.93,23.79-12.96,37.52-14.77c31.52-3.95,65.03,4.28,94-15.54
			C955.8,939.08,975.13,931.24,978.62,958.39z"/>
		<path class="st4" d="M106.83,948.01c0-3.46,0-6.92,0-10.38c9.86-12.66,18.95-25.78,24.46-41.08c9.59-15.04,21.75-26.71,39.9-30.57
			c9.89-1.44,19.4-0.48,28.11,4.76c5.05,4.61,7.42,10.43,7.35,17.01c-2.14,2.58-2.14,6.53,0.59,6.85c3.45,0.4,5.45-4.65,9.46-5.57
			c4.74-1.18,9.34-1.46,14.15-1c31.95,10.61,34.84,33.08,23.81,60.11c-7.56,18.55-19.24,35.29-24.78,54.84
			c-9.72,18.26-21.84,35.03-34.09,51.51c-40.31,54.21-79.94,53.22-123-2.17c-2.12-10.83-4.96-21.74,2.9-31.67c0-3.46,0-6.92,0-10.38
			c6.68-5.31,4-15.29,10.38-20.75c0-3.46,0-6.92,0-10.38c3.9-3.02,6.65-7.19,10.38-10.38c0-3.46,0-6.92,0-10.38
			C100.35,955.37,103.09,951.2,106.83,948.01z"/>
		<path class="st5" d="M926.72,450c-6.54-1.18-9.99,2.82-10.18,8.18c-0.55,15.49-0.58,31.02-0.11,46.52
			c0.81,26.7,3.69,54.58-13.28,77.12c-22.42,29.78-42.83,59.96-80.59,77.08c-43.73,19.82-83.88,48.5-123.35,76.48
			c-34.44,24.41-77.21,34.44-107.86,64.91c-2.81,2.8-9.48,2.49-14.33,2.35c-26.4-0.77-39.91,13.52-44.61,37.87
			c-3.37,17.48-12.73,26.61-31.21,24.5c-19.69-73.15,13.94-130.37,83.53-137.83c44.62-4.78,81.49-26.04,118.01-48.43
			c36.61-22.44,72.83-45.52,109.96-67.1c69.46-40.37,86.46-90.1,57.52-169.19c-3.03-8-3.45-16.14-1.47-24.44
			c7.87-15.07,14.51-32.54,37.2-19.9C911.16,416.11,928.48,429.24,926.72,450z"/>
		<path class="st6" d="M220.99,1176.27c-31.35,37.42-67.61,17.67-101.45,6.75c-30.1-9.71-50.94-47.94-54.23-89.75
			c7.08-6.92,16.09-7.82,23.37-2.78c53.3,36.86,91.64,10.64,129.83-27.39c23.64-23.53,35.11-54.32,55.06-79.69
			c8.48-9.69,17.2-19.26,22.57-31.26c1.97-3.72,4.39-7.14,7.04-10.38c5.28-6.34,9.78-13.21,13.59-20.56
			c1.95-3.68,4.31-7.07,6.86-10.33c5.29-6.49,8.95-13.82,11.2-21.91c1.81-6.34,4.31-12.35,7.71-17.98
			c12.69-13.9,7.34-29.36,3.78-44.7c-1.88-13.41-1.22-26.21,8.41-36.97c20.4-11.07,37.93-4.77,54.27,8.89
			c5.38,6.75,7.61,14.57,7.73,23.06c-10.06,37.66-21.86,74.73-41.65,108.72c-25.15,26.27-42.85,57.53-59.06,89.71
			c-23.88,47.39-46.19,95.84-89.46,129.76C216.67,1157.19,215.54,1165.81,220.99,1176.27z"/>
		<path class="st7" d="M843.7,968.76c-13.22-5.08-20.1,8.88-31.14,10.38c-104.32,41.06-202.93,95.67-310.6,128.98
			c-63.91,19.78-122.86,5.72-181.31-19.05c-12.26-5.2-17.27-16.27-20.7-28.23c-3.05-11.94,1.37-21.3,10.18-29.1
			c4.7-3.66,9.58-3.91,14.65-0.73c0,3.46,0,6.92,0,10.38c107.9,57.3,206.16,7.73,304.99-28.74c35.2-12.99,68.01-32.74,103.49-45.06
			c52.72-18.32,98.48-47.49,141.58-81.83c6.92-3.46,13.84-6.92,20.76-10.38c13.02-12.87,28.19-19.44,46.76-16.11
			c15.49,4.75,15.25,26.86,32.68,29.46c18.3,4.11,38.92-8.97,55.49,7.41c-1.31,6.3,3.21,13.68-3.44,18.99
			c-16.95,13.53-27.42,34.31-48.45,43.26c0.64-8.99-5.12-10.42-12.2-10.39c-9.77,0.04-19.54,0.01-29.31,0.01
			C904.15,946.74,867.41,928.44,843.7,968.76z"/>
		<path class="st8" d="M532.34,512.25c10.32-17.92,35.71-10.17,47.27-30.13c9.57-16.53,26.53-28.8,45.47-38.01
			c11.6-5.64,20.68-13.1,34.91-16.42c19.18-4.48,37.01-17.47,44.52-40.31c8.87-26.99,6.48-54.81,2.76-80.68
			c-3.58-24.91-19.58-45.19-47.23-57.66c-31.26-14.09-80.5-39-108.45-36.89c-21.33,1.61-36.79-13.56-57.15-13.58
			c-6.98-0.01-2.23-11.98-3.62-18.34c31.14,0,62.27,0,93.41,0c3.99-5.23,9.43-6.94,15.77-6.57c4.01,0.55,7.89,1.59,11.72,2.84
			c7.87,2.26,15.97,3.1,24.12,3.9c10.83,2.04,21.67,4.1,23.71,17.77c-3.26,5.36-6.68,10.02-12.66,2.67
			c5.43,11.57,14.25,0.76,21.13,3.15c4.56,0.66,8.79,2.14,12.77,4.45c26.34,22.82,53.07,45.21,76.22,71.49
			c6.42,8.1,11.08,16.99,12.63,27.35c0.93,8.07,0.21,16-1.61,23.87c-11.55,66.99-35.8,123.81-107.44,148.54
			c-22.21,7.67-35.79,32.16-57.04,42.78C578.89,534.81,551.01,549.98,532.34,512.25z"/>
		<path class="st9" d="M760.67,304.75c-3.46-6.92-6.92-13.83-10.38-20.75c-5.67-43.86,23.61-18.4,39.36-19.89
			c4.78,2.35,8.95,5.55,12.53,9.51c6.98,14.94,12.35,30.68,30.83,36.74c4.69,1.54,11.93,6.73,10.69,15.13
			c-1.18,36.59,17.22,68.97,22.15,104.66c6.94,50.17-9.35,86.85-49.02,115.54c-44.48,32.17-92.48,58.91-138.12,89.35
			c-38.56,25.72-54.97,18.47-107.4-35.71c-2.71-4.34-4.39-9.11-5.27-14.14c0.79-27.95,17.63-27.49,39.15-24.11
			c57.98,9.09,182.89-54.66,201.55-108.02C826.99,395.18,800.06,346.81,760.67,304.75z"/>
		<path class="st2" d="M54.93,636.75c-1.74-9.68,4.46-20.84-3.46-29.14C30.83,585.97,34.12,559.2,34.18,533
			c-2.42-2.79-3.34-5.67-2.77-8.64c0.58-3.01,1.25-4.52,1.94-4.53c34.21-13.08,34.61-56.68,65.58-72.75
			c23.86,9.47,25.05,34.9,37.24,52.64c3.93,17.2,10.92,33.12,20.25,48.11c6.2,18.2,6.57,36.29-0.85,54.23
			c-49.65,30.65-42.68,77.27-34.74,124.1c0.9,15.09,6.33,29.18,9.89,43.69c1.69,19.22,25.94,37.02,3.77,57.78
			c-46.65-2.3-55.4-40.66-67.33-73.62C53.53,716.42,53.38,676.45,54.93,636.75z"/>
		<path class="st10" d="M573.86,595.25c18.42-2.16,24.88,8.39,31.94,23.99c8.66,19.14,45.98,26.66,60.81,12.09
			c36.67-36.03,84.08-54.93,125.52-83.17c7.99-5.45,15.28-11.39,24.02-16.29c32.19-18.06,49.07-66.25,37.5-102.9
			c-9.08-28.77-9.39-59.76-27.87-86.53c-12.01-17.39,6.45-16.68,17.93-16.94c7.18-0.26,10.64,3.19,10.38,10.38
			c13.1,26.12,24.79,52.6,20.76,83c0,6.92,0,13.83,0,20.75c21.96,63.22,12.83,103.35-37.4,140.09
			c-53.99,39.48-112.05,73.14-169.3,107.67c-41.29,24.91-71.79,5.07-101.76-60.63C564.07,615.12,564.54,604.12,573.86,595.25z"/>
		<path class="st11" d="M304.02,1051.76c21.83,1.81,1.08,26.48,16.32,30.87c11.05,3.19,23.04-2.99,34.53,4.06
			c36.33,22.3,77.15,16.41,116.86,16.88c5,0.06,10.7,0.75,14.92-1.27c77.55-37.06,163.29-54.11,237.48-100.38
			c24.97-15.57,55.92-27.06,88.43-22.79c-18.82,32.03-54.92,36.59-84.16,51.21c-28.39,14.19-58.76,22.98-87.11,39.4
			c-30.89,17.89-67.02,28.51-100.08,44.21c-13.33,6.33-21.69,15.32-19.24,31.18c-55.25,8.68-106.43-14.08-159.5-21.8
			c-17.54-2.55-33.79-16.66-49.62-27.02c-6.76-4.42-12.92-1.75-19.22-3.05C281.47,1075.53,292.58,1063.61,304.02,1051.76z"/>
		<path class="st12" d="M1072.02,636.75c-5.14,0-12.86-2.21-15.04,0.33c-38.37,44.61-98.14,45.42-145.52,71.4
			c-8.13,4.46-14.74,0.43-16.22-11.51c-4.97-40.17,10-66.42,47.49-83.59c7.33-3.36,25.61-1,25.5-18.13
			c25.22,1.88,48.97-7.35,71.09-15.8c19.18-7.33,36.78-3.4,54.84-4.16c9.28-0.39,17.41,8.83,19.37,19.96
			c-1.41,11.03-9.56,18.02-18.41,20.18C1082.49,618.51,1075.3,624.83,1072.02,636.75z"/>
		<path class="st9" d="M127.58,501.88c-12.62-10.97-17.29-21.42-20.91-44.41c-0.77-4.92-4.15-8.63-10.22-7.46
			c-9.09-10.38-8.17-20.75,0-31.13c6.25-1.25,17.48,3.39,18.08-3.34c1.74-19.58,24.37-25.62,26.11-45.2
			c0.6-6.73,11.83-2.09,18.08-3.34c14.45-3.84,14.96,6.22,15.89,15.9c-1.04,4.66-2.99,8.92-5.69,12.82
			c-29.05,38.1,11.13,44.39,28.31,61.19c29.89,33.34,73.16,44.11,110.11,65.49c19.24,11.13,41.92,20.15,34.18,49.91
			c-3.02,7.51-8.18,13.18-14.97,17.46c-9.64,4.69-19.64,5.05-29.86,2.39c-15.37-6.24-29.45-15.28-44.97-21.3
			c-13.45-8.31-27.47-15.15-43.63-16.36c-11.35-2.01-21.53-6.49-30.09-14.29c-8.57-9.94-19.39-16.35-32.01-19.96
			C137.11,516.84,133.31,508.41,127.58,501.88z"/>
		<path class="st13" d="M802.18,273.62c-3.46,0-6.92,0-10.38,0c-41.19-15-80.44-33.57-114.16-62.25c-3.46,0-6.92,0-10.38,0
			c-3.01-3.91-9.77-4.06-10.38-10.38c-4.87-19.99-20.92-6.42-31.14-10.38c-5.38-6.54-15.13-4.33-20.76-10.38
			c16.35-40.63,42.78-14.72,66.25-10.33c14.92,2.79,43.92,31.68,33.27-17.83c-2.35-10.93,5.63-27.38,25.02-23.71
			c7.18-0.26,10.64,3.19,10.38,10.38c13.84,8.22,27.68,8.22,41.51,0c9.26-16.95,28.83-14.48,43.04-19.09
			c10.26-3.33,18.72-11.02,29.61-12.04c4.43,25.34-18.21,46.81-10.38,72.63c6.21,13.6-5.45,21.24-10.38,31.13
			C824.54,232.92,817.16,255.17,802.18,273.62z"/>
		<path class="st14" d="M729.53,128.37c-15.97-1.06-7.48,15.49-15.49,21.4c-11.85,8.74-4.12,17.77,4.22,24.02
			c6.2,4.65,15.74,5.81,20.28,11.39c3.38,4.15,3.12,13.62,0.96,19.41c-4.49,12.02-8.43-0.04-13.03-1.14
			c-15.41-3.69-27.78-17.63-45.72-12.96c-10.13,2.64-13.89-7.36-20.49-11.88c-18.91-12.93-31.83-12.31-55.25,1.64
			c-6.92,0-13.84,0-20.76,0c-1.34-33.29-0.76-66.08,17.75-95.88c5.46-8.79,6.62-19.76-1.64-27.59c-7.62-7.23-5.62-15.46-5.56-23.57
			c0.04-5.59,3.43-8.55,9.75-8.78c6.27-0.23,10.4,2.64,10.59,7.9c0.64,17.17-0.11,34.4,0.48,51.58c0.15,4.5,2.05,10.96,5.27,12.77
			c3.39,1.91,9.41,2.02,13.83-2.89c9.2-10.21,18.98-19.95,29.11-29.25c15.34-14.07,29.41-27.84,24.66-52.03
			c-1.82-9.28,7.99-9.87,14.42-8.3c5.19,1.27,8.59,9.15,5.56,12.02c-22.04,20.86-2.82,39.16,3.31,57.62
			C717.77,91.99,728.4,108.6,729.53,128.37z"/>
		<path class="st15" d="M283.26,979.14c3.55,13.96-10.88,20.57-13.33,30.15c-9.91,38.68-42.73,58.02-65.7,85.67
			c-15.97,19.23-38.66,23.44-59.88,28.54c-17.21,4.14-37.11,4.22-49.42-15.73c-6.27-10.16-15.66-18.05-29.62-14.5
			c0-13.83,0-27.67,0-41.5c3.46-5.01,6.92-5.01,10.38,0c7.36,1.41,17.47-4.58,20.76,7.74c3.64,13.65,10.01,24.04,26.46,23.43
			c16.38-0.61,33.25,3.13,45.33-14.15c8.28-11.85,21.72-19.72,24.91-35.64c3.14-15.71,21.11-19.97,27.84-33.26
			c8.44-14.43,21.65-21.93,37.38-25.86c6.68-1.85,13.32-1.95,19.89,0.55C279.93,976.08,281.6,977.61,283.26,979.14z"/>
		<path class="st1" d="M58.43,605.62c10.27-0.81,6.84,37.49,6.87,44.53c0.06,17.28,0.95,34.63-0.26,51.82
			c-1.1,15.65,10.7,26.3,12.24,42.23c3.02,31.12,24.85,55.78,45.51,78.96c2.3,2.58,9.98,0.35,15.17,0.35
			c15.87,4.87,21.7,17.54,25.04,32.17c-3.42,22.44-28.2,31.1-33.77,52.21c-4.39,2.9-8.39,2.29-12.04-1.37
			c-27.61-9.14-32.96-38.11-39.73-57.93c-22.34-65.37-37.7-133.27-32.78-203.64C45.07,639.55,51.89,604.44,58.43,605.62z"/>
		<path class="st8" d="M169.1,387.75c-1.56-7.86,5.15-19.87-10.38-20.75c0-3.44-1.27-9.18,0.19-9.99
			c25.55-14.16,19.67-54.24,51.78-62.53c3.23-0.83,6.86-0.11,10.3-0.11c0.01,8.24-1.78,16.73,6.91,22.67
			c6.94,4.75,2.18,12.54,3.47,18.83c3.63,3.28,6.73,7.11,10.38,10.38c9.83,15.68,40.87,11.96,36.94,40.31
			c-5.01,19.6-11.97,38.25-26.57,53.07c0,3.46,0,6.92,0,10.38C198.15,464.31,188.77,419.17,169.1,387.75z"/>
		<path class="st8" d="M96.45,418.87c0,10.38,0,20.75,0,31.13c-13.74,13.14-12.84,32.86-19.07,48.86
			c-9.4,24.14-24.39,24.08-43.2,23.76c-8.56-0.17-15.19-4.21-20.76-10.38c0-6.92,0-13.83,0-20.75c0.02-8.66-4.01-15.29-10.38-20.75
			c-4.88-17.69,12.78-29.02,12.56-47.21c-0.14-12.13,40.79-17.61,61.39-7.71C84.02,419.21,90.09,417.49,96.45,418.87z"/>
		<path class="st16" d="M304.02,1051.76c-0.01,8.24-3.44,12.73-6.91,22.67c-1.94,5.56-2.18,12.54-3.47,18.83
			c-8.49,15.28-13.21,17.48-17.26,24.95c-8.84,16.29-18.04,29.4-34.63,37.3c-3.28,3.63-7.11,6.73-10.38,10.38
			c-3.45,3.47-7.27,6.57-10.38,10.38c-6.85,0-13.7,0.23-20.53-0.05c-13-0.52-13.24-9.73-8.31-16.97
			c4.25-6.24,11.99-10.4,18.97-14.88c33.79-21.71,54.12-54.13,73.38-89.61c23.95-44.13,35.33-97.5,81.79-127.49
			c10.62-0.6,21.26-1.53,31.52,2.52c3.72,2.12,7.04,4.75,10,7.85c-3.46,6.92-6.92,13.83-10.38,20.75
			c-28.02,23.82-53.92,50.05-83.03,72.63C310.94,1037.93,307.48,1044.85,304.02,1051.76z"/>
		<path class="st11" d="M947.48,865.01c-18.33-1.72-32.84,15.7-51.89,10.38c-6.5-38.03,24.83-56.07,47.36-70.15
			c23.68-14.8,53.33-19.92,73.29-43.38c3.54-4.17,16.2-0.59,24.64-0.59c-13.18,24.73-36.71,40.04-55.31,59.79
			c-7.07,7.51-7.06,14.77-6.96,23.21c-1.52,3.75-3.65,7.11-6.41,10.08C964.73,859.63,960.18,871.84,947.48,865.01z"/>
		<path class="st8" d="M470.07,180.24c-1.4,7.35,4.47,20.58-7.71,20.16c-35.23-1.22-62.56,22.71-96.02,27.46
			c-15.67,2.22-29.61,10.29-41.57-6.11c10.53-16.85,28.78-15.88,44.85-21.87C402.48,187.61,434.96,178.65,470.07,180.24z"/>
		<path class="st9" d="M968.24,844.26c3.46,0,6.92,0,10.38,0c25-3.66,47.46,1.35,60.05,24.79c4.09,7.61,10.81,23.09-8.16,27.08
			c-8.44,0-21.58-3.43-24.51,0.58c-14.1,19.33-25.44,4.95-37.76-0.58C954.08,878.84,960.99,861.55,968.24,844.26z"/>
		<path class="st17" d="M874.83,418.87c-1.66,0-4.73,0.26-4.78-0.04c-5.08-27.7-19.47-53.64-15.97-82.97
			c6.54-1.66,10.08,3.51,12.22,7.41c10.99,19.96,34.3,30.94,39.67,54.84c-9.02,0.88-21.52-4.57-21.02,12.83
			C885.1,416.04,881.21,420.05,874.83,418.87z"/>
		<path class="st18" d="M1061.65,730.13c0.47-34.7,2.36-37.21,31.14-41.5C1094.34,711.41,1078.31,721.01,1061.65,730.13z"/>
		<path class="st15" d="M117.2,906.51c3.46,0,6.92,0,10.38,0c3.46-4.94,6.92-4.94,10.38,0c-6.15,14.61-16.52,24.98-31.14,31.13
			C101.75,924.42,115.71,917.54,117.2,906.51z"/>
		<path class="st18" d="M13.42,512.25c7.87,1.56,19.87-5.15,20.76,10.38c0,3.46,0,6.92,0,10.38
			C17.19,536.15,10.27,529.23,13.42,512.25z"/>
		<path class="st18" d="M3.04,470.75c7.36,1.4,18.08-4.7,20.51,7.78c1.32,6.78-0.27,13.73-10.13,12.97
			C-2.11,490.62,4.6,478.62,3.04,470.75z"/>
		<path class="st14" d="M781.43,138.74c-13.13,14.04-28.38,14.04-41.51,0C753.75,138.74,767.59,138.74,781.43,138.74z"/>
		<path class="st14" d="M833.32,211.37c-5.08-13.22,8.88-20.1,10.38-31.13c12.73,0.62,12.93,9.92,8.32,16.71
			C847.9,203.01,843.47,211.8,833.32,211.37z"/>
		<path class="st6" d="M75.69,1051.76c-3.46,0-6.92,0-10.38,0c3.95-10.21,0.76-53.37,20.75-58.23
			C86.07,1003.91,75.69,1041.39,75.69,1051.76z"/>
		<path class="st13" d="M868.17,82.3c4.09,8.57,6.28,11.19,6.51,13.98c0.98,12.04-7.53,11.06-15.74,11.58
			c-4.93,0.31-7.15-0.62-4.7-4.99C857.91,96.3,862.64,90.34,868.17,82.3z"/>
		<path class="st15" d="M99.6,958.39c-1.56,7.86-8.38,50.99-23.91,51.87C77.25,1002.4,84.07,959.27,99.6,958.39z"/>
		<path class="st15" d="M112.57,922.72c8.44,2.68-8.94,35.93-16.12,35.67C96.18,951.21,105.39,922.45,112.57,922.72z"/>
		<path class="st15" d="M106.83,940.55c0.26,7.18-11.34,38.59-20.76,38.59C85.81,971.96,99.64,940.29,106.83,940.55z"/>
		<path class="st19" d="M169.1,387.75c8.85,0.98,17.58-3.61,21.64,12.3c7.65,29.92,28.68,48.33,61.38,49.95
			c25.48,33.31,86.27,62.11,131.85,62.22c49.46,0.12,98.91,0.03,148.37,0.03c26.19,15.37,51.51,14.71,69.66-2.28
			c18.17-17,36.91-33.08,56.51-48.53c15.47-12.2,33.99-9.25,48.75-20.91c10.48-8.28,19.99-12.28,23.03-28.02
			c5.42-28.09,22.37-53.42,21.95-83.42c-0.02-1.16,5.49-2.4,8.42-3.6c26.65-0.28,30.07,21.27,31.69,38.87
			c5.19,56.14-6.72,104.84-59.27,138.48c-61.8,39.56-126.92,64.17-200.99,61.61c-19.38-7.8-32.12,3.74-44.8,15.69
			c-42.28,14.75-85.65,8.2-128.78,7.09c-9.25-1.6-17.42-5.13-23.37-12.73c-3.3-11.99,8.72-25.77-17.54-33.36
			c-30.9-8.94-59.59-28.42-90.86-40.72c-14.89-5.85-29.68-21.94-36.9-40.05C170.68,439.67,145.04,420.81,169.1,387.75z"/>
		<path class="st20" d="M449.32,387.75c-47.32-0.78-47.47-0.73-62.17-44.26c-4.03-11.93-13.51-6.24-20.86-7.61
			c1.48-7.37-4.9-18.69,8.02-20.38c7.65-1,17.42-3.91,22.9,5.31c1.51,2.54-0.8,7.25,0.59,9.97c11.2,22.01,27.18,38.99,51.53,46.59
			c2.6,2.31,3.47,4.61,2.6,6.92C451.05,386.6,450.19,387.75,449.32,387.75z"/>
		<path class="st21" d="M449.32,387.75c0-3.46,0-6.92,0-10.38c24.22,0,48.43,0,72.65,0c5.82,5.22,6.07,11.54,3.7,18.41
			c-7.17,11.78-18.74,19.44-27.7,29.6c-5.5,4.76-11.45,7.86-18.95,4.99c-3.29-4.31-2.64-8.12,1.43-11.51
			c1.82-13.72-0.51-23.45-18.07-20.92C455.49,398.94,448.55,397.68,449.32,387.75z"/>
		<path class="st20" d="M480.45,418.87c0,3.46,0,6.92,0,10.38c9.85,9.99,21.72,15.76,35.74,17.07c1.94,1.19,3.86,2.44,5.77,3.68
			c0.82,20.4-7.52,30.95-29.38,31.54c-15.44,0.42-29.2-4.22-32-17.96C457.05,446.26,455.35,425.44,480.45,418.87z"/>
		<path class="st21" d="M304.02,356.62c0.89-15.52,12.89-8.81,20.76-10.38c3.87,3.05,9.75,4.09,10.38,10.38
			c-9.43,26.72-13.29,56.63-41.51,72.63c-3.68-3.01-6.4-6.7-8.07-11.18c-2.56-9.28-1.87-18.41,1.16-27.44
			c3.27-8.03,8.15-15.38,10.46-23.85C298.42,362.73,300.74,359.35,304.02,356.62z"/>
		<path class="st20" d="M521.96,398.12c0-6.92,0-13.83,0-20.75c6.92,0,13.84,0,20.76,0c3.17,2.31,4.22,4.61,3.17,6.92
			c-1.05,2.3-2.1,3.46-3.17,3.46c0,16.66-0.28,33.32,0.08,49.98c0.37,17.02-12.12,11.22-20.84,12.28c-7.14-5.64-9.55-13.38-9.85-22
			c0.04-3.87,0.65-7.74,1.76-11.45c1.85-5.05,6.69-8.26,8.6-13.33C522.41,403.23,521.96,398.12,521.96,398.12z"/>
		<path class="st20" d="M293.64,418.87c0,3.46,0,6.92,0,10.38c0.64,8.99-5.12,10.42-12.2,10.39c-9.77-0.04-19.54-0.01-29.31-0.01
			c-0.97-20.45,0.96-39.74,20.76-51.88c1.69,1.31,3.38,2.62,5.1,3.91C284.04,400.24,284.12,412.27,293.64,418.87z"/>
		<path class="st20" d="M304.02,356.62c0,3.46,0,6.92,0,10.38c-6.2,8.43-14.29,15.26-20.22,23.93c-4.36,1.41-8,0.34-10.92-3.18
			c-0.82-9.12,4.42-22.75-12.98-20.57c-17.56,2.2-20.02-7.11-18.15-20.94C263.06,346.35,281.47,363.91,304.02,356.62z"/>
		<path class="st20" d="M335.15,356.62c-7.18,0.26-10.64-3.19-10.38-10.38c12.24-9.83,26.5-11.63,41.51-10.38
			C362.22,352.25,351.26,358.29,335.15,356.62z"/>
		<path class="st21" d="M542.72,387.75c0-3.46,0-6.92,0-10.38c0.89-15.52,12.89-8.81,20.76-10.38c2.98,2.31,3.96,4.61,2.98,6.92
			c-0.99,2.3-1.98,3.46-2.98,3.46C556.56,380.83,549.64,384.29,542.72,387.75z"/>
		<path class="st22" d="M563.48,377.37c0-3.46,0-6.92,0-10.38c0.19-12.07,9.67-13.01,15.98-9.13c9.58,5.9-1.8,9.26-4.59,12.79
			C572.32,373.89,567.37,375.21,563.48,377.37z"/>
		<path class="st20" d="M241.75,346.25c-7.18,0.26-10.64-3.19-10.38-10.38C238.55,335.61,242.01,339.07,241.75,346.25z"/>
		<path class="st23" d="M428.56,906.51c-1.18,6.54,3.34,11.08,8.09,9.98c13.98-3.23,31.42-4.38,40.51-13.39
			c23.67-23.49,50.76-30.2,82.11-27.78c4.95,0.38,9.81,0.6,13.82-4.18c22.85-27.22,62.95-27.63,85.87-54.89
			c49.18-6.4,78.97-49.28,123-65.32c15.31-5.58,22.87-19.78,34.19-29.77c20.37-17.97,27.18-18.06,46.35,1.96
			c4.56,4.76,11.1,9.97,11.83,15.61c2.72,21.07,18.93,13.56,26.98,10.66c33.34-12.01,71.08-16.71,93.39-50.08
			c1.6-2.39,9.88-0.31,15.06-0.31c2.27,22.96-14.1,33.08-30.65,41.16c-19.95,9.75-42.85,14.24-61.41,25.88
			c-35.3,22.13-71.84,36.47-113.98,37.35c-10.28,0.21-22.01,6.36-30.31,13.16C723.76,857.22,662,871.6,605.73,897.94
			c-33.49,15.68-70.5,10.79-101.54,29.32c-23.01-9.21-28.88,19.57-48.14,21.37c-21.33,2-25.7-29.53-48.26-21.37
			c-5.51-7.04-5.21-14.12-0.13-21.23C414.75,901.16,421.74,899.99,428.56,906.51z"/>
		<path class="st18" d="M874.83,885.76c-25.67,40.62-63.31,67.23-107.94,80.31c-20.5,6.01-38.53,15.27-57.45,23.53
			c-34.94,15.26-70.74,29.1-103.96,47.53c-14.45,8.01-28.65,3.59-42.98,8.23c-27.42,8.87-49.34,28.34-80.12,32.13
			c-36.02,4.43-73.64,11.1-100.38-6.63c-18.42-12.21-46.07-5.09-57.22-29.48c48.88-3.99,95.82,16.97,145.11,10.87
			c14.81-1.83,29.06-1.91,42.08-10.74c28.65-19.42,63.13-21.7,94.98-31.82c27.07-8.6,52.57-22.13,78.78-33.45
			c37.86-16.35,75.23-34.02,113.85-48.32c15.77-5.84,25.29-17.1,34.31-28.21C845.58,885.31,859.53,885.41,874.83,885.76z"/>
		<path class="st24" d="M314.4,1031.01c1.41-15.63,16.71-22.43,23.24-36.08c10.13-21.17,32.54-36.24,59.78-36.54
			c1.72,0,3.48,0.24,5.16-0.04c20.51-3.33,24.39,28.07,48.43,21.61c16.05-4.31,34.2-0.88,51.41-0.78c5.05,0.03,12-1.48,14.76,1.18
			c5.77,5.55,15.16,9,15.17,19.29c0.01,14.04-11.42,12.26-18.08,10.13c-17.08-5.44-27.28,16.85-42.1,10.36
			c-17.12-7.51-32.29,27.23-48.53,0.78c-18.9-0.09-37.8,0.17-56.69-0.38c-15.17-0.44-29.81,0.15-42.18,10.49
			C321.31,1031.01,317.85,1031.01,314.4,1031.01z"/>
		<path class="st5" d="M407.8,906.51c0,6.92,0,13.83,0,20.75c0,3.46,0,6.92,0,10.38c-3.46,0-6.92,0-10.38,0
			c-9.6-11.69-10.39-22.6,2.87-32.26C402.79,905.75,405.3,906.13,407.8,906.51z"/>
		<path class="st17" d="M573.86,626.38c17.12-0.09,5.89,22.24,19.64,24.82c-0.18,21.55,19.15,23.31,31.87,32.34
			c13.88,9.85,23.84,6.78,35.54-3.77c37.5-33.81,83.72-54.82,125.27-82.77c18.57-12.49,38.89-23.03,56.25-37.28
			c22.83-18.74,35.89-42.61,32.68-73.85c-1.57-15.26-0.27-30.82-0.27-46.25c7.38,1.55,19.86-5.03,20.37,8.21
			c1.2,31.04,5.38,63.23-1.05,92.92c-6.18,28.49-18.17,57.04-50.95,71.51c-47.34,20.9-89.6,51.29-133.04,79.43
			c-28.16,18.24-58.19,34.45-89.22,47.04c-14.83,6.02-34.16,3.39-51.04,1.34c-25.16-3.06-42.09,11.49-46.67,30.24
			c-7.66,31.39-23.16,61.27-22.03,94.7c-10.38,0-20.76,0-31.14,0c-6.57-0.89-11.31-4.54-14.94-9.89c-3.79-7.64-4.5-15.7-3.22-24.03
			c0.79-3.97,2.11-7.78,3.74-11.48c2.36-5.43,4.99-10.76,7.65-16.05c1.61-3.49,3.51-6.84,5.42-10.15
			c3.71-6.65,5.36-13.77,4.71-21.42c-0.33-3.82-0.11-7.59,0.42-11.36c1.37-5.59,4.3-10.19,8.7-13.75c8.6-5.99,0.57-12.6,0.5-19.03
			c-0.32-18.16,8.6-29.31,25.66-34.42c48.82,1.58,36.62-43.93,52.38-67.88C565.55,622.62,569.8,623.06,573.86,626.38z"/>
		<path class="st5" d="M459.69,854.63c7.18-0.26,10.64,3.19,10.38,10.38c2.29,18.04-6.86,27.61-23.56,31.03
			c-7.34,1.5-17.9-3.27-17.95,10.48c-6.92,0-13.84,0-20.76,0c-14.02-27.18,5.44-40.15,22.84-53.97
			C439.88,858.72,450.27,849.88,459.69,854.63z"/>
		<path class="st11" d="M843.7,968.76c-0.24-28.22,21.79-40.26,41.35-51.03c13.3-7.32,28.29,3.82,30.38,17.5
			c2.58,16.86,12.6,11.93,21.68,12.78c-0.96,8.88,4.65,21.18-12.59,20.88C897.58,968.41,870.64,968.76,843.7,968.76z"/>
		<path class="st25" d="M262.5,979.14c1.16,5.9-3.35,10.95-7.03,9.92c-14.35-4-23.32,6.42-34.48,10.83
			c0.63-13.08-4.49-28.09,10.77-36.54c10.1-5.59,9.8-16.66,14.07-25.1c13.12-25.94,8.51-33.02-24.84-42.12
			c-6.07-10.11-1.75-19.34,2.38-28.67c1.4-2.23,2.86-4.37,4.28-6.61c1.85-1.94,3.74-3.77,5.6-5.71
			c11.37-9.07,24.48-12.22,38.76-11.68c48.97,8.82,46.93,44.11,41.99,80.9c-0.48,9.08-4.11,16.83-9.99,23.63
			c-5.74,6.71-9.63,15.26-18.54,18.85C276.8,969.04,268.39,971.71,262.5,979.14z"/>
		<path class="st25" d="M200.23,875.39c-10.38,0-20.76,0-31.14,0c-5.83-3.19-6.27-8.39-5.31-14.14c0.47-3.73,1.39-7.35,2.61-10.91
			c2.36-5.27,5.03-10.38,7.8-15.48c4.02-7.22,8.97-13.68,15.22-19.15c7.1-5.63,14.87-9.33,24.24-8.5c4.53,1.08,8.44,3.22,11.72,6.54
			c6.49,9.78,9.97,20.69,12.26,32.08c0.09,7.09-1.07,13.8-6.27,19.18c-2.83,2.92-5.8,5.68-8.95,8.27
			C215.36,877.5,208.32,882.07,200.23,875.39z"/>
		<path class="st26" d="M171.48,847.29c0,6.92-2.39,21.18-2.39,28.1c-14.61,6.14-24.99,16.52-31.14,31.13c-3.46,0-17.3,0-20.76,0
			c3.32-10.38,11.8-18.43,20.19-26.05c8.12-7.38,22.61-21.85,24.63-34.56C165.49,843.46,168.02,844.86,171.48,847.29z"/>
		<path class="st25" d="M210.61,896.14c-1.13,8.59,4.79,21.54-12.02,20.62c-7.21-0.39-17.97,4.21-18.93-8.61
			c-1.26-16.77,11.98-10.89,20.58-12.01C203.69,892.51,207.15,892.51,210.61,896.14z"/>
		<path class="st26" d="M210.61,896.14c-3.46,0-6.92,0-10.38,0c0-6.92,0-13.83,0-20.75c6.92-3.46,13.84-6.92,20.76-10.38
			c3.83,3.09,7.29,6.55,10.38,10.38c-3.46,6.92-6.92,13.83-10.38,20.75C217.53,896.14,214.07,896.14,210.61,896.14z"/>
		<path class="st26" d="M304.02,927.26c0-11.67,0.22-23.34-0.04-35c-0.73-32.82-3.17-34.96-41.47-37.62
			c-7.98-15.06,5.32-23.82,10.27-35.09c1.25-1.79,2.6-3.51,3.87-5.3c2.91-3.32,6.36-5.97,10.23-8.09
			c9.95-4.4,20.36-7.63,30.53-11.56c12.68-3.21,25.21-9.81,38.5-2.21c0,13.83,0,27.67,0,41.5c3.84,15.66,0.14,29.43-10.38,41.5
			c0,6.92,0,13.83,0,20.75c-7.05,6.79-13.85,13.82-20.76,20.75C318.99,922.61,315.92,933.77,304.02,927.26z"/>
		<path class="st27" d="M438.94,854.63c-11.91,16.38-31.37,28.22-31.14,51.88c-20,4.86-6.43,20.91-10.38,31.13
			c-10.21-3.95-26.27,9.62-31.14-10.38c16.66-23.42,11.82-54.87,29.87-78.77c4.04-5.35,12.47-14.62,11.65-24.98
			c20.35-12.58,27.06,2.75,34.44,16.79C443.33,845.57,442.21,850.36,438.94,854.63z"/>
		<path class="st28" d="M355.91,792.38c-12.24,9.83-26.5,11.63-41.51,10.38c-4.17-3.86-6.74-8.59-7.77-14.18
			c-0.69-8.63,1.4-16.46,6.75-23.35c42.52-30.5,79.11,4.64,118.43,10.66c9.25,6.65,23.41,14.3,15.09,26.42
			c-10.03,14.61-25.83,10.73-39.1,0.46C389.47,804.48,374.96,787.06,355.91,792.38z"/>
		<path class="st20" d="M407.8,802.76c9.85,0,19.72-0.21,29.56,0.09c5.09,0.15,8.99-1.14,11.47-5.76
			c-4.28-1.57-8.57-3.11-12.83-4.71c-4.77-1.8-8.61-4.3-7.45-10.37c7.3-31.91,26.57-33.9,51.89-20.75c0,3.46,0,6.92,0,10.38
			c-0.41,11.39-3.03,22.05-10.38,31.13c-6.31,5.49-4.43,15.08-10.38,20.75c-9.38,4.46-0.26,27.41-20.76,20.75
			c-6.38,1.18-10.26-2.84-10.12-7.92c0.5-17.4-12-11.95-21.02-12.83C407.8,816.59,407.8,809.68,407.8,802.76z"/>
		<path class="st15" d="M345.53,875.39c-1.25-15.01,0.54-29.26,10.38-41.5c21.79,8.37,8.41,25.38,7.77,37.98
			C363.33,878.82,351.85,874.06,345.53,875.39z"/>
		<path class="st15" d="M283.26,958.39c6.92-3.46,13.84-6.92,20.76-10.38c0,4.88-0.67,9.88,0.12,14.63
			c3.05,18.46-9.39,16.75-20.88,16.49C277.2,972.22,277.2,965.3,283.26,958.39z"/>
		<path class="st15" d="M304.02,927.26c6.92-3.46,13.84-6.92,20.76-10.38c0,4.88-0.67,9.88,0.12,14.63
			c3.05,18.46-9.39,16.75-20.88,16.49C304.02,941.1,304.02,934.18,304.02,927.26z"/>
		<path class="st15" d="M324.77,916.89c-3.15-16.98,3.77-23.89,20.76-20.75C348.68,913.11,341.76,920.03,324.77,916.89z"/>
		<path class="st24" d="M968.24,844.26c0,17.29,0,34.58,0,51.88c0.33,5.05-1.31,10.92-6.86,8.21
			c-16.88-8.22-13.91-24.53-13.89-39.34c6.33,1.17,9.57-2.68,10.18-7.87C958.49,850.18,958.5,843.51,968.24,844.26z"/>
		<path class="st12" d="M521.96,553.75c19.19-3.68,41.2,9.06,57.94-10.15c1.49-1.7,6.63-0.22,10.07-0.23
			c26.63-0.04,49.76-2.76,63.49-12.74c23.62-17.16,50.67-29.81,76.02-41.37c39.28-17.91,44.59-51.14,50.49-82.74
			c5.05-27.06,9.9-59.62-19.31-81.04c0-6.92,0-13.83,0-20.75c24.14,2.1,37.2,11.89,45.66,38.1c7.61,23.56,12.76,48.73,25.29,71.9
			c9.29,17.18-4.84,42.09-17.33,57.73c-12.93,16.18-30.72,29.47-47.96,42.61c-23.55,17.93-50.03,32.27-74.39,46.63
			c-27.98,16.49-63.98,39.43-101.5,5.37c-14.92-13.54-16.33,6.34-16.59,17.8c-22.14,8.1-38.97-0.42-53.26-16.97
			C518.79,562.98,519.14,558.25,521.96,553.75z"/>
		<path class="st12" d="M677.64,211.37c13.35-5.22,21.74,6.18,31.17,10.94c29.04,14.65,57.82,30.21,83,51.32
			c-8.14,0-19.16,3.42-23.93-0.59c-20.09-16.88-17.74-2.13-17.58,10.97c-28.46-13.76-41.27-47.2-72.45-57.96
			C676.27,225.49,677.64,216.45,677.64,211.37z"/>
		<path class="st12" d="M656.88,200.99c7.18-0.26,10.64,3.19,10.38,10.38c-6.81,0-13.63-0.13-20.43,0.04
			c-5.04,0.12-9.83-0.55-8.56-6.9c0.33-1.66,5.38-2.86,8.42-3.39C650,200.55,653.48,200.99,656.88,200.99z"/>
		<path class="st14" d="M604.99,180.24c7.87,1.56,19.87-5.15,20.76,10.38C617.88,189.06,605.88,195.77,604.99,180.24z"/>
		<path class="st23" d="M521.96,564.13c17.3,6.92,34.59,13.83,51.89,20.75c0,3.46,0,6.92,0,10.38c0,10.38,0,20.75,0,31.13
			c-3.46,0-6.92,0-10.38,0c-18.45,17.05-3.99,64.56-51.05,55.15c-6.09-5.3-8.14-12.27-8.28-19.99c1.33-15.56,7.01-30.97,2.17-46.77
			c-33.23-13.71-66.44-5.93-99.68-0.49c-7.82,1.38-15.58,1.36-23.39-0.11c-17.2-7.65-39.27-11.99-27.35-39.65
			c40.65,0,81.29,0.01,121.94-0.01c7.05,0,13.74-0.55,12.98-10.37C501.21,555.67,511.59,555.65,521.96,564.13z"/>
		<path class="st10" d="M189.85,823.51c-3.46,6.92-6.92,13.83-10.38,20.75c-3.92,3.65-8.16,4.09-12.73,1.33
			c-17.42-24.02-18.34-59.12-49.54-73.96c-0.01-8.24,1.78-16.73-6.91-22.67c-6.94-4.75-2.18-12.54-3.47-18.83
			c22.79-17.56,15.28-41.93,14.52-64.76c-0.7-20.95-0.95-41.43,29.21-39.66c14.34,17.54,11.97,40.29,18.99,60.11
			c5.8,41.45,16.7,81.9,24.62,122.95C194.65,814.25,193.21,819.16,189.85,823.51z"/>
		<path class="st20" d="M158.72,688.63c-15.29-18.78-9.56-41.06-10.38-62.25c-6.48-6.92-6.05-13.83,0-20.75c0-20.75,0-41.5,0-62.25
			c4.07-3.7,8.85-5.44,14.36-5.23c5.54,1,9.74,3.91,12.7,8.69c5.19,9.66,7.16,20.2,8.5,30.93c8.13,37.48,16.32,74.96,6.15,113.44
			C178.98,697.93,168.56,696.77,158.72,688.63z"/>
		<path class="st17" d="M148.34,605.63c0,6.92,0,13.83,0,20.75c-11.27,7.65-28.68,10.46-15.44,32.13c11.82,19.34,6.17,43,3.95,63.92
			c-1.69,15.91-19.79,4.59-30.03,7.7c-4.06-19.03,6.07-38.6-8.94-58.49c-7.88-10.45-4.76-32.83,13-44.52
			C122.99,619.14,128.96,600.94,148.34,605.63z"/>
		<path class="st17" d="M117.2,771.63c32.11,2.23,29.94,3.17,42.45,31.8c6.03,13.79,9.83,26.37,9.44,40.83
			c0,1.09,0.4,0.26-0.48,2.56c-0.88,2.3-3.56,3.69-4.34,4.11c-3.49,1.88-2.1,3.7-5.56,3.7c-17.62-3.24-10.06-23.27-20.76-31.13
			c1.38-10.58-0.47-19.87-10.38-25.94C117.68,791.5,115.82,782.21,117.2,771.63z"/>
		<path class="st22" d="M158.72,543.38c-3.46,0-6.92,0-10.38,0c-12.03,0.69-23.65,1.48-20.96-16.86c1.18-8.05,0.2-16.42,0.2-24.64
			c6.92,3.46,13.84,6.92,20.76,10.38C159.5,520.06,170.61,527.89,158.72,543.38z"/>
		<path class="st22" d="M169.1,574.5c0-10.38,0-20.75,0-31.13c-4.02-10.94,1.04-12.79,10.38-10.38
			c11.03,1.5,17.91,15.45,31.14,10.38c8.51,9.73,22.76,13.62,27.56,26.73c-0.05-0.35,2.55,3.34,2.55,3.34s4.26-1.51,4.26-1.86
			c1.7-3.4,4.08-5.78,7.14-7.47c17.71-0.83,35.7-2.21,41.51,20.75c10.38,12.38,20.76,13.03,31.14,0
			c-0.26-7.18,3.2-10.64,10.38-10.38c6.92,0,13.84,0,20.76,0c-0.2,11.2-2.15,22.86,15.98,21.69c4.76-0.3,7.09,10.66,15.15,9.43
			c6.92,6.68,13.84,6.17,20.76,0c1.19-2.92,1.86-8.01,3.66-8.45c35.15-8.51,72.59,8.38,107.49-9.68c3.13-1.62,1.68,11.81,3.01,18.13
			c-7.67,6.04-10.24,14.59-11.62,23.77c-15.55,28.21-19.69,66.42-62.17,71.01c-9.24-9.96-7.61-22.16-6.6-34.1
			c1.68-19.83-9.61-23.36-25.84-20.85c-6.41,1.2-12.83,2.1-19.21,3.19c-4.13,1.15-8.32,2.08-12.48,3.1
			c-4.09,1.27-8.28,2.04-12.53,2.53c-6.36,0.26-12.38-1.01-17.92-4.17c-6.31-4.28-12.33-9.23-20.39-9.99
			c-10.12-0.3-18.96,4.06-28.08,7.5c-8.13,2.77-16.26,5.01-24.45,0.38c-7.59-6.2-12.29-16.06-23.1-18.14
			c-3.83-0.22-7.64-0.36-11.46,0.06c-3.82,1.28-7.58,2.5-11.31,4.1c-1.92,0.99-3.81,1.78-5.73,2.71c-8.6,3.3-17.1,5.95-24.19-2.92
			C192.81,614.12,189.71,589.04,169.1,574.5z"/>
		<path class="st8" d="M169.1,387.75c0.48,19.63-4.79,40.86,17.3,53.89c7.14,4.21,2.18,12.46,3.46,18.74
			c-26.71,2.52-35.17-21.85-50.08-35.64C130.86,416.49,150.77,391.86,169.1,387.75z"/>
		<path class="st23" d="M252.12,564.13c0,6.92,0,13.83,0,20.75c-6.92,6.06-13.84,6.06-20.76,0c-0.85-9.07,4.46-20.49-12.91-21.26
			c-12.6-0.56-6.41-12.88-7.85-20.24C228.32,542.55,246.31,541.17,252.12,564.13z"/>
		<path class="st21" d="M324.77,584.88c0,6.77,0.12,13.54-0.03,20.3c-0.28,12.73-9.29,13.44-16.74,8.97
			c-10.18-6.12-17.83-15.49-14.37-29.27C304.02,584.88,314.4,584.88,324.77,584.88z"/>
		<path class="st2" d="M179.48,533c-7.18-0.26-10.64,3.19-10.38,10.38c-3.46,0-6.92,0-10.38,0c5.08-13.22-8.88-20.1-10.38-31.13
			c4.89,0,9.88,0.67,14.64-0.12C181.44,509.08,179.73,521.52,179.48,533z"/>
		<path class="st6" d="M802.18,211.37c-3.57,15.82-14.45,14.04-19.88,4.4c-4.35-7.73,0.93-20.26-1.24-29.96
			c-5.04-22.55,20.68-11.89,25.44-24.36c0.83-2.17,6.25,3.77,6.11,8.81c-0.19,6.78-0.05,13.57-0.05,20.35
			c-1.08,1.66-2.15,3.33-3.22,4.99c-2.58,3-4.7,6.3-6.33,9.91C802.74,207.47,802.46,209.42,802.18,211.37z"/>
		<path class="st6" d="M812.56,190.62c5.04-0.37,9.64,0.66,8.23,6.87c-0.39,1.7-5.36,2.36-8.23,3.5c-1.3-1.73-2.6-3.46-3.9-5.19
			C809.96,194.08,811.26,192.35,812.56,190.62z"/>
		<path class="st6" d="M812.56,200.99c0.26,7.18-3.2,10.64-10.38,10.38C798.89,201.17,802.3,197.65,812.56,200.99z"/>
		<path class="st18" d="M667.26,159.49c-6.36-1.38-16.2,4.11-18.76-3.75c-8.56-26.24,0.41-51.26,21.92-66.84
			c8.56-6.2,16.01-0.59,17.51,13.6c0.54,5.11,0.09,10.33,0.09,15.5c-6.17,9.41-11.79,19.11-15.59,29.74
			C672.07,152.24,670.27,156.13,667.26,159.49z"/>
		<path class="st22" d="M667.26,149.12c-15.81-3.4-13.19-17.92-4.95-19.2c10.89-1.7,15.34-12.75,25.7-11.92c0,3.46,0,6.92,0,10.38
			C693.8,147.98,675.1,143.12,667.26,149.12z"/>
		<path class="st13" d="M667.26,149.12c-0.75-9.74,5.92-9.75,12.89-10.57c5.19-0.61,9.04-3.86,7.87-10.18
			c15.81,3.4,13.19,17.92,4.95,19.2c-10.89,1.7-15.34,12.75-25.7,11.92C667.26,156.04,667.26,152.58,667.26,149.12z"/>
		<path class="st26" d="M283.26,958.39c0,6.92,0,13.83,0,20.75c-6.92,0-13.84,0-20.76,0C259.36,962.16,266.28,955.24,283.26,958.39z
			"/>
		<path class="st9" d="M521.96,564.13c-10.38,0-20.76,0-31.14,0c1.43-7.36-4.78-19.14,7.87-20.17c7.96-0.65,21.57-7.3,23.26,9.8
			C521.96,557.21,521.96,560.67,521.96,564.13z"/>
		<path class="st22" d="M521.96,418.87c0,10.38,0,20.75,0,31.13c-1.64,0-3.65-0.62-4.87,0.09c-31.89,18.53-35.44,16.54-36.64-20.84
			c7.18,0.26,10.64-3.19,10.38-10.38C501.21,416.9,511.59,416.3,521.96,418.87z"/>
		<path class="st9" d="M521.96,418.87c-15.57,8.9-15.57,8.9-31.14,0c4.07-16.38,15.03-22.42,31.14-20.75
			c2.35,2.31,3.13,4.61,2.35,6.92c-0.78,2.31-1.56,3.46-2.35,3.46C521.96,411.96,521.96,415.42,521.96,418.87z"/>
		<path class="st22" d="M272.88,387.75c3.46,0,6.92,0,10.38,0c3.46-3.62,6.92-3.62,10.38,0c0,10.38,0,20.75,0,31.13
			C272.88,416.96,272.88,416.96,272.88,387.75z"/>
		<path class="st17" d="M293.64,387.75c-3.46,0-6.92,0-10.38,0c-3.15-16.98,3.77-23.89,20.76-20.75c5.04-0.42,11.23,2.4,8.15,6.45
			C307.69,379.34,303.7,388.2,293.64,387.75z"/>
		<path class="st22" d="M521.96,408.5c0-3.46,0-6.92,0-10.38c5.04-0.37,9.64,0.66,8.23,6.87
			C529.81,406.7,524.83,407.36,521.96,408.5z"/>
		<path class="st27" d="M304.02,636.75c11.03-1.5,17.91-15.45,31.14-10.38c11.22,10.41,10.57,24.77,12.78,37.98
			c2.33,2.63-5.31,8.52,3.13,9.21c2.33-2.38,4.52-4.53,6.65-6.95c2.17-2.9,4.47-5.48,6.89-8.06c4.13-3.78,8.27-7.42,12.06-11.43
			c3.45-3.47,7.27-6.57,10.38-10.38c6.92,0,13.84,0,20.76,0c12.1,10.64,11.77,25.5,13.64,39.59c1.09,6.36,2.13,12.79,4.05,18.87
			c6.01,13.14,15.25,6.51,23.82,3.8c26.75-24.31,43.48-51.07,51.89-83c27.81,7.75,14.44,25.79,10.38,41.5c0,6.92,0,13.83,0,20.75
			c6.26,6.92,5.51,13.83,0,20.75c-22.97,5.81-21.59,23.79-20.76,41.5c2.35,2.31,3.13,4.61,2.35,6.92c-0.78,2.31-1.56,3.46-2.35,3.46
			c-7.18-0.26-10.64,3.19-10.38,10.38c-20.45-0.97-39.75,0.96-51.89,20.75c-25.46,5.48-50.03-4.43-69.74-15.17
			c-19.95-10.88-30.22-0.4-44.43,4.79c-8.98,8.02-19.55,10.3-31.21,8.8c-17.99-4.95-36.57-4.29-54.97-5.76
			c-54.4-4.33-65.3-25.06-40.85-76.04c3.14-3.9,5.6-8.25,7.11-13.05c0.37-4.89,1.9-9.46,4.34-13.71c1.56-1.77,3.19-3.55,4.73-5.36
			c3.54-3.06,7.47-5.63,11.61-7.84c6.04-3.27,12.36-6.02,18.94-8.11c6.62-1.78,13.34-2.1,20.13-1.03c4.4,0.89,8.63,2.36,12.74,4.11
			C286.44,663.61,295.07,649.84,304.02,636.75z"/>
		<path class="st5" d="M511.59,699.01c0-6.92,0-13.83,0-20.75c23.9,1.06,33.56-11.56,30.94-33.94
			c-2.06-17.63,7.37-19.68,20.96-17.93c0,10.16,0.11,20.32-0.02,30.48c-0.44,33.61-9.36,44.58-44.04,52.17
			C514.86,710.03,510.41,705.37,511.59,699.01z"/>
		<path class="st10" d="M470.07,802.76c3.95-10.21-9.62-26.26,10.38-31.13c12.73,0.62,12.93,9.92,8.32,16.71
			C484.66,794.4,480.22,803.19,470.07,802.76z"/>
		<path class="st8" d="M438.94,844.26c6.33,1.17,9.57-2.68,10.18-7.87c0.82-6.96,0.83-13.63,10.57-12.88c0,10.38,0,20.75,0,31.13
			c-3.78,2.05-7.83,3.72-11.28,6.22c-9.06,6.56-8.69-0.57-9.47-6.22C438.94,851.18,438.94,847.72,438.94,844.26z"/>
		<path class="st10" d="M459.69,823.51c1.56-7.86-5.15-19.87,10.38-20.75C468.51,810.62,475.22,822.62,459.69,823.51z"/>
		<path class="st10" d="M490.83,750.88c0-3.46,0-6.92,0-10.38c5.04-0.37,9.64,0.66,8.23,6.87
			C498.67,749.08,493.7,749.74,490.83,750.88z"/>
		<path class="st6" d="M283.26,823.51c-6.92,10.38-13.84,20.75-20.76,31.13c-13.22-5.08-20.1,8.88-31.14,10.38
			c0-6.92,0-13.83,0-20.75c5.43-19.94,18.92-28.69,39.09-28.18C275.3,817.55,279.57,820.04,283.26,823.51z"/>
		<path class="st6" d="M231.37,875.39c-7.18,0.26-10.64-3.19-10.38-10.38c3.46,0,6.92,0,10.38,0
			C231.37,868.47,231.37,871.93,231.37,875.39z"/>
		<path class="st28" d="M200.23,688.63c1.48,10.74-0.67,19.99-10.58,26.16c-12.2,7.59-13.57,20.81-9.01,30.89
			c4.45,9.84,14.14,17.25,28.55,16.02c20.21-1.73,40.68-0.45,61.05-0.43c7.05,0.01,13.78,0.51,13.02,10.37
			c-15.96,21.03-36.42,35.31-62.27,41.5c-3.46,0-6.92,0-10.38,0c-6.92-6.87-13.84-0.89-20.76,0c-21.91-2.89-1.04-29.15-18.77-34.33
			c2.24-30.93-16.65-58.96-12.36-90.17c10.38,0,20.76,0,31.14,0C193.31,683.63,196.77,683.63,200.23,688.63z"/>
		<path class="st26" d="M220.99,813.13c14.78-17.13,44.92-37.22,62.27-41.5c10.38,0,20.76,0,31.14,0c0,6.92,0,13.83,0,20.75
			c-8.16,10.24-21.75,12.34-31.14,20.75c-2.89,4.03-6.8,7.03-10.38,10.38c-8.07,0.1-15.85-1.26-22.6,6.42
			c-5.05,5.74-8.76,14.76-18.91,14.33C211.37,839.4,224.94,823.34,220.99,813.13z"/>
		<path class="st20" d="M189.85,813.13c-0.75-9.74,5.92-10.95,12.89-10.17c5.19,0.58,9.04,3.85,7.87,10.17
			c-6.92,3.46-13.84,6.92-20.76,10.38C189.85,820.05,189.85,816.59,189.85,813.13z"/>
		<path class="st26" d="M169.1,854.63c0-3.46,0-6.92,0-10.38c3.46,0,6.92,0,10.38,0C179.74,851.44,176.28,854.9,169.1,854.63z"/>
		<path class="st16" d="M283.26,813.13c4.07-16.38,15.03-22.42,31.14-20.75c0,3.46,0,6.92,0,10.38
			C309.53,822.75,293.47,809.18,283.26,813.13z"/>
		<path class="st16" d="M272.88,823.51c-0.26-7.18,3.2-10.64,10.38-10.38c0,3.46,0,6.92,0,10.38
			C279.8,823.51,276.34,823.51,272.88,823.51z"/>
		<path class="st16" d="M511.59,657.51c0-9.77-0.03-19.54,0.01-29.3c0.03-7.08-1.39-12.84-10.39-12.2
			c0.89-15.52,12.89-8.81,20.76-10.38c0,13.16-0.02,26.32,0.01,39.48C521.98,652.18,520.79,658.18,511.59,657.51z"/>
		<path class="st21" d="M407.8,605.63c0.75,9.74-5.92,10.95-12.89,10.17c-5.19-0.58-9.04-3.85-7.87-10.17
			C393.96,605.63,400.88,605.63,407.8,605.63z"/>
		<path class="st10" d="M200.23,688.63c-3.46,0-6.92,0-10.38,0c-1.68-11.08-13.26-17.86-10.95-31.59
			c2.51-14.92-0.55-30.69,0.9-45.89c1.34-14.14-15.65-22.06-10.7-36.64c31.94-3.45,30.93,25.48,41.08,42.83
			c2.86,4.89,0.44,12.86,0.44,19.42c8.97,10.38,8.26,20.75,0,31.13c-3.68,3.24-6.78,7.06-10.38,10.38
			C200.23,681.71,200.23,685.17,200.23,688.63z"/>
		<path class="st5" d="M407.8,688.63c0-17.29,0-34.58,0-51.88c2.87-1.14,6.42-1.55,8.48-3.52c12.77-12.16,30.25-10.7,40.05-2.73
			c7.83,6.36,8.2,25.37-1.04,35.76c-9.51,10.69-4.19,21.89-5.98,32.75c1.46,10.7-0.48,20.2-10.6,25.99
			c-4.02,2.3-8.93,5.27-13.04,4.76c-8.98-1.12-7.66-8.96-7.52-15.52c0.11-5.07,0.02-10.15,0.02-15.23
			C414.46,695.81,411.74,691.61,407.8,688.63z"/>
		<path class="st29" d="M262.5,657.51c-3.46,0-6.92,0-10.38,0c-11.13-13.83-11.17-27.67,0-41.5c10.3,2.54,24.26-7.02,30.59,6.7
			c3.13,6.78,0.54,16.2,0.54,24.42C279.24,656.39,274.01,663.22,262.5,657.51z"/>
		<path class="st12" d="M345.53,678.26c-9.21,0.67-10.4-5.33-10.39-12.4c0.02-13.16,0.01-26.32,0.01-39.48
			c16.98-3.14,23.9,3.77,20.76,20.75c5.65,5.09,7.65,11.26,5.58,18.65c-0.74,4.66-2.6,8.82-5.58,12.47
			C352.45,681.51,348.99,681.51,345.53,678.26z"/>
		<path class="st11" d="M262.5,657.51c6.92-3.46,13.84-6.92,20.76-10.38s13.84-6.92,20.76-10.38c3.23,22.86-13.81,34.32-29.46,40.41
			C259.36,683.08,263.5,666.32,262.5,657.51z"/>
		<path class="st20" d="M252.12,616c0,13.83,0,27.67,0,41.5c-6.92,0-13.84,0-20.76,0c-3.75,3.94-7.76,4.04-11.99,0.82
			c-3.24-13.36,6.24-21.96,11.99-31.95c3.34-3.58,7.55-6.29,10.38-10.38C245.21,616,248.67,616,252.12,616z"/>
		<path class="st24" d="M231.37,626.38c5.08,13.22-8.88,20.1-10.38,31.13c2.65,2.31,3.53,4.61,2.65,6.92
			c-0.88,2.3-1.76,3.46-2.65,3.46c-3.46,0-6.92,0-10.38,0c0-10.38,0-20.75,0-31.13C217.53,633.3,224.45,629.84,231.37,626.38z"/>
		<path class="st21" d="M231.37,584.88c6.92,0,13.84,0,20.76,0c-0.85,9.07,4.41,22.87-12.89,20.47
			C226.55,603.59,232.8,592.24,231.37,584.88z"/>
		<path class="st18" d="M355.91,667.88c0-6.92,0-13.83,0-20.75c6.92,0,13.84,0,20.76,0c-1.56,7.86,5.15,19.87-10.38,20.75
			C362.83,671.55,359.37,671.55,355.91,667.88z"/>
		<path class="st18" d="M387.04,636.75c0.26,7.18-3.2,10.64-10.38,10.38C376.4,639.95,379.86,636.49,387.04,636.75z"/>
		<path class="st24" d="M241.75,616c0.26,7.18-3.2,10.64-10.38,10.38C231.1,619.2,234.56,615.74,241.75,616z"/>
		<path class="st16" d="M812.56,200.99c-7.18-0.26-10.64,3.19-10.38,10.38c-9.86,0.76-11.45-6.19-10.13-12.97
			c2.43-12.48,13.16-6.38,20.51-7.78C812.56,194.08,812.56,197.54,812.56,200.99z"/>
		<path class="st3" d="M345.53,678.26c3.46,0,6.92,0,10.38,0c0.37,5.04-0.66,9.64-6.88,8.23
			C347.33,686.1,346.67,681.12,345.53,678.26z"/>
		<path class="st24" d="M200.23,678.26c-0.26-7.18,3.2-10.64,10.38-10.38C210.87,675.06,207.42,678.52,200.23,678.26z"/>
		<path class="st16" d="M407.8,688.63c7.18-0.26,10.64,3.19,10.38,10.38C411,699.27,407.54,695.81,407.8,688.63z"/>
		<path class="st3" d="M355.91,667.88c3.46,0,6.92,0,10.38,0c0.26,7.18-3.2,10.64-10.38,10.38
			C355.91,674.8,355.91,671.34,355.91,667.88z"/>
		<path class="st28" d="M220.99,667.88c0-3.46,0-6.92,0-10.38c3.46,0,6.92,0,10.38,0C231.63,664.69,228.17,668.14,220.99,667.88z"/>
	</g>
</g>
</svg>
