<?xml version="1.0" encoding="utf-8"?>
<!-- Generator: Adobe Illustrator 23.1.0, SVG Export Plug-In . SVG Version: 6.00 Build 0)  -->
<svg version="1.1" id="Calque_1" xmlns="http://www.w3.org/2000/svg" xmlns:xlink="http://www.w3.org/1999/xlink" x="0px" y="0px"
	 viewBox="0 0 1125 928.26" style="enable-background:new 0 0 1125 928.26;" xml:space="preserve">
<style type="text/css">
	.st0{fill:#F71464;}
	.st1{fill:#B0967B;}
	.st2{fill:#FCE6A2;}
	.st3{fill:#FEFDC3;}
	.st4{fill:#DDB56C;}
	.st5{fill:#F4D48C;}
	.st6{fill:#FDF4B2;}
	.st7{fill:#FCEBDB;}
	.st8{fill:#E50F47;}
	.st9{fill:#B38948;}
	.st10{fill:#FEE4FC;}
	.st11{fill:#FED2EA;}
	.st12{fill:#C7984E;}
	.st13{fill:#AF813E;}
	.st14{fill:#AE7F3C;}
	.st15{fill:#D1A761;}
	.st16{fill:#C67B8C;}
	.st17{fill:#DAC3B7;}
	.st18{fill:#ECCB84;}
	.st19{fill:#FBC0D7;}
	.st20{fill:#C79B54;}
	.st21{fill:#DCAD5F;}
	.st22{fill:#F8105A;}
	.st23{fill:#23061C;}
	.st24{fill:#2E1F36;}
	.st25{fill:#F896B8;}
	.st26{fill:#7D6B81;}
	.st27{fill:#A18642;}
	.st28{fill:#C90C3A;}
	.st29{fill:#E1DB9E;}
	.st30{fill:#FEF9BB;}
	.st31{fill:#976258;}
	.st32{fill:#9C454C;}
	.st33{fill:#3C4A19;}
	.st34{fill:#817B36;}
	.st35{fill:#E8C47A;}
	.st36{fill:#BC904C;}
	.st37{fill:#C79B56;}
	.st38{fill:#400231;}
	.st39{fill:#2E1A31;}
	.st40{fill:#987A3F;}
	.st41{fill:#E8C174;}
	.st42{fill:#B58C4A;}
	.st43{fill:#A08B70;}
	.st44{fill:#3A2C46;}
	.st45{fill:#474362;}
	.st46{fill:#555830;}
	.st47{fill:#787354;}
	.st48{fill:#7A672F;}
	.st49{fill:#1D0317;}
	.st50{fill:#643E5B;}
	.st51{fill:#C6A4BF;}
</style>
<g>
	<g>
		<path class="st0" d="M129.67,50.75c58.42-5.91,105.76,17.81,147.92,55.36c41.92,12.3,49.41,52.74,68.61,83.64
			c16.31,43.66,44.8,65.71,93.4,53.99c10.73-2.59,22-2.36,30.4,7.36c-17.28,47.58-62.74,52.78-101.69,67.89
			c-17.44,1.58-34.79,3.68-51.62,9.04c-21.24,3.76-42.3,5.58-61.96-6.24c-11.5-11.02-13.28-25.54-14.47-40.23
			c0.38-29.71-10.24-55.72-27.35-79.45c-20.68-13.66-35.66-66.97-66.09-9.06c-6.57,45.66,1.78,88.36,24.7,128.33
			c0.78,5.59,0.48,11.08-0.94,16.55c-2.29,5.28-5.75,9.62-10.29,13.11c-2.55,1.17-5.12,2.3-7.68,3.48
			c-25.81-4.21-48.65-12.36-55.07-42.03c7.32-59.12,14.64-118.23,21.96-177.35c-6.93-9.85-5.72-20.05-1.31-30.38
			C121.35,86.62,114.81,66.41,129.67,50.75z"/>
		<path class="st1" d="M85.94,641.11C56.65,650.78,41.88,686.05,7,685.85c-2.15-7.53-4.3-15.06-6.45-22.58
			c0.01,0.01,2.18,1.53,2.18,1.53c19.37-13.41,7.91-39.28,22.1-54.77c3.85-3.6,8.44-5.45,13.71-5.6
			C54.83,615.97,86.93,607.19,85.94,641.11z"/>
		<path class="st2" d="M6.07,519.51c-9.19-15.47-10.15-31.02-0.5-46.69c82.28-10.25,164.79-16.68,246.79,0.09
			c34.6,7.07,68.45,17.85,104.06,18.92c34.52,1.04,57.69-9.31,56.09-50.62c-1.07-27.72,4.35-55.54,4.98-83.47
			c1.29-6.05,4.86-10.15,10.63-12.36c32.64-4.08,51.87,18.67,73.54,36.62c4.25,3.59,8.22,7.49,12.12,11.43
			c4.08,3.66,7.91,7.62,11.71,11.56c19.4,22.86,44.28,32.34,74,32.5c20.14,0.11,41.32-2.47,58.92,11.58
			c2.3,30.34-22.32,23.81-38.49,26.88c-16.34,3.1-33.59-0.02-49.87,5.02c-11.25,3.48-20.92,9.48-20.16,22.93
			c0.6,10.63,9.18,15.57,18.2,18.9c8.85,3.26,18.27,4.25,27.55,3.68c79.07-4.84,151.95-35.41,227.38-55.33
			c16.77-4.43,18.8-21.73,25.96-34.43c7.01-5.3,15-7.97,23.56-9.36c14.87-1.92,29.8-1.63,44.73-1.98
			c9.34-0.29,18.66-0.31,28.01-0.25c7.49,0.42-1.79-0.95,5.62,0c22.7,2.92,55.38-5.36,58.04,27.69c2.35,29.13-28.2,36.72-50.71,43.9
			c-108,34.45-216.47,67.51-327.84,89.57c-35.09,6.95-71.94,10.01-104.33-6.41c-43.68-22.14-89.09-23.54-135.79-22.54
			c-59.73,1.28-119.56,3.12-172.62-32.23c-15.87-10.58-31.75-1.92-48.16,1.04C114.73,536,59.49,546.77,6.07,519.51z"/>
		<path class="st3" d="M255.27,314.67c22.04,0.07,44.08,0.15,66.12,0.22c10.53-4.57,21.46-3.22,32.39-2.18
			c10.36,4.04,21.9,5.37,30.64,13.21c14.76,16.9,19.58,34.12,1.53,51.97c-15.56,9.71-34.35,8.49-50.85,14.8
			c-7.17,2.49-15.05,3.56-20.65,8.97c0.32-0.2,0.54,4.02,0.94,3.76c2.73-2.4,5.38-4.01,8.67-5.28c4.14-1.6,8.07-2.54,12.42-3.18
			c5.19-0.53,10.07-0.5,15.16-0.07c18.71,5.12,45.39,0.95,44.1,31.26c-1.07,25.36-19.45,39.4-41.59,47.37
			c-25.82,9.29-52,3.23-76.96-3.66c-47.27-13.06-93.52-17.54-143.03-9C94.8,469.64,52.74,467,16.95,441.87
			c-3.57-8.79-3.73-17.4,1.33-25.74c12.98-44.83,41.4-77.85,79.28-103.63c18.65,12.31,37.31,24.62,55.96,36.93
			c28.35,9.62,14.31-20.09,24.98-26.97c19.12-11.51,39.32-18.42,62.01-15.16C245.71,309.16,250.63,311.64,255.27,314.67z"/>
		<path class="st4" d="M42.19,607.53c-3.17,0.3-6.34,0.53-9.53,0.69c-10.56-3.83-12.47-12.59-12.67-22.3
			c-1.08-10.15-2.15-20.31-3.23-30.46c8.58-14.47,23.3-16.77,37.85-17.93c46.71-3.71,94.55,3.47,139.46-17.48
			c9.43-4.4,21.39,1.63,30.66,8.11c42.72,59.2,109.11,57.54,171.01,63.42c40.71,3.87,81.05,5.53,120.62,18.01
			c37.84,11.93,79.58,13.63,115.67,2.29c77.87-24.46,157.61-42.13,234.85-68.28c38.98-14.71,78.73-21.24,120.17-11.74
			c25.38,5.82,47.26-1.22,67.35-17.74c12.17-10,22.67-26.29,42.91-18.58c9.9,4.17,9.73,12.95,9.87,21.59
			c7.32,57.48-40.16,78.15-74.6,104.29c-28.61,21.72-50.52-4.63-70.43-23.84c-27.36-12.76-54.74-7.79-81.43,1.25
			c-54.54,18.47-109.97,34.32-163.71,55.38c-90.44,20.87-180.71,21.82-271.02-0.87c-48.84-12.27-100.49-3.83-148.93-19.24
			c-6.98-2.41,0.38,3.23-5.13-1.26C214.12,569.49,127.03,599.83,42.19,607.53z"/>
		<path class="st5" d="M221,541.26c-5.93-7.96-15.98-14.56-23.39-10.01c-56.97,34.97-120.92,14.1-180.85,24.21
			c0,0,0.11-0.68,0.11-0.68c0.6-6.34-5.04-9.24-7.63-13.81c-1.06-7.15-2.11-14.3-3.17-21.45c62-7.09,126.67,13.88,186.62-18.32
			c5.95-3.19,19.29,0.93,25.69,6.04c49.52,39.62,107.66,34.97,165.2,34.05c51.99-0.83,101.98-0.32,151.32,25.81
			c46.78,24.77,99.42,5.1,147.02-6.75c93.21-23.2,185-52.25,276.82-80.69c15.22-4.72,44.89-2.47,39.25-28.57
			c-4.18-19.35-29.03-7.09-44.38-10.26c-5.41-1.12-11.12-0.77-16.69-1.08c21.07-39.52,48.96-26.55,77.32-10.06
			c4.55,3.68,9.1,7.35,13.64,11.03c5.99,6.37,16.22,4.35,22.01,11.11l0.36,0.18c4.23,3.48,7.32,8.57,13.43,9.36l0.15-0.44
			c-3.16,50.03-43.17,56.74-79.02,61.85c-70.18,10-139.73,21.14-206.12,46.9c-5.35,2.35-10.98,3.78-16.77,4.43
			c-25.94,1.51-49.35,10.89-71.75,23.49c-69.84,30.75-139.78,32.45-210.18,1.67c-44.54-19.47-91.89-5.14-137.85-9.6
			C295.72,585.14,254.85,573.88,221,541.26z"/>
		<path class="st6" d="M19.19,440.39c52.35,5.26,104,19.43,157.38,1.25c28.76-9.8,57.82,6.69,86.73,11.38
			c18.07,2.93,36.39,5.53,53.83,10.83c32.61,9.9,62.25-3.63,66.75-31.03c5.65-34.38-36.06-11.31-50.83-26.09
			c-2.68-2.73-3.79-5.63-3.32-8.7c0.48-3.15,1.12-4.73,1.84-4.72c12.37-12.95,34.87-2.64,45.5-19.73
			c20.57-14.13,8.26-28.75,0.64-43.3c23.76-15.24,38.2-7.07,45.82,18.24c25.46,39.97-6.49,82.89,6.41,125
			c4.91,16.03-17.66,32.46-38.17,33.06c-25.9,0.75-54.14,4.06-77.47-4.44c-92.81-33.84-188.07-19.08-282.6-20.63
			c-8.76-0.14-17.43-5.64-26.15-8.66c1.48-10.78,2.95-21.56,4.43-32.34C13.01,434.86,16.08,435.1,19.19,440.39z"/>
		<path class="st7" d="M19.99,585.92c4.21,7.44,8.42,14.88,12.65,22.31c-10.15,18.75-7.76,44.14-29.9,56.57
			c2.1-18.74,4.2-37.48,6.31-56.23c5.83-6.4,3.81-16.36,10.22-22.5C19.27,586.08,19.99,585.92,19.99,585.92z"/>
		<path class="st1" d="M19.27,586.08c2.06,9.98-3.18,16.66-10.22,22.51C6.71,598.46,11.72,591.7,19.27,586.08z"/>
		<path class="st2" d="M19.19,440.39c-3.06,0-6.13,0.03-9.19,0.09c-1.68-9.63-0.74-18.36,8.27-24.35
			C18.58,424.21,18.89,432.3,19.19,440.39z"/>
		<path class="st4" d="M9.24,540.96c2.55,4.6,5.1,9.2,7.64,13.8C10.07,552.52,8.18,547.56,9.24,540.96z"/>
		<path class="st8" d="M873.02,438.74c-8.09,1.2-16.18,2.4-24.27,3.61c-62.74,19.41-126.02,29.48-190.95,11.02
			c-53.12-1.77-113.17,17.9-145.81-47.18c-3.51-3.49-7.09-6.91-10.74-10.26l-0.44-0.41c-5.43-7.35-6.8-14.97-1.6-23.02
			c9.35-4.25,18.19-1.68,26.22,3.16c81.88,49.39,161.67,22.49,238.19-11.33c57.71-25.51,61.89-72.99,17.07-117.83
			c-4.07-3.94-7.52-8.32-10.64-13.02c-9.02-30.64-51.23-51.23-27.92-91.74c8.53-4.71,17.68-6.96,27.36-7.5
			c49.63,1.76,100.57-10.24,147.94,14.32c3.72,0.11,7.46,0.07,11.17,0.35c87.42,6.61,92.05,16.32,42.49,88.94
			c-34.51,46.96-12.3,110.43-45.78,157.74C915.6,419.31,897.46,432.86,873.02,438.74z"/>
		<path class="st9" d="M870.45,876.33c-76.22,12.95-152.72,24.52-228.48,39.77c-20.21,4.07-39.92,6.31-60.15,7.22
			c-22.31,9.82-34.69-2.52-31.67-21.68c8.01-50.75-25.67-42.06-54.28-41.52c-24.15,0.46-46.7,9.4-70.02,14.22
			c-28.34,5.86-57.87,15.44-82.77-9.88c6.31-31.07,42.6-28.16,58.13-52.98c18.91-30.23,17.11-44.72-14.04-59.88
			c-75.31-36.65-140.14-94.28-224.89-112.14c16.6-38.55,48.87-35.92,80.03-27.22c30.49,8.51,58.54,24.41,82.95,44.98
			c49.34,41.58,106.9,59.03,170.29,60.51c8.65,0.53,17.15,2.03,25.55,4.08c8.3,1.65,16.3,4.68,24.8,5.46
			c24.22,1.86,48.54,1.95,72.71,0.95c41.15-1.71,73.94,14.29,94.82,48.42c25.74,42.06,60.75,58.31,108.45,49.76
			C850.52,830.91,871.79,842.65,870.45,876.33z"/>
		<path class="st10" d="M321.93,70.89c76.31-58.96,164.29-73.39,257.6-67.47c4.76,5.76-0.94-1.68,3.76,4.14
			c71.09,87.99,59.68,124.33-50.86,152.61c-28.51,7.29-49.53,23.81-72.8,38.99c-45.46,29.65-78.07,21.25-103.09-27.28
			c-7.55-14.65-20.65-20.71-30.34-31.47c-15.13-16.81-30.45-34.11-15.88-59.13l-0.26,0.21C314.55,78.54,317.74,74.15,321.93,70.89z"
			/>
		<path class="st11" d="M310.33,81.27c9.13,27.06,10.61,60.52,51.78,60.31c8.79-0.05,10.26,5.73,11.87,14.25
			c9.56,50.72,36.53,66.13,73.6,34.57c34.28-29.18,72.33-40.29,112.74-52.58c64.4-19.58,70.87-40.01,32.16-93.23
			c-9.51-13.08-13.43-25.94-12.95-41.18C646.8-3.8,708.09,19.38,769.71,40.84c22.5,31.06,4.59,54.56-15.71,76.19
			c-13.52,14.41-32.56,22.63-46.63,36.82c-50.34,29.1-107.98,39.61-160.62,62.94c-7.6,2.7-15.36,4.84-23.28,6.28
			c-5.22,0.6-10.43,0.3-15.55-0.81c-10.15-3.37-18.95-7.78-31.07-1.41c-83.89,44.07-85.52,43.43-141.94-28.44
			c-19.11-28.77-38.21-57.54-57.32-86.3C288.5,97.83,299.42,89.55,310.33,81.27z"/>
		<path class="st12" d="M164.97,642.05c57.71-8.62,104.44,13.52,146.37,50.95c30.9,27.58,70.8,39.71,106.68,58.62
			c27.39,14.44,30.99,29.12,7.77,49.98c-24.52,22.03-35.42,64.52-81.51,53.91c-54.53,26.38-102.19,9.82-147.1-23.49
			c8.69-33.48,33.46-19.38,53.04-16.8c27.54,3.63,53.7,16.07,82.35,13.3c12.98-1.26,22.48-4.67,12.27-20.12
			c-24.41-51.43-65.22-43.22-107.5-29.69c-36.25,2.41-70.75-9.47-106.29-12.77c-27.36-32.49-19.58-75.58-33.8-112.03
			C113.51,613.93,138.95,626.35,164.97,642.05z"/>
		<path class="st13" d="M164.97,642.05c-22.58,3.93-48.16-9.22-67.74,11.86c-3.76-4.26-7.53-8.52-11.3-12.79
			c-1.9-27.75-47.28,1.23-43.76-33.57c1.07-16.03,10.25-22.15,25.57-21.69c43.94,1.34,87.77,4.96,128.66-18.86
			c14.8-8.62,27.81,4.66,37.91,15.53c15.31,16.48,33.34,28.66,53.9,37.37c104.96,21.43,210.08,40.87,317.98,39.81
			c18.68-0.18,44.72-11.69,54.83,13.05c8.74,21.4-7.97,38.22-23.17,52.67c-44.83,17.3-91.44-3.04-136.67,6.37
			c-83.43,5.92-149.08-31.91-211.79-81.7C252.06,620.43,209.19,601.01,164.97,642.05z"/>
		<path class="st14" d="M198.4,821.64c43.67,32.6,94.99,32.31,145.87,33.87c29.91,20.61,60.69,12.1,90.15,0.49
			c37.87-14.93,76.88-12.31,115.9-11.85c25.45,0.3,35.63,11.47,20.51,35.05c-12.52,19.52-23.81,37.06,10.96,44.12
			c-146.98,12.57-289.83,8.36-406.97-100.26C182.27,815.6,190.15,815.6,198.4,821.64z"/>
		<path class="st15" d="M972.55,585.93c24.62,40.76,51.1,41.1,79.71,3.93c18.53-24.08,51.01-37.59,54.94-72.72
			c46.66,113.12-35.55,276.77-157.49,321.07c-12.34-23.52,6.57-38.08,16.97-53.91c14.14-21.53,31.4-41.1,43.9-63.73
			c7.69-13.93,24.91-28.63,15.02-44.15c-7.01-11-22.63,4.8-35.17,5.03c-15.29,0.28-24.14-6.87-28.95-20.65
			c-5.02-23.38-6.82-46.53,4.45-68.82C968.11,589.95,970.33,587.94,972.55,585.93z"/>
		<path class="st16" d="M916.37,394.16c7.91-38.68,28.48-74.47,16.18-117.49c-7.37-25.78,24.27-26.83,38.55-38.82
			c30.46,60.32,41.11,125.11,43.16,191.83c-25.73,3.69-53.56-8.78-77.32,10.06c-6.87-1.03-13.72-2.06-20.58-3.09
			c-7.62-9.07-6.09-18,3.64-22.97C942.86,402,914.15,401.2,916.37,394.16z"/>
		<path class="st17" d="M870.45,876.33c-14.49-14.77-28.97-29.54-43.46-44.3c-14.67-4.17-20.75-15.47-24.2-29.03
			c-5.17-35.07-1.8-68.21,32.8-86.89c26.89-14.51,53.68-11.72,74.75,13.8c11.43,21.79,10.33,45.39,9.96,68.91
			c0.88,20.41-1.29,40.07-14.47,56.91c-1.3,3.32-2.55,6.66-3.76,10.01c-6.3,13.75-14.07,23.5-30,10.99L870.45,876.33z"/>
		<path class="st18" d="M770.1,563.64c65.64-44.1,144.33-37.76,216.87-54.8c32.83-7.71,59.34-18.84,76.87-47.93
			c17.52,5.4,27.8,17.8,33.49,34.63c-39.2,43.42-81.57,69.44-145.06,47.74c-23.3-7.96-53.93,5.52-81.21,9.22
			C837.98,561.42,805.75,578.05,770.1,563.64z"/>
		<path class="st19" d="M702.84,148.53c2.35-28.36,32.23-26.37,46.14-41.9c16.75-18.7,23.38-40.84,20.73-65.79
			c52.27,23.86,101.66,51.78,138.23,97.82c-49.83,13.25-101.61-4.31-151.41,9.55c-6.5,0.68-13.01,1.36-19.51,2.05
			C725.13,159.56,713.76,158.55,702.84,148.53z"/>
		<path class="st20" d="M905.83,855.73c-0.03-18.92-0.07-37.83-0.1-56.75c32.36-27.28,78.56-47.48,46.72-104.87
			c-5.67-10.22-3.66-30.32,19.12-29.75c13.93,18.44,25.85,1.45,38.53-2.18c12.23-3.5,21.45-27.53,36.27-8.99
			c9.99,12.49,0.13,27.69-5.43,41.48c-21.56,53.53-68.61,90.72-91.24,143.5C936.67,848.03,922.19,854.24,905.83,855.73z"/>
		<path class="st21" d="M198.4,821.64c-7.86,0.47-15.71,0.94-23.57,1.41c0,0,0.27-0.41,0.27-0.41c-2.13-5.63-6.78-8.74-11.64-11.64
			c-16.21-11.13-24.99-27.61-32.42-45.06c37.48-30.6,75.06,11.04,112.56-0.16c23.77,55.66,68.18,42.79,111.49,33.58
			c12.33,5.95,24,13.74,17.21,29.26c-5.83,13.33-19.76,14.13-33.12,15.31C290.29,848.24,246.94,818.68,198.4,821.64z"/>
		<path class="st22" d="M756.54,148.22c49.46-18.94,101.01-4.94,151.39-9.56c3.17,3.3,6.33,6.6,9.5,9.9
			C863.8,148.44,810.17,148.33,756.54,148.22z"/>
		<path class="st17" d="M872.07,876.73c10-3.66,20-7.33,30-10.99C900.27,891.76,890.12,895.01,872.07,876.73z"/>
		<path class="st18" d="M1049.9,451.81c-9.18-0.06-17.18-2.45-22.01-11.11C1037.11,440.67,1045.02,443.25,1049.9,451.81z"/>
		<path class="st18" d="M1063.69,461.35c-4.48-3.12-8.95-6.24-13.43-9.36C1054.74,455.11,1059.22,458.23,1063.69,461.35z"/>
		<path class="st14" d="M163.46,811c3.88,3.88,7.76,7.75,11.64,11.64C171.22,818.76,167.34,814.88,163.46,811z"/>
		<path class="st11" d="M321.93,70.89c-3.95,3.53-7.91,7.06-11.86,10.59C314.02,77.95,317.98,74.42,321.93,70.89z"/>
		<path class="st22" d="M702.84,148.53c11.39,0.58,22.79,1.16,34.18,1.74c14.65,26.21,29.3,52.43,43.94,78.64
			c-20.66,16.86-45.43,12.99-69.24,13.89c-8.33-0.04-16.71-0.19-25.03,0.01c-31.62,2-60.12,15.09-89.31,25.66
			c-4.58,2.32-9.31,4.32-14.01,6.35c-48.94,13.2-56.63,61.18-80.5,95.47c-0.69,8.41-1.38,16.82-2.07,25.23
			c-22.31-15.97-44.61-31.94-66.92-47.91c-17.52-21.66-43.01-24.16-67.86-28.23c-2.62-3-3.46-5.96-2.53-8.9
			c0.92-2.93,1.82-4.39,2.7-4.39c38.25-10.74,72.35-28.87,101.04-56.66c-0.19-33.4,28.46-24.69,46.32-31.73
			c3.35-0.6,6.52-1.72,9.51-3.37c4.44-2.53,8.68-5.38,12.73-8.5C591.48,186.74,647.16,167.64,702.84,148.53z"/>
		<path class="st23" d="M243.08,315.08c-22.42,4.68-44.84,9.36-67.26,14.05c-2.17-0.86-4.34-1.71-6.51-2.57
			c-45.54-39.46-48.48-89.31-34.89-143.18C186.32,214.35,219,261.16,243.08,315.08z"/>
		<path class="st24" d="M243.08,315.08c-36.22-43.9-72.45-87.79-108.67-131.7c28.52-52.16,37.49-51.27,86.94,8.71
			c2.56,29.78,2.09,60.81,32.77,78.92c0.38,14.56,0.76,29.11,1.14,43.67C251.21,314.81,247.14,314.95,243.08,315.08z"/>
		<path class="st25" d="M513.57,217.71c-15.44,10.58-30.88,21.15-46.32,31.73c-85.04,22.19-102.49,14.67-132.33-57.03
			c7.68,1.72,11.16-21.15,19.5-5.48c34.44,64.73,61.56,71.99,114.25,20.45C495.7,180.93,502.25,198.91,513.57,217.71z"/>
		<path class="st26" d="M254.12,271.01c-63.86-4.32-45.88-42.61-32.76-78.9C241.72,214.48,256.21,239.3,254.12,271.01z"/>
		<path class="st27" d="M169.31,326.56c2.81-0.76,4.98,0.09,6.52,2.57c3.74,12.55,21.48,25.94,6.4,37.21
			c-8.7,6.5-27.87,3.87-28.72-16.91c0.01,0-0.48,1.45-0.48,1.45c5.21-3.18,8.31-8.52,12.79-12.45
			C166.98,334.47,168.14,330.52,169.31,326.56z"/>
		<path class="st28" d="M366.21,306.1c0.21,3.11,0.12,6.21-0.27,9.31c-2.46,5.77-6.23,6.81-11.29,3.11
			c-11.08-1.21-22.15-2.41-33.24-3.62C334.27,301.48,350.92,307.24,366.21,306.1z"/>
		<path class="st29" d="M165.82,338.43c-4.27,4.15-8.53,8.3-12.79,12.44C157.29,346.73,161.55,342.58,165.82,338.43z"/>
		<path class="st30" d="M657.8,453.36c63.4-8.02,126.71-17.62,190.95-11.02c24.79,17.47,13.02,33.87-6.52,38.67
			c-85.85,21.11-167.81,59.12-258.34,60.39c-28.85,0.4-56.7-7.12-57.37-38.57c-0.68-31.95,26.97-38.88,55.88-39.9
			C607.62,462.06,634.64,471.35,657.8,453.36z"/>
		<path class="st31" d="M916.37,394.16c7.34,0.44,14.69,0.77,22.03,1.33c11.2,0.86,25.44,2.3,24.62,15.64
			c-0.58,9.5-14.78,7.28-23.47,7.51c-12.48,0.33-21.34,4.47-23.21,18.02c-14.44,0.69-28.9,1.38-43.34,2.08
			C887.47,423.88,901.92,409.02,916.37,394.16z"/>
		<path class="st32" d="M354.65,318.51c3.77-1.03,7.54-2.06,11.3-3.1c25.73,4.23,56.59-2.36,67.95,32.2
			c-3.45,0.37-6.91,0.67-10.37,0.88c-13.53-10.47-28.43-17.49-45.82-18.24C370.02,326.34,362.33,322.43,354.65,318.51z"/>
		<path class="st22" d="M501.25,395.93c3.58,3.42,7.17,6.84,10.74,10.26C508.41,402.77,504.83,399.35,501.25,395.93z"/>
		<path class="st33" d="M377.07,373.55c8.96,46.39-30.81,9.57-40.67,23.82c-12.98,5.99-14.97-1.21-14.14-11.79
			C338.2,370.94,357.63,372.21,377.07,373.55z"/>
		<path class="st34" d="M322.26,385.58c4.71,3.93,9.41,7.87,14.13,11.79c-0.86,3.2-1.98,6.31-3.34,9.34
			c-3.81,1.32-7.62,2.64-11.43,3.96c-4.44,1.02-7.69,3.56-9.76,7.62l-1.1,0.76c-10.33,3.29-14.41-1.91-15.38-11.33
			C304.34,400.34,313.3,392.96,322.26,385.58z"/>
		<path class="st6" d="M295.38,407.72c2.19,7.76,7.82,10.86,15.38,11.33c-4.12,6.09-9.8,10.73-16.56,5.73
			C287.29,419.68,290.03,413.11,295.38,407.72z"/>
		<path class="st6" d="M311.85,418.29c3.25-2.54,6.5-5.08,9.75-7.63C318.36,413.21,315.11,415.75,311.85,418.29z"/>
		<path class="st35" d="M770.1,563.64c33.65-3.71,67.3-7.42,100.95-11.13c-126.92,37.91-247.39,107.22-389.43,64.6
			c-52.06-15.62-109.37-13.79-164.3-19.84c-40.4-4.45-75.81-17.41-96.33-56.01c59.39,36.02,123.28,44.19,191.36,34.24
			c29.24-4.28,56.35,3.93,85.15,16.79c63.71,28.45,130.31,23.66,194.18-6.19c20.79-12.37,45.38-13.33,67.28-22.37
			C762.68,563.7,766.39,563.67,770.1,563.64z"/>
		<path class="st36" d="M635.87,720.34c27.5-47.62,10.7-58.17-39.74-56.75c-104.61,2.94-208.36-7.44-307.9-43.7
			c102.19,2.81,201.02,33.94,303.77,34.67c45.29,0.32,88.2-14.66,133.07-12.66c4.72-2.78,9.72-4.51,15.11-5.89
			c17.04-4.38,34.53-19.55,51.37-4.98c18.78,16.26,8.71,36.79,1.84,55.73c-7.27,14.88-19.36,24.37-34.29,30.73
			c-14.6,5.32-29.87,6.68-45.24,7.36C687.83,724,660.61,743.09,635.87,720.34z"/>
		<path class="st37" d="M781.49,687.81c13.19-56.08,13.19-56.08-56.43-45.9c80.44-27.7,153.69-87.25,247.48-55.98
			c0.01,0-0.91,0.32-0.91,0.32c-8.65,8.83-9.81,21.2-14.9,31.74c-4.72,8.8-10.76,16.55-18.23,23.19
			c-23.63,21.95-54.89,23.16-83.72,30.95c-13.49,4.64-26.68,10.24-40.4,14.23c-6.63,2.23-13.36,4.16-20.25,5.56
			C789.29,692.51,785.07,691.11,781.49,687.81z"/>
		<path class="st18" d="M758.97,563.72c-19.46,16.39-42.69,21.43-67.28,22.37C709.35,564.31,733.74,562.75,758.97,563.72z"/>
		<path class="st38" d="M502.88,370.29c-0.4-54.18,28.16-87.72,76.43-107.2c13.79,18.5-3.73,27.66-11.77,39.67
			c-2.62,2.42-5.98,4.35-7.86,7.24c-2.95,4.57-12.09,5.58-8.44,14.05c1.71-5.63,6.1-8.29,11.46-10.21
			c5.42,0.72,9.56,3.15,12.59,7.54c30.23,51.31,70.55,62.01,123.48,32.84c24.55-13.53,43.61-32.88,59.4-55.65
			c3.9-5.85,8.2-11.48,11.86-17.46c4.58-8.12,4.47-17,3.97-25.97c0.2-7.2,1.96-13.69,8.2-18.11
			c46.61,24.48,61.21,70.49,34.01,107.21C760.91,418.95,568.41,434.95,502.88,370.29z"/>
		<path class="st39" d="M782.23,237.04c-0.05,7.93-0.1,15.86-0.15,23.79c-0.3,1.98-0.6,3.96-0.87,5.93
			c-0.38,3.97-0.27,7.93,0.32,11.87c0.42,1.95,0.81,3.89,1.2,5.84c-4.81,3.82-9.62,7.63-14.44,11.45
			c-35.5,31.58-80.19,37.31-124.45,43.12c-21.7,2.85-40.11-5.76-52.82-24.39c-7.88-16.38,2.32-30.09,15.08-27.42
			c51.92,10.88,76.84-18.12,96.43-58.18c26.14-0.05,52.29-0.1,78.43-0.15C781.1,231.66,781.52,234.37,782.23,237.04z"/>
		<path class="st40" d="M635.87,720.34c26.29-3.45,52.58-6.89,78.87-10.34c27.84,32.24,41.78,77.53,87.41,92.97
			c4.88,1.29,9.04,3.85,12.49,7.56c4.11,7.17,8.22,14.33,12.34,21.5c-54.52,21.24-89.04,10.5-114.75-33.76
			c-20.63-35.51-47.42-60.7-93.8-55.74c-27.57,2.95-55.73,0.43-83.63,0.38c-3.64-3.76-7.37-7.41-11.21-10.96
			c-7.47-0.05-14.94-0.1-22.4-0.16C544.42,708.37,591.18,726.61,635.87,720.34z"/>
		<path class="st13" d="M523.59,731.94c3.74,3.66,7.47,7.31,11.21,10.96C531.06,739.25,527.33,735.59,523.59,731.94z"/>
		<path class="st25" d="M535.8,205.85c-4.24,2.84-8.49,5.67-12.73,8.5C527.32,211.51,531.56,208.68,535.8,205.85z"/>
		<path class="st41" d="M355.08,799.37c-29.48,37.88-65.21,23.3-99.74,10.81c-23.23-8.4-23.77-25.36-11.75-44.4
			C293.08,736.05,328.84,751.91,355.08,799.37z"/>
		<path class="st42" d="M949.66,608.93c3.78-10.99,11.2-18.47,21.97-22.69c-0.02,26.04-0.04,52.08-0.06,78.12
			c-14.13,11.35-11.64,25.22-6.98,40.15c4.84,15.48,37.24,23.33,16.27,44.99c-20.91,21.6-36.86,53.34-75.15,49.48
			c-0.72-21.81-1.44-43.61-2.17-65.42c-6.16-15.89-19.83-27.45-25.39-43.61c-6.1-13.11-23.16-13.99-29.84-26.45
			c28.97-14.92,64.1-12.66,91.24-32.69C947.63,625.69,956.76,621.05,949.66,608.93z"/>
		<path class="st43" d="M892.97,675.43c3.54,19.37,7.07,38.73,10.6,58.11c-68.48-28.11-90.57-8.98-88.93,76.99
			c-3.48-0.04-6.96-0.15-10.44-0.34c-29.74-9.06-39.24-32.69-43.46-60.21C781,699.74,830.91,671.62,892.97,675.43z"/>
		<path class="st44" d="M702.54,229.05c-8.54,65.31-19.01,73.67-82.87,66.57c-11.14-1.24-21.79-0.26-28.76,10.42
			c-3.89,10.34-10.44,16.27-22.28,13.42l-0.84-2.65c-8.09-4.44-4.36-14.58-9.8-20.3c4.1-13.06,22.96-16.7,21.32-33.42
			c3.75-0.98,7.51-1.96,11.27-2.94c34.05,3.13,67.28,3.73,89.81-28.91C687.78,230.51,695.16,229.78,702.54,229.05z"/>
		<path class="st45" d="M680.4,231.25c-24.84,62.02-28.79,63.29-89.82,28.91C618.08,242.89,648.15,233.68,680.4,231.25z"/>
		<path class="st46" d="M770,754.24c11.4,18.65,22.8,37.3,34.2,55.95c-2.58,2.51-6.66,7.66-7.53,7.16
			c-42.44-24.13-77.4-54.22-81.93-107.35c14.72-0.7,29.45-1.4,44.17-2.09C775.76,720.2,756.88,741.05,770,754.24z"/>
		<path class="st47" d="M770,754.24c-16.42-12.39-9.41-30.4-11.1-46.33c7.53-6.72,15.06-13.42,22.59-20.12
			c3.72-0.65,7.43-1.3,11.14-1.96c4.05-3.08,7.89-6.4,11.55-9.93c14.72-4.13,29.43-8.26,44.15-12.4
			c15.11,3.12,33.16-4.77,44.64,11.92C847.74,695.1,790.15,695.46,770,754.24z"/>
		<path class="st48" d="M949.66,608.93c10.46,4.27,14.02,12.73,9.02,21.92c-4.88,8.97-12.65,1.39-19.12-0.03
			C942.93,623.52,946.3,616.22,949.66,608.93z"/>
		<path class="st36" d="M804.18,675.91c-3.85,3.32-7.7,6.63-11.55,9.94C796.48,682.53,800.33,679.22,804.18,675.91z"/>
		<path class="st49" d="M568.64,319.47c7.42-4.48,14.85-8.95,22.28-13.42c40.28,39.14,83.17,11.5,124.5,3.44
			c17.62-3.44,33.37-16.05,52.91-13.57c-29.17,68.59-92.84,100.19-157.88,82.39C577.69,369.34,563.81,352.45,568.64,319.47z"/>
		<path class="st50" d="M558,296.51c9.24,3.89,9.86,11.94,9.8,20.31c-1.37,1.27-2.82,2.45-4.07,3.82
			c-10.41,11.49-5.69,35.21-28.89,36.05c-2.84,0.1-7.58-3.02-8.45-5.64c-6.86-20.73,10.8-29.26,21.31-41.4
			C551.34,305.45,554.58,300.9,558,296.51z"/>
		<path class="st39" d="M782.08,260.83c10.98,7.58,10.25,15.49,0.66,23.65c0,0-1.1-0.67-1.1-0.67c-7.26-6.94-6.29-14.25-1-21.76
			L782.08,260.83z"/>
		<path class="st51" d="M780.65,262.05c0.33,7.25,0.67,14.51,1,21.76c-6.72-1.58-18.94-2.49-19.23-4.85
			C760.96,266.97,772.86,266.15,780.65,262.05z"/>
	</g>
</g>
</svg>
