<?xml version="1.0" encoding="utf-8"?>
<!-- Generator: Adobe Illustrator 23.1.0, SVG Export Plug-In . SVG Version: 6.00 Build 0)  -->
<svg version="1.1" id="Calque_1" xmlns="http://www.w3.org/2000/svg" xmlns:xlink="http://www.w3.org/1999/xlink" x="0px" y="0px"
	 viewBox="0 0 1125 1113.21" style="enable-background:new 0 0 1125 1113.21;" xml:space="preserve">
<style type="text/css">
	.st0{fill:#C8C0A5;}
	.st1{fill:#E9DFC2;}
	.st2{fill:#FCFCE3;}
	.st3{fill:#FBF7E0;}
	.st4{fill:#D9D0B4;}
	.st5{fill:#FCF3D4;}
	.st6{fill:#CDC6AB;}
	.st7{fill:#908367;}
	.st8{fill:#C1B599;}
	.st9{fill:#B22902;}
	.st10{fill:#FAF8DA;}
	.st11{fill:#BBB49A;}
	.st12{fill:#F8F4D8;}
	.st13{fill:#780200;}
	.st14{fill:#D93801;}
	.st15{fill:#F5E494;}
	.st16{fill:#A4997D;}
	.st17{fill:#C1B99E;}
	.st18{fill:#D0AC64;}
	.st19{fill:#E2D8BB;}
	.st20{fill:#9D9781;}
	.st21{fill:#F5ECCD;}
	.st22{fill:#0A0803;}
	.st23{fill:#585547;}
	.st24{fill:#6F6956;}
	.st25{fill:#494637;}
	.st26{fill:#FDFDFD;}
	.st27{fill:#434140;}
	.st28{fill:#B06814;}
</style>
<g>
	<g>
		<path class="st0" d="M946.31,514.12c103,117.69,12.06,280.78-99.61,326.47c-46.06,18.85-98.58,23.93-135.77,62.22
			c-23.84,2.43-47.63,5.9-71.56,6.93c-26.1,1.13-42.55-10.02-42.6-38.52c18.35-31.94,3.67-82.6,54.14-96.55
			c12.82,11.26,12.82,11.26,15.84,2.8c5.86-58.61-40.35-27.39-62.84-36.87c-6.84-8.47-8.94-18.67-10.79-28.97
			c2.37-30.1-38.26-42.21-31.21-74.27c41.11-12.99,79.12-15.67,111.63,21.77c29.49,33.97,27.02-12.86,41.13-18.47
			c10.71-8.9,23.5-4.88,35.49-5.77c12.62-0.45,21.35-11.02,33.43-13.01c56.06,27.36,64.29,76.22,22.81,126.14
			c-13.27,15.96-46.46,31.75-33.76,48.61c10.25,13.61,38.3-12.83,58.44-21.65c48.47-21.22,79.93-50.22,53.66-108.58
			c-4.79-10.63-4.64-25.75,4.4-31.7C933.18,605.71,935.02,557.9,946.31,514.12z"/>
		<path class="st1" d="M17.18,368.23c4.6-21.33,9.31-42.62,23.59-60.15c10.32,0.71,20.67,0.34,31.01,0.68
			c83.08-5.43,154.99,20.94,216.64,76.35c12.58,11.31,25.08,22.76,39.65,31.46c33.06,19.75,68.21,26.9,99.7,0.68
			c29.15-24.27,42.51-56.99,28.36-95.87c-5.79-15.92-9.42-32.45-14.27-48.62c-6.51-29.79-11.9-60.09-38.4-80.26
			c-5.44-4.45-10.54-9.31-15.45-14.31c-4.81-4.46-9.69-8.91-15.07-12.77c-3.84-2.1-7.6-4.3-11.5-6.28
			c-10.03-4.88-21.97-6.55-28.73-16.94c-2.35-7.19-1.75-13.75,4.12-19.16c35.58,4.24,65.68,22.27,95.42,39.94
			c16.44,9.77,32.94,15.56,51.61,16.45c5.99,5.3,6.74,11.91,4.84,19.19c2.48,4.56-12.84,5.56-2.25,11.77
			c3.43,3.35,6.11,7.16,8.21,11.44c8.74,20.07,12.06,41.37,14.67,62.83c1.33,12.79,10.71,21.55,16.31,32.25
			c3.65,7.43,6.06,15.21,7.58,23.36c26.45,70.75-7.86,115.18-64.7,149.97c-27.32,10.14-55.73,7.68-83.95,7.41
			c-18.57,0.09-37.12-0.19-54.77-7.1c-79.39-20.99-136.45-86.72-217.51-106.79C80.47,375.9,44.3,398.52,17.18,368.23z"/>
		<path class="st2" d="M336.84,123.05c0.01,5.31,0.01,10.63,0.02,15.94c1.57,9.6-5.63,9.2-11.49,10.2c-0.34,1.58-7.54-4.62-3,2.72
			c1.89-2.54,4.62-3.27,8.32-2.2c13.82,1.54,28.62-4.24,40.98,6.17l-1.31-0.32c4.2,5.33,5.84,11.35,5.02,18.08
			c-28.18,123.91-62.32,144.03-184.08,98.06c-35.13-13.26-76.48,2.17-106.11-27.73c27.01-33.18,55.35-65.11,98.05-78.07
			c17.27-5.25,20.23-20.15,27.55-32.51c10.5-9.38,17.7-26.37,36.79-15.99C278.5,100.69,307.06,121.61,336.84,123.05z"/>
		<path class="st3" d="M483.32,200.45c0.19-7,0.38-14,0.57-21c67.38-13.2,132.85-31.85,192.32-67.57
			c17.43-14.97,36.79-26.54,58.87-33.4c14.87-2.08,29.7-3.94,38.27,12.79c4.66,2.81,9.32,5.62,13.98,8.43
			c27.93,42.63,4.43,72.72-28.69,93.63c-61.45,38.79-125.82,72.89-199.25,84.4c-11.72-0.3-22.13-4.4-31.53-11.22
			c-19.6-14.43-32.06-34.61-43.8-55.35l0.05,0.04c-2.74-2.2-3.77-4.53-3.09-6.98C481.71,201.71,482.48,200.45,483.32,200.45z"/>
		<path class="st4" d="M946.31,514.12c11.92,50.37,10.95,94.9-44.8,121.59c-18.32,8.77-5.68,25.47-0.54,39.19
			c20.56,54.85,12.25,74.71-42.16,100.49c-30.01,14.22-55.3,38.29-89.27,43.97c-10.71,1.79-25.32,4.38-31.46-5.51
			c-9.16-14.75,6.62-22.97,14.96-31.88c15.28-16.32,31.98-31.32,47.17-47.73c34.12-36.87,25.02-79-22.47-106.57
			c-6.91-6.55-7.38-14.14-3.63-22.4c82.77,11.89,116.18-54.14,161.03-102.13C941.48,504.13,944.92,508.08,946.31,514.12z"/>
		<path class="st5" d="M66.77,324.12c-11.92-0.06-21.08-4.61-25.99-16.04c2.05-11.94,8.86-21.02,17.46-29.01
			c43.54-24.42,87.9-27.47,134.31-7.52c38.37,16.49,78.74,23.03,120.57,17.57c58.41-7.62,72.52-21.63,79.91-80.29
			c1.43-11.36,2.91-22.26,11.66-30.63c36.13,19.23,47.27,51.11,45.33,89.61c-1.17,22.51-5.9,44.57-7.96,67.01
			c-7.45,80.81-63.14,106.74-128.26,55.68c-45.72-35.85-95.32-59.63-150.34-73.17C131.29,309.42,97.34,299.2,66.77,324.12z"/>
		<path class="st6" d="M325.92,482c18.74,0.04,37.49,0.08,56.23,0.12c21.13,25.64,16.31,55.17,12.77,84.5
			c-1.5,6.21-4.18,11.95-7.84,17.18c-41.17,17.3-81.45,38.01-128.01,36.44c-19.64-23.2-4.52-41.55,8.81-59.86
			c10.02-13.77,20.8-29.81-9.68-23.26c-43.55,9.37-75.6-6.56-106.33-35.36c-27.99-26.23-61.93-41.29-102.05-39.66
			c-16.53,0.67-34.19,0.66-46.32-14.6c-1.76-11.81-5.53-23.97,5.71-33.57c61.21-16.99,118.44-15.32,169.86,29.31
			c26.65,23.13,57.16,41.71,95.8,27.95C292.65,471.22,311.09,468.14,325.92,482z"/>
		<path class="st0" d="M652.98,1000.46c-17.67,34.33-45.42,58.92-76.99,79.84c-31.04,12.81-63.89,15.4-96.6,13.18
			c-29.22-1.98-52.84-14.69-58.27-47.57c0.41-3.61,0.71-9.26,3.04-10c61.45-19.63,78.7-66.35,77.16-124.82
			c5.97-6.84,13.76-9.64,22.54-10.15c5.55,0.27,10.93,1.48,16.07,3.64C571.61,943.54,622.44,960.04,652.98,1000.46z"/>
		<path class="st6" d="M550.74,270.11c64.74-17.88,125.39-45.35,184.55-76.88c38.35-20.44,61.15-47.6,52.04-93.53
			c7.55,1.64,15.1,3.28,22.64,4.92c25.32,4.04,29.76,24.59,35.24,44.37c2.26,13.74,4.12,27.58,8.18,41.02
			c3.21,13.91,3.48,27.78-0.71,41.58c-3.6,10.75-9.46,20.25-16.27,29.22c-20.03,15-23.22,54.2-61.5,43.24
			c-23.95-66.18-23.16-64.75-87.87-28.78c-36.27,20.16-70.28,48.89-116.37,44.89C550.64,308.8,538.45,294.31,550.74,270.11z"/>
		<path class="st7" d="M17.29,561.15C13,530.32,1.04,500.77,1.92,469.08c18.98-14.24,36.67-9.1,53.91,3.44
			c9.85,8.78,19.3,18.18,32.54,22.11c40.17,16.08,75.44,40.61,109.61,66.27c17.01,12.77,22.37,33.77,22.55,55.23
			c-14.28,34.56-16.75,75.49-52.57,98.62c-4.49,3.18-9.42,5.45-14.69,6.96c-5.64-0.01-10.24-2.17-13.64-6.75
			c-21.88-48.6-26.8-106-73.47-141.6C50.45,566.96,31.49,573.4,17.29,561.15z"/>
		<path class="st8" d="M55.47,482.06c-16.4-10.33-35.13-11-53.55-12.97c0.53-7.19,1.05-14.38,1.58-21.57
			c71.81-6.27,136.71,5.54,183.46,67.82c11.75,15.66,30.45,12.52,46.84,11.05c12.72-1.14,24.96-6.96,37.69-9
			c12.58-2.02,28.82-6.69,36.55,5.17c9.41,14.43-7.29,22.59-15.31,31.78c-15.55,17.82-39,30.92-34.09,60.25
			c-4.3,8.86-12,12.56-21.19,14.06c-9.15,0.62-17.73-1.04-25.29-6.59c-11.91-75.99-84.97-83.3-133.11-118.61
			C70.48,497.11,63.1,489.45,55.47,482.06z"/>
		<path class="st9" d="M955.85,21.23c20.96-12.13,43.5-14.5,67.01-10.8c15.15,15.76,4.37,29.35-3.47,43.21
			c-28.2,36.34-7.39,85.06-30.69,122.7c-4.07,10.1-8.97,19.73-14.96,28.83c-20.62,22.41-37.23,51.22-74.49,47.4
			c-28.87-14.69-18.64-37.12-10.49-58.09c10.66-27.41,19.46-50.33,9.51-84.44C886.97,71.31,926.53,44.95,955.85,21.23z"/>
		<path class="st10" d="M404.69,178.21c1.11,12.95,1.52,26,3.46,38.83c6.46,42.65-22.48,82.61-65.53,83.99
			c-51.85,1.67-105.34,8.21-153.8-17.53c-43.44-23.08-87.24,0.96-130.57-4.42c5.61-14.29,14.8-25.83,26.95-35.1
			c59.49-6.46,113.14,17,168.78,31.67c57.45,15.14,85.75-5.73,94.54-64.61c2.55-17.11,7.75-32.59,21.28-44.25
			c7.74-7.59,15.66-6.55,23.7-0.52C397.21,170.24,400.95,174.23,404.69,178.21z"/>
		<path class="st11" d="M67.11,559.96c13.84,0.39,28.92,6.33,31.71,17.88c11.71,48.48,54.09,86.88,46.24,141.47c0,0,0.08,0,0.08,0
			c3.84-3.13,7.69-6.26,11.53-9.39c16.92-12.75,35.13-16.17,55-7.62c21.94,26.79,17.01,51.11-6.72,73.84
			c-25.42,24.34-43.6,4.49-62.7-10.07c-2.9-1.22-5.37-3.03-7.41-5.43c-4.56-1.48-7.75-4.45-9.56-8.89
			c-20.96-25.14-60.84-36.26-58.33-78.78c-11.27-12.01-13.11-25.53-6.55-40.38c8.99-7.98,10.75-8.64-10.63-14.65
			C43.69,599.59,51.6,574.66,67.11,559.96z"/>
		<path class="st12" d="M935.13,503.14c-11.93,26.88-24.37,52.19-44.68,75.47c-33.4,38.27-68.47,47.24-113.16,26.63
			c-15.98-5.5-20.7-16.58-16.07-32.29c42.4-25.25,74.86-56.54,67.25-111.96c6.56-9.46,16.43-11.57,26.94-12.23
			c4.99,0.14,9.86,1.12,14.49,2.91c4.52,2.69,5.97,6.59,4.28,11.65C892.86,479.09,922.43,478.2,935.13,503.14z"/>
		<path class="st13" d="M1124,345.26c-18.35,59.31-83.85,111.01-144.97,114.99c-34.93,2.27-70.11-4.69-104.86,3.08l0.26-0.24
			c-1.69-4.79-3.07-9.67-4.19-14.65c0.12-5.19,1.33-10.13,3.39-14.89c6.8-11.27,16.17-19.99,27.06-27.22
			c18.24-9.59,35.93-21.18,58.19-17.22c35.46,9.98,52.01-22.6,76.67-35.73C1065.18,337.6,1092.39,325.95,1124,345.26z"/>
		<path class="st14" d="M955.85,21.23c-6.94,15.05-16.09,28.7-24.88,42.71c-11.48,18.28-50.42,33.66-6.93,63.86
			c13.07,9.08-9.22,39.16-16.35,59.45c-6.5,18.48-32,35.79-6.59,58.13c-2.82,23.14-17.35,19.66-32.67,14.42
			c-22.96-22.07-7.93-56.62-26.28-80.21c-3.66-7.6-3.4-15.79-3.42-23.9c-0.11-21.15-3.46-41.19-20.08-56.52
			C855.46,57.48,903.02,34.72,955.85,21.23z"/>
		<path class="st15" d="M867.63,257.34c13.06,1.37,24.98-0.49,33.46-11.95c30.54-4.34,43.72-31.94,65.04-48.62
			c30.72,12.27,56.19-32.4,88.02-8.11c6.63,14.62,2.94,29.38,0.62,44.12c-41.24,86.41-55.95,94.15-151.79,80.07
			c-22.82-8.43-42.48-19.58-40.62-48.64C864.1,261.91,865.86,259.62,867.63,257.34z"/>
		<path class="st16" d="M439,1111.87c-76.34,5.65-150.69-7.33-224.66-23.98c-5.34-39.08,30.58-56.33,37.14-87.43
			c25.82-10.38,64.64,6.24,91.26,9.91c11.85,2.64,22.19,8.17,31.03,16.44c15.2,18.39,29.47,37.5,50.6,50.36
			C436.59,1084.6,451.2,1093.18,439,1111.87z"/>
		<path class="st11" d="M652.98,1000.46c-43.35-22.86-91.58-39.59-113.04-89.97c2.88-4.2,6.48-7.62,10.84-10.23
			c19.27-5.79,21.26-26.72,33.65-38.57c7.54-3.69,14.93-3.98,22.09,0.95c-0.6,27.89,9.82,42.8,40,33.1
			c22.67-7.28,45.52-18.98,64.41,7.06C690.24,934.54,678.19,971.41,652.98,1000.46z"/>
		<path class="st17" d="M349.88,1021.54c-30.44,0.36-60.88,0.72-91.33,1.08c-5.97,6.51-13.35,7.49-21.48,5.52
			c-29.47-23.03-60.13-34.81-94.63-9.66c-11.14,2.27-21.27,0.92-29.19-8.19c-7.58-14.19-17.59-28.14-4.41-44.39
			c58.74-38.13,118.19-43.05,178.56-3.9c10.98,1.1,21.9,2.72,32.5,5.97c10.32,3.33,19.71,8.34,27.56,15.99
			C355.76,995.98,354.32,1008.67,349.88,1021.54z"/>
		<path class="st18" d="M898.39,303.99c71.56,18.96,118.9-15.28,156.37-71.22c9.46,20.21-10.03,36.87-6.91,56.3
			c6.85,27.64-15.52,42.36-27.17,61.89c-9.08,10.24-18.99,19.42-31.83,24.89c-8.25,2.38-16.57,2.43-24.97,0.9
			c-24.54-6.86-51.48-8.44-69.08-30.91C888.29,331.23,887.45,317.1,898.39,303.99z"/>
		<path class="st19" d="M325.92,482c-18.77,0.01-37.54,0.03-56.31,0.04c-33.94,2.43-65.01-13.03-85.34-34.06
			c-36.32-37.59-77.08-46.59-125.32-43.1c-16.3,1.18-33.57-0.26-46.71-13.18c-1.15-8.41-2.33-16.83,4.95-23.46
			c41.07,3.99,82.22-11.15,124.22,9.74c18.46,9.18,39.97,12.13,58.29,26.59c33.06,26.11,66.4,53.69,111.97,56.49
			C322.97,461.75,324.8,472.48,325.92,482z"/>
		<path class="st19" d="M292.23,977.71c-37.79,10.36-52.13-43.1-89.21-33.2c-31.15,8.32-58.91,31.14-94.17,21.39
			c4.47-30.16-0.74-62.38,18.97-89.31c30.36,37.21,70.16,7.2,104.77,14.64c23.4,10.41,38.83,30,55.68,48.01
			C296.31,951.37,303.82,963.59,292.23,977.71z"/>
		<path class="st4" d="M12.24,391.69c25.93,0.03,51.87-0.59,77.77,0.26c37.17,1.21,69.28,7.28,96.57,41.01
			c18.95,23.42,54.75,33.2,83.02,49.07c-36.75,29.57-66.27-1.36-88.14-19.15c-39.45-32.08-76.95-52.72-129.36-41.52
			c-11.94,2.55-27.79-8.08-42.88-7.42C10.22,406.53,11.23,399.11,12.24,391.69z"/>
		<path class="st20" d="M142.26,766.06c57.7,17.27,70.65,6.24,70.76-60.25c-3-6.09-1.73-11.1,3.79-15.06
			c14.1-7.46,28.02-6.98,41.78,0.93c12.97,13.02,14.52,30.24,17.28,47.05c0.75,17.08-3.72,32.98-11.08,48.24
			c-4.38,7.28-10.28,13.05-17.53,17.46c-22.84,9.46-44.97,20.89-69.46,26.14c-11.65,0.8-22.82,0-31.21-9.68
			C157.4,801.65,152.4,783.65,142.26,766.06z"/>
		<path class="st7" d="M237.06,1021.59c7.17,0.34,14.33,0.69,21.5,1.03c6.23,25.28,15.98,52.12-28.85,46.59
			c-10.96-1.35-14.57,8.81-15.36,18.68c-43.01-13.73-82.9-31.51-101.08-77.6c10.21-0.26,20.42-0.53,30.64-0.79
			C177.69,992.39,208.26,1000.17,237.06,1021.59z"/>
		<path class="st9" d="M1012.6,343.43c11.75-18.12,23.5-36.24,35.25-54.35c30.6,11.66,58.06,27.56,76.16,56.18
			c-52.47-7.01-90.01,22-125.81,53.51c-18.93,16.65-33.78,26.24-41.84-7.91c0,0,0.84-4.77,0.78-4.79c0.97-3.14,2.43-6.03,4.3-8.73
			c1.61-3.25,4.25-4.98,7.85-5.21c5.24-1.05,10.48-2.1,15.71-3.15C999.28,365.96,1008.13,357.06,1012.6,343.43z"/>
		<path class="st11" d="M439,1111.87c0.27-21.29-20.03-18.15-30.72-26.62c-17.12-13.57-38.14-25.6-36.33-52.68
			c9.15-8.92,20.47-10.68,32.58-9.9c9,1.29,16.92,4.62,22.41,12.33c5.65,34.08,27.74,45.14,59.81,44.43
			c29.73-0.65,59.49,0.51,89.24,0.88C536.76,1118.76,487.24,1112.55,439,1111.87z"/>
		<path class="st5" d="M146.59,820.9c11.01,0,22.03,0,33.04,0c22.89,23.02,70.37,28.32,56.21,78.04
			c-17.02-2.05-32.76,3.58-47.18,10.84c-37.27,18.77-53.79,2.13-60.83-33.17C134.6,858.21,134.6,837.53,146.59,820.9z"/>
		<path class="st5" d="M978.44,177.37c7.77-39.54,15.3-78.41,10.26-119.86c-3.45-28.35,15.1-2.98,23.28-4.48
			c13.88,1.38,22.6,10.58,30.96,20.37c5.99,11.19,12.19,22.37,6.88,35.75l-2.88-0.67l-2.23,1.95c-4.57,9.2-4.65,17.23,5.91,22.44
			c4.36,7.57,5.29,15.56,2.85,23.94C1028.46,163.68,1012.32,202.93,978.44,177.37z"/>
		<path class="st17" d="M67.11,559.96c0.04,19.33,0.09,38.65,0.13,57.98c3.83,2.28,5.08,4.52,3.77,6.73
			c-1.3,2.18-2.6,3.28-3.91,3.28c-0.04,15-0.08,30.01-0.13,45.01c-24.16,3.27-25.87-16.83-30.2-31.37
			c-7.86-26.41-13.13-53.59-19.48-80.45C34.08,568.38,50.01,539.78,67.11,559.96z"/>
		<path class="st21" d="M978.44,177.37c29.42,9.26,46.13-27.88,75.02-20.56c0.23,10.61,0.45,21.23,0.68,31.84
			c-19.21-1.04-33.67,3.35-47.37,20.56c-17.69,22.22-34.9,17.54-40.65-12.44C968.47,189.18,970.52,181.4,978.44,177.37z"/>
		<path class="st9" d="M773.34,91.27c-12.27-0.45-24.54-0.91-36.81-1.36c-24.04,3.73-24.68-11.59-20.46-27.47
			c3.81-14.32,11.98-27.35,16.17-41.77c5.94-6.52,10.1-32.15,20.75-7.04C763.22,37.75,773.47,63.63,773.34,91.27z"/>
		<path class="st14" d="M732.24,20.67c10.48,16.34-2.32,29.85-6.43,43.85c-3.84,13.09-0.94,20.32,10.72,25.39
			c-20.11,7.32-40.22,14.65-60.32,21.97C688.94,77.82,707.03,47.06,732.24,20.67z"/>
		<path class="st22" d="M1049.81,109.15c-5.15-10.79-10.29-21.58-15.43-32.38c-9.69-19.31-12.45-38.37,1.99-56.83
			C1052.44,47.93,1069.79,75.72,1049.81,109.15z"/>
		<path class="st13" d="M818.64,99.17c41.25,6.6,19.59,38.84,24.55,60.24c-4.42,0.75-7.86-0.76-10.31-4.52
			c-1.4-19.6-8.84-36.44-22.92-50.25C812.35,101.87,815.24,100.05,818.64,99.17z"/>
		<path class="st13" d="M1036.37,19.94c-0.66,18.94-1.33,37.89-1.99,56.83c-7.47-7.91-14.93-15.83-22.4-23.74
			c3.63-14.2,7.26-28.39,10.89-42.59C1029.66,10.35,1033.76,14.08,1036.37,19.94z"/>
		<path class="st18" d="M247.57,117.4c-12.26,5.33-24.53,10.66-36.79,15.99c1.33-8.66-0.01-18.26,8.61-24.33
			c8.85-2.01,12.73-13.71,23.46-12.06C244.42,103.8,246,110.6,247.57,117.4z"/>
		<path class="st15" d="M242.85,97c-7.82,4.02-15.64,8.04-23.46,12.06c4.78-7.66,9.29-15.51,14.53-22.84
			c1.51-2.11,5.14-2.7,7.8-3.99C242.1,87.15,242.47,92.07,242.85,97z"/>
		<path class="st21" d="M1050.61,132.87c-13.22-4.52-17.95-11.27-5.91-22.44C1049.21,117.24,1052.6,124.35,1050.61,132.87z"/>
		<path class="st20" d="M125.3,751.74c3.19,2.96,6.37,5.92,9.56,8.89C128.69,760.88,126.01,757.37,125.3,751.74z"/>
		<path class="st4" d="M382.18,571.77c-0.01-29.88-0.02-59.76-0.03-89.65c30.04-0.11,60.09-0.22,90.13-0.32
			c1.39-1.2,2.59-2.87,4.2-3.52c82.88-33.84,90.75-61.15,41.09-142.9c-0.07-7.48-0.14-14.96-0.21-22.44
			c2.78-8.82,8.13-14.52,17.93-14.84c54.76,45.46,87.27,102.62,81.86,174.94c-2.24,29.93,7.28,48.12,27.32,68.58
			c28.84,29.43,73,48.31,76,98.08c-0.92,5.42-1.21,11.06-2.9,16.23c-5.01,15.33-7.28,40.52-16.61,43.58
			c-18.9,6.2-32.02-18.87-39.43-30.52c-26.3-41.33-66.71-19.1-99.25-29.1c-5.85,14.62-17.36,20.66-32.38,21.43
			c-5.59-0.09-11-1.18-16.27-3.02c-7.73-3.85-12.99-9.92-16.04-17.95c-3.19-10.34-2.72-20.76-0.61-31.16
			c1.88-12.69,10.36-27.22-9.66-33.74c-9.2-2.45-18.41-4.63-26.9-8.97c-23.55-20.09-39.26,1.22-57.17,10.89
			C395.17,579.38,387.94,578.32,382.18,571.77z"/>
		<path class="st22" d="M603.3,710.54c2.04,10.04,4.08,20.08,6.12,30.12c-18.52,44.94-36.4,90.42-89.61,106.02
			c-42.07-28.81-44.79,24.79-69.15,33.15c-21.18,2.27-35.74-11.6-52.13-21.2c-18.47-14.69-34.07-31.44-39.68-55.36
			c-6.25-46.4,1.72-98.99-65.83-112.31c-23.11-4.56-9.69-24.06,2.86-32.38c38.33-25.41,79.81-39.51,126.41-26.62
			c30.41,8.41,60.18,18.75,89.02,31.6c10.23,4.13,18.04,12.51,28.53,16.15C560.72,690.48,588.84,686.55,603.3,710.54z"/>
		<path class="st17" d="M720.47,639.69c-28.02-37.83-61.29-70.9-98.53-99.09c-16.71-12.64-31.29-24.89-23.58-45.16
			c20.74-54.57-1.29-98.08-31.15-140.58c-12.58-17.91-14.61-43.46-38.51-53.16c-4.58-3.83-7.64-8.62-9.24-14.37
			c-2.02-12.08-0.68-23.19,9.27-31.78c7.34,4.86,14.68,9.71,22.02,14.57c3.07,17.11,8.67,32.82,23.93,43.17
			c25.79,22.03,41.32,51.83,60.1,79.14c4.34,5.85,8.45,11.9,12.61,17.86c5.55,7.54,11.75,14.6,17.51,22.01
			c2.43,4.04,3.46,8.43,3.23,13.11c-8.24,10.74,0.75,11.25,7.84,12.97c5.78,5.45,8.87,12.25,10.73,19.81
			c1.77,32.9,15.25,59.47,36.51,85.08c20.1,24.22,48.8,48.81,30.6,87.78C741.02,652.15,731.35,644.14,720.47,639.69z"/>
		<path class="st23" d="M515.81,844.17c46.98-20.23,56.45-74.4,93.61-103.52c16.27-17.5,38.63-30.66,57.84-15.3
			c16.1,12.87,22.57,37.84,7.47,60.13c-7.06,7.75-14.49,7.27-22.17,0.97c-18.87-14.59-20.98,2.91-21.05,13.27
			c-0.18,24.75-8.12,45.34-24.99,62.92c-7.19,0.92-14.38,1.83-21.56,2.75c-6.24,2.36-14.14-17.47-18.98,1.17
			c-3.95,15.19,0.81,33.89-18.01,42.77l-4.17-0.55l-3.85,1.7l-5.2-0.94l-5.28,0.35C508.73,891.36,497.6,870.81,515.81,844.17z"/>
		<path class="st11" d="M753.79,651.04c-5.84-29.92-16.61-59.29-39.87-78.18c-34.79-28.25-44.28-62.49-38.16-104.08
			c37.88,5.93,66.86,28.82,96.48,50.64c7.82,17.97,8.12,35.38-3.91,51.84c-4.31,13.25,4.17,23.13,8.96,33.98
			c0.15,7.48,0.3,14.96,0.45,22.44C776.62,642.5,770.29,651.98,753.79,651.04z"/>
		<path class="st24" d="M603.3,710.54c-26.67-0.57-49.01-20.13-76.42-17.44c0.85-12.27-16.45-29.01,8.68-35.3
			c8.9-5.97,17.81-11.94,26.71-17.91C575.17,663.88,613.08,673.36,603.3,710.54z"/>
		<path class="st7" d="M731.15,707c8.81-12.95,9.88-31.53,27.3-38c1.44-0.53,6.32,3.32,6.72,5.63c3.45,19.77-2.57,35.56-20.86,45.53
			C733.48,722.22,727.76,719.16,731.15,707z"/>
		<path class="st20" d="M731.15,707c4.38,4.39,8.77,8.78,13.15,13.16c-3.22,20.09-13.69,32.27-35.25,32.36l-0.15-0.15
			C710.63,734.46,716.93,718.78,731.15,707z"/>
		<path class="st11" d="M652.56,786.45c7.39-0.32,14.78-0.65,22.17-0.97c0.62,10.37,20.27,24.55,0.39,29.83
			C658.57,819.71,653.77,801.39,652.56,786.45z"/>
		<path class="st20" d="M709.06,752.52c-1.7,1.77-3.4,3.55-5.1,5.32c0.21-1.16,0.02-2.73,0.71-3.37c1.11-1.03,2.8-1.43,4.24-2.1
			L709.06,752.52z"/>
		<path class="st21" d="M66.77,324.12c7.32-35.23,39.15-27.66,57.92-25.11c69.6,9.46,139.99,21.06,191.37,77.23
			c10.44,11.41,23.86,18.35,37.9,23.09c40.9,13.82,70.37-5.83,73.09-49.1c1.85-29.33-4.88-60.53,22.97-82.41
			c13.39,36.68,37.93,70.08,21.51,113.77c-21.93,58.35-73.35,92.9-147.51,49.1c-50.59-29.88-86.15-81.58-148.34-95.94
			C139.21,326.34,104.11,317.59,66.77,324.12z"/>
		<path class="st19" d="M517.56,335.38c37.82,30,56.89,79.81,42.34,114.82c-17.36,41.76-55,30.41-87.62,31.6
			c2.74-6.54,3.66-16.53,8.5-19.1C537.36,432.67,535.42,386.47,517.56,335.38z"/>
		<path class="st4" d="M528.72,255.55c-0.13,11.66-0.25,23.32-0.38,34.98c-11.17,8.98-22.27,8.96-33.31-0.24
			c5.72-27.68-14.19-51.8-10.98-79.13C503.52,221.34,518.2,236.35,528.72,255.55z"/>
		<path class="st19" d="M495.03,290.29c11.1,0.08,22.21,0.16,33.31,0.24c0.22,3.72,0.33,7.44,0.35,11.17
			c-3.78,3.75-7.56,7.49-11.34,11.24C502.24,312.95,494.81,305.39,495.03,290.29z"/>
		<path class="st22" d="M371.67,155.89c-19.82-0.08-39.64-0.17-59.46-0.25c-0.98-4.2-0.42-8.19,1.68-11.97
			c7.66-1.56,15.32-3.12,22.97-4.68C347.75,146.09,367.51,134.92,371.67,155.89z"/>
		<path class="st24" d="M393.48,166.25c-7.9,0.17-15.8,0.35-23.7,0.52c0.19-3.74,0.39-7.47,0.58-11.21
			C381.82,151.01,389.76,154.07,393.48,166.25z"/>
		<path class="st4" d="M483.32,200.45c0.74,3.55,1,7.13,0.79,10.75C475.31,208.24,474.4,204.7,483.32,200.45z"/>
		<path class="st10" d="M313.89,143.67c-0.56,3.99-1.12,7.98-1.68,11.97C304.59,150.5,305.99,146.63,313.89,143.67z"/>
		<path class="st25" d="M513.86,674.74c-26.4-2.32-50.75-12.51-74.32-22.96c-47.98-21.26-90.89-7.78-133.25,14.68
			c-5.98,3.17-15.52,4.53-14.45,14.08c0.18,1.58,9.8,3.89,14.44,2.91c52.33-11.02,56.98,28.07,62.56,62.04
			c3.55,21.65-0.41,44.53-1,66.86c-42.24,2.25-63.88-26.36-84.56-56.36c-5.33-20.4-2.39-44.6-25.69-57
			c-14.67-0.55-29.35-1.1-44.02-1.64c-14.65-31.23,5.81-50.99,23.42-71.68c7.22-3.7,14.45-7.39,21.67-11.09
			c40.82-11.63,79.49-31.01,122.69-34.04c43.93,14.59,91.54,21.48,124.34,59.39c2.8,4.25,5.59,8.5,8.39,12.75
			C526.64,660.16,524.69,667.49,513.86,674.74z"/>
		<path class="st24" d="M505.68,639.94c-40.73-21.31-91.52-21.52-124.34-59.39c-0.32-2.98-0.04-5.91,0.84-8.78
			c7.44-0.97,14.88-1.94,22.32-2.91c17.91-9.19,34.67-25.37,56.75-9.41c9.92,1.32,19.83,2.63,29.75,3.95
			c21.31,8.71,12.85,27.39,14.31,42.75C505.44,617.41,505.56,628.67,505.68,639.94z"/>
		<path class="st19" d="M426.93,1034.99c-7.75-1-15.49-1.99-23.24-2.99c-4.14-6.83-6.08-17.19,0.59-19.7
			c49.59-18.64,63.56-59.54,69.24-106.3c11.7-5.25,22.43-5.01,31.39,5.41c0.45,9.37,0.27,18.82,1.44,28.09
			C515.26,1010.07,500.22,1028.26,426.93,1034.99z"/>
		<path class="st17" d="M504.91,911.41c-10.75-0.5-21.49-1.01-32.24-1.51c-11.64-1.35-19.23-8.33-24.97-17.91
			c-2.01-5.3-1.14-10.19,2.21-14.7c5.43-11.7,10.41-23.64,16.42-35.04c6.71-12.71,11.53-31.55,26.95-31.85
			c18.67-0.36,11.63,24.32,22.51,33.77c-3.33,23.55,11.53,43.32,13.66,65.73C521.28,910.4,513.1,910.91,504.91,911.41z"/>
		<path class="st22" d="M631.81,411.08c-19.79-32.17-46.48-60.29-57.14-97.79c59.29-21.41,113.52-52.1,165.53-87.56
			c33.4-22.78,37-19.98,39.57,21.68c1.13,18.32,1.77,36.68,2.63,55.02c2.13,47.09-11.97,102.56-61.92,120.07
			c-30.46,19.62-33.29-32.42-34.27-33.76C638.21,323.53,666.36,338.96,631.81,411.08z"/>
		<path class="st21" d="M713.08,417.88c43.49-26.24,47.29-76.32,69.31-115.46c25.95-4.48,17.91-45.8,48.74-45
			c2.14,1.58,4.27,3.16,6.43,4.74c5.98,9.57,6.59,20.09,5.54,30.91c-0.58,5.26-1.67,10.43-3.04,15.54
			c-13.44,44.88-19.21,91.43-29.51,136.99c-1.41,4.91-3.64,9.48-6.5,13.71c-1.93,7.62-25.42,2.37-11.52,19.52
			c-4.16,15.88,0.36,38.16-27.08,36.88c-39.85,3.4-61.68-27.65-89.68-46.92c-3.33-3.28-6.67-6.56-10-9.84
			c-3.22-1.65-4.69-3.75-4.42-6.3c0.29-2.78,0.86-4.17,1.71-4.17c0.4-3.02,0.98-6.01,1.76-8.95c2.48-10.81,11.14-15.57,19.81-20.36
			C693.94,415.36,703.36,413.07,713.08,417.88z"/>
		<path class="st13" d="M845.16,178.63c17.41,23.4,22,50.47,22.47,78.71l0.16,0.54c-8.11,5.4-16.41,5.74-24.9,0.91
			c-4.82-8.01-3.66-17.15-4.82-25.85c0.7-14.46,1.39-28.91,2.09-43.37C838.51,184.41,840.02,180.68,845.16,178.63z"/>
		<path class="st7" d="M845.16,178.63c-1.67,3.65-3.33,7.3-5,10.95c-10.51-9.87-9.48-22.15-7.28-34.69
			c3.44,1.51,6.87,3.01,10.31,4.52C843.85,165.81,844.51,172.22,845.16,178.63z"/>
		<path class="st7" d="M838.08,232.94c1.99,8.04,3.99,16.07,5.98,24.11l-4.19,3.34l-4.72-2.53l-4.02-0.44
			C833.44,249.26,835.76,241.1,838.08,232.94z"/>
		<path class="st23" d="M236.97,625.68c7.13,28.78-24.4,44.91-23.42,71.68c-0.1,2.83-0.28,5.65-0.54,8.46
			c-18.78,1.37-37.56,2.73-56.34,4.1c16.18-18.8,40.77-32.41,34.97-64.06c-2.49-13.56,13.59-15.8,20.53-23.8
			C220.44,623.27,228.71,624.47,236.97,625.68z"/>
		<path class="st16" d="M55.47,482.06c15.04-0.79,22.48,6.81,23.59,21.4C63.33,505,55.7,497.61,55.47,482.06z"/>
		<path class="st19" d="M145.15,719.31c-0.84,4.74-1.67,9.49-2.51,14.23c-1.97-1.12-3.95-2.23-5.92-3.35
			c2.78-3.63,5.56-7.26,8.35-10.89C145.06,719.3,145.15,719.31,145.15,719.31z"/>
		<path class="st16" d="M67.09,627.95c-0.04-3.34,0.01-6.68,0.15-10.01c4.69,1.09,13.41,2.12,13.42,3.28
			C80.81,631.45,72.33,626.76,67.09,627.95z"/>
		<path class="st6" d="M799.36,460.07c1.31-54.61,12.16-107.32,31.5-158.35c4.95-4.69,10.21-5.08,15.82-1.21
			c18.85,40.61,17.71,85.15,25.04,128.04c-0.06,5.8-0.01,11.61,0.21,17.42c0.34,6.33-2.2,11.14-7.62,14.43
			c-10.77,0.51-21.55,1.01-32.32,1.52C820.64,469.74,809.76,469.13,799.36,460.07z"/>
		<path class="st26" d="M799.36,460.07c10.88,0.61,21.75,1.23,32.63,1.84c20.22,63.09,1.4,95.41-63.66,109.34
			c-0.96-18.52-1.93-37.04-2.89-55.56c15.06-11.31,11.73-31.7,22.33-45.22c1.08-6.79,8.26-6.94,11.9-10.94L799.36,460.07z"/>
		<path class="st27" d="M864.31,460.39c0.45-4.44,0.9-8.89,1.34-13.33c4.32-4.1,8.48-4.13,12.44,0.51
			c-1.22,5.17-2.44,10.34-3.66,15.51C870.68,463.6,867.31,462.71,864.31,460.39z"/>
		<path class="st28" d="M864.95,437.95c-18.7-42.52-22.47-87.68-23.55-133.31c-1.07-5.48-4.94-9.98-5.45-15.64
			c-0.27-10.38-0.54-20.75-0.81-31.13c2.97-0.24,5.94-0.51,8.91-0.82c7.91,0.28,15.82,0.56,23.74,0.83
			c1.43,21.19,17.08,32.95,30.6,46.11c1.76,13.79,3.52,27.59,5.28,41.38c12.16,22.18,16.04,44.08-2.24,65.22
			c-4.48,11.83-11.96,21.33-22.3,28.59C874.14,441.84,869.4,441.58,864.95,437.95z"/>
		<path class="st7" d="M901.44,410.59c0.75-21.74,1.49-43.48,2.24-65.22c20,13.51,48.65,5.78,65.6,26.75c-0.2,3.06-0.6,6.1-1.2,9.11
			c-4.4,3.03-8.05,6.93-12,10.47l0.27-0.85C937.53,396.02,922.85,412.66,901.44,410.59z"/>
		<path class="st9" d="M864.95,437.95c4.73,0.41,9.45,0.82,14.18,1.24c-0.36,2.79-0.7,5.59-1.04,8.39
			c-4.15-0.17-8.29-0.34-12.44-0.51C864.55,444.09,864.32,441.05,864.95,437.95z"/>
		<path class="st5" d="M448.91,891.07c12.08,1.03,18.7,8.95,23.77,18.83c18.13,69.93,15.69,74.29-57.53,104.1
			c-7.82,3.19-9.67,10.7-11.45,18c-10.58,0.19-21.16,0.38-31.75,0.57c-7.36-3.68-14.71-7.35-22.07-11.03
			c-5.96-9.79-11.77-19.6-2.43-30.61c-2.91-5.43-2.8-13.11,1.91-14.63C394.57,961.69,418.51,922.67,448.91,891.07z"/>
		<path class="st0" d="M547.97,909.34c1.4-14.66,2.76-29.32,4.22-43.97c1.12-11.23,4.19-28.15,12.52-28.52
			c14.54-0.64,14.79,17.66,20.26,28.55C586.43,891.67,585.39,915.83,547.97,909.34z"/>
		<path class="st2" d="M448.91,891.07c-10.59,56.9-52.57,81.9-101.46,99.86c-8.87-1.05-17.64-2.31-22.18-11.63
			c-11.64-15.71-28.42-24.98-44.31-35.37c-19.37-10.65-34.33-25.73-45.13-44.99c-0.38-22.98-15.71-35.2-33.53-44.72
			c-13.81-7.38-22.78-16.98-22.68-33.32c18.49-15.31,40.26-23.12,63.4-27.78c5.7,0.11,11.34-0.45,16.91-1.68
			c55.37,5.07,96.95,43.44,147.15,61c14.27,8.28,28.55,16.56,42.82,24.85C449.58,881.88,449.24,886.48,448.91,891.07z"/>
		<path class="st16" d="M237.06,1021.59c-30.6-7.52-61.7-11.17-93.16-12.09C177.56,977.09,205.05,980.66,237.06,1021.59z"/>
		<path class="st5" d="M280.97,943.93c24.88-0.88,45.05,4.14,44.31,35.37c-11.02-0.53-22.03-1.06-33.05-1.59
			C293.64,964.73,285.01,955.09,280.97,943.93z"/>
		<path class="st13" d="M1012.6,343.43c1.25,19.81-9.91,26.22-27.61,25.55C994.19,360.46,1003.39,351.94,1012.6,343.43z"/>
		<path class="st6" d="M407.09,852.44c-57.51,2.35-99.04-36.08-147.16-57.68c-3.69-2.08-5.25-4.56-4.68-7.43
			c0.61-3.07,1.43-4.6,2.46-4.6c-1.47-15.23,3.92-28.15,13.41-39.67c11.62-8.24,15,4.2,21.58,8.61
			c22.77,23.04,45.55,46.07,75.12,60.7C377.81,828.77,399.25,833.95,407.09,852.44z"/>
		<path class="st7" d="M292.71,751.67c-7.2-2.87-14.39-5.74-21.58-8.61c-18.25-10.46-11.28-28.68-13.55-44.06
			C309.36,689.8,287.67,729.65,292.71,751.67z"/>
		<path class="st1" d="M257.71,782.73c0.74,4.01,1.48,8.02,2.22,12.03c-5.63-0.55-11.27-1.09-16.9-1.64
			C247.93,789.66,252.82,786.19,257.71,782.73z"/>
		<path class="st13" d="M956.07,391.71c4-3.49,8-6.98,12-10.47C966.23,387.19,962.12,390.56,956.07,391.71z"/>
		<path class="st6" d="M461.25,559.45c-18.92,3.14-37.83,6.27-56.75,9.41C429.64,533.84,441.63,531.85,461.25,559.45z"/>
		<path class="st17" d="M505.31,606.14c-14.8-10.89-7.38-29.22-14.31-42.75C531.76,565.59,521.3,584.94,505.31,606.14z"/>
		<path class="st17" d="M513.86,674.74c0.07-7.35,0.14-14.7,0.22-22.06c7.16,1.7,14.33,3.41,21.49,5.11
			c-2.89,11.77-5.79,23.54-8.68,35.3C515.68,691.85,518.08,680.94,513.86,674.74z"/>
		<path class="st14" d="M713.08,417.88c-4.7,7.71-11.32,10.71-20.18,8.28c-22.17,10.47-40.58,2.64-57.64-11.82l-3.45-3.27
			c-0.18-9.2-1.11-18.47-0.4-27.6c2.05-26.36,17.81-41.69,43.1-41.19c29.08,0.57,41.51,20.68,41.9,48.24
			C716.53,399.62,714.26,408.76,713.08,417.88z"/>
		<path class="st25" d="M635.26,414.35c19.11,4.44,37.21,13.83,57.64,11.82c-6.39,10.7-17.64,11.19-28.09,13.36
			C648.93,438.21,639.7,429.09,635.26,414.35z"/>
		<path class="st11" d="M663.05,448.47c0.89,3.49,1.79,6.98,2.71,10.46C658.04,457.22,653.46,454.68,663.05,448.47z"/>
		<path class="st6" d="M799.68,459.53c-3.97,3.65-7.94,7.3-11.9,10.94C777.7,451.54,795.91,463.4,799.68,459.53z"/>
		<path class="st7" d="M835.95,288.99c5.17,4.04,6.84,9.31,5.45,15.64c-3.3-1.75-6.81-2.72-10.54-2.91
			C832.56,297.48,834.26,293.23,835.95,288.99z"/>
		<path class="st18" d="M686.19,388.72c-2.22,9.23-8.79,14.08-19.11,11.85c-10.67-2.3-14.05-10.03-11.52-20.1
			c2.02-8.03,8.57-11.41,16.06-10.83C682.05,370.47,687.28,376.84,686.19,388.72z"/>
	</g>
</g>
</svg>
