<?xml version="1.0" encoding="utf-8"?>
<!-- Generator: Adobe Illustrator 23.1.0, SVG Export Plug-In . SVG Version: 6.00 Build 0)  -->
<svg version="1.1" id="Calque_1" xmlns="http://www.w3.org/2000/svg" xmlns:xlink="http://www.w3.org/1999/xlink" x="0px" y="0px"
	 viewBox="0 0 1125 1238.62" style="enable-background:new 0 0 1125 1238.62;" xml:space="preserve">
<style type="text/css">
	.st0{fill:#B9B7BB;}
	.st1{fill:#878181;}
	.st2{fill:#959092;}
	.st3{fill:#FCF9FC;}
	.st4{fill:#EAE6EB;}
	.st5{fill:#ADAAAD;}
	.st6{fill:#9A9799;}
	.st7{fill:#D0CBD0;}
	.st8{fill:#E3DFE4;}
	.st9{fill:#C5C2C5;}
	.st10{fill:#A5A3A6;}
	.st11{fill:#857C79;}
	.st12{fill:#DBD6DB;}
	.st13{fill:#131209;}
	.st14{fill:#858085;}
	.st15{fill:#8D8786;}
	.st16{fill:#B5B1B3;}
	.st17{fill:#C6C4CA;}
	.st18{fill:#BEBBBE;}
	.st19{fill:#F3EEF3;}
	.st20{fill:#65646D;}
	.st21{fill:#8D8A8D;}
	.st22{fill:#7D787C;}
	.st23{fill:#A3A0A3;}
	.st24{fill:#10100E;}
	.st25{fill:#A2A400;}
	.st26{fill:#404040;}
	.st27{fill:#CCCE04;}
	.st28{fill:#F2F500;}
</style>
<g>
	<g>
		<path class="st0" d="M961.82,93.25c32.98,15.69,45.6,47.17,59.97,77.3c-1.37,73.35-6.02,146.75,3.92,219.83
			c2.92,12.94,3.21,25.92-0.06,38.83c-7.2,16.08-15.39,32-11.32,50.77c-3.55,37.53-5.82,75.2-15.77,111.76
			c-16.88,21.67-49.4,41.81-6.47,69.38c4.35,5.49,7.38,11.49,9.47,18.14c9.66,49.08,2.26,91.64-45.1,118.98
			c-41.53,23.97-75.24,6.13-107.49-19.97c-21.56-23.21-26.65-49.91-16.71-79.67c47.49-45.13,18.43-93.19,5.02-140.71
			c15.33-49.75,54.21-87.73,68.69-138c4.8-5.09,10.26-9.26,16.28-12.73c31.64-21.75,31.73-56.48,33.01-88.48
			c2.19-54.61,5.31-109.52-5.61-163.89C945.28,133,943.71,110.97,961.82,93.25z"/>
		<path class="st1" d="M494.73,1216.55c-23.73,0.01-46.19-4.51-65.97-18.54c-53.49-50.24-81.95-123.11-156.15-156.62
			c-29.34-13.25-49.97-55.59-33.16-97.97c4.34-5.1,8.22-11.92,14.38-13.35c107.47-24.94,214.76-35.88,320.9,6.68
			c16.47,21.02,17.78,42.15,0.24,63.28c-20.45,12.07-40.42,3.52-60.42-1.42c-14.36-2.16-34.43-11.37-27.86,17.46
			c5.87,25.77,24.15,40.83,49.86,45.8c20.84-9.82,11.17-43.95,38.52-48.55c47.55-8.59,70.06,12.15,70.08,59.41
			c-4.09,30.18-10.91,58.56-46.1,67.39c-10.91,0.51-21.18-2.8-31.49-6.18c-24.8-8.13-52.67-20.27-74.78-2.88
			c-28.08,22.1,8.92,41.03,10.24,62.71C503.57,1202.99,502.45,1210.75,494.73,1216.55z"/>
		<path class="st2" d="M588.68,1131.81c31.72-3.88,35.33-29.03,40.23-53.21c23.75-34.67,29.96-78.56,58.62-110.74
			c22.01-24.71,41.1-54.23,81.79-43.48c17.82,45.58,47.93,17.97,74.38,12.3c16.71,1.2,30.99,7.27,41.55,20.76
			c3.19,41.34-15.69,73.12-43.66,100.99c-12.76,14.76-33.36,28.99-2.01,45.75c13.55,6.32,27.36,12.33,31.36,28.87
			c-60,58.23-135.81,80.47-215.2,94.53C623.64,1202.49,562.91,1197.44,588.68,1131.81z"/>
		<path class="st3" d="M150.28,400.44c55.06-57.77,125.53-63,198.9-58.34c36.74,36.71,29.94,77.43,11.13,119.31
			c-20.53,38.5-64.4,50.05-92.43,80.07c-40.28,23.92-86.61,31.4-130.74,40.62c-46.95,9.82-86.8-8.4-95.88-64
			c9.36-38.26,37.95-60.83,67.45-82.67c5.73,4.35,7.62,10.43,7.82,17.28c4.05-1.31,2.93-5.66,4.85-8.27
			C131.79,430.29,137.04,412.74,150.28,400.44z"/>
		<path class="st4" d="M640.07,79.11c-0.87-4.25-1.84-8.49-2.61-12.76c-4.61-25.85-46.41-2.51-41.54-24.16
			c6.21-27.64,50.66-46.37,62.92-36.87c83,64.38,193.9,15.23,276.4,73.22c15.12,38.91,30.87,77.87-9.14,112.21
			c-27.14,3.89-37.42-17.92-51.96-33.9c-40.8-44.84-71.61-44.57-117.39-3.06c-32,29.01-44.45,70.64-70.96,102.97
			c-18.72,11.79-29.31,30.04-41.08,48.09c-10.71,16.42-20.84,41.24-49.13,22.62c-17.1-32-4.71-62.78,3.55-93.77
			C619.33,183.92,616.38,127.96,640.07,79.11z"/>
		<path class="st5" d="M93.7,990.37C75.43,976,68.56,955.71,64.48,933.98c41.86-89.17,133.21-103.23,210.62-137.65
			c76.77-34.14,164.19-37.76,237.92-81.15c15.86-10.15,33.82-15.12,51.49-20.57c5.24-1.79,10.67-3.28,15.94-4.85
			c11.01-3.29,17-11.02,19.08-22.21c2.31-11.2,4.8-22.26,11.12-32.01c31.8-27.29,47.96-58.34,23.97-99.13
			c-4.07-11.78-5.27-23.7-1.69-35.82c2.37-5.76,6.34-10.16,11.61-13.42c6.01-1.28,11.98-0.93,17.89,0.68
			c5.72,1.95,11.19,4.5,16.47,7.48c18.58,11.28,33.23,26.11,41.44,46.68c4.48,11.72,8.2,23.61,8.37,36.38
			c-0.75,6.52-2.67,12.65-5.56,18.51C688.95,722.03,606.59,790.48,480.7,820.02c-65.2,15.3-134.47,25.28-193.04,63.59
			c-11.21,6.38-23.55,9.11-36.07,11.14c-30.3,3.34-54.13,20.52-78.21,37.04c-4.38,3.66-9.14,6.79-14.06,9.63
			c-12.28,6.3-23.88,13.61-33.51,23.72C115.64,974.24,107.42,985.84,93.7,990.37z"/>
		<path class="st6" d="M93.7,990.37c1.44-17.66,7.86-30.94,28.14-32.06c10.43-13.32,29.94-12.84,40.19-26.44l-0.02-0.07
			c22.03-18.84,48.84-26.14,76.33-31.82c62.43-11.13,123.76-35.34,188.3-25.43c107.92,16.58,182.2-28.17,232.89-120.28
			c3.69-5.2,7.9-10.07,12.24-14.74c17.69-16.92,34.12-34.7,38.63-60.19c11.4-29.5-1.34-73.41,18.33-100.95
			c60.99-1.01,87.11,49.97,103.39,99.02c-5.83,8.13-14.23,12.12-23.52,14.59c-39.28,2.63-54.85,24.33-49.88,62.55
			c-2.63,35.41-23.44,60.15-48,82.79c-23.67,18.85-32.82,45.93-43.38,72.85c-17.39,44.33-45.65,64.82-92.12,35.14
			c-95.08-26.31-192.03-10.4-288.15-11.79c-16.74-0.24-33.81,9.16-45.42,23.9c-38.38,32.9-86.73,41.71-133.18,55.11
			C97.82,1008.96,94.65,1000.41,93.7,990.37z"/>
		<path class="st7" d="M6.34,749.15c-0.77-23.65-1.54-47.29-2.3-70.94c123.78-0.39,238.33-54.1,361.73-60.92
			c79.98-4.42,125.06-68.5,167.81-129.02c31.19-10.61,46.69,10.5,62.64,30.87c7.85,18.05,7.87,35.96-1.06,53.69
			c-66.72,80.39-146.83,126.17-256.78,128.02c-73.56,1.24-150.8,17.13-213.41,63.85C77.94,799.8,43.52,771.65,6.34,749.15z"/>
		<path class="st8" d="M5.59,638.13c2.26-29.31,4.71-58.58,19.57-84.99c107.8,71,204.24,5.84,303.46-25.44
			c30.93-8.58,68.22-4.26,84.63-42.08c31.9-20.69,19.2-61.46,39.26-87.57c14.47-8.65,38.68-28.03,50.6-22.56
			c27.29-1.06,10.19,50.75,15.14,66.63c-12.32,106.24-78.77,168.26-183.12,183.9c-64.45,9.66-130.46,7.77-193.66,34.62
			C97.34,679.4,45.27,679.2,5.59,638.13z"/>
		<path class="st9" d="M6.34,749.15c57.55,27.63,101.58,3.29,154.2-24.55c54.5-28.82,122.3-41.41,184.93-43.73
			c82.35-3.06,151.75-20.74,203.06-88.6c9.57-12.66,23.02-20.74,39.94-20.59c6.22-4.81,12.19-4.51,17.91,0.88
			c10.3,15.19,10.23,31.3,4.25,47.92c-27.4,34.26-63.24,58.19-99.91,81c-4.31,3.73-9.12,6.84-14.18,9.48
			c-7.66,3.02-15.71,3.97-23.86,3.71c-10.52-0.22-19.91,3.39-28.77,9.13c-5.07,2.75-10.34,4.55-15.92,5.85
			c-12.25,2.01-24.45,1.67-36.73,0.9c-93.52,16.2-188.22,27.65-271.23,79.72c-32.17,20.18-66.52,20.46-101.29,6.25
			C14.61,794.06,10.47,771.6,6.34,749.15z"/>
		<path class="st10" d="M855.54,771.64c103.29,43.01,133.86,18.59,132.84-106.1c23.16-17.63,38.12-1.57,53.43,13.02
			c13.57,8.43,18.67,22.04,22.37,36.51c-9.92,11.64-6.31,27.64-12.86,40.41c-2.47,5.37-5.57,10.34-9.05,15.07
			c-22.72,47.33-53.39,92.21-44.29,149.02c1.69,17.07-4.09,31.66-14.54,44.77c-13.87,14.9-28.39,28.66-50.95,27.51
			c-22.06-6.57-29.95-25.22-37.64-44.07c-13.98-47.18-37-91.14-50.01-138.75C843.04,795.04,843.96,781.8,855.54,771.64z"/>
		<path class="st11" d="M108.45,1012.55c37.51-35.03,84.45-47.23,133.19-55.1c17.26,48.73,49.51,79.06,95.96,105.64
			c47.4,27.13,73.56,81.07,91.17,134.92c-70.05-19.15-129.46-56.97-180.75-107.12C208.15,1051.93,176.8,999.94,108.45,1012.55z"/>
		<path class="st12" d="M5.59,638.13c131.18,29.35,254.87-17.66,379.32-42.93c92.13-18.71,111.05-113.15,134.1-191.54
			c2.94,7.65,8.29,2.48,28.47,0c10.59,6.85-0.6,44.12,0.51,55.89c0.2,12.31-4.72,22.62-12.33,31.88
			c-15.12,70.22-87.97,136.86-168.81,145.21c-92.03,9.5-184.37,16.63-268.96,56.95C60,711.67,35.58,680.51,4.04,678.21
			C4.55,664.85,5.07,651.49,5.59,638.13z"/>
		<path class="st13" d="M536.48,413.21c-5.41-1.08-10.82-2.17-16.21-3.43c-9.61-7.57-19.25-14.96-28.89-22.35
			c-30.96,13.01-16.21-15.58-22.68-24.88c23-90.06,41.37-220.07,119.9-283.44c17.63-12.33,48.85-12.76,51.46,0
			c9.47,58.23-8.97,112.02-26.4,165.97c-69.02,28.26-61.57,42.01-16.64,106.04c7.18,19.97-6.41,48.66-23.22,64.39
			C560.87,422.98,548.4,422.49,536.48,413.21z"/>
		<path class="st14" d="M1041.81,678.56c-17.81-4.34-35.62-8.69-53.43-13.03c0,0.01-0.15-0.1-0.15-0.1
			c-17.76-22.15-17.91-45.17-3.41-68.92c5.64-43.85,11.27-87.71,16.91-131.56c0.15-10.78,5.68-19.4,11.22-28.01
			c0.39-12.92,0.79-25.85,1.18-38.77c2.5-37.06-0.2-74.23,1.87-111.25c1.1-19.64-7.14-46.42,26.76-48.92
			c46.17,101.99,18.46,206.91,7.94,309.88C1046.24,591.54,1042.66,634.84,1041.81,678.56z"/>
		<path class="st15" d="M588.68,1131.81c-1.99,25.76,6.15,45.04,31.67,56c17.31,7.44,35.77,15.71,35.38,39.76
			c-55.54,23.38-108.18,4.75-161-11.07c-0.29-4.31-0.34-8.7-0.91-13.03c-4.02-30.5-69.62-50.53-24.17-85.53
			C505.16,1090.6,552.43,1096.59,588.68,1131.81z"/>
		<path class="st16" d="M522.05,718.62c-11.65,41.2-51.42,37.4-80.09,45.05C348.82,788.55,258.8,819.95,170,857.99
			c-43.08,18.45-65.49,57.92-105.51,75.99c-10.72-12.19-19.15-25.44-19.62-42.37c11.04-12.56,23.85-23.48,34.02-36.92
			c17.97-21.11,38.29-38.76,66.12-45.43c36.93-11.52,73.97-22.75,107.46-42.98c8.52-3.87,17.49-5.19,26.74-4.99
			c37.6,3.93,69.99-14.35,104.23-24.68c5.73-2.05,11.64-3.33,17.65-4.09c15.02-0.7,30.21-0.87,40.93-14.1l-0.05-0.07
			c6.34-6.94,14.04-9.12,23.07-6.58c11.64,4.76,22.05,3.93,30.32-6.69l-0.05-0.08c8.05-7.7,17-8,26.57-3.26
			c3.27,3.72,4.38,7.46,3.34,11.23C524.18,716.73,523.12,718.62,522.05,718.62z"/>
		<path class="st17" d="M910.53,184.52c48.28-25.99,14.12-71.2,24.7-105.98c8.86,4.9,17.73,9.8,26.59,14.7
			c12.18,77.9,18.84,156.46,12.43,234.94c-3.05,37.31,6.17,88.18-55.64,92.86c-23.45-31.24-11.71-67.7-15.24-101.9
			C909.41,274.48,885.81,228.19,910.53,184.52z"/>
		<path class="st18" d="M401.96,745.02c-4.44,0.01-8.87,0.02-13.31,0.03c-35.77,8.04-70.56,19.99-106.67,26.69
			c-8.88,0.01-17.75,0.03-26.63,0.04c-34.43,20.07-78.44,20.91-106.76,53.23c-30.96-1.18-42.1,30.63-66.67,40.1
			c-10.64,12.79-25.61,13.26-40.41,14.23C22.3,862.6,30.06,836.1,18.76,816.5c100.22-4.84,177.99-80.45,278.04-87.74
			c35-2.55,68.11-25.86,105.21-10.43C409.93,727.24,409.86,736.13,401.96,745.02z"/>
		<path class="st19" d="M335.09,534.02c-55.93,52.4-132.01,43.17-197.66,65.58c-54.63,18.65-88.11,1.1-112.27-46.46
			c3.39-12.59,1.58-27.56,16.09-35.04c35.51,46.84,74.87,68.17,134.5,35.64c31.47-17.17,70.63-20.22,106.32-29.64
			C301.13,520.06,320.44,514.59,335.09,534.02z"/>
		<path class="st4" d="M455.32,398.35c-13.21,30.68,32,84.56-36.95,93.12c-25.11-1.72-48.7-7.95-69.15-23.43
			c5.05-41.98,18.94-83.97-0.03-125.94c23.16,0.94,47.16-2.3,67.37,13.45C425,373.86,452.53,374.9,455.32,398.35z"/>
		<path class="st2" d="M935.51,985.44c13.11-9.17,26.23-18.35,39.35-27.52c68.21,16.82,75.27,29.21,55.32,96.96
			c-8.07,14.39-24.94,28.97-35.98,20.24c-52.72-41.66-67.14,17.05-97.32,33.76C858.7,1051.74,894.09,1017.64,935.51,985.44z"/>
		<path class="st6" d="M935.51,985.44c-11.85,41.45-57.38,72.36-38.64,123.41c-8.65,8.08-17.3,16.14-25.94,24.21
			c-14.29-4.91-28.59-9.84-42.89-14.76c-16.74-22.88-12.9-45.44,1.03-67.85c31.26-22.85,33.38-62.46,52.92-92.04
			c-0.29-22.03,10.82-22.05,26.31-13.64C917.37,958.33,926.44,971.88,935.51,985.44z"/>
		<path class="st20" d="M640.07,79.11C566.53,51.06,508.73,277.17,477.7,361.37c-10.46,2.92-20.95,5.89-22.87-10.25
			c13.97-86.36,51.19-164.13,90.99-240.55C566.53,70.82,642.64-3.99,640.07,79.11z"/>
		<path class="st21" d="M1030.18,1054.87c8.71-47.81-18.89-74.9-55.31-96.95c4.55-13.17,9.1-26.33,13.65-39.5
			c5.79-13.52,15.31-19.77,30.24-15.57c26.33,27.16,79.38,29.62,77.27,83.23C1083.72,1018.25,1057.16,1036.76,1030.18,1054.87z"/>
		<path class="st22" d="M1106.98,771.27c27.93,46.76,15.12,97.64,14.89,147.25c-58.83,1.06-76.05-18.49-79.87-90.56
			C1055.61,799.92,1059.57,760.63,1106.98,771.27z"/>
		<path class="st15" d="M1055.49,825.11c-3.7,49.5,17.3,81.44,66.39,93.41c1,26.2-4.51,49.91-25.85,67.57
			c-11-42.98-72.02-36.19-80.88-81.31c-10.7-10.82-11.57-23.52-7.25-37.26C1021.89,851.35,1025.41,823.29,1055.49,825.11z"/>
		<path class="st23" d="M1042.76,238.01c-26.38,27.83-8.98,62.24-13.94,93.29c-3.62,22.6,8.33,48.53-14.67,66.87
			c-15.82-76.5-28.47-152.89,7.66-227.63C1034.33,191.31,1042.56,213.41,1042.76,238.01z"/>
		<path class="st21" d="M1055.49,825.11c-17.53,9.13-10.9,42.21-39.76,40.11c-12.97-40.98,5.46-74.19,26.4-106.78l0-0.01
			c9.93-11.73,13.78-29.34,31.96-33.1c22.24,7.24,32.54,23.04,32.91,45.94C1077.53,777.46,1071.33,805.9,1055.49,825.11z"/>
		<path class="st17" d="M454.83,351.12c7.62,3.42,15.25,6.83,22.87,10.25c4.56,8.71,9.12,17.43,13.68,26.1
			c-5.61,24.77-21.76,14.79-36.06,10.89c-17.21-10.39-40.17-15.56-38.78-42.81C429.31,354.07,442.07,352.59,454.83,351.12z"/>
		<path class="st5" d="M150.28,400.44c1.38,21.2-8.55,38.34-24.02,50.14c-22.72,17.34-15.92-4.96-17.55-15.13
			C116.38,416.42,130.15,404.65,150.28,400.44z"/>
		<path class="st0" d="M41.53,879.34c9.4-16.29,25.4-13.85,40.41-14.23c-0.74,25.08-17.87,27.24-37.06,26.49
			C42.69,887.81,41.57,883.72,41.53,879.34z"/>
		<path class="st6" d="M1074.08,725.33c-7.57,14.01-16.32,26.88-31.96,33.1c-0.29-18.28,0.37-36.08,21.99-43.34
			C1067.48,718.49,1070.78,721.91,1074.08,725.33z"/>
		<path class="st24" d="M910.53,184.52c6.99,45.7,16.03,91.26,9.79,137.91c-7.36,5.47-15.52,9.05-24.54,10.54
			c-28.25,1.41-47.34,14.71-55.01,42.7c-10.71,67.9,46.25,31.74,70.34,45.91c-0.75,57.31-35.86,96.43-71.61,135.2
			c-30.12,41.02-65.94,35.1-103.77,12.65c-9.61-9.56-22.69-16.63-23.74-32.49c-10.09-12.37-16.64-28.29-33.69-33.71
			c-11.19-0.07-18.94-4.24-19.81-16.61l2.79-0.79c-6.99,2.18-13.43,1.08-19.34-3.26c-5.36-4.56-9.2-10.17-11.64-16.77
			c-11.53-38.06,0.95-74.71,6.57-111.8c2.69-39.45,14.92-74.75,44.54-102.48c10.62-21.84,20.67-43.99,31.99-65.46
			c23.74-45.02,54.31-81.28,110.97-82.16C879.1,103.06,887.87,151.18,910.53,184.52z"/>
		<path class="st14" d="M855.54,771.64c-0.08,13.37-0.15,26.74-0.23,40.11c-47.65,19.29-92.63,68.26-146.98,13.25
			c15.12-25.74,38.61-47.28,40-79.89c1.65-35.42,30.07-48.94,54.06-66.07c7.89,0.11,15.78,0.23,23.66,0.34
			c14.48-6.19,18.62-0.79,14.96,13.36C840.28,720.06,840.71,747.18,855.54,771.64z"/>
		<path class="st8" d="M841.02,692.73c-4.98-4.46-9.95-8.91-14.94-13.36c-20.93-40.23-53.89-69.33-89.06-96.39
			c-2.22-0.63-4.43-1.25-6.66-1.87c-1.01-4.5-1.71-9.06-2.17-13.66c0.77-4.76,3.15-8.43,7.39-10.83
			c34.61,16.71,69.26,13.91,103.92,0.18c52.07,23.17,25.43,75.33,39.26,112.6C886.4,689.95,857.22,689.6,841.02,692.73z"/>
		<path class="st25" d="M911.11,421.58c-72.62,26.74-89.2,16.45-79.58-49.36c51.04,15.1,42.14-39.9,66.07-56.51
			c7.58,2.21,15.15,4.43,22.72,6.68c-0.57,32.93-1.14,65.83-1.71,98.69C916.13,421.49,913.63,421.67,911.11,421.58z"/>
		<path class="st10" d="M984.82,596.51c1.14,22.97,2.28,45.94,3.41,68.91c-22.39,0.57-38.94-4.29-39.57-32.27
			C948.06,606.84,961.31,597.41,984.82,596.51z"/>
		<path class="st23" d="M1012.95,436.94c2.23,11.73,0.09,21.71-11.22,28.01C981.91,446.17,996.99,441.38,1012.95,436.94z"/>
		<path class="st21" d="M708.33,825c52.31,32.43,96.51-25.24,146.98-13.25c25.45,41.24,42.45,85.85,53,133.03
			c-10.85,0.54-20.63,3.13-26.31,13.63c-13.44-4.43-26.89-8.87-40.33-13.3c-8.54-7.18-10.84-16.61-9.96-26.77
			c1.61-11.26-3.27-5.84-7.62-2.07c-15.36,8.56-27.98,24.89-48.69,15.54c-64.08-0.8-79.09,53.95-104.43,95
			c-12.07,19.55-10.96,48.06-42.06,51.8c8.2-55.98-28.33-56.04-66.91-53.53c-7.03-8.77-8.3-17.6-0.24-26.5
			c19.81-13.88,11.75-34.8,13.45-53.25c46.33,5.86,76.23-7.17,82-60.23C660.25,857.15,671.28,827.89,708.33,825z"/>
		<path class="st22" d="M548.69,1078.47c-47.04,1.61-72.97-22.29-81.81-67.31c-2.36-12-14.63-25.9,0.75-34.94
			c13.77-8.1,29.65-6.3,41.04,8.08C534.46,1010.39,554.34,1039,548.69,1078.47z"/>
		<path class="st20" d="M548.69,1078.47c-12.69-31.66-36.2-58.73-40.03-94.16c17.7,4.75,35.4,9.51,53.1,14.27
			c0.08,8.84,0.16,17.67,0.24,26.51C554.67,1042.16,577.65,1066.79,548.69,1078.47z"/>
		<path class="st23" d="M843.36,907.49c-0.56,12.54-1.12,25.08-1.69,37.62c-8.63,6.47-17.56,12.58-25.81,19.5
			c-13.13,11.02-26.46,28.2-44.5,14.04c-18.82-14.77-6.86-38.75-2.04-54.25c18.17-7.33,35.27-21.17,58.16-19.31
			C833.71,899.67,839.01,900.47,843.36,907.49z"/>
		<path class="st22" d="M829.07,1050.45c-0.34,22.62-0.68,45.24-1.03,67.85C778.43,1094.92,802.22,1072.66,829.07,1050.45z"/>
		<path class="st26" d="M349.21,468.04c26.25-1.64,49.8,4.65,69.14,23.43c-8.02,52.8-46.45,46.1-83.27,42.55
			c-17.68-3.3-35.37-6.59-53.03-9.9C290.73,488.97,328.11,488.25,349.21,468.04z"/>
		<path class="st27" d="M582.46,354.89c-53.68,2.47-50.42-32.98-40.08-66.26c10.04-32.31,20.55-73.63,71.3-43.59
			c-6.33,28.59-12.65,57.13-18.98,85.68C599.31,343.18,598.01,352.65,582.46,354.89z"/>
		<path class="st12" d="M582.46,354.89c4.09-8.06,8.18-16.12,12.26-24.18c29.22-3.82,37.79-28.18,44.2-50.19
			c6.94-23.86,20.43-30.93,42.51-29.01c-9.4,35.53-18.81,71.07-28.21,106.6c-27.33,19.49-30.89,60.24-65.51,73.28
			c-13.24,0.71-26.19,0.97-24.97-18.17C569.3,393.79,575.88,374.34,582.46,354.89z"/>
		<path class="st10" d="M737.02,582.97c-5.35,36.2,6.47,74.77-15,108.74c-17.83,14.41-28.83,33.94-39.97,53.37l0,0
			C599.6,852.53,480.04,870.09,357.19,877.04c-24.79,1.4-50,25.36-75.26,1.36c3.53-33.72,34.21-31.14,54.87-37.38
			c60.41-18.23,123.15-29.16,182.83-49.3c88.79-29.97,160.18-80.51,176.11-182.34c2.49-15.92,11.45-22.59,26.06-24.36
			c4.55-6.35,9.4-6.58,14.54-0.69L737.02,582.97z"/>
		<path class="st23" d="M281.93,878.4c82.28-13.66,164.72-26.42,246.75-41.4c35.85-6.55,65.28-27.62,87.49-55.87
			c17.49-22.25,35.4-39.5,65.88-36.05c-49.14,102.5-118.41,168.79-244.2,147.58c-66.58-11.23-131.83,7.36-195.88,25.75
			c-10.82-13.3-10.84-26.6,0.04-39.88C255.31,878.48,268.62,878.44,281.93,878.4z"/>
		<path class="st18" d="M521.99,705.1c-8.9-0.04-17.79-0.07-26.69-0.11c31.34-32.28,62.42-64.92,106.67-79.97
			c12.26-3.33,16.68,1.26,13.58,13.45c-0.09,13.28-0.18,26.56-0.27,39.84c-8.94,8.84-17.82,17.74-26.68,26.66
			c-4.42,0-8.84-0.01-13.26-0.02C557.54,696.43,539.79,708.55,521.99,705.1z"/>
		<path class="st0" d="M602.07,571.68c-4.53,0-9.06,0-13.59,0c-0.09-17.68-0.17-35.35-0.26-53.03
			c-12.61-15.55-15.2-32.33-6.27-50.59c4.41-6.27,10.32-10.36,17.72-12.37c22.07-12.54,31.79,28.16,54.56,12.62l0.26,5.97
			c-5.75,4.27-9.84,9.77-12.26,16.51c-0.07,13.62-0.14,27.25-0.22,40.87C639.47,555.76,642.66,585.58,602.07,571.68z"/>
		<path class="st16" d="M602.07,571.68c29.04,2.37,22.52-30.77,39.93-40.01c37.38,56.57,32.41,76.66-26.44,106.8
			c-4.53-4.48-9.05-8.96-13.58-13.45C602.01,607.24,602.04,589.46,602.07,571.68z"/>
		<path class="st10" d="M242.01,878.53c-0.01,13.29-0.03,26.59-0.04,39.88c-28.16-4.54-53.27,9.15-79.96,13.4
			C175.65,894.49,211.66,890.76,242.01,878.53z"/>
		<path class="st0" d="M521.99,705.1c17.74-18.77,35.52-18.78,53.36-0.14c-16.53,9.37-33.93,15.39-53.3,13.66
			C522.03,714.11,522.01,709.6,521.99,705.1z"/>
		<path class="st23" d="M162.03,931.88c-1.45,26.97-20.72,26.85-40.18,26.44C123.35,931.43,142.59,931.51,162.03,931.88z"/>
		<path class="st10" d="M735.58,556.6c-0.62,5.14-1.24,10.28-1.85,15.42c-3.87,4.99-7.64,4.91-11.3-0.24
			c-13.18-8.7-12.5-21.56-10.44-34.84C719.86,543.5,727.72,550.05,735.58,556.6z"/>
		<path class="st16" d="M588.61,704.97c0.53-17.26,9.42-26.15,26.69-26.66C614.9,695.72,606.01,704.6,588.61,704.97z"/>
		<path class="st7" d="M642.22,490.79c3.99-5.49,7.99-10.98,12.12-16.49c2.36,3.87,4.58,7.77,6.87,11.6
			C654.93,487.49,648.57,489.14,642.22,490.79z"/>
		<path class="st6" d="M722.43,571.79c3.79,0.09,7.58,0.16,11.34,0.23c2.05,3.85,2.91,7.96,2.55,12.31
			c-4.83,0.22-9.67,0.45-14.52,0.68C721.83,580.59,722.04,576.18,722.43,571.79z"/>
		<path class="st0" d="M658.5,486.62c13.36-2.52,17.55,5.86,19.78,16.61C667.83,502.31,659.97,498.28,658.5,486.62z"/>
		<path class="st21" d="M802.39,679.03c-8.33,29.96-38.43,42.09-54.06,66.07C732.63,695.47,757.39,678.97,802.39,679.03z"/>
		<path class="st23" d="M682.05,745.08c-1.28-28.73,5.51-51.42,39.97-53.37C721.01,718.73,703.44,733.33,682.05,745.08z"/>
		<path class="st9" d="M588.41,465.26c-0.06,17.79-0.12,35.59-0.19,53.38c-17.53-9.07-35.05-18.14-52.57-27.21
			c0.13-8.94,0.25-17.87,0.38-26.81C553.66,451.49,571.15,449.02,588.41,465.26z"/>
		<path class="st0" d="M401.96,745.02c0.01-8.9,0.03-17.79,0.04-26.69c13.34,0.02,26.67,0.05,40.01,0.07
			C440.71,745.4,421.37,745.26,401.96,745.02z"/>
		<path class="st0" d="M495.35,705.06c-2.67,16.89-5.47,33.5-26.69,13.38c-3.41-3-4.55-5.99-3.41-8.99
			c1.14-2.99,2.27-4.49,3.42-4.49C477.56,705,486.46,705.03,495.35,705.06z"/>
		<path class="st18" d="M468.67,704.97c0,4.49,0,8.98,0,13.48c-8.9-0.04-17.8-0.07-26.7-0.11
			C444.67,701.49,447.5,684.89,468.67,704.97z"/>
		<path class="st6" d="M1042.12,758.44c-8.8,35.59-17.6,71.19-26.4,106.78c-0.19,13.19-0.38,26.38-0.58,39.56
			c-8.87,4.55-17.75,9.09-26.62,13.64C969.19,852.63,998.76,803.22,1042.12,758.44z"/>
		<path class="st0" d="M588.41,465.26c-17.46-0.21-34.93-0.42-52.39-0.63c0.15-17.14,0.3-34.28,0.45-51.42
			c8.75,0,17.5,0.01,26.25,0.02c5.9,9.79,15.36,12.07,25.82,12.23c11.68,12.6,10.61,25.53,0.99,38.67L588.41,465.26z"/>
		<path class="st0" d="M148.6,825.01c21.05-46.91,62.37-53.14,106.76-53.23C231.24,812.54,184.29,807.47,148.6,825.01z"/>
		<path class="st0" d="M281.99,771.74c31.3-25.91,68.61-27.8,106.67-26.69C354.98,761.47,324.05,788.85,281.99,771.74z"/>
		<path class="st7" d="M589.54,464.14c-0.33-12.9-0.66-25.79-0.99-38.68c24.95-19.18,16.21-70.72,64.66-67.33
			c0.26,36.79,0.53,73.58,0.9,110.28C631.87,479.2,611.47,459.81,589.54,464.14z"/>
		<path class="st28" d="M897.6,315.7c-2.65,18.98-3.6,38.41-8.5,56.78c-3.8,14.26-11.27,30.57-27.11,33.74
			c-26.09,5.22-15.61-26.57-30.46-34.02C839.55,337,844.5,298.2,897.6,315.7z"/>
		<path class="st18" d="M843.36,907.49c-5.29-0.8-10.57-1.6-15.87-2.41c2.33-10.18,5.8-24.66,17.34-20.85
			C859.45,889.07,850.95,899.91,843.36,907.49z"/>
	</g>
</g>
</svg>
