<?xml version="1.0" encoding="utf-8"?>
<!-- Generator: Adobe Illustrator 23.1.0, SVG Export Plug-In . SVG Version: 6.00 Build 0)  -->
<svg version="1.1" id="Calque_1" xmlns="http://www.w3.org/2000/svg" xmlns:xlink="http://www.w3.org/1999/xlink" x="0px" y="0px"
	 viewBox="0 0 1012.38 1080" style="enable-background:new 0 0 1012.38 1080;" xml:space="preserve">
<style type="text/css">
	.st0{fill:#220E0C;}
	.st1{fill:#652F03;}
	.st2{fill:#C76501;}
	.st3{fill:#F1A372;}
	.st4{fill:#F7B104;}
	.st5{fill:#562805;}
	.st6{fill:#BD5E00;}
	.st7{fill:#F6CDA6;}
	.st8{fill:#FCE9C5;}
	.st9{fill:#5D2C03;}
	.st10{fill:#DE8E00;}
	.st11{fill:#904A05;}
	.st12{fill:#FDEEDB;}
	.st13{fill:#DA7D07;}
	.st14{fill:#B56604;}
	.st15{fill:#F7AB85;}
	.st16{fill:#D97C59;}
	.st17{fill:#F9D0AF;}
	.st18{fill:#753903;}
	.st19{fill:#864304;}
	.st20{fill:#B25B01;}
	.st21{fill:#AA5703;}
	.st22{fill:#F9B693;}
	.st23{fill:#060C23;}
	.st24{fill:#FCFCFC;}
	.st25{fill:#3684E0;}
	.st26{fill:#F39C20;}
	.st27{fill:#411509;}
</style>
<g>
	<g>
		<path class="st0" d="M117.52,884.34c-2.14-11.25-15.53-18.82-10.43-32.44c17.27-17.33,39.65-13.14,60.38-13.37
			c23.88-0.27,45.72-4.6,64.36-20.38c5.49-5.17,11.19-10.12,16.63-15.33c20.07-17.73,28.8-48.26,59.56-54.06
			c5.12-0.43,10.19-0.14,15.25,0.64c7.74,1.05,15.48,2.06,23.31,2.57c27.97,0.86,55.36-1.19,82.38-9.67
			c31.66-9.94,55.01-1.93,62.49,34.31c-3.23,72.38-29.47,103.32-103.23,122.08c-52.76,22.81-107.44,34.04-165.03,27.48
			C181.09,929.93,150.29,904.61,117.52,884.34z"/>
		<path class="st1" d="M926.28,959.81c-13.13,24.93-37.11,39.82-55,60.34c-5.44,6.23-40.55,26.92-45.15,28.76
			c-40.95,9.45-47.69,5.35-88.82,0.57c-23.4-2.72-44.75-8.23-52.36-34.83c-0.03-34.7,30.32-43.93,50.77-61.5
			c9.02-4.84,18.68-8.36,27.89-12.81c33.62-17.51,56.22-46.08,76.18-77.35c49.63-73.42,71.83-156.25,82.36-243.02
			c2.31-19.07-0.88-39.18,11.49-56.16c12.5-8.19,21.04-0.7,29.44,7.49c27.51,44.58,6,87.05-5.39,129.99
			c-11.29,29.58-19.91,60.16-31.2,89.74c-8.07,21.14-9.75,40.9,3.19,60.38C954.22,888.39,949.58,924.39,926.28,959.81z"/>
		<path class="st2" d="M223.36,283.43c0.17-20.17,0.69-40.35,0.35-60.52c-0.13-7.93,6.37-45.52,13.5-47.88
			c16.48,21.55,23.72,38.44,35.17,26.95c5.27-4.97,10.97-9.3,17.04-13.19c49.99-14.99,70.11-54.89,82.88-100.93
			c8.53-3.54,19.86-4.35,22.89,3.85c11.66,31.65,39.23,33.55,65.45,38.99c12.37,10.11,22.4,22.41,31.8,35.08
			c29.71,40.04,26.43,74.78-11.54,106.14c-21.61,17.84-45.53,32.72-72.49,41.64c-29.54,5.35-56.02-21.53-86.39-8.24
			C287.76,304.3,252.93,305.84,223.36,283.43z"/>
		<path class="st3" d="M117.52,884.34c18.08-1.45,34.25,4.48,49.03,14.08c17.7,11.5,36.15,20.02,57.69,19.72
			c33,5.39,66.68,6.78,98.83,17.25c11.47,13.29,22.44,27.88,41.89,28.8c65.69,3.13,128.78,36.44,196.49,17.02
			c6.59-1.89,13.72,1.63,20.14,4.63c5.24,3.27,11.72,3.39,11.39,9.58c-20.95,32.32-60.84,38.32-92.71,48.02
			c-11.68,1.87-22.42-0.24-31.77-7.9c-36.08,12.6-74.5,9.42-111.66,17.49c-62.77,13.64-167.42-15.29-203.07-94.23
			C142.4,933.66,129.64,909.14,117.52,884.34z"/>
		<path class="st4" d="M628.72,145.23c7.43-3.96,16.04-6.6,22.11-12.09c42.52-38.44,92.9-47.9,147.67-42.23
			c6.21,6.9,6.3,14.49,2.5,22.51c-23.42,18.73-55.94,9.64-79.87,26.66c-23.7,9.54-37.13,27.53-42.21,52.37
			c-6.84,21.3-4.64,43.25-4.57,64.99c3.7,37.94,30.52,49.39,62.18,55.18c15.53,0.6,31.05,1.58,46.47-0.35
			c8.2-1.83,14.34-6.69,19.23-13.48c3.92-5.24,8.59-9.65,13.67-13.67c10-6.7,13.21-17.52,16.76-28.12
			c12.26-23.33,19.55-47.33,10.28-73.76c-1.32-10.77-0.35-20.99,6.67-29.86c7.53-4.92,15.42-5.29,23.66-2.08
			c9.77,6.92,15.2,16.84,19.18,27.81c4.43,14.01,5.25,28.47,5.21,43.06c0.41,19.73-3.84,38.74-8.77,57.63
			c-25,95.77-77.38,124.35-188.88,103.25c-5.44-0.97-10.69-2.76-15.7-5.11c-30.98-25-51.65-59.13-77.03-89.18
			C546.12,218.43,550.4,189.97,628.72,145.23z"/>
		<path class="st5" d="M884.8,217.99c0.06-13.74,0.12-27.49,0.17-41.23c6.5-5.75,13.1-6.73,19.87-0.45c3.1,1.32,7.89,1.79,9.04,4.1
			c22.94,46.05,46.64,92.85,27.39,145.95c-4.84,13.36,0.24,18.34,5.03,27.39c14.95,28.28,32.59,55.97,42.03,86.16
			c14.61,46.73,25.8,71.55,23.06,122.9c-0.9,16.92,0,39.42,0,60.06c0,18.16,1.03,28.75,0,36.9c-4.9,38.95-0.99,42.29,0,78.9
			c0.14,5.28,2.13,20.06,0,38.67c-25.75,13.78-32.24-8.91-41.4-23.52c-9.95-15.86-17.51-33.27-22.49-51.59
			c-0.01-5.17-0.96-10.55,0.15-15.46c4.33-19.16,5.04-40.97,15.08-56.56c14.53-22.56-17.42-37.12-4.59-56.71
			c-22.02-35.63-17.15-80.47-39.22-116.09c-12.64-39.24,10.79-82.19-12.37-120.35c-3.53-13.13-4.79-26.54-5-40.06
			C899.42,269.92,907.85,240.59,884.8,217.99z"/>
		<path class="st6" d="M628.72,145.23c-10.84,20.26-30.81,32.1-44.85,49.39c-13.05,16.06-12.58,34.12,0.8,50.53
			c10.71,13.12,26.63,21.74,32.87,38.71c-29.75,42.4-79.51,58.74-116.85,91.31c-9.66,4.89-19.82,5.91-30.38,4.23
			c-10.48-2.16-19.13-7.61-26.56-15.17c-9.05-22.23-39.56-30.18-38.93-58.95c16.96-10.68,32.93-23.77,51.17-31.29
			c15.63-6.45,24.63-18.64,35.09-29.5c14.22-14.76,12.67-44.66,0.4-61.3c-11.8-16.01-36.65-23.22-33.47-49.51
			c14.21-13.25,28.54-10.72,42.93-0.32C544.38,128.07,586.1,141.51,628.72,145.23z"/>
		<path class="st7" d="M52.44,810.19c-29.37-11.53-42.75-33.58-41.98-64.92c15.31-13.76,29.84-2.08,44.27,1.87
			c30.11,8.24,59.34,6.19,87.22-7.35c46.16-22.43,54.84-54.88,26.49-97.92c-7.61-11.56-20.32-21.08-8.66-36.9
			c0.06-3.33,0.16-6.67,0.31-10c13.08-15.98-2-37.7,10.8-53.74l-0.21,0.26c10.06-21.39,4.45-45.86,13.02-67.57
			c7.6-19.41,5.47-44.35,30.27-53.92c24.14,2.7,30.54,17.76,27.19,39.61c-9.01,19.18-22.33,36.59-24.62,58.7
			c-1.33,9.15-2.62,18.3-4.51,27.38c-0.88,4.64-2.16,9.14-3.51,13.66c-3.96,16.28-7.07,32.41,3.56,47.42
			c8.35,8.51,20.24,11.54,29.26,19.1c7.91,7.73,12.81,17.05,15.22,27.84c15.75,92.58-42.84,133.48-113.5,166.13
			C111.65,828.11,81.25,826.63,52.44,810.19z"/>
		<path class="st8" d="M159.78,604.96c1.01,9.83,1.81,15.94,13.42,23.46c40.03,25.92,40.51,64.56,9.31,100.19
			c-35.36,40.39-81.17,39.15-127.53,37.91c-17.39-0.47-22.8-28.61-44.53-21.25c-1.64-10.81-5.7-15.41-5.56-32.23
			c0.15-17.89,11.89-71.31,34.8-84.05c27.19-0.55,23.79,53.15,46.11,62.23c18.58,7.56,40.12,12.8,51.84-7.57
			c13.68-23.77-7.98-33.73-24.54-43.67c-13.29-7.98-64.02,3.45-73.41-10.99c2.69-7.11,41.43-23.5,49.11-23.49
			C112.47,605.55,136.13,605.17,159.78,604.96z"/>
		<path class="st1" d="M213.44,423.78c-4.82,18.74-22.13,31.96-22.82,52.52c-8.79,1.96-14.51,1.05-9.29-10.1
			c-3.28-30.55-29.63-49.18-39.22-76.72c-2.49-7.14-2.35-13.51-3.01-20.31c7.2-23.1,23.69-37.65,44.06-48.69
			c19.08-6.92,36.26,0.2,53.51,7.15c72.02,26.84,143.42,54.94,203.59,105.17c3.5,8.12,3.24,16.03-1.25,23.73
			c-16.25,11.19-31.4,3.35-46.69-2.58c-40.18-23.03-82.98-37.94-129.24-41.83C244.3,406.18,227.85,410.53,213.44,423.78z"/>
		<path class="st9" d="M947.51,702.22c8,0.96,20.73-2.81,20.6,9.37c-0.25,22.49,17.37,36.63,22.18,56.31
			c3.08,12.59,13.22,8.25,21.11,9.42c-7.19,61.47-41.72,112.05-65.89,166.71c-3.22,7.28-19.76,23-31.27,33.32
			c-0.02-5.31,9.95-29.43,12.29-33.29c24.23-40.04,3.61-74.01-19.06-102.65c-12.13-15.33-7.36-23.62-2.01-34.59
			c14.84-30.44,23.21-62.84,31.12-95.5C937.88,705.89,941.72,702.64,947.51,702.22z"/>
		<path class="st10" d="M234.57,337.37c-18.66,2.01-33.62-16.05-53.04-9.93c-6.64-1.21-11.18-5.13-14.16-11.09
			c-0.88-4.34,0.11-8.14,3.25-11.31c14.29-15.36,34.28-16.61,52.75-21.61c36.75-7.06,70.66,13.28,106.89,11.22
			c38.02,9.57,75.13,20.85,100.73,54.07c-5.59,41.21-29.72,46.71-63.89,34.19C323.23,366.84,281.81,343.46,234.57,337.37z"/>
		<path class="st9" d="M499.33,1034.2c27.9-12.89,57.44-21.38,85.92-32.72c24.85,27.12,48.78,17.81,72.44-1.98
			c6.75-3.83,13.94-5.42,21.64-4.62c5.02,1.34,9.25,3.98,12.81,7.75c-0.83,21.79,8.7,33.4,31.19,32.16
			c37.73-2.07,76.39,6.65,112.89-10.46c4.33-2.03,10.45-0.2,15.73-0.16c-24.21,31.85-57.05,44.09-95.81,42.89
			c-78.8,18.36-155-6.59-232.16-14.7C514.03,1051.31,505,1043.79,499.33,1034.2z"/>
		<path class="st11" d="M500.94,133.35c-14.31,0.11-28.62,0.21-42.93,0.32c-6.71,0.9-13.06,0.8-20.07,3.52
			c-37.12,14.4-41.82,11.88-43.23-25.39c-0.61-16.08-5.16-23-20.96-21.55c-20.47-24.65-31.24-59.88-11.98-85
			c29.83-0.03,49.85,22.22,65.59,32.74C461.77,60.98,488.9,91.8,500.94,133.35z"/>
		<path class="st12" d="M73.47,615.69c29.13-2.91,51.92,14.24,74.46,27.57c24.18,14.29,16.37,53.42-9.97,65.17
			c-26.54,11.83-50.22,3.39-71.73-10.77c-16.39-10.79-32.33-28.89-47.17-42.07C27.97,630.87,45.66,617.1,73.47,615.69z"/>
		<path class="st4" d="M372.89,15.59c0.29,24.89,0.58,49.78,0.87,74.66c11.45,56.37-17.27,86.29-66.13,104.2
			c-6.83,2.5-13.11,2.7-19.7,3.7c-1.46-1.59-2.92-3.19-4.4-4.77c-4.7-13.28,0.99-25.32,4.29-37.65c1.2-3.96,2.83-7.77,4.62-11.46
			c2.66-5.57,4.13-11.37,3.16-17.77c1.19-4.45,3.16-8.39,5.74-12.15c33.67-29.8,16.16-73.47,29.18-108.79
			c10.42-0.1,20.85-0.21,31.27-0.31c3.85,3.3,7.32,7.03,11.14,10.37L372.89,15.59z"/>
		<path class="st3" d="M52.44,810.19c32.31-0.26,64.63-0.52,96.94-0.77c30.3,2.8,61.02-1.49,91.07,5.59c1.66,1.78,3.3,3.59,4.94,5.4
			c-12.66,24.58-35.38,31.07-59.94,31.97c-26.08,0.96-52.24-0.23-78.36-0.48l0.3,0.35c-3.14-3.11-6.56-5.87-10.22-8.33
			C76.33,840.66,62.17,828.42,52.44,810.19z"/>
		<path class="st13" d="M330.51,5.57c7.86,29.32,12.38,56.42,2.18,88.66c-7.05,22.28-27.69,22.73-34.29,39.37
			c-44.16-19.16-14.4-49.26-10.99-75.47l-0.1,0.1c7.32-5.44,4.9-15.77,10.82-21.91C305.6,22.5,315.09,10.86,330.51,5.57z"/>
		<path class="st5" d="M499.33,1034.2c84.3,21.29,234.71,22.58,322.55,15.72c-1.47,8.22-71.92,28.25-80.29,28.16
			c-37.02-0.42-75.25,5.6-110.8-1.74c-50.44-10.42-102.29-6.11-151.98-19.88c-12.6-3.49-9.12-12.85-10.31-20.91
			C478.77,1035.1,489.05,1034.65,499.33,1034.2z"/>
		<path class="st4" d="M277.19,208.77c-2.43,4.19-3.97,9.45-7.46,12.36c-10.86,9.07-17.09,23.97-32.82,26.95
			c-1.08-13.34-2.16-26.68-3.24-40.02c-4.88-38.24,14.92-70.9,23.55-106.09c35.52,12.03,13.19,37.92,13.87,58.29
			c-1.79,14.21-1.19,28.23,4.02,41.81C275.83,204.3,276.51,206.54,277.19,208.77z"/>
		<path class="st10" d="M873.01,155.09c-7.14,0-14.28,0-21.42-0.01c-29.14,0.11-47.94-12.78-53.05-42.88
			c-0.01-7.1-0.03-14.2-0.04-21.3c34.11-2.15,54.7,19.59,74.42,42.84C878.98,140.83,879.82,147.95,873.01,155.09z"/>
		<path class="st10" d="M255.92,165.77c-0.38-8.75,3.05-16.03,6.14-24.15c4.79-12.54,14.56-28.86-4.84-39.64
			c10.07-14.62,20.13-29.24,30.2-43.85c0.05,20.58,0.39,41.16-0.01,61.73c-0.16,8.35,3.25,12.48,11,13.74l0.09,0
			c2.74,3.6,2.84,7.17-0.09,10.72l-0.03,0.04C287.29,157.67,281.63,181.93,255.92,165.77z"/>
		<path class="st14" d="M170.71,316.03c7.36,0.19,10.58,4.37,10.82,11.41c-6.74,4.93-12.45,10.32-18.79,15.71
			c-15.52,13.19-9.82,20.56-23.64,26.01c-0.84-20.89,1.02-40.68,21.08-53.14C163.69,311.99,167.2,311.78,170.71,316.03z"/>
		<path class="st14" d="M174.55,443.94c5.56,6.56,9.16,32.56,16.07,32.36c-4.87,22.28-13.81,68.31-24.83,91.32
			c0.01-20.46,5.2-67.06,4.78-87.52C170.41,471.92,172.22,458.63,174.55,443.94z"/>
		<path class="st14" d="M873.01,155.09c-0.03-7.12-0.06-14.24-0.09-21.35c17.27,9.14,32.7,19.68,31.92,42.57
			c-6.62,0.15-13.24,0.3-19.87,0.45C869.46,176.01,873.67,164.18,873.01,155.09z"/>
		<path class="st14" d="M179.41,468.09c-0.1,13.33-8.97,99.8-8.73,113.13c0.14,7.82-3.03,12.32-10.59,13.74
			c-0.06-13.49,0.1-26.99-0.25-40.48C159.64,546.45,171.65,469.07,179.41,468.09z"/>
		<path class="st0" d="M97.17,843.92c7.13-1.86,9.23,2.54,10.22,8.33C101.49,852.58,97.33,850.74,97.17,843.92z"/>
		<path class="st13" d="M170.71,316.03l-5.27-0.01l-5.27,0.01c6.88-5.49,5.27-5.49,10.44-10.98
			C170.65,308.7,170.68,312.37,170.71,316.03z"/>
		<path class="st11" d="M372.92,15.62c-6.97,0.1-10.38-3.68-11.14-10.37C369.01,4.87,372.84,8.2,372.92,15.62z"/>
		<path class="st15" d="M585.3,991.74c-31.76-5.21-60.18,17.51-92.25,11.07c-10.12-2.03-22.41,1.38-30.74-3.2
			c-33.5-18.41-69.24-18.84-105.74-18.71c-30.44,0.1-32.96-3.87-36.84-42.58c17.27-22.62,46.66-30.06,64.28-52.24
			c66.23-13.22,91.76-42.08,96.3-108.87c17.04-3.56,23.48,7.59,28.48,20.8c1.6,7.78,1.25,15.53-0.49,23.22
			c-6.24,26.78-22.48,47.4-40.13,67.5c-18.75,21.35-14.61,35.18,12.35,47.86c44.24,20.81,84.93,36.08,119.03-15.88
			c5.97-9.1,17.22-11.81,28.51-6.97c3.9,3.67,6.63,8.01,8.16,13.18c1.9,30.2-12.02,51.81-36.18,67.88
			C594.48,996.91,589.57,995.88,585.3,991.74z"/>
		<path class="st8" d="M500.7,798.71c-2.91-10.92-10-17.81-20.4-21.5c-11.52-32.78-11.63-33.1-38.9-23.32
			c-36.19,12.98-73.04,17.7-111.07,10.81c-3.86-2.59-7.56-5.4-11.09-8.43l-0.36,0.5c-7.24-10.09-9.1-20.74-3.37-32.16
			c3.58-4.34,8.12-7.33,13.48-8.96c35-5.37,71.05,16.75,105.45-4.09c17.03-9.34,22.08-38.25,49.34-30.99
			c17.57,14.45,34.02,30.14,55.04,40.12c19.76,9.38,39.87,23.14,27.53,48.39C553.81,794.73,535.82,818.93,500.7,798.71z"/>
		<path class="st16" d="M384,886.08c-1.42,14.18,3.93,30.19-18.9,34.92c-15.41,3.19-27.57,18.23-45.39,17.32
			c-30.55-1.04-62.11,5.38-90.43-12c-2.43-1.49-3.4-5.4-5.04-8.18c7.75-23,27.1-15.02,38.06-9.28
			c32.72,17.15,59.66,7.84,83.76-14.07C358.34,883.64,370.13,883.47,384,886.08z"/>
		<path class="st3" d="M319.58,723.7c-0.23,11.03-0.46,22.05-0.7,33.08c-21.53-3.23-31.5,13.49-40.15,27.39
			c-6.41,10.29-9.7,21.71-22.62,25.61c-1.8-2-3.6-3.99-5.43-5.98c-6.46-34.72,12.1-67.13,8.88-102.06
			c-1.3-14.05,11.59-24.29,27-26.86C314.58,679.45,321.75,698.36,319.58,723.7z"/>
		<path class="st3" d="M256.1,809.77c-0.44,6.75-4.12,10.18-10.71,10.64l-0.81-0.88c-1.47-8.61,2.04-12.18,10.6-10.64L256.1,809.77z
			"/>
		<path class="st17" d="M319.23,756.28c6.13-0.45,10.31,1.72,11.09,8.43C323.12,766.58,319.53,763.64,319.23,756.28z"/>
		<path class="st11" d="M692.13,1002.63c-3.57,0.01-7.14,0.01-10.71,0.02c-7-8.35-21.26-2.61-26.73-13.97
			c-4.49-10.47-3.82-20.69,1.45-30.69c33.44-30.73,73.16-54.12,98.69-94.22c41.94-65.87,37.54-143.88-14.5-199.05
			c-33.96-35.68-71.4-68.17-96.67-111.67c-10.84-18.66-29.39-22.22-50.13-23.13c-31.88-1.39-63.85-5.67-76.56-43.07
			c6.95-23.32,32.51-29.28,44.46-49.85c12.02-20.7,35.09-11.92,51.21-0.33c41.43,29.79,77.13,26.45,108.42-14.84
			c28.12-7.71,44.66,12.07,63.33,26.95c18.74,26.69,57.25,33.3,68.29,67.95c-2.08,81,6.04,161.87,2.97,242.88
			c-1.66,43.83-21.77,81.12-41.44,118.49c-9.12,25.85-33.32,39.28-48.79,59.94c-6.67,7.21-13.14,14.65-20.09,21.64
			c-15.71,3.28-18.3,17.66-25.19,28.93C714.24,998.25,694.35,982.96,692.13,1002.63z"/>
		<path class="st18" d="M936.88,562.75c7.71,95.97-24.07,183.08-59.48,269.37c-7.41,18.06-17.12,34.09-36.29,41.76
			c-1.99-2.23-3.97-4.46-5.98-6.68c-14.24-39.66,16.46-70.33,22.29-106.39c8.72-53.98,24.53-106.61,23.01-162.28
			c-0.58-21.39,4.03-42.43,20.67-58.41C922.73,532.05,936.86,536.08,936.88,562.75z"/>
		<path class="st9" d="M936.88,562.75c-4.8-15.99-15.47-23.1-31.93-21.45c-10.55,2.49-15.24-4.07-18.85-12.36
			c-1.52-32.75,1.87-62.8,40.13-73.47c11.55,2.22,20.28,10.83,20.85,20.64c1.92,32.72,18.47,63.72,11.07,97.38
			C951.06,569.91,943.97,566.33,936.88,562.75z"/>
		<path class="st18" d="M755.96,938.25c-2.57-15.84,5.42-26.91,18.76-31.44c12.17-4.12,20.5-9.71,23.82-22.2
			c12.43-10.64,23.96-24.84,42.54-10.75l0.02,0.02c-10.93,33.76-41.05,64.12-74.5,75.09C760.63,947.85,757.08,944.28,755.96,938.25z
			"/>
		<path class="st19" d="M755.96,938.25c6.92,0.17,10.47,3.74,10.65,10.72c-1.57,14.75-12.85,9.86-21.29,10.7
			C746.21,951.18,741.34,939.8,755.96,938.25z"/>
		<path class="st20" d="M425.95,348.14c-27.93-16.22-57.54-28.98-86.76-42.54c-5.04-2.34-8.5-5.19-8.93-10.96
			c5.37-17.99,18-12.13,28.58-7.71c15.24,6.37,27.76,19.48,45.98,18.34c0.48,5.4,3.23,8.83,8.28,10.95
			c19.02,7.96,35.45,18.18,34.3,42.69C436.18,363.57,429.99,358.04,425.95,348.14z"/>
		<path class="st4" d="M287.93,198.16c-0.28,6.93-3.91,10.42-10.74,10.61l-0.08-0.08c-2.48-9.65,1.09-13.2,10.64-10.73
			L287.93,198.16z"/>
		<path class="st1" d="M591.81,996.58c1.82-2.03,1.17-1.16,3.67-5.17c20.6-6.84,40.17-3.65,59.09,6.08c1.9,1.72,3.79,3.45,5.68,5.18
			c0.64,29.68-23.75,28.62-41.57,31.55c-29.74,4.88-30.43,2.86-33.44-32.73C589.03,998.82,587.62,1000.21,591.81,996.58z"/>
		<path class="st20" d="M500.59,369.64c1.01-6.65-2.86-15.99,4.82-19.27c36.52-15.6,68.19-38.03,96.79-65.49
			c2.85-2.74,10.13-0.8,15.35-1.04c20.83,28.87,51.57,50.17,64.15,85.34c-12.63,43.49-41.81,66.55-81.37,61.76
			c-17.36-2.1-34.59-5.62-52.13-6.54c-10.91-2.32-20.52-7.38-29.18-14.38C508.56,398.62,493.62,389.18,500.59,369.64z"/>
		<path class="st21" d="M543.15,412.56c5.19-0.01,11.18-1.76,15.44,0.24c55.33,25.97,92.62,1.16,123.1-43.61
			c3.49,0.23,6.98,0.37,10.47,0.43c16.95,13.96,48.16,19.24,31.96,53.37c-17.07,52.91-41.4,65.31-86.38,43.01
			c-16.68-8.27-32.67-17.71-47.17-30.12c-9.5-8.13-27.03,0.19-25.36,12.16c4.32,31.04-13.27,30.36-34.34,28.77
			c-5.16-0.39-8.46,5.05-9,10.79c-7.49,8.69-16.83,9.03-26.9,6.13c-16.18-9.26-30.27-22.16-48.21-28.51
			c-4.11-2.44-7.46-5.68-9.99-9.76c-0.02-7.14-0.04-14.27-0.06-21.41c15.82-15.48,32.09-5.7,48.35-0.99
			c18.34,5.32,37.27,13.03,50.04-9.94C537.02,419.04,539.77,415.55,543.15,412.56z"/>
		<path class="st13" d="M724.13,422.99c1.42-10.85-2.33-18.92-10.36-26.75c-8.08-7.87-19.76-13.41-21.6-26.62
			c29.9-5.49,56.31,14.52,86.45,11.39c16.3-1.69,28.46-5.34,41.82-16.26c46.9-38.33,61.57-89.55,64.36-146.76
			c18.96-0.17,34.51,2.16,30.86,28.4c-2.19,15.68-0.68,31.89-0.84,47.86c-32.39,43.3-53.9,94.24-92.35,133.29
			c-12.88,13.08-20.74,34.14-45.26,27.99C759.52,444.68,741.82,433.84,724.13,422.99z"/>
		<path class="st14" d="M798.54,112.2c17.68,14.29,35.36,28.59,53.05,42.88c0.09,10.72,0.18,21.44,0.27,32.16
			c-8.08,14.63-19.76,26.09-32.03,37.1c-9.11,4.83-18.7,5.14-28.56,3.25c-9.7-2.26-19.02-5.62-28.1-9.74
			c-4.46-2.28-8.36-5.32-11.72-9.06c-2.71-4.22-4.64-8.8-6.06-13.62c4.15-28.2-29.13-36.58-31.92-61.09
			c10.76-15.91,26.01-22.38,44.74-22.01C771.64,112.36,785.09,112.18,798.54,112.2z"/>
		<path class="st11" d="M713.47,134.09c0.42,1.67,0.38,3.7,1.34,4.96c10.05,13.29,28.6-2.72,36.7,8.81
			c10.22,14.54,2.65,33.15,4.44,49.88c-6.89,6.98-12.91,15.01-22.41,18.85c-14.03,5.48-28.11,10.86-43.67,8.63
			c-18.66-6.38-18.63-22.28-19-37.97C673.27,151.57,680.69,142.31,713.47,134.09z"/>
		<path class="st2" d="M787.98,219.39c10.6,0.02,21.2,0.03,31.8,0.05c13.36,11.4,11.95,26.62,10.66,41.81
			c-0.09,12.2-1.91,23.85-10.56,33.3c-6.93,0.26-10.41,3.94-10.61,10.87c-6.84,5.33-4.42,15.53-10.91,21.04
			c-21.24,0.13-42.49,0.25-63.73,0.38c-13.33-19.09,2.73-27.28,13.91-36.58c10.29-8.56,23.21-14.54,24.65-30.29
			c1.37-9.76,2.64-19.5,5.72-28.91C780.92,226.38,783.92,222.46,787.98,219.39z"/>
		<path class="st13" d="M787.81,262.26c2.97,22.97-14.38,27.89-29.61,36.75c-10.05,5.84-31.49,5.36-23.58,27.83
			c-34.15,10.73-43.87-28.17-69.87-35.54c-9.76-2.77-3-18.95-4.58-28.9c6.2-5.99,13.55-7,21.58-5.22
			C715.81,285.6,753,249.06,787.81,262.26z"/>
		<path class="st13" d="M819.9,262.41c-0.04-14.32-0.08-28.65-0.12-42.97c3.06-24.67,7.58-29.21,32.07-32.19
			c20.34,16.7,11.25,36.01,3.88,54.41c-3.07,7.65-14.09,10.57-14.64,20.71C834.04,268.63,826.98,268.64,819.9,262.41z"/>
		<path class="st14" d="M681.28,262.19c-7.04,0.07-14.08,0.14-21.11,0.21c-0.09-20.52,0.05-41.04-0.39-61.55
			c-0.18-8.28,3.33-12.43,11.09-13.59c7.7,1.18,11.84,5.15,10.78,13.51c-1.11,8.78-1.31,17.18,10.46,18.67
			C699.79,236.6,694.37,250.39,681.28,262.19z"/>
		<path class="st10" d="M819.9,262.41c7.06-0.01,14.12-0.03,21.19-0.05c-1.23,14.64,7.38,35.88-21.21,32.18
			C819.88,283.84,819.89,273.13,819.9,262.41z"/>
		<path class="st10" d="M798.35,326.46c1.04-8.38-3.62-19.78,10.91-21.04C808.27,313.83,813.26,325.39,798.35,326.46z"/>
		<path class="st14" d="M777.21,455.53c44.17-40.18,83.85-85.47,104.54-141.32c8.64-23.31,19.5-17.96,33.07-19.96
			c0.23,14.39,0.46,28.77,0.69,43.16c-0.78,2.37-1.55,4.73-2.3,7.11c-18.53,51.51-39.83,102.05-53.67,155.25
			c-4.18,7.03-9.09,12.64-18.41,9.26C817.3,494.25,789.09,484.81,777.21,455.53z"/>
		<path class="st1" d="M926.23,455.47c-19.62,21.15-32.93,45.03-31.92,75.09c-28.72,11.43-36.39-4.38-37.13-29.14
			c14.33-56.49,33.11-111.43,58.1-164.12l0.23,0.11c18.05,30.33,18.19,37.1,11.9,70.86C924.56,423.54,926.48,439.71,926.23,455.47z"
			/>
		<path class="st14" d="M543.25,423.32c2.79,1.51,5.59,3.03,8.38,4.54c-20.76,31.29-30.8,33.11-66.89,18.6
			c-15.13-6.08-29.77-17.44-48.04-12.42c-15.28,3.53-27.64-6.46-37.65-13.5c-49.16-34.55-90.26-61.21-148.56-75.38
			c-2.04-0.5-14.47-4.83-15.92-7.79c1.01-8.57,6.76-13.31,13.96-10c42.21,19.44,86.8,31.47,131.02,44.85
			c27.62,8.36,27.24,9.15,38.03-19.56c0.85-2.25,5.49-3.05,8.38-4.53c7.15,3.59,14.3,7.18,21.45,10.77
			c7.08,3.58,14.16,7.16,21.23,10.73c14.7,10.14,30.97,17.9,44.43,29.88C518.97,412.79,533.71,414.71,543.25,423.32z"/>
		<path class="st21" d="M511.13,401.84c-23.14,1.31-33.22-14.9-42.5-32.19c10.65,0,21.31,0,31.96,0
			c0.98,14.84,20.28,17.34,21.3,32.15C518.32,405.49,514.74,405.69,511.13,401.84z"/>
		<path class="st22" d="M255.18,808.89c-6.17,0.88-9.75,4.38-10.6,10.64c-10.17,0.23-23.49-3.64-29.97,1.4
			c-27.2,21.17-45.54,3.47-65.23-11.51c3.7-12.92,13.45-16.84,25.11-22.3c48.97-22.93,77.91-59.73,70.83-117.83
			c-0.84-6.91-0.07-14.02-0.05-21.04c18.03-12.46,31.82-3.19,45.09,8.89c3.92,8.32,4.05,16.26-2.47,23.48
			c-18.18,5-28.99,22.69-20.18,34.44c18.15,24.22,5.09,42.06-5.5,59.52C255.09,786.34,257.29,797.49,255.18,808.89z"/>
		<path class="st23" d="M234.44,627.09c-10.99-3.24-26.43,8.13-32.84-10.17c-5.61-21.45-8.83-34.69,1.83-55.59l1.48-5.98
			c7.55-15.33,13.93-33.31,35.36-30.09c5.53,1.9,9.62,5.49,12.32,10.71c7.62,18.93,6.39,38.61,4.86,58.36
			C254.91,608.9,250.11,621.89,234.44,627.09z"/>
		<path class="st12" d="M234.44,627.09c3.61-10.84,13.16-19.56,11.4-32.33c4.64-3.65,9.88-5.07,15.72-4.34
			c34.67,9.46,57.14,26.48,40.88,67.37c-4.44,4.76-9.39,5.34-14.82,1.76c-16.11,3.82-26.26-15.04-42.35-11.31
			C241.66,641.2,238.05,634.14,234.44,627.09z"/>
		<path class="st0" d="M213.44,423.78c7.78-35.77,19.27-41.37,43.02-20.99c9.99,11.11,12.79,24.62,12.98,39.03
			c0.18,13.87-0.55,27.63-6.67,40.46c-5.35,8.31-12.05,9.37-19.95,3.67c-3.43-4.14-5.72-8.87-6.89-14.15
			c0.24-2.64,0.49-5.3,0.74-7.96C234.05,447.48,238.13,427.15,213.44,423.78z"/>
		<path class="st24" d="M244.59,477.15c1.94,5.31,4.2,10.27,11.04,10.2c12.64,12.77,12.09,26.94,4.37,41.87
			c-4.49,4.93-9.91,6.4-16.25,4.4l-1.13-1.57c-9.97-15.65-29.26,3.61-39.58-10.74c-5.31-18.14,2.39-24.23,10.4-41.29
			c2.77-5.91,15.7-12.89,23.23-16.17l-0.14,0.96C236.97,470.41,241.71,473.16,244.59,477.15z"/>
		<path class="st25" d="M204.7,527.51c1.6-5.01,18.39-7.42,28.42-7.72c8.38-0.25,11.66,3.97,9.5,12.26
			c-19.71-5.89-35.96,18.37-37.69,29.07C199.89,568.65,200.85,532.75,204.7,527.51z"/>
		<path class="st25" d="M205.44,545.36c0.43,9.33-3.14,50.33-3.84,71.56C187.68,593.48,203.66,534.1,205.44,545.36z"/>
		<path class="st3" d="M258.26,445.44c-0.6-14.21-1.2-28.43-1.8-42.64c51.61-5.27,97.25,9.36,137.53,41.9
			c4.46,25.94-11.75,33.45-32.41,37.07C327.26,469.41,288.9,468.57,258.26,445.44z"/>
		<path class="st0" d="M363.1,478.06c12.9-8.67,23.67-19.35,30.89-33.36c16.19-4.21,26.54,15.17,42.77,10.76
			c3.46,0.18,6.91,0.29,10.37,0.32c6.04,12,33.12,14.44,16.44,36.8c-36.33,7.64-69.7,31.22-109.44,20.7
			C342.13,497.66,351.12,487.47,363.1,478.06z"/>
		<path class="st1" d="M660.21,991.95c8.39,0.9,19.73-4.14,21.21,10.69c-7.06,0.01-14.11,0.01-21.16,0.02l-0.04-0.04
			c-2.67-2.37-3.56-4.74-2.67-7.11C658.43,993.14,659.31,991.95,660.21,991.95z"/>
		<path class="st26" d="M287.74,197.96c-6.92,0.17-10.47,3.75-10.64,10.73c-12.2,0.19-23.65-0.02-21.41-17.96
			c1.03-8.2,0.21-16.64,0.22-24.96c21.01,6.68,26.12-18.68,42.45-21.42C303.81,164.03,286.05,179.04,287.74,197.96z"/>
		<path class="st26" d="M298.4,144.31c-0.06-3.57-0.03-7.15,0.09-10.72c2.77,1.19,7.5,1.88,7.95,3.66
			C308,143.51,302.78,143.81,298.4,144.31z"/>
		<path class="st17" d="M351.75,509.07c8.71-0.31,20.05,2.85,25.69-1.51c27.48-21.22,58.65-19.85,90.15-18.76
			c2.25,0.06,4.5,0.11,6.75,0.14c8.7,2.71,15.81,8.55,23.97,12.36c3.72,2.61,6.86,5.83,9.59,9.46c8.41,13.15,13.62,28.18,23.4,40.55
			c13.02,16.9,34.03,24.62,46.99,41.61c23.88,26.31,38.73,55.19,25.86,91.94c-18.22,21.67-12.78,43.14,0.82,64.63
			c1.56,5.24,2.41,10.49,2.74,15.93c-2.08,38.45-15.22,72.97-36.52,104.45c-10.91,16.12-21.72,35.96-45.21,29.09
			c-24.96-7.3-27.87-29.16-25.83-52.02c0.79-8.86,0.43-17.79,0.41-26.7c0.05-7.18,0.09-14.35,0.14-21.53
			c32.61,6.78,46.07-19.65,62.53-38.63c6.31-7.27-4.18-15.67-10.71-21.11c-10.61-8.84-25.09-5.12-37.69-13.78
			c-17.57-12.08-36.19-19.7-35.76-45.01c-23-24.28-7.74-57.84-20.35-84.57c-26.42-58.12-52.83-64.23-95.15-21.59
			c-6.28,6.32-12.11,12.55-21.94,12.21c-4.61-3.29-7.85-7.54-9.95-12.81C329.65,549.18,315.62,521.13,351.75,509.07z"/>
		<path class="st22" d="M500.57,820.24c8.14,1.34,11.34,5.92,10.97,14.41c-0.61,14.11-2.31,28.67,0.46,42.21
			c1.43,6.99,10.61,13.9,17.9,17.69c6.93,3.59,13.71-3.07,17.05-8.88c23.48-40.86,49.14-81,49.82-130.72
			c3.89-3.16,8.32-4.56,13.31-4.2c7.42,2.26,12.23,7.35,15.3,14.32c4.7,16.01,6.66,32.48,7.73,49.08
			c-0.44,4.61-1.86,8.96-3.93,13.05c-9.71,14.24-9.02,28.08,1.79,41.52c5.83,9.7,8.95,20.42,11.94,31.21
			c1.03,4.47,1.08,8.96,0.29,13.46c-1.18,1.92-2.39,3.83-3.59,5.75c-4.41,2.3-8.21,1.52-11.37-2.36c-7.88,1.33-17.9-3.31-21.14,9.78
			c-4.1,16.59-18.58,25.57-30.09,35.89c-21.79,19.54-40.57,21.73-62.57,4.13c-14.59-11.66-28.65-15.44-46.52-18.58
			c-35.4-6.21-42.4-33.24-18.42-59.96c10.68-11.9,20.88-25.31,34.06-33.56C497.65,845.65,479.17,823.2,500.57,820.24z"/>
		<path class="st18" d="M660.21,991.95c0.02,3.56,0.02,7.11,0,10.67c-22.15-0.4-45.06,3.74-64.73-11.21
			c11.13-21.01,33.98-35.75,33.17-63.13c2.56-4.38,6.7-5.36,9.58-9.48l1.07-1.83c4.26-3.57,7.1-25.1,13.16-0.5
			c9.76,13.11,10.44,27.88,7.71,43.27C660.19,970.47,660.2,981.21,660.21,991.95z"/>
		<path class="st3" d="M639.31,916.96c0.99,7.18-3.87,10.26-10.65,11.31c-0.14-3.84-0.28-7.68-0.42-11.52
			C631.46,916.85,636.1,917.32,639.31,916.96z"/>
		<path class="st24" d="M340.97,584.2c14.81-0.77,11.72-15.58,16.42-23.37c19.72-32.7,36.66-39.6,70.68-23.17
			c19.99,9.65,42.65,17.86,40.43,47.23c-29.41,5.4-63.2,0.01-69.91,45.53c-6.71,45.46,9.13,74.65,48.75,93.38
			c-1.29,8.41-6.12,11.27-14.47,10.92c-34.37-1.44-69.43,3.94-102.36-11.06C308.61,675.23,305.44,628.24,340.97,584.2z"/>
		<path class="st25" d="M447.34,723.8c-48.38-1.17-62.65-14.43-63.89-60.74c-0.37-14.03-1.02-28.71,2.41-42.06
			c13.25-51.62,31.46-59.11,82.64-36.11c18.65,30.06,8.46,63.37,10.58,95.29C468.49,694.72,457.92,709.26,447.34,723.8z"/>
		<path class="st17" d="M340.97,584.2c-13.71,45.7-10.32,92.71-10.47,139.45c-3.64,0.02-7.28,0.03-10.93,0.05
			c-7.59-1.31-11.66-5.29-10.7-13.59c1.88-16.17-7.81-24.13-20.99-29.49c-0.09-7.02-0.18-14.04-0.27-21.07
			c3.6-0.08,7.21-0.15,10.81-0.23C320.74,638.97,293.33,589.99,340.97,584.2L340.97,584.2z"/>
		<path class="st21" d="M660.18,959.73c-7.33-1.28-11.27-5.01-10.85-13.17c0.5-9.91,0.23-19.87,0.29-29.81
			c-1.47-1.49-2.93-2.97-4.41-4.46c0.04-2.1,0.09-4.2,0.11-6.3c0.2-10.86-3.61-21.01-5.54-31.53c-2.28-13.93-2.91-27.66,4.4-40.51
			c13.45-7.07,27.91-13.29,26.82-32.54c0.87-4.47,2.32-8.77,4.12-12.93c2.96-5.92,6.69-11.4,10.06-17.06
			c3.86-8.08,5.1-16.73,5.41-25.64c0.21-9.88,0.89-19.66,2.65-29.4c5.86-20.69,3.95-44,20.36-61.09c11.45-5.75,22-4.35,31.69,3.98
			c26.88,10.68,51.89,22.72,42.6,59.66c26.15,40.22-0.57,80.5-0.34,120.76c0.12,21.07-22.82,28.88-32.77,45.45
			C733.3,920.88,702.06,948.23,660.18,959.73z"/>
		<path class="st19" d="M862.37,498.38c3.01,24.61,7.54,29.17,31.95,32.19c0.19,6.96,3.73,10.54,10.63,10.74
			c-11.65,27.74-12.1,56.94-10.56,86.26c2.1,39.95-6.57,77.27-20.65,114.67c-11.71,31.11-11.83,65.95-31.01,95.46
			c-5.64,8.68-1.37,23.92-1.64,36.15c-16.15-4.33-26.39,15.1-42.54,10.75c4.89-26.94,22.51-48.26,31.92-73.23
			c2.38-6.33,8.83-12.11,8.86-18.17c0.32-59.32,8.84-119.03-5.01-177.71c-2.01-8.53-6.89-18.71-2.72-24.56
			c18.57-26.02,5.45-54.84,9.54-81.92c6.91-0.13,10.36-3.76,10.56-10.66C855.26,493.46,858.82,493.23,862.37,498.38z"/>
		<path class="st1" d="M745.28,659.27c-10.47,0.05-20.95,0.11-31.42,0.16c-24.43,3.34-37.29-18.9-56.99-26.08
			c-40.89-37.99-88.46-66.53-134.89-96.66c-7.83-8.45-11.83-20.31-22.7-26.12l-0.03-0.17c-3.81-5.67-10.09-9.56-11.91-16.69
			c0.96-2.11,1.93-4.22,2.89-6.33c10.55,0.07,21.09,0.15,31.64,0.22c26.43,19.51,51.04,46.12,88.46,24.04
			c10.39-6.13,15.24,2.05,22.17,6.87c20.68,14.4,30.36,37.78,43.97,57.26c14.98,21.44,27.36,42.72,53.09,53.21
			C741.06,633.67,748.32,644.81,745.28,659.27z"/>
		<path class="st11" d="M511.13,401.84c3.58-0.02,7.17-0.03,10.75-0.05c7.09,3.59,14.18,7.18,21.26,10.77
			c0.03,3.59,0.06,7.18,0.1,10.76C528.6,422.15,507.64,430.57,511.13,401.84z"/>
		<path class="st1" d="M467.59,488.81c0.47-5.36-0.94-11.48-6.31-11.61c-15.84-0.37-13.52-11.6-14.14-21.42
			c18.31,5.07,43.74,0.27,43.09,31.6l-0.36,0.37c-7.14,6.61-14.58,5.64-22.17,0.88L467.59,488.81z"/>
		<path class="st26" d="M681.28,262.19c-1.6-15.59,1.69-29.92,10.83-42.74c12.56-9.42,26.74-12.61,42.13-11.14
			c7.36-5.37,14.65-6.33,21.82,0.35c3.5,0.04,7,0.07,10.5,0.11c7.06,7.19,14.18,14.33,21.25,21.51c0,10.66,0,21.32,0.01,31.98
			c-5.22,0.27-13.29-1.55-15.21,1.13c-21.84,30.4-53.56,19.38-81.91,19.8C679.1,283.35,682.37,270.29,681.28,262.19z"/>
		<path class="st13" d="M787.8,230.28c-16.55,2.33-23.62-4.85-21.25-21.51c8.49,0.78,19.72-4.05,21.42,10.63
			C787.92,223.02,787.86,226.65,787.8,230.28z"/>
		<path class="st13" d="M756.05,208.66c-7.27-0.12-14.54-0.23-21.82-0.35c2.13-14.19,13.27-9.56,21.71-10.57
			C755.98,201.38,756.02,205.02,756.05,208.66z"/>
		<path class="st11" d="M862.37,498.38c-3.56-0.01-7.12-0.01-10.67-0.02c-1.25-19.32,1.56-37.43,10.48-55.23
			c15.17-30.27,24.19-62.95,32.15-95.82c3.07-12.68,12.95-8.89,20.95-10.01C905.91,393.76,883.67,445.91,862.37,498.38z"/>
		<path class="st25" d="M238.18,520.36c5.09,1.37,13.79,6.48,17.46,10.69c17.26,20.91,17.61,41.63-0.71,62.13
			c-15.59,25.62-9.07,9.29-9.1,1.58C245.14,574.38,245.44,534.48,238.18,520.36z"/>
		<path class="st8" d="M254.94,593.18c0.24-20.71,0.47-41.42,0.71-62.13c-0.01-14.57-0.01-29.14-0.02-43.71
			c0.88-13.97,1.76-27.94,2.64-41.91c42.14,0.48,77.95,11.62,104.84,32.62c2.35,12.62-11.14,19.35-11.35,31.02
			c-7.69,1.21-11.32,5.25-11.14,13.58c0.45,20.51,0.27,41.03,0.35,61.55c-16.35,10.82-22.22,26.79-21.17,45.62
			c0.89,16.09-7.79,24.43-21.36,29.52c2.65-30.21-0.1-56.49-39.67-57.21C257.43,602.1,256.21,596.29,254.94,593.18z"/>
		<path class="st27" d="M659.9,627.03c25.95-2.68,37.74,18.61,53.96,32.39c-1.24,21.82,3.99,44.77-10.95,64.21
			c-24.88,32.61-63.97,19.85-95.73,30.48l-5.13,1.41l-5.28-0.59c-0.16-3.34-0.81-6.58-1.96-9.72c-4.62-9.54-8.13-19.22-3.61-29.83
			c7.34-11.63,19.64-13.72,31.56-15.3c29.99-3.98,19.25-21.09,12.35-37.24C636.47,646.02,643.21,633.01,659.9,627.03z"/>
		<path class="st16" d="M659.9,627.03c-7.69,10.52-7.25,26.21-20.68,33.08c-4.31,2.87-8.78,3.16-13.42,0.9
			c-18.94-23.46-29.03-55.23-61.17-66.36c-5.5-14.98-21-15.73-32.32-20.67c-11.53-5.03-9.74-12.59-10.42-20.88
			c-5.6-7.46-6.92-14.57,1.68-20.87c1.74-0.32,3.88-1.46,5.17-0.83C578.09,555.4,627.1,579.94,659.9,627.03z"/>
		<path class="st22" d="M564.62,594.65c44.92-2.15,55.31,30.23,63.62,64.68c-0.33,17.63-7.81,29.88-25.47,34.5
			c-2.37-1.01-4.74-2.03-7.11-3.05c0.23-6.89-0.11-13.86,0.8-20.67c3.41-25.69-2.24-47.33-24.69-62.84
			C568.21,604.8,566.95,598.94,564.62,594.65z"/>
		<path class="st22" d="M596.34,712.97c-0.51,10.75-1.02,21.49-1.53,32.24c-21.17-7.79-21.03-25.64-19.49-43.49
			c1.12-13,12.58-9.08,20.35-10.94l0.72,0.74C602.9,698.68,602.55,705.83,596.34,712.97z"/>
		<path class="st0" d="M523.56,532.24c-0.56,6.96-1.12,13.91-1.68,20.87c-15.86-9.68-20.9-25.21-22.61-42.54
			C519.44,504.04,522.69,516.79,523.56,532.24z"/>
		<path class="st0" d="M467.7,488.62c7.39-0.29,14.78-0.58,22.17-0.88c-1.08,9.32,12.93,12.29,9.38,22.65
			C483.46,510.9,472.84,503.81,467.7,488.62z"/>
		<path class="st27" d="M681.79,788.29c-0.13,12.09-1.06,24.25-0.17,36.26c0.93,12.47-6.14,21.81-15.08,24.23
			c-9.82,2.65-2.56-19.81-17.14-17.49c-11.68,5.27-17.1-1.47-20.99-11.13c-10.54-16.55-12.67-34.65-9.73-53.69
			c8.05-8.67,17.83-9.04,28.32-6.06C660.17,767.67,673.11,775.28,681.79,788.29z"/>
		<path class="st0" d="M649.57,766.59c-10.3-0.04-20.6-0.08-30.89-0.12c-1.4-6.42-5.12-10.65-11.5-12.36
			c-0.4-11.25,0.13-21.17,15.92-19.81c27.31,2.36,54.04-0.78,79.81-10.67c-0.15,10.68-0.3,21.36-0.44,32.04
			C686.76,768.77,669.81,775.81,649.57,766.59z"/>
		<path class="st3" d="M628.41,820.16c7,3.71,13.99,7.42,20.99,11.13c0.16,17.81,0.33,35.62,0.49,53.43
			c5.82,7.26,5.73,14.3-0.76,21.11l0.16-0.21c-8.64,5.7-6.78,4.79-10.46,0.45c-20.22-5.15-6.77-21.54-10.55-32.17
			c-13.05-17.66-13.01-35.46-0.59-53.4L628.41,820.16z"/>
		<path class="st15" d="M627.69,820.48c0.2,17.8,0.39,35.6,0.59,53.4c-9.53-0.73-20.24,2.26-21.52-13.7
			C604.49,832.05,606.68,826.55,627.69,820.48z"/>
		<path class="st23" d="M457.7,638.87c3.54,11.85-6.21,19.28-9.65,28.91c-5.91,16.53-16.33,31.34-33.81,22.94
			c-12.27-5.9-19.63-22.31-20.38-38.94c-0.46-10.18,9.98-14.91,10.33-23.33c0.86-20.85,8.15-34.83,31.2-32.67
			C446.31,596.8,458,621.05,457.7,638.87z"/>
		<path class="st5" d="M649.57,766.59c15.81-12.63,34.55-10.78,52.9-10.91c-0.54,8.57,4.36,19.73-10.12,21.68
			c-3.46,3.75-7.88,6.55-10.65,10.97l0.09-0.04C667.47,786.46,645.78,795.75,649.57,766.59z"/>
		<path class="st19" d="M649.12,905.82c6.69-7.22,4.66-14.28,0.76-21.11c8.12,0.87,11.6,5.86,10.19,13.48
			C659.07,903.56,654.45,905.7,649.12,905.82z"/>
		<path class="st27" d="M681.7,788.33c-0.14-7.29,3.53-10.84,10.65-10.97C692.01,784.18,688.81,788.19,681.7,788.33z"/>
		<path class="st1" d="M596.34,712.97c0.01-7.15,0.03-14.3,0.04-21.46c19.62-1.67,15.67-27.06,31.86-32.18
			c3.66,0.26,7.31,0.52,10.97,0.78c0.44,5.94,4.11,9.83,9.43,10.13c9.92,0.56,21.31-3.35,22.28,13.13
			c1,16.89-7.96,27.15-22.65,29.15C631.26,714.84,613.68,713.01,596.34,712.97z"/>
	</g>
</g>
</svg>
