<?xml version="1.0" encoding="utf-8"?>
<!-- Generator: Adobe Illustrator 23.1.0, SVG Export Plug-In . SVG Version: 6.00 Build 0)  -->
<svg version="1.1" id="Calque_1" xmlns="http://www.w3.org/2000/svg" xmlns:xlink="http://www.w3.org/1999/xlink" x="0px" y="0px"
	 viewBox="0 0 1043.36 1080" style="enable-background:new 0 0 1043.36 1080;" xml:space="preserve">
<style type="text/css">
	.st0{fill:#FDFAFA;}
	.st1{fill:#D50202;}
	.st2{fill:#D9CCCB;}
	.st3{fill:#EEDFD8;}
	.st4{fill:#FCD9B1;}
	.st5{fill:#F1A987;}
	.st6{fill:#D2BCB2;}
	.st7{fill:#F5ECEC;}
	.st8{fill:#FDE4BA;}
	.st9{fill:#FBF5F3;}
	.st10{fill:#FCB998;}
	.st11{fill:#FE1312;}
	.st12{fill:#C5947E;}
	.st13{fill:#FE1817;}
	.st14{fill:#434141;}
	.st15{fill:#989898;}
	.st16{fill:#848484;}
	.st17{fill:#FDFDFD;}
</style>
<g>
	<g>
		<path class="st0" d="M374.55,6.28c48.79-2.92,97.24-6.58,146.53-4.52C645.5,6.96,751.77,55.97,848.87,128.9
			c21.5,16.15,38.2,38.69,57.11,58.29c12.55,69.83-5.43,129.61-58.44,177.97c-4.44,4.23-9.3,7.87-14.42,11.2
			c-26.07,14.14-36.94,43.22-59.84,60.62C665.07,519.2,543.81,541.37,412.19,516.1c-19.25-3.7-36.81-10.76-43.42-32.05
			c14.14-45.95,66.11-48.55,92.35-80.66c72.98-49,109.93-119.82,120.32-204.94c6.85-56.11-4.94-106.55-58.85-137.73
			c-17.98-15.91-40.85-18.69-63.04-23.18c-9.63-2.5-19.13-5.61-29.1-6.73c-7.57-0.52-15.12-1.01-22.71-1.51
			c-7.89-0.37-15.56-1.73-22.96-4.55C377.45,20.77,371.6,15.95,374.55,6.28z"/>
		<path class="st1" d="M998.33,327.6c22.52,15.21,24.85,42.18,29.98,63.79c28.84,121.47,18.41,237.42-50.46,346.51
			c-20.55,32.55-39.72,63.84-70.44,87.11c-52.63,21.46-73.38-16.84-88.73-52.82c-18.5-43.36-26.68-90.31-18.15-138.29
			c9.18-38.7,11.78-78.83,24.11-116.93c5.81-16.82,11.63-33.69,26.18-45.48c43.37-25.45,76.42-60.49,100.75-104.72
			C961.62,348.51,967.48,322.25,998.33,327.6z"/>
		<path class="st2" d="M815.63,629.5c-6.69,40.21,3.25,79.28,9.54,118.32c7.57,46.94,37.63,73.53,82.24,77.18
			c-43.52,59.45-101.5,91.55-175.72,92.93c-6.25-87.49-62.94-133.77-135.39-168.78c-45.02-21.76-78.13-61.86-122.86-84.52
			C399.2,627,321.2,602.63,237.61,596.29c-21.82-1.66-55.01,6.04-50.08-35.89c31.9-27.95,69.03-18.31,104.37-12.68
			c113.65,18.09,224.37,50.93,338.4,67.62c44.09,6.45,87.65,9.23,131.83,2.65C781.05,615.16,800.67,612.41,815.63,629.5z"/>
		<path class="st3" d="M815.63,629.5c-43.64-6.11-84.26,17.39-128.75,11.1c-49.59-7-100.52-8.56-147.82-24.99
			c-35.7-12.4-72.71-12.54-108.73-20.64c-44.85-10.09-88.9-23.76-134.9-30.67c-34.3-5.15-67.28-4.03-100.94-2.75
			c-1.85,0.07-3.47,5.91-5.2,9.06c-22.21,20.07-48.75,14.96-74.7,13.03c-14.75-3.58-29.01-4.25-40.87,7.95
			c-11.25,7.16-22.56,13.48-34.92,2.22c-25.71-38.87-28.05-83.2-29.89-127.66c46.53-31.19,92.33-5.35,137.66,3.35
			c22.04,4.23,43.1,15.23,64.67,22.94c33.62,20.28,71.51,14.61,108,17.49c43.1,11.37,88.51,4.99,131.51,16.98
			c109.53,54.32,217.91,72.27,324.98-7.12c17.94-13.3,39.47-26.74,62.39-6.02C830.63,552.35,823.13,590.93,815.63,629.5z"/>
		<path class="st4" d="M109.19,881.9c2.41-20.1-8.89-42.31,9.24-59.99c7.52-0.29,15.77-3.66,22.42-0.77
			c66.43,28.85,129.92,23.9,190.83-15.14c50.04,6.76,55.36,1.56,57.86-56.67c-2.51-3.58-4.82-7.39-7.04-11
			c-5.37-8.3-10.25,1.37-15.57,0.74c-5.16,0.44-10.01-0.2-14.9-1.87c-4.79-2.85-8.63-6.51-11.82-11.01
			c-9.74-18.7-17.22-37.36,0.23-55.9c58.25-6.24,97.22,28.05,135.37,64.29c25.89,59.5,45.83,117.92-3.09,177.24
			c-50.14,60.8-170.26,93.62-237.81,62.12c-1.53-3.81-1.92-7.61,0.03-10.55c11.7-17.56,33.43-6.63,47.83-16.68
			c-18.57,6.98-37.55,4.94-56.45,2.19c-7.54-1.09-14.69-4.09-21.89-6.48c-4.71-1.71-9.16-4.08-13.37-6.8
			c-5.74-4.38-10.02-10.09-13.88-16.06c-2.6-3.44-5.05-7.1-7.52-10.63c-3.97-4.7-8.31-9.02-14.36-11.07
			c-11-1.21-21.78,4.75-32.79,0.89C115.45,895.18,113.51,887.61,109.19,881.9z"/>
		<path class="st5" d="M639.03,926.92c-3.46,1.02-6.99,1.58-10.6,1.66c-48.59,26.6-88.97,60.48-103.79,117.04
			c-28.26,24.45-60.76,35.39-98.3,32.7c-19.11-1.37-38.47-1.37-57.59-0.11c-91.28,6.03-161.7-31.02-215.64-102.91
			c23.15-20.32,47.36-8.31,69.87-0.28c101.61,36.24,190.21,3.43,274.67-50.5c39.54-25.25,35.47-74.1,55.68-109.97
			c19.91-16.36,35.55-4.68,47.57,10c14.52,17.72,32.84,29.69,51.41,41.89c8.13,9.83,9.56,21.15,7.38,33.28
			C657.17,912.07,647.82,919.28,639.03,926.92z"/>
		<path class="st6" d="M38.81,593.82c14.33,3.93,23-8.96,35.05-11.79c6.08-7.06,13.58-11.25,23.07-11.43
			c30.79,0.01,61.58,0.01,92.37,0.02c1.07,6.1,4.88,11.97,10.47,11.51c104.16-8.61,196.42,32.06,289.56,69.21
			c23.78,9.48,36.99,31.79,56.22,46.96c39.81,31.42,85.51,52.52,127.98,79.03c34.58,21.6,47.18,56.79,67.47,87.37
			c12.78,19.27-13.92,34.01-9.3,53.23c-21.38,13.95-45.03,10.38-68.42,8.9c-5.63-11.49,0.93-20.6,5.68-30.11
			c21.81-32.8,7.7-58.48-17.59-80.19c-29.02-24.91-60.9-45.92-96.21-61.22c-4.96-2.02-9.64-4.58-14.13-7.47
			c-17.95-16.22-39.19-26.47-62.06-33.8c-83.59-43.87-171.33-70.8-266.82-71.22c-40.5-0.17-70.19,12.45-86.32,50.92
			c-2.31,1.71-4.66,3.37-7.01,5.03C82.43,671.21,52.14,638.98,38.81,593.82z"/>
		<path class="st7" d="M838.13,513.78c-14.88-0.8-28.65-2.77-42.35,9.12c-16.5,14.32-38.06,22.74-54.83,36.81
			c-19.81,16.61-39.92,27.48-66.38,22.47c-3.67-0.7-8.08-1.27-11.32,0.08c-58.48,24.37-111.28-0.72-164.42-19.51
			c-11.43-4.04-22.33-1.69-33.13-3.99c-12.43-2.65-10.58-13.58-10.97-22.79c23.11-20.54,51.27-11.37,76.84-10.95
			c131.89,2.17,229.99-57.19,304.18-162.28l0,0c35.23-16.41,54.39-42.02,61.95-82.11c4.37-23.2-0.49-55.91,30.87-69.11
			c22.11,25.71,45.11,50.82,56.68,83.67c-52.54,32.67-83.03,81.57-102.41,138.75c-5.48,16.17-10.81,32.58-25.1,43.77
			C841.04,484.19,854.33,507,838.13,513.78z"/>
		<path class="st8" d="M338.17,812.9c-18.61-3.17-28.6,10.39-37.5,22.03c-29.27,38.33-71.92,30.54-104.57,19.15
			c-22.56-7.88-43.44-18.44-68.17-19.49c-3.34-0.14-6.35-8.26-9.51-12.68c-4.1-36.33,20.32-66.12,23.14-100.87
			c12.58-6.59,21.06,0.3,29.04,8.79c4.67,8.05,6.79,16.71,5.73,26.07c13.33-6.82,8.62-21.89,14.47-32.1
			c6.43-15.68,2.66-31.5,0.56-47.36c-0.2-9.44,2.1-18.04,7.83-25.68c51.22-18.69,99.15-18,140.18,23.6
			c-5.68,21.43,13.17,37.91,11.8,58.47c6.21,6.95,8.23,15.19,7.57,24.29C354.11,776.51,356.28,798.47,338.17,812.9z"/>
		<path class="st9" d="M212.35,501.33c-24.92-1.29-53.32,7.77-68.38-22.95c-32.99,7.66-62.47-12.79-94.69-11.78
			c-13.44,0.42-26.91-0.26-40.37-0.44C13.86,319.67,57.11,190.7,177.68,97.09c11.96-4.04,15.09,3.81,17.34,12.84
			c-1.67,24.69-19.98,40.52-32.29,59.4c-71.98,110.47-52,214.75,55.97,290.28c4.74,3.31,7.65,8.38,10.04,13.67
			C230.65,486.96,225.05,496.22,212.35,501.33z"/>
		<path class="st10" d="M568.89,813.15c-1.81,72.94-34.2,128.99-113.77,151.73c-24.86,7.11-48.31,25.5-74.92,32.63
			c-66.24,17.73-102.96,2.92-193.61-19.73c-11.58-2.89-22.3-2.03-33.46-2.48c-21.41-13.24-30.15-33.9-33.74-57.58
			c-5.66-7.97-5.87-15.87,0.34-23.67c8.79-0.41,19.04,1.29,22.95-9.33c3.45-9.37,6.59-17.18,18.29-10.38
			c7.92,4.61,3.96,12.96,5.25,19.65c4.09,3.53,7.5,7.75,11.52,11.37l0.02,0.02c6.62,6.29,4.49,17.02,11.66,23.03l-0.07-0.07
			c11.61,16.61,44.58,4.95,46.15,34.86c33.71,17.5,79.36,17.46,103.93-3.76c10.58-9.15,20.6-8.27,31.11-7.59
			c45.5,2.94,71.83-24.08,96.12-57.23c23.98-32.73,31.3-63.88,13.27-103.6c-7.51-16.53-19.66-36.79-13.73-58.6
			C520.48,745.22,564.73,775.22,568.89,813.15z"/>
		<path class="st11" d="M836.83,520.5c11.84-60.85,56.02-158.98,98.36-205.39c13.7-15.02,28.27-26.11,50.07-19.94
			c5.29,9.25,27.18,40.12,30.97,53.36c-24.11,6.49-45.32,8.48-53.16,26.45c-19.01,43.53-55.54,71.18-88.53,102.08
			C871.45,479.95,842.54,520.41,836.83,520.5z"/>
		<path class="st10" d="M524.65,1045.61c2.31-23.3-9.08-48.25,13.83-68.79c26.41-23.67,49.08-52.33,89.96-48.25
			C610.55,982.41,574.56,1020.19,524.65,1045.61z"/>
		<path class="st9" d="M928.58,211.49c-11.01,29.28-19.42,58.88-24.42,90.16c-7.71,48.21-18.08,54.98-68.4,61.06
			c33.81-35.89,55.46-76.3,59.45-127.34c1.16-14.84,10.03-31.28,10.77-48.18C916.18,192.8,924.34,200.32,928.58,211.49z"/>
		<path class="st4" d="M164.39,732.23c-7.6-3.73-15.21-7.46-22.81-11.19c-6.89-0.85-9.95-5.18-10.61-11.69
			c0.62-2.6,1.25-5.2,1.85-7.81c17.96-21.15,29.32-53.88,67.96-38.83c0.06,7.39,0.13,14.78,0.19,22.17
			c-2.21,12.7-5.04,25.25-9.27,37.44C184.5,730.84,174.9,732.79,164.39,732.23z"/>
		<path class="st2" d="M374.55,6.28c-0.27,7.53,4.92,9.23,10.84,10.13c4.02,5.87,3.42,11.21-1.8,16.06
			c-20.44,11.84-41.12,11.42-62,1.21c-2.04-2.31-24.93-3.97-26.95-6.31C314.43,16.42,353.01,7.69,374.55,6.28z"/>
		<path class="st12" d="M674.07,905.29c-3.6,7.18-7.2,14.36-10.8,21.54c-8.08,0.03-16.16,0.05-24.24,0.08
			c1.06-8.69-2.03-19.62,11.58-21.57C658.42,898.42,666.24,899.27,674.07,905.29z"/>
		<path class="st3" d="M192.13,84.7c8.52-13,24.99-21.92,42.11-30.67c1.77,1.99,3.73,11.39,5.51,13.38
			c2.78,23.25-11.08,27.31-29.76,25.86C204.72,91.47,194.57,89.7,192.13,84.7z"/>
		<path class="st3" d="M280.31,37.94c8.73-15.27,22.31-11.24,35.2-11.24l1.49,2.15c1.41,19.62-12.27,18.32-25.14,18.17
			C286.87,45.45,283.08,42.35,280.31,37.94z"/>
		<path class="st10" d="M119.72,894.04c-0.11,7.89-0.23,15.78-0.34,23.67c-17.83-7.83-9.36-23.14-10.18-35.8
			C115.67,883.37,119.4,887.22,119.72,894.04z"/>
		<path class="st3" d="M189.66,109.52c-0.52-7.49-4.39-11.75-11.98-12.42c8.86-10.53,13.33-15.84,21.15-20.42
			c2.71,2.73,5.03,11.85,7.74,14.58C206.66,102.64,204.43,111.89,189.66,109.52z"/>
		<path class="st3" d="M223.53,62.94c7.84-10.06,34.51-21.6,42.78-24.81c1.52,1.94-6.67,14.6-5.15,16.54
			c-3,12.34-10.84,15.24-22.16,11.37C237.47,64.52,225.05,64.49,223.53,62.94z"/>
		<path class="st3" d="M256.59,48.85c4.33-11.4,22.73-17.48,32.45-19.91c1.3,1.47-6.15,11.96-4.89,13.46
			c-2.66,13.25-10.94,15.89-22.68,12.02C259.9,52.53,258.27,50.67,256.59,48.85z"/>
		<path class="st6" d="M130.96,709.36c-6.9-0.25-10.91-3.81-12.14-10.57l1.17-1.23c10.36-2.53,14.96,0.71,11.77,11.75L130.96,709.36
			z"/>
		<path class="st13" d="M384.05,24c0.66-2.49,1.1-5.02,1.34-7.58c7.76,0.76,15.53,1.51,23.29,2.27c7.7,6.53,15.36,6.41,22.97-0.16
			c10.03,0,14.92,0.88,25.04,3.76c14.65,35.67,48.97,17.28,73.19,26.65c35.86,9.13,51.48,39.28,61.32,68.86
			c31.75,95.37-28.33,240-118.52,293.14c-98.62,23.15-212.71-19.65-268.33-100.65c-32.85-47.84-25.59-141.7,15.18-188.46
			c29.68-34.05,67.42-55.71,109.64-71.06C348.18,43.85,372.06,45.66,384.05,24z"/>
		<path class="st11" d="M385.4,16.42c9.79,28.9-18.27,40.68-32.49,44.57c-27.11,7.41-51.18,17.33-75.61,32.06
			c-53.46,32.24-79.77,73.22-78.27,138.22c0.97,42.11,15.13,69.4,42.56,99.15c42.83,46.47,92.9,69.12,154.21,66.26
			c27.53-1.29,49.76,18.26,76.88,14.27c-21.21,27.1-50.13,43.11-81.28,55.43c-6.79,2.69-14.49,2.66-17.9,10.64
			c-14.94,16.43-34.82,16.68-54.75,16.83c-13.09,0.15-26.19,0.12-39.31,0.08c-20.09,0.06-40.03-0.43-54.88-17.12
			c-4.32-3.21-8.2-8.09-13.04-9.38c-73.84-19.72-96.93-76.93-104.54-143.83c-9.7-85.22,26.76-153.66,82.68-214.08
			c5.06-5,11.02-12.42,16.92-18.27c7.89-8.2,27.85-21.96,32.43-25.21c6.21-3.67,17.59-7.79,22.47-11.62
			c4.64-1.59,15.29-7.43,22.68-12.02c11.08-4.21,26.2-9.35,32.84-13.56C330.72,26.7,363.05,18.03,385.4,16.42z"/>
		<path class="st9" d="M304.35,480.85c23.11-0.51,53.65-2.33,73.22-9.07c2.14,12.75,7.56,27.55,17.86,29.09
			c66.21,9.9,134.25,25.18,198.25-1.68c23.85-10.01,47.23-5.73,70.24-14.94c52.54-21.01,100.36-45.37,130.75-96.29
			c8.22-13.78,20.08-28.83,41.07-25.25c-1.14,12.76,3.05,25.79-8.22,37.36c-53.73,55.16-111.18,104-185.9,129.74
			c-15.31,5.27-29.31,5.64-43.97,5.84c-47.63,0.66-95.28,0.27-142.92,0.29c-46.4-1.02-93.43,5.52-138.48-11.6
			c-5.73-5.32-8.97-11.82-9.39-19.69C307.28,496.85,297.77,485.73,304.35,480.85z"/>
		<path class="st11" d="M541.7,52.99c-13.86-0.56-32.74,10.12-47.61,10.1c-27.35-0.03-32.44-4.09-37.4-40.81
			C481.81,29.18,513.98,31.41,541.7,52.99z"/>
		<path class="st11" d="M431.65,18.53c-0.49,8.58,1.03,19.62-11.42,19.7c-12.48,0.08-11.08-10.94-11.54-19.54
			C416.34,18.63,424,18.58,431.65,18.53z"/>
		<path class="st7" d="M316.26,501.28c0,7.69-0.01,15.38-0.01,23.07c-29.46,0.01-58.92,0.02-88.38,0.04
			c-16.62,0.01-15.05-12.21-15.52-23.06c4.07-8.17-4.9-25.73-0.83-33.9c19.1,3.1,52.43,7.25,70.5,17.57
			C293.72,489.83,307.41,490.46,316.26,501.28z"/>
		<path class="st2" d="M96.93,570.6c-2.12,15.06-13.78,10.85-23.07,11.43c0.48-8.4-2.18-18.57,8.85-22.12
			C91.28,557.15,95.29,562.87,96.93,570.6z"/>
		<path class="st12" d="M131.76,709.31c-0.44-7.41-4.14-11.55-11.77-11.75c1.66-48.7,13.27-66.72,53.37-68.69
			c113.14-5.57,220.26,15.79,316.47,79.22c18.03,13.55,39.66,21.21,57.51,35.07l0.36,0.27c27.11,26.69,62.68,43.53,86.61,73.76
			c12.3,15.54,32.96,29.37,16.1,53.93c-28.44,3.26-46.23-11.05-57.05-35.58c-6.8-15.4-16.83-24.54-34.53-22.72
			c-0.66-5.61,0.21-15.31-2.2-16.21c-36-13.4-59.46-44.12-90.46-64.22c-43.09-17.53-78.12-52.69-126.79-58.04
			c-47.1-22.85-104.15-34.68-138.61-11.64c-11.82-1.88-20.43,3.12-28.87,11.21C159.05,686.26,149.19,702.15,131.76,709.31z"/>
		<path class="st14" d="M338.17,812.9c6.13-18.79-6.59-41.83,12.98-57.59c3.16-3.61,6.95-6.29,11.46-7.97
			c10.04-2,16.19-9.57,23.1-16.05c3.68,0.36,8.7-0.72,10.84,1.29c22.24,20.83,11.12,42.16,1.83,64.7
			c-8.21,19.92-16.93,37.68-41.21,38.75C342.09,836.69,340.65,823.83,338.17,812.9z"/>
		<path class="st5" d="M235.48,963.18c-1.74-7.91-5.95-12.47-14.76-11.74c-17.08,1.41-26.1-8.39-31.4-23.12
			c20.05-5.64,35.99,8.26,54.01,12.15c24.63,5.3,42.79-15.2,65.83-12.16c5.45,0.72,10.77,2.46,16.14,3.74
			c-2.99,4.48-5.08,10.16-9.13,13.25C292.17,963.6,264.21,965.39,235.48,963.18z"/>
		<path class="st15" d="M385.72,731.29c0.09,7.3,1.85,15.08-0.05,21.82c-5.07,17.95-22.04,25.27-32.45,7.09
			c-6.27-8.03-4.25-26.95,2.44-34.65c2.1-2.28,14.71-7.82,18.19-7.73c4.15,0.69,10.7,6.21,11.98,13.56L385.72,731.29z"/>
		<path class="st5" d="M189.41,928.39c-15.14-1.98-10.99-13.73-11.66-23.03C192.61,907.48,188.86,919.02,189.41,928.39z"/>
		<path class="st16" d="M362.4,732.55c-0.2,7.87-0.4,15.74-0.6,23.61c-3.52-0.68-7.06-0.96-10.64-0.85
			c0.01-7.49,0.02-14.99,0.03-22.48C354.91,732.27,358.65,732.18,362.4,732.55z"/>
		<path class="st16" d="M385.83,731.37c-4.35,0.14-8.7,0.29-13.04,0.43c1.39-4.5,2.79-9.77,8.82-8.28
			C383.54,724.01,384.45,728.64,385.83,731.37z"/>
		<path class="st5" d="M177.73,905.34c-7.15-0.44-11-4.21-11.52-11.37C173.49,894.28,177.24,898.16,177.73,905.34z"/>
		<path class="st16" d="M650.42,871.13c3.05-12.47-1.72-22.06-11.28-29.64c-28.45-22.57-58.58-35.51-86.39-67.22
			c-12.89-14.7-24.76-40.25-25.76-51c11.2,0.68,43.61,17.48,53.85,25.36c34.71,26.73,75.66,45.23,103.86,80.58
			c20.46,25.65,17.74,48.73-10.63,76.08c-7.82,0.02-15.64,0.04-23.45,0.06C650.55,893.94,650.49,882.54,650.42,871.13z"/>
		<path class="st16" d="M586.28,770.73c-27.43,10.14-86.05-36.54-96.44-62.64C517.19,706.35,574.7,746.58,586.28,770.73z"/>
		<path class="st14" d="M164.39,732.23c3.33-12.06,19.31-42.76,28.62-44.36c5.08-2.7,17.33,10.93,21.66,14.86
			c-0.91,11.27-11.04,43.08-16.65,51.04c-8.37,11.86-15.37,33.68-29.65,31.26c-11.07-1.88-3.55-23.18-3.78-35.89
			C164.49,743.51,164.45,737.87,164.39,732.23z"/>
		<path class="st16" d="M201.66,720.58c-4.97,0.91-10.37,0.56-14.15-1.58c-8.64-9.64-9.78-38.51,13.46-34.12
			C221.59,690.26,219.97,708.32,201.66,720.58z"/>
		<path class="st17" d="M316.26,501.28c-12.36-3.44-48.8,5.38-50.29-20.93c11.81-0.19,38.37,0.51,50.29,0.13
			C316.29,485.88,316.24,495.87,316.26,501.28z"/>
	</g>
</g>
</svg>
