<?xml version="1.0" encoding="utf-8"?>
<!-- Generator: Adobe Illustrator 23.1.0, SVG Export Plug-In . SVG Version: 6.00 Build 0)  -->
<svg version="1.1" id="Calque_1" xmlns="http://www.w3.org/2000/svg" xmlns:xlink="http://www.w3.org/1999/xlink" x="0px" y="0px"
	 viewBox="0 0 1125 909.03" style="enable-background:new 0 0 1125 909.03;" xml:space="preserve">
<style type="text/css">
	.st0{fill:#F9EEF5;}
	.st1{fill:#D2BCCD;}
	.st2{fill:#C74E92;}
	.st3{fill:#DC589D;}
	.st4{fill:#F571BC;}
	.st5{fill:#F066B3;}
	.st6{fill:#D65584;}
	.st7{fill:#F1AF8E;}
	.st8{fill:#9A4174;}
	.st9{fill:#F779C3;}
	.st10{fill:#FDBB97;}
	.st11{fill:#E85FA8;}
	.st12{fill:#EFA179;}
	.st13{fill:#C05795;}
	.st14{fill:#B84577;}
	.st15{fill:#EDE2EA;}
	.st16{fill:#A64770;}
	.st17{fill:#EE71AC;}
	.st18{fill:#FDC8A3;}
	.st19{fill:#FCF9FA;}
	.st20{fill:#FB8ECF;}
	.st21{fill:#DFC7D8;}
	.st22{fill:#F87FBC;}
	.st23{fill:#C38A71;}
	.st24{fill:#FCE2B6;}
	.st25{fill:#FC9AD9;}
	.st26{fill:#444042;}
	.st27{fill:#777777;}
</style>
<g>
	<g>
		<path class="st0" d="M192.95,52.89c32.45-23.65,69.95-33.37,108.77-39.46C376.49,3.22,449.06-0.88,490.78,81.22
			c16.81,34.54,17.21,70.68,10.4,107.53c-5.01,15.7-9.65,31.72-26.34,39.65c-18.95,5-31.42-5.2-42.56-18.39
			c-6.4-7.59-11.69-16.01-17.59-23.98c-52.3-70.72-115.13-92.82-178.44-62.84c-69.59,32.95-94.92,99.7-70.24,185.48
			c7.3,25.38,17.35,50.76-2.6,75.2c-57.48-13.65-93.03-64.54-92.58-132.72c0.4-60.65,26.13-111.23,62.96-157.34l0.02-0.02
			c4.83-6.26,14.56-3.99,19.02-10.9l-0.05,0.08c4.13-2.51,7.34-6,10.32-9.74l-0.13,0.13c3.76-2.91,6.93-6.45,10.5-9.56l-0.05,0.06
			C178.59,57.83,188.19,59.67,192.95,52.89z"/>
		<path class="st1" d="M799.84,242.57c33.93,51.05,48.36,109.77,47.77,168.49c-0.76,75.59-21.56,148.51-65.69,212.28
			c-14.62,21.12-27.15,44.5-51.44,57.06c-31.04,13.53-42.06-12.46-57.84-29.17c-16.94-36.3-29.22-73.51-20.86-114.46
			c2.23-7.29,5.83-13.94,9.93-20.31c24.62-41.09,52.44-80.61,67.31-126.82c10.78-33.49,12.62-62.55,1.26-97.28
			C738.72,257.23,757.01,226.7,799.84,242.57z"/>
		<path class="st2" d="M700.74,719.77c3.3,0.34,6.6,0.67,9.9,1.01c6.22,5.74,8.54,13.54,11.91,20.98
			c17.12,37.81,41.69,47,71.4,18.15c39.84-38.69,77.01-43.32,120.34-10.39c16.87,12.04,46.13,10.86,45.09,42.05
			c-20.65,14.93-49.14,10.27-68.83,27.68c-36.89,24.99-71.91,53.33-120.3,53.24c-34.45-0.06-65.95-5.41-89.65-33.21l-0.06-0.06
			c-11.18-12-23.64-5.06-36.43-3.47c-55.3,6.91-103.63-5.21-137.21-54.12c-4.32-14-0.12-25.34,10.84-34.54
			c6.7-3.98,14.01-5.19,21.66-4.68c21.47,6.47,41.97-0.97,62.72-4.82C635.9,736.62,664.95,709.42,700.74,719.77z"/>
		<path class="st3" d="M22.72,442.25c-6.68-2.03-9.17-6.53-9.09-13.46c0.14-12.16-9.78-41.71-10.03-53.87
			c10.69-9.49,31.44,11.16,41.12,17.83c43.71,30.07,95.53,33.28,144.88,44.78c85.64,14.68,168.95,43.01,256.98,43.36
			c74.93,15.9,149.46-16.46,192.29-89.04c44.11-74.75,64.76-154.76,36.81-241.34c-5.19-16.07-8.84-32.13,4.72-46.36
			c25.36,14.19,43.77,35.54,60.43,58.68c6.62,43.63,2.94,86.68-7.15,129.37c-6.64,53.23-31.21,99.64-55.54,146.2
			c-49.6,54.95-98.89,110.53-182.98,106.2c-125.71-9.88-245.99-48.04-369.19-71.04C90.83,467,53.29,465.19,22.72,442.25z"/>
		<path class="st4" d="M481.36,83.58c-13.49-15.12-24.67-33.77-41.04-44.48c-21.98-14.38-45.55-28.49-74.95-25.65
			c-21.02,2.03-42.42,0.13-63.65-0.01c2.14-7.5,7.41-9.47,14.76-9.45c42.91,0.15,85.99-2.37,128.66,0.83
			c25.81,1.94,53.17,3.48,76.79,17.73c56.52,47.87,102.59,102.97,118.14,177.74c19.08,91.78-27.31,192.46-113.96,250.25
			c-14.84,5.12-29.61,12.11-45.4,3.05c-11.52-21.58,5.79-32.76,16.62-46.31C622.21,326.03,593,151.17,481.36,83.58z"/>
		<path class="st5" d="M521.35,441.52c54.45-36.41,87.59-88.23,104.58-150.16c9.02-32.87,8.71-66.69-1.24-100.34
			c-14.37-48.57-37.56-90.96-75.65-125.34c-12.44-11.23-31.96-20.16-27.1-43.14c47.08,0.14,82.17,27.66,118.68,51.93
			c38.87,70.41,68.03,142.82,39.34,224.73c-21.03,60.03-55.53,111.29-106.04,150.74c-16.98,13.26-35.09,25.14-58.58,16.3
			C501.79,454.24,513.33,448.31,521.35,441.52z"/>
		<path class="st6" d="M14.2,434c43.81-3.84,92.86,21.63,134.36,30.3c43,8.97,86.69,15.47,129.06,27.27
			c28.83,8.03,58.65,9.74,87.53,18.77c43.98,13.74,89.66,21.89,136.32,20.7c8.98,9.11,15.01,19.72,16.59,32.61
			c-0.09,29.04-21.56,36.39-43.7,43.12c-30.13,5.57-50.92-25.35-80.92-20.67c-70.69-31.72-142.35-59.89-221.39-61.59
			c-15.41-0.3-30.84-0.31-45.79-4.76c-33.07-17.95-67.84-32.42-101.83-48.52C23.85,461.56,14.77,443.65,14.2,434z"/>
		<path class="st7" d="M521.26,749.99c-2.43,10.18-13.57,17.34-10.22,29.52c0.15,8.23-2.17,15.23-9.73,19.64
			c-7.71,0.95-14.14,0.29-20.05,9.59c-22.79,35.84-56.4,56.12-98.88,61.08c-34.13-6.28-56.06-23.89-56.79-61.18
			c1.48-4.66,2.76-10.77,6.75-12.67c60.51-28.77,95.37-79.31,119.37-139.28c22.17-5.54,32.47,5.76,36.63,25.78
			c-10.01,31.68,10.01,44.85,34.29,55.39C525.3,742.25,524.68,746.28,521.26,749.99z"/>
		<path class="st8" d="M889.4,809.49c4.87-12.43,12.25-20.8,27.3-20.03c14.12,0.72,28.32,0.09,42.48,0.05
			c2.99-3.38,6.69-5.57,11.07-6.63c12.99-1.31,26.14-1.58,38.69-5.88c37.44-14.76,52.55-46.76,63.46-81.99
			c13.08-19.87,8.36-46.93,26.17-64.86c9.16,1.46,17.18,8.92,17.54,15.41c2.59,46.54,11.76,95.65-18.6,136.24
			c-33.65,44.98-73.64,83.24-137.19,77.56c-23.88-2.13-49.23,6.19-71.06-10.22C877.07,835.87,879.57,822.67,889.4,809.49z"/>
		<path class="st4" d="M133.79,93.82c0.29,13.18-1.89,24.13-10.77,36.09c-27.39,36.91-38.89,79.86-39.32,125.84
			c-0.46,48.43,18.95,85.96,60.09,112.01c6.7,4.24,9.87,13.56,19.53,13.57c12.11-7.88,19.86-2.57,25.75,8.47
			c2.18,8.15,1.27,15.89-3.14,23.15c-5.99,5.6-13.27,8.27-21.26,9.28c-59.27-14.75-112.06-40.47-150.48-90.15
			C16.73,244.52,66.13,146.1,133.79,93.82z"/>
		<path class="st9" d="M819.02,609.87c0.71-6.41-0.09-13.16,5.31-18.33c49.37-47.19,103.91-76.36,174.41-50.37
			c13.88,13.61,23.98,28.31,14.18,48.8c-8.38,10.51-20.67,14.05-32.58,18.26c-55.36,2.16-68.23,49.18-90.71,86.09
			c-11.38,6.69-23.19,7.04-35.32,2.43c-6.82-3.48-10.02-9.24-10.31-16.69c4.73-6.96,6.63-13.58-2.9-18.45
			C828.48,646.6,811.71,633.34,819.02,609.87z"/>
		<path class="st10" d="M451.82,660.15c0.42,19.39-15.92,35.57-10.2,56.23c2.61,9.42-6.83,13.89-11.47,20.34
			c-22.53,31.26-57.11,45.23-89.34,62.49c-4.63,2.48-8.08,4.8-8.44,10.26c-52.76,46.34-108.95,17.02-163.93,6.69
			c-12.56-2.36-24.33-9.84-35.91-16.14c-26.55-11.32-28.69-37.95-37.81-60.22c8.05-12.25,18.16-21.86,32.8-25.76
			c26.07-1.37,36.86,17.47,47.85,36.06c10.03,22.56,34.43,15.28,50.96,24.29c98.47,11.13,150.13-23.77,173.63-117.63
			c3.19-12.73,4.79-26.14,20.07-30.95C440.88,627.79,454.33,636.6,451.82,660.15z"/>
		<path class="st11" d="M511.4,461.41c22.58,2.36,40.88-6.78,56.54-21.88c16.67-16.06,36.25-30.45,48.53-49.47
			c33.42-51.8,73.12-101.94,64.19-170.27c-3.93-30.04-9.98-59.41-24.88-85.87c-10.58-18.79-17.62-37.71-15.17-59.46
			c18.5,2.87,22.99,24.51,39.78,29.66c0.47,11.36-2.55,24.37,1.95,33.81c44.05,92.51,10.54,197.36-34.02,267.06
			c-40.15,62.8-102.39,101.65-183.21,96.56c-7.74-0.49-12.16-2.66-13.39-10.32C460.14,458.35,489.37,467.09,511.4,461.41z"/>
		<path class="st5" d="M849.8,690.21c13.09,0,26.18,0.01,39.27,0.01c13.89,10.74,19.73,26.63,26.84,41.76
			c2.18,10.02,2.08,19.56-5.95,27.35c-16.3,4.78-24.86-7.11-32.62-17.09c-12.16-15.64-22.54-10.64-37.13-3.07
			c-18.39,9.54-28.89,26.37-43.71,39c-23.06,19.65-66.64,15.19-81.67-9.3c-9.26-15.08-2.97-32.03-4.18-48.1
			c18.78-6.94,37.29-14.79,56.48-20.33c6.91-2,11.59-3.66,13.57-10.55C803.76,681.9,826.74,695.37,849.8,690.21z"/>
		<path class="st12" d="M132.52,800.02c27.67-6.47,54.76,5,79.01,11.61c42.23,11.5,80.75,8.41,120.83-2.15
			c1.72,27.23,22.22,38.24,42.44,49.84c3.41,1.96,5.1,6.92,7.58,10.5c-0.52,1.56-0.88,4.4-1.59,4.49
			C287,886.48,196.46,887.59,132.52,800.02z"/>
		<path class="st13" d="M889.4,809.49c-0.04,13.21-0.09,26.42-0.13,39.64c-22.47,9.75-25.92,37.58-50.67,48.23
			c-29.55,12.71-90.32,18.92-114.94-1.85c-17.8-15.02-41.87-27.56-43.07-56.22c6.16,0.94,12.06-0.28,18.45,3.46
			c55.48,32.39,121.52,18.83,161.48-19.54C868.85,815.2,876.22,806.61,889.4,809.49z"/>
		<path class="st11" d="M14.2,332.08c13.5-2.85,21.41,5.65,29.14,14.41c15.22,17.21,34.66,27.24,54.95,37.7
			c13.68,7.05,37.3,2.1,41.44,26.36c0.29,1.68,15.33,0.84,23.51,1.17c9.03,12.05,34.92,15.65,19.92,39.74
			c-32.65-4.38-62.68-19.64-96.56-20.78c-16.52-0.56-32.71-11.42-44.32-25.55c-7.56-9.21-16.12-16.31-29.28-12.8
			C-5.8,371.85,6.08,352,14.2,332.08z"/>
		<path class="st9" d="M94.07,727.42c-53.64-42.86-68-117.63-20.64-167.16c25.06-4.64,34.28,14.21,45.31,30.45
			c1.49,4.75,2.14,9.65,2.09,14.63c-9.21,32.79-13.9,66.51-19.76,100.02C97.66,712.6,102.08,726,94.07,727.42z"/>
		<path class="st14" d="M700.74,719.77c-32.68,12-63.88,28.92-99.84,30.02c-5-53.47,29.74-111.27,77.1-110.64
			c14.73,16.84,19.82,24.24,27.28,31.74c7.44,7.47,15.37,10.11,25.19,9.51C726.21,697.78,704.38,701.9,700.74,719.77z"/>
		<path class="st13" d="M501.31,799.15c0.71-7.8-3.3-17.94,9.73-19.64c26.43,19.78,51.15,40.39,87.15,44.6
			c15.98,1.87,29.95,9.62,44.92-1.46c8.85-6.56,19.15-3.47,28.43-2.71c11.57,0.95,8.08,11.77,9,19.28
			c-14.43-3.99-24.08,7.52-35.37,12.18c-49.58,20.45-108.54,4.63-142.67-37.79C499.99,810.48,501.61,804.04,501.31,799.15z"/>
		<path class="st13" d="M730.28,292.36c-21.72-8.21,2.73-15.36,1.42-24.81c-3.95-28.6-1.23-58.09-1.6-87.23
			c-0.11-8.59-0.3-16.21,10.74-17.49c31.18,18.07,42.44,50.87,59,79.75C764.96,241.01,738.17,261.05,730.28,292.36
			C727.28,295.56,733.52,295.46,730.28,292.36z"/>
		<path class="st15" d="M849.8,690.21c-1.31,7.11-0.02,22.28-7.7,18.38c-19.77-10.03-44.05-3.13-61.41-18.7
			c0.87-10.77,8.9-18.6,9.98-30.29c1.81-19.66,7-40.02,28.36-49.73c5.86,19.33,20.49,33.38,30.29,50.34
			c2.64,2.2,3.54,4.43,2.71,6.69c-0.84,2.27-1.69,3.4-2.56,3.4C849.58,676.93,849.69,683.57,849.8,690.21z"/>
		<path class="st14" d="M24.42,471.22c40.6-5.4,71.85,12.35,99.08,40.04c-3.23,32.57-21.37,40.2-50.18,29.99
			C43.81,527.12,38.3,496.25,24.42,471.22z"/>
		<path class="st16" d="M73.32,541.24c20.84-3.11,40.74-7.8,50.18-29.99c16.58-0.02,33.17-0.04,49.75-0.06
			c5.92,13.66-7.02,17.21-12.99,24.53c-4.35,4.2-8.58,8.53-12.31,13.32c-11.76,13.61-13.68,35.58-34.79,41.25
			c-17.53-4.35-22.04-25.91-39.73-30.04C73.39,553.92,73.36,547.58,73.32,541.24z"/>
		<path class="st3" d="M1098.57,630.13c-1.66,24.79,5.56,52.06-19.63,70.28c-6.02-3.86-8.95-9.79-11.03-16.31
			c-4.27-19.45-13.84-36.86-21.66-54.98c-1.57-4.3-2.4-8.73-2.57-13.31c1.51-11.79,5.35-22.33,15.92-29.19
			c7.06-2.01,13.52-1.05,19.13,3.97l-0.29-0.3c4.64,8.08,10.5,15,18.6,19.84C1097.56,616.8,1098.07,623.47,1098.57,630.13z"/>
		<path class="st17" d="M1058.53,590.47c3.91,12.33-7.7,19.51-9.89,29.81c-22.45,2.63-37.6-4.67-40.02-29.35
			c5.28-18.29-11.32-32.23-9.87-49.76c12.37-3.86,19.89,6.94,30.01,9.91c3.07,3.57,6.46,6.78,10.39,9.41l-0.27-0.24
			c4.85,6.88,14.32,4.96,19.89,10.46l-0.22-0.22C1064.12,577.16,1064.42,583.82,1058.53,590.47z"/>
		<path class="st18" d="M93.13,723.73c-0.04-6.27,0-7.5,0.4-13.8c13.51-7.25,26.25-12.21,29.97,9.97
			c-4.08,14.61-13.68,21.25-28.79,19.91C93.13,732.28,93.12,728.99,93.13,723.73z"/>
		<path class="st1" d="M1097.05,610.13c-16.35,2.9-20.48-5.65-18.6-19.84C1088.15,593.63,1094.82,599.81,1097.05,610.13z"/>
		<path class="st1" d="M1058.53,590.47c0.01-6.66,0.02-13.32,0.02-19.98c10.64,2.77,17.31,9.54,20.2,20.1
			C1072.01,590.55,1065.27,590.51,1058.53,590.47z"/>
		<path class="st4" d="M192.95,52.89c-0.6,14.19-11.33,10.33-19.54,10.97C174.48,50.52,185.2,54.34,192.95,52.89z"/>
		<path class="st4" d="M152.82,82.9c-0.06,14.59-11.01,10.18-19.02,10.9C134.62,80.53,144.72,83.45,152.82,82.9z"/>
		<path class="st1" d="M1058.77,570.71c-8.11-0.68-19.05,4.03-19.89-10.46C1046.94,561.01,1056.81,558.35,1058.77,570.71z"/>
		<path class="st4" d="M173.47,63.81c-0.23,6.77-3.76,9.93-10.5,9.56C163.08,66.47,166.84,63.57,173.47,63.81z"/>
		<path class="st4" d="M163.09,73.24c0.29,7.2-3.18,10.41-10.32,9.74C152.8,76.12,156.7,73.36,163.09,73.24z"/>
		<path class="st1" d="M1039.14,560.49c-6.58,0.3-10.18-2.68-10.39-9.41C1035.04,551.11,1038.76,553.96,1039.14,560.49z"/>
		<path class="st19" d="M183.25,391.59c-1.66-13.1-12.37-8.61-19.93-10.26c-0.08-27.39-5.73-52.92-13.22-79.85
			c-14.29-51.34-15.12-103.71,27.31-149.23c29.11-31.23,63.11-52.58,102.44-57.18c33.7-3.94,70.09,5.29,98.04,29.38
			c25.87,22.3,48.52,47.93,63.69,78.94c6.48,13.24,14.64,21.17,30,19.33c5.97,5.74,6.73,12.73,4.98,20.36
			c-33.57,63.42-75.88,118.25-144.93,146.75c-16.77,6.22-33.71,11.76-51.55,14.16c-8.05,0.97-16.12,1.22-24.23,1.49
			C230.81,405.21,204.76,410.16,183.25,391.59z"/>
		<path class="st9" d="M481.36,83.58c12.77,0.21,24.12-0.31,35.91,9.84c50.72,43.69,71.12,99.95,73.67,164.66
			c0.19,4.92-0.11,9.86,0.05,14.78c1.92,62.59-32.44,104.35-79.82,138.45c-2.19,1.58-6.43,0.31-9.71,0.37
			c-25.52,10.13-46.05,36.95-78.6,23.57c-15.11-26.74,7.92-34.2,23.33-44.47c77.96-51.96,93.02-117.43,44.96-197.98
			C491.37,156.08,495.4,119.02,481.36,83.58z"/>
		<path class="st20" d="M491.15,192.81c29.69-2.91,36.75,23.38,38.8,40.35c4.98,41.14,4.4,83.87-18.88,121.16
			c-14.8,23.69-37.18,38.16-63.32,49.23c-9.59,4.06-33.05,4.72-25.88,28.03c-48.27,9.62-96.12,11.79-142.78-7.96
			c-5.81-11.27-4.5-21.77,3.46-31.53c17.46,0.72,31.54-14.75,49.76-10.41C413.57,403.19,499,331.3,471.34,242.52
			c0.08-6.6,0.17-13.2,0.25-19.8c10.83-1.42,10.73-9.1,9.8-17.19C480.54,198.09,483.93,194.01,491.15,192.81z"/>
		<path class="st16" d="M680.64,650.32c-4.93,0.22-11.55-1.55-14.53,0.97c-31.21,26.42-55.75,57.54-65.21,98.49
			c-16.96-3.91-28.23,15.88-46.25,10.61c-6.83-2-12.16-2.71-13.5-10.42c22.51-64.94,13.2-83.62-53.88-107.89
			c-33.91-12.9-68.71-24.62-85.42-61.4c1.12-7.58,6.94-13.11,12.72-9.16c11.54,7.87,26.7,10.02,35.36,22.22
			c5.52,7.78,13.65,7.03,21.65,6.8c45.68,13.58,81.01,0.3,114.85-33.88c18.19-18.37,47.41-58.19,83.57-45.48
			C665.62,562.88,671.98,610.85,680.64,650.32z"/>
		<path class="st21" d="M737.48,274.53c3.12-0.11-0.96,17.6,2.16,17.47c11.45,7.41,29.12,11.38,14.7,31.52
			c-12.94,18.06-0.38,39.76-9.25,60.64c-14.72,34.64-26.81,70.02-51.43,99.27c-9.7,11.53-5.5,31.65-23.67,37.77
			c-9.53-8.45-11.53-19.82-12.39-31.66c-1.2-20.64,5.44-39.5,13.29-58.09c13.13-30.4,29.07-59.97,38.29-91.51
			C714.25,322.52,732.88,291.35,737.48,274.53z"/>
		<path class="st14" d="M669.27,491.47c0.24,9.91,0.48,19.81,0.72,29.72c-0.08,6.41-3.63,9.36-9.74,9.77
			c-30.61,4.04-44.12,34.1-69.81,46.06c-8.3,3.86-13.96,13.35-20.9,20.19c-32.96,32.49-56.41,33.28-97.96,3.34
			c1.21-7.18,4.98-10.41,12.72-10.12c20.29,0.77,27.74-10.84,27.11-29.57c50.06-17.52,100.04-35.07,140.34-71.85
			C656.83,484.36,663.94,486.78,669.27,491.47z"/>
		<path class="st15" d="M1008.62,590.93c13.34,9.78,26.68,19.57,40.02,29.35l-0.28,0.47c19.48,77.8-38.69,118.84-79.58,168.05
			c-3.16,0.66-6.36,0.9-9.59,0.71c-12.02-17.21-34.01-18.16-49.21-30.18c-0.4-9.48-0.79-18.96-1.19-28.44
			c-1.3-3.21-2.59-7.88-0.71-9.09c44.4-28.56,56.23-75.86,70.61-121.71C984.08,582.05,998.69,594.17,1008.62,590.93z"/>
		<path class="st8" d="M491.17,630.74c36.6,1.87,56.2,29.43,76.92,53.4c11.48,13.28,2.44,44.71-13.98,54.86
			c-5.22,3.22-12.1,2.93-12.96,10.97c-6.63,0.01-13.26,0.02-19.89,0.02c-0.13-3.35-0.26-6.69-0.38-10.04
			c-6.38-10.2-2.11-21.26-2.77-31.92C519.99,678.48,485.72,661.49,491.17,630.74z"/>
		<path class="st17" d="M183.16,451.45c-0.85-7.18,2.59-17.59-7.69-19.15c-14.06-2.13-11.66-11.71-12.23-20.59
			c6.64-0.01,13.28-0.02,19.92-0.03c66.15-0.55,127.31,27.52,193.01,33.25c35.11,3.06,72.16-18.58,105.38,6.53
			c15.11,4.06,24.69-13.98,39.79-9.94c-3.31,6.63-6.63,13.26-9.94,19.9c-10,15.4-24.88,20.62-42.36,19.8
			c-8.2-0.38-15.93-0.92-17.32,10.03c-78.08,7.07-152-15.37-226.01-34.22C211.07,453.29,197.25,453.66,183.16,451.45z"/>
		<path class="st2" d="M669.27,491.47c-4.84,0.5-13.14-0.41-14.02,1.72c-15.84,38.69-55.92,44.48-85.96,63.38
			c-17.47,10.99-38.57,2.13-57.89,4.28c-19.03-4.71-6.42-19.95-9.94-29.83c13.24,0,26.49-0.32,39.71,0.1
			c8.49,0.27,15.73-0.72,22.3-7.28c22.85-22.81,49.22-41.1,77.02-57.28c14.3-8.32,15.19-27.84,30.38-35.14
			C670.34,451.45,669.81,471.46,669.27,491.47z"/>
		<path class="st22" d="M481.55,451.46c-18.88,2.26-38.3-4.49-56.79,8.76c-7.64,5.47-23.08,3.71-33.7,0.72
			c-38.4-10.85-79.58-6.99-116.78-20.25c-27.22-9.7-56-8.8-82.65-18.68c-4.91-1.82-8.1-4.87-8.49-10.32
			c0.03-6.7,0.06-13.39,0.09-20.09c26.5,0.35,53,0.69,79.5,1.04c10.24,7.19,9.81,21.68,19.87,29c5.5,2.79,12.63,9.34,16.24,7.78
			c36.63-15.9,72.28-8.67,108.18,2c4.56,1.36,9.88,0.17,14.85,0.17c10.66-1.36,23.37,4.71,31.32-6.75
			c12.63-18.2,31.27-12.16,48.26-13.14c-0.55,8.88,1.86,18.47-12.21,20.61C478.96,433.86,482.42,444.28,481.55,451.46z"/>
		<path class="st23" d="M491.17,630.74c10.27,15.08,19.02,31.55,31.27,44.79c10.32,11.16,8.84,22.51,8.12,34.89
			c-25.14,14.54-39.73,3.61-48.96-20.28c-2.85-22.74-7.02-26.94-29.78-30c-6.29-13.57-16.18-23.54-29.84-29.71
			c-44.23-10.98-75.59-49.71-121.85-56.39c-44-31.21-99.91-21.59-146.77-42.86c0.69-7.37,4.66-10.13,12.09-10.37
			c4.93-0.16,7.35-4.64,7.81-9.62c81.77,4.85,158.35,26.75,228.6,69.49C432.35,596.07,454.37,626.6,491.17,630.74z"/>
		<path class="st12" d="M481.6,690.15c16.23,6.97,26.74,27.76,48.96,20.28c4.51,12.38-7.44,19.36-9.69,29.53
			c-7.98-0.03-16.14,1.01-23.92-0.28C469.51,735.14,464.39,718.08,481.6,690.15z"/>
		<path class="st21" d="M968.77,788.8c0.16-13-1.21-25.68,11.28-35.73c12.83-10.32,23.51-23.28,35.42-34.79
			c15.96-15.42,24.55-33.69,23.1-56.21c-0.94-14.75,0.05-29.08,9.78-41.32c15.79,16.85,28.29,35.33,29.64,59.38
			c-18.46,39.26-38.99,77.2-69.35,108.89c-4.63,0.34-11.74-1.1-13.49,1.33C984.93,804.47,977.36,790.62,968.77,788.8z"/>
		<path class="st1" d="M1008.64,789.01c1.13-10.95-4.14-23.76,7.74-31.73c22.71-15.25,33.51-39.03,40.84-63.17
			c4.17-13.72,10.81-13.89,20.77-13.98c0.31,6.76,0.63,13.52,0.94,20.29C1072.86,746.08,1048.51,776.77,1008.64,789.01z"/>
		<path class="st0" d="M978.68,600.08c0.07,6.6-0.34,13.25,0.28,19.8c4.7,49.22-12.16,84.84-62.22,100
			c-5.13,1.55-7.35,5.86-7.97,11.01c-20.17-6.97-20.33-23.63-19.7-40.67c5.07-34.21,13.31-65.6,47.98-84.12
			C951.45,598.41,964.99,602.73,978.68,600.08z"/>
		<path class="st5" d="M849.47,670.29c-0.05-3.36-0.1-6.73-0.15-10.09c4.11,0.55,9.13,0.78,7.72,6.67
			C856.64,668.52,852.1,669.18,849.47,670.29z"/>
		<path class="st24" d="M153.35,531.18c33.49,3.26,66.79-3.92,101.06,7.98c21.97,7.63,37.97,22.12,57.91,31
			c5.94,9.58,0.67,17.72-3.24,26.05c-5.3,9.84-11.54,19.26-15.43,29.81c-3.84,10.41-10.8,23.93-1.69,31.47
			c13.48,11.16,17.5-7.3,25.01-13.48c8.09-6.65,16.01-10.26,26.3-5.98c31.17,25.69,26.67,59,14.55,89.89
			c-12.88,32.84-43.02,42.69-76.68,41.94c-38.92-6.96-80.68,16.95-117.8-10.57c-1.68-24.87-14.73-38.25-39.85-39.42
			c-4.78-18.97-20.12-6.21-29.97-9.97c-1.28-37.9-0.59-75.44,19.93-109.36c4.88-5.21,10.82-6.14,17.41-4.37
			c3.56,1.9,6.54,4.53,8.79,7.72c10.74,12.62,12.11-0.12,15.84-6.2c4.83-11.96,2.57-22.7-5.22-32.6
			c-5.06-7.28-6.59-15.44-6.29-24.08C143.76,534.57,147.19,531.58,153.35,531.18z"/>
		<path class="st18" d="M272.84,759.68c15.96-0.71,30.77-0.29,46.88-8.54c23.66-12.13,35.78-27.13,32.36-53.11
			c-2.74-20.79,11.68-48.22-21.11-58.22c-11.69-14.86-17.38-33.22-28.37-48.49c3.24-7.05,6.48-14.1,9.72-21.15
			c0.32-1.61,0.65-3.22,0.97-4.83c27.86,6.49,86.18,41.42,108.69,65.1c-7.6,1.24-10.5,5.42-10.38,13.35
			c0.29,19.16-6.13,38.21-7.72,56.06c-4.9,55.06-47.81,66.31-85.15,78.06c-26.25,8.26-55.03,10.46-81.9,20.59
			c-14.5,5.47-13.62-8.89-13.79-18.6C236.09,764.41,254.71,762.64,272.84,759.68z"/>
		<path class="st12" d="M272.84,759.68c-13.4,14.62-32.21,15.93-49.81,20.21c-9.42-0.07-18.91-0.86-28.25-0.03
			c-16.24,1.43-26.61-5.04-31.43-20.54c18.16-9.7,32.17,17.69,53.01,4.25c13.3-8.58,33.1-4.73,48.55-13.44
			C268.14,748.31,272.34,754.51,272.84,759.68z"/>
		<path class="st18" d="M132.5,600.92c-6.35-0.11-12.7-0.23-19.04-0.34c-0.1-3.42-0.2-6.85-0.3-10.27
			c12.22-15.2,11.92-38.24,30.82-49.26c13.05,1.68,8.5,11.81,9.3,19.37C160.26,581.04,151.28,593.49,132.5,600.92z"/>
		<path class="st25" d="M471.34,242.52c24.36,6.51,22.88,26.66,19.59,43.75c-6.37,33.09-17.68,67.65-46.37,85.78
			c-30.15,19.05-65.43,32.73-103.37,29.35c-11.41-1.02-8.01-12.13-8.87-19.72c25.77-20.78,56.95-34.61,77.6-62.06
			c12.29-16.34,32.02-26.23,34.09-51.29C444.82,258.53,457.65,246.48,471.34,242.52z"/>
		<path class="st9" d="M282.62,421.62c-25.76,3.44-19.28-15.2-19.87-29c6.6-0.18,13.2-0.36,19.8-0.54
			C282.58,401.93,282.6,411.78,282.62,421.62z"/>
		<path class="st26" d="M302.6,591.32c17.77-1.82,28.15,6.01,29.49,23.92c0.61,8.12-0.69,16.38-1.13,24.58
			c-7.98,2.14-6.71,8.96-8.72,14.94c-8.33,24.79-14.02,27.84-38.48,25.6c-9-0.82-4.63-6.12-6.26-10.79
			C265.87,636.26,284.97,614.31,302.6,591.32z"/>
		<path class="st27" d="M132.5,600.92c6.92-13.5,13.85-27,20.77-40.5c23.43,5.68,26.73,19.09,9.92,40.21
			c-9.63,7.93-19.25,8.17-28.84-0.07L132.5,600.92z"/>
		<path class="st26" d="M134.36,600.55c9.61,0.02,19.23,0.05,28.84,0.07c2.91,13.99-9.12,22.92-12.31,34.94
			c-0.67,2.52-8.22,5-12.1,4.38c-4.34-0.69-6.91-5.42-6.42-10.84C133.22,619.61,133.71,610.07,134.36,600.55z"/>
	</g>
</g>
</svg>
