<?xml version="1.0" encoding="utf-8"?>
<!-- Generator: Adobe Illustrator 23.1.0, SVG Export Plug-In . SVG Version: 6.00 Build 0)  -->
<svg version="1.1" id="Calque_1" xmlns="http://www.w3.org/2000/svg" xmlns:xlink="http://www.w3.org/1999/xlink" x="0px" y="0px"
	 viewBox="0 0 1125 1006.55" style="enable-background:new 0 0 1125 1006.55;" xml:space="preserve">
<style type="text/css">
	.st0{fill:#8F3B4A;}
	.st1{fill:#FEEFD1;}
	.st2{fill:#FED2DD;}
	.st3{fill:#FEBDCB;}
	.st4{fill:#B48B6E;}
	.st5{fill:#FBACBA;}
	.st6{fill:#C6717D;}
	.st7{fill:#E5C19F;}
	.st8{fill:#D9B291;}
	.st9{fill:#F3CFAD;}
	.st10{fill:#F19CA9;}
	.st11{fill:#C79E7F;}
	.st12{fill:#E18B98;}
	.st13{fill:#D47E8A;}
	.st14{fill:#FBDCBC;}
	.st15{fill:#A6515B;}
	.st16{fill:#DE8491;}
	.st17{fill:#FDFAF8;}
	.st18{fill:#FCE1C0;}
	.st19{fill:#FAB5C3;}
	.st20{fill:#F29BA8;}
	.st21{fill:#FEE7C8;}
	.st22{fill:#C5947A;}
	.st23{fill:#AD5C66;}
	.st24{fill:#6A2129;}
	.st25{fill:#EE9172;}
	.st26{fill:#B88C70;}
	.st27{fill:#FA7A06;}
	.st28{fill:#D0500E;}
	.st29{fill:#BF8A56;}
	.st30{fill:#BB824F;}
	.st31{fill:#C39052;}
	.st32{fill:#B25A61;}
	.st33{fill:#A37D61;}
	.st34{fill:#B58E70;}
	.st35{fill:#D98994;}
	.st36{fill:#A65D63;}
	.st37{fill:#FBF7F5;}
	.st38{fill:#7F4E0C;}
	.st39{fill:#EECBAA;}
	.st40{fill:#9F6C21;}
	.st41{fill:#C69353;}
	.st42{fill:#94651F;}
	.st43{fill:#DF7C5D;}
</style>
<g>
	<g>
		<path class="st0" d="M1067.06,308.01c-15.6,57.23-41.85,111.61-43.51,172.59c-1.17,42.97,13.72,69.5,60.74,66.61
			c43.27-2.66,43.41,15.19,32.93,51.24c-15.12,51.99-67.44,65.95-94.22,104.69c-24.45,9.39-32.38-18-50.64-22.52
			c-11.08-6.88-24.7-10.2-31.88-22.61c-0.78-5.69-0.05-11.15,2.05-16.48c50.94-156.06,6.99-291.97-88.27-417
			c-15.56-20.43-41.01-34.79-39.81-65.43c18.32-32.55,46.26-14.27,69.61-11.37c69.94,8.7,72.83,6.48,71.71-62.85
			c-0.47-29.15-5.75-66.59,45.68-48.02l-0.41-0.28c69.54,59.51,92.21,133.98,71.94,222.68
			C1069.35,275.14,1058.14,290.48,1067.06,308.01z"/>
		<path class="st1" d="M26.51,773.66C0.36,739.5-0.02,700.18,3.76,660.02c14.82-29.44,35.51-47.5,71.45-38.99
			c11.29,2.67,22.3-0.38,30.4-9.85c5.06-5.22,10.79-9.6,16.93-13.35c20.49-31.36,14.16-66.09,12.73-100.15
			c-2.93-14.68-8.73-28.12-17.64-40.08c-8.09-10.86-18.84-18.95-32.75-16.16c-20.37,4.09-16.7,20.69-15.51,35.38
			c-2.57,34.14-11.06,67.19-22.83,98.83c-5.93,15.92-13.48,45.38-41.06,17.14c6.02-70.37,30.87-136.48,46.29-204.73
			c2.68-3.86,4.95-7.96,6.87-12.25l0.1-0.18c46.27-26.74,89.08-6.57,132.22,9.62c26.82,10.12,57.88,10.3,79.21,33.46
			c29.88,45.66,23.11,88.38-10.31,128.93c-2.4,4.75-5.12,9.41-7.73,14.04c-15.43,47.28-53.77,86.41-49.9,140.58
			c-0.87,22.75-13.87,36.1-34.05,43.76c-4.4,0.87-8.92,0.87-13.33,0.25c-4-0.93-7.95-2.38-11.67-4.07
			c-3.29-1.66-6.75-3.33-10.21-4.66c-7.13,4.74,3.59,12.99-3.58,17.72c-3.38,3.57-7.09,6.48-11.3,8.96
			C88.36,775.74,58.31,783.33,26.51,773.66z"/>
		<path class="st2" d="M39.43,353.37C59.15,218.84,188.19,83.85,320.17,59.68c41.66,9.21,40.25,44.87,32.24,70.49
			c-27.84,89.06-80.82,165.33-135.66,239.82c-5.3,7.2-16.64,8.25-26.22,9.19C140.79,366.9,87.91,372.95,39.43,353.37z"/>
		<path class="st3" d="M195.03,366.77c66.12-71.79,113.47-155.29,146.75-246.15c6.98-19.07-5.01-43.81-21.61-60.94
			C359.66,39.28,402,35.49,445.45,38.2c32.82,45.4,32.52,95.17,16.18,145.39c-10.48,32.22-20.7,64.55-31.49,96.64
			c-1.83,5.49-4.2,10.81-6.72,16.01c-3.3,7.79-6.99,15.45-9.76,23.5c-12.01,28.5-15.63,60.29-33.64,86.51
			c-16.84,17.2-37.4,14.38-57.27,9.03c-41-11.04-83.46-16.58-123.19-32.48C194.22,378.55,192.72,373.2,195.03,366.77z"/>
		<path class="st4" d="M933.78,888.06c-4.71,2.87-11.47,9.4-13.84,8.08c-58.16-32.4-90.47,13.57-131.64,39.72
			c-102.18,64.92-218.76,73.72-335.02,69.96c-68.04-2.2-138.6-4.5-201.73-38.48c4.48-14.18,15.61-23.96,28.8-23.76
			c97.39,1.45,188.12-35.2,282.9-48.12c9.03,0.6,17.58,2.95,25.33,7.65c15.93,21.89-4.97,25.53-16.95,30.14
			c-28.08,10.81-56.96,19.58-85.37,25.68c161.86,10.54,332.68-104.96,353.91-228.97c5.61-5.47,13.02-7.39,19.96-10.16
			c16.51-10.31,24.05-27.79,34.28-43.02c10.33-15.38,22.44-24.7,41.69-15.18c4.69,2.53,9.65,4.09,14.96,4.64
			c8.23,0.16,16.13,0.97,20.73,9.24c11.58,41.41-8.76,77.2-21.39,113.84C939.25,821.6,927.63,853.14,933.78,888.06z"/>
		<path class="st5" d="M413.48,290.59c10.94-41.01,21.22-81.91,38.37-121.32c18.86-43.32-6.03-87.16-6.39-131.08
			c26.47-5.46,52.88-3.47,79.28,0.67c50.14,52.34,70.82,107.43,27.75,176.44c-23.28,37.29-9.49,84.82-21.62,126.45
			c-8.84,30.33-8.9,63.36-28.95,90.07c-4.06,4.33-8.93,7.55-14.45,9.76c-8.33,2.53-16.81,2.76-25.35,1.25
			c-10.64-2.31-21.12-5.47-31.84-7.7c-8.12-1.65-15.83-4.37-22.83-8.93c-8.81-7.25-14.72-16.28-16.93-27.57
			C388.29,360.53,414.31,328.42,413.48,290.59z"/>
		<path class="st6" d="M706.67,92.65c7.68,1.07,15.36,2.14,23.04,3.21c9.24,3.42,21.08,0.93,27.11,11.9
			c2.76,4.74,5.08,9.63,7.26,14.65c77.13,120.08,97.77,249.51,64.85,387.99c-3.08,12.94-3.8,26.47-20.17,30.13
			c-54.15-27.68-55.58-83.35-70.27-132.02c-7.1-41,6.91-83.08-5.99-123.84c14.76,46.31-4.29,92.96,1.36,139.41
			c0.38,9.43,0.35,18.85-0.97,28.1c-9.03,63.48-38.89,74.87-96.47,37.06c-8.26-33.39,9.07-62.29,18.64-91.78
			c21.76-67.05,17.29-141.35,58-203.34c9.33-14.2,1.14-32.72-4.3-48.86C702.96,128.04,691.78,110.79,706.67,92.65z"/>
		<path class="st7" d="M139.84,909.57c-11.59-3.47-20.5-10.1-25.33-21.53c48.48-27.61,101.19-39.68,156.39-38.89
			c51.38,0.74,101.97-4.92,151.53-16.71c46.36-11.02,91.45-26.79,109.95-78.24c2.95-11.43,7.8-21.77,17.04-29.53
			c30.78-18.33,28.54-48.9,29.24-78.55c0.65-28.02-0.27-57.14,35.25-66.99c7.98-3.06,15.91-6.25,23.92-9.39
			c8.82-3.34,17.47-4.67,25.47,2.08c22.7,179.33-40.25,303.26-225.11,328.57c-76.21,10.43-153.63,10.91-229.17,26.46
			C182.18,932.37,162.55,916.48,139.84,909.57z"/>
		<path class="st8" d="M139.84,909.57c74.86,12.89,146.58-16.75,220.94-16.38c44.05,0.22,88.93-9.76,132.11-20.49
			c94.01-23.37,157.47-102.44,154.9-200.24c-0.91-34.59,27.82-68.02,3.06-102.47c-10.75-4.74-16.38-14.05-21.5-23.9
			c-3.66-13.03-13.88-26.61,2.83-38.16c29.74-4.68,53.29,7.12,73.7,27.54c56.9,161.17-35.47,339.74-173.17,368.84
			c-93.85,19.84-187.94,36.1-282.82,48.01c-25.52,3.2-50.65-11.15-75.07-20.56C161.02,927.74,148.19,922.18,139.84,909.57z"/>
		<path class="st9" d="M546.45,749.24c-5.2,77.07-70.59,88.51-123.27,99.76c-101.27,21.63-206.99,15.35-308.67,39.04
			c-14.96-6.78-26.19-17.41-33.28-32.3c26.89-27.42,65.72-26.01,97.87-40.64c24.6-3.24,50.31,3.44,74-8.19
			c4.34-2.01,8.77-3.84,13.11-5.86c2.05-1.23,4.2-2.28,6.25-3.5c15.43-7.17,25.45-22.5,42.03-27.99
			c50.51,16.5,78.48-30.41,118.96-42.37C473.24,723.86,511.44,728.39,546.45,749.24z"/>
		<path class="st10" d="M490.86,434.28c19.12-56.62,33.84-114.1,34.16-174.42c0.04-7.48-2.61-17.35,1.11-22.08
			c52.69-66.97,34.32-132.9-1.4-198.92c28.05-6.4,53,6.45,79.01,12.73c28.1,30.88,45.49,68.27,36.58,108.56
			c-21.43,96.88-32.21,197.01-78.5,287.14c-3.23,4.73-7.32,8.71-12.05,11.96c-7.92,3.13-16.03,2.41-24.13,0.81
			c-5.14-0.65-10.25-1.74-15.34-2.88c-7.62-1.6-14.79-4.3-20.78-9.52C486.66,442.89,487.1,438.42,490.86,434.28z"/>
		<path class="st11" d="M174.83,931.75c109.9,21.25,215.02-12.46,320.84-30.79c176.42-30.56,241.54-199.43,199.3-365.26
			c19.03-15.25,35.39-7.04,51.29,5.72c15.59,15.82,19.64,35.98,19.57,56.94c-0.3,82.59-20.16,160.06-67.58,228.24
			c-30.8,44.28-72.91,74.45-127.98,82.93c-105.68,22.31-211.3,44.99-318.7,57.79C222.07,963.89,196.67,951.66,174.83,931.75z"/>
		<path class="st12" d="M547.23,455.12c40.18-85.09,45.62-180.11,76.69-267.92c16.88-47.71-11.32-90.65-20.17-135.6
			c11.57,3.69,23.14,7.39,34.71,11.08c66.82,47.57,76.89,73.82,49.38,145.53c-20.34,53.03-22.75,109.52-36.77,163.6
			c-10.16,39.22-15.96,81.6-56.78,104.58C573.58,480.39,555.71,478.11,547.23,455.12z"/>
		<path class="st13" d="M593.06,467.75c27.69-30.47,37.46-68.33,45.39-107.31c12.29-60.39,16.62-122.49,44.16-179.53
			c25.6-53.03-24.29-80.64-44.16-118.23c26.36,1.77,47.89,14.51,68.22,29.98c6.9,19.21,15.31,38.05,20.18,57.77
			c3.47,14.05,17.39,29.09,7.72,42.72c-58.28,82.18-45.6,186.32-86.41,273.64c-2.26,4.84-6.91,8.57-10.45,12.82
			C618.77,490.93,601.1,497.45,593.06,467.75z"/>
		<path class="st14" d="M933.78,888.06c-29.24-5.05-22.06-22.94-16-42.18c17.99-57.11,34.96-114.54,52.33-171.84
			c0.73-6.31,3.27-7.53,7.92-2.81c19.76,3.95,30.66,20.38,44.99,31.93C1057.82,788.7,1025.21,856.29,933.78,888.06z"/>
		<path class="st15" d="M1001.45,36.86c-41.91-0.4-36.33,25.97-30.65,53.34c14.7,70.77-1.91,84.67-73.04,75.3
			c-24.95-3.29-51.55-27.48-78.27-3.46c-12.75,2.39-21.49-2.95-22.24-15.58c-0.81-13.76,11.97-15.4,21.52-19.26
			c72.86-6.9,73.09-6.85,90.29-83.37c3.47-15.43,9.9-28.3,22.01-38.35C958.02,8.12,984.39,12.04,1001.45,36.86z"/>
		<path class="st16" d="M931.07,5.49c-3.06,14.3-7.25,28.47-8.99,42.93c-11.05,92.07-10.87,92.09-101.71,90.39
			c-17.27-15.31-50.35,16.89-60.43-20.06c48.76-15.4,88.31-40.01,101.03-94.71c2.41-10.35,17-13.57,26-20.04
			C901.68,4.49,916.37,4.99,931.07,5.49z"/>
		<path class="st17" d="M5.47,592.8c26.6,12.77,27.13-11.41,30.9-24.47c9.6-33.3,16.14-67.48,23.91-101.31
			c7.28-28.13,16.56-51.5,48.63-20.34c-2.44,24.81-19.4,43.98-25.96,67.69c-11.81,42.68-9.25,77.91,34.31,100.51
			c-1.72,24.13-21.77,28.45-35.74,21.6c-35.46-17.39-54.2,8.52-77.75,23.55C4.33,637.62,4.9,615.21,5.47,592.8z"/>
		<path class="st18" d="M184.76,820.81c-30.06,24.84-66.74,30.03-103.53,34.93c0,0,0.28-0.18,0.28-0.18
			c-0.78-7.09-6.11-10.22-11.57-13.22c-14-12.99-27.48-26.35-32.42-45.76c25.58-23.93,61.73-8.57,89.5-24.2
			c20.72-8.34,31.87,4.98,42.79,18.89c3.04,3.41,5.81,7.09,8.47,10.82c2.69,3.65,4.73,7.69,6.32,11.96
			C184.67,816.27,184.72,818.54,184.76,820.81z"/>
		<path class="st15" d="M1067.06,308.01c-22.97-23.02-2.2-46.02,2.05-67.6c16.07-81.64-27.73-141.85-68.08-203.82
			c60.28,29.83,99.36,107.44,87.79,178.57C1083.73,246.46,1074.44,277.08,1067.06,308.01z"/>
		<path class="st19" d="M749.19,107.53c-6.49-3.89-12.98-7.78-19.47-11.67c25.71-36.73,51.8-73.01,100.49-81.37
			c19.85,29.39-1.24,83.15-37.85,94.16C778.39,112.85,763.44,113.3,749.19,107.53z"/>
		<path class="st20" d="M749.19,107.53c62.77,0.12,76.93-42.08,81.02-93.04C846.7-2.16,867.32,3.5,886.99,3.99
			c-7.79,14.55-20.16,28.39-22.55,43.78c-9.52,61.29-46.95,78.02-102.52,69.92c-3.76,3.13-7.38,3.13-10.84-0.49
			C750.83,113.9,750.2,110.68,749.19,107.53z"/>
		<path class="st21" d="M140.18,772.94c-26.3,42.28-68.44,15.74-102.65,23.63c0,0,0.15,0.27,0.15,0.27
			c-3.14-3.48-5.73-7.32-7.77-11.54c-1.13-3.88-2.26-7.76-3.39-11.64c34.3-7.62,68.59-15.25,102.89-22.87
			C147.9,750.92,146.78,760.6,140.18,772.94z"/>
		<path class="st22" d="M195.03,366.77c0.96,3.24,1.9,6.48,2.82,9.73c-7.69,5.85-21.4,8.42-12.64,23.22
			c-39.16-23.8-83.12-22.34-126.48-24.08c-4.78-8.86-19.56-9.05-19.3-22.27C92.34,345.82,142.55,369.42,195.03,366.77z"/>
		<path class="st22" d="M58.63,375.82c-2.29,4.1-4.59,8.19-6.87,12.27C50.32,381.9,52.12,377.54,58.63,375.82z"/>
		<path class="st18" d="M29.91,785.3c2.59,3.85,5.18,7.69,7.77,11.54C35.08,792.99,32.49,789.14,29.91,785.3z"/>
		<path class="st9" d="M69.94,842.33c3.86,4.4,7.71,8.8,11.57,13.21C77.65,851.15,73.8,846.74,69.94,842.33z"/>
		<path class="st23" d="M751.08,117.2c3.62,0.04,7.24,0.2,10.84,0.49c15.07,19.24,43.37,1.88,58.44,21.13
			c-6.22,1.6-16.59-0.29-15.22,9.28c0.75,5.23,9.31,9.34,14.35,13.95c78.53,80.43,135.07,172.55,153.64,285.4
			c8.57,52.08,7.36,104.36,1.52,156.15c-1.96,17.38-2.75,43.53-31.38,46.52c-6.94,5.42-2.11,17.05-11.23,21.32
			c-45.06,0.19-36.65,54.44-68.62,67.86c-12.51-21.37-4.23-42.72-0.15-64.16c3.68-19.31,14.63-38.54,1.19-58.19
			c-17.65-27.89-59.25-39.16-56.44-81.18c22.25-85.11,27.7-171.13,11.01-257.71C807.83,219.88,767.61,173.44,751.08,117.2z"/>
		<path class="st23" d="M978.03,671.22c-2.36,1.76-5,2.7-7.93,2.8c-8.81-1.03-17.63-2.07-26.45-3.1c-3.21-2.7-4.06-5.07-2.58-7.1
			c1.36-1.86,2.69-2.79,4-2.79C957.3,660.38,969.79,658.92,978.03,671.22z"/>
		<path class="st24" d="M945.06,661.03c-0.47,3.3-0.95,6.6-1.42,9.89c-3.86,0.17-7.72,0.35-11.6,0.52
			c0.42-8.87,0.67-17.82,11.23-21.33C943.7,653.79,944.3,657.42,945.06,661.03z"/>
		<path class="st21" d="M423.11,739.62c-33.21,29.11-63.02,69.29-115.57,35.58c-13.01,10.55-29.29,15.12-43.33,23.87
			c-4.21,2.46-8.58,4.54-13.04,6.51c-9.55,3-17.97,8.92-27.97,10.82c-17.24,2.99-30.41-5.49-43.13-15.27
			c-13.91-18.04-39.28-30.24-30.5-59.83c22.06-1.89,35.29-16.28,46.85-33.05c3.29-4.62,7.72-7.43,13.24-8.49
			c18.22,0.14,28.75-8.48,27.7-27.16c-2.4-42.63,8.32-84.77,4.22-127.42c42.05-34.55,39.59-77.39,22.88-122.88
			c49.96-24.95,91.88,7.09,136.59,19.08c12.85,6.6,25.84,12.89,41.14,9.66c4.9-0.66,9.74-0.54,14.64,0.21
			c2.41,0.73,4.76,1.54,7.17,2.26c9.59,4.06,18.37,9.3,25.43,17.13c22.81,42.68-18.87,39.46-37.42,52.82
			c-69.81,43.87-93.34,93.98-78.07,166.85C383.62,713.43,422.34,707.74,423.11,739.62z"/>
		<path class="st25" d="M117.25,614.88c-37.35,8.47-53.81-10.76-54.53-44.73c-0.97-45.77,5.25-90.16,41.66-123.84
			c34.1,6.32,28.84,39.05,40.56,60.41c-2.98,33.32-2.35,67.28-17.73,98.36C123.89,608.35,120.57,611.61,117.25,614.88z"/>
		<path class="st26" d="M457.34,454.53c-3.85,0.78-7.7,1.56-11.54,2.35c-11.32,7.36-22.73,6.85-34.21,0.41
			c-48.85-12.46-95.7-33.34-147.12-34.98c-26.42-7.53-52.84-15.06-79.25-22.58c-7.64-14.18-5.51-23.04,12.63-23.22
			c45.76-2.16,87.27,18.21,131.4,24.94c16.34,2.49,32.05,11.8,47.44-1.87c7.37-1.05,14.7-4.18,22.14-0.33
			c4.31,7.73,8.61,15.45,12.92,23.18C421.03,441.52,455.8,424.43,457.34,454.53z"/>
		<path class="st27" d="M204.59,705.85c-2.67,0.97-5.4,1.77-8.17,2.4c-20.39-18.15-11.16-36.71-1.48-55.97
			c15.98-31.77,31.12-63.97,46.62-95.98c15.03,42.04-2.66,83.59-2.75,125.45C238.77,698.58,226.18,712.22,204.59,705.85z"/>
		<path class="st28" d="M204.59,705.85c46.43-41.41,25.89-99.37,36.97-149.53c-0.14-3.72-0.13-7.42,0.03-11.13
			c26.66,49,14.22,102.03,10.9,152.5C250.46,728.38,223.04,714.7,204.59,705.85z"/>
		<path class="st29" d="M138.65,502.99c-16.29-15.96-10.5-45.26-34.27-56.69c-24.84-14.69-34.83,2.25-44.11,20.71
			c-14.79-12.6-15.8-22.36,3.66-32.37c16.88-8.68,31.98-17.39,50.24-3.65c20.25,15.25,29.09,36.66,34.8,60.1
			C146.11,495.56,145.68,502.14,138.65,502.99z"/>
		<path class="st30" d="M138.65,502.99c3.44-3.97,6.88-7.93,10.32-11.9c2.97,39.94,14.57,81.53-21.75,113.98
			C131.03,571.05,134.84,537.02,138.65,502.99z"/>
		<path class="st31" d="M149.58,741.3c2.66,24.45,26.2,34.95,36.36,54.4c-1.31,6.74-5.39,10.69-12.11,11.96
			c-11.22-11.57-22.43-23.14-33.65-34.71c-3.59-7.39-7.19-14.77-10.78-22.16c-0.53-3.74-1.06-7.47-1.59-11.2
			c-2.65-4.87-1.57-8.32,3.85-10.12l5.03-0.04c5.86,2.33,10.57,6.06,13.86,11.5L149.58,741.3z"/>
		<path class="st21" d="M131.65,729.46c-1.07,3.45-2.35,6.83-3.84,10.12C119.18,732.44,124.01,730.42,131.65,729.46z"/>
		<path class="st21" d="M150.54,740.93c-4.61-3.83-9.22-7.67-13.84-11.5C141.3,733.26,145.92,737.09,150.54,740.93z"/>
		<path class="st32" d="M398.82,399.25c-7.33,2.99-14.56,13.25-22.13,0.33c7.98-29.85,15.97-59.71,23.96-89.56
			c3.49-3.92,6.86-7.95,10.12-12.06c1.56-2.22,2.46-4.69,2.71-7.38C426.27,329.19,401.95,362.79,398.82,399.25z"/>
		<path class="st5" d="M410.77,297.95c-3.37,4.02-6.75,8.04-10.12,12.06C404.02,306,407.39,301.97,410.77,297.95z"/>
		<path class="st33" d="M457.34,454.53c-10.7-17.09-45.42-0.06-45.6-32.1c7.6,0.8,15.21,1.6,22.81,2.4
			c7.07,4.58,16.57,2.6,23.13,8.56c7.34,0.8,14.69,1.6,22.03,2.4c4.46,2.52,8.72,5.33,12.75,8.49c7.05,0.79,14.11,1.58,21.16,2.37
			c3.36,2.39,7.08,3.84,11.17,4.34c4.08,0.42,7.97,1.5,11.68,3.24c3.54,0.82,7.13,1.12,10.76,0.89
			c13.97,8.94,29.05,13.83,45.83,12.63c11.7,15.96,29.31,9.66,44.66,11.85c73.78,35.68,78.85,32.06,79.99-57.04
			c8.34-13.07,11.66-41.9,34.07-10.86c15.68,42.75,23.32,89.14,56.25,124.06c18.43,27.38,41.37,50.27,68.58,68.91
			c0.33,42.81-4.48,84.66-23.35,123.86C838.1,835.41,709.49,950.01,581.5,964.62c-40.97,4.68-83.14,28.97-137.09-2.82
			c55.08-19.34,101.87-35.77,148.65-52.19c103.54-53.32,154.36-144.16,181.91-252.59c11.44-45.04,4.08-81.8-34.93-109.65
			c-14.07-7.58-28.53-13.67-45.08-11.67c-22.72-7.37-45.44-14.73-68.15-22.1c-48.42,6.19-88.5-17.27-129.76-36.44
			c-6.44-4.21-12.01-9.72-18.89-13.32c-7.17-2.05-15.02-1.83-21.5-6.29L457.34,454.53z"/>
		<path class="st34" d="M740.05,547.37c33.19,6.51,55.67,26.09,56.02,60.03c0.85,83.22-76.65,279.75-203,302.22
			c-7.6-0.02-15.2-0.05-22.81-0.07c130.18-61.77,176.56-172.76,181.41-308.33C752.35,582.11,750.12,563.98,740.05,547.37z"/>
		<path class="st35" d="M853.26,728.53c12.76-40.35,4.3-84.7,23.34-123.86c29.24,48.17-13.2,89.34-13.17,134.64
			C860.03,735.71,856.65,732.12,853.26,728.53z"/>
		<path class="st26" d="M457.68,433.39c-9.06,0.76-17.3-0.67-23.13-8.57C443.98,423.04,451.79,425.63,457.68,433.39z"/>
		<path class="st26" d="M492.46,444.28c-4.25-2.84-8.51-5.68-12.76-8.5c3.65-1.04,7.37-1.55,11.16-1.5
			C491.11,437.66,491.64,440.99,492.46,444.28z"/>
		<path class="st36" d="M751.78,411.71c-16.71-13.17-23.9,3.5-34.07,10.86c-5.06-50.1,12.37-97.7,13.51-153.48
			C755.83,319,751.27,365.69,751.78,411.71z"/>
		<path class="st37" d="M423.11,739.62c-15.97-19.54-55.14-10.61-57.48-46.86c-9.1-50.9,4.52-96.71,36.04-135.92
			c27.35-34,64.11-44.07,106.19-28.17c16.48,13.39,3.29,22.28-5.15,31.59c-71.44,78.84-58.33,121.52,45.39,147.69
			c3.57,0.9,6.67,3.25,9.75,5.49c4.42,5.02,4.31,9.96-0.27,14.8c-3.7,7.01-7.4,14.03-11.12,21.03
			C505.33,746.03,464.22,742.82,423.11,739.62z"/>
		<path class="st38" d="M557.57,728.23c0.07-3.82,0.14-7.63,0.21-11.45c-10.73-50.97,3.04-104.61-16.88-154.59
			c1.06-9.28,5.46-16.26,14.07-20.3c27.81-2.93,55.28,1.98,82.89,4.14c13.39,3.07,11.71,14.31,12.99,23.95
			c-4.32,4.89-8.63,9.78-12.95,14.67c-4.5,1.71-8.58,4.14-12.23,7.28c-18.17-1.59-33.16-2.43-30.71,24.9
			c2.16,24.07,0.72,49.18-3.91,72.9C587.73,706.72,588.75,733.12,557.57,728.23z"/>
		<path class="st8" d="M625.66,591.93c4.08-2.43,8.16-4.87,12.24-7.29C633.82,587.08,629.74,589.5,625.66,591.93z"/>
		<path class="st39" d="M637.86,546.03c-25.79,25.3-51.75,12.78-77.7,0.34c-35.27-21.58-79.36-14.26-114.87-35.07
			c3.82-19.5,63.44,4.85,32.8-41.73c0.52-1.92,1.05-3.83,1.56-5.76c4.04-0.69,7.83,0.05,11.41,2
			c45.25,15.93,90.5,31.85,135.75,47.78C630.49,524.42,634.17,535.23,637.86,546.03z"/>
		<path class="st40" d="M173.82,807.66c4.04-3.99,8.08-7.97,12.11-11.96c14.1,3.24,28.2,6.48,42.3,9.72
			c8.21-3.43,17.95-2.25,25.24-8.43l0.28-0.1c12.76-8.83,21.34-8.83,21.06,9.95l0.02,0.1c-2.7,4.4-6.54,7.31-11.51,8.7
			c-25.37,14.25-51.41,18.15-78.57,5.17c0,0-1.83-1.11-1.83-1.11c-1.69-4.73-4.97-7.75-9.83-9.04L173.82,807.66z"/>
		<path class="st41" d="M274.82,806.83c-7.02-3.32-14.04-6.63-21.06-9.95c13.63-17.89,31.87-24.38,53.79-21.7
			C307.46,796.93,290.93,801.67,274.82,806.83z"/>
		<path class="st41" d="M263.33,815.63c3.84-2.9,7.68-5.8,11.51-8.7C271,809.83,267.17,812.73,263.33,815.63z"/>
		<path class="st12" d="M536.47,454.23c-3.42,0.97-6.9,1.43-10.45,1.38c-2.94-1.82-4.15-3.91-3.65-6.27
			c0.53-2.5,1.22-3.75,2.05-3.75C528.44,448.47,532.46,451.35,536.47,454.23z"/>
		<path class="st26" d="M524.43,445.59c0.43,3.36,0.95,6.71,1.59,10.03c-4.13-3-8.26-5.99-12.39-8.98
			C517.18,445.85,520.78,445.5,524.43,445.59z"/>
		<path class="st9" d="M173.1,810.66c3.28,3.01,6.56,6.02,9.84,9.04C179.65,816.69,176.37,813.67,173.1,810.66z"/>
		<path class="st42" d="M445.29,511.31c41.96-0.32,85.1-4.54,114.87,35.07c-4.35,4.25-8.71,8.51-13.06,12.76
			c-19.42,5.5-26.31-8.65-33.93-21.64c-79-12.48-116.47,12.36-133.96,89.25c-4.98,21.9-9.08,44-13.58,66.01
			c-7.51,1.04-17.75,1.17-16.51-8.19C358.35,614.39,366.89,543.27,445.29,511.31z"/>
		<path class="st39" d="M411.59,457.28c11.4-0.14,22.81-0.28,34.21-0.41C434.57,471.46,423.16,470.84,411.59,457.28z"/>
		<path class="st39" d="M456.66,457.55c6.81,0.14,13.63,0.28,20.44,0.42c3.39,1.1,5,2.82,4.82,5.17c-0.2,2.66-0.74,3.99-1.61,3.99
			c0,0-2.19,2.42-2.21,2.43C470.94,465.57,463.8,461.56,456.66,457.55z"/>
		<path class="st41" d="M253.48,796.99c-6.28,9.19-15.04,10.95-25.23,8.43C236.65,802.61,245.07,799.8,253.48,796.99z"/>
		<path class="st26" d="M480.31,467.13c-1.07-3.05-2.13-6.11-3.19-9.17c4.64,2.63,9.29,5.25,13.94,7.87
			C487.52,466.6,483.93,467.04,480.31,467.13z"/>
		<path class="st43" d="M513.16,537.5c11.31,7.21,22.63,14.42,33.94,21.64c35.24,50.41,26.92,103.77,10.69,157.65
			c-46.69,6.61-92.4,8.45-111.24-47.43C429.16,617.77,451.09,576.71,513.16,537.5z"/>
	</g>
</g>
</svg>
