<?xml version="1.0" encoding="utf-8"?>
<!-- Generator: Adobe Illustrator 23.1.0, SVG Export Plug-In . SVG Version: 6.00 Build 0)  -->
<svg version="1.1" id="Calque_1" xmlns="http://www.w3.org/2000/svg" xmlns:xlink="http://www.w3.org/1999/xlink" x="0px" y="0px"
	 viewBox="0 0 1125 1053.22" style="enable-background:new 0 0 1125 1053.22;" xml:space="preserve">
<style type="text/css">
	.st0{fill:#DD9851;}
	.st1{fill:#FEE3BE;}
	.st2{fill:#C37D3F;}
	.st3{fill:#A47A5F;}
	.st4{fill:#AC6C37;}
	.st5{fill:#8D6750;}
	.st6{fill:#D9934D;}
	.st7{fill:#C69675;}
	.st8{fill:#F0C79E;}
	.st9{fill:#E4B790;}
	.st10{fill:#F6EED0;}
	.st11{fill:#D4A580;}
	.st12{fill:#DCAE88;}
	.st13{fill:#5C3C0F;}
	.st14{fill:#F0C9A2;}
	.st15{fill:#764D29;}
	.st16{fill:#955F31;}
	.st17{fill:#714815;}
	.st18{fill:#654211;}
	.st19{fill:#EFB261;}
	.st20{fill:#C37C3F;}
	.st21{fill:#905B30;}
	.st22{fill:#664419;}
	.st23{fill:#FEDBB5;}
	.st24{fill:#9B683F;}
	.st25{fill:#EC5F09;}
	.st26{fill:#E9D1B3;}
	.st27{fill:#948662;}
	.st28{fill:#B69A7F;}
	.st29{fill:#B1835E;}
	.st30{fill:#D79F66;}
	.st31{fill:#965E33;}
	.st32{fill:#603F0E;}
	.st33{fill:#774B10;}
	.st34{fill:#895629;}
	.st35{fill:#7D4D12;}
	.st36{fill:#E39D52;}
	.st37{fill:#D08743;}
	.st38{fill:#A76936;}
	.st39{fill:#A96C39;}
	.st40{fill:#B97339;}
	.st41{fill:#895424;}
	.st42{fill:#7E5C34;}
	.st43{fill:#C6905D;}
	.st44{fill:#E6B991;}
	.st45{fill:#F4F6F3;}
	.st46{fill:#F2C9A1;}
	.st47{fill:#B44202;}
	.st48{fill:#99775C;}
	.st49{fill:#8F694B;}
	.st50{fill:#986136;}
	.st51{fill:#64BB97;}
	.st52{fill:#498C70;}
	.st53{fill:#F1EEEC;}
	.st54{fill:#B8B9B0;}
	.st55{fill:#5E3A06;}
	.st56{fill:#6E4920;}
</style>
<g>
	<g>
		<path class="st0" d="M5.5,410.45c23.82-6.19,47.63-12.38,71.45-18.57C89,400.55,81.9,416.82,91,426.67
			c4.19,14.76,35.29,24.31,8.97,45.02c-33.6-7.93-53.67-41.74-88.94-46.5C4.01,422.22,3.26,416.9,5.5,410.45z"/>
		<path class="st1" d="M182.77,947.83c-37.61-24.54-63.93-58.36-81.64-99.27c29.35-33.47,31.2-77.87,46.39-116.96
			c10.86-13.72,15.56-29.94,18.67-46.82c6.73-18.87,18.74-35.56,22.61-55.58c8.3-34.84,6.42-69.83,1.7-104.8
			c-4.34-16.65-17.02-27.68-27.39-40.29c-1.94-23.71,19.51-31.56,31.19-46.13c6.6-4.55,13.95-6.41,21.92-6.32
			c5.37,0.25,10.61,1.1,15.81,2.35c8.81,1.15,17.64,1.58,26.46,2.27c101.35,7.96,136.08,73.81,84.86,160.67
			c-6.33,10.73-13.42,20.79-22.6,29.22c-7.26,6.92-14.53,13.9-19.6,22.75c-18.08,36.78-40.12,72.09-41.06,114.87
			c1.71,4.32,3.26,8.67,5.02,12.97c1.91,4.31,3.08,8.8,3.74,13.45c-0.95,23.82-16.66,37.22-34.61,49.05
			c-4.13,1.85-8.51,2.71-13.03,2.71c-4.16-1.08-7.97-3-11.32-5.58c-1.39-1.36-2.82-2.86-4.19-4.14c-2.18-2.52-4.05-5.5-5.42-8.31
			c0.12,0.42-1.58-2.5-1.58-2.5s-3.09,1.36-2.71,1.78c3.7,4.24,5.98,8.84,9.47,12.84c13.58,16.87,36.08,26.55,39.53,51.04
			C236.41,919.8,223.97,948.56,182.77,947.83z"/>
		<path class="st2" d="M403.18,5.27c6.51,4.88,13.02,9.75,19.53,14.63c31.02,30.33,47.65,74.43,90.04,93.9
			c40.46,18.44,33.85,44.71,11.65,72.89c-6.66,8.45-16.42,13.66-25.51,19.42c-77.5,49.12-77.59,49.19-50.22,136.05
			c4.97,15.77,8.89,31.07-0.78,46.43c-60.62,46.54-133.79,45.05-204.41,53.32c-8.42,2.63-16.72,3.24-24.69-1.54l-0.29-3.02
			c-8.94-6.15-19.63-1.36-29.05-4.63c-4.26-3.39-5.81-7.75-4.68-13.08c21.54-21.31,37.93-45.62,52.89-72.43
			c37.32-66.89,95.3-114.4,159.59-154.37c24.52-15.24,36.3-26.32,10.5-56.43C374.61,97.71,391.83,49.67,403.18,5.27z"/>
		<path class="st3" d="M844.25,935.53c-40.16,58.68-102.44,80.65-166.72,95.55c-102.46,23.74-205.88,34.12-309.06,1.69
			c13.07-16.16,31.86-14.83,49.3-14.49c44.32,0.85,83.81-14.04,122.6-33.3c133.16-66.12,187.34-166.2,169.5-313.39
			c-4.66-38.48-23.3-70.49-42.92-102.67c-10.84-17.78-25.88-39.28,10.13-48.58c14.85-0.87,23.68,8.44,31.84,18.87
			c11.46,14.91,19.62,32.44,34.91,44.42c5.91,4.29,11.79,8.57,17.51,13.12c46.78,45.92,35.07,104.04,26.47,157.42
			c-12.01,74.49-33.82,147.21-90.75,202.95c-6.29,6.16-15.84,20.15-14.12,21.02c11.16,5.63,18.94-5.19,27.42-10.43
			c39.71-24.54,76.73-52.94,114.11-80.86c12.04-8.99,26.47-26.66,41.3-12.04c13.47,13.27-1.19,29.85-8.18,43.89
			C854.38,925.14,848.78,929.98,844.25,935.53z"/>
		<path class="st4" d="M444.77,384.96c3.05-20.88-8.13-37.43-16.48-54.93c-28.67-60.07-16.98-93.73,43.13-125.15
			c17.16-8.97,36.43-14.74,49.24-30.51c19.69-24.23,13.62-37.36-21.82-48.1c7.93-31.14,28.14-15.83,45.32-11.97
			c41.9,15.48,83.8,30.95,125.69,46.43c11.06,12.1,20.11,24.86,14.06,42.58c-23.97,16.39-51.59,9.79-77.8,12.22
			c-6.7,0.62-17.49-0.56-17.5,7.2c-0.02,11.41,11.5,10.93,20.3,11.32c22.15,1,40.24-28.16,64.94-8.72c4.53,7.4,5.18,15.3,3.46,23.61
			c-35.63,42.58-13.07,98.76-33.79,144.77c-22.96-4.88-22.96-4.88-33.74-54.9c-23.67-17.04-38.78,7.14-57.69,11.99
			c-4.12,2.45-8.41,4.61-12.69,6.79c-4.15,2.43-8.48,4.52-12.85,6.53C499.26,370.92,475.87,393.18,444.77,384.96z"/>
		<path class="st5" d="M844.25,935.53c-10-23.33,19.65-36.24,15.27-58.1c-18.41,13.34-37.45,25.89-55.09,40.17
			c-40.35,32.65-82.44,62.5-129.25,85.26c-6.21,3.02-13.22,8.05-19.28,1.09c-5.81-6.68-0.87-12.84,3.34-18.72
			c8.3-11.59,14.71-24.97,24.6-34.91c79.2-79.64,96.35-179.68,95.34-285.83c-0.25-26.22-7.41-49.41-32.08-63.52
			c-5.29-19.71,0.79-35.94,19.4-43.23c20.63-8.08,32.13,8.79,42.84,22.3c12.99,16.39,27.39,32.11,33.97,52.76
			c1.72,5.46,2.71,11.05,3.24,16.74c4.51,60.46-3.91,118.52-32.24,172.79c-4.18,5.33-6.68,12.97-15.71,12.22
			c4.6,1.87,8.31-0.32,12.44-2.12c31.64-13.78,61.24-29.86,79.06-61.6c11.35-20.23,27.95-32.48,52.62-30.19
			c8.21,0.99,15.58,3.82,21.62,9.66c3.18,48.33-13.39,90.58-42.38,127.82c-16.46,21.14-26.68,46.12-44.24,66.33
			C866.56,941.46,855.4,938.49,844.25,935.53z"/>
		<path class="st6" d="M403.18,5.27c-0.42,26.74-0.74,53.49-1.28,80.23c-0.48,24.01,0.97,42.91,30.36,54.34
			c28.71,11.17,21.21,33.37-1.91,47.5c-51.8,31.66-100.93,66.24-141.98,111.71c-19.21,21.28-39.73,42.34-47.13,69.87
			c-8.27,30.81-27.65,47.49-54.73,58.89c-3.54,3.78-7.93,5.88-13.04,6.59c-13.29-0.74-24.59-5.68-33.47-15.77
			c-2.19-4.58-3.24-9.45-3.25-14.53c4.93-26.1,24.47-41.93,41.89-59.26c5-4.97,9.89-10.05,15.03-14.87
			c-5.55,3.91-9.72,9.26-14.61,13.86c-6.41,6.04-12.62,12.3-20.07,17.18c-8.98,5.45-18.17,9.01-28.41,3.26
			c-11.88-28.99,8.28-45.88,24.06-64.76c7.73-9.25,28.72-14.76,11.16-32.85c2.05-29.27-46.84-38.47-32.75-62.67
			c6.9-11.85,47.12-1.72,71.08-6.95c24.25-5.3,48.98-5.6,73.23-13.3c61.89-19.64,122.11-36.44,105.11-123.84
			c-3.36-17.26,7.74-37.36,12.38-56.09c0.2-0.81,2.73-1.73,3.9-1.45C400.36,2.77,401.71,4.25,403.18,5.27z"/>
		<path class="st7" d="M682.59,526.11c-8.33,6.57-30.1,4.32-11.91,26.06c74.17,88.68,64.9,187.86,33.64,289.42
			c-15.46,50.22-46.6,87.17-89.6,116.74c-74.47,51.21-153.76,83.99-246.25,74.44c-12.05-0.91-24.58-0.2-34.03-9.97
			c57.08-33.39,120.13-52.25,181.88-74.1c100.93-35.72,133.71-87.33,142.48-194.45c7.16-87.5-2.31-169.75-36.47-249.81
			c-4.58-6.82-8.43-14.02-11.38-21.68c-3.18-10.65-3.44-21.07,2.72-30.89c40.65-5.13,39.69,39.58,64.36,53.66
			C682.81,511.64,686.98,517.95,682.59,526.11z"/>
		<path class="st8" d="M182.77,947.83c27.82-13.65,44.14-37.47,56.94-64.4c17.04-14.31,37.6-0.07,55.22-6.64
			c13.61-5.08,39.43,0.1,29.07-29.45c4.17-21.75,21.77-19.83,36.58-18.95c28.3,1.67,41.6-10.82,41.95-38.58
			c20.21-17.97,40.48-35.62,67.26-10.22c7.64,18.7,16.64,23.96,28.45,2.7c23.94-12.89,43.21-11.7,53.34,17.38
			c-3.42,56.6-39.1,90.94-85.91,112.05c-72.11,32.52-152.41,42.42-224.31,76.53C217.84,980.54,197.66,968.02,182.77,947.83z"/>
		<path class="st9" d="M241.33,988.26c42.5-42.62,97.86-53.25,153.89-65.08c69.13-14.6,127.07-46.38,148.8-120.93
			c-14.16-41.07,14.3-68.97,30.91-100.53c3.02-5.99,6.32-11.85,9.34-17.8c1.58-3.91,3.36-7.79,4.97-11.67
			c2.61-7.95,2.78-15.96,0.2-24.03c-1.75-3.98-3.3-7.96-5.02-11.93c-3.12-6.17-6.19-12.29-9.03-18.59
			c-5.08-11.78-7.95-23.74-3.47-36.4c20.1-55.12,6.05-113.83,17.9-169.81c10.3-12.7,17.42-5.14,24.38,3.78
			c3.88,6.67,6.58,13.83,8.15,21.41c0.6,5.24-1,9.75-4.72,13.5c0.06,10.61,0.13,21.21,0.19,31.82
			c16.53,118.73,28.97,237.34-11.58,354.19c-18.92,54.53-56.04,91.66-110.57,109.19c-59.42,19.1-122.14,27.14-179.04,55.35
			c-13.61,6.75-31.45,7.23-47.24,0.23C258,1001.2,247.8,998.84,241.33,988.26z"/>
		<path class="st10" d="M144.35,419.34c12.05-1.96,22.12,2.55,31.42,9.58c4.74,4.82,11.08,4.93,17.16,5.78
			c1.55,1.37,3.1,2.76,4.65,4.14c1.87,24.01-19.8,29.11-32.97,41.03c0.6,6.69-1.65,12.62-4.82,18.33
			c-2.94,5.84-6.03,11.6-9.01,17.44c-1.79,4.13-3.83,8.09-5.85,12.08c-9.39,16.7-9.75,34.35-5.64,52.48
			c0.67,9.72-1.67,18.19-10.07,24.03c-15.03,35.19,4.36,69.34,3.34,103.78c6.14-1.86,12.04-3.32,18.31-1.71
			c8.8,6.87,11.62,14.5,3.28,23.62c3.55,28.71-8.84,54.75-15.12,81.55c-4.23,18.06-13.06,37.3-37.9,37.07
			c-2.61-1.3-3.39-3.31-2.35-6.04c-0.36-6.33-4.45-10.69-8.09-15.28c-2.47-2.58-3.13-5.56-1.97-8.95
			c-4.91-6.96-3.4-16.25-8.41-23.18c-7.3-20.52-12.18-41.91-9.33-63.39c10.25-77.34,12.19-156.37,44.2-229.55
			C116.1,471.47,111.64,438.86,144.35,419.34z"/>
		<path class="st11" d="M628.37,493.05c35.22,66.73,55.51,136.47,45.8,213.08c-2.91,22.99-1.94,46.47-2.67,69.73
			c-2.38,76.3-34.38,138.61-105.15,166.86c-75.71,30.22-149.69,67.86-231.92,80.08c-12.12-0.24-24.19-0.66-33.38-10.33
			c39.2-25.49,80.72-47.23,126.84-55.08c172.76-29.41,190.78-107.99,205.88-242.04c5.46-48.41-0.2-97.09-8.95-144.31
			C619.69,543.38,620.15,518.75,628.37,493.05z"/>
		<path class="st12" d="M628.37,493.05c-4.13,66.31,25.27,128.85,21.68,195.2c-2.68,49.69-6.73,99.72-23.02,146.44
			c-20.37,58.4-60.72,100.18-124.48,111.62c-70.42,12.64-132.91,48.53-201.51,66.17c-11.76-0.5-23.34-1.52-31.67-11.48
			c20.38,0.36,38.5-6.89,55.75-16.8c37.6-21.58,78.41-31.79,120.98-39.31c77.88-13.74,133.99-53.43,154.14-135.73
			c19.77-80.77,25.7-161.89,9.7-243.13c-5.98-30.39,14.51-55.35,7.87-84.01C621.33,485.68,624.85,489.36,628.37,493.05z"/>
		<path class="st13" d="M941.17,750.95c-24.36-3.66-33.61,12.92-42.76,30.88c-19.18,37.65-54.29,54.16-92.38,63.2
			c-17.96,4.26-4.59-9.88-4.81-15.87c42.92-47.6,45.27-105.87,43.47-165.26c9.63-41.8,38.23-23.92,62.46-20.06
			c43.26,19.44,93.55,12.26,135.85,35.49c7.44,4.35,11.63,11.62,16.44,18.34c11.63,28.49,34.06,52.88,32.81,86.27
			c-26.86,3.32-28.29-21.4-38.05-35.76c-31.02-45.61-50.16-47.76-89.62-7.86C958.05,746.93,947.81,744.88,941.17,750.95z"/>
		<path class="st14" d="M877.71,944.42c-3.45-15.17,0.28-31.05,9.76-40.57c42.29-42.49,55.21-98.92,76.02-151.69
			c41.7-14.33,47.13,21.27,61.57,44.59c7.9,36.72,0.85,69.16-27.71,95.32C965.47,927.79,930.2,955.76,877.71,944.42z"/>
		<path class="st15" d="M833.56,276.68c57.41,46.81,85.86,115.36,129.49,172.51c15.05,67.75,15.04,67.73,83.95,59.53
			c8.85-1.05,17.41-0.47,24.41,6.12c-5.44,6.84-10.21,14.37-16.43,20.4c-53.98,52.32-53.93,52.16-15.27,116.72
			c4.36,7.28,6.21,16.07,9.22,24.17c-2.26,0.97-4.53,1.94-6.79,2.92c-25.9-5.32-46.37-17.44-55.33-44.06
			c-52.41-72.32-68.25-161.15-108.32-239.07c-8.43-25.67-25.12-47.01-36.96-70.86C834.04,309.92,818.71,295.66,833.56,276.68z"/>
		<path class="st16" d="M1013.94,797.2c-15.92-16.02-20.36-44.89-50.44-45.04c-7.44-0.4-14.88-0.8-22.33-1.2
			c6.15-6.1,13.83-11.3,18.13-18.51c7.92-13.27-2.38-40.87,24.77-38.27c28.54,2.73,60.6,0.99,76.17,36.07
			c8.35,18.81,14.5,39.93,32.01,53.69c7.46,17.56,15.69,34.85,22.06,52.8c3.14,8.85,14.43,18.78,4,28.02
			c-9.4,8.33-19.22-2.86-28.86-4.72c-13.46-2.6-26.33-8.28-39.46-12.64C1028.81,837.25,1036.89,806.09,1013.94,797.2z"/>
		<path class="st17" d="M833.56,276.68c5.25,30.95,27.25,53.35,41.83,79.39c7.37,13.17,12.42,25.25,11.73,39.96
			c-35.19-4.18-47.52-35.31-64.15-58.59c-22.52-31.53-45.48-59.05-84.66-70.17c-25.55-7.25-38.49-31.09-55.24-49.57
			c-2.56-4.64-3.39-9.56-2.28-14.76c-3.64-14.06-7.29-28.13-10.93-42.19C734.1,185.71,792.37,219.14,833.56,276.68z"/>
		<path class="st18" d="M1071.42,514.83c-13.71,3.68-27.36,7.64-41.16,10.97c-18.06,4.36-38.52,22.02-53.95,1.1
			c-16.42-22.28-35.69-47.36-13.26-77.71C996.65,475.23,1045.18,476.64,1071.42,514.83z"/>
		<path class="st19" d="M165.8,266.68c9.38-3.54,19.51-10.82,26.54,2.99c6.11,12-0.92,20.49-10.45,25.52
			c-28.07,14.83-45.15,36.92-49.1,68.69c-0.41,36.37-26.53,51.08-54.28,64.42c-19.53-11.32,0.61-24.35-1.57-36.42
			C105.62,349.47,130.27,304.22,165.8,266.68z"/>
		<path class="st20" d="M78.52,428.3c18.09-21.47,36.18-42.95,54.28-64.42c7.41-3.44,14.81-6.87,22.22-10.31
			c17.82,22.53-22.09,31.81-12.06,52.55c0.47,4.41,0.94,8.81,1.41,13.22c-9.72,27.61-19.44,55.22-29.16,82.84
			c-5.07-10.16-10.14-20.33-15.21-30.49C110.47,448.5,79.86,445.64,78.52,428.3z"/>
		<path class="st21" d="M544.16,114.3c-15.08,4.08-33.53-4.6-45.32,11.97C460.3,100.24,443.6,58.57,422.71,19.9
			C463.19,51.37,503.67,82.83,544.16,114.3z"/>
		<path class="st22" d="M1013.94,797.2c7.38-10.25,14.39-7.26,19.76,1.47c9.15,14.89,16.59,30.58,16.29,48.73
			c-10.18,2.55-24.55,3.71-18.71,18.96c19.2,50.08-15.01,27.33-33.92,25.7C1010.92,861.85,1021.67,831.14,1013.94,797.2z"/>
		<path class="st1" d="M80.32,795.12c8.7,5.59,9.28,14.12,8.41,23.18C81.24,812.27,79,804.34,80.32,795.12z"/>
		<path class="st15" d="M1059.44,697.67c-3.61-3.95-7.23-7.91-10.84-11.86c-3.55-1.53-4.88-3.32-4-5.38
			c0.93-2.18,1.92-3.28,2.98-3.28l1.37-1.04C1057.55,680.82,1059.31,688.85,1059.44,697.67z"/>
		<path class="st1" d="M90.69,827.25c5.75,3.48,8.29,8.65,8.09,15.28C92.39,839.39,89.78,834.25,90.69,827.25z"/>
		<path class="st23" d="M404.01,791.67c-3.98,11.91,24.18,15.85,7.95,30.26c-12.21,10.84-20.04,31.1-43.23,20.82
			c-14.85-6.58-30.52-11.28-41.81,6.89c-32.81,46.79-82.07,41.3-107.41-11.98c21.1-13.66,40.15-28.95,44.77-55.82
			c4.55-6.12,10.59-10.43,17.03-14.22c20.79-37.84,1.55-80.76,15.25-119.45c2.67-7.52,3.16-15.46,4.72-23.18
			c34.31-19.52,43.25-56.43,54.89-88.75c13.02-36.16-34.03-82.1-81.49-86.22c-18.81-1.64-39.66,7.24-55.89-9.66
			c7.28-0.72,14.57-1.43,21.85-2.15c57.86-6.14,115.6-13.79,173.86-15.07c79.66,10.35,107.44,58.89,77.5,135.02
			c-21.72,21.75-48.48,39.32-59.7,70.09c-10.04,33.64-6.35,67.68-3.05,101.66c1.35,4.53,2.18,9.17,2.64,13.84
			c0.04,2.27-0.03,4.6,0,6.88c-0.34,2.21-0.78,4.46-1.11,6.68c-1.24,4.2-3.18,8.15-5.58,11.81c-1.24,1.68-2.61,3.36-3.85,5.06
			c-2.57,3.21-5.44,6.24-8.43,9.1C410,786.08,407,788.87,404.01,791.67z"/>
		<path class="st24" d="M219.53,837.66c41.93,39.13,58.31,40.96,107.41,11.98c8.52,0.17,18.55-6.33,25.14,2.13
			c5.78,7.42-2.61,12.62-7.17,16.95c-31.46,29.79-67.65,27.44-105.19,14.71c-16.27-13.19-33.84-25.16-42.47-45.47
			c-4.51-11.4,0.85-12.9,10.31-10.28l2.28-0.92c2.12,4.31,5.19,7.78,9.2,10.42L219.53,837.66z"/>
		<path class="st25" d="M281.76,781.17c-5.82,0.22-11.64,0.45-17.47,0.67l-0.79,0.9c-4.02-2.36-8.05-4.7-12.1-7.02
			c-16.03-10.45-12.25-23.35-5.38-37.45c15.58-32.01,30.56-64.32,45.79-96.51c2.14,1.64,4.29,3.28,6.44,4.91
			C294.5,691.71,301.26,738.05,281.76,781.17z"/>
		<path class="st26" d="M133.97,719.9c-27.49-36.32-24.33-77.92-20.44-119.59c0.07-0.79,2.68-2.02,3.97-1.87
			c1.59,0.19,3.03,1.61,4.53,2.5c17.6,18.49,12.46,45.39,24.5,65.94c1.42,4.2,2.06,8.53,2.13,12.68
			c0.99,21.46,11.31-3.07,15.58,2.77c4.99-0.45,8.73,1.46,11.53,5.36c-3.06,16.21,9.23,40.27-21.63,42.25
			c-0.52-8.35-1.04-16.7-10.42-20.56C139.67,712.14,136.46,715.69,133.97,719.9z"/>
		<path class="st27" d="M196.79,515.03c21.24,40.05,17.54,80.34,1.15,120.75c-2.1-1.93-4.2-3.87-6.33-5.78
			c-13.53-30.08-7.98-61.52-6.66-92.69c0.92-5.74,2.89-11.11,5.74-16.17C192.71,519.09,194.75,517.06,196.79,515.03z"/>
		<path class="st28" d="M175.78,687.69c-3.1,0.15-6.17-0.06-9.22-0.65c-3.75,3.35-8.01,4.04-12.71,2.45
			c-3.14-3.73-4.27-8.01-3.43-12.82c3.44-11.4,11.29-20.22,17.5-30.04c7.48-9.13,14.6-19.01,28.86-15.53l1.18,4.68
			C201.48,657.75,185.24,671.27,175.78,687.69z"/>
		<path class="st29" d="M153.44,493.26c3.72-4.46,7.45-8.92,11.17-13.38c21.91,1.48,34.12,11.84,32.18,35.15l0.81-0.35
			c-15.73,8.68-24.51-5.19-35.82-10.96C158.21,500.88,155.45,497.37,153.44,493.26z"/>
		<path class="st30" d="M207.55,827.68c-3.44,3.43-6.88,6.86-10.31,10.28c-9.9-11.47-22.33-23.12,2.39-32.01
			c2.07,4.01,4.84,7.44,8.45,10.18C207.89,819.98,207.72,823.83,207.55,827.68z"/>
		<path class="st25" d="M301.3,624.99c0.62,6.4,1.25,12.8,1.87,19.2c-2.47,0.41-4.93,0.82-7.4,1.22l-3.96-3.64
			C294.98,636.17,298.14,630.58,301.3,624.99z"/>
		<path class="st6" d="M195.37,429.78c9.02-1.49,17.35-0.85,23.14,7.56c-6.97,0.5-13.95,1.01-20.92,1.51l-0.1-0.03
			c-3.04-1.41-4.37-3.22-3.99-5.43C193.92,430.98,194.54,429.78,195.37,429.78z"/>
		<path class="st23" d="M251.41,775.72c5.68-0.5,10.34,0.76,12.1,7.02C259.47,780.4,255.44,778.06,251.41,775.72z"/>
		<path class="st23" d="M208.07,816.13c-2.82-3.39-5.63-6.78-8.45-10.18C202.44,809.34,205.25,812.73,208.07,816.13z"/>
		<path class="st23" d="M219.03,837.18c-5.73-1.12-9.25-4.2-9.2-10.42C212.89,830.23,215.96,833.71,219.03,837.18z"/>
		<path class="st31" d="M422.03,438.33c-60.46,0.96-120.92,8.39-181.38-0.12c30.97-13.86,65.2-12.71,97.27-21.1
			c35.96-9.41,71.26-21.32,106.85-32.14c27.86-13.32,55.7-26.68,86.49-32.12c5.67,26.8-15.09,36.92-31.67,49.23
			c-8.45,6.27-20.35,4.98-29.14,11.2c9.01-1.47,17.45-1.8,19.92,9.93C472.41,450.1,442.37,422.27,422.03,438.33z"/>
		<path class="st1" d="M195.37,429.78c0.76,3,1.47,6.02,2.12,9.05c-8.99,0.54-17.11-0.82-21.71-9.9c3.58-0.37,7.16-0.74,10.73-1.11
			C189.29,429.24,192.25,429.89,195.37,429.78z"/>
		<path class="st32" d="M682.42,212.93c84.43,42.93,152.29,104.38,204.7,183.1c18.99,19.09,28.75,41.63,35.68,68.28
			c12.8,49.25,30.65,97.26,61.56,139.36c5.4,7.36,24.77,13.77,10.56,29.54c-4.44,3.4-9.35,4.15-14.65,2.68
			c-54.28-36.58-91.18-89.56-131-139.76c-4.16-5.24-6.06-11.88-8.35-18.17c-1.55,6.98,2.66,13,3.25,19.66
			c2.55,28.41,6.33,56.69,9.73,84.99c2.2,18.32,11.55,43.72-20.46,49.68c-9.77-12.06-19.98-23.79-29.22-36.24
			c-30.97-41.73-30.84-41.83-57.12,4.89c-3.76-3.43-7.51-6.86-11.27-10.29c-12.88-20.86-2.64-41.49,0.4-62.3
			c12.11-82.92,17.11-164.43-47.75-231.57c-16.78-17.37-16.98-38.22-11.58-60.02c-0.28-5.71-0.19-11.4,0.25-17.1
			C678.9,217.42,680.66,215.17,682.42,212.93z"/>
		<path class="st33" d="M681.99,223.25c-3.36,31.82,4.07,58.26,30.58,79.94c37.61,30.74,40.72,76.53,44.87,120.48
			c5.39,57.11-4.48,112.6-21.62,166.98c-17.72-9.33-23.53-27.49-32.25-43.5c-16.68-46.81-29.71-94.86-44.46-142.23
			c-16.46-52.87-11.7-108.04,12.31-159.78c0.05-7.15,0.1-14.29,0.14-21.44c1.68-1.37,3.36-2.73,5.04-4.1
			C678.41,220.82,680.2,222.04,681.99,223.25z"/>
		<path class="st34" d="M671.44,245.15c-3.35,70.38-18.74,141.48,20.7,208.25c16.79,28.43,11.97,61.92,11.45,93.76
			c-7-7.01-14-14.03-21-21.04c-3.13-3.89-6.26-7.79-9.4-11.68c-19.59-36.87-54.29-69.26-34.81-117.69
			C644.84,345.22,621.05,287.1,671.44,245.15z"/>
		<path class="st35" d="M490.72,419.51c-8.5-1.66-20.39-0.57-24.59-5.73c-4.55-5.59,6.39-9.72,11.77-12.35
			c22.62-11.03,41.26-26.14,53.35-48.58l0.02,0.01c3.98-3.22,7.48-6.94,11.16-10.48c17.17-8.76,34.54-17.16,51.45-26.41
			c11.41-6.24,19.76-4.86,25.66,7.1c8.16,40.55-8.48,69.38-42.44,90.11c-15.1,6.64-31.54,8.59-47.22,13.33
			C515.98,428.94,502.3,429.99,490.72,419.51z"/>
		<path class="st36" d="M573.68,404.85c32.68-17.51,36.91-50.97,45.86-81.78c21.75,20.6,3.57,37.28,26.05,57.7
			c2.73,41.85,18.12,93.81,27.6,133.66c-29.07-12.29-32.03-47.17-55.56-64.25c-0.21-3.71-0.42-7.42-0.63-11.12
			c-3.1-3.64-6.39-7.09-9.89-10.36c-0.76-8.58-1.52-17.17-11.17-21.04C587.68,413.36,580.26,412.44,573.68,404.85z"/>
		<path class="st37" d="M680.78,202.92c0.63,3.32,1.18,6.65,1.63,10l-2.02-0.7c-2.04,4.54-5.03,8.34-8.85,11.5l0.04-0.03
			c-18.15-1.74-28.1,13.13-41.49,20.84c-14.96,8.61-28.89,11.36-44.13,0.76c-12.76-8.88-32.04-16-27.1-33.98
			c4.74-17.22,24.32-8.73,37.26-9.13C624.31,201.3,652.56,202.55,680.78,202.92z"/>
		<path class="st31" d="M542.43,342.37c-3.72,3.49-7.44,6.99-11.16,10.48C534.99,349.36,538.71,345.87,542.43,342.37z"/>
		<path class="st38" d="M833.44,632.29c24.47-50.62-6.65-99.14-6.08-148.91c0.1-8.29-7.89-20.04-0.73-24.66
			c7.97-5.14,15.66,5.28,20.41,12.27c40.1,59.02,90.95,108.81,138.19,161.7c-17.28,35.61-50.93,16.66-76.96,23.09
			c-10.13-1.72-21.04-1.6-30.2-5.55c-17.2-7.42-21.67,0.9-23.23,15.33c-21.03,6.7-12.12-16.57-21.53-21.51
			C833.36,640.13,833.4,636.21,833.44,632.29z"/>
		<path class="st39" d="M833.32,644.04c7.18,7.17,14.35,14.34,21.53,21.51c1.32,60.83,11.1,124.42-53.62,163.61
			C822.44,769.28,839.79,708.73,833.32,644.04z"/>
		<path class="st40" d="M329.43,208.32c-1.61,3.26-2.29,7.78-4.74,9.14c-29.45,16.35-57.83,36.06-89.23,47.04
			c-25.9,9.06-41.42-14.72-54.29-34.26c-4.98-7.56,0.89-14.82,8.29-15.73c43.95-5.45,89.21,4.71,132.45-10.97
			C323.61,202.91,326.89,206.63,329.43,208.32z"/>
		<path class="st41" d="M142.95,406.13c-24.78-24.13,19.13-32.49,12.06-52.55c26.69-14.71,37.36-49.7,70.75-55.92
			c-11.3,28.96-39.01,44.59-55.97,68.95C160.7,379.67,151.89,392.94,142.95,406.13z"/>
		<path class="st42" d="M423.75,751.38c-0.18-3.41-0.31-6.82-0.39-10.23c-4.93-10.4,1.7-12.86,9.81-14.35
			c34.58,20.43,68.63,54.9,105.78,3.93c2.84-3.75,5.83-7.41,8.63-11.18c2.24-4.14,4.56-8.23,6.58-12.48
			c17.21-38.65-1.09-75.82-4.56-113.61c2.5-4.73,6.29-7.76,11.56-8.89c5.32,0.06,10.03,1.77,14.14,5.12
			c4.37,11.04,8.73,22.09,13.1,33.13c2.04,4.41,4.21,8.75,6.52,13.02c-0.76,2.84-0.42,5.53,1.03,8.09
			c7.47,10.8,7.49,21.59-0.01,32.38c-1.47,2.55-1.81,5.24-1.02,8.08c-2.31,4.27-4.48,8.61-6.49,13.02
			c-5.31,18.42-12.41,36.48-25.32,50.49c-13.49,14.64-16.97,25.86-4.22,44.16c7.47,10.71-6.4,11.21-14.87,10.18
			c-10.71-28.16-28.39-17.46-45.81-8.21c-15.18,14.27-23.21-0.25-32.88-8.17c-23.06-25.7-40.47,8.3-61.34,5.8l-0.32-3.97
			c1.55-6.09,4.56-10.94,10.96-12.92l-0.24,0.37c1.55-5.64,5.48-9.17,10.44-11.79l-0.07,0.24
			C427.46,759.27,427.26,755.18,423.75,751.38z"/>
		<path class="st43" d="M465.35,785.87c10.96,2.72,21.92,5.45,32.88,8.17c-1.65,12.83,4.18,33.38-17.05,31
			C458.6,822.51,471.27,798.98,465.35,785.87z"/>
		<path class="st44" d="M575.31,589.69l-3.63-0.67l-3.64,0.57c-5.21-1.69-10.16-3.94-14.87-6.74c-1.46-2.3-2.92-4.61-4.4-6.89
			c-1.34-5.26-1.66-10.61-1.06-15.99c-0.87-48.34,13.82-98.64-17.88-143.17c12.58-11.47,29.04-8.7,43.85-11.96
			c7.42,0.94,14.84,1.87,22.26,2.81c7.66,45.66-1.4,91.34,0.12,137C596.68,563.25,595.56,580.82,575.31,589.69z"/>
		<path class="st44" d="M595.95,676.32c0-10.79,0.01-21.59,0.01-32.38C610.47,654.73,610.46,665.53,595.95,676.32z"/>
		<path class="st7" d="M607.11,428.7c3.3,3.45,6.59,6.91,9.89,10.36C613.7,435.61,610.41,432.15,607.11,428.7z"/>
		<path class="st12" d="M588.43,697.42c2.16-4.34,4.33-8.68,6.49-13.02C592.76,688.74,590.6,693.08,588.43,697.42z"/>
		<path class="st12" d="M594.93,635.84c-2.17-4.34-4.35-8.68-6.52-13.02C590.58,627.16,592.76,631.5,594.93,635.84z"/>
		<path class="st45" d="M165.61,495.86c15.41-1.79,18.71,17,31.99,18.82c-0.93,3.74-1.85,7.48-2.78,11.21
			c-44.54,51.05-47.48,70.99-19.02,129.29c-2.92,11.01-9.81,18.52-20.26,22.86c-4.36,4-8.42,3.71-12.17-0.88
			c-24.68-20.49-21.56-48.78-21.36-76.24c9.25-5.03,10.37-13.53,9.69-22.78c-11.93-24.18,5.34-42.88,11.96-63.57l-0.24,0.4
			C149.34,506.88,154.58,498.01,165.61,495.86z"/>
		<path class="st26" d="M143.68,514.58c-3.99,21.19-7.97,42.38-11.96,63.57C110.25,552.18,126.91,533.37,143.68,514.58z"/>
		<path class="st26" d="M165.61,495.86c-5.65,8.39-12.22,15.72-22.17,19.12c-0.3-8.91,0.1-17.51,10-21.72
			C157.5,494.13,161.56,495,165.61,495.86z"/>
		<path class="st1" d="M133.97,719.9c0.61-5.96,4.05-9.29,9.76-10.52C140.47,712.89,137.22,716.39,133.97,719.9z"/>
		<path class="st16" d="M908.28,655.77c20.72-24.13,55.28-2.13,76.96-23.09c3.23,0.01,6.46,0.19,9.68,0.52
			c9.9,23.82,33,31.83,52.66,43.96c0.48,2.87,0.82,5.75,1.02,8.65C1001.59,676.89,952.05,679.81,908.28,655.77z"/>
		<path class="st46" d="M529.82,416.81c13.13,2.77,32.99-1.62,32.55,19.15c-0.94,44.01,10.14,88.81-7.07,131.95
			c-2.24,0.2-4.49,0.41-6.74,0.64c-4.48,0.98-9,1.36-13.58,1.38c-16.09-0.8-32.44,0.96-48.09-4.62c-4.34-2.18-7.45-5.5-9.16-10.08
			c33.31-53.91,6-111.19-55.72-116.89c20.06-16.64,48.68-2.03,68.69-18.82C503.76,418.61,516.79,417.71,529.82,416.81z"/>
		<path class="st47" d="M295.78,645.41c2.39-0.88,4.85-1.29,7.4-1.22c0.76,37.66,1.63,75.33,2.23,112.99
			c0.25,15.73-1.83,29.73-23.64,23.99C275.89,734.82,290.91,690.64,295.78,645.41z"/>
		<path class="st48" d="M432.3,730.73c-2.98,3.47-5.96,6.94-8.94,10.41c-19.79-39.74-18.8-79.51-0.13-119.3
			c8.45,2.35,13.91,7.64,16.04,16.23C434.33,668.74,445.45,700.65,432.3,730.73z"/>
		<path class="st49" d="M431.58,632.87c-2.79-3.67-5.57-7.35-8.36-11.02c5.65-32.45,30.89-48.88,54.52-66.62l-0.13,4.93
			c6.77,2.47,14.02,4.47,13.79,13.89C475.54,597.77,455.48,617.27,431.58,632.87z"/>
		<path class="st8" d="M423.75,751.38c6.12,3.58,10.01,7.36,1.04,12.22C424.44,759.53,424.09,755.45,423.75,751.38z"/>
		<path class="st8" d="M424.85,763.36c-0.14,6.88-3.91,10.56-10.44,11.79C414.83,768.51,418.44,764.7,424.85,763.36z"/>
		<path class="st8" d="M414.65,774.79c-0.94,6.61-5.1,10.48-10.96,12.92C403.85,780.43,407.36,776,414.65,774.79z"/>
		<path class="st50" d="M152.97,686.12c4.53,0.3,9.06,0.61,13.59,0.91c-6.46,13.31-17.49,13.53-28.3,7.79
			c-3.2-1.7,1.1-7.93,5.58-10.09C147.33,682.22,150.38,682.68,152.97,686.12z"/>
		<path class="st1" d="M152.97,686.12l-4.72,0.27c0,0-4.43-1.66-4.42-1.66c-0.14-2.53-0.3-5.05-0.45-7.56
			c4.06,0.3,8.11,0.58,12.17,0.88C154.65,680.73,153.79,683.42,152.97,686.12z"/>
		<path class="st51" d="M175.81,655.19c-3.52-0.17-7.65,0.8-10.48-0.69c-36.46-19.25-22.25-52.3-17.35-79.18
			c4.22-23.17,5.8-57.48,46.85-49.42c0.65,35.07,1.3,70.13,1.95,105.2C189.78,639.13,182.8,647.16,175.81,655.19z"/>
		<path class="st4" d="M671.54,223.73c2.95-3.83,5.9-7.67,8.85-11.5c0.53,3.67,1.07,7.35,1.6,11.02
			C678.52,223.69,675.04,223.85,671.54,223.73z"/>
		<path class="st52" d="M554.71,587.19c18.96,43.12,31.72,86.63,8.31,132.41c-3.44,3.64-6.85,7.3-10.23,10.99l0.76-0.82
			c-19.15,12.94-37.88,29.73-62.49,11.75c-26.6-19.44-39.91-46.61-35.33-78.9c6.65-46.83,34.11-77.08,80.92-88.42
			c6.19-0.48,11.79,1.15,16.8,4.83l-0.58-0.24C555.97,581.04,556.58,583.84,554.71,587.19z"/>
		<path class="st53" d="M543.86,581.58c-27.15,14.12-58.72,21.67-70.04,56.68c-10,30.93-8.26,59.07,11.88,84.79
			c19.9,25.42,44.39,12.66,67.83,6.71c-47.07,58.89-75.23,59.11-121.24,0.96c-10.32-32.55-10.86-65.16-0.71-97.86
			c10.78-28.88,30.89-49.29,57.76-63.55C510.57,559.82,530.23,557.3,543.86,581.58z"/>
		<path class="st54" d="M552.78,730.59c0.59-6.3,3.91-10.04,10.24-10.99C562.15,725.64,559.09,729.63,552.78,730.59z"/>
		<path class="st55" d="M554.71,587.19c-1.44-2.62-2.06-5.42-1.85-8.4c8.11-0.68,11.83,4.81,15.18,10.81
			C563.59,588.79,559.15,587.99,554.71,587.19z"/>
		<path class="st56" d="M543.86,581.58c-16.92-9.67-35.28-12.9-54.52-12.26c-3.91-3.06-7.82-6.11-11.73-9.17
			c20.8-7.61,41.89-5.04,63-1.79c4.61,2.28,7.53,7.15,12.84,8.36l1.86,1.18c-0.62,3.7-1.24,7.41-1.87,11.11
			C550.24,579.86,547.05,580.71,543.86,581.58z"/>
		<path class="st44" d="M553.45,566.72c-4.28-2.79-8.56-5.58-12.84-8.36C544.89,561.15,549.17,563.94,553.45,566.72z"/>
	</g>
</g>
</svg>
