<?xml version="1.0" encoding="utf-8"?>
<!-- Generator: Adobe Illustrator 23.1.0, SVG Export Plug-In . SVG Version: 6.00 Build 0)  -->
<svg version="1.1" id="Calque_1" xmlns="http://www.w3.org/2000/svg" xmlns:xlink="http://www.w3.org/1999/xlink" x="0px" y="0px"
	 viewBox="0 0 1125 1333.58" style="enable-background:new 0 0 1125 1333.58;" xml:space="preserve">
<style type="text/css">
	.st0{fill:#8B8B8B;}
	.st1{fill:#460692;}
	.st2{fill:#DF9A6B;}
	.st3{fill:#FC74BA;}
	.st4{fill:#5205A9;}
	.st5{fill:#F9F5A8;}
	.st6{fill:#8718ED;}
	.st7{fill:#5C07B7;}
	.st8{fill:#6809C8;}
	.st9{fill:#F3AC77;}
	.st10{fill:#D5976B;}
	.st11{fill:#F6CA89;}
	.st12{fill:#F6B6F2;}
	.st13{fill:#7611DA;}
	.st14{fill:#935C3F;}
	.st15{fill:#380578;}
	.st16{fill:#F7F2FB;}
	.st17{fill:#1C1C23;}
	.st18{fill:#C6C1C4;}
	.st19{fill:#7B524E;}
	.st20{fill:#240554;}
	.st21{fill:#A8A5AB;}
	.st22{fill:#844833;}
	.st23{fill:#976E52;}
	.st24{fill:#C88859;}
	.st25{fill:#434042;}
	.st26{fill:#9839F7;}
	.st27{fill:#FBF82C;}
	.st28{fill:#488DC3;}
</style>
<g>
	<g>
		<path class="st0" d="M824.5,1043.03"/>
		<path class="st1" d="M676.85,121.9c67.3,79.09,99.86,176.61,131.32,271.72c24.83,75.07,77.14,136.66,92.71,214.52
			c8.25,12.79,8.1,25.59,0.04,38.4l0.08,0.02c-56.35,59.79-70.35,62.5-130.7,25.4c-6.37-6.73-11.92-14.17-17.44-21.58
			c-41.98-44.82-86.81-86.56-123.84-136.59c-31.07-41.97-83.99-36.04-130.95-38.12c-18.49-0.06-36.96-0.3-54.45-7.48
			c-22.23-16.05-49.32-24.37-69.85-43.3c-5.26-8.23-7.19-17.3-6.91-26.96c2.56-18.95,7.38-37.04,20.33-51.88
			c5.74-2.52,11.55-2.62,17.31,0.01c15.48,56.74,51.8,51.48,95.57,34.63c98.09-37.75,118.44-130.33,152.59-212.93
			C659.42,151.41,654.56,129.9,676.85,121.9z"/>
		<path class="st2" d="M611.55,1080.41c-31.05,43-72.57,66.48-126.07,67.46c-65.79,1.21-125.89,19.26-178.42,59.91
			c-7.64,2.15-12.81,7.16-16.38,14.06c-4.13,3.42-8.26,6.85-12.39,10.27c-16.41,10.76-34.45,16.67-49.23,0.27
			c-15.91-17.65-2.46-34.58,8.28-48.74c17.1-22.55,21.24-42.79-4.04-61.95c-10.55-15.99-18.04-32.76-13.62-52.58
			c27.01-41.5,59.36-15.72,86.61-3.34c44.26,20.12,85.95,28.41,128.82-0.61c8.35-3.74,17.12-4.97,26.17-4.29
			c66.69,6.74,100.37-25.57,106.28-102.15c-5.56-9.03-13.87-14.56-23.61-18.33c-15.34-6.26-33.66-6.04-44.97-20.89
			c7.1-41.09,30.38-64.74,72.85-67.75c18.71,8.62,29.28,27.32,46.57,37.77c10.6,9.54,17.04,21.62,21.21,35.05
			c3.18,13.16,12.05,23.49,18.04,35.31c5.2,16.96-0.81,32.72-4.98,48.73c-1.38,5.47-3.23,10.77-5.21,16.05
			C638.74,1045.35,634.45,1068.91,611.55,1080.41z"/>
		<path class="st3" d="M137.07,628.43c12.44-4.5,24.88-9.01,37.32-13.51c5.35,0.31,10.63,1.13,15.87,2.35
			c24.01,8.21,42.84,23.35,58.09,43.37c12.76,29.36,42.56,47.4,52.48,78.73c5.78,26.6,4.75,51.61-16.58,71.91
			c-5.22,4-11.03,6.87-17.31,8.78c-15.4,4.04-31.18,4.11-46.93,4.17c-20.4-0.01-40.94-1.31-60.87,4.98
			c-5.57,1.6-11.26,2.6-17.02,3.24c-14.17,2.61-27.62-8.72-42.03-2.1c-32.56-4.37-57.22,43.06-93.5,14.26
			c16.41-38.53,41.75-71.94,67.83-103.48C102.78,706.85,122.75,669.65,137.07,628.43z"/>
		<path class="st4" d="M676.85,121.9c0.41,69.89-42.13,124.21-67.31,184.77c-25.64,61.66-82.36,84.1-139.35,101.07
			c-45.42,13.53-76.76-2.18-68.94-58.09c-10.95-15.97-14.53-32.39-3.12-49.73c25.65-9.52,25.35,12.02,31.36,26.03
			c1.81,33.92,17.75,36.31,43.89,20.72c54.42-32.45,84.89-79.85,99.18-141.53c11.92-51.46,2.09-106.76,28.64-155.27
			C633.53,66.41,656.43,92.85,676.85,121.9z"/>
		<path class="st5" d="M52.18,1307.13c-39.78-12.71-24.26-40.55-17.73-65.63c19.08-73.31,49.46-143.78,55.37-220.4
			c18.88-11.7,36.01-1.89,53.51,4.23c16.78,9.79,33.85,19.28,43.34,37.54c11.16,93.08-48.18,161.1-85.62,236.55
			C91.81,1318.05,70.48,1316.54,52.18,1307.13z"/>
		<path class="st6" d="M404.39,298.89c-1.04,16.9-2.09,33.81-3.14,50.74c0,0.02-5.03-3.22-5.03-3.22
			c-41.01-34.94-19.07-82.71-25.52-124.63c1.15-6.02,3.1-12.39,8.24-15.8c21.66-14.36,51.09-23.52,38.86-59.61
			c-9.06-26.73-25.5-47.27-53.96-54.09c-31.45-7.54-56.42,2.7-73.05,31.33c-4.14,7.13-9.73,13.16-16.52,17.97
			c-12.21,7.47-26.78,9.31-39.12,16.51c-7.16,4.67-14.4,9.19-21.55,13.89c-22.55,9.37-36.83,41.58-68.76,25.19
			c39.09-80.86,95.69-143.3,182.7-173.76c10.34-11.08,26.65-1.64,37.51-10.94c8.25-1.2,16.5-2.4,24.75-3.61
			c31.15,27.34,59.96,56.38,76.76,95.47c27.63,64.26,17.85,111.29-34.22,160.57C421.27,274.72,415.31,288.86,404.39,298.89z"/>
		<path class="st7" d="M601.2,49.86c7.57,58.32-4.73,115.53-14.9,171.85c-12.01,66.52-56.26,112.68-114.18,146.56
			c-41.07,24.02-61.97,18.25-57.16-33.59c93.09-36.92,103.81-116.84,107.19-201.93c1.5-37.78-11.18-78.57,18.04-112.13
			C560.53,30.37,580.87,40.11,601.2,49.86z"/>
		<path class="st8" d="M540.19,20.62c-3.28,70.01,1.91,139.98-11.92,210.07c-13.96,70.79-38.37,98.29-113.32,103.98
			c-0.79-12.75,2.45-26.69-10.57-35.8c-1.92-14.57-4.79-29.4,10.38-39.49c46.3-2.98,62.61-30.38,62.7-73.71
			c0.09-45.41-2.02-89.9-21.2-132.23c-7.35-16.21-18.11-33.26-4.77-51.87C483.63-4.06,512.2,6.92,540.19,20.62z"/>
		<path class="st9" d="M1109.6,695.17c-31.74,85.14-79.72,155.9-168.62,190.41c-25.26,3.12-24.7-15.22-26.44-31.67
			c7.63-37.53,46.43-47.61,65.85-74.77c6.77-7.23,21.97-12.12,18.63-22.09c-4.74-14.13-21.79-6.13-33.13-9.59
			c-64.47-23.16-28.1-50.11-2.93-76.66c31.59-12.85,64.99-13.95,98.37-15.14C1086.3,657.97,1106.96,665.56,1109.6,695.17z"/>
		<path class="st6" d="M41.65,472.34c29.1-16.14,58.2-32.27,87.3-48.41c9.33-16.36,22.39-28.54,39.92-35.82
			c11.89-4.34,24.18-5.48,36.73-4.71c41.71,10.48,86.39,11.88,122.64,39.33c2.31,5.95,1.55,11.45-2.71,16.33
			c-15.02,11.4-37.9,8.65-49.93,22.95c-29.08,34.58-62.49,34.16-99.77,17.9c-6.6-2.88-14.38-1.37-20.97-4.8
			c4.65,4.2,10.75,2.88,16.15,4.14c18.1,4.22,35.21,11.61,53.19,16.23c11.5,1.61,23.33-0.32,34.7,3.13
			c5.81,1.55,11.37,3.7,16.8,6.27c14.7,14.46,61.86,15.91,21.48,52.84c-32.11,7.45-61.69-7.92-92.78-10.11
			c-6.3-1.38-12.21-3.75-17.84-6.85c-22.55-24.06-51.77-29.05-83.02-33.5C80.24,503.94,47.96,508.82,41.65,472.34z"/>
		<path class="st10" d="M740.41,1034.69c-6.42,3.92-12.45,3.39-18.1-1.57c-28.92-59.29,17.32-89.76,48.25-126.12
			c33.9-13.49,60.24-36.16,79.98-66.85c8.32-5.15,17.41-7.83,27.08-8.94c16.84-0.85,33.32-0.35,46.51,12.38
			c1.86,15.5,0.05,32.47,16.83,41.99"/>
		<path class="st11" d="M52.18,1307.13c13.93-1.85,31.32,1.85,38.05-14.77c31.23-77.07,88.57-144.53,86.67-233.86
			c20.31-10.81,35.55-2.62,48.79,13.03c5.07,15.94,10.14,31.89,15.21,47.83c9.23,11.25,7.77,23.79,0.52,34.19
			c-32.85,47.07-59.5,98.21-94,144.06c-16.87,22.41-39.07,36.2-68.79,21.35C68.11,1318.85,58.17,1317.39,52.18,1307.13z"/>
		<path class="st9" d="M78.64,1318.96c21.97,1.51,41.15-4.65,53.22-23.82c36.73-58.35,72.75-117.14,109.05-175.77
			c44.12,10.91,45.06,32.91,17.28,63.83c-10.12,11.26-30.83,20.03-23.25,38.29c7.57,18.23,28.41,8.02,43.36,10.61
			c-27.45,24.22-55.23,48.08-82.26,72.76C160.03,1337.72,121.13,1342.33,78.64,1318.96z"/>
		<path class="st12" d="M137.07,628.43c7.75,29.86,3.36,59.41-18.12,80.13C76.18,749.84,57.41,810.44,6.6,844.61
			C0.62,739.19,45.59,664.68,137.07,628.43z"/>
		<path class="st13" d="M451.5,1.57c35.59,63.27,46.75,131.85,37.09,202.59c-5.31,38.87-18.89,77.57-73.82,55.23
			c64.38-51.5,67.99-124.51,9.31-195.19c-14.04-16.92-35.32-29.13-34.27-55.34c2.09-2.09,4.35-2.29,6.78-0.61
			c10.32-1.58,20.59-3.35,30.47-6.85C435.2,1.46,443.35,1.51,451.5,1.57z"/>
		<path class="st14" d="M726.03,1033.28c4.79,0.47,9.57,0.94,14.37,1.41c-40.02,23.47-78.22,52.1-128.85,45.72
			c8.32-21.04,16.64-42.07,24.97-63.11c4.07,2.5,6.16,2.06,6.39-1.3c0.22-3.27-1.15-5.93-4.27-7.97
			c3.97-16.61,7.95-33.23,11.92-49.84c-6.42-8.32-6.83-17.19-2.42-26.52c14.87-13.95,32.34-18.64,52.18-14.65
			c4.66,3.82,7.92,8.71,9.95,14.37C714.99,965.37,691.85,1003.74,726.03,1033.28z"/>
		<path class="st13" d="M144.85,197.17c29.27-1.46,39.9-38,70.28-37.36c1.17,2.63,2.34,5.26,3.52,7.88
			c-0.55,5.74-2.14,11.18-4.82,16.29c-21.15,25.84-40.62,52.77-52.6,84.34c-10.59,4.78-11.96,10.84-2.41,18.41
			c2.79,7.8,2.63,15.57-0.08,23.31c-4.7,9.11-8.58,18.49-8.5,29.08c0.05,8.07-0.95,15.94-3.63,23.59
			c-7.37,10.47-10.43,27.36-29.74,20.21C93.34,316.06,110.44,255.31,144.85,197.17z"/>
		<path class="st2" d="M962.95,670.81c12.3,19.97-61.92,58.37,13.81,64.82c9.51,35.1-17.25,41.29-40.21,47.43
			c-21.98,5.87-47.64,7.14-62.03-13.25c-19.72-27.96-2.25-54.11,12.7-78.77c4.5-5.73,10.23-9.73,17.15-12.04
			C923.89,676.26,943.42,673.53,962.95,670.81z"/>
		<path class="st5" d="M75.36,996.06c-20.62-41.4,0.56-53.09,37.88-53.31c20.62-10.96,37.74-3.08,53.98,9.97
			c4.47,5.1,7.61,10.91,9.63,17.37c1.8,6.5,2.49,13.13,2.31,19.87c-2.99,21.18-8.99,39.54-36.21,37.03
			C114.97,1028.67,97.94,1006.3,75.36,996.06z"/>
		<path class="st4" d="M41.65,472.34c45.3,32.11,108.31,17.87,150.69,57.62c-8.44,11.52-18.01,12.13-28.59,2.95
			c-37.92-22.48-80.53-6.86-120.09-14.98c-13.07-2.68-32.87-4.1-33.11-21.06C10.32,481.5,28.1,476.85,41.65,472.34z"/>
		<path class="st15" d="M904.36,678.99c-1.18,2.03-2.19,4.13-3.03,6.32c-27.36,22.62-56.16,42.29-92.96,45.73
			c-8.79-0.69-16.6-3.84-23.35-9.51c-4.09-3.73-7.8-7.89-11.22-12.26c-1.71-2.13-3.3-4.4-5.02-6.54
			c-5.02-6.59-9.33-13.61-12.04-21.53c-1.12-5.48-1.03-10.96,0.15-16.43c1.34-2.43,2.71-4.84,4.06-7.28
			c5.02-3.52,9.91-3.34,14.67,0.53c47.6,59.69,83.98-3.29,125.38-11.46C902.12,657.37,903.24,668.18,904.36,678.99z"/>
		<path class="st16" d="M164.44,958.35c-17.08-5.19-34.15-10.37-51.21-15.57c6.47-20.74,12.93-41.45,19.39-62.17
			c6.8-6.45,15.14-8.55,24.21-8.68c15.25,0.82,27.74,7.03,37.1,19.23c8.6,14.44,4.19,31.93,10.96,46.89
			c1.89,5.18,2.22,10.46,1.17,15.85c-6.11,11.04-16.02,13.77-27.69,12.67C173.18,964.75,168.54,962.01,164.44,958.35z"/>
		<path class="st7" d="M116.87,382.93c8.93-9.28,17.87-18.57,26.8-27.85c5.63-0.65,10.88,0.42,15.7,3.47
			c10.62,10.23,17.88,21.41,10.07,36.71c-7.92,17.43-21.88,26.33-40.5,28.66C123.56,410.66,112.96,398.93,116.87,382.93z"/>
		<path class="st17" d="M163.75,532.91c9.53-0.98,19.05-1.95,28.58-2.94c3.45,1.71,7.04,3.07,10.76,4.06
			c3.98,4.11,7.35,8.68,10.17,13.67c2.84,18.51,17.18,38.49-6.65,53.71c-21.1,2.86-20.56-14.37-25.01-26.98
			C164.34,565.45,165.6,548.51,163.75,532.91z"/>
		<path class="st11" d="M1109.6,695.17c-16.09-13.16-32.19-26.33-48.28-39.5c18.62-10.32,40.52-17.46,57.1-3.47
			C1134.92,666.12,1110.08,679.94,1109.6,695.17z"/>
		<path class="st11" d="M155.29,879.93c-7.56,0.25-15.11,0.5-22.67,0.71c-2.33-16.6-21.65-27.76-14.99-47.19
			c4.91-8.95,17.79-4.34,22.67-13.34c2.84-0.2,5.68-0.2,8.51,0.01c6.66,2.2,11.27,6.56,13.9,13.06
			C167.71,849.95,167.94,865.97,155.29,879.93z"/>
		<path class="st11" d="M75.36,996.06c27.3-9.48,41.35,17.98,63.52,22.78c6.67,5.21,6.62,10.36-0.15,15.44
			c-16.31-4.4-32.62-8.8-48.92-13.2C85,1012.76,80.18,1004.41,75.36,996.06z"/>
		<path class="st18" d="M181.6,574.43c6.83,7.67,13.65,15.34,20.48,23.01c4.07,5.52,3.53,10.75-1.01,15.73
			c-8.53,4.96-17.45,4.68-26.54,1.99C168.56,600.14,179.22,588,181.6,574.43z"/>
		<path class="st19" d="M140.3,820.11c-7.56,4.45-15.12,8.89-22.68,13.34c-5.84-1.03-11.68-2.07-17.52-3.1
			C111.11,817.53,125.82,819.26,140.3,820.11z"/>
		<path class="st15" d="M900.92,646.53c-0.01-12.79-0.03-25.59-0.04-38.39C914.89,620.92,916.29,633.72,900.92,646.53z"/>
		<path class="st13" d="M365.05,12.46c-9.77,13.03-23.88,11.14-37.51,10.94C337.56,11.23,351.06,11.02,365.05,12.46z"/>
		<path class="st0" d="M174.53,615.16c8.57-2.75,17.13-5.49,25.7-8.24c4.95,3.41,6.9,8.07,5.83,13.99
			c-6.95,7.01-14.12,7.76-21.56,0.75c-3.36-2.24-6.73-4.49-10.1-6.74C174.39,614.92,174.53,615.16,174.53,615.16z"/>
		<path class="st8" d="M427.05,1.4c-8.49,9.57-19.28,8.99-30.44,6.86C405.24-0.69,415.78-1.28,427.05,1.4z"/>
		<path class="st9" d="M290.68,1221.84c5.45-4.68,10.9-9.37,16.36-14.05C301.59,1212.47,296.13,1217.15,290.68,1221.84z"/>
		<path class="st16" d="M377.42,210c17.62,43.9,16.43,90.4,18.8,136.4c-4.88,18.41-9.75,36.82-14.63,55.24
			c-53.13,18.18-101,16.22-135.96-35.41c-8.52-19.51-9.21-39.76-5.23-60.34c6.85-35.31,27.15-57.69,62.97-64.84
			c6.16-4.47,10.32-10.74,14.31-17.06c6.07-10.63,9.26-22.53,14.32-33.67c2.59-4.51,6.08-8.09,10.56-10.74
			c7.65-2.75,15.25-2.53,22.84,0.24c7.19,3.79,12.65,9.29,16.34,16.54C383.12,201.79,381.8,206.39,377.42,210z"/>
		<path class="st15" d="M501.05,460.5c69.19-0.05,131.48,6.43,169.54,80.82c20.42,39.9,61.34,69.31,93.01,103.46
			c3.21,3.21,4.26,6.39,3.13,9.55c-1.12,3.14-2.22,4.71-3.32,4.71l0.48-0.47c-27.93,17.19-48.9,2.65-69.21-15.07
			c-36.24-65.37-105.21-91.42-160.51-133.98C518.32,497.33,487.09,493.55,501.05,460.5z"/>
		<path class="st20" d="M501.05,460.5c41.45,50.87,105.81,70.43,153.79,112.51c19.72,17.29,44.07,30.38,47.01,60.47
			c-6.12,7.19-13.95,11.08-23.27,12.17c-9.07,0.51-17.68-1.23-25.77-5.36c-9.61-6.38-16.54-15.67-25.05-23.24
			C559.45,588.52,511.28,530.16,447,495.58c-7.08-5.78-12.09-12.83-13.67-22.02c0.22-6.14,2.37-11.5,6.43-16.09
			C460.19,458.48,480.62,459.49,501.05,460.5z"/>
		<path class="st21" d="M253.88,358.27c29.05,54.26,83.11,34.87,127.7,43.37c-0.38,6.84-0.77,13.67-1.15,20.51
			c1.99,7.13,0.09,13.01-5.69,17.65c-16.7,7.12-32.44,9.56-43.91-8.96c-42.55-12.72-85.11-25.44-127.66-38.16
			c-26.59-34.67-18.7-72.54-10.42-110.34c2.46-5.8,6.67-10.24,12.28-13.14c43.55,12.29,10.84,59.89,36.96,80.24
			C245.89,352.45,249.85,355.42,253.88,358.27z"/>
		<path class="st15" d="M373.75,433.95c2.23-3.93,4.46-7.86,6.69-11.8c21.19,9.42,51.47,3.59,59.33,35.35
			c-0.12,4.88-0.23,9.79-0.34,14.7c-10.44,10.19-22.71,10.99-35.94,7.05C385.5,469.47,370.98,457.37,373.75,433.95z"/>
		<path class="st17" d="M763.42,659.04c0.06-4.75,0.12-9.49,0.18-14.25c4.01,4.4,8.02,8.82,12.02,13.23
			C771.54,658.22,767.47,658.57,763.42,659.04z"/>
		<path class="st17" d="M673.03,635.08c9.6-0.53,19.21-1.07,28.81-1.6c16.9,17.73,39.79,20.63,62.05,25.09
			c-0.16,8.45-0.33,16.89-0.5,25.34c3.43,2.98,4.86,6.22,4.29,9.71c-0.59,3.62-1.38,5.43-2.3,5.44
			C704.58,733.4,664.35,791.04,612,834.96c-11.09,8.24-22.75,15.39-36.86,17.28c-26.78,19.36-51.05,41.3-70.25,68.44
			c-1.86,9.6-6.93,17.4-13.54,24.37c-28.83,31.12-62.12,25.66-96.39,11.54c-22.8-9.4-46.04-17.71-68.77-27.32
			c-26.09-16.97-56.27-25.76-83.09-41.25c-20.32-11.74-37.76-25.7-38.63-51.98c0.7-10.07,4.45-18.54,12.93-24.5
			c13.3,1.1,26.6,2.2,39.9,3.3c22.86,1.18,43.98,8.96,65.02,17.06c21,9.21,43.84,10.85,65.84,15.89
			c58.55,24.78,92.34-21.52,133.44-46.68c52.6-41.34,121.02-63.31,154.84-127.17C675.49,660.96,668.53,648.48,673.03,635.08z"/>
		<path class="st22" d="M601.69,833.91c48.46-52.31,85.71-117.81,161.85-137.54c4.37-4.67,8.45-4.43,12.24,0.71l-0.41-0.65
			c5.4,4.13,9.7,9.2,12.89,15.21c5.87,6.06,11.74,12.12,17.6,18.18c3.04,31.74-15.38,56.77-26.15,84.21
			c-2.6,4.69-5.58,9.17-8.61,13.57c-5.87,9.07-10.39,18.81-14.13,28.97c-13.96,25.28-11.4,65.03-55.59,63.92
			c-15.83,9-32.69,14.02-51.06,13.25c-8.43,6.42-15.98,6.61-22.16-3.1c-5.74-11.42-11.48-22.84-17.22-34.26
			C597.68,877.06,581.46,858.19,601.69,833.91z"/>
		<path class="st9" d="M138.73,1034.29c0.07-5.14,0.13-10.28,0.17-15.43c25.78,0,25.71-18.96,27.01-36.91
			c9.72-8.99,21.69-11.33,34.35-11.68c9.32-1.03,18.4,0.17,27.36,2.66c22.92,7.38,45.51,15.76,67.82,24.92
			c47.58,24.59,107.61,24.06,144.11,71.08c-29.64,37.78-63.37,42.87-109.22,25.54c-32.44-12.26-61.71-54.58-104.61-22.95
			c-16.28-4.33-32.54-8.69-48.81-13.03C160.06,1056.92,147.82,1048.08,138.73,1034.29z"/>
		<path class="st23" d="M581.96,944.13c12.72,84.12-49.13,150.6-117.01,125.76c4.8-9.63,13.42-15.62,21.15-22.5
			c11.87-10.6,24.09-20.8,35.11-32.34C547.4,996.48,534.18,944.08,581.96,944.13z"/>
		<path class="st0" d="M490.01,1057.55c-5.54,9.83-14.89,11.92-25.06,12.34c-8.46-0.31-16.93-0.63-25.39-0.95
			c-49.85-20.51-99.7-41.02-149.55-61.52c4.42-5.22,9.89-8.85,16.38-10.98C374.74,995.25,434.87,1018.89,490.01,1057.55z"/>
		<path class="st22" d="M581.96,944.13c-31.63,21.57-21.22,72.58-61.62,88.01c-12.86-25.4-2.15-49.07,5.19-73.01
			c2.85-7.67,6.64-14.87,11.64-21.39c3.64-3.96,7.89-7.2,12.65-9.76C563.83,926.77,574.22,932.81,581.96,944.13z"/>
		<path class="st24" d="M601.69,833.91c3.1,20.82,6.19,41.64,9.27,62.47c-25.49-3.71-34.23-21.01-35.81-44.13
			C580.29,840.77,588.2,833.31,601.69,833.91z"/>
		<path class="st24" d="M491.53,932.19c4.45-3.84,8.91-7.67,13.37-11.51c15.25,0.88,31.57-4.84,44.94,7.32
			c-0.03-0.02-0.12,4.08-0.12,4.08c-4.39,4.24-9.41,7.49-15.08,9.78C517.99,948.76,498.22,969.55,491.53,932.19z"/>
		<path class="st24" d="M628.16,930.64c7.39,1.03,14.78,2.06,22.17,3.09c0.08,8.15,0.17,16.3,0.24,24.45
			C633.75,956.61,626.09,947.58,628.16,930.64z"/>
		<path class="st25" d="M638.65,1008.03c10.84,4.29,15.23,12.26,12.22,23.45c-0.39,1.44-7.74,2.75-8,2.22
			c-2.58-5.22-4.34-10.85-6.33-16.38C637.15,1014.19,637.86,1011.1,638.65,1008.03z"/>
		<path class="st19" d="M201.78,620.48c-0.51-4.52-1.02-9.03-1.54-13.56c0.54-3.18,1.15-6.34,1.84-9.48
			c17.88-16.13-2.49-34.62,3.18-51.51c35.36-12.85,63.37,12.22,95,18.36c27.47,24.95-21.4,49.49-0.31,74.48
			c1.67,34.86,52.88,65.07,39.48,103.67c-12.48,6.88-38.64,0.73-49.97-6.98c-13.66-25.3-59.62-27.58-49.65-69.71
			C232.74,645.96,219.94,630.96,201.78,620.48z"/>
		<path class="st23" d="M289.47,735.47c14.55-1.61,29.09-3.23,43.64-4.84c8.25-4.19,16.1-2.94,23.74,1.69
			c6.88,5.45,11.23,12.34,12,21.25c-1.31,5.55,6.06,19.32,2.07,23.38c-20.87,13.51-32.51,37.73-62.2,42.41
			c-12.4,1.09-23.93-0.43-32.44-10.87C295.77,786.88,291.14,760.91,289.47,735.47z"/>
		<path class="st24" d="M217.41,811.53c-1.43,7.32-2.85,14.64-4.28,21.96c-20.05,17.46-40.04,15-59.99-0.18
			c-1.42-4.39-2.84-8.78-4.29-13.18C169.67,801.2,193.48,805.89,217.41,811.53z"/>
		<path class="st25" d="M201.78,620.48c32.82-1.84,41.98,16.21,38.04,45.27c-24.63-6.94-39.63-25.99-55.36-44.08
			C190.25,621.27,196.02,620.88,201.78,620.48z"/>
		<path class="st10" d="M276.28,808.49c12.72-0.32,25.44-0.64,38.16-0.96c11.26,12.51,11.28,25.14,0.42,37.89
			c-21.26-6.29-42.77-12.11-57.52-30.61C263.63,812.72,269.95,810.6,276.28,808.49z"/>
		<path class="st26" d="M363.16,185.61c-5.41-2.38-10.82-4.76-16.23-7.15c-30.52,1.74-54.58-16.38-81.3-26.41
			c-2.88-3.29-4.18-6.83-3.94-10.6c0.25-3.88,0.75-5.81,1.51-5.81c50.31-80.24,123.99-85.9,163.97-12.6
			c28.84,52.88,12.14,82.08-49.76,86.95c0,0-2.29-2.49-2.29-2.49l1.92-2.78C375.73,195.95,370.44,190.06,363.16,185.61z"/>
		<path class="st13" d="M263.2,135.65c0.59,2.61,1.27,5.2,2.06,7.76c-5.63,15.5-17.47,13.93-29.86,10.89
			c-2.38-1.9-4.75-3.81-7.12-5.73C236.03,133.75,250.18,136.22,263.2,135.65z"/>
		<path class="st13" d="M215.13,159.81c4.38-3.75,8.76-7.51,13.14-11.25c0,0.01,3.23,3.55,3.23,3.55
			c-2.31,7.8-6.44,12.47-15.35,8.95C216.15,161.06,215.13,159.81,215.13,159.81z"/>
		<path class="st24" d="M762.85,820.44c14.32-30.23,28.65-60.47,42.99-90.66c30.32-18.06,58.47-40.77,95.48-44.48
			c-0.76,4.01-1.73,7.99-2.26,12.02c-3.07,23.64-42.66,50.3-9.02,68.39c28.64,15.4,68.93,12.01,86.69-30.11
			c18.95,2.06,47.31-13.63,54.11,10.6c5.7,20.34-16.97,34.13-39.29,37.59c-34.35,23.04-73.89,29.65-113.52,36.03
			c-22.58,4.83-45.64,4.74-68.52,6.58C793.39,828.96,777,833.28,762.85,820.44z"/>
		<path class="st14" d="M875.36,807.34c36.88-16.84,77.41-15.7,116.16-23.55c-13.51,29.99-43.78,41.13-67.36,59.81
			c-16.1,0.66-32.18,1.34-48.27,2.02C865.45,833.01,865.82,820.24,875.36,807.34z"/>
		<path class="st8" d="M373.75,433.95c10.61,12.24,21.22,24.48,31.83,36.72c4.83,38.14-18.1,71.41-19.06,108.63
			c-21.94,10.01-43.96,9.19-66.11,0.89c-10.74-8.12-21.68-16.16-18.78-32.22c3.11-27.45-30.95-19.47-36.68-38.49
			c22.34-23.46,36.31-54.02,62.69-74.05c0,0,3.15-4.56,3.18-4.57C345.14,431.88,359.44,432.91,373.75,433.95z"/>
		<path class="st16" d="M204.27,273.21c-0.38,39.83-0.77,79.65-1.12,119.47c-11.22,0.84-22.47,1.69-33.71,2.55
			c-5.57-12.63-11.15-25.28-16.74-37.93c-6.61-4.88-5.22-12.53-6.66-19.19c-1.41-4.5-2.61-9.06-3.65-13.66
			c-0.23-4.72,0.03-9.42,0.77-14.09c1.69-8.84,3.37-17.68,5.06-26.51c-0.2-3.63,0.46-7.11,1.98-10.41
			c11.82-39.91,23.95-79.62,63.75-102.05c2.5,2.26,4.99,4.52,7.52,6.76C235.5,213.4,222.63,243.8,204.27,273.21z"/>
		<path class="st13" d="M327.64,435.43c-17.99,27.14-12.97,73.77-62.69,74.05c0,0,0.33,0.12,0.33,0.12
			c-11.88-9.87-24.07-9.33-36.48-1.06c-31.32-9.33-62.77-18.23-93.84-28.33c-7.22-2.35-19.31-10.95-18.59-13.03
			c4.38-12.73,16.11-7.53,24.69-5.55c21.87,5.04,43.63,10.87,64.98,17.79c18.2,5.9,34.34,3.17,42.31-13.88
			C265.57,428.68,296.89,433.91,327.64,435.43z"/>
		<path class="st1" d="M301.63,547.97c4.73,7.4,9.46,14.81,14.19,22.21c-3.14,4.7-7.21,5.75-12.23,3.16
			c-32.78-9.13-65.57-18.26-98.34-27.4c-2.05-3.73-2.77-7.7-2.16-11.91C235.93,538.68,268.78,543.32,301.63,547.97z"/>
		<path class="st8" d="M228.8,508.54c12.62-15.75,24.76-14.74,36.48,1.06C253.12,509.24,240.96,508.89,228.8,508.54z"/>
		<path class="st24" d="M726.03,1033.28c-68.98-18.27-28.76-62.85-23.84-98.93c21.62-12.71,34.18-45.22,68.06-31.19
			c1.84,2.37,3.66,4.76,5.49,7.15C763.78,953.16,708.89,978.65,726.03,1033.28z"/>
		<path class="st22" d="M875.36,807.34c0.17,12.76,0.35,25.52,0.53,38.28c-6.83,1.12-13.66,2.24-20.49,3.35
			c-8.75,3.69-17.65,6.23-27.27,3.78c-17.73-9.11-32.23-20.26-26.98-43.6C825.88,808.55,850.62,807.95,875.36,807.34z"/>
		<path class="st14" d="M826.41,845.18c9.64,1.25,19.28,2.5,28.95,3.77c-8.71,43.6-38.41,59.92-79.61,61.32
			c0,0.02,0.82-3.02,0.82-3.02C763.58,862.79,807.49,864.02,826.41,845.18z"/>
		<path class="st23" d="M826.41,845.18c5.84,38.73-49.09,28.66-49.85,62.08c-30.17-5.8-47.56,23.59-74.38,27.06
			c-0.26-4.6-0.53-9.22-0.81-13.84c31.69-14.75,28.85-51.71,47.95-74.57c9.1-6.14,7.47-18.18,14.12-25.66c0,0-0.58,0.18-0.58,0.18
			c12.76-3.77,25.52-7.53,38.28-11.29C809.57,821.17,817.99,833.18,826.41,845.18z"/>
		<path class="st16" d="M216.15,161.06c5.12-2.98,10.23-5.97,15.35-8.95c11.25-2.9,22.49-5.8,33.75-8.7
			c30.4,4.32,61.82,6.26,81.66,35.1c-2.43,2.76-5.05,5.37-7.85,7.8c-44.65,27.29-85.25,17.27-123.6-13.45c0,0-1.52-1.48-1.52-1.48
			C214.57,167.92,215.31,164.48,216.15,161.06z"/>
		<path class="st7" d="M143.15,310.35c0.26,4.73,0.51,9.47,0.77,14.2c0.89,2.36,1.77,4.71,2.66,7.07c-2.19,1.24-4.38,2.49-6.58,3.73
			C125.61,325.08,127.77,316.88,143.15,310.35z"/>
		<path class="st26" d="M148.3,335.07c1.47,7.43,2.94,14.86,4.4,22.26c-3.3,0.42-6.32-0.29-9.05-2.2
			c-1.2-6.63-2.42-13.21-3.64-19.79c0,0.01,1.04-2.08,1.04-2.08C143.47,333.87,145.88,334.47,148.3,335.07z"/>
		<path class="st26" d="M150.18,273.43c1.94,3.98,1.28,7.46-1.98,10.43c-0.7-2.67-1.72-5.31-1.89-8
			C146.27,275.13,148.82,274.24,150.18,273.43z"/>
		<path class="st24" d="M204.24,982.35c-12.78-0.13-25.55-0.26-38.33-0.4c-0.39-4.36-0.78-8.71-1.17-13.07
			c4.65-3.1,9.74-4.7,15.35-4.56c8.19,0.03,16.47-0.73,24.18,3.11C207.55,972.41,207.54,977.38,204.24,982.35z"/>
		<path class="st11" d="M177.85,968.77c-4.36,0.05-8.73,0.1-13.1,0.13c-0.23-3.52-0.31-7.04-0.29-10.55
			c4.2,0.23,8.42,0.47,12.64,0.7c4.6,1.82,6.24,3.86,4.94,6.14C180.68,967.57,179.29,968.77,177.85,968.77z"/>
		<path class="st20" d="M788.26,711.64c-4.3-5.07-8.6-10.13-12.89-15.2C779.67,701.5,783.96,706.57,788.26,711.64z"/>
		<path class="st20" d="M775.77,697.08l-6.16,0.35c0,0-6.08-1.06-6.08-1.06c-0.15-4.15-0.19-8.3-0.13-12.45
			C767.52,688.3,771.65,692.69,775.77,697.08z"/>
		<path class="st18" d="M177.85,968.77c-0.12-3.25-0.36-6.5-0.74-9.73c10.94-1.59,22.12-2.74,27.55-14.68l3.04-2.12l-3.24,1.72
			c-45.96-2.42-7.47-31.66-14.72-46.37c52.61-27.22,94.8,15.39,142.48,21.24c26.63,9,54.89,14.9,79.5,27.76
			c32.3,16.89,56.81,10.49,79.81-14.39c14.22,16.25,30.56-2.53,45.43,2.75c4.52,1.7,6.71,4.21,6.57,7.55
			c-0.16,3.74-0.81,5.61-1.96,5.61c-4,28.77-24.57,53.37-21.19,84.01c-10.14,8.48-20.25,16.95-30.36,25.42
			c-64.46-6.52-118.51-51.74-185.23-49.9c-20.89-8.26-41.32-17.9-63.91-20.96c-9.67-12.42-27-6.88-38-16.18
			C194.53,969.93,186.19,969.35,177.85,968.77z"/>
		<path class="st10" d="M332.2,918.84c-49.34,5.28-94.46-17.67-142.48-21.25c-11.49-5.87-22.97-11.76-34.45-17.65
			c-0.7-15.55-1.42-31.09-2.13-46.63c20,0.06,39.99,0.12,59.99,0.19C232.86,889.79,298.65,881.82,332.2,918.84z"/>
		<path class="st18" d="M215.46,172.86c41.21,4.47,82.41,8.95,123.61,13.43c0.55,13.55,2.08,27.37-10.53,37.19
			c-5.41-1.06-10.65-2.68-15.74-4.76c-57.06-25.84-73.41,24.84-101.26,53.87c-2.42,0.3-4.85,0.51-7.29,0.62
			C208,239.76,211.73,206.31,215.46,172.86z"/>
		<path class="st18" d="M326.02,247.11c-21.58,20.78-67.53,7.76-72.16,52.04c-12.08-9.02-14.43-21.9-14.32-35.79
			c2.05-17.27,7.99-31.61,27.38-35.56c15.63-0.94,30.24,3.59,44.72,8.76C316.79,239.55,321.58,243.09,326.02,247.11z"/>
		<path class="st10" d="M249.8,259.14c1.35,13.33,2.7,26.66,4.06,40c0.01,19.73,0.02,39.44,0.03,59.14
			c-3.34,1.59-6.81,2.82-10.42,3.67C223.01,326.3,212.62,291.25,249.8,259.14z"/>
		<path class="st21" d="M326.02,247.11c-4.08,0.49-8.17,0.73-12.27,0.73c-3.52-4.59-5.91-9.72-7.37-15.32
			c0.38-12.16,2.37-23.11,17.95-23.81c1.4,4.92,2.8,9.83,4.21,14.75C327.7,231.35,326.86,239.23,326.02,247.11z"/>
		<path class="st6" d="M363.16,185.61c4.62,6.36,9.25,12.73,13.88,19.1C372.42,198.36,367.79,191.98,363.16,185.61z"/>
		<path class="st1" d="M452.04,484.69c69.28,29.47,115.29,94.15,185.35,122.43c-4.6,23.58-23.63,30.97-42.78,38.33
			c-29.73,7.33-59.89,5.23-90.03,4.05c-48.12-11.09-99.06-14.25-139.15-48.45c-7.34-19.17,4.07-22.49,19.18-22.66
			c9.05-2.15,17.75-6.07,27.27-5.98c5.96,0.22,11.86,1.31,17.39,2.96c3.16-4.93,17.49,19.76,13.08-4.89
			C437.04,540.77,429.54,511.13,452.04,484.69z"/>
		<path class="st4" d="M415.22,583.73c-11.44-0.64-22.88-1.29-34.31-1.93c0,0,2.49,0.32,2.49,0.32
			c-31.56-44.87,9.5-75.32,22.15-111.44c11.32,0.49,22.6,1,33.88,1.51c4.2,4.16,8.41,8.33,12.62,12.49
			c8.3,32.72-18.24,72.5,20,99.08c6.78,4.71,5.68,10.13-0.78,11.17c-15.79,2.55-32.39,4.83-44-10.92
			C423.35,579.56,419.33,579.67,415.22,583.73z"/>
		<path class="st17" d="M594.35,636.25c14.35-9.7,28.71-19.4,43.05-29.11c10.04,5.09,14.8,13.58,15.69,24.54
			c5.75,8.6,27.75,32.71,23.35,42.25c-7.48,7.51-37.53-6.05-47.57-7.34C612.6,661.92,598.92,654.25,594.35,636.25z"/>
		<path class="st19" d="M659.18,670.51c-2.04-12.93-4.09-25.87-6.11-38.82c6.69,1.11,13.35,2.25,19.99,3.38
			c6.48,11.09,13,22.17,19.51,33.24C682.45,684.43,671.09,681.72,659.18,670.51z"/>
		<path class="st27" d="M324.32,208.72c-3.28,8.82-6.55,17.63-9.83,26.45c-11.72,9.32-24.39,6.28-37.09,2.87
			c-16.55-2.59-25.34,4.96-27.6,21.09c-16.26,33.4-8.24,68.29-6.35,102.81c-22.17,16.66-28.83,2.42-30.21-16.54
			c-1.76-24.19-1.23-48.54-1.69-72.82C233.17,185.53,236.15,183.84,324.32,208.72z"/>
		<path class="st23" d="M659.18,670.51c11.12-0.72,22.23-1.43,33.37-2.17c14.99,14.41,8.04,27.62-5.27,35.94
			c-54.03,33.79-99.66,80.62-160.61,103.61c-14.24-17.07,5.43-36.25-3.38-53.71c17.15-30.91,45.24-53.86,61.7-85.32
			c12.26-10.01,26.2-10.15,40.7-6.94C636.86,664.78,648.02,667.65,659.18,670.51z"/>
		<path class="st10" d="M524.11,759.33c48.74,13.66-16.65,33.34,2.56,48.56c-42.75,27.57-70.53,90.63-138.49,58.46
			c5.18-16.47-6.71-65.37-24.12-99.14c1.36-3.37,3.08-6.55,5.17-9.53C420.92,752.27,472.6,747.89,524.11,759.33z"/>
		<path class="st11" d="M364.06,767.22c2.25,3.31,3.73,8.09,6.85,9.72c79.37,41.44,79.4,41.38,17.28,89.4
			c-25.65-2.75-51.05-6.38-73.33-20.92c-0.14-12.63-0.27-25.25-0.41-37.88C332.81,796.35,315.06,740.7,364.06,767.22z"/>
		<path class="st24" d="M763.44,820.26c0.31,11.3-2.06,21.13-14.1,25.66C750.91,835.65,752.6,825.44,763.44,820.26z"/>
		<path class="st24" d="M241.26,982.58c23.85,1.53,45.41,8.86,63.49,25.07c-4.9-0.07-9.82-0.15-14.75-0.23
			c-22.5-3.43-44.41-8.5-62.97-22.79C230.82,977.28,235.56,976.59,241.26,982.58z"/>
		<path class="st0" d="M241.26,982.58c-4.74,0.67-9.47,1.34-14.22,2.03c-7.62-0.74-15.22-1.5-22.81-2.26
			c-0.57-3.94-1.02-7.88-1.36-11.84C217.1,969.96,231.19,969.87,241.26,982.58z"/>
		<path class="st21" d="M541.55,948.12c-1.52-4.4-3.04-8.79-4.59-13.17c4.24-0.94,8.51-1.9,12.76-2.86
			C546.99,937.43,544.27,942.77,541.55,948.12z"/>
		<path class="st17" d="M383.4,582.13c0,0-2.31-0.31-2.4-0.32c-11.17,2.18-12.17,9.67-10,18.83c-8.45,22.22-30.84,23.99-48.26,33.13
			c-10.81,4.49-21.75,8.16-33.64,4.5c-21.06-6.02-34.29-15.26-11.76-35.17c10.11-8.94,24.21-13.86,26.25-29.77
			c4.09-1.03,8.16-2.08,12.24-3.14C338.34,574.16,360.87,578.14,383.4,582.13z"/>
		<path class="st28" d="M289.09,638.27c8.18-3.49,16.35-6.99,24.53-10.49c21.56,28.94,37.07,60.78,45.94,95.82
			c-1.36,5.72-4.53,10.07-9.76,12.85c-5.58-1.94-11.16-3.87-16.72-5.82C308.69,704.49,290.42,675.41,289.09,638.27z"/>
		<path class="st28" d="M524.11,759.33c-51.85,17.32-103.51,17.64-154.92-1.65c-6.43-7.07-12.9-14.16-19.38-21.23
			c2.37-2.53,4.76-5.07,7.14-7.61c30.76-17.46,60.64,3.03,90.97,1.87c9.93,0.39,19.91,0.58,29.69-1.76
			c4.42-1.58,8.92-2.98,13.34-4.57c6.4-2.82,12.73-5.79,18.82-9.32c3.92-2.82,7.93-5.42,11.87-8.17
			c13.52-8.7,19.17-23.27,27.14-36.18c9.87-12.77,18.32-29.98,38.21-23.6c12.29,3.94,9.65,15.86,5.58,25.87
			C581.13,710.79,554.24,736.34,524.11,759.33z"/>
		<path class="st13" d="M148.3,335.07c-2.36-0.81-4.78-1.4-7.25-1.78c-0.41-3.4,0.54-6.3,2.87-8.74
			C147.56,327.15,149.02,330.66,148.3,335.07z"/>
		<path class="st0" d="M427.84,973.84c2.42,2.7,6.71,5.33,6.64,7.83c-0.22,7.09-5.68,9.93-11.78,7.32
			c-2.44-1.05-4.72-6.91-3.94-9.71C419.43,976.85,424.54,975.66,427.84,973.84z"/>
		<path class="st19" d="M283.13,949.6c7.41-0.5,15.53-1.72,18.01,7.82c0.69,2.66-1.56,8.4-3.63,9.05
			c-8.44,2.68-13.83-2.01-17.02-9.68c-2.67-2.34-5.35-4.68-8.02-7.01C276.02,949.72,279.58,949.66,283.13,949.6z"/>
		<path class="st21" d="M204.45,943.96c4.56-7.8,11.51-10.89,20.09-8.91c1.65,0.38,2.4,4.66,3.56,7.14
			c-7.82,0.72-15.65,1.45-23.46,2.17C204.66,944.36,204.45,943.96,204.45,943.96z"/>
		<path class="st21" d="M283.13,949.6c-0.47,2.56-1.36,4.96-2.65,7.2c-5.21-1.52-10.43-3.03-15.65-4.54
			C269.71,942.96,276.88,949.44,283.13,949.6z"/>
		<path class="st11" d="M277.41,238.04c12.37-0.96,24.73-1.92,37.09-2.88c-0.25,4.23-0.49,8.45-0.74,12.67
			C300.7,248.04,287.42,249.1,277.41,238.04z"/>
		<path class="st21" d="M463.76,744.36c-37.47,7.59-71.29-10.17-106.87-15.47c-17.74-32.31-46.18-60.01-43.26-101.13
			c19.07-9.03,38.17-18.08,57.31-27.12c42.65,11.72,85.25,23.43,127.86,35.14c5.34,1.3,8.92,4.48,10.5,9.78
			c0.72,5,0.55,10.04-0.22,15c-1.66,9.35-2.76,18.74,1.05,27.96c3.36,6.43,6.86,12.76,9.26,19.62c0.83,5.22-0.86,9.43-5.01,12.67
			l-0.18,0.23c-6.65,7.31-18.17,5-24.72,12.51l0.11-0.06C482.49,740.7,471.55,738.79,463.76,744.36z"/>
		<path class="st19" d="M501.16,643.8c-0.7-2.69-1.47-5.37-2.33-8.03c31.87,0.15,63.75,0.29,95.58,0.45
			c10.39,8.57,20.84,17.12,31.29,25.68c-8.57,11.17-21.64,8.74-33.14,11.05c-30.82-48.75-24.75,18.46-41.7,13.29
			c-4.5,2.43-9.02,2.46-13.57,0.15c-7.22-6.21-12.22-14.35-18.53-21.36C512.59,658.22,507,650.91,501.16,643.8z"/>
		<path class="st8" d="M415.22,583.73c4.19-7.32,8.18-6.41,12.04,0.29C423.25,583.91,419.23,583.82,415.22,583.73z"/>
		<path class="st0" d="M543.08,683.66c2.75,0.37,5.35,1.21,7.79,2.56c-0.94,23.41-14.04,33.93-36.49,34.58
			c-0.67-3.03-0.9-6.1-0.7-9.19c-2.36-4.33-3.62-8.96-3.81-13.9c1.36-4.81,3.67-9.08,7.06-12.78c3.76-3.36,8.11-5.62,12.95-6.99
			C534.97,678.2,539.38,680.12,543.08,683.66z"/>
		<path class="st0" d="M463.76,744.36c6.22-9.27,15.53-11.24,25.81-10.89C484.05,744.4,474.36,745.45,463.76,744.36z"/>
		<path class="st0" d="M489.47,733.54c5.04-10.5,14.21-12.84,24.72-12.51C509.54,732.28,500.12,734.13,489.47,733.54z"/>
		<path class="st25" d="M501.16,643.8c10.54,2.26,21.81,3.23,26.89,15.17c5.77,8.69,6.18,17.26-0.55,25.67l0.23-0.23
			c-34.97,10.35-33.44-8.75-26.19-32.47C498.95,649.35,498.82,646.63,501.16,643.8z"/>
		<path class="st17" d="M501.53,651.95c-1.95,19.44,5.52,31.27,26.19,32.47c2.08,10.62-5.23,14.42-12.98,17.91
			c-4.18-0.49-8.23-1.52-12.17-3.01C484.33,683.92,482.39,668.17,501.53,651.95z"/>
		<path class="st19" d="M502.57,699.32c4.07,0.99,8.15,1.99,12.2,2.99c0.04,3.15-0.31,6.23-1.08,9.28
			C509.97,707.51,506.27,703.42,502.57,699.32z"/>
		<path class="st17" d="M527.5,684.65c0.18-8.56,0.35-17.12,0.54-25.68c5.01,8.24,10.01,16.48,15.03,24.71
			C537.88,683.99,532.69,684.32,527.5,684.65z"/>
	</g>
</g>
</svg>
