<?xml version="1.0" encoding="utf-8"?>
<!-- Generator: Adobe Illustrator 23.1.0, SVG Export Plug-In . SVG Version: 6.00 Build 0)  -->
<svg version="1.1" id="Calque_1" xmlns="http://www.w3.org/2000/svg" xmlns:xlink="http://www.w3.org/1999/xlink" x="0px" y="0px"
	 viewBox="0 0 1125 1006.14" style="enable-background:new 0 0 1125 1006.14;" xml:space="preserve">
<style type="text/css">
	.st0{fill:#D2AE00;}
	.st1{fill:#DAA26D;}
	.st2{fill:#B3804F;}
	.st3{fill:#EFCB02;}
	.st4{fill:#F9F104;}
	.st5{fill:#B69201;}
	.st6{fill:#C9A500;}
	.st7{fill:#FCB7D9;}
	.st8{fill:#DDB700;}
	.st9{fill:#FCD898;}
	.st10{fill:#B3AAA1;}
	.st11{fill:#E49C45;}
	.st12{fill:#F8BF8A;}
	.st13{fill:#0F0D0B;}
	.st14{fill:#E0B382;}
	.st15{fill:#703C1B;}
	.st16{fill:#161616;}
	.st17{fill:#DCD8C9;}
	.st18{fill:#A7774D;}
	.st19{fill:#C4BCB5;}
	.st20{fill:#8B8B8B;}
	.st21{fill:#6163E9;}
	.st22{fill:#F5F1ED;}
	.st23{fill:#9494E9;}
	.st24{fill:#DA73A1;}
	.st25{fill:#43413D;}
	.st26{fill:#7C7C7C;}
	.st27{fill:#85664F;}
	.st28{fill:#B6607E;}
</style>
<g>
	<g>
		<path class="st0" d="M994.29,492.78c0.76,7.07,1.52,14.15,2.29,21.22c-30.65,22.87-59.31,10.73-87.07-5.8
			c-16.69-9.94-30.75-24.15-39.32-41.17c-39.04-77.52-96.04-125.87-186.21-137.97c-33.21-4.46-55.34-6.71-73.47,22.67
			c-10.52,4.93-21.17,4.88-32,1.15c-13.28-6.51-23.04-16.09-26.97-30.76c6.89-46.44,39.03-59.57,80.48-62.65
			c76.2-5.65,95.04-37.33,66.16-109.21c-6.85-17.04-20.41-33.26-5.17-52.41c44.68,32.88,82.07,72.22,107.83,121.84
			c-2.08,37.43,22.52,56.89,50.1,74.35c9.51,14.44,20.15,28.27,28.3,43.43c21.33,39.66,39.33,81.03,82.17,104.55
			c12.8,7.03,23.55,20.81,26.03,37.65C988.37,484.75,992.23,488.29,994.29,492.78z"/>
		<path class="st1" d="M727.3,981.84c-30.43,15.75-63.08,10.15-95.18,9.88c-19.69-10.23-40.41-7.05-61.09-4.77
			c-44.94,4.96-90.07,8.5-133.01-9.6c-15.13-6.38-26.01-3.74-38.16,5.29c-15.59,11.58-33.09,18.92-53.19,17.83
			c-23.17-1.9-48.04,1.91-65.19-19.72c0.41-38.55,39.06-56,50.27-90.6c5.61-17.32,32.91-5.15,47.54,8.54
			c4.35,9.19,9.18,17.76,22.1,12.88c9.52-1.9,18.98-2.98,28.62-3.35c76.12-3.17,149.39-22.02,222.98-39.16
			c43.25-8.32,79.87-39.86,127.24-34.57c31.29,3.49,53.33,13.1,49.07,50.04c-1.82,8.29-5.73,15.39-12.34,20.78
			C775.12,916.73,732.41,927.24,727.3,981.84z"/>
		<path class="st2" d="M819.39,891.39c-5.93-42.55-49.75-59.79-95.54-34.09c-23.28,13.07-45.13,25.33-72.52,23.14
			c-18.69,0.96-37.56,3.01-54.16-8.83c-10-25.75,10.9-31.33,26.3-40.56c38.03-12.8,41.85-49.96,56.38-79.52
			c25.54-19.84,46.17-49.38,84.91-43.38c3.01,1.64,6.04,3.47,7.98,6.22c42.2,59.93,42.18,59.94,103.33,20.87
			c22.65-5.44,44.84-17.25,68.73-5.01c20.65,36.68-5.16,55.11-30.47,70.4c-54.26,32.78-54.9,31.86-22.92,85.13
			c4.75,7.91,7.3,15.51,1.65,23.92c-6.45,2.27-12.89,4.53-19.34,6.8C850.5,919.16,833.18,909.11,819.39,891.39z"/>
		<path class="st3" d="M514.69,6.43c49.37,10.84,95.7,28.65,136.34,59.5c27.16,63.97,7.52,134.42-53.63,185.21
			c-24.01,19.95-48.37,39.91-75.97,55.16c-12.98,5.91-26.05,2.6-39.13,0.38c-25.36-7.17-47.73-19.04-63.38-41.22
			c-3.17-11.62,2.43-19.57,11.04-26.24c6.53-3.71,13.59-4.88,20.96-4.24c14.49,1.95,29.14,7.59,43.24-1.32
			c8.69-7.55,7.54-17.27,5.97-27.12c-0.36-2.16-0.56-4.26-0.88-6.43c-0.23-4.52,0.33-8.87,1.47-13.21
			c2.19-6.47,5.23-12.5,8.74-18.31c12.89-17.75,31.64-32.22,31.7-57.15c16.64-29.3,12.11-54.37-14.01-76.02
			C518.5,28.24,507.11,21.09,514.69,6.43z"/>
		<path class="st1" d="M893.05,909.7c-8.33-27.02-48.62-33.39-43.14-70.69c3.27-22.27,5.19-40.91,33.01-42.34
			c38.55-1.98,57.87-24.5,63.84-60.85c6.51-10.26,15.98-10.18,26.17-7.57c17.25,13.65,31.24,8.37,44.95-6.5
			c11.71-12.71,23.62-25.43,37.51-35.15c-0.45,0.29-2.45-1.96-2.81-1.54c-11.99,10.35-25.62,14.3-40.76,14.08
			c-18.03-4.54-38.42-6.11-40.02-31.49c37.04-30.03,77.14-52.45,126.84-50.98c26.66-14.05,24.41,5.66,23.58,21.1
			c-3.12,57.99-68.1,143.74-123.58,159.05c-23.72,6.54-33.01,17.19-37.06,41.36C955.3,875.68,938.13,907.24,893.05,909.7z"/>
		<path class="st4" d="M514.69,6.43c3.33,20.49,26.93,17.2,37,32.77c18.38,28.39,26.09,52.17-4.67,75.77
			c-24.91,8.95-45.01,30.31-74.05,28.81c-11.57-2.63-22.8-6.06-32.38-13.46c-4.57-5.15-7.17-11.27-8.75-17.82
			c-2.48-6.72-1.45-15.62-11.17-17.77c-19.51,5.72-30.17,25.17-49.31,31.06c-11.22,3.81-22.43,7.74-34.43,3.43
			c-8.72-7.67-10.11-19.78-17.27-28.35c-4.93-3.81-10.07-7.36-14.84-11.37c-2.05-3.58-4.35-7-6.96-10.21
			C325.9,48.86,362.07,33.17,401,22.5c5.34-5.89,12.61-5.46,19.59-6.01c4.35-1.33,8.7-2.66,13.06-3.99
			c18.9-12.8,40.77-1.27,60.48-7.39C500.98,5.55,507.84,5.99,514.69,6.43z"/>
		<path class="st5" d="M995.35,555.49c-0.71,13.47-1.43,26.94-2.14,40.41c-13.48,20.62-37.15,23.84-57.06,33.54
			c-14.39,4.29-28.68,10.3-43.98,3.68c-37.62-74.04-89.47-135.61-159.52-181.14c-5.9-4.14-10.78-9.25-14.48-15.44
			c-4.43-7.98-8.03-16.46-13.79-23.71c-10.83-15.43-30.86-22.08-38.69-40.4c2.22-53.41,37.14-33.97,57.76-20.76
			c37.85,24.25,80.29,46.94,107.54,81.59C875.63,490.02,928.41,531.06,995.35,555.49z"/>
		<path class="st6" d="M995.35,555.49c-70.22,2.25-116.58-38.55-153.02-90.72c-33.9-48.53-89.42-67.88-131-105.76
			c-12.43-11.32-41.73-21.59-38.78,18.22c-3.83,3.53-8.38,5.21-13.55,5.37c-20.77-5.19-47.81-1.29-49.87-33.97
			c-1.77-58.76,28.94-49.7,67.05-34.45c30.3,12.13,61.18,25.46,95.69,22.28c21.98-2.03,34.95,11.8,45.94,28.8
			c17.92,27.72,38.24,54.04,54.42,82.71c27.79,49.23,66.72,74.45,124.35,66.02C996.17,527.83,995.76,541.66,995.35,555.49z"/>
		<path class="st7" d="M126.97,660.65c-42.16,10.01-13.12-19.38-39.44-48.79c-22.13-16.74,9.86-69.95,32.91-82.78
			c22.63-12.6,44.93-24.51,61.81-44.61c21.18-12.49,42.77-23.89,68.39-23.78c5.56,0.14,10.94,1.21,16.19,3.01
			c5.23,2.09,9.53,5.43,12.96,9.89c18.7,43.11-7.73,76.68-26.21,110.17c-25.62,46.42-55.11,91.02-111.56,106.1
			c-5.63-0.62-10.69-2.67-15.21-6.08C121.96,676.04,121.83,668.32,126.97,660.65z"/>
		<path class="st8" d="M515.64,304.07c0.75-24.62,25.71-28.03,38.97-36.45c75.48-47.88,106.66-114.2,96.42-201.69
			c10.76,7.55,21.53,15.09,32.29,22.64c3.8,1.09,6.27,3.57,7.61,7.24l2.07,2.04c-0.32,36.92,36.49,60.11,32.97,100.54
			c-4.64,53.24-21.01,76.46-75.13,74.23c-43.68-1.8-77.27,7.31-93.43,51.73C533.3,338.56,523.09,324.15,515.64,304.07z"/>
		<path class="st9" d="M5.21,911.31c-15.4-42.36,36.66-64.55,31.09-103.97c18.41-16.75,39.89-6.41,60.19-6.99
			c65.24,7.74,128.2,27.88,193.59,35.04c14.49,3.75,29.59,6.84,30.46,26.31c-10.56,24.53-33.01,20.82-53.22,22.34
			c-36.63,2.76-71.67-10.79-108.01-10.49c-8.06-0.15-16.01-1.42-23.72-3.52c-8.91-0.49-14.52-10.92-24.61-8.33
			c9.58,5.45,14.28,14.01,15.78,24.8C108.7,931.26,65.03,940.12,5.21,911.31z"/>
		<path class="st10" d="M180.26,356.73c-47.32-7.17-51.67-15.98-30.78-62.44c3.23-3.91,7.38-6.99,10.14-11.32l-0.91,0.55
			c14.89-9.05,33.55-11.8,44.94-26.92c4.92-2.79,10.08-4.64,15.6-5.79c60.87-5.88,120.82-2.94,178.35,19.75
			c20.43,8.06,44.98,14.34,36.21,46.03c-12.52,11.35-28.31,13.54-43.08,9.61c-42.55-11.31-84.2-3.38-126.02,2.8
			C231.81,323.63,207.11,343.48,180.26,356.73z"/>
		<path class="st11" d="M284.6,976.72c19.53,12.44,41.19,18.1,64,20.08c2.97,2.24,3.89,4.37,2.75,6.4c-1.1,1.97-2.18,2.95-3.25,2.95
			c-27.98-0.7-55.96-1.4-83.93-2.11c-6.82-4.37-14.83-3.65-22.31-5.19c-44.82-26.8-94.12-25.97-144.32-28.14
			c-35.12-1.52-78.64-0.09-93.13-47.73c40.71-4.1,82.22,4.97,122.49-9.19c15.42-5.42,30.11,3.02,43.33,11.61
			C199.71,961.68,251.67,948.07,284.6,976.72z"/>
		<path class="st4" d="M211.12,187.95c16.05-41.92,42.33-75.84,79.26-101.46c4.39,3.09,8.2,6.78,11.46,11.06
			c8.79,19.98,7.61,41.95,12.55,62.76c0.95,8.57,0.16,16.97-2.11,25.28c-28.57,72.45-28.57,72.45-92.59,60.87
			C198.48,229.63,203.79,208.93,211.12,187.95z"/>
		<path class="st12" d="M936.61,618.73c18.87-7.61,37.73-15.22,56.6-22.83c25.1-2.01,50.2-5.63,75.28-5.42
			c14.95,0.13,37.23-2.01,30.14,26.19c-40.87,18.53-81.75,37.06-122.62,55.6c-21.43,15.2-42.81,15.56-56.89-7.74
			C907.46,645.23,916.47,628.59,936.61,618.73z"/>
		<path class="st13" d="M180.26,356.73c14.72-30.11,35.59-49.04,72.05-39.66c10.72,4.8,22.4,8.23,28.33,19.88
			c3.91,8.79,4.61,17.94,2.94,27.32c-1.73,6.49-4.88,12.04-10.84,15.52c-3.67,2.24-4.7-2.25-7.25-2.98
			c-0.74,5.33,5.47,7.01,6.15,11.68c1.75,9.53-0.09,18.02-6.74,25.29c-19.13,10.58-33.71,28.12-54.8,35.73
			c-10.9,2.26-20.44-0.69-28.97-7.49C177.91,413.61,167.96,385.28,180.26,356.73z"/>
		<path class="st12" d="M87.53,805.58c-16.69,11.86-34.32-4.02-51.22,1.76c13.37-46.55,51.74-84.23,48.5-136.67
			c1.78-0.77,3.55-1.55,5.33-2.34c7.61,0.69,12.68,8.01,20.69,7.8c3.97,0.33,7.51,1.68,10.79,3.85c4.72,7.44,14.67,6.19,20.2,12.27
			c1.07,4.23,0.79,8.33-0.79,12.38c-4.77,7.15-10.82,13.16-16.83,19.2c0.4,4.13-12.74,2.29-4.18,10.02
			c1.59,4.23,2.07,8.48,1.4,12.93C113.77,768.51,106.84,790.63,87.53,805.58z"/>
		<path class="st2" d="M348.1,1006.14c0.05-3.12,0.21-6.24,0.5-9.35c33.42-1.84,46.67-43.89,69.95-45.2
			c20.44-1.15,42.78,30.75,71.44,32.1c27.54,1.3,54.9,2.82,82.65-4.57c20.05-5.34,44.88-15.46,59.48,12.59
			c-41.5,1.12-83.11,4.7-124.47,2.76C453.76,991.95,400.87,996.53,348.1,1006.14z"/>
		<path class="st14" d="M727.3,981.84c-16.02-53.12,15.08-81.57,86.73-79.31c7.02,15.34,6.21,29.2-7.68,40.58
			C784.88,965.98,760.99,983.9,727.3,981.84z"/>
		<path class="st1" d="M181.12,442.01c8.88,0.96,17.77,1.92,26.65,2.88c5.26,20.8-8.5,33.98-19.38,48.3
			c-21.15,16.18-37.31,38.28-65.77,45.71c-13.95,3.64-25.05,18.64-33.24,36.38c-1.85,36.58-3.33,62.02-16.92,51.31
			c-15.33-12.08,8.92-75.1,17.91-87.07c7.89-10.51,19.69-22.88,31.38-24.87C164.25,507.43,174.17,476.6,181.12,442.01z"/>
		<path class="st12" d="M167.47,934.97c-22.18-10.07-43.21-12.25-68.56-5.73c-30.54,7.85-64.04,10.67-94.5-6.27
			c0.27-3.89,0.54-7.78,0.81-11.67c24.01,0.1,48.14-1.31,71.99,0.67c31.78,2.63,44.87-10.01,39.83-41.43
			c2.01-1.34,4.02-2.69,6.02-4.04c17.47,3.33,29.99,15.16,43.59,25.23c3.76,3.23,6.73,7.1,9.15,11.41
			c2.78,7.07,3.25,14.3,1.44,21.67C175.38,929.53,172.11,932.91,167.47,934.97z"/>
		<path class="st15" d="M806.34,943.11c2.56-13.53,5.12-27.05,7.68-40.58c1.79-3.71,3.58-7.43,5.37-11.14
			c21.79,0.39,36.49,16.15,54.32,25.11C864.13,957.95,837.97,957.45,806.34,943.11z"/>
		<path class="st16" d="M62.84,661.37c-8.21-6.18-16.47-12.3-24.61-18.56c-18.12-13.92-8.39-30.55,5.71-23.07
			c19.49,10.34,46.79-57.13,54.04,6.84c5.74,15.09,0.42,26.46-11.91,35.48C78.2,666.05,70.46,665.81,62.84,661.37z"/>
		<path class="st6" d="M850.92,294.05c-50.13-4.56-67.95-31.01-50.1-74.35C823.2,240.65,840.41,265.09,850.92,294.05z"/>
		<path class="st3" d="M211.12,187.95c-0.06,20.05,2.19,39.63,11.69,57.74c0.57,15.88-16.21,9.21-21.95,16.89l0.34-0.41
			c-6.4,5.37-9.63,3.87-9.7-4.48C191.51,232.61,194.01,208.22,211.12,187.95z"/>
		<path class="st13" d="M86.39,660.61c3.86-11.34,7.72-22.68,11.58-34.02c13.23,7.5,19.51,18.94,19.36,34.05
			c-3.18,3.59-7.16,5.82-11.81,6.9c-4.68-0.22-9.27-1.02-13.74-2.46C89.99,663.6,88.19,662.11,86.39,660.61z"/>
		<path class="st17" d="M191.51,257.7c3.23,1.49,6.47,2.98,9.7,4.48c-6.65,22.08-24.2,22.46-42.5,21.35
			C169.64,274.91,180.58,266.3,191.51,257.7z"/>
		<path class="st3" d="M494.13,5.12c-18.87,13-40.37,4.58-60.48,7.39C452-4.74,473.52,3.91,494.13,5.12z"/>
		<path class="st16" d="M107.47,660.65c3.29-0.06,6.58-0.06,9.86-0.01c3.21,0.23,6.42,0.23,9.64,0.02
			c2.79,6.28,5.58,12.57,8.38,18.86c-5.65,5.48-11.97,6.41-18.96,2.79c-2.32-2.38-4.94-4.36-7.86-5.95
			C101.32,671.57,101.22,666.32,107.47,660.65z"/>
		<path class="st3" d="M420.59,16.5c-6.53,2-13.06,4-19.59,6.01C406.03,15.59,412.55,13.56,420.59,16.5z"/>
		<path class="st13" d="M62.84,661.37c7.85-0.25,15.7-0.51,23.55-0.76c0,0,1.25,1.26,1.25,1.26c2.89,2.36,3.77,4.61,2.66,6.76
			c-1.09,2.09-2.14,3.14-3.18,3.14l-2.31-1.11C76.43,670.06,67.7,670.29,62.84,661.37z"/>
		<path class="st18" d="M241.86,998.85c8.59-3.21,16.17-2.11,22.31,5.19C255.88,1005.95,248.37,1004.56,241.86,998.85z"/>
		<path class="st0" d="M690.93,95.82c-2.54-2.41-5.08-4.83-7.61-7.24C685.86,90.99,688.4,93.4,690.93,95.82z"/>
		<path class="st6" d="M994.29,492.78c-2.29-4.36-4.57-8.73-6.86-13.09C989.72,484.05,992,488.41,994.29,492.78z"/>
		<path class="st4" d="M290.38,86.48c2.49-2.4,4.99-4.79,7.48-7.19c4.01,3.35,8.02,6.7,12.03,10.05c-2.59,4.61-6.48,7.46-11.66,8.54
			C295.61,94.09,292.99,90.28,290.38,86.48z"/>
		<path class="st17" d="M159.62,282.97c-3.38,3.77-6.76,7.55-10.14,11.32C152.86,290.52,156.24,286.75,159.62,282.97z"/>
		<path class="st19" d="M609.13,348.64c12.82,18.29,37.76,15.32,52.64,30c21.83,15.12,13.18,23.18-6.64,28.73
			c-5.11,0.31-10.16-0.13-15.18-1.04c-10.08-2.31-20.25-4.17-30.55-5.62c-28.34-11-88.68-26.53-80.54-73.42
			c11.89-4.58,44.39,16.26,55.32,18.66C592.5,346.85,600.81,347.75,609.13,348.64z"/>
		<path class="st17" d="M584.18,345.96c-15.56,2.1-31.13,4.19-46.69,6.29c-11.6,4.13-23.1,4-34.55-0.81
			c-13.45-8.09-23.05-19.09-26.41-34.84c-0.63-8.05,1.68-15.08,7.39-20.89c10.57,2.79,21.14,5.57,31.72,8.36
			c13.92,6.76,27.85,13.52,41.77,20.28C566.33,331.56,575.26,338.76,584.18,345.96z"/>
		<path class="st12" d="M284.6,976.72c-42.45-4.35-88.72,1.98-117.13-41.75l2.59-2.34c16.75-16.62,38.41-12.08,58.68-13.79
			c9.81-0.83,28.56,0.48,27.21-5.7c-3.05-13.95-19.48-6.81-30.4-7.79c-18.3-1.65-37.46,9.92-55.01-3.68l-1.23-1.21
			c-9.17-12.3-27.13-20.09-20.74-40.38c41.2-7.62,79.97,14.86,121,9.75c16.18-2.01,34.57,5.56,47.17-11.3
			c8.19-8.7,18.9-11.06,30.17-12.09c8.35-0.84,16.71-0.81,25.1-0.29c22.66,2.59,44.93,6.36,62.94,22.2
			c11.9,22.17,2.56,38.82-13.99,53.57c-10.11-0.05-20.22-0.11-30.33-0.16c-6.3-0.5-9.9-4.02-11.27-10.05
			c-22.93-20.07-42.49-38.7-45.86,14.38C331.92,950.87,293.23,951.81,284.6,976.72z"/>
		<path class="st14" d="M420.97,921.92c3.74-17.15,7.49-34.31,11.23-51.46c14.57-16.69,34.48-13.3,53.22-14.3
			c7.69-0.07,15.41,0.11,23.07,0.46c4.87-0.11,9.79,0.14,14.66,0.41c7.08,0.09,14.19,0.48,21.28,0.74
			c6.89-0.04,13.79,0.2,20.69,0.41c4.58-0.08,9.13,0.26,13.68,0.79c6.93,0.88,13.2,3.44,18.82,7.61
			c18.26,3.24,37.43,2.92,53.7,13.86C576.56,905.44,500.31,922.28,420.97,921.92z"/>
		<path class="st2" d="M379.36,911.71c3.76,3.35,7.52,6.7,11.27,10.05c-4.04,5.18-9.24,10.66-15.36,5.1
			C368.95,921.11,373.91,915.73,379.36,911.71z"/>
		<path class="st15" d="M732.89,441.56c75.32,43.87,138.02,98.69,162.33,186.85c-15.55,30.59-11.76,63.78-12.84,96.35
			c-1.57,7.61-5.84,13.73-10.71,19.51c-14.81,21.82-34.18,45.56-60.64,38.58c-32.92-8.69-39.3-42.8-44.14-73.49
			c-2.87-15.31,7.06-24.5,16.51-33.63c24.88-24.04-18.2-2.98-10.41-15.64c-10.3-15.49-26.58-28.53-20.4-50.57
			c38.4-21.3-5.15-33.93-5.55-51.16C748.22,518.7,720.63,482.52,732.89,441.56z"/>
		<path class="st13" d="M776.28,659.65c9.85-2.52,19.61-5.57,29.59-7.33c4.66-0.82,12.6-0.84,14.11,1.71
			c4.38,7.37-2.54,11.67-8.06,14.79c-18.04,10.23-34.01,22.61-45.04,40.55c-34.27,5.04-52.78,35.74-81.39,49.99
			c-12.82,3.27-24.09-1.34-35.23-6.77c-27.28-19.31-55.5-27.21-86.09-7.09c-32.37,19.52-64.07,21.4-95.93-1.81
			c-24.86-18.11-51.59-12.96-78.77-4.84c-32.29,9.64-61.48,7.6-78.54-27.59c2.86-44.63,33.27-50.63,68.95-49.24
			c20.52,13.14,41.47,15.2,62.92,1.81c4.58-1.28,9.23-1.89,13.98-1.95c80.51,29.75,112.34,24.2,155.58-27.31
			c12.14-14.6,25.76-12.9,40.09-3.71c10.02,7,18.28,16.11,27.99,23.49C711.11,679.59,745.33,641.04,776.28,659.65z"/>
		<path class="st20" d="M567.67,733.26c31.76-26.4,58.66-19,82.18,11.83c2.42,33.5-12.93,63.42-19.18,95.17
			c-9.25,10.98-31.01,6.27-33.03,26.32c-6.23,0.17-12.45,0.33-18.68,0.5c-7.05-1.67-13.66-3.92-15.78-12.03
			c3.64-24.51-16.19-34.9-29.7-49.13c-0.66-4.9,0.6-9.23,3.73-13.04C571.14,781.24,571.14,781.24,567.67,733.26z"/>
		<path class="st15" d="M630.66,840.26c-23.47-37.74,6.45-64.72,19.18-95.17c11.88,4.75,23.76,9.51,35.65,14.26
			C680.69,795.45,674.54,830.64,630.66,840.26z"/>
		<path class="st18" d="M871.67,744.27c0.02-7,0.03-13.99,0.05-20.99c40.03-40.16,65.88-44.52,115.77-19.54
			c4.42,13.63-1.95,22.24-13.31,28.52c-9.14,1.18-18.27,2.37-27.41,3.55C921.73,738.64,896.7,741.46,871.67,744.27z"/>
		<path class="st21" d="M477.15,140.29c24.14-6.08,34.24-50.91,69.86-25.33c25.86,39.1-25.13,40.38-31.36,63.68
			c-4.04,3.67-7.35,7.96-10.44,12.43c-2.54,2.82-5.08,5.64-7.62,8.46c-8.61,22.35-22.95,38.01-47.99,41.24
			c-5.59,0.4-11.19,0.81-16.78,1.21c-2.26-0.44-4.51-0.88-6.79-1.28c-4.04-2.38-7.43-5.47-10.3-9.2c-2.53-3.96-4.54-8.17-6.23-12.55
			c-6.45-20.26-14.16-40.5-3.18-61.69c8.99-10.78,18.2-21.3,33.32-23.3C451.4,140.28,463.69,143.76,477.15,140.29z"/>
		<path class="st22" d="M483.92,295.71c-0.31,8.94-0.61,17.88-0.92,26.82c-18.97,6.13-37.39,10.03-49.3-12.24
			c-36.59-40.25-87.98-39.76-135.58-46.67c-31.8-4.62-64.79-0.99-97.25-1.05c1.58-13.09,16.61-8.7,21.95-16.89
			c53.16,9.29,68.03-27.74,81.06-66.99c15.29,9.45,12.87,25.04,13.94,39.3c29.11,27.1,77.2,11.6,102.9,45.92
			C441.79,274.52,462.85,285.12,483.92,295.71z"/>
		<path class="st4" d="M420.72,263.93c-38.32-6.27-74.17-24.22-113.85-24.14c-0.38,0-1.43-2.52-1.04-3.05
			c1.91-2.63,4.2-4.98,6.35-7.43c4.45-4.1,9.59-6.97,15.38-8.72c32.17-3.34,64.86-10.8,94.2,10.78l-0.54-0.33
			c2.59,3.74,6.1,6.12,10.53,7.14l1.07,3.81C428.79,249.3,424.76,256.61,420.72,263.93z"/>
		<path class="st17" d="M449.61,240.77c13-17.23,24.58-36.12,47.99-41.24c2.43-0.19,4.83-0.05,7.22,0.4
			c7.43,15.31,9.26,30.37-1.94,44.87C483.82,260.66,466.29,256.26,449.61,240.77z"/>
		<path class="st6" d="M502.88,244.81c0.65-14.96,1.29-29.91,1.94-44.87C520.53,215.61,517.53,230.46,502.88,244.81z"/>
		<path class="st6" d="M505.22,191.07c0.23-6.87,4.19-10.61,10.44-12.43C512.18,182.79,508.7,186.93,505.22,191.07z"/>
		<path class="st2" d="M986.35,713.09c-40.94-27.27-77.38-3.87-114.64,10.2c2.82-32.87-25.82-73.53,23.51-94.88
			c13.8-3.23,27.6-6.45,41.39-9.68c-22.84,49.8-21.6,51.49,39.4,53.53c14.06,6.55,28.12,13.09,42.18,19.64
			C1018.16,714.87,1004.23,716.94,986.35,713.09z"/>
		<path class="st12" d="M986.35,713.09c10.61-7.06,21.23-14.12,31.84-21.18c17.28-7.23,34.56-14.45,51.84-21.68l0.85,0.85
			c-9.37,38.71-42.88,58.29-69.18,82.01c-27.92,25.19-22.73-7.55-27.53-20.82C978.23,725.88,982.29,719.49,986.35,713.09z"/>
		<path class="st14" d="M1070.03,670.23c0.94-6.71,1.36-14.13,10.1-15.05c1.82-0.19,6.02,4.01,5.82,5.84
			c-0.94,8.74-8.36,9.14-15.07,10.06L1070.03,670.23z"/>
		<path class="st23" d="M440.88,138.28c-11.29,8.74-19.14,23.31-36.6,21.61c-9.24,16.01-21.09,26.86-41.43,21.08
			c-18.68-10.06-41.85-7.89-59.28-21.47c-10.63-19.77-13.53-40.21-5.35-61.61c3.89-2.85,7.77-5.69,11.66-8.54
			c5-0.29,10-0.58,15-0.87c16.39,10.65-0.64,31.09,12.51,42.66c16.14,6.79,23.31-9.68,35.31-13.61
			c20.15-10.96,30.92-34.3,54.24-41.08c17.15,6.36,6.4,23.68,13.39,34.03c1.13,3.45,2.26,6.9,3.39,10.35
			C448.13,127.52,447.18,133.34,440.88,138.28z"/>
		<path class="st17" d="M440.88,138.28c0.95-5.82,1.9-11.64,2.85-17.45c13.74,2.02,24.1,9.86,33.43,19.46
			C463.76,163.14,451.28,169.49,440.88,138.28z"/>
		<path class="st17" d="M372.71,117.52c-9.38,11.27-9.33,41.39-36.04,18.02c-2.73-2.89-3.25-5.06-1.56-6.52
			c1.27-1.1,2.66-1.66,4.2-1.66C350.44,124.08,361.57,120.8,372.71,117.52z"/>
		<path class="st20" d="M339.31,127.36c-1.09,2.66-1.96,5.39-2.63,8.18c-15.29-12.85-7.69-31.42-11.79-47.07
			C341.22,97.16,333.52,114.76,339.31,127.36z"/>
		<path class="st8" d="M440.33,110.48c-4.46-11.34-8.93-22.69-13.39-34.03C445.64,82.19,441.37,96.97,440.33,110.48z"/>
		<path class="st18" d="M776.28,659.65c-35.57,3.13-70.24,43.14-106.87,2.59c4.66-25.54,46.09-41.78,18.96-75.31
			c-2.33-7.1-2.15-14.13,0.61-21.09c20.53-21.24,16.6-46.92,12.94-72.53c-0.23-17.08-0.93-34.19,2.68-51.09
			c1.47-4.84,3.89-9.16,7.14-13.02c4.72-2.8,9.09-2.3,13.08,1.47c2.69,3.63,5.39,7.26,8.08,10.88
			c20.57,40.04,25.57,83.32,26.51,127.44c7.53,11.53,9.21,23.51,2.73,36.1C749.12,627.88,788.28,637.14,776.28,659.65z"/>
		<path class="st10" d="M645.12,403.26c13.06-3.13,27.25-5.49,16.64-24.62c3.59-0.47,7.19-0.94,10.78-1.41
			c19.46,3.21,33.36,13.98,42.51,31.23c4.6,7.23,5.71,14.28-1.09,20.92l0.77,2.57C683.14,442.76,662.11,427.92,645.12,403.26z"/>
		<path class="st20" d="M713.97,429.38c0.36-6.97,0.72-13.94,1.08-20.92c8.43,5.13,10.82,12.9,9.75,22.2
			C721.2,430.24,717.59,429.81,713.97,429.38z"/>
		<path class="st24" d="M135.15,701.59c0.34-2.16,1.53-3.63,3.57-4.41c-5.92-6.28-5.45-12.04,1.42-17.27
			c71.47-31.05,134.93-129.98,133-207.35c3.53-4.24,7.98-6.98,13.34-8.25c8.02-1.16,15.6,0.12,22.68,4.08
			c25.29,21.8,19.76,48.78,12.39,75.92c-11.16,41.1-36.33,74.58-65.24,103.47c-25.99,25.98-30.65,48.83-8.52,77.48
			c-4.39,15.85-16.86,18.26-30.64,18.56c-13.25-1.06-25.03-5.89-35.39-14.16c-9.9,1.43,3.7-26.36-16.03-12.77
			C152.96,716.93,141.98,713.39,135.15,701.59z"/>
		<path class="st22" d="M188.39,493.19c-0.63-18.95,3.79-35.86,19.38-48.3c16.85-12.55,18.97-52.3,54.86-29.71
			c37.72,26.1,10.53,40.53-10.09,56.14C228.16,469.82,210,486.57,188.39,493.19z"/>
		<path class="st25" d="M252.54,471.31c8.85-17.73,34.28-32.47,10.09-56.14c0.63-12.44,1.26-24.89,1.9-37.33l-0.46,0.46
			c4.75-4.38,9.5-8.75,14.24-13.13c4.76-0.68,8.94,0.56,12.59,3.69c9.3,10.37,17.61,21.42,23.05,34.43
			c4.33,13.87,4.5,28.1,3.74,42.44c-0.38,4.88-1.44,9.61-2.99,14.24c-2.04,4.54-5.15,8.19-9.28,10.97
			c-6.28-1.03-12.56-2.07-18.83-3.1c-7.53-0.2-15.14-1.86-22.46,1.35C260.27,469.9,256.41,470.61,252.54,471.31z"/>
		<path class="st25" d="M140.14,679.91c-0.47,5.76-0.95,11.51-1.42,17.27c-9.73-1.53-20.14-2.04-22.34-14.88
			c6.32-0.93,12.64-1.86,18.96-2.79C137.06,678.24,138.66,678.37,140.14,679.91z"/>
		<path class="st26" d="M264.13,469.19c6.81-11.77,14.61-6.93,22.46-1.35c-4.48,1.57-8.97,3.14-13.45,4.71
			C269.92,472.02,266.92,470.9,264.13,469.19z"/>
		<path class="st10" d="M207.63,735.06c12.32-2.5,26.23,0.63,36.2-10.2c21.4-19.7,45.01-27.78,72.81-13.86
			c22.68,19.84,46.26,24.86,75.58,11.94c21.15-9.32,46.56-22.59,68.15-1.73c33.47,32.34,68.78,32.67,107.3,12.04
			c0.31,1.68,0.68,3.34,0.92,5.03c3.24,22.78,46.67,26.28,33.01,49.8c-11.94,20.55-44.46,4.11-67.08,10.2
			c-18.71-0.34-22.98,18.99-36.01,26.49c-38.45,6.9-72.59-6.64-106.3-22.11c-7.16-4.43-13.71-10.22-22.67-11.05
			c-6.28,0.87-12.36,2.47-18.42,4.32c-18.91,6.43-31.99,14.31-10.61,33.64c8.48,7.66,18.69,15.66,7.2,28.68
			c-10.32,0.09-20.63,0.18-30.95,0.27c-8.51-10.47-20.58-9.43-32.17-9.97c-25.66-17.11-56.11-30.15-57.88-67.66
			c2.69-10.6-3.71-16.32-11.69-21.21C207.43,753.01,203.78,745.14,207.63,735.06z"/>
		<path class="st22" d="M207.63,735.06c3.56,7.89,5.12,17.37,15.64,19.74c5.38,5.92,10.66,11.89,9.77,20.77
			c3.91,33.7,39.89,44.75,51.53,72.99c-66.43-10.9-133.38-19.46-197.06-42.98c4.62-26.51,17.14-49.37,32.78-70.78
			c11.84-15.75,29.68-12.34,45.82-14.35c4.64-1.56,9.19-1.23,13.65,0.72C189.06,725.8,198.35,730.43,207.63,735.06z"/>
		<path class="st12" d="M117.04,870.55c-16.09-6.58-49.14-15.42-44.04-21.55c17.03-20.47,37.41,0.25,55.61,9.69
			c-0.4,6.6-6.48,7.76-10.46,10.94L117.04,870.55z"/>
		<path class="st1" d="M118.14,869.63c3.49-3.65,6.97-7.29,10.46-10.94c6.66,0.46,13.32,0.93,19.98,1.39
			c6.26,13.8,22.97,22.22,20.74,40.38C145.19,901.91,136.95,877,118.14,869.63z"/>
		<path class="st27" d="M433.7,310.3c16.43,4.08,32.87,8.16,49.3,12.24c4.7,10.58,20.84,10.56,22.32,24.12
			c-2.91,36.55-27.16,40.17-56.2,36.49c-36.32-22.12-76.89-28.81-118.33-31.83c-20.6-1.5-41.64-0.48-59.1-14.48
			c-6.46-6.59-12.92-13.17-19.38-19.76C312.07,295.94,373.34,315.36,433.7,310.3z"/>
		<path class="st21" d="M303.57,159.5c21.71,6.14,52.12-17.42,64.93,19.04c4.16,42.88-30.91,42.77-57.25,52.21l0.93-1.45
			c-2.77-16.87-5.54-33.73-8.3-50.6C303.78,172.3,303.67,165.9,303.57,159.5z"/>
		<path class="st18" d="M271.69,336.83c44.67-3.44,88.72,1.28,132.34,10.61c20.49,4.38,39.66,11.45,49.59,32.33
			c2.17,4.71,1.89,9.28-0.82,13.71c-7.43,7.78-15.96,11.34-26.59,7c-24.85-11.13-51.06-16.58-78.16-18.45
			c-21.34-1.29-43.83,2.45-61.51-14.29c-2.8-0.67-5.54-1.52-8.22-2.55C276.11,355.73,273.9,346.28,271.69,336.83z"/>
		<path class="st25" d="M264.53,377.84c-1.53-0.71-3.07-1.42-4.6-2.14c1.38,0.87,2.76,1.73,4.14,2.6L264.53,377.84z"/>
		<path class="st17" d="M170.52,720.96c-12.08,21.52-33.23,10.13-50.22,13.84l-3.69-0.94c-2.2-3.51-2.22-7.05-0.08-10.59
			c0.51-12.12,6.06-19.91,18.62-21.68c11.55,4.09,23.09,8.19,34.64,12.28C170.04,716.23,170.28,718.6,170.52,720.96z"/>
		<path class="st2" d="M87.12,671.78c-0.8-3.35-0.63-6.65,0.52-9.9c6.61-0.41,13.22-0.82,19.84-1.23c0.35,5.24,0.7,10.47,1.05,15.71
			C95.82,700.88,95.37,668.05,87.12,671.78z"/>
		<path class="st1" d="M116.53,723.27c0.03,3.53,0.05,7.06,0.08,10.59C109.59,730.38,109.38,726.85,116.53,723.27z"/>
		<path class="st9" d="M170.55,901.67c32.98-11.15,66.53-16.7,100.64-6.55c9.14,2.72,21.41,6.95,19.48,20.06
			c-1.7,11.57-12.05,16.56-22.82,16.79c-32.58,0.71-65.19,0.51-97.79,0.66C170.23,922.31,170.39,911.99,170.55,901.67z"/>
		<path class="st13" d="M452.44,388.12c0.18-2.81,0.57-5.6,1.18-8.35c19.97-6.77,40.14-13.22,51.7-33.11
			c10.72,1.87,21.44,3.73,32.17,5.6c23.59,18.06,49.25,31.87,78.57,38.14c8.5,3.06,18.81,1.74,25.02,10.35
			c0.49,2.22,1.84,3.06,4.05,2.53c23.21,9.56,46.42,19.13,69.62,28.69c6.94,18.45-2.84,36.21-2.27,54.4
			c-8.25,27.53-31.13,28.66-53.93,30.04c-8.15-0.09-16.15-1.4-23.95-3.7c-9.79-3.06-18.89-7.7-27.59-13.09
			c-31.73-23.2-61.53-51.82-106.54-37.86c-43.27,8.42-79.12,38.91-124.28,41.68c-25.65-5.04-39.68-18.76-34.74-46.54
			c1.9-5.07,5.25-9.02,9.89-11.81C388.66,432.63,435.36,436.68,452.44,388.12z"/>
		<path class="st10" d="M641.08,400.74c-9.83,0.15-18.68-2.08-25.02-10.35C626.67,388.34,635.84,389.79,641.08,400.74z"/>
		<path class="st19" d="M347.71,858.26c-3.1-5.8-4.85-14.86-9.55-16.82c-16.42-6.84-35.46-11.95-29.47-34.83
			c6.51-24.85,28.8-19.73,47.45-19.74c3.75-2.92,7.95-4.85,12.66-5.61c7.03-0.19,14.11-0.64,20.43,3.4
			c35.88,23.86,75.7,32.55,118.25,30.77c7.42-4.64,14.98-4.46,22.67-0.7c17.97,13.76,33.8,28.2,16.17,52.85
			c-7.1,0.14-14.21,0.27-21.32,0.41c-3.1-2.53-6.1-2.29-9,0.34c-7.08,0.11-14.16,0.23-21.24,0.34
			c-40.02-27.59-83.87-5.29-125.67-9.65C361.96,858.77,354.83,858.52,347.71,858.26z"/>
		<path class="st17" d="M369.09,859.02c29.91-18.51,65.22-9.76,97.35-18.9c16.48-4.69,26.58,11.15,28.32,28.56
			c-20.85,0.6-41.71,1.19-62.56,1.79C411.16,866.65,390.13,862.84,369.09,859.02z"/>
		<path class="st10" d="M546.32,867.58c5.46-22.84-15.32-35.42-21.1-53.86c1.01-4.93,4.08-7.79,8.92-8.86
			c35.61,2.81,55.06,15.86,34.39,54.31c2.35,2.51,2.93,4.78,1.76,6.82c-1.1,1.91-2.13,2.87-3.08,2.87
			C560.25,868.43,553.28,868.01,546.32,867.58z"/>
		<path class="st17" d="M516,868.33c2.83-4.69,5.81-5.23,9-0.34l-4.48,0.64L516,868.33z"/>
		<path class="st2" d="M567.22,868.85c0.22-3.26,0.66-6.49,1.32-9.68c3.47,2.64,6.94,5.28,10.41,7.91
			C575.04,867.67,571.13,868.26,567.22,868.85z"/>
		<path class="st16" d="M762.13,605.1c-0.91-12.03-1.82-24.07-2.73-36.1c13.22-0.95,17.26,9.67,22.52,18.32
			c4.85,7.97,19.57,15.48,8.09,25.55C781.14,620.66,771.67,607.73,762.13,605.1z"/>
		<path class="st28" d="M346.12,450.64c-0.63,25.58,12.6,40.77,36.15,48.21c11.31,14.26,14.29,30.86,13.74,48.48
			c-1.07,5.09-3.14,9.84-5.13,14.65c-8.57,20.62-13.54,45.04,11.91,52.63c23,6.86,21.7-21.05,29.03-35.14
			c3.24-6.23,6.27-12.26,12.64-15.92c33.08,7.7,39.55,31.15,36.03,60.58c-4.96,12.64-14.76,21.47-24.23,30.6
			c-12.02,5.18-19.79,16.65-31.93,21.73c-13.01,2.96-26.78,8.55-33.62-9.72c-41.63-13.59-59.06,13.32-74.09,44.26
			c-24.27,4.62-48.54,9.24-72.81,13.86c-47.81-24.62-47.85-28.17-10.88-69.64c30.82-34.56,63.11-67.83,77.06-114.69
			c7.46-25.08,8.06-47.09-4.59-69.59c-0.23-3.2,0.37-6.23,1.78-9.1c3.66-4.45,7.41-8.79,12.16-12.18c1.71-0.93,3.45-1.79,5.17-2.72
			c3.73-1.33,7.57-1.93,11.52-1.81C340.02,445.85,343.35,447.75,346.12,450.64z"/>
		<path class="st1" d="M693.3,566.39c0.52,6.9,1.04,13.8,1.55,20.7c12.62,41.3-2.1,59.58-45.35,53.85
			c-9.69-4.49-18.45-17.66-30.18-3.26c-45.18,39.07-64.36,40.75-96.55,8.48c-0.16-12.31,8.08-18.51,17.36-23.93
			c31.01-5.28,45.49-28.99,59.19-53.53c3.18-3.4,6.92-6.09,11.03-8.27c8.53-3.44,17.41-3.54,26.35-2.68
			c11.05,1.61,20.22-4.46,30.17-7.62C679.71,549.04,689.09,553.54,693.3,566.39z"/>
		<path class="st16" d="M523.64,641.26c33.55,43.03,63.75-3.59,95.69-3.58c-21.14,51.09-97.03,74.78-140.64,44.48
			c-8.08-5.61-18.31-8.12-27.55-12.06c-5.21-7.47-5.47-15.46-2.48-23.78c9.01-10.54,18.02-21.07,27.03-31.61
			C496.61,614.64,513.86,621.2,523.64,641.26z"/>
		<path class="st2" d="M649.51,640.94c31.21-4.4,44.36-24.01,45.35-53.85c28.85,29.01,26.09,37.16-25.45,75.15
			C660.39,657.37,652.99,650.98,649.51,640.94z"/>
		<path class="st16" d="M390.73,666.74c12.01-1.03,24.02-2.06,36.03-3.09c6.49-0.72,11.6,1.6,15.32,6.96
			C424.09,680.84,404.32,714.76,390.73,666.74z"/>
		<path class="st25" d="M442.08,670.62c-5.11-2.32-10.22-4.64-15.32-6.96c7.3-5.78,14.6-11.56,21.89-17.34
			c0.83,7.93,1.65,15.85,2.48,23.78C448.1,670.1,445.09,670.27,442.08,670.62z"/>
		<path class="st27" d="M534.14,804.86c-2.97,2.95-5.95,5.91-8.92,8.86c-5.92,0.57-11.83,1.14-17.75,1.71
			c-4.1-7.99-16.9-15.54-7.1-24.97c13.25-12.76,23.53,1.33,34.14,7.83C534.8,800.51,534.68,802.69,534.14,804.86z"/>
		<path class="st22" d="M311.25,230.75c26.51-9.26,41.14-31.55,57.25-52.21c13.56-3.07,19.01-21.71,35.78-18.65
			c3.09,24.49,22.27,45.05,17.48,71.47C384.93,231.16,348.09,230.95,311.25,230.75z"/>
		<path class="st22" d="M431.75,238.17c-5.6,0.71-9.65-0.88-10.53-7.14C428.89,227.28,430.11,233.03,431.75,238.17z"/>
		<path class="st2" d="M693.3,566.39c-10.19-3.73-20.39-7.46-30.58-11.19c-9.28,8.74-17.84,1.42-26.64-1.16
			c-4.27-2.46-7.76-5.75-10.56-9.81c-4.19-9.32-4.47-18.65,0.1-27.95c6.14-9.26,17.34-5.83,25.49-10.11
			c22.79,0.63,42.55-8.15,61.36-19.82C708.28,513.56,745.11,550.59,693.3,566.39z"/>
		<path class="st28" d="M170.52,720.96c0.24-2.41,0-4.78-0.73-7.09c2.2-1.65,4.4-3.31,6.61-4.96c1.13,4.09,2.25,8.17,3.38,12.26
			l-4.64,0.29L170.52,720.96z"/>
		<path class="st9" d="M346.12,450.64c-2.67-2.15-5.71-3.27-9.14-3.35c-4.09-0.46-7.17,1.15-9.39,4.55l-0.15,0.05
			c-6.82,4.65-13.52,5.86-19.95-0.68c-1.88-17.05-3.76-34.1-5.64-51.15c19.32-22.58,39.62-19.9,60.55-2.39
			c5.09,7.58,7.31,16.02,7.54,25.08c-1.55,11.56-1.3,24.36-17.33,26.43l-3.48-0.31L346.12,450.64z"/>
		<path class="st12" d="M356.76,399.98c-18.31-8.8-36.61-4.12-54.91,0.08c-9.42-8.74-15.82-18.9-15.32-32.33
			c23.77,0.62,47.55,1.24,71.32,1.86C367.13,380.07,367.28,390.22,356.76,399.98z"/>
		<path class="st12" d="M307.5,451.21c6.65,0.22,13.3,0.45,19.95,0.67c-3.75,9.42-11.45,10.8-20.24,9.95
			C307.31,458.3,307.4,454.75,307.5,451.21z"/>
		<path class="st25" d="M233.05,775.57c-3.26-6.92-6.52-13.84-9.77-20.77c9.17,2.37,23.01-6.54,27.03,5.94
			C253.72,771.35,240.27,771.99,233.05,775.57z"/>
		<path class="st25" d="M389.23,784.67c-7.31,1.01-14.63,2.01-21.94,3.02c-1.47-4.27-2.15-8.66-1.91-13.18
			C376.83,769.67,383.43,776.22,389.23,784.67z"/>
		<path class="st26" d="M365.38,774.51c0.64,4.39,1.27,8.78,1.91,13.18c-3.72-0.27-7.43-0.54-11.15-0.81
			C359.22,782.75,362.3,778.63,365.38,774.51z"/>
		<path class="st14" d="M356.76,399.98c0.37-10.13,0.73-20.27,1.1-30.4c24.08,10.84,58.38-4.6,73.75,28.65
			c-17.27,31.81-36.18,58-73.32,21.24C357.79,412.97,357.27,406.48,356.76,399.98z"/>
		<path class="st16" d="M358.3,419.47c33.11,22.84,50.87-7.29,73.32-21.24c6.94-3.37,13.89-6.74,20.83-10.11
			c3.56,9.74,28.46,17.46,3.66,29.92c-32.59,16.38-61.83,44.65-103.49,31.14C354.51,439.28,356.4,429.37,358.3,419.47z"/>
		<path class="st22" d="M389.18,547.05c-7.76-15.28-6.45-31.86-6.9-48.19c39.52-19.46,76.79-44.75,122.81-47.32
			c10.55,0.36,20.36,2.34,26.5,12.25c5.73,11.87,5.79,23.89,0.86,36c-10.74,14.78-34.76,23.31-23.05,48.89
			c-0.76,5.07-3.09,9.17-6.95,12.5c-6.78,4.11-14.16,6.04-21.97,6.71c-13.61,1.75-25.69-6.34-39.11-5.86
			C421.23,566.53,403.85,561.48,389.18,547.05z"/>
		<path class="st10" d="M525.62,462.37c-6.84-3.61-13.69-7.22-20.53-10.83c45.04-11.81,78.02,6,103.53,42.14
			c6.85,28.48,2.64,54.28-18.35,76.06c-19.38,8.02-36.4,1.49-52.82-8.61c-13.02-14.41-4.69-28.35,0.44-42.88
			C545.25,497.43,544.15,477.82,525.62,462.37z"/>
		<path class="st23" d="M588.6,565.95c6.67-24.09,13.35-48.18,20.02-72.27c9.33,0.23,17.76,2.55,23.89,10.25
			c2.47,2.13,3.4,4.37,2.81,6.73c-0.61,2.41-1.29,3.62-2.04,3.62c-1.04,8.81-2.09,17.61-3.13,26.42
			c2.98,16.32-12.95,17.7-20.39,25.79l-0.19,0.29C602.35,572.03,595.32,573.01,588.6,565.95z"/>
		<path class="st18" d="M633.27,514.27c-0.25-3.45-0.51-6.9-0.76-10.35c6.2,0.75,12.41,1.49,18.61,2.24
			C645.17,508.87,639.22,511.57,633.27,514.27z"/>
		<path class="st24" d="M389.18,547.05c18.64-2.46,34.49,7.17,51.48,11.86c7.37,2.18,7.91,5.48,1.62,9.9
			c-0.04,3.46,0.12,6.93-0.14,10.38c-1.92,24.74-5.6,49.4-33.27,58.43c-13.57,4.43-22.47-6.36-28.4-17.52
			C366.53,593.88,359.5,568.2,389.18,547.05z"/>
		<path class="st9" d="M442.29,568.81c-0.4-3.32-0.94-6.63-1.62-9.9c14.48-0.65,28.96-1.29,43.44-1.94c8.26,7,18.3,7.27,28.47,8.91
			c38.4,6.19,54.47,25.56,34.55,63.83c-7.83,3.85-15.66,7.7-23.49,11.55c-16.23-8.41-28.52-23.94-47.96-26.55
			C471.82,594.12,460.8,578.74,442.29,568.81z"/>
		<path class="st12" d="M327.6,451.84c1.22-5.46,3.72-8.27,9.39-4.55C333.86,448.81,330.73,450.32,327.6,451.84z"/>
		<path class="st12" d="M547.13,629.71c1.96-31.07-3.69-55.62-43.29-53.42c-12.48,0.69-18.16-7.76-19.73-19.33
			c6.59-0.68,13.18-1.37,19.78-2.05c10.94-7.26,21.7-7.77,32.23,0.82c17.49,3.41,34.99,6.81,52.48,10.22
			c6.99,0.28,13.97,0.55,20.96,0.83C596.41,595.35,592.65,633.23,547.13,629.71z"/>
		<path class="st12" d="M641.05,544.9c7.22,3.43,14.45,6.87,21.67,10.3c-2.73,12.44-4.19,27.23-21.9,11.75
			C634.78,559.54,634.83,552.19,641.05,544.9z"/>
		<path class="st9" d="M641.05,544.9c-0.08,7.35-0.15,14.7-0.23,22.05c-10.36-0.16-20.72-0.31-31.08-0.47
			c6.8-8.6,13.59-17.19,20.39-25.79C633.77,542.1,637.41,543.5,641.05,544.9z"/>
		<path class="st17" d="M536.12,555.73c-10.74-0.27-21.49-0.55-32.23-0.82c0.16-2.56,0.43-5.1,0.8-7.63
			c4.31-15.57,8.88-31,21.02-42.71c-0.03-14.07-0.05-28.13-0.08-42.2c39.15,4.29,34.49,31.03,27.74,56.89
			C550.03,532.04,542.02,543.61,536.12,555.73z"/>
		<path class="st25" d="M525.7,504.57c6.91,21.08,4.38,37.52-21.02,42.71c-9.87-8.92-20.97-17.79-13.4-33.23
			C498.89,498.54,512.47,501.4,525.7,504.57z"/>
	</g>
</g>
</svg>
