<?xml version="1.0" encoding="utf-8"?>
<!-- Generator: Adobe Illustrator 23.1.0, SVG Export Plug-In . SVG Version: 6.00 Build 0)  -->
<svg version="1.1" id="Calque_1" xmlns="http://www.w3.org/2000/svg" xmlns:xlink="http://www.w3.org/1999/xlink" x="0px" y="0px"
	 viewBox="0 0 1125 1074.54" style="enable-background:new 0 0 1125 1074.54;" xml:space="preserve">
<style type="text/css">
	.st0{fill:#FDFDFD;}
	.st1{fill:#FADD9E;}
	.st2{fill:#FD9ABF;}
	.st3{fill:#FDFBBC;}
	.st4{fill:#C69466;}
	.st5{fill:#FD8EB2;}
	.st6{fill:#BA8558;}
	.st7{fill:#F4CC8E;}
	.st8{fill:#D3A270;}
	.st9{fill:#FEF1AC;}
	.st10{fill:#EABE83;}
	.st11{fill:#E0B079;}
	.st12{fill:#BF426D;}
	.st13{fill:#D68901;}
	.st14{fill:#883B4C;}
	.st15{fill:#FB7AA6;}
	.st16{fill:#D64F7D;}
	.st17{fill:#E5608E;}
	.st18{fill:#F2EBE4;}
	.st19{fill:#FDE702;}
	.st20{fill:#E79E00;}
	.st21{fill:#FCF301;}
	.st22{fill:#F97198;}
	.st23{fill:#A73A5B;}
	.st24{fill:#A9774D;}
	.st25{fill:#8E5B3E;}
	.st26{fill:#24ADB7;}
	.st27{fill:#454243;}
	.st28{fill:#B16657;}
	.st29{fill:#403E3B;}
</style>
<path class="st0" d="M386.86,140.15c-10.39,1.96-20.78,3.92-31.18,5.87c-16.8-0.19-26.59,32.43-23.74,13.39
	c-1.64-53.13,1.77-97.56,48.49-105.55c11.72,18.56,28.8,34.96,24.28,60.09C396.23,120.95,389.15,128.92,386.86,140.15z"/>
<g>
	<g>
		<path class="st1" d="M4.84,745.73c-0.01-10.95-0.02-21.91-0.03-32.86c3.55-3.4,7.5-6.23,11.88-8.46
			c27.73-10.18,63.53,17.16,85.8-18.58c4.64-2.15,9.49-3.45,14.54-4.11c33.92,3.32,67.67,7.49,101.98,6.96
			c30.6-0.47,56.8-7.51,75.06-33.74c2.92-3.86,6.2-7.43,9.58-10.88c18.08-12.64,23.17-34.14,34.71-51.29
			c4.15-2.63,8.65-3.79,13.56-3.33c18.13,7.35,31.2,22.37,48.11,31.66c15.14,13.32,32.47,25.25,31.85,48.85
			c-4.37,12.57-13.81,21.35-22.68,30.56c-31.47,37.66,2.42,47.59,26.57,54.89c72.83,22.03,141.55-2.26,209.44-25.36
			c36.38-12.38,64.87-37.2,89.71-66.24c32.94-6.16,58.42,0.61,66.21,38.08C699.28,820.99,497.94,855.91,366.26,777.3
			c-7.81-4.66-16.8-6.29-25.05-9.82c-7.85-3.55-14.73-8.51-20.92-14.4c-48.5-28.01-99.87-12.27-150.35-9.75
			c-8.38,1.59-16.8,1.86-25.27,1.29c-29.65-4.28-54.33,17.9-83.92,15.42C41.09,758.39,20.82,761.04,4.84,745.73z"/>
		<path class="st2" d="M399.37,4.31c47.34,0.61,88.53,14.12,116.47,55.46c2.74,4.57,6.33,8.44,10.12,12.13l-0.05-0.07
			c3.73,3.18,6.45,7.08,8.31,11.61c1.78,2.71,2.79,5.68,3.04,8.91c11.86,37.34,22.81,74.74,8.41,114.02
			c-17.32,25.94-46.4,30.18-72.82,39.45c-43.75,6.78-75.76-13.83-102.56-45.14c-13.35-15.6-22.49-32.83-7.28-52.86
			c24.12-27.39,51.67-53.92,14.1-91.35c-5.52-5.5-0.23-13.8,5.14-18.91C391.89,28.36,395.72,16.44,399.37,4.31z"/>
		<path class="st3" d="M61.13,593.59c28.69-18.73,56.84-39.08,94.34-30.89c9.28,4.83,17.17,12.22,27.62,14.83
			c8.9,0.18,17.31-2.08,25.66-4.71c8.93-2.94,17.7-6.22,26.66-9.2c4.85-1.47,9.74-2.34,14.78-2.81c10.71-0.56,21.11,0.82,31.32,4.12
			c16.59,5.98,31.79,13.58,37.54,32.21c4.62,18.53,1.96,35.61-10.19,50.77l-0.08,0.11c-23.54,7.69-49.01,7.91-70.61,23.72
			c-18.52,13.56-41.5,12.03-62.3,3.89c-25.42-9.95-45.49-3.91-62.92,15.58c-3.55,0.07-7.1,0.14-10.65,0.21
			c-41.01,21.45-60.13-15.16-86.46-32.62C30.84,637,29.56,603.9,61.13,593.59z"/>
		<path class="st4" d="M863.1,767.15c14.37,9.3,13.45,23.3,11.56,37.6c-0.24,20.86,0.13,41.84-11.93,60.36
			c-22.23,38.59-56.84,68.68-75.35,109.83c-13.8,18.5-28.26,36.23-51.36,43.83c-32.44-0.07-24.29-23.94-22.23-41.21
			c3.27-27.45,19.78-49.3,35.86-70.99c6.15-8.29,19.1-18.55,13.19-26.98c-8.78-12.52-22.08,0.94-33.42,2.86
			c-6.97,1.18-13.62,4.26-20.58,6.16c-32.03,7.76-61.76,24.3-95.65,24.77c-25.64,3.91-51.37,15.63-76.75-0.89
			c-8.48-9.56-9.55-20.42-5.59-32.12c5.66-10.75,15.69-13.07,26.55-13.66c14.38,2.39,27.15-1.95,39.03-9.98
			c38.19-8.86,77.57-12.25,114.69-25.88C768.93,826.64,818.7,803.31,863.1,767.15z"/>
		<path class="st5" d="M363.02,147.8c8.33,54.81,45.73,84.36,110.74,87.49c14.62,29.54,50.68,35.36,68.24,61.74
			c-10.08,36.75-40.88,25.69-65.64,28.64c-14.35,0.02-28.61-0.82-42.2-6.04c-14.19-6.79-26.6-16.47-39.49-25.36
			c-10.74-13.22-22.43-25.1-40.57-27.72c-24.88-10.43-18.16-35.59-25.37-54.26c2.31-21.6-2.61-44.04,7.46-64.75
			C345.13,147.61,354.07,147.7,363.02,147.8z"/>
		<path class="st4" d="M57.21,878.38c-14.92-8.08-18.67-24.23-26.8-37.2c-5.23-8.35-6.39-20.61-20.09-20.76
			c-11.27-12.95-4.98-28.17-5.5-42.51c3.4-3.45,7.35-4.28,11.86-2.53c9.12,5.93,16.85,14.01,27.39,17.79
			c13.04,4.87,26.55,4.68,40.14,3.99c21.24,0.94,38.45-10.82,57.16-18.01c88.36-20.33,164.74,2.73,230.73,63.47
			c11.75,11.81,40.62,19.45,10.62,41.87c-7.48,2.54-15.23,3.27-23.06,2.79c-4.84-0.33-9.64-1.31-14.33-2.62
			c-6.59-2.06-12.87-5-18.99-8.19c-3.92-1.79-7.76-3.89-11.55-5.94c-7.7-3.65-15.89-6.03-24.09-8.45
			c-4.25-1.28-8.27-3.03-12.24-4.97c-8.27-4.04-16.29-8.47-23.94-13.63c-34.23-18.37-69.95-23.9-107.63-13.16
			c-24.25,6.04-52.77,1.39-68.77,27.88C72.37,866.23,67.03,874.65,57.21,878.38z"/>
		<path class="st6" d="M710.75,876.12c27.55-7.36,51.85-33.56,83.97-14.54c-5.75,27.31-28.28,44.23-43.81,64.54
			c-14.92,19.51-20.74,40.88-28.15,62.19c-3.95,11.35-3.41,25.68,13.26,30.45c-2.55,5.53-6.23,9.56-12.84,9.72
			c-4.75,3.12-9.04,6.74-12.33,11.43l0.81-0.62c-3.93,3.55-7.83,3.53-11.7-0.09c-3.52-0.52-7.06-0.97-10.6-1.34
			c-29.03-26.56-23.39-57.39-10.07-88.49C689.75,924.94,691.93,896.94,710.75,876.12z"/>
		<path class="st7" d="M16.16,777.65c-3.78,0.09-7.56,0.18-11.35,0.26c0.01-10.73,0.02-21.46,0.03-32.18
			c40.6-3,83.74,10.48,120.09-20.63c6.27-5.36,16.86-0.61,20.75,9.45c8.33,12.26,0.46,22.04-4.85,32.26
			c-2.9,3.75-6.34,6.93-10.24,9.61c-16.33,9.38-34.26,14.57-52.25,19.67c-6.97,1.1-13.74,0.39-20.24-2.36
			C46.6,782.01,29.27,785.3,16.16,777.65z"/>
		<path class="st8" d="M787.38,974.93c-0.28-54.03,38.05-81.58,75.35-109.83C869.68,923.71,826.62,948.01,787.38,974.93z"/>
		<path class="st9" d="M15.85,658.82c17.35-2.31,32.24,1.94,43.09,16.48c11.02,14.76,26.35,17.66,43.37,16.14
			c-2.42,26.35-15.11,39.86-41.41,27.62c-15.42-7.18-30.51-4.96-45.88-6.08c-7.69-14.05-7.65-28.08,0.13-42.09
			C15.39,666.87,15.62,662.84,15.85,658.82z"/>
		<path class="st10" d="M15.16,670.89c-0.04,14.03-0.09,28.06-0.13,42.09c-3.4-0.07-6.81-0.11-10.22-0.11
			C7.74,698.75-4.47,680.89,15.16,670.89z"/>
		<path class="st2" d="M711.05,299.91C761.7,191.19,837.88,111,957.48,79.3c21.15,12.93,21.32,37.43,31.28,56.58
			c-0.07,53.36-43.42,66.91-79.86,86.87c-47.27,1.05-86.72,16.13-109.37,61.33C772.21,301.54,743.37,310.49,711.05,299.91z"/>
		<path class="st11" d="M373.81,854.43c-26.65-1.94-46.82-16.39-62.6-36.02c-19.82-24.67-44.11-31.95-74.89-29.79
			c-33.67,2.37-67.64,0.56-101.48,0.57c-5.87-7.25-6.59-14.55-0.21-21.91l0.05-0.05c25.14-22.74,59.12-9.29,86.87-21.37
			c24.02-4.76,48.03-5.61,71.97,0.49c14.21,3.99,27.05,11.18,37.3,21.44c98.04,98.12,212.58,81.88,328.62,45.91
			c48.32-14.98,94.3-36.97,134.82-68.63c14.29-11.17,29.01-23.12,48.81-10.92c5.99,1.1,8.47,5.28,9.47,10.76
			c-2.75,49.07-43.53,59.6-78.09,74.47c-20.7,8.91-44.65,9.99-63.73,23.93c-38.01,16.83-78.25,21.62-119.3,22.06
			c-5.9,6.44-12.97,10.48-21.9,10.73c-10.82,0.03-21.64,0.07-32.47,0.1c-10.21,9.72-21.95,16.67-35.79,19.9
			c-13.86,3.32-27.47,2.8-40.71-2.79C433.06,877.24,403.11,866.57,373.81,854.43z"/>
		<path class="st12" d="M1045.59,418.02c-17.86,34.46-22.3,71.19-20.17,109.52c1.6,28.71,0.12,57.05-10.24,84.94
			c-15.22,40.97-39.74,67.77-86.38,67.37c-6.34-5.02-7.31-11.74-6.13-19.13c7.16-16.24,0.71-31.15-4.78-46.16
			c-5.2-27.91-17.32-49.57-48.5-54.25c-19.73-6.65-42.06-7.42-56.92-25.1c-6.01-9.77-10.48-19.75-4.14-31.13
			c4.39-3.43,9.38-5.6,14.86-6.56c31.07-0.81,58.76,13.76,88.33,20.02c36.79,7.79,54.4-6.18,56.47-42.97
			c1.19-21.19-1.91-43.1,8.85-63.04c3.41-4.69,7.98-7.42,13.69-8.33C1009.88,404.43,1029.78,403.66,1045.59,418.02z"/>
		<path class="st13" d="M802.32,699.87c-19.13-19.68-41.71-31.24-69.87-29.63c-15.79,7.14-29.27,1.14-42.3-7.38
			c-7.77-15.6-2.15-32.36-4.11-48.53c6.42-14.17,19.91-20.94,31.16-30.05c42.43-27.18,8.02-57.63,3.68-86.77
			c11.01-14.2,28.42-18.05,42.99-26.58c14.74-2.42,23.41,6.29,31.1,16.89c4.3,6.55,7.01,13.71,8.13,21.47
			c1.86,10.68,10.09,18.6,12.56,29.04c16.78,38.51,37.96,76.46,14.26,119.75c-9.14,13.73-10.56,29.33-10.98,45.18
			C812.11,708.48,806.6,707.21,802.32,699.87z"/>
		<path class="st5" d="M902.39,215.01c29.69-22.52,71.28-32.59,80.33-76.73c31.63-15.35,71.54-24.84,53.39-75.43
			c29.24-5.77,50.25,6.44,65.98,30.19c5.79,6.48,4.91,15.52,8.71,22.76l1.24,0.13c7.4,6.13,6.26,13.76,3.82,21.64
			c-6.06,9.33-15.48,14.31-24.82,19.43c-40,21.44-55.69,64.84-85.85,95.21c-22.17,22.32-43.28,44.57-79,29.47
			C910.07,262.38,894.66,242.81,902.39,215.01z"/>
		<path class="st10" d="M843.08,734.15c-31.04-0.85-44.99,27.51-67.39,41.11c-93.06,56.54-192.5,87.45-300.99,77.85
			c-50.8-4.5-102.51-15.99-137.47-61.83c-10.45-13.7-26.14-23.39-39.43-34.91c4.03-24.31,17.87-18.93,32.63-10.79
			c1.15,6.09,4.78,9.71,10.88,10.85c139.79,91.29,272.31,86.98,414.9-13.62c20.09-14.17,37.26-34.37,65.64-30.76
			C831.67,716.79,838.38,724.5,843.08,734.15z"/>
		<path class="st7" d="M821.85,712.05c-72.37,57.57-152.55,98.99-244.02,116.15c-44.56,8.36-89.99,8.58-134.21,0.34
			c-43.81-8.17-79.09-32.63-102.32-72.11c14.51-0.53,27.48,0.6,39.49,11.95c53.87,50.9,120.53,50.14,185.96,37.27
			c73.18-14.4,141.81-43.13,202.21-88.93c9.76-7.4,22.17-11.32,33.36-16.85c5.54,1.13,11.08,2.26,16.62,3.39
			C819.95,706.18,820.92,709.11,821.85,712.05z"/>
		<path class="st14" d="M829.92,658.08c-1.33-44.25-17.36-85.93-22.56-129.51c3.93-4.69,7.94-4.77,12.06-0.24
			c12.92,19.96,39.83,5.43,54.15,21.96c15.94,16.06,18.73,36.86,20.96,57.88c0.36,15.48-10.02,35.41,16.83,39.69
			c6.98,2.55,13.36,5.84,16.03,13.48c0.47,6.17,0.94,12.33,1.4,18.5C893.07,685.17,861.25,672.71,829.92,658.08z"/>
		<path class="st12" d="M1119.27,157.19c-1.96,72.62-3.76,145.28-48.2,208.06c-12.59-3.66-21.51-12.02-28.92-22.41
			c-2.31-4.54-3.82-9.33-4.71-14.35c-0.98-35.44,23.04-62.04,33.42-93.52c6.1-18.5,13.24-36.42,11.4-56.41
			c0.12-8.12,1.92-15.68,7.13-22.14C1099.51,150.98,1109.53,148.79,1119.27,157.19z"/>
		<path class="st5" d="M592.57,288.97c19.56-0.27,39.12-0.77,58.68-0.76c16.82,0.01,31.98,3.49,38.41,21.94
			c-0.25,2.63-0.51,5.26-0.73,7.9c-8.98,22.23-14.66,46.87-40.97,56.67c-27.49,5.57-52.46,2.02-72.31-20.05
			C565.97,328.83,571.52,306.89,592.57,288.97z"/>
		<path class="st0" d="M1036.11,62.86c5.73,6.81,13.06,12.83,16.92,20.58c14.15,28.44,3.25,49.84-27.41,53.73
			c-14.12,1.79-28.58,0.83-42.89,1.12c-28.46-11.09-20.12-37.92-25.24-58.99l0.87-0.28c6.5,2.43,9.09-3.54,13.25-6.16
			C992.35,64.71,1013.47,58.89,1036.11,62.86z"/>
		<path class="st5" d="M711.05,299.91c26.58-15.36,58.55-9.15,85.88-21.5c18.8,12.83,24.14,29.79,15.71,51.03
			c-38.78,29.72-80.01,22.28-121.7,7.97c-8.68-8.34-8.15-17.3-1.76-26.65l0.5-0.6C696.8,306.74,703.92,303.32,711.05,299.91z"/>
		<path class="st8" d="M710.72,843.32c-1.59-30.53,28.08-27.06,41.5-29.68c44.72-8.76,75.89-32.69,100.32-68.72
			c10.78,3.97,10.36,13.24,10.55,22.23c-10.93,31.17-31.85,48.58-65.01,56.18C769,829.99,742.32,847,710.72,843.32z"/>
		<path class="st15" d="M535.39,215.24c0.63-40.97,1.25-81.94,1.88-122.91c20.57,20.96,29.09,47.25,33.39,75.41
			c2.29,23.31,18.4,47.32-3.48,69.43C547.94,242.4,537.57,234.76,535.39,215.24z"/>
		<path class="st16" d="M560.29,234.88c20.4-19.76,3.27-45.32,10.37-67.14c26.06,37.02,20.85,79.69,21.92,121.22
			c2.28,22.32-16.05,40.71-12.1,63.35c-10.07,10.39-18.6,6.62-26.53-2.82c-13.94-28.41,22.53-58.18-2.37-86.38
			C549.51,252.17,549.8,241.94,560.29,234.88z"/>
		<path class="st2" d="M1051.41,343.16c16.31-1.32,17.52,10.79,19.66,22.09c-3.4,20.06-14.57,36.35-25.49,52.78
			c-17.19-1.15-37.27,11.24-50-10.7C1001.86,375.21,1010.51,345.15,1051.41,343.16z"/>
		<path class="st17" d="M1119.27,157.19c-9.1,0.74-18.2,1.48-27.31,2.22c-3.01-2.34-4.2-4.88-3.56-7.61
			c0.65-2.82,1.42-4.24,2.32-4.24c2.52-9.52,9.95-11.07,18.24-11.21c4.77-6.14,8-5.41,9.69,2.18
			C1118.85,144.75,1119.06,150.97,1119.27,157.19z"/>
		<path class="st17" d="M1110.8,115.8c-9.93-4.9-9.04-13.93-8.71-22.76C1113.44,97.4,1113.02,106.26,1110.8,115.8z"/>
		<path class="st12" d="M1118.64,138.53c-3.18-0.94-6.41-1.66-9.69-2.18c1.03-6.81,2.05-13.61,3.08-20.42
			C1124.54,120.45,1122.85,129.12,1118.64,138.53z"/>
		<path class="st2" d="M971.6,72.86c-2.63,5.9-6.53,9.06-13.25,6.16C960.73,72.6,965.83,72,971.6,72.86z"/>
		<path class="st17" d="M534.22,83.43c-5.3-2.06-8.32-5.75-8.31-11.61C531.45,73.71,535.57,76.61,534.22,83.43z"/>
		<path class="st17" d="M525.96,71.89c-6.13-1.75-9.63-5.68-10.12-12.13C521.93,61.54,525.82,65.15,525.96,71.89z"/>
		<path class="st18" d="M429.42,669.33c-11.23-13.83-22.45-27.67-33.68-41.5c-15.74-19.23-16.89-40.29-7.93-62.62
			c23.77-34.8,64.24-28.05,97.73-37.93c18.76-5.53,38.71-8.33,58.05-12.49c8.17-1.62,16.33-3.43,24.51-5.1
			c8.14-1.37,16.25-1.08,24.29,0.91c19.36,8.41,40.56,13.17,57.02,27.69c6.01,10.05,6.1,20.37,1.35,30.86
			c-3.16,4.29-7.35,7.21-12.45,8.77c-12.85,2.16-24.27-4.85-36.47-6.07c-36.39-3.61-50.86,15.78-39.6,51.39
			c4.88,15.44,22.36,32.15-3.91,45.09C515.33,670.28,472.53,692.45,429.42,669.33z"/>
		<path class="st3" d="M429.42,669.33c47.5-6.14,94.91-13.3,143-12.96c11.94-10.7,26.81-10.99,41.58-11.85
			c12.16-0.05,24.32-0.03,36.34,2.47c9.5,2.52,17.97,6.5,22.71,15.85c8.23,28.58-8.76,44.75-30.08,56.78
			c-61.71,34.83-129.07,45.87-198.47,38.31c-44.26-4.82-50.95-20.41-38.17-66.82C410.22,679.82,417.81,672.45,429.42,669.33z"/>
		<path class="st9" d="M406.32,691.11c2.94,53.99,2.94,54.74,54.56,54.33c62.29-0.49,122.81-7.87,178.86-39.88
			c20.06-11.45,30.48-22.98,27.46-45.59c6.76-6.98,14.19-8.08,22.38-2.58c15.13,1.48,30.13,3.39,42.87,12.84
			c0.03,14.23-0.6,24.68-16.07,35.48c-46.26,32.29-95.97,53.02-151.37,61.75c-45.38,7.15-89.97,20.71-136.44,1.85
			c-13.69-5.56-25.72-10.84-36.01-21.18C367.02,722.47,369.17,713.07,406.32,691.11z"/>
		<path class="st9" d="M112.96,691.22c16.37-48.08,16.71-48.87,60.31-29.86c25.1,10.95,48.61,16.32,68.61-7.31
			c20.89-24.68,43.1-20.91,66.91-6.02c-8.32,36.17-29.84,55.3-68.15,54.21C197.85,701.03,154.49,706.99,112.96,691.22z"/>
		<path class="st19" d="M311.29,588.08c-10.02-9.97-29.69-0.39-36.04-17.78c-8.2-9.55-9.21-20.45-6.14-32.17
			c4.01-11.32,10.01-21.14,20.68-27.48c32.87-11.59,64.3-9.84,93.74,10.29c4.56,4.18,7.7,9.26,9.52,15.16
			c1.34,5.99,1.31,11.99-0.01,17.97c-10.79,17.29-2.69,55.16-43.4,39.95c-3.05,0.34-6.01,1.03-8.89,2.09
			C328.71,601.55,316.92,606.11,311.29,588.08z"/>
		<path class="st7" d="M330.43,745.59c-11.43,1.91-26.05-5.81-32.63,10.79c-25.36,0-50.73-0.01-76.09-0.01
			c-18.78-5.66-47.86,14.43-54.4-21.79c3.26-7.12,8.68-10.75,16.64-10.73c41.22,0.06,82.45,0.48,123.66-0.17
			C323.65,723.42,330.78,729.99,330.43,745.59z"/>
		<path class="st10" d="M167.31,734.58c4.93,13.76,16.74,10.61,27.11,11.03c10.33,0.42,22.16-2.88,27.29,10.76
			c-26.6,22.93-58.25,5.37-87.03,10.86c-2.6-13,7.62-21.7,11-32.69C152.89,734.55,160.1,734.57,167.31,734.58z"/>
		<path class="st20" d="M349.64,594.03c28.28-1.34,30.51-23.23,34.5-43.73c12.34-1.84,17.76,2.48,13.66,15.31
			c-0.69,20.74-1.37,41.49-2.06,62.23C374.43,624.66,362.02,609.36,349.64,594.03z"/>
		<path class="st9" d="M311.29,588.08c9.82,2.68,19.63,5.35,29.45,8.03c-1.08,23.14-0.61,47.24-31.88,51.81
			C309.67,627.98,310.48,608.03,311.29,588.08z"/>
		<path class="st21" d="M385.52,528.67c-31.86-12.14-65.04-12.72-98.46-11.26c-12.76,7.82-24.31,1.85-36-3.06
			c-6.91-4.09-11.58-10-14.23-17.55c-11.3-29.04-20.88-58.21-4.72-88.71c34.15-25.27,75.12-37.84,111.1-59.71
			c11.01-22.06,31.96-18.68,51.06-20.05c31.42-0.44,62.86-0.86,94.29,0.43c12.37-0.07,24.16,2.35,35.09,8.28
			c9.33,6.22,14.2,16.03,19.97,25.18c40.07,63.52,33.43,85.92-37,112.36c-35.83,13.45-71.1,26.42-97.03,56.33
			C401.14,534.79,393.03,534.79,385.52,528.67z"/>
		<path class="st22" d="M395.24,340.45c-17.34,2.64-34.68,5.28-52.02,7.92c-3.56-5.96-9.91-11.76-10.24-17.89
			c-2.15-39.36-2.98-78.8-4.24-118.21c12.88,3.82,12.91,14.42,12.58,24.75c-0.52,16.53,9.78,19.83,23.15,19.85
			c11.34,10.05,12.92,29.63,31.67,32.43c15.42-0.09,33.22-3.88,32.52,20.99C425.18,328.84,407.19,331.31,395.24,340.45z"/>
		<path class="st18" d="M243.36,500.7c1.56,2.22,3.42,4.16,5.58,5.8c5.5,0.89,8.28,4.12,8.38,9.68
			c-17.83,19.8-34.16,40.63-44.39,65.6c-11.78,3.47-21.08,14.35-34.91,11.65c-10.09-14.53-9.16-29.27-0.82-44.14
			c3.58-29.65,10.8-58.25,24.54-84.97C237.29,451.64,233.02,484.52,243.36,500.7z"/>
		<path class="st4" d="M243.36,500.7c-9.96-6.58-18.43-14.78-22.16-26.22c-3.42-10.5-10.67-11.22-19.47-10.17
			c5.51-21.94,20.76-39.89,21.96-64.4c0.66-13.58,4.99,0.44,8.48,2.38c6.11,3.39-5.17,0.65-0.07,5.79
			c-1.99,24.85-3.02,49.52,13.53,70.81C251.91,486.95,253.21,494.38,243.36,500.7z"/>
		<path class="st11" d="M177.2,549.28c0.27,14.71,0.55,29.43,0.82,44.14c-14.55-5.08-21.43-15.79-22.54-30.72
			C162.72,558.23,169.96,553.76,177.2,549.28z"/>
		<path class="st23" d="M81.84,952.55c-3.54-18.47-15.65-34.99-12.53-54.97c9.04-7.82,19.76-8.81,30.54-5.94
			c110.13,29.36,223.34,40.16,335.72,55.8c5.7,1.02,11.21,2.75,16.54,5.03c5.21,2.46,9.68,5.96,13.47,10.31
			c7.73,11.9,12.15,25.1,14.91,38.97c0.89,58.75-42.68,62.42-84.58,68.16c-55.95,6.24-111.62,8.74-166.28-9.33
			c-14.88-4.92-31.07-6.63-40.65-21.35c-15.48-19.38-16.8-40.12-6.09-62.01c42.76-20.05,82.16,8.99,123.79,9.4
			c16.43,0.16,34.28,0.92,50.73,6.54c-16.36-6.1-33.97-5.8-50.74-7.19c-58.32-4.85-113.93-29.99-173.73-22.59
			C114.45,966.52,97.29,963.5,81.84,952.55z"/>
		<path class="st24" d="M710.75,876.12c3.14,21.88-1.36,43.64-11.79,61.56c-19.07,32.79-19.64,65.52-9.61,100.17
			c-30.82,15.54-64.73,17.81-98,22.8c-19.52,0.11-39.04,0.04-58.56-0.1c-29.82-0.21-47.81-13.24-46.12-44.86
			c1.29-24.19-4.57-45.35-20.35-63.74c-4.07-3.51-7.12-7.72-9.05-12.73c-0.07-5.55,2-10.14,6.17-13.8
			c6.95-4.09,14.53-5.73,22.5-5.78c44.87,7.34,88.67,8.32,127.23-21.66c20.07,1.55,39.54-0.9,56.68-11.96
			C682.6,877.8,696.02,874.9,710.75,876.12z"/>
		<path class="st17" d="M447.67,962.39c-78.82-14.96-160.01-11.9-238.24-31.91c-46.47-11.89-93.4-22-140.13-32.91
			c-9.21-3.13-10.63-11.18-12.1-19.19c1.98-9.15-0.2-20.32,11.93-24.53c63.5,11.47,126.86,23.78,190.48,34.48
			c30.94,5.2,64.1,15.41,91.46-11.93c7.68,0.05,15.35,0.1,23.03,0.15c6.55,6.96,15.67,3.95,23.48,6c3.79,1.73,7.26,4,10.5,6.57
			c1.54,1.31,3.04,2.72,4.61,4.01c5.86,5.4,11.92,10.6,18.62,15.03c1.67,1.1,3.26,2.31,4.93,3.43c1.55,1.28,3.02,2.64,4.57,3.94
			c2.7,3.03,4.91,6.4,6.79,9.99c1.73,3.66,3.18,7.44,4.48,11.29c1.73,3.7,3.26,7.48,4.65,11.33
			C456.82,954.87,454.18,959.86,447.67,962.39z"/>
		<path class="st25" d="M460.88,941.22c30.76,13.27,48.56,39.6,38.8,72.1c-9.11,30.34,5.82,33.07,27.15,36.76
			c21.48,3.71,46.03-11.03,64.52,10.57c-5.66,12.99-17.33,10.61-27.8,10.55c-55.88-0.32-111.77-0.85-167.65-1.3
			c15.07-17.47,43.07-5.2,58.1-27.72c9.99-14.98,20.34-27.4,17.44-46.25c-9.4-9.01-0.2-24.11-10.72-32.76l-0.09-0.06
			C454.29,955.74,454.78,948.45,460.88,941.22z"/>
		<path class="st12" d="M188.46,974.96c0.17,21.42,0.34,42.84,0.51,64.26c-43.15-19.7-89.76-35.11-107.13-86.67
			c17.46-0.04,34.92-0.08,52.37-0.12C157.5,947.4,173.75,959.34,188.46,974.96z"/>
		<path class="st0" d="M560.29,234.88c1.23,10.5,2.46,21.01,3.69,31.51c-1.36,16.74-8.31,26.77-27.11,22.6
			c-53.12-2.06-58.39-6.54-63.11-53.71c19.33-10.4,36.88-26.3,61.63-20.05C541.79,224.2,549.24,231.81,560.29,234.88z"/>
		<path class="st26" d="M212.93,581.77c-4.21-31.71,6.75-54.64,38.06-65.81c21.33-5.67,21.75,11.11,25.78,24.02
			c-0.5,10.11-1.01,20.21-1.51,30.32c-9.95,0.67-19.9,1.33-29.85,2c-3.91-4.62-7.78-11.1-12.06-0.29
			C228.43,579.22,221.18,581.54,212.93,581.77z"/>
		<path class="st8" d="M178.19,627.68c-6.4-3.68-10.48-8.83-7.24-16.26c1-2.3,5.42-4.66,8.06-4.44c12.72,1.03,8.98,11.48,10.11,19.1
			C185.85,629.24,182.2,629.65,178.19,627.68z"/>
		<path class="st27" d="M233.34,572.01c-0.49-6.86-0.95-17.15,6.02-17.1c6.75,0.05,6.51,10.45,6.04,17.39
			C241.38,572.2,237.36,572.1,233.34,572.01z"/>
		<path class="st9" d="M178.19,627.68c3.64-0.54,7.28-1.07,10.92-1.61C186.67,634.74,183.47,638.3,178.19,627.68z"/>
		<path class="st6" d="M613.17,897.98c-0.97,5.15-0.52,13.87-3.12,14.9c-41.12,16.28-81.56,40.01-127.89,16.79
			c-10.3-21.5,3.72-27.12,20.29-31.1c13.07-2.26,24.45,1.34,34.37,9.95C563.15,911.37,588.3,905.68,613.17,897.98z"/>
		<path class="st8" d="M536.82,908.52c-10.8-0.02-21.59-0.03-32.39-0.05c-6.47-7.18-6.53-14.4-0.13-21.65
			c6.68-16.62,21.2-9.03,32.75-10.61C536.98,886.98,536.9,897.75,536.82,908.52z"/>
		<path class="st8" d="M569.52,876.12c3.14-12.06,12.81-10.81,21.9-10.73C589.15,879.22,589.34,898.07,569.52,876.12z"/>
		<path class="st22" d="M536.87,288.99c9.04-7.53,18.07-15.07,27.11-22.6c17.57,2.73,19.03,14.49,14.01,27.77
			c-6.24,16.49-19.24,30.3-19.51,49.21c-10.61,9.56-21.46,8.62-32.47,0.73c-12.21-3-24.42-6.01-36.63-9.01
			c-20.11,3.28-26.61-4.25-18.55-23.35c16.22-0.36,32.43-0.83,48.65-1.04C534.25,310.51,536.55,300.62,536.87,288.99z"/>
		<path class="st16" d="M470.82,311.74c-1.07,13.54,7.09,19.76,18.55,23.35c-30.93,9.68-62.7,4.59-94.14,5.37
			c0.68-21.64,21.43-21.04,33.42-30.15C442.71,310.78,456.77,311.26,470.82,311.74z"/>
		<path class="st0" d="M396.13,289.31c-27.39,15.64-32.63,13.87-34.01-12.24c-0.35-6.67,1.5-13.46,2.33-20.19
			C392.18,250.93,398.74,265.64,396.13,289.31z"/>
		<path class="st5" d="M351.09,876.4c1.74,17.07,3.38,34.32-22.22,32.25c-26.59-2.15-52.7,0.75-79.99-6.61
			c-47.77-12.87-97.6-18.56-146.82-25.37c-16.2-2.24-27.26-7.48-32.92-22.81c1.44-21.37,12.86-32.22,34.28-32.62
			c14.26-0.27,28.52-0.61,42.79-0.92c15.04-8.2,29.28-1.96,43.63,2.35c13.72,5.33,27.82,9.17,42.56,10.6c5,0.49,9.8,1.74,14.48,3.51
			c11.2,10.79,27.3,10.51,40.11,17.64l-0.12,0.14c8.85,9.78,23.75,1.06,32.65,10.68l-0.03-0.02c5.94,6.76,16.23,4.47,22.4,10.75
			C344.96,875.96,348.03,876.1,351.09,876.4z"/>
		<path class="st8" d="M394.1,886.85c-8.26-0.34-16.98,0.21-19.99-10.31c4.68-3.27,19.09,5.11,13.22-9.63
			c-1.59-4-11.6-5.11-13.52-12.48c28.3-4.24,53.42,9.92,80.23,14.35c7.34,1.21,5.97,11.34,6.9,18
			c-5.35,10.07-14.34,15.22-24.79,18.46c-10.96,1.8-20.92-0.41-29.58-7.61l0.05,0.06C402.76,893.72,398.57,890.12,394.1,886.85z"/>
		<path class="st6" d="M188.74,832.39c-12.82-8.8-27.44-11.3-42.54-12.08c41.78-21.93,79.79-6.07,117.34,12.19
			c1.81,0.88,1.22,6.7,1.75,10.21c-7.27,7.08-14.76,6.92-22.43,0.66l-4.77-0.21l-4.77,0.03
			C220.44,831.46,201.6,844.24,188.74,832.39z"/>
		<path class="st10" d="M134.63,767.28c0.07,7.3,0.14,14.61,0.21,21.91c-10.06,27.6-33.28,21.36-54.18,21.08
			c-6.59-7.02-6.63-14.12-0.26-21.29C95.47,774.24,115.31,771.42,134.63,767.28z"/>
		<path class="st10" d="M16.16,777.65c33.07-15.41,33.59-15.27,42.63,11.3c-4.83,8.56-12.98,10.61-21.9,11.15
			C20.7,801.18,14.22,793.31,16.16,777.65z"/>
		<path class="st11" d="M36.89,800.1c3.03-12.1,12.9-10.77,21.9-11.15c7.2,0.01,14.4,0.02,21.6,0.03c0.09,7.1,0.18,14.2,0.26,21.29
			C65.89,807.67,47.72,819.68,36.89,800.1z"/>
		<path class="st17" d="M242.87,843.38c7.48-0.22,14.95-0.44,22.43-0.66c8.76,1.07,18.45,0.41,21.69,11.7
			C272.08,851.54,253.75,862.33,242.87,843.38z"/>
		<path class="st22" d="M319.51,865.23c-11.52-1.61-25.9,5.53-32.65-10.68C298.53,855.71,312.84,848.8,319.51,865.23z"/>
		<path class="st22" d="M341.89,875.97c-9.22,0.05-19.06,1.42-22.4-10.75C328.79,864.96,338.22,864.47,341.89,875.97z"/>
		<path class="st0" d="M809.88,318.73c-4.32-13.44-8.63-26.88-12.95-40.32c21.2-61.25,31.15-67.23,105.46-63.4
			c7.22,21.72,25.02,39.07,26.1,63.32c6.99,36.07-16.56,52.09-44.22,61.68C856.05,349.79,828.07,348.79,809.88,318.73z"/>
		<path class="st4" d="M439.09,897.66c3.15-11.93,12.96-10.49,21.86-10.88c14.45,0.02,28.9,0.03,43.36,0.05
			c0.04,7.22,0.09,14.44,0.13,21.65c-15.02-0.92-22.91,5.67-22.28,21.2c-6.74-0.04-13.49-0.09-20.23-0.13
			c-9.4,0.61-16.89-3.23-23.12-9.98l0.23,0.24c-3.36-2.98-5.5-6.65-6.21-11.12C433.54,904.23,435.56,900.52,439.09,897.66z"/>
		<path class="st16" d="M984.52,403.96c-0.67,28.86-0.62,57.76-2.17,86.58c-2.03,37.79-24.71,54.6-61.19,44.98
			c-34.26-9.04-68.07-19.74-102.08-29.71c-12.33-22.4,5.52-31.23,19.98-34.7c44.49-10.69,77.32-35.47,102.79-72.57
			c8.23-11.99,20.52-20.41,37.08-15.91C987.54,387.96,988.31,395.36,984.52,403.96z"/>
		<path class="st17" d="M981.89,387c-11.5-0.6-22.25,2.56-27.26,13.11c-22.78,47.94-60.17,75.92-112.45,83.37
			c-14.2,2.02-23.98,5.97-23.11,22.33c-3.42,0.16-6.84,0.29-10.26,0.38c-3.98,6.41-7.91,6.38-11.8-0.09
			c-5.23-1.63-8.43-4.77-7.98-10.66c2.14-21.95-6.37-32.7-29.58-28c-25.59-13.27-70.27-32.29-58.99-72.05
			c14.65-9.99,44.9-0.2,61.45,1.91c28.44,4.96,51.2,26.12,80.64,28.25c32.47-2.09,48.04-29.29,70.34-46.68
			c21.58-16.82,40.92-43.93,74.38-22.22C991.98,367.94,991.62,378.3,981.89,387z"/>
		<path class="st23" d="M884.84,615.7c-1.94-22.12-15.81-42.18-11.28-65.41c42.85,6.12,48.24,12.74,54.16,66.59
			c-5.84,6.36-13.39,8.28-21.65,8.47C897.78,624.84,890.6,621.82,884.84,615.7z"/>
		<path class="st18" d="M981.89,387c0.67-10.81,1.33-21.62,2-32.44c2.1-15.29,11.57-24.39,25.16-30.1
			c14.23-4.33,27.24-2.28,38.73,7.54c1.21,3.72,2.42,7.44,3.63,11.16c-24.49,16.27-36.65,43.27-55.83,64.16
			c-3.69-1.12-7.38-2.24-11.07-3.37C983.64,398.31,982.76,392.65,981.89,387z"/>
		<path class="st11" d="M907.01,617.1c6.9-0.07,13.81-0.14,20.71-0.21c2.99,3.93,5.47,8.42,9.05,11.7
			c19.02,17.43,14.66,27.83-9.38,32.76c-7.13-0.82-14.25-1.63-21.38-2.45C895.59,644.71,894.27,630.74,907.01,617.1z"/>
		<path class="st23" d="M797.01,506.09c3.93,0.03,7.86,0.06,11.8,0.09c3.54,7.38,7.07,14.76,10.61,22.15
			c-4.02,0.08-8.04,0.16-12.06,0.24C796.72,524.39,797.89,514.77,797.01,506.09z"/>
		<path class="st20" d="M721.69,495.64c2.07,20.08,31.35,17.35,32.18,38.14c0.49,12.32,2.52,25.5-0.95,36.82
			c-4.39,14.34-20.79,16.93-32.78,23.48c-3.71,3.23-7.76,3.9-12.21,1.62c-6.02-3.73-10.17-9.02-12.88-15.46
			c-1.22-4.28-1.58-8.67-1.05-13.1c3.25-10.65,11.75-16.68,20.18-22.64c-0.56-1.48,7.68,0.95,1.41-3.24c0.01,3.01-1.8,4.8-5.55,5.46
			c-33.82,27.38-49.03-0.68-66.55-22.1c-1.29-2.1-2.49-4.22-3.78-6.33c-1.8-4.69-2.74-9.53-2.97-14.54
			c0.63-10.58,4.52-19.31,14.1-24.8c9.09-4.28,18.66-4.82,28.44-3.47c4.58,0.75,9.06,2.05,13.42,3.65
			c8.47,3.19,17.06,6.23,24.75,11.26C718.86,492.11,720.28,493.88,721.69,495.64z"/>
		<path class="st27" d="M710.87,591.84c2.94,1.34,6.03,2.09,9.27,2.24c-6.87,12.25-21.9,13.15-31.02,22.28
			c-12.81,11.75-25.09,24.6-44.97,21.97c-3.61-3.82-6.31-8.17-8.08-13.13c-3.45-13.07-3.62-26.13-0.03-39.2
			c2.17-4.87,4.95-9.39,8.25-13.58c2.86-11.44,2.32-22.7-1.8-33.77c-4.41-7.62-3.18-14.63,2.3-21.17c5.92-0.5,11.1,1.95,12.83,7.2
			c9.21,28.07,25.9,31.28,49.39,16.36c4.33-2.75,10.37-2.79,15.62-4.08l1.04,1.32c-8.15,10.65-16.29,21.29-24.44,31.94
			c-2.32,3.33-4.48,6.77-6.27,10.13c1.98,3.11,4.55,5.54,8.04,6.94C704.42,588.49,707.71,590.03,710.87,591.84z"/>
		<path class="st20" d="M710.64,409.14c14.62,21.41,33.01,38.89,54.9,52.72c2.1,2.31,2.86,4.67,2.28,7.08
			c-0.59,2.43-1.22,3.65-1.88,3.65c-1.07,33.94-27.12,19.93-44.25,23.04c-8.65-10.31-23.77-1.22-32.64-10.89l0.06,0.04
			c-5.52-4.42-11.57-8.33-14.33-15.29c-0.46-4.63,0.38-9.07,2.42-13.25c4.29-7.3,10.25-13.64,13.1-21.81
			c1.02-6.01,1.52-12.09,2.73-18.08c1.27-3.97,3.46-7.35,6.61-10.09c2.02-0.27,4.06-0.54,6.08-0.8
			C707.35,406.7,709,407.92,710.64,409.14z"/>
		<path class="st20" d="M645.98,641.77c10.03-15.86,18.14-34.96,43.14-25.41c23.52,13.42,25.5,27.08,0.46,41.04
			c-7.46,0.86-14.92,1.72-22.38,2.58c-6.98-0.99-13.96-1.98-20.94-2.96C638.99,652.06,641.03,646.94,645.98,641.77z"/>
		<path class="st16" d="M765.94,472.59c-0.36-3.57-0.49-7.14-0.4-10.73c5.85-12.73,19.39-13.04,25.29-6.45
			c10.44,11.68,13.41,27.35-1.8,40.02C782.53,486.61,776.62,477.19,765.94,472.59z"/>
		<path class="st15" d="M809.88,318.73c66.16,25.05,86.47,18.14,118.61-40.4c30.67,0.33,51.17-12.15,69.52-38.91
			c18.74-27.34,43.33-51.31,60.25-80.3c8.73-14.94,21.03-9.67,32.45-11.55c0.42,3.95,0.83,7.89,1.25,11.84
			c-0.09,7-0.18,14.01-0.27,21.01c-0.87,6.46-4.06,11.77-8.15,16.61c-6.12,6.57-6.2,14.88-6.44,23.18
			c-0.76,9.56-5.16,16.92-13.09,22.21c-15.7,6.65-24.91,19.21-31.23,34.44c-2.64,4.15-5.85,7.76-9.48,11.03
			c-9.95,7.78-19.99,15.39-29.06,24.24c-53.16,51.89-106.54,103.31-190.29,63.41c-17.27,2.82-34.77,2.58-52.11,4.49
			c-7.75,1.17-15.31,3.25-23.13,4.15c-8.42,0.76-16.52-0.38-24.33-3.73c-18.52-11.97-32.57-25.32-14.37-48.22
			c31.67,0.11,63.34,0.12,95.01,0.4C796.14,332.74,806.17,331.56,809.88,318.73z"/>
		<path class="st4" d="M907.01,617.1c-0.33,13.94-0.66,27.87-0.99,41.81c-38.28-4.63-39.12-6.35-21.17-43.21
			C892.23,616.16,899.62,616.63,907.01,617.1z"/>
		<path class="st17" d="M1080.22,191.28c1.31-6.27,5.11-9.92,11.47-10.85c10.61,4.67,10.14,11.5,5.85,21.14
			c-14.82,33.26-22.13,69.87-44.65,99.7c-7.09,9.4-4.43,20.33-5.12,30.74c-14.46,0.49-28.91,0.99-43.37,1.48
			c-17.15-27.91,9.7-38.65,21.57-55.23l0.04-0.03c10.06-15.07,18.18-31.58,32.5-43.47c11.47-3.33,10.77-12.72,10.81-21.73
			C1069.67,204.13,1073.71,197.08,1080.22,191.28z"/>
		<path class="st19" d="M699.7,409.76c-0.29,6.51-0.58,13.03-0.86,19.54c-5.23,17.32-22.46,22.52-33.88,33.62
			c-74.94,46.74-158.08,66.42-244.82,74.33c-5.62-1.67-10.18-4.86-13.72-9.52c3.1-35.61,32.03-43.34,58.31-53.57
			c22.91-8.92,46.9-15.44,68.99-26.01c30.76-14.72,34.25-30.38,11.68-57.11c-12.12-14.36-22.49-27.28-19.4-46.95
			c10.82-0.24,21.64-0.49,32.47-0.73c4.77,9.3,12.82,10.51,22.01,8.95c23.59,7.86,46.99,16.44,72.03,18.68
			c15.98-0.03,27.12,9.55,38.28,19.17C696.06,395.65,699.67,401.9,699.7,409.76z"/>
		<path class="st16" d="M688.2,397.8c-12.76-7.79-30.87-8.45-35.69-26.8c17.71-16.75,7.44-50.51,36.66-60.25
			c0.27,7.16,0.55,14.33,0.82,21.49c-7.61,21.62,9.82,30.96,21.22,43.26C715.79,395.57,700.67,395.32,688.2,397.8z"/>
		<path class="st25" d="M418.11,530.12c87.13-13.01,171.06-35.97,248.32-79.73c11.15-2.73,14.34,2.31,12.2,12.53l-0.39,0.49
			c-4.23,10.22-13.68,15.09-21.82,21.3c-11.17,3.12-10.28,12.27-10.45,20.89c-3.19,3.71-6.92,6.76-11.16,9.2
			c-14.12,5.83-28.78,1.7-43.19,2.35c-7.4,1.32-14.79,2.64-22.19,3.96c-4.36,1.29-8.36,3.29-12,6.02
			c-53.3,12.44-108.53,16.85-159.62,38.46c-2.17-7.23-5.38-13.53-13.66-15.31c-0.66-3.59-0.32-7.08,1.02-10.47
			C393.81,528.7,408.41,537.71,418.11,530.12z"/>
		<path class="st26" d="M646.23,585.27c-0.57,13.46-1.15,26.92-1.72,40.38c-7.02,13.14-13.66,26.69-31.13,28.34
			c-13.4,5.22-27.2,3.39-40.96,2.38c-6.23-6.19-13.87-11.49-18.41-18.74c-12.48-19.93-22.65-40.18-2.35-62.27
			c19.53-21.25,37.28-25.89,65.44-13.87c6.38,2.72,12.16,6.87,18.21,10.36C639.67,575.73,643.16,580.33,646.23,585.27z"/>
		<path class="st1" d="M591.61,517.16c9.53-15.85,25.72-6.68,38.52-10.25c6.47,1.76,11.66,5.28,15.24,11.04l-0.57-0.48
			c-0.77,7.06-1.53,14.12-2.3,21.17C621.96,539.96,604.07,534.98,591.61,517.16z"/>
		<path class="st1" d="M557.42,527.14c1.98-6.03,5.88-8.25,12-6.02C567.04,526.34,563.04,528.35,557.42,527.14z"/>
		<path class="st1" d="M646.23,585.27c-7.21-1.57-10.06-6.69-10.92-13.42c3.01-0.1,6.01,0.09,8.99,0.56
			C644.94,576.7,645.58,580.99,646.23,585.27z"/>
		<path class="st24" d="M613.38,653.99c10.38-9.45,20.75-18.89,31.13-28.34c0.49,5.37,0.99,10.74,1.48,16.12
			c0.09,5.08,0.18,10.17,0.27,15.25C635.3,656.01,624.34,655,613.38,653.99z"/>
		<path class="st6" d="M276.76,539.98c-11.94-4.42-12.49-21.05-25.78-24.02c0.74-3.46,0.06-6.62-2.04-9.47
			c15.44-5.92,25.71,6.23,38.11,10.91C286.98,526.46,288.93,536.44,276.76,539.98z"/>
		<path class="st20" d="M418.11,530.12c-8.22,12.62-21.6,7.72-32.95,9.71c0.12-3.72,0.24-7.44,0.36-11.16
			c6.97-0.31,13.94-0.62,20.91-0.93C410.32,528.53,414.21,529.32,418.11,530.12z"/>
		<path class="st14" d="M188.46,974.96c-20.68-1.27-35.71-16.11-54.25-22.53c3.99-10.18,12.33-13.63,21.62-10.32
			c68.9,24.51,141.02,32.59,212.75,42.75c3.23,0.46,8.69,2.36,8.89,4.08c0.78,6.71-5.04,6.34-9.66,6.74
			C306.61,1001.05,247.51,988.21,188.46,974.96z"/>
		<path class="st14" d="M460.71,963.17c17.09,6.5,9.13,21.19,10.72,32.76C455.43,989.08,462.25,974.76,460.71,963.17z"/>
		<path class="st14" d="M460.88,941.22c-0.09,7.29-0.17,14.59-0.26,21.88c-4.32-0.24-8.63-0.48-12.95-0.72
			c0.44-6.79,0.88-13.59,1.31-20.38c3.7-4.09,7.66-4.35,11.87-0.8L460.88,941.22z"/>
		<path class="st25" d="M460.86,941.21c-3.96,0.27-7.92,0.53-11.87,0.8l0.08-0.13c-2.19-5.01-6.02-8.53-10.44-11.51
			c-0.6-3.61-0.54-7.2,0.18-10.79c9.52-0.88,18.69-0.93,23.12,9.98C461.57,933.43,461.21,937.32,460.86,941.21z"/>
		<path class="st28" d="M439.09,897.66c0.01,3.6,0.05,7.19,0.1,10.78c-3.71,3.71-6.91,7.94-11.22,11.03
			c-10.85-3.64-18.43-10.48-21.39-21.85C417.41,897.64,428.25,897.65,439.09,897.66z"/>
		<path class="st28" d="M394.1,886.85c6.9,0.45,11.45,3.64,12.51,10.83C399.91,897.01,396.13,892.94,394.1,886.85z"/>
		<path class="st25" d="M427.97,919.47c1.36-6.1,5.12-9.76,11.22-11.03c-0.05,3.79-0.1,7.58-0.15,11.36
			C435.35,919.69,431.66,919.58,427.97,919.47z"/>
		<path class="st23" d="M438.62,930.36c6.42,1.17,10.26,4.68,10.44,11.51C442.74,940.61,439.53,936.53,438.62,930.36z"/>
		<path class="st22" d="M188.74,832.39c15.05,2.8,33.29-7.51,44.58,10.81C218.26,840.45,199.71,852.03,188.74,832.39z"/>
		<path class="st22" d="M1025.97,278.25c4.86,23.12-27.2,31.82-21.57,55.23c-4.04,9.75-11.01,16.66-20.52,21.08
			c-39.92,1.41-59.96,32.89-85.16,56.46c-16.42,15.35-29.65,36.48-57.39,30.22c-14.5-23.75-34.33-45.2-32.8-75.88
			c4.48-10.6,10.85-12.03,20.86-6.01c49.03,29.48,47.88,27.52,95.2-5.41c25.42-17.69,47.32-38.25,68.95-59.65
			C1002.72,285.21,1011.62,276.47,1025.97,278.25z"/>
		<path class="st12" d="M808.54,365.37c15.8,23.19,42.4,41.71,32.8,75.88c-28.56-3.74-50.84-22.05-76.34-32.88
			c-9.52-9.34-18.21-19.33-24.73-31.08c-1.22-4.62-0.16-8.65,3.16-12.09C765.13,365.26,786.83,365.31,808.54,365.37z"/>
		<path class="st23" d="M743.23,375.66c25.11-0.97,22.26,16.65,21.77,32.71c-18.12,0.26-36.24,0.52-54.36,0.78l-0.05-0.45
			c-2.74-3.59-6.27-4.72-10.59-3.4c0,0-0.3,4.47-0.3,4.47c-3.83-3.99-7.67-7.97-11.5-11.96c2.34-12.94,21.04-8.99,23.02-22.3
			c6.72-0.41,13.44-0.82,20.15-1.24C735.69,371.61,739.65,372.08,743.23,375.66z"/>
		<path class="st13" d="M656.41,484.71c4.18-10.27,10.93-17.91,21.82-21.3c3.63,7.13,7.25,14.26,10.88,21.38
			C678.21,484.77,667.31,484.74,656.41,484.71z"/>
		<path class="st13" d="M689.05,484.75c11.49,1.8,26.14-5.87,32.64,10.89C710.14,494.01,695.62,501.3,689.05,484.75z"/>
		<path class="st13" d="M668.94,582.84c4.82-16.86,20.15-8.52,30.29-12.63c0.41,3.98,0.82,7.95,1.23,11.93
			c-1.67,1.63-3.35,3.26-5.02,4.89C686.32,587.43,676.82,590.28,668.94,582.84z"/>
		<path class="st13" d="M722.63,536.95c0.47-4.61,3.34-6.99,5.79-4.43c2.37,2.48-0.18,5.33-4.75,5.75L722.63,536.95z"/>
		<path class="st27" d="M645.37,517.94c-9.1,1.88-11.38-5.68-15.24-11.04c5.28-0.43,10.55-0.87,15.83-1.3
			C645.76,509.72,645.56,513.83,645.37,517.94z"/>
		<path class="st13" d="M710.87,591.84c-3.69,0.21-7.38,0.42-11.06,0.63c-3.46-1.97-4.66-4.01-3.61-6.14
			c1.07-2.17,2.15-3.25,3.27-3.25l0.98-0.93C706,583.15,709.7,586.13,710.87,591.84z"/>
		<path class="st20" d="M699.47,583.07c0.23,3.13,0.35,6.26,0.34,9.4c-11.34,0.17-26,10.98-30.87-9.63
			C679.12,582.92,689.29,582.99,699.47,583.07z"/>
		<path class="st13" d="M678.62,462.92c-1-7.16-5.88-10.54-12.2-12.53c7.66-11.87,22.07-13.34,32.42-21.08
			c4.94,1.75,10.53,5.15,6.8,10.25C698.58,449.19,691.01,459.08,678.62,462.92z"/>
		<path class="st12" d="M700.01,405.3c6.52-8.17,9.2-4.38,10.59,3.4C707.06,407.56,703.53,406.43,700.01,405.3z"/>
		<path class="st22" d="M1058.51,234.75c0.63,23.06-14.85,34.07-32.5,43.47C1024.67,254.63,1028.38,234.81,1058.51,234.75z"/>
		<path class="st22" d="M1080.22,191.28c-0.03,9.05,1.13,18.7-10.9,21.74C1055.26,196.24,1055.26,196.24,1080.22,191.28z"/>
		<path class="st16" d="M743.23,375.66c-3.95-0.46-7.9-0.93-11.85-1.39c2.13-5.53,5.98-8.76,12.05-9.06
			C743.45,368.69,743.39,372.17,743.23,375.66z"/>
		<path class="st29" d="M602.83,593.77c16.11,13.14,5.63,22.16-5.76,28.79c-9.77,5.68-17.71-1.63-21.96-9.64
			c-8.14-15.37,4.42-17.68,14.85-20.73C594.67,589.34,598.94,590.03,602.83,593.77z"/>
		<path class="st26" d="M602.83,593.77c-4.29-0.53-8.58-1.06-12.86-1.58c2.54-3.35,5.07-6.69,7.61-10.04
			C599.33,586.02,601.08,589.89,602.83,593.77z"/>
	</g>
</g>
</svg>
