<?xml version="1.0" encoding="utf-8"?>
<!-- Generator: Adobe Illustrator 23.1.0, SVG Export Plug-In . SVG Version: 6.00 Build 0)  -->
<svg version="1.1" id="Calque_1" xmlns="http://www.w3.org/2000/svg" xmlns:xlink="http://www.w3.org/1999/xlink" x="0px" y="0px"
	 viewBox="0 0 1158.01 1080" style="enable-background:new 0 0 1158.01 1080;" xml:space="preserve">
<style type="text/css">
	.st0{fill:#DDD8CF;}
	.st1{fill:#408637;}
	.st2{fill:#68E741;}
	.st3{fill:#61DE41;}
	.st4{fill:#50B63E;}
	.st5{fill:#5AD141;}
	.st6{fill:#489F3B;}
	.st7{fill:#ECECE7;}
	.st8{fill:#55C640;}
	.st9{fill:#D9D6CD;}
	.st10{fill:#3F7F33;}
	.st11{fill:#428E37;}
	.st12{fill:#449239;}
	.st13{fill:#E6E0D9;}
	.st14{fill:#D2CEC8;}
	.st15{fill:#CCC6BF;}
	.st16{fill:#B44531;}
	.st17{fill:#C7533E;}
	.st18{fill:#47983A;}
	.st19{fill:#C9CFB9;}
	.st20{fill:#9F3C3C;}
	.st21{fill:#833B37;}
	.st22{fill:#393F45;}
	.st23{fill:#314276;}
	.st24{fill:#8E8E8E;}
	.st25{fill:#DEDDD7;}
	.st26{fill:#4CA03C;}
	.st27{fill:#808080;}
</style>
<g>
	<g>
		<path class="st0" d="M889.25,1043.1c-7.79,0-15.57,0-23.36,0c-54.51,3.36-109.01-13.71-163.52,0
			c-20.24,0.36-39.95-1.38-58.95,11.15c-24.38,16.08-54.74,16.07-82.32,23.67c-24.78,6.82-44.95-13.68-70.14-12.81
			c-16.53,0.57-24.59-21.82-38.14-31.88c-11.84-8.79-6.74-20.84-7.2-31.61c-0.74-17.25-0.2-34.56-0.2-51.85
			c3.13-2.59,4.18-5.18,3.13-7.78c-1.04-2.59-2.08-3.89-3.13-3.89c1.68-12.4,17.39-20.13,11.68-35c-3.65-5.16-3.36-10.1,0.85-14.81
			c7.97-4.03,15.89-3.97,23.71,0.33c20.38,21.01-9.72,65.62,35.26,75.07c50.88,19.09,80.32-20.04,115.75-42.59
			c5.9-5,11.55-10.25,16.66-16.08c11.58-14.77,22.75-30.02,41.56-36.56c29.04-5.35,40.74-37.86,69.22-44.24
			c69.11-5.89,138.27-10.66,207.53-6.24c54.92,3.5,95.47,27.34,108.5,85.13c0,3.89,0,7.78,0,11.67
			c-12.2,33.97-27.19,64.89-70.75,64.54c-16.61-4.68-18.94-17.8-18.09-32.08c2.61-43.68-24.49-52.98-59.84-50.6
			c-43.47,2.93-90.97,41.19-89.47,70.19c1.87,36.18,46.79,32.56,56.6,61.34C895.04,1033.93,893.16,1038.88,889.25,1043.1z"/>
		<path class="st1" d="M387.01,903.1c-20.18-0.31-41.22,3.66-58.4-11.67c-20.69-25.76-1.18-47.25,7.71-69.63
			c26.42-66.45,84.13-110.28,122.15-168.32c4.29-6.55,17.22-13.29,7.72-22.51c-3.33-3.24-12.79,6.28-19.6,9.65
			c-23.98,11.85-38.47,47.92-74.48,29.31c-10.5-25.17,7.48-39.77,21.13-55.56c30.62-35.39,67.52-64.05,104.84-91.58
			c95.66-70.56,166.34-155.71,174-280.35c3.27-4.88,7.86-7.76,13.67-8.68c24.36,6.05,31.64,28.97,45.29,45.66
			c7.01,11.4,12.5,23.61,18.37,35.63c4.79,9.69,9.1,19.59,12.89,29.73c7.73,36.13,35.59,62.82,46.05,97.7
			c3.85,23.27,3.64,46.61,1.54,69.98c-6.22,20.79-15.93,50.26-40.32,24.3c-41.08-43.71-71.08-14.22-99.91,8.74
			c-62.49,49.78-110.6,113.73-161.9,174.36C460.17,776.12,416.42,834.9,387.01,903.1z"/>
		<path class="st2" d="M13.25,436.44c-0.31-53.53,28.61-96.86,53.84-139.81c33.44-56.93,81.21-101.46,136.26-139.54
			c26.74-18.49,45.04-25.08,84.22-35.5c41.98-8.86,69.96-11.35,111.12-11.82c28.09,61.92-13.71,106.82-46.61,144.63
			c-71.3,81.94-151.37,156.3-261.65,185.73C64.16,447.15,38.04,457.63,13.25,436.44z"/>
		<path class="st3" d="M13.25,436.44c38.56,5.33,72.22-10.87,107.22-22.99c63.29-21.91,114.9-59.58,159.54-108.66
			c12.3-13.53,23.31-28.85,44.16-34.13c17.7-4.48,19.41-26.75,27.97-40.41c22.96-36.63,52.36-72.25,46.54-120.48
			c32.54,0,59.29,4.21,93.44,11.67c12.73,17.28,15.09,36.98,4.41,54.52c-52.52,86.25-87.31,185.1-185.7,237.55
			c-64.47,34.37-120.48,83.82-188.32,113.23c-39.75,17.23-79.93,30.32-120.95,3.03C-4.57,497.41,8.96,468.48,13.25,436.44z"/>
		<path class="st4" d="M590.46,170.59c6.8,4.03,22.37,9.19,30.16,9.19c20.99-4.24,26.5,9.23,29.52,25.64
			c14.49,121.59-52.63,201.41-139.51,270.85c-18.23,14.57-38.1,27.64-52.79,45.72c-77.4,95.3-186.54,136.51-297.26,174.61
			c-37.12,12.77-75.59,20.45-112.28-3.51c-11.07-13.76-13.09-29.79-11.68-46.67c8.33-12.03,21.16-17.43,34.39-19.86
			c185.31-34.03,316.43-154.26,443.88-279.46c32.39-31.82,48.93-73.42,55.68-119.05C573.27,209.85,558.26,173.62,590.46,170.59z"/>
		<path class="st5" d="M1.57,529.77c61.72,7.7,116.32-9.94,167.3-44.21c54.21-36.44,108.65-72.74,164.91-105.86
			c40.01-23.56,65.65-56.66,85.41-97.25c14.14-29.06,29.44-58.43,49.42-83.54c19.05-23.95,25.39-48.7,23.53-77.46
			c20.61,7.78,41.23,15.53,61.83,23.35c5.29,2.01,13.04,4.11,22.5,12.27c1.44,48.18-28.61,92.49-55.05,129.84
			c-55.52,78.44-110.82,157.23-203.58,200.75c-59.1,27.73-110.46,71.44-171.83,95.86c-43.06,17.13-87.5,33.21-132.75,4.58
			C8.96,565.8-0.37,550.38,1.57,529.77z"/>
		<path class="st6" d="M48.29,693.1c79.24,11.97,146.99-27.05,218.55-49.14c10.04-26.03,38.29-21.41,57.27-30.88
			c23.74-11.85,46.18-23.3,63.47-43.21C441.92,507.31,512.21,461.83,568.06,401c10.11-11.02,20.74-21.52,30.13-33.65
			c28.04-36.24,38.37-74.96,35.26-120.18c-0.93-13.52-14.49-34.92,10.53-44.06c13.55-8.17,23.89-0.5,34.3,6.9
			c8.1,9.14,20.66,27.03,0.74,28.1c0,87,1.22,87.66-37.44,159.25c-26.65,49.36-68.65,86.92-112.52,119.94
			c-53.28,40.1-103.38,83.06-149.76,130.72c-6.83,7.02-2.39,14.59-3.96,21.75c-3.15,5.35-7.36,9.65-12.59,12.98
			c-85.17,38.66-170.98,74.96-267.73,68.69C68.45,740.78,59.28,716.22,48.29,693.1z"/>
		<path class="st7" d="M679.01,214.78c-14.88,5.71-22.62-9.98-35.04-11.67c-2.84-12.72-10.63-20.5-23.36-23.33
			c11.07-13.76,13.09-29.79,11.68-46.67c7.36-6.05,4.88-17.01,11.68-23.33c27.12-42.9,63.24-41.86,98.79-15.04
			c25.36,19.14,42.8,20.79,71.12,2.97c39.13-24.63,68.58,3.83,94.52,31.81c14.19,22.14,31.11,43.32,26.14,72.29
			c-1.35,5.46-3.83,10.47-7.1,15.04c-56.39,11.86-81.08,48.25-80.18,104.16c1.16,7.66,2.97,15.15,5.6,22.47
			c4.79,12.88,10.23,25.61,7.69,39.88c-14.17,31.64-35.27,29.43-59.45,12.11c-20.29-14.53-33.46-36.11-52-52.37
			c-3.89-7.78-7.79-15.56-11.68-23.33c3.32-26.12-0.16-52.52,6.23-78.81c3.69-15.19,7.22-35.98-17.85-41.16
			c-4.58,1.04-9.13,2.02-13.58,3.42C701.16,207.16,691.3,214.51,679.01,214.78z"/>
		<path class="st8" d="M13.25,588.1c81.79,8.24,152.46-18.08,215.18-69.1c30.74-3.56,52.34-25.9,74.88-42.31
			c22.6-16.45,50.25-20.81,71.88-39.03c9.61-8.1,21.23-15.76,29.39-25.29c36.4-42.55,73.71-84.66,106.01-130.23
			c14.95-21.09,18.2-50.17,28.6-74.85c7.21-17.1,2.28-46.24,19.54-58.79c17.79-0.16,26.12,14.93,38.53,31.27
			c-16.08,0.16-12.24,12.67-11.38,20.86c5.95,56.96-19.96,103.49-48.26,149.12c-4.98,8.04-12.37,15.88-20.54,20.44
			c-49.69,27.76-82.49,73.84-122.55,111.9c-39.4,37.44-81.72,68.99-135.21,82.15c-8.71,2.14-12.97,7.36-18.26,12.32
			c-28.68,26.88-66.85,35.81-100.4,53.43c-3.19,1.67-6.94,5.13-9.62,4.47c-33.11-8.21-36.86,11.87-67.96,16.84
			c-1.83,0-26.81,9.29-26.85,9.02C33.14,639.98,17.8,611.89,13.25,588.1z"/>
		<path class="st9" d="M1076.13,903.1c-12.53-2.2-18.48-11.28-23.41-21.79c-15.96-34.03-43.67-48.48-80.44-48.27
			c-44.63,0.25-89.27,0.06-133.9,0.06c-5.82,0-14.2-2.51-17.06,0.39c-24.64,24.98-48.29,0.73-72.23-0.39
			c-23.41-31.65-24.03-65.9-12.72-102.08c9.56-30.55,21.74-60.77,17.65-93.99c0.48-13.06,5.93-23.83,15.06-32.94
			c13.11-10.06,26.7-15.97,42.07-4.42c21.71,26.35-3.68,70.97,27.55,89c30.57,17.64,60.55-15.75,92.71-16.91
			c28.98-1.04,56.94,3.5,83.46,15.56c4.37,3.86,6.78,8.7,6.97,14.55c-6.08,19.5-22.99,23.23-39.8,27.96
			c-13.69,3.85-34.57,1.94-32.85,23.57c1.29,16.32,18.76,16.97,31.53,19.03c57.96,9.36,96.72,42.03,118.76,95.65
			C1101.37,886.2,1094.58,898.53,1076.13,903.1z"/>
		<path class="st10" d="M363.65,669.77c3.89,0,7.79,0,11.68,0c15.99,4.14,25.94-5.46,33.79-16.57c19.3-27.32,51.81-35,77.37-52.94
			c3.38-2.37,12.51-3.25,15.14,3.65c1.73,4.54,2.24,12.29-0.43,15.34c-32.08,36.51-52.85,81.28-89.7,114.79
			c-39.74,36.14-60.34,86.26-82.49,134.29c-2.95,6.4-0.41,15.34-0.41,23.1c-22.74,2-43.94-3.05-65.15-11.42
			c-60.07-23.69-120.7-46.07-156.77-105.24c-24.25-36.07,30.09-20.46,48.11-23.06C230.95,740.76,308.74,734.54,363.65,669.77z"/>
		<path class="st11" d="M807.49,599.77c-14.88-5.71-22.62,9.98-35.04,11.67c-47.42-44.03-57-44.34-110.39,8.16
			c-81.72,80.36-157.25,165.74-204.97,271.84c0,3.89,0,7.78,0,11.67c-23.36,0-46.72,0-70.08,0c-7.54-36.06,13.42-63.98,29.26-92.06
			c9.71-17.21,24.02-33.17,36.97-48.14c65.58-75.83,124.15-158.06,199.99-224.73c27.96-24.58,58.4-43.39,97.97-43.92
			c18.75-0.25,23.74,6.75,21.28,23.28c-0.28,1.89,0.11,3.87-0.06,5.79c-0.95,10.58,0.43,20.14,14.28,17.9
			c14.67-2.37,7.4-14.83,9.1-23.12c48.46-13.21,93.5-11.49,129.56,29.54c2.96,5.79,3.32,11.8,1.18,17.94
			C889.45,585.83,850.67,600.42,807.49,599.77z"/>
		<path class="st12" d="M1099.49,284.77c0,15.56,0,31.11,0,46.67c-4.91,40.97-25.49,75.42-45.82,110.03
			c-28.62,18.48-61.17,21.99-94,24.59c-6.31-0.47-11.74-2.91-16.36-7.21c-12.48-19.37-10.49-40.81-9.08-62.22
			c0.52-6.09,1.69-12.06,3.16-17.97c1.75-8.98,5.06-17.63,5.52-26.91c1.76-38.45-1.77-77.05,1.48-115.28
			c5.51-64.79,40.91-108.47,100.95-132.59c30.15,20.07,14.33,43.41,3.08,64.75c-32.54,61.72-33.04,61.51,28.6,98.16
			C1085.39,271.77,1092.44,278.23,1099.49,284.77z"/>
		<path class="st13" d="M889.25,1031.43c-7.31-22.39-31.28-9.36-45.9-22.08c-20.61-17.95-35.73-50.73-18.38-70.41
			c32.91-37.33,72.43-63.22,125.77-59.51c10.2,0.71,16.71,5.51,25.01,9.99c33.54,18.12,37.77,24.06,24.36,59.63
			c-4.37,11.59-12.51,19.84,5.94,24.05c14.62,34.72-15.79,40.76-34.84,52.81c-14.07,8.9-34.45,2.54-46.92,17.19
			c-7.79,0-15.57,0-23.36,0C896.75,1039.5,892.86,1035.61,889.25,1031.43z"/>
		<path class="st5" d="M900.93,133.11c-9.8,1.41-12.26-8.01-18.12-12.36c-45.7-33.97-55.64-32.91-86.51,14.7
			c-7.24,11.16-13.2,12.77-21.59,5.36c-13.04-11.53-23.49-26.38-37.52-36.31c-20.9-14.79-43.47-28.3-69.19-6.64
			c-6.64,5.59-24.44,15.51-24.03,11.92c-11.68,6.7-2.49-40.13,23.36-46.67c7.73-0.01,16.01-2.3,23.07-0.61
			c55.38,13.25,91.84-10.61,117.09-57.72c16.9-1.41,32.94,0.61,46.72,11.67c5.92,5.99,7.71,13.25,5.13,21.03
			c-4.47,13.48-8.59,26.28,9.94,32.91c15.53,5.55,25.77-1.99,34.96-12.95c11.11-13.25,18.66-29.26,31.73-40.99
			c26.24-0.86,50.34,4.72,70.08,23.33C985.93,87.65,963.4,132.82,900.93,133.11z"/>
		<path class="st8" d="M900.93,133.11c8.31-1.75,18.38,4.87,23.8-9.05c7.52-19.3,29.88-24.12,43.37-38.87
			c13.4-14.65,12.9-41.05,37.95-45.42c25.65-1.75,36.45,16.27,46.72,35c8.2,11.67,10.34,23.33,0,35
			c-12.24-1.75-24.74,0.12-29.19,12.25c-8.89,24.21-27.42,40.21-45.61,55.82c-16.48,14.13-19.61,30.02-19.05,50.24
			c1.29,46.09,0.41,92.24,0.41,138.36c-2.26,1.51-4.52,3.01-6.78,4.53c-5.36-1.7-9.48-4.93-12.24-9.88
			c-3.36-7.55-4.89-15.53-5.6-23.7c-0.89-8.04-1.16-16.13-1.3-24.22c0.36-26.79-1.12-53.44-6.64-79.77
			c-2.24-9.99,7.6-20.92-2.48-30.3c0.08-16.76,2.8-34.33-15.58-44.81C898.47,152.47,900.98,142.3,900.93,133.11z"/>
		<path class="st14" d="M1099.49,868.1c-8.3-1.68-18.75,4.97-23.58-8.93c-18.76-53.98-60.88-71.89-114.16-72.91
			c-30.53-0.59-41.02-13.05-37.4-42.06c2.09-16.69,10.65-27.22,28.73-27.79c22.11-0.7,45.33,4.59,64.65-11.65
			c33,37.03,96.2,43.91,105.12,105C1124.83,833.11,1105.34,847.88,1099.49,868.1z"/>
		<path class="st1" d="M1052.77,109.78c0-11.67,0-23.33,0-35c33.33,12.45,32.18,46.09,41.35,71.77
			c9.66,27.03,9.96,57.26,17.62,85.19c5.8,21.17-17.86,33.32-12.24,53.04c-9.54,0-24.85,3.72-27.66-0.62
			c-14.75-22.78-41.05-25.96-61.52-32.33c-21.37-6.65-19.17-21.08-14.83-28.29c9.19-15.23,13.82-33.28,29.15-45.64
			C1045.58,160.99,1055.6,137.52,1052.77,109.78z"/>
		<path class="st1" d="M959.33,459.77c0-1.87-0.16-5.35,0.02-5.37c31.7-3.13,60.96-18.94,93.42-17.96
			c29.23,16.19,34.46,40.38,23.36,70c7.79,27.22,15.57,54.44,23.36,81.67c2.5,5.08,1.82,9.68-2.05,13.83
			c-13.54,7.99-25.1,1.65-36.69-4.87c-9.06-5.17-18.25-10.11-28.03-13.92c-19.95-8.75-42.65-12.63-56.66-31.9
			C968.8,521.06,955.41,491.99,959.33,459.77z"/>
		<path class="st15" d="M1122.85,809.77c-11.65,0.44-19.07-9.77-21.23-16.46c-9.12-28.31-27.23-39.94-56.2-44.59
			c-20.42-3.28-35.62-18.52-27.69-43.95c0-3.89,0-7.78,0-11.67c2.24-4.99,5.33-9.38,9.16-13.28c31.65-14.26,30.21-67.94,76.84-64.53
			c5.82,1.64,10.76,4.63,15.02,8.89c21.36,28.01,33.84,57.55,15.79,92.26c0,26.34,0,52.67,0,79.01
			C1134.53,803.38,1133.61,810.58,1122.85,809.77z"/>
		<path class="st1" d="M363.65,669.77c0,5.81,2.51,13.92-0.39,17.08c-31.97,34.91-67.71,58.93-118.08,66.63
			c-41.41,6.33-82.12,8.97-123.48,9.62c-7.93,0.12-15.91,0.19-15.01,11.66c-9.73-10.89-27.8-25.67-29.56-34.51
			c1.96-19.3,34.97-0.01,44.25-0.05c27.98-0.13,54.82-0.64,79.46-17.92c17.9-12.55,41.6-9.14,62.46-15.64
			c29.68-9.25,60.74-11.44,83.46-36.49C349.37,667.29,357.88,669.77,363.65,669.77z"/>
		<path class="st16" d="M1076.13,506.44c-1.9-25.29-14.63-46.98-23.36-70c1.74-12.64-0.89-24.55,7.14-37.88
			c13.37-22.17,20.95-47.83,39.58-67.12c16.51,4.58,23.22,15.1,23.66,32.49c1.18,46.43-1.14,91.21-34.81,128.44
			C1084.38,496.77,1087.13,507.28,1076.13,506.44z"/>
		<path class="st3" d="M807.49,4.78c5.51,33.57-21.72,51.92-35.75,76.36c-4.63,8.06-15.66,7.94-20.14,4.77
			c-25.01-17.68-53.95-6.99-80.24-13.39c-1.99-0.48-2.71-6.15-4.03-9.4c15.23-11.67,29.53-24.9,45.91-34.65
			C741.99,11.35,772.56-1.35,807.49,4.78z"/>
		<path class="st17" d="M924.29,1043.1c1.03-10.07-4.55-27.2,14.18-22.74c31.56,7.51,42.8-25.43,67.43-30.85
			c1.2-0.26,0.15-10.71,0.15-16.41c34.65-5.91,49.69-35.32,70.08-58.33c3.61,30.6-10.14,56.82-19.64,84.57
			c-10.73,31.35-33.52,41.71-62.58,43.48C970.79,1044.22,947.51,1043.1,924.29,1043.1z"/>
		<path class="st2" d="M935.97,16.44c-0.68,14.74,3.61,29.74-11.67,41.83c-9.63,7.62-21,14.79-24.3,30.25
			c-2.32,10.86-29.56,13.93-30.89,5.61c-4.34-27.23-23.51-17.37-38.33-19.49c-3.42-0.49-6.6-2.62-9.89-3.99
			c1.59-2.73,2.96-5.61,4.8-8.16c10.59-14.69,33.66-21.64,28.53-46.06C881.47,16.44,908.72,16.44,935.97,16.44z"/>
		<path class="st15" d="M702.37,1043.1c19.89-29.38,52.32-29.15,78.36-21.53c25.79,7.55,50.47,8.94,76.17,10.08
			c5.89,0.26,10.32,4.24,9,11.45c0.87,11.17-6.93,10.73-14.71,11.85c-16.05,2.31-34.5-7.49-47.95,9.44
			c-1.68,2.12-8.49,3.27-10.24,1.77c-24.89-21.51-54.58-7.01-81.62-11.5C705.43,1053.67,701.05,1050.31,702.37,1043.1z"/>
		<path class="st16" d="M1134.53,716.44c1.95-24.28,0.77-48.49-15.95-67.57c-7.45-8.49-7.4-16.5-7.41-25.76
			c-4.95-4.74-9.91-9.46-11.63-16.48c-0.02-2.28-0.04-4.57-0.05-6.86c0-3.89,0-7.78,0-11.67c19.35-2.43,31.78,0.48,41.87,22.63
			C1158.78,648.96,1170.51,683.21,1134.53,716.44z"/>
		<path class="st5" d="M649.53,89.73c0,0,0.24,42.38-17.23,43.38C634.05,124.27,632.05,90.73,649.53,89.73z"/>
		<path class="st7" d="M445.41,938.1c5.68-0.42,10.85,0.74,9.26,7.73c-0.43,1.91-6.03,2.66-9.26,3.94
			C445.41,945.88,445.41,941.99,445.41,938.1z"/>
		<path class="st17" d="M889.25,1031.43c8.08-0.3,11.98,3.59,11.68,11.67c-3.89,0-7.79,0-11.68,0
			C889.25,1039.21,889.25,1035.32,889.25,1031.43z"/>
		<path class="st18" d="M457.09,891.43c-21.17-5.11-14.18-22.28-8.67-30.99c18.64-29.47,39.77-57.45,61.09-85.12
			c11.27-14.63,23.6-27.72,33.61-44.04c35.23-57.42,87.08-100.96,135.24-147.07c15-14.36,36.85-22.47,56.76-30.47
			c10.05-4.04,21.55-0.96,30.68,9.48c10.44,11.92,6.07,18.57-2.19,28.82c-6.12,7.59-6,18.32,8.84,19.4
			c-3.89,7.78-7.79,15.56-11.68,23.33c-3.45,4.46-7.72,7.9-12.75,10.41c-112.46,35.52-156.86,137.28-217.33,223.3
			c-4.33,6.16-6.14,14.15-10.58,20.63c-12.55,12.47-25.75,13.58-39.65,2.33C472.67,891.43,464.88,891.43,457.09,891.43z"/>
		<path class="st19" d="M749.09,634.77c3.89,0,7.79,0,11.68,0c15.93,0.13,13.22,13.06,11.18,20.58
			c-7.53,27.73-8.8,56.97-22.36,83.41c-6.49,12.65-22.55,24.76-1.95,43.77c8.67,8,1.44,33.19,1.44,50.57
			c1.38,9.18-10.39,11.27-10.96,17.29c-2.95,31.56-25.27,29.95-47.44,29.37c-11.51-10.08-13.04-23.76-13.84-37.72
			c-0.41-5.32-0.38-10.69-0.19-16.02c0.03-7.78,0.48-15.59,0.92-23.37c0.15-7.61,0.79-15.21,1.8-22.77c0.61-5.02,1.77-9.94,3.2-14.8
			c0.75-2.41,1.64-4.77,2.37-7.19c2.33-7.28,4.76-14.53,7.12-21.83C709.76,701.57,714.68,659.85,749.09,634.77z"/>
		<path class="st20" d="M690.69,798.1c0,7.78,0,15.56,0,23.33c-3.13,2.59-4.17,5.18-3.13,7.78c1.04,2.59,2.08,3.89,3.13,3.89
			c0,15.56,0,31.11,0,46.67c-13.48,3.75-22.14,11.41-23.58,26.33c-0.55,5.7-4.45,9.99-11.46,8.67
			c-38.95,1.94-80.22,13.38-108.99-26.47c18.21-63.1,79.66-75.16,125.39-105.84C682.64,782.46,685.34,791.85,690.69,798.1z"/>
		<path class="st20" d="M643.97,926.43c-15.79,13.83-30.99,28.42-47.51,41.32c-27.75,21.67-52.26,22.76-80.97,5.34
			c-24.54-14.6-29.69-35.46-15.31-58.9c13.79-22.48,36.19-23.01,55.76-10.15C583.29,922.03,618.54,904.31,643.97,926.43z"/>
		<path class="st21" d="M643.97,926.43c-36.89-1.26-75.29,7.46-107.96-19.64c-8.2-6.8-29.79,2.89-31.44,13.46
			c-2.9,18.57-2.08,37.18,10.91,52.85c-13.23-3.65-30.22,10.14-38.23-17.68c-4.58-15.93-7.63-23.3,2.43-36.62
			c4.48-5.93,0.76-18.05,0.76-27.36c11.5-4.44,29.56,10.81,35.04-11.67c11.68-9.21,23.36-9.98,35.04,0
			c13.93,25.22,38.37,21.19,61.53,24.19c14.39,1.86,34.78-14.21,43.59,10.81C655.95,922.84,652.06,926.73,643.97,926.43z"/>
		<path class="st6" d="M959.33,459.77c28.38,25.97,23.79,60.17,23.36,93.33c-19.47,17.57-38.93,14.69-58.4,0
			c-5.76,0-16.29,1.1-16.58-0.16c-5.47-23.71-22.25-27.87-41.72-22.8c-25.76,6.7-46.19-11.91-70.18-12.03c0-27.22,0-54.44,0-81.67
			c20.06-16.84,38.6-7.51,57.07,3.17c5.17,5.71-0.61-2.33,4.44,3.59c42.78,50.14,42.78,50.14,90.32,16.57
			C951.55,459.77,955.44,459.77,959.33,459.77z"/>
		<path class="st15" d="M854.21,448.11c-20.63,1.94-36.96-17.66-58.4-11.67c-33.57-41-33.57-41-46.72-93.33
			c9.2,0.05,18-1.36,25.54,7.51c11.03,12.97,23.72,24.56,36.02,36.4c19.8,19.05,19.91,18.94,43.56-8.91
			c24.52-17.06,50.56-31.24,78.7-41.48c5.7,0.36,10.58,2.62,14.74,6.48c0,7.78,0,15.56,0,23.33c-5.69,10.82-6.49,22.53-6.31,34.46
			C920.85,458.41,908.52,465.08,854.21,448.11z"/>
		<path class="st22" d="M714.05,191.44c22.21-13.77,43.58-10.96,46.08,7.73c2.52,18.84,6.53,42.51-2.22,56.54
			c-10.77,17.27-6.51,32.82-8.67,49.07c-1.04,7.8-0.33,15.9-11.83,14.99c-1.68-12.4-17.39-20.13-11.68-35
			C715.71,254.43,728,221.3,714.05,191.44z"/>
		<path class="st23" d="M714.05,191.44c6.99,1.34,19.36-3.81,20.29,3.63c3.77,30.23,10.33,61.42-8.61,89.71
			c-24.48-5.96-22.83-31.51-35.04-46.67C692.62,219.63,701.14,204.44,714.05,191.44z"/>
		<path class="st22" d="M714.05,191.44c0.94,19.91,2.49,40.13-23.36,46.67c-3.89,0-3-6.53-4.12-10.13c-3.01-4.6-4.43-4.57-5.01-5.47
			c-3.89-6-4.85-3.49-2.54-7.73C683.59,196.36,695.93,189.57,714.05,191.44z"/>
		<path class="st11" d="M279.94,187.22c-3.37,9.46-29.61,20.12-38.81,15.64c-2.04-1-4.15-5.5-3.55-7.65
			c2.55-9.12,29.15-19.67,38.36-15.21C278.06,181.03,278.76,184.96,279.94,187.22z"/>
		<path class="st22" d="M935.97,343.11c-7.11-1.78-10.74,3.77-13.53,8c-16.56,25.09-40.41,30.82-68.23,27
			c-1.68-12.4-17.39-20.13-11.68-35c-4.21-3.57-7.27-8.3-11.68-11.67c-8.58-27.47,7.89-51.4,13.65-76.02
			c8.76-37.45,21.19-40.64,79.79-40.64c7.1,0.69,7.28,8.28,11.68,11.67c6.16,13.15,14.74,24.75,12.24,41.45
			c-2.54,16.94-0.56,34.56-0.56,51.89C939.96,325.65,943.56,337.17,935.97,343.11z"/>
		<path class="st24" d="M935.97,226.44c-8.08,0.3-11.98-3.59-11.68-11.67c0-3.89,0-7.78,0-11.67
			C941.77,204.1,934.21,217.6,935.97,226.44z"/>
		<path class="st15" d="M830.85,331.44c8.08-0.3,11.98,3.59,11.68,11.67C834.45,343.4,830.56,339.52,830.85,331.44z"/>
		<path class="st25" d="M1029.41,693.1c-3.89,0-7.79,0-11.68,0c-21.45-4.54-42.6,4.13-65.96-9.52
			c-18.02-10.53-43.55,10.68-65.8,17.65c-15.39,4.82-26.99,18.65-46.01,15.78c-19.8-2.99-31.66-10.72-32.24-30.41
			c-0.86-28.92-0.22-57.88-0.22-86.82c32.07-19.86,80.67-34.43,116.8-35c1.46,1.28,3.16,2.37,4.35,3.87
			c18.65,23.58,11.7,69.71,47.9,74.06c41.32,4.97,39.57-46.78,64.55-66.27c8.85,1.76,22.36-5.79,23.36,11.67
			C1086.51,634.34,1041.56,658.26,1029.41,693.1z"/>
		<path class="st7" d="M1041.09,576.44c4.54,41.23-23.3,65.1-49.15,89.42c-10.06,9.46-32.03,5.13-38.87-8.9
			c-14.17-29.06-36.35-56.19-28.78-92.19c0-3.89,0-7.78,0-11.67c19.47,0,38.93,0,58.4,0
			C998.95,555.53,1033.52,569.34,1041.09,576.44z"/>
		<path class="st8" d="M854.21,448.11c5.59,0,11.2,0.28,16.78-0.04c43.5-2.56,52.55-10.72,64.98-58.29c3.89-5.27,7.79-5.27,11.68,0
			c0,23.33,0,46.67,0,70c-19.28,1.93-11.87,17.29-11.04,26.21c1.54,16.6-8.62,24.87-19.49,31.52c-5.47,3.35-21.38,1.16-21.53,0.04
			C891.79,488.21,851.02,480.96,854.21,448.11z"/>
		<path class="st19" d="M947.65,389.77c-3.89,0-7.79,0-11.68,0c1.76-8.84-5.79-22.34,11.68-23.33c2.98,2.59,3.97,5.18,2.98,7.78
			c-0.99,2.59-1.98,3.89-2.98,3.89C947.65,382,947.65,385.88,947.65,389.77z"/>
		<path class="st6" d="M947.65,378.11c0-3.89,0-7.78,0-11.67c3.89,0,7.79,0,11.68,0C959.63,374.51,955.74,378.4,947.65,378.11z"/>
		<path class="st19" d="M935.97,343.11c1.76-8.84-5.79-22.34,11.68-23.33c0,7.78,0,15.56,0,23.33
			C943.76,343.11,939.87,343.11,935.97,343.11z"/>
		<path class="st9" d="M1029.41,693.1c-2.67-25.24,5.1-47.65,23.86-63.81c14.33-12.35,10.53-26.7,11.18-41.19
			c12.42,1.68,20.16,17.37,35.04,11.67c6.34,7.78,7.22,15.56,0,23.33c-8.25,1.44-22.68-4.79-22.69,8.25
			C1076.78,665.19,1051.29,677.28,1029.41,693.1z"/>
		<path class="st1" d="M1099.49,623.1c0-7.78,0-15.56,0-23.33c17.47,1,9.92,14.49,11.68,23.33
			C1107.28,623.1,1103.39,623.1,1099.49,623.1z"/>
		<path class="st26" d="M550.53,879.77c-11.68,0-23.36,0-35.04,0c0.61-14.85-0.58-27.93,11.51-42.13
			c34.63-40.68,64.3-85.55,96.65-128c30.31-39.77,70.4-72.13,125.44-74.86c-10.96,40.73-37.65,75.18-46.72,116.67
			c-4.29,3.49-7.78,7.79-11.68,11.67c-3.74,4.21-6.45,8.85-6.18,14.75c0.6,4.43-1.24,7.28-5.5,8.58
			C636.19,817.55,593.36,848.66,550.53,879.77z"/>
		<path class="st21" d="M679.01,786.44c0-3.89,0-7.78,0-11.67c3.89-3.59,7.79-3.59,11.68,0c0,7.78,0,15.56,0,23.33
			C682.61,798.4,678.72,794.51,679.01,786.44z"/>
		<path class="st27" d="M690.69,763.1c-0.3-8.07,3.6-11.96,11.68-11.67C702.67,759.51,698.78,763.4,690.69,763.1z"/>
		<path class="st27" d="M690.69,774.77c-3.89,0-7.79,0-11.68,0c-0.3-8.07,3.6-11.96,11.68-11.67
			C690.69,766.99,690.69,770.88,690.69,774.77z"/>
		<path class="st21" d="M690.69,833.1c-5.68,0.42-10.85-0.74-9.26-7.73c0.43-1.91,6.03-2.66,9.26-3.94
			C690.69,825.32,690.69,829.21,690.69,833.1z"/>
		<path class="st23" d="M912.61,249.78c0,17.07,0.6,34.17-0.17,51.21c-0.79,17.58-13.85,33.71-25.03,29.99
			c-15.11-5.02-19.63-17.17-22.64-33.76c-4.48-24.69,22.16-28.99,24.47-47.44C897.04,242.94,904.83,242.94,912.61,249.78z"/>
		<path class="st15" d="M912.61,249.78c-7.79,0-15.57,0-23.36,0c0.95-10.2-4.96-25.72,14.51-23.02
			C918.03,228.74,911,241.5,912.61,249.78z"/>
	</g>
</g>
</svg>
